<?xml version="1.0" encoding="UTF-8" standalone="no"?>
<!-- Created with Inkscape (http://www.inkscape.org/) -->

<svg
   xmlns:dc="http://purl.org/dc/elements/1.1/"
   xmlns:cc="http://creativecommons.org/ns#"
   xmlns:rdf="http://www.w3.org/1999/02/22-rdf-syntax-ns#"
   xmlns:svg="http://www.w3.org/2000/svg"
   xmlns="http://www.w3.org/2000/svg"
   xmlns:sodipodi="http://sodipodi.sourceforge.net/DTD/sodipodi-0.dtd"
   xmlns:inkscape="http://www.inkscape.org/namespaces/inkscape"
   width="32"
   height="32"
   viewBox="0 0 8.4666666 8.4666666"
   version="1.1"
   id="svg8"
   inkscape:version="0.92.5 (2060ec1f9f, 2020-04-08)"
   sodipodi:docname="settings_bd.svg">
  <defs
     id="defs2" />
  <sodipodi:namedview
     id="base"
     pagecolor="#ffffff"
     bordercolor="#666666"
     borderopacity="1.0"
     inkscape:pageopacity="0.0"
     inkscape:pageshadow="2"
     inkscape:zoom="22.627417"
     inkscape:cx="6.9885314"
     inkscape:cy="15.557009"
     inkscape:document-units="mm"
     inkscape:current-layer="layer1"
     showgrid="false"
     units="px"
     inkscape:window-width="1920"
     inkscape:window-height="1043"
     inkscape:window-x="0"
     inkscape:window-y="120"
     inkscape:window-maximized="1">
    <sodipodi:guide
       position="8.4666666,0"
       orientation="-32,0"
       id="guide854"
       inkscape:locked="false" />
    <sodipodi:guide
       position="8.4666666,8.4666666"
       orientation="0,-32"
       id="guide856"
       inkscape:locked="false" />
    <sodipodi:guide
       position="0,8.4666814"
       orientation="32,0"
       id="guide858"
       inkscape:locked="false" />
  </sodipodi:namedview>
  <metadata
     id="metadata5">
    <rdf:RDF>
      <cc:Work
         rdf:about="">
        <dc:format>image/svg+xml</dc:format>
        <dc:type
           rdf:resource="http://purl.org/dc/dcmitype/StillImage" />
        <dc:title></dc:title>
      </cc:Work>
    </rdf:RDF>
  </metadata>
  <g
     inkscape:label="Layer 1"
     inkscape:groupmode="layer"
     id="layer1"
     transform="translate(0,-288.53334)">
    <path
       id="path886"
       d="m 6.7799437,291.83582 -0.1082446,0.18878 c -0.039602,0.0699 -0.1240854,0.0989 -0.1993291,0.0712 -0.1557667,-0.0581 -0.2983329,-0.14125 -0.4237385,-0.24553 -0.060724,-0.0502 -0.076564,-0.13861 -0.036962,-0.20724 l 0.108245,-0.18878 c -0.091084,-0.1056 -0.1623675,-0.22836 -0.2098896,-0.36169 h -0.217809 c -0.079203,0 -0.147847,-0.0568 -0.1610474,-0.13597 -0.0264,-0.15841 -0.027722,-0.32473 0,-0.48975 0.013202,-0.0791 0.081844,-0.13727 0.1610474,-0.13727 H 5.910025 c 0.047521,-0.13334 0.1188052,-0.25609 0.2098896,-0.3617 l -0.108245,-0.18876 c -0.039602,-0.0687 -0.025082,-0.15709 0.036962,-0.20725 0.1254056,-0.10428 0.269292,-0.18745 0.4237385,-0.24553 0.075244,-0.0277 0.1597274,0.002 0.199329,0.0712 l 0.1082447,0.18875 c 0.1386066,-0.0251 0.2798528,-0.0251 0.4184591,0 l 0.108245,-0.18875 c 0.039602,-0.07 0.1240854,-0.0991 0.199329,-0.0712 0.1557664,0.0581 0.2983329,0.14125 0.4237385,0.24553 0.060724,0.0502 0.076563,0.1386 0.036963,0.20725 l -0.1082449,0.18877 c 0.091084,0.10561 0.1623675,0.22836 0.2098896,0.3617 h 0.2178094 c 0.079203,0 0.1478466,0.0568 0.1610474,0.13596 0.026401,0.15841 0.027723,0.32473 0,0.48974 -0.013202,0.0791 -0.081845,0.13729 -0.1610474,0.13729 H 8.0683227 c -0.047521,0.13333 -0.1188053,0.25609 -0.2098896,0.36169 l 0.1082449,0.18877 c 0.039602,0.0687 0.025083,0.15709 -0.036962,0.20724 -0.1254056,0.10429 -0.2692919,0.18746 -0.4237385,0.24554 -0.075244,0.0277 -0.1597274,-0.002 -0.199329,-0.0713 l -0.108245,-0.18877 c -0.137286,0.0251 -0.2798526,0.0251 -0.4184591,0 z m -0.1386058,-0.7762 c 0.5082229,0.39075 1.0877289,-0.18876 0.696991,-0.69699 -0.5082226,-0.39206 -1.0877286,0.18877 -0.696991,0.69699 z m -1.5220281,2.03158 0.4448601,0.22177 c 0.1333258,0.0766 0.1914085,0.23893 0.1386059,0.38414 -0.1174854,0.31945 -0.3484956,0.6125 -0.5623452,0.86859 -0.097684,0.11749 -0.2666518,0.14653 -0.3999776,0.07 l -0.3841372,-0.22175 c -0.2112095,0.18085 -0.4567407,0.32473 -0.7247123,0.41845 v 0.44354 c 0,0.15313 -0.1095652,0.28514 -0.260052,0.31153 -0.3247345,0.0555 -0.6653095,0.0581 -1.0019246,0 -0.1518068,-0.0264 -0.2640118,-0.15708 -0.2640118,-0.31153 v -0.44354 c -0.2679719,-0.095 -0.5135031,-0.2376 -0.7247126,-0.41845 l -0.38413672,0.22044 c -0.132006,0.0766 -0.30229401,0.0475 -0.39997803,-0.07 -0.21384958,-0.25609 -0.43957991,-0.54914 -0.55706491,-0.86727 -0.05280284,-0.14389 0.0052795,-0.30626 0.13860613,-0.38414 l 0.43957962,-0.22177 c -0.0514824,-0.2759 -0.0514824,-0.5597 0,-0.83692 l -0.43957962,-0.2231 c -0.13332604,-0.0766 -0.19272869,-0.23893 -0.13860613,-0.38282 0.117485,-0.31945 0.34321533,-0.61251 0.55706491,-0.8686 0.097684,-0.11749 0.26665185,-0.14652 0.39997803,-0.0699 l 0.38413672,0.22177 c 0.2112095,-0.18085 0.4567407,-0.32473 0.7247126,-0.41845 v -0.44486 c 0,-0.15182 0.1082447,-0.28382 0.2587317,-0.31022 0.3247342,-0.0555 0.6666295,-0.0581 1.0032445,-0.002 0.1518068,0.0264 0.2640122,0.15709 0.2640122,0.31153 v 0.44354 c 0.2679716,0.0951 0.5135028,0.23762 0.7247123,0.41846 l 0.3841372,-0.22176 c 0.1320059,-0.0765 0.3022937,-0.0476 0.3999776,0.07 0.2138496,0.25609 0.4382598,0.54914 0.5557447,0.86859 0.052803,0.14389 0.00133,0.30625 -0.1320054,0.38414 l -0.4448601,0.22177 c 0.051482,0.27722 0.051482,0.56102 0,0.83824 z m -1.5523894,0.27852 c 0.7814749,-1.01644 -0.3788568,-2.17676 -1.3953024,-1.39529 -0.7814751,1.01644 0.3788568,2.17677 1.3953024,1.39529 z m 3.2130233,2.41175 -0.1082446,0.18877 c -0.039602,0.07 -0.1240854,0.099 -0.1993291,0.0713 -0.1557667,-0.0581 -0.2983329,-0.14123 -0.4237385,-0.24553 -0.060724,-0.0502 -0.076564,-0.1386 -0.036962,-0.20724 L 6.1199145,295.4 c -0.091084,-0.1056 -0.1623675,-0.22837 -0.2098896,-0.36169 h -0.217809 c -0.079203,0 -0.147847,-0.0568 -0.1610474,-0.13597 -0.0264,-0.15842 -0.027722,-0.32474 0,-0.48974 0.013202,-0.0792 0.081844,-0.13729 0.1610474,-0.13729 H 5.910025 c 0.047521,-0.13332 0.1188052,-0.25609 0.2098896,-0.3617 l -0.108245,-0.18876 c -0.039602,-0.0687 -0.025082,-0.15708 0.036962,-0.20725 0.1254056,-0.10428 0.269292,-0.18743 0.4237385,-0.24553 0.075244,-0.0277 0.1597274,0.002 0.199329,0.0713 l 0.1082447,0.18876 c 0.1386066,-0.0251 0.2798528,-0.0251 0.4184591,0 l 0.108245,-0.18876 c 0.039602,-0.07 0.1240854,-0.0991 0.199329,-0.0713 0.1557664,0.0581 0.2983329,0.14125 0.4237385,0.24553 0.060724,0.0502 0.076563,0.13861 0.036963,0.20725 l -0.1082449,0.18877 c 0.091084,0.10561 0.1623675,0.22838 0.2098896,0.3617 h 0.2178094 c 0.079203,0 0.1478466,0.0568 0.1610474,0.13597 0.026401,0.1584 0.027723,0.32473 0,0.48974 -0.013202,0.0792 -0.081845,0.13729 -0.1610474,0.13729 H 8.0683227 c -0.047521,0.13331 -0.1188053,0.25609 -0.2098896,0.36169 l 0.1082449,0.18877 c 0.039602,0.0687 0.025083,0.15709 -0.036962,0.20724 -0.1254056,0.1043 -0.2692919,0.18746 -0.4237385,0.24554 -0.075244,0.0277 -0.1597274,-0.002 -0.199329,-0.0713 l -0.1082448,-0.18877 c -0.137286,0.0251 -0.2798525,0.0251 -0.4184591,0 z m -0.1386058,-0.77751 c 0.5082229,0.39074 1.0877289,-0.18876 0.696991,-0.69698 -0.5082226,-0.39075 -1.0877286,0.18875 -0.696991,0.69698 z"
       inkscape:connector-curvature="0"
       style="stroke-width:0.01320058;fill:#232323;fill-opacity:1" />
  </g>
</svg>
