<svg id="Calque_1" data-name="Calque 1" xmlns="http://www.w3.org/2000/svg" viewBox="0 0 32 32"><defs><style>.cls-1{fill:#e3e3e3;}</style></defs><title>12layerik_l</title><path class="cls-1" d="M3.34,10.21a3,3,0,0,0,3.33.61A4.94,4.94,0,0,0,9.13,7.65l3.16,9.63c.12.33.12.34-.24.39a5.55,5.55,0,0,0-4.56,4.16c0,.11,0,.24-.12.33s-.1-.15-.13-.23Z"/><path class="cls-1" d="M25.59,13.22a3,3,0,0,1-3.37-.28,5,5,0,0,1-1.55-3.7l-5.56,8.47c-.2.29-.21.3.12.44a5.57,5.57,0,0,1,3.33,5.2c0,.12,0,.24,0,.35s.14-.11.19-.18Z"/><path class="cls-1" d="M4.35,2.67a2.22,2.22,0,0,1,2,1.26,2.25,2.25,0,0,1-1,3,2.28,2.28,0,0,1-1,.23,2.25,2.25,0,0,1-2.13-3A2.18,2.18,0,0,1,3.36,2.91a2.19,2.19,0,0,1,1-.24m0-2a4.17,4.17,0,0,0-1.87.44A4.25,4.25,0,0,0,4.36,9.17a4.17,4.17,0,0,0,1.87-.44A4.25,4.25,0,0,0,4.35.67Z"/><path class="cls-1" d="M28.38,24.09a3,3,0,0,0-2.52-2.25,4.94,4.94,0,0,0-3.75,1.42l2.32-9.86c.07-.35.07-.35.4-.21A5.55,5.55,0,0,0,30.89,12c.09-.08.14-.2.28-.22s0,.18,0,.26Z"/><circle class="cls-1" cx="24.77" cy="28.08" r="4.25"/><path class="cls-1" d="M12.65,21.58a2.25,2.25,0,0,1,1,4.24,2.2,2.2,0,0,1-1,.26,2.25,2.25,0,0,1,0-4.5m0-2a4.25,4.25,0,1,0,3.76,2.27,4.25,4.25,0,0,0-3.76-2.27Z"/><path class="cls-1" d="M26.63,5.88a2.25,2.25,0,1,1-2.25,2.25,2.24,2.24,0,0,1,2.25-2.25m0-2a4.25,4.25,0,1,0,4.24,4.25,4.25,4.25,0,0,0-4.24-4.25Z"/></svg>