<svg id="Calque_1" data-name="Calque 1" xmlns="http://www.w3.org/2000/svg" viewBox="0 0 32 32"><defs><style>.cls-1{fill:#e3e3e3;}</style></defs><title>2dcamera_l</title><path class="cls-1" d="M30.61,19.35a.48.48,0,0,1-.3.45.43.43,0,0,1-.19,0,.44.44,0,0,1-.34-.14l-3.09-3.09v1.27a2.21,2.21,0,0,1-2.21,2.21H19.09a2.2,2.2,0,0,1-2.2-2.21V12.49a2.2,2.2,0,0,1,2.2-2.21h5.39a2.21,2.21,0,0,1,2.21,2.21v1.26l3.09-3.08a.44.44,0,0,1,.34-.14.43.43,0,0,1,.19,0,.48.48,0,0,1,.3.45Z"/><path class="cls-1" d="M14.89,17.88V12.49a4.21,4.21,0,0,1,2.73-3.93L14.84,5,13.36,6.9,6.68,15.5l6.68,8.59L14.84,26,18,21.93A4.21,4.21,0,0,1,14.89,17.88Z"/><polygon class="cls-1" points="10.4 6.89 8.93 5 0.76 15.5 8.93 26 10.41 24.1 3.71 15.49 10.4 6.89"/></svg>