<svg id="Calque_1" data-name="Calque 1" xmlns="http://www.w3.org/2000/svg" viewBox="0 0 32 32"><defs><style>.cls-1{fill:#e3e3e3;}.cls-2{fill:none;stroke:#e3e3e3;stroke-miterlimit:10;}</style></defs><title>3layerik_l</title><path class="cls-1" d="M2.58,22.31a3,3,0,0,1,2.71-2A5,5,0,0,1,8.91,22L7.48,12c0-.35,0-.36-.38-.25a5.53,5.53,0,0,1-5.93-1.71c-.08-.09-.12-.21-.25-.24s0,.18,0,.26Z"/><path class="cls-1" d="M22.33,9.79A3,3,0,0,1,20.47,7a5,5,0,0,1,2-3.51l-10.09.86c-.35,0-.36,0-.27.37a5.55,5.55,0,0,1-2,5.82c-.09.07-.22.11-.26.24s.18,0,.26,0Z"/><path class="cls-1" d="M5.83,24.35A2.25,2.25,0,1,1,3.58,26.6a2.24,2.24,0,0,1,2.25-2.25m0-2a4.25,4.25,0,1,0,4.24,4.25,4.25,4.25,0,0,0-4.24-4.25Z"/><path class="cls-1" d="M27.38,23.09a3,3,0,0,0-2.52-2.25,4.94,4.94,0,0,0-3.75,1.42l2.32-9.86c.07-.35.07-.35.4-.21A5.55,5.55,0,0,0,29.89,11c.09-.08.14-.2.28-.22s0,.18,0,.26Z"/><circle class="cls-1" cx="23.77" cy="27.08" r="4.25"/><path class="cls-1" d="M6,3.92a2.24,2.24,0,0,1,.92.2,2.24,2.24,0,0,1,1.13,3A2.24,2.24,0,1,1,6,3.92m0-2A4.24,4.24,0,0,0,4.27,10,4.08,4.08,0,0,0,6,10.41,4.25,4.25,0,0,0,6,1.92Z"/><path class="cls-1" d="M26.63,4.88a2.25,2.25,0,1,1-2.25,2.25,2.25,2.25,0,0,1,2.25-2.25m0-2a4.25,4.25,0,1,0,4.25,4.25,4.25,4.25,0,0,0-4.25-4.25Z"/><line class="cls-2" x1="8.91" y1="26.6" x2="20.33" y2="26.6"/></svg>