<svg id="Calque_1" data-name="Calque 1" xmlns="http://www.w3.org/2000/svg" viewBox="0 0 32 32"><defs><style>.cls-1{fill:#e3e3e3;}</style></defs><title>addlayer_l</title><path class="cls-1" d="M21.73,12.6h0a2.64,2.64,0,0,0,0-.29,9.31,9.31,0,1,0-9.31,9.31h0A9.27,9.27,0,0,1,21.73,12.6Z"/><path class="cls-1" d="M21.73,29.13A7.27,7.27,0,1,1,29,21.87,7.27,7.27,0,0,1,21.73,29.13ZM26,21.26a.61.61,0,0,0-.61-.6H22.94V18.24a.61.61,0,0,0-.61-.61H21.12a.61.61,0,0,0-.6.61v2.42H18.1a.61.61,0,0,0-.61.6v1.21a.61.61,0,0,0,.61.61h2.42V25.5a.61.61,0,0,0,.6.61h1.21a.61.61,0,0,0,.61-.61V23.08h2.42a.61.61,0,0,0,.61-.61Z"/></svg>