<svg id="Calque_1" data-name="Calque 1" xmlns="http://www.w3.org/2000/svg" viewBox="0 0 32 32"><defs><style>.cls-1{fill:#e3e3e3;}</style></defs><title>aelayers_l</title><path class="cls-1" d="M15.94,25.62a9.41,9.41,0,0,1-2.27-.28,7.7,7.7,0,0,0,4.27,1.28,7.81,7.81,0,0,0,7.81-7.81,7.46,7.46,0,0,0-.14-1.43A9.82,9.82,0,0,1,15.94,25.62Z"/><circle class="cls-1" cx="13.94" cy="12.81" r="7.81"/><path class="cls-1" d="M13.94,22.62a9.41,9.41,0,0,1-2.27-.28,7.7,7.7,0,0,0,4.27,1.28,7.81,7.81,0,0,0,7.81-7.81,7.46,7.46,0,0,0-.14-1.43A9.82,9.82,0,0,1,13.94,22.62Z"/></svg>