<svg id="Calque_1" data-name="Calque 1" xmlns="http://www.w3.org/2000/svg" viewBox="0 0 32 32"><defs><style>.cls-1{fill:#e3e3e3;}</style></defs><title>animtools_l</title><path class="cls-1" d="M27.55,14.87l-2.32-2.32s1.16-1.16.24-2.09-2.09.23-2.09.23l-1.16,1.16L19.9,9.53l2.32-2.32S22.68,4,18.74,2.34l.46-.93a12.83,12.83,0,0,1,5.8,3l2.09,2.09s-1.16,1.16-.23,2.09S29,8.37,29,8.37l2.55,2.56Z"/><path class="cls-1" d="M15.77,1.78C15,5.44,12.11,10.56,16.5,15a11.46,11.46,0,0,0,10.24,2.93l2.2,3.66L26.74,23l-3.65-2.2s-6.8-.59-9.52-5.12C11.38,12,12.11,7.63,15.77,1.78Z"/><path class="cls-1" d="M17.53,13.92A9.54,9.54,0,0,0,19,15.09l2.77-2.77L19.43,10l-2.76,2.76A5.37,5.37,0,0,0,17.53,13.92Z"/><path class="cls-1" d="M11.86,16.71A10.48,10.48,0,0,1,10.4,10c-1-2.7-2.2-4.43-3.86-4.43C2,5.59.48,18,0,28.43l3,.14C3.43,19,5.06,10,6.53,8.67,8,10,9.6,19.08,10.08,28.58A1.5,1.5,0,0,0,11.57,30h0a1.5,1.5,0,0,0,1.48-1.47,43.39,43.39,0,0,1,1.1-9.18A10.19,10.19,0,0,1,11.86,16.71Z"/><path class="cls-1" d="M27.29,27a4.09,4.09,0,0,0-1-2,.71.71,0,0,0-.14-.1,2.18,2.18,0,0,1-.47-.21L25,24.3a2.63,2.63,0,0,0-1.42.05c-.13-.43-.26-.8-.39-1.14l-.79-.47a18.26,18.26,0,0,1-7.29-2.67,46.75,46.75,0,0,1,1.24,8.52,1.5,1.5,0,0,0,3,.12,23.53,23.53,0,0,1,1-4.45,24.33,24.33,0,0,1,1,4.45,1.5,1.5,0,0,0,3-.24,1.76,1.76,0,0,1,0-.39,2.57,2.57,0,0,1,0,.39,1.55,1.55,0,0,0,.43,1.08,1.51,1.51,0,0,0,1.07.45H31V27Z"/><path class="cls-1" d="M15.77,1.78C15,5.44,12.11,10.56,16.5,15a11.46,11.46,0,0,0,10.24,2.93l2.2,3.66L26.74,23l-3.65-2.2s-6.8-.59-9.52-5.12C11.38,12,12.11,7.63,15.77,1.78Z"/></svg>