<svg id="Calque_1" data-name="Calque 1" xmlns="http://www.w3.org/2000/svg" viewBox="0 0 32 32"><defs><style>.cls-1,.cls-2{fill:none;stroke:#e3e3e3;stroke-miterlimit:10;}.cls-1{stroke-width:2px;}.cls-3{fill:#e3e3e3;}</style></defs><title>animatedproperties_l</title><rect class="cls-1" x="18.44" y="4.54" width="10.52" height="10.52" rx="3.33"/><rect class="cls-2" x="18.44" y="17.54" width="10.52" height="10.52" rx="3.33"/><rect class="cls-2" x="4.44" y="4.54" width="10.52" height="10.52" rx="3.33"/><rect class="cls-1" x="4.44" y="17.54" width="10.52" height="10.52" rx="3.33"/><polygon class="cls-3" points="24.39 10.03 24.39 9.57 26.68 7.28 26.68 6.83 20.72 6.83 20.72 7.28 23.01 9.57 23.01 10.03 20.72 12.32 20.72 12.78 26.68 12.78 26.68 12.32 24.39 10.03"/><polygon class="cls-3" points="10.38 23.23 10.38 22.77 12.68 20.48 12.68 20.02 6.72 20.02 6.72 20.48 9.01 22.77 9.01 23.23 6.72 25.52 6.72 25.98 12.68 25.98 12.68 25.52 10.38 23.23"/></svg>