<?xml version="1.0" encoding="UTF-8" standalone="no"?>
<!-- Created with Inkscape (http://www.inkscape.org/) -->

<svg
   xmlns:dc="http://purl.org/dc/elements/1.1/"
   xmlns:cc="http://creativecommons.org/ns#"
   xmlns:rdf="http://www.w3.org/1999/02/22-rdf-syntax-ns#"
   xmlns:svg="http://www.w3.org/2000/svg"
   xmlns="http://www.w3.org/2000/svg"
   xmlns:sodipodi="http://sodipodi.sourceforge.net/DTD/sodipodi-0.dtd"
   xmlns:inkscape="http://www.inkscape.org/namespaces/inkscape"
   width="32"
   height="32"
   viewBox="0 0 8.4666666 8.4666666"
   version="1.1"
   id="svg8"
   inkscape:version="0.92.5 (2060ec1f9f, 2020-04-08)"
   sodipodi:docname="audio-codec_bl.svg">
  <defs
     id="defs2">
    <style
       id="style1399">.cls-1{fill:#e3e3e3;}</style>
    <style
       id="style1399-4">.cls-1{fill:#e3e3e3;}</style>
    <style
       id="style1399-5">.cls-1{fill:#e3e3e3;}</style>
    <style
       id="style1399-7">.cls-1{fill:#e3e3e3;}</style>
  </defs>
  <sodipodi:namedview
     id="base"
     pagecolor="#ffffff"
     bordercolor="#666666"
     borderopacity="1.0"
     inkscape:pageopacity="0.0"
     inkscape:pageshadow="2"
     inkscape:zoom="2"
     inkscape:cx="-158.70661"
     inkscape:cy="0.43933498"
     inkscape:document-units="mm"
     inkscape:current-layer="svg8"
     showgrid="false"
     units="px"
     inkscape:window-width="1920"
     inkscape:window-height="1043"
     inkscape:window-x="0"
     inkscape:window-y="120"
     inkscape:window-maximized="1">
    <sodipodi:guide
       position="8.4666666,0"
       orientation="-32,0"
       id="guide854"
       inkscape:locked="false" />
    <sodipodi:guide
       position="8.4666666,8.4599157"
       orientation="0,-32"
       id="guide856"
       inkscape:locked="false" />
    <sodipodi:guide
       position="0,8.4666814"
       orientation="32,0"
       id="guide858"
       inkscape:locked="false" />
  </sodipodi:namedview>
  <metadata
     id="metadata5">
    <rdf:RDF>
      <cc:Work
         rdf:about="">
        <dc:format>image/svg+xml</dc:format>
        <dc:type
           rdf:resource="http://purl.org/dc/dcmitype/StillImage" />
        <dc:title></dc:title>
      </cc:Work>
    </rdf:RDF>
  </metadata>
  <path
     style="fill:#e3e3e3;fill-opacity:1;stroke-width:0.08291218"
     d="M 19.564453,0.0390625 C 19.0038,-0.02578885 18.410051,0.14268384 17.943359,0.609375 l -7.376953,7.375 H 2.1035156 c -1.0994153,0 -1.98828123,0.8908231 -1.98828122,1.9902344 V 21.914062 c 0,1.098587 0.88886592,1.988282 1.98828122,1.988282 h 8.4628904 l 7.376953,7.375 c 1.246171,1.24617 3.396485,0.371385 3.396485,-1.40625 V 2.015625 c 0,-1.11205899 -0.84097,-1.86847692 -1.775391,-1.9765625 z m 7.457031,9.2949219 c -0.636075,0.057767 -1.23372,0.417911 -1.566406,1.0195316 -0.529806,0.962611 -0.179403,2.17166 0.783203,2.703125 1.070397,0.587847 1.734375,1.695272 1.734375,2.886718 0,1.192278 -0.664808,2.298872 -1.734375,2.886719 -0.96261,0.531469 -1.313011,1.740513 -0.783203,2.703125 0.533125,0.966755 1.74466,1.309695 2.703125,0.783203 2.340609,-1.289283 3.794922,-3.729807 3.794922,-6.373047 0,-2.643238 -1.453483,-5.084589 -3.794922,-6.3730465 C 27.798157,9.3735009 27.40313,9.2993244 27.021484,9.3339844 Z M 6.532032,12.515625 c 0.4426092,10e-7 0.8083465,0.07916 1.0978727,0.232242 0.2928541,0.149756 0.5246587,0.365958 0.694381,0.652155 0.1697223,0.282872 0.2876718,0.631259 0.3542282,1.043918 0.066558,0.409331 0.1008724,0.874303 0.1008724,1.393454 0,0.515822 -0.043481,0.979813 -0.1266775,1.395799 -0.083201,0.415987 -0.2184935,0.772179 -0.4081835,1.06503 -0.1863616,0.292855 -0.4314225,0.516858 -0.734261,0.673269 C 7.2107543,19.127906 6.8436518,19.20608 6.4077,19.20608 5.9650902,19.206079 5.5993512,19.130628 5.3098272,18.980876 5.0202992,18.827793 4.7898588,18.611593 4.6201384,18.32872 4.4504179,18.042522 4.3311004,17.694134 4.2612185,17.284802 c -0.066559,-0.412657 -0.100873,-0.878994 -0.100873,-1.398144 0,-0.512495 0.041135,-0.977468 0.1243317,-1.393455 0.086524,-0.419313 0.2241669,-0.774524 0.4105294,-1.067375 0.1896895,-0.292855 0.43475,-0.516859 0.7342609,-0.673268 0.3028372,-0.156411 0.66994,-0.236935 1.1025645,-0.236935 z m -4.40322,0.110257 h 0.6146209 c 0.1811148,0 0.3260776,0.144958 0.3260776,0.326077 v 5.824825 c 0,0.181114 -0.1449582,0.328423 -0.3260776,0.328423 H 2.128812 c -0.181119,0 -0.3260776,-0.147305 -0.3260776,-0.328423 v -5.824825 c 0,-0.181119 0.1449586,-0.326077 0.3260776,-0.326077 z m 8.041683,0 h 0.612275 c 0.18111,0 0.326077,0.144958 0.326077,0.326077 v 5.824825 c 0,0.181114 -0.144958,0.328423 -0.326077,0.328423 h -0.612275 c -0.1811152,0 -0.3284238,-0.147305 -0.3284238,-0.328423 v -5.824825 c 0,-0.181119 0.1473042,-0.326077 0.3284238,-0.326077 z M 6.4757309,13.55485 c -0.1963437,5e-6 -0.3581575,0.04893 -0.4879434,0.145445 -0.1264585,0.09318 -0.2284277,0.234914 -0.3049647,0.424605 -0.073214,0.18969 -0.1248671,0.425583 -0.1548282,0.708456 -0.029961,0.282871 -0.044571,0.611569 -0.044571,0.987616 0,0.459248 0.019712,0.841952 0.056301,1.144791 0.036607,0.299507 0.092361,0.538132 0.1689035,0.717839 0.079869,0.176376 0.1818246,0.302127 0.3049647,0.375341 0.1231354,0.06988 0.270319,0.103222 0.4433716,0.103222 0.1297904,0 0.2450106,-0.0187 0.3448446,-0.05865 0.099834,-0.04325 0.184833,-0.106825 0.258047,-0.190017 0.076537,-0.0832 0.1400949,-0.18789 0.1900164,-0.314348 0.049917,-0.126463 0.089678,-0.272287 0.1196395,-0.438681 0.033283,-0.166393 0.055698,-0.355702 0.065684,-0.565357 0.013346,-0.209657 0.021113,-0.441459 0.021113,-0.694381 0,-0.306165 -0.00919,-0.57403 -0.025804,-0.806983 -0.016637,-0.236278 -0.043125,-0.441568 -0.07976,-0.61462 C 7.3174698,14.306075 7.2726244,14.160257 7.2193753,14.040448 7.1694583,13.92065 7.109606,13.824137 7.0363965,13.754251 6.963178,13.681032 6.8809121,13.63173 6.7877331,13.601768 6.6945495,13.571807 6.5888793,13.55485 6.4757309,13.55485 Z m 10.3770511,5.775941 c -0.442609,0 -0.808346,-0.07681 -1.097873,-0.229896 -0.292854,-0.149755 -0.524658,-0.368303 -0.694381,-0.654501 -0.169721,-0.282871 -0.287672,-0.631259 -0.354227,-1.043917 -0.06658,-0.40933 -0.10088,-0.874308 -0.100868,-1.393455 0,-0.515822 0.04114,-0.979812 0.124333,-1.395799 0.0832,-0.415985 0.220838,-0.769829 0.410529,-1.062685 0.186361,-0.292857 0.431423,-0.519203 0.734261,-0.675614 0.29951,-0.156409 0.666612,-0.234587 1.102565,-0.234587 0.442608,0 0.808347,0.07545 1.097872,0.225204 0.289524,0.153083 0.519969,0.371628 0.689689,0.654502 0.169721,0.286197 0.289033,0.634584 0.35892,1.043916 0.06658,0.412659 0.100868,0.87665 0.100868,1.395801 0,0.512493 -0.04114,0.977466 -0.124331,1.393453 -0.08651,0.419314 -0.224167,0.774525 -0.41053,1.067376 -0.189689,0.292854 -0.43475,0.519203 -0.734261,0.675614 -0.302837,0.156406 -0.66994,0.234588 -1.102564,0.234588 z m -3.638588,-0.107906 -0.614621,0 c -0.18112,0 -0.326078,-0.144959 -0.326078,-0.326078 l 0,-5.822479 c 0,-0.181119 0.144958,-0.328423 0.326078,-0.328423 l 0.614621,0 c 0.181114,0 0.326077,0.147304 0.326077,0.328423 v 5.822479 c 0,0.181124 -0.144958,0.326078 -0.326077,0.326078 z m 3.692544,-0.931316 c 0.196345,-4e-6 0.360503,-0.04893 0.490289,-0.145445 0.126458,-0.09318 0.228427,-0.234914 0.304964,-0.424603 0.07322,-0.18969 0.124868,-0.425588 0.154828,-0.708457 0.02995,-0.28287 0.04457,-0.611563 0.04457,-0.987617 0,-0.459248 -0.01966,-0.839606 -0.0563,-1.142444 -0.03661,-0.299512 -0.09236,-0.540483 -0.168904,-0.720186 -0.07987,-0.176375 -0.181843,-0.29979 -0.304964,-0.372995 -0.123136,-0.06989 -0.27032,-0.105564 -0.443372,-0.105564 -0.129791,0 -0.245011,0.02104 -0.344844,0.06099 -0.09984,0.04326 -0.18718,0.104471 -0.260393,0.18767 -0.07653,0.0832 -0.140096,0.187889 -0.190017,0.314349 -0.04992,0.126463 -0.08967,0.274632 -0.11964,0.441025 -0.03331,0.166393 -0.05335,0.353356 -0.06333,0.563011 -0.01334,0.209658 -0.02111,0.44146 -0.02111,0.694381 0,0.306166 0.0092,0.574032 0.0258,0.806984 0.01663,0.236278 0.04313,0.441568 0.07977,0.614621 0.03328,0.173052 0.07578,0.318877 0.129023,0.438679 0.04992,0.119797 0.11211,0.216312 0.185325,0.286198 0.07322,0.07322 0.155485,0.124868 0.248663,0.154829 0.09318,0.02997 0.196509,0.04457 0.309657,0.04457 z"
     transform="scale(0.26458333)"
     id="path1124"
     inkscape:connector-curvature="0"
     sodipodi:nodetypes="sccssssccssssccscccscsccccccccccccsccccsssssssssssssssssscccsscccsccccccccccccscccccccscccscccsscssssssscccsscccscccccsccccsccc" />
</svg>
