<?xml version="1.0" encoding="UTF-8" standalone="no"?>
<!-- Created with Inkscape (http://www.inkscape.org/) -->

<svg
   xmlns:dc="http://purl.org/dc/elements/1.1/"
   xmlns:cc="http://creativecommons.org/ns#"
   xmlns:rdf="http://www.w3.org/1999/02/22-rdf-syntax-ns#"
   xmlns:svg="http://www.w3.org/2000/svg"
   xmlns="http://www.w3.org/2000/svg"
   xmlns:sodipodi="http://sodipodi.sourceforge.net/DTD/sodipodi-0.dtd"
   xmlns:inkscape="http://www.inkscape.org/namespaces/inkscape"
   width="32"
   height="32"
   viewBox="0 0 8.4666666 8.4666666"
   version="1.1"
   id="svg8"
   inkscape:version="0.92.5 (2060ec1f9f, 2020-04-08)"
   sodipodi:docname="audio-bit-depth_bl.svg">
  <defs
     id="defs2">
    <style
       id="style1399">.cls-1{fill:#e3e3e3;}</style>
    <style
       id="style1399-4">.cls-1{fill:#e3e3e3;}</style>
    <style
       id="style1399-8">.cls-1{fill:#e3e3e3;}</style>
    <style
       id="style1399-4-5">.cls-1{fill:#e3e3e3;}</style>
    <style
       id="style1399-9">.cls-1{fill:#e3e3e3;}</style>
    <style
       id="style1399-4-6">.cls-1{fill:#e3e3e3;}</style>
    <style
       id="style1399-8-4">.cls-1{fill:#e3e3e3;}</style>
    <style
       id="style1399-4-5-3">.cls-1{fill:#e3e3e3;}</style>
    <style
       id="style1399-88">.cls-1{fill:#e3e3e3;}</style>
    <style
       id="style1399-3">.cls-1{fill:#e3e3e3;}</style>
    <style
       id="style1399-94">.cls-1{fill:#e3e3e3;}</style>
    <style
       id="style1399-5">.cls-1{fill:#e3e3e3;}</style>
    <style
       id="style1399-46">.cls-1{fill:#e3e3e3;}</style>
    <style
       id="style1399-4-2">.cls-1{fill:#e3e3e3;}</style>
    <style
       id="style1399-8-5">.cls-1{fill:#e3e3e3;}</style>
    <style
       id="style1399-4-5-8">.cls-1{fill:#e3e3e3;}</style>
    <style
       id="style1399-9-6">.cls-1{fill:#e3e3e3;}</style>
    <style
       id="style1399-4-6-2">.cls-1{fill:#e3e3e3;}</style>
    <style
       id="style1399-8-4-8">.cls-1{fill:#e3e3e3;}</style>
    <style
       id="style1399-4-5-3-4">.cls-1{fill:#e3e3e3;}</style>
    <style
       id="style1399-88-7">.cls-1{fill:#e3e3e3;}</style>
    <style
       id="style1399-3-2">.cls-1{fill:#e3e3e3;}</style>
    <style
       id="style1399-94-4">.cls-1{fill:#e3e3e3;}</style>
    <style
       id="style1399-5-0">.cls-1{fill:#e3e3e3;}</style>
  </defs>
  <sodipodi:namedview
     id="base"
     pagecolor="#ffffff"
     bordercolor="#666666"
     borderopacity="1.0"
     inkscape:pageopacity="0.0"
     inkscape:pageshadow="2"
     inkscape:zoom="16.000001"
     inkscape:cx="22.52623"
     inkscape:cy="21.725189"
     inkscape:document-units="mm"
     inkscape:current-layer="svg8"
     showgrid="false"
     units="px"
     inkscape:window-width="3440"
     inkscape:window-height="1403"
     inkscape:window-x="0"
     inkscape:window-y="293"
     inkscape:window-maximized="1">
    <sodipodi:guide
       position="8.4666666,0"
       orientation="-32,0"
       id="guide854"
       inkscape:locked="false" />
    <sodipodi:guide
       position="8.4666666,8.4666662"
       orientation="0,-32"
       id="guide856"
       inkscape:locked="false" />
    <sodipodi:guide
       position="0,8.4666814"
       orientation="32,0"
       id="guide858"
       inkscape:locked="false" />
  </sodipodi:namedview>
  <metadata
     id="metadata5">
    <rdf:RDF>
      <cc:Work
         rdf:about="">
        <dc:format>image/svg+xml</dc:format>
        <dc:type
           rdf:resource="http://purl.org/dc/dcmitype/StillImage" />
        <dc:title></dc:title>
      </cc:Work>
    </rdf:RDF>
  </metadata>
  <path
     style="opacity:1;fill:#e3e3e3;fill-opacity:1;stroke:none;stroke-width:3.64829826;stroke-miterlimit:4;stroke-dasharray:none;stroke-opacity:0.98156684"
     d="M 0.609375 0.00390625 C 0.2751476 0.00390625 0.005859375 0.27319372 0.005859375 0.60742188 L 0.005859375 2.6582031 C 0.005859375 2.9924305 0.27514722 3.2617188 0.609375 3.2617188 L 5.53125 3.2617188 C 5.8654774 3.2617188 6.1347656 2.9924313 6.1347656 2.6582031 L 6.1347656 0.60742188 C 6.1347656 0.27319447 5.8654785 0.00390625 5.53125 0.00390625 L 0.609375 0.00390625 z M 9.2304688 0.00390625 C 8.8962413 0.00390625 8.6269531 0.27319372 8.6269531 0.60742188 L 8.6269531 2.6582031 C 8.6269531 2.9924305 8.896241 3.2617188 9.2304688 3.2617188 L 14.152344 3.2617188 C 14.486571 3.2617188 14.755859 2.9924313 14.755859 2.6582031 L 14.755859 0.60742188 C 14.755859 0.27319447 14.486572 0.00390625 14.152344 0.00390625 L 9.2304688 0.00390625 z M 17.853516 0.00390625 C 17.519288 0.00390625 17.25 0.27319372 17.25 0.60742188 L 17.25 2.6582031 C 17.25 2.9924305 17.519288 3.2617188 17.853516 3.2617188 L 22.775391 3.2617188 C 23.109618 3.2617188 23.378906 2.9924313 23.378906 2.6582031 L 23.378906 0.60742188 C 23.378906 0.27319447 23.109619 0.00390625 22.775391 0.00390625 L 17.853516 0.00390625 z M 26.474609 0.00390625 C 26.140382 0.00390625 25.871094 0.27319372 25.871094 0.60742188 L 25.871094 2.6582031 C 25.871094 2.9924305 26.140382 3.2617188 26.474609 3.2617188 L 31.396484 3.2617188 C 31.730712 3.2617188 32 2.9924313 32 2.6582031 L 32 0.60742188 C 32 0.27319447 31.730713 0.00390625 31.396484 0.00390625 L 26.474609 0.00390625 z M 0.890625 0.54492188 L 5.25 0.54492188 C 5.4373247 0.54492188 5.5878906 0.69548778 5.5878906 0.8828125 L 5.5878906 2.3828125 C 5.5878906 2.5701372 5.4373247 2.7207031 5.25 2.7207031 L 0.890625 2.7207031 C 0.7032965 2.7207031 0.55273438 2.5701372 0.55273438 2.3828125 L 0.55273438 0.8828125 C 0.55273438 0.695484 0.70330028 0.54492263 0.890625 0.54492188 z M 9.5117188 0.54492188 L 13.871094 0.54492188 C 14.058418 0.54492188 14.208984 0.69548778 14.208984 0.8828125 L 14.208984 2.3828125 C 14.208984 2.5701372 14.058418 2.7207031 13.871094 2.7207031 L 9.5117188 2.7207031 C 9.3243902 2.7207031 9.1738281 2.5701372 9.1738281 2.3828125 L 9.1738281 0.8828125 C 9.1738281 0.695484 9.324394 0.54492263 9.5117188 0.54492188 z M 18.134766 0.54492188 L 22.494141 0.54492188 C 22.681465 0.54492188 22.832031 0.69548778 22.832031 0.8828125 L 22.832031 2.3828125 C 22.832031 2.5701372 22.681465 2.7207031 22.494141 2.7207031 L 18.134766 2.7207031 C 17.947437 2.7207031 17.796875 2.5701372 17.796875 2.3828125 L 17.796875 0.8828125 C 17.796875 0.695484 17.947441 0.54492263 18.134766 0.54492188 z M 26.755859 0.54492188 L 31.115234 0.54492188 C 31.302559 0.54492188 31.453125 0.69548778 31.453125 0.8828125 L 31.453125 2.3828125 C 31.453125 2.5701372 31.302559 2.7207031 31.115234 2.7207031 L 26.755859 2.7207031 C 26.568531 2.7207031 26.417969 2.5701372 26.417969 2.3828125 L 26.417969 0.8828125 C 26.417969 0.695484 26.568535 0.54492263 26.755859 0.54492188 z M 0.609375 4.7910156 C 0.2751476 4.7910156 0.005859375 5.0603031 0.005859375 5.3945312 L 0.005859375 7.4472656 C 0.005859375 7.781493 0.27514722 8.0507812 0.609375 8.0507812 L 5.53125 8.0507812 C 5.8654774 8.0507812 6.1347656 7.7814938 6.1347656 7.4472656 L 6.1347656 5.3945312 C 6.1347656 5.0603038 5.8654785 4.7910156 5.53125 4.7910156 L 0.609375 4.7910156 z M 9.2304688 4.7910156 C 8.8962413 4.7910156 8.6269531 5.0603031 8.6269531 5.3945312 L 8.6269531 7.4472656 C 8.6269531 7.781493 8.896241 8.0507812 9.2304688 8.0507812 L 14.152344 8.0507812 C 14.486571 8.0507812 14.755859 7.7814938 14.755859 7.4472656 L 14.755859 5.3945312 C 14.755859 5.0603038 14.486572 4.7910156 14.152344 4.7910156 L 9.2304688 4.7910156 z M 17.853516 4.7910156 C 17.519288 4.7910156 17.25 5.0603031 17.25 5.3945312 L 17.25 7.4472656 C 17.25 7.781493 17.519288 8.0507812 17.853516 8.0507812 L 22.775391 8.0507812 C 23.109618 8.0507812 23.378906 7.7814938 23.378906 7.4472656 L 23.378906 5.3945312 C 23.378906 5.0603038 23.109619 4.7910156 22.775391 4.7910156 L 17.853516 4.7910156 z M 26.474609 4.7910156 C 26.140382 4.7910156 25.871094 5.0603031 25.871094 5.3945312 L 25.871094 7.4472656 C 25.871094 7.781493 26.140382 8.0507812 26.474609 8.0507812 L 31.396484 8.0507812 C 31.730712 8.0507812 32 7.7814938 32 7.4472656 L 32 5.3945312 C 32 5.0603038 31.730713 4.7910156 31.396484 4.7910156 L 26.474609 4.7910156 z M 0.890625 5.3320312 L 5.25 5.3320312 C 5.4373247 5.3320312 5.5878906 5.4825972 5.5878906 5.6699219 L 5.5878906 7.171875 C 5.5878906 7.3591997 5.4373247 7.5097656 5.25 7.5097656 L 0.890625 7.5097656 C 0.7032965 7.5097656 0.55273438 7.3591997 0.55273438 7.171875 L 0.55273438 5.6699219 C 0.55273438 5.4825934 0.70330028 5.332032 0.890625 5.3320312 z M 9.5117188 5.3320312 L 13.871094 5.3320312 C 14.058418 5.3320312 14.208984 5.4825972 14.208984 5.6699219 L 14.208984 7.171875 C 14.208984 7.3591997 14.058418 7.5097656 13.871094 7.5097656 L 9.5117188 7.5097656 C 9.3243902 7.5097656 9.1738281 7.3591997 9.1738281 7.171875 L 9.1738281 5.6699219 C 9.1738281 5.4825934 9.324394 5.332032 9.5117188 5.3320312 z M 18.134766 5.3320312 L 22.494141 5.3320312 C 22.681465 5.3320312 22.832031 5.4825972 22.832031 5.6699219 L 22.832031 7.171875 C 22.832031 7.3591997 22.681465 7.5097656 22.494141 7.5097656 L 18.134766 7.5097656 C 17.947437 7.5097656 17.796875 7.3591997 17.796875 7.171875 L 17.796875 5.6699219 C 17.796875 5.4825934 17.947441 5.332032 18.134766 5.3320312 z M 26.755859 5.3320312 L 31.115234 5.3320312 C 31.302559 5.3320312 31.453125 5.4825972 31.453125 5.6699219 L 31.453125 7.171875 C 31.453125 7.3591997 31.302559 7.5097656 31.115234 7.5097656 L 26.755859 7.5097656 C 26.568531 7.5097656 26.417969 7.3591997 26.417969 7.171875 L 26.417969 5.6699219 C 26.417969 5.4825934 26.568535 5.332032 26.755859 5.3320312 z M 0.609375 9.5800781 C 0.2751476 9.5800781 0.005859375 9.8493656 0.005859375 10.183594 L 0.005859375 12.234375 C 0.005859375 12.568602 0.27514722 12.837891 0.609375 12.837891 L 5.53125 12.837891 C 5.8654774 12.837891 6.1347656 12.568603 6.1347656 12.234375 L 6.1347656 10.183594 C 6.1347656 9.8493663 5.8654785 9.5800781 5.53125 9.5800781 L 0.609375 9.5800781 z M 9.2304688 9.5800781 C 8.8962413 9.5800781 8.6269531 9.8493656 8.6269531 10.183594 L 8.6269531 12.234375 C 8.6269531 12.568602 8.896241 12.837891 9.2304688 12.837891 L 14.152344 12.837891 C 14.486571 12.837891 14.755859 12.568603 14.755859 12.234375 L 14.755859 10.183594 C 14.755859 9.8493663 14.486572 9.5800781 14.152344 9.5800781 L 9.2304688 9.5800781 z M 17.853516 9.5800781 C 17.519288 9.5800781 17.25 9.8493656 17.25 10.183594 L 17.25 12.234375 C 17.25 12.568602 17.519288 12.837891 17.853516 12.837891 L 22.775391 12.837891 C 23.109618 12.837891 23.378906 12.568603 23.378906 12.234375 L 23.378906 10.183594 C 23.378906 9.8493663 23.109619 9.5800781 22.775391 9.5800781 L 17.853516 9.5800781 z M 26.474609 9.5800781 C 26.140382 9.5800781 25.871094 9.8493656 25.871094 10.183594 L 25.871094 12.234375 C 25.871094 12.568602 26.140382 12.837891 26.474609 12.837891 L 31.396484 12.837891 C 31.730712 12.837891 32 12.568603 32 12.234375 L 32 10.183594 C 32 9.8493663 31.730713 9.5800781 31.396484 9.5800781 L 26.474609 9.5800781 z M 9.5117188 10.121094 L 13.871094 10.121094 C 14.058418 10.121094 14.208984 10.27166 14.208984 10.458984 L 14.208984 11.958984 C 14.208984 12.146309 14.058418 12.296875 13.871094 12.296875 L 9.5117188 12.296875 C 9.3243902 12.296875 9.1738281 12.146309 9.1738281 11.958984 L 9.1738281 10.458984 C 9.1738281 10.271656 9.324394 10.121095 9.5117188 10.121094 z M 18.134766 10.121094 L 22.494141 10.121094 C 22.681465 10.121094 22.832031 10.27166 22.832031 10.458984 L 22.832031 11.958984 C 22.832031 12.146309 22.681465 12.296875 22.494141 12.296875 L 18.134766 12.296875 C 17.947437 12.296875 17.796875 12.146309 17.796875 11.958984 L 17.796875 10.458984 C 17.796875 10.271656 17.947441 10.121095 18.134766 10.121094 z M 26.755859 10.121094 L 31.115234 10.121094 C 31.302559 10.121094 31.453125 10.27166 31.453125 10.458984 L 31.453125 11.958984 C 31.453125 12.146309 31.302559 12.296875 31.115234 12.296875 L 26.755859 12.296875 C 26.568531 12.296875 26.417969 12.146309 26.417969 11.958984 L 26.417969 10.458984 C 26.417969 10.271656 26.568535 10.121095 26.755859 10.121094 z M 0.609375 14.367188 C 0.2751476 14.367188 0.005859375 14.636475 0.005859375 14.970703 L 0.005859375 17.021484 C 0.005859375 17.355712 0.27514722 17.625 0.609375 17.625 L 5.53125 17.625 C 5.8654774 17.625 6.1347656 17.355713 6.1347656 17.021484 L 6.1347656 14.970703 C 6.1347656 14.636476 5.8654785 14.367188 5.53125 14.367188 L 0.609375 14.367188 z M 9.2304688 14.367188 C 8.8962413 14.367188 8.6269531 14.636475 8.6269531 14.970703 L 8.6269531 17.021484 C 8.6269531 17.355712 8.896241 17.625 9.2304688 17.625 L 14.152344 17.625 C 14.486571 17.625 14.755859 17.355713 14.755859 17.021484 L 14.755859 14.970703 C 14.755859 14.636476 14.486572 14.367188 14.152344 14.367188 L 9.2304688 14.367188 z M 17.853516 14.367188 C 17.519288 14.367188 17.25 14.636475 17.25 14.970703 L 17.25 17.021484 C 17.25 17.355712 17.519288 17.625 17.853516 17.625 L 22.775391 17.625 C 23.109618 17.625 23.378906 17.355713 23.378906 17.021484 L 23.378906 14.970703 C 23.378906 14.636476 23.109619 14.367188 22.775391 14.367188 L 17.853516 14.367188 z M 26.474609 14.367188 C 26.140382 14.367188 25.871094 14.636475 25.871094 14.970703 L 25.871094 17.021484 C 25.871094 17.355712 26.140382 17.625 26.474609 17.625 L 31.396484 17.625 C 31.730712 17.625 32 17.355713 32 17.021484 L 32 14.970703 C 32 14.636476 31.730713 14.367188 31.396484 14.367188 L 26.474609 14.367188 z M 9.5117188 14.908203 L 13.871094 14.908203 C 14.058418 14.908203 14.208984 15.058769 14.208984 15.246094 L 14.208984 16.746094 C 14.208984 16.933418 14.058418 17.083984 13.871094 17.083984 L 9.5117188 17.083984 C 9.3243902 17.083984 9.1738281 16.933418 9.1738281 16.746094 L 9.1738281 15.246094 C 9.1738281 15.058765 9.324394 14.908204 9.5117188 14.908203 z M 26.755859 14.908203 L 31.115234 14.908203 C 31.302559 14.908203 31.453125 15.058769 31.453125 15.246094 L 31.453125 16.746094 C 31.453125 16.933418 31.302559 17.083984 31.115234 17.083984 L 26.755859 17.083984 C 26.568531 17.083984 26.417969 16.933418 26.417969 16.746094 L 26.417969 15.246094 C 26.417969 15.058765 26.568535 14.908204 26.755859 14.908203 z M 0.609375 19.154297 C 0.2751476 19.154297 0.005859375 19.423584 0.005859375 19.757812 L 0.005859375 21.810547 C 0.005859375 22.144774 0.27514722 22.414062 0.609375 22.414062 L 5.53125 22.414062 C 5.8654774 22.414062 6.1347656 22.144775 6.1347656 21.810547 L 6.1347656 19.757812 C 6.1347656 19.423585 5.8654785 19.154297 5.53125 19.154297 L 0.609375 19.154297 z M 9.2304688 19.154297 C 8.8962413 19.154297 8.6269531 19.423584 8.6269531 19.757812 L 8.6269531 21.810547 C 8.6269531 22.144774 8.896241 22.414062 9.2304688 22.414062 L 14.152344 22.414062 C 14.486571 22.414062 14.755859 22.144775 14.755859 21.810547 L 14.755859 19.757812 C 14.755859 19.423585 14.486572 19.154297 14.152344 19.154297 L 9.2304688 19.154297 z M 17.853516 19.154297 C 17.519288 19.154297 17.25 19.423584 17.25 19.757812 L 17.25 21.810547 C 17.25 22.144774 17.519288 22.414062 17.853516 22.414062 L 22.775391 22.414062 C 23.109618 22.414062 23.378906 22.144775 23.378906 21.810547 L 23.378906 19.757812 C 23.378906 19.423585 23.109619 19.154297 22.775391 19.154297 L 17.853516 19.154297 z M 26.474609 19.154297 C 26.140382 19.154297 25.871094 19.423584 25.871094 19.757812 L 25.871094 21.810547 C 25.871094 22.144774 26.140382 22.414062 26.474609 22.414062 L 31.396484 22.414062 C 31.730712 22.414062 32 22.144775 32 21.810547 L 32 19.757812 C 32 19.423585 31.730713 19.154297 31.396484 19.154297 L 26.474609 19.154297 z M 26.755859 19.695312 L 31.115234 19.695312 C 31.302559 19.695312 31.453125 19.845878 31.453125 20.033203 L 31.453125 21.535156 C 31.453125 21.722481 31.302559 21.873047 31.115234 21.873047 L 26.755859 21.873047 C 26.568531 21.873047 26.417969 21.722481 26.417969 21.535156 L 26.417969 20.033203 C 26.417969 19.845875 26.568535 19.695313 26.755859 19.695312 z M 0.609375 23.943359 C 0.2751476 23.943359 0.005859375 24.212647 0.005859375 24.546875 L 0.005859375 26.597656 C 0.005859375 26.931884 0.27514722 27.201172 0.609375 27.201172 L 5.53125 27.201172 C 5.8654774 27.201172 6.1347656 26.931884 6.1347656 26.597656 L 6.1347656 24.546875 C 6.1347656 24.212648 5.8654785 23.943359 5.53125 23.943359 L 0.609375 23.943359 z M 9.2304688 23.943359 C 8.8962413 23.943359 8.6269531 24.212647 8.6269531 24.546875 L 8.6269531 26.597656 C 8.6269531 26.931884 8.896241 27.201172 9.2304688 27.201172 L 14.152344 27.201172 C 14.486571 27.201172 14.755859 26.931884 14.755859 26.597656 L 14.755859 24.546875 C 14.755859 24.212648 14.486572 23.943359 14.152344 23.943359 L 9.2304688 23.943359 z M 17.853516 23.943359 C 17.519288 23.943359 17.25 24.212647 17.25 24.546875 L 17.25 26.597656 C 17.25 26.931884 17.519288 27.201172 17.853516 27.201172 L 22.775391 27.201172 C 23.109618 27.201172 23.378906 26.931884 23.378906 26.597656 L 23.378906 24.546875 C 23.378906 24.212648 23.109619 23.943359 22.775391 23.943359 L 17.853516 23.943359 z M 26.474609 23.943359 C 26.140382 23.943359 25.871094 24.212647 25.871094 24.546875 L 25.871094 26.597656 C 25.871094 26.931884 26.140382 27.201172 26.474609 27.201172 L 31.396484 27.201172 C 31.730712 27.201172 32 26.931884 32 26.597656 L 32 24.546875 C 32 24.212648 31.730713 23.943359 31.396484 23.943359 L 26.474609 23.943359 z M 0.609375 28.730469 C 0.2751476 28.730469 0.005859375 28.999756 0.005859375 29.333984 L 0.005859375 31.384766 C 0.005859375 31.718993 0.27514722 31.988281 0.609375 31.988281 L 5.53125 31.988281 C 5.8654774 31.988281 6.1347656 31.718994 6.1347656 31.384766 L 6.1347656 29.333984 C 6.1347656 28.999757 5.8654785 28.730469 5.53125 28.730469 L 0.609375 28.730469 z M 9.2304688 28.730469 C 8.8962413 28.730469 8.6269531 28.999756 8.6269531 29.333984 L 8.6269531 31.384766 C 8.6269531 31.718993 8.896241 31.988281 9.2304688 31.988281 L 14.152344 31.988281 C 14.486571 31.988281 14.755859 31.718994 14.755859 31.384766 L 14.755859 29.333984 C 14.755859 28.999757 14.486572 28.730469 14.152344 28.730469 L 9.2304688 28.730469 z M 17.853516 28.730469 C 17.519288 28.730469 17.25 28.999756 17.25 29.333984 L 17.25 31.384766 C 17.25 31.718993 17.519288 31.988281 17.853516 31.988281 L 22.775391 31.988281 C 23.109618 31.988281 23.378906 31.718994 23.378906 31.384766 L 23.378906 29.333984 C 23.378906 28.999757 23.109619 28.730469 22.775391 28.730469 L 17.853516 28.730469 z M 26.474609 28.730469 C 26.140382 28.730469 25.871094 28.999756 25.871094 29.333984 L 25.871094 31.384766 C 25.871094 31.718993 26.140382 31.988281 26.474609 31.988281 L 31.396484 31.988281 C 31.730712 31.988281 32 31.718994 32 31.384766 L 32 29.333984 C 32 28.999757 31.730713 28.730469 31.396484 28.730469 L 26.474609 28.730469 z "
     transform="scale(0.26458333)"
     id="path1254" />
</svg>
