<svg id="Calque_1" data-name="Calque 1" xmlns="http://www.w3.org/2000/svg" viewBox="0 0 32 32"><defs><style>.cls-1{fill:#e3e3e3;}</style></defs><title>automation_l</title><path class="cls-1" d="M16.5,30.74a.34.34,0,0,1-.55-.32V16a.34.34,0,0,1,.55-.33l13,7.24c.31.17.31.45,0,.61Z"/><path class="cls-1" d="M14,17.22A3.77,3.77,0,1,1,12.33,10a3.78,3.78,0,0,1,3.76,3.56l.17,0h0a2.42,2.42,0,0,1,1.21.33l4.23,2.34L23.25,16a.56.56,0,0,0,.41-.53V12.21a.54.54,0,0,0-.42-.53l-2.7-.41a8.27,8.27,0,0,0-.61-1.45c.5-.69,1.05-1.34,1.55-2a.58.58,0,0,0,.12-.34.49.49,0,0,0-.1-.32,18.67,18.67,0,0,0-2.44-2.51.58.58,0,0,0-.37-.15.49.49,0,0,0-.35.13l-2.1,1.58a8.06,8.06,0,0,0-1.33-.54L14.5,2.93A.52.52,0,0,0,14,2.49H10.7a.55.55,0,0,0-.54.41,19.86,19.86,0,0,0-.42,2.75,8.35,8.35,0,0,0-1.35.56l-2-1.58A.66.66,0,0,0,6,4.48c-.5,0-2.49,2.15-2.84,2.64A.54.54,0,0,0,3,7.46a.53.53,0,0,0,.15.35c.55.67,1.08,1.33,1.58,2a7.72,7.72,0,0,0-.58,1.36l-2.74.41a.58.58,0,0,0-.4.53v3.28a.54.54,0,0,0,.43.53l2.7.4a8,8,0,0,0,.6,1.46c-.5.69-1,1.34-1.55,2a.58.58,0,0,0-.11.34.59.59,0,0,0,.1.34A18.37,18.37,0,0,0,5.6,23a.56.56,0,0,0,.37.16A.54.54,0,0,0,6.34,23l2.08-1.58A8.06,8.06,0,0,0,9.75,22l.41,2.72a.53.53,0,0,0,.54.44H14Z"/></svg>