<svg id="Calque_1" data-name="Calque 1" xmlns="http://www.w3.org/2000/svg" viewBox="0 0 32 32"><defs><style>.cls-1{fill:#e3e3e3;}</style></defs><title>autorig_l</title><path class="cls-1" d="M3.9,19.77V17.85a.34.34,0,0,0-.2-.34,1.42,1.42,0,0,1-.78-1.3c0-.43,0-.87,0-1.31a.51.51,0,0,0-.17-.4c-.53-.46-1-.93-1.57-1.4A.78.78,0,0,0,1,13a.94.94,0,0,1-.43-1.48c.59-.87,1.19-1.73,1.79-2.59l.92-1.33a.91.91,0,0,1,1-.41A.9.9,0,0,1,5,7.93a1,1,0,0,1-.23.81c-.65.95-1.31,1.9-2,2.84-.21.3-.21.3.06.54s.77.7,1.15,1.05a.67.67,0,0,0,.47.18c.84,0,1.69,0,2.53,0a.57.57,0,0,0,.43-.18c.47-.44.94-.87,1.42-1.29.15-.13.16-.22,0-.39-.7-1-1.4-2-2.09-3A.94.94,0,1,1,8.27,7.36c.53.73,1.05,1.47,1.57,2.21l1.22,1.74a1,1,0,0,1-.41,1.47,4.91,4.91,0,0,0-1,.85c-.34.27-.64.58-1,.87a.43.43,0,0,0-.15.36c0,.46,0,.93,0,1.39a1.32,1.32,0,0,1-.75,1.24.39.39,0,0,0-.23.4c0,1.27,0,2.53,0,3.79,0,.32,0,.33-.29.23a4.62,4.62,0,0,0-3.07,0c-.25.08-.28.06-.28-.21C3.91,21.05,3.91,20.41,3.9,19.77Z"/><path class="cls-1" d="M5.71,30.06a3.72,3.72,0,1,1,3.71-3.69A3.72,3.72,0,0,1,5.71,30.06Zm0-1.29a2.45,2.45,0,0,0,2.41-2.43,2.47,2.47,0,0,0-2.44-2.43,2.43,2.43,0,0,0,0,4.86Z"/><path class="cls-1" d="M30.67,8.47a1.4,1.4,0,0,1,.37,1,1.25,1.25,0,0,1-.37.92L15.46,25.55a1.24,1.24,0,0,1-.91.38,1.37,1.37,0,0,1-1-.38L10,22a1.41,1.41,0,0,1-.38-1,1.26,1.26,0,0,1,.38-.92l15.2-15.2a1.24,1.24,0,0,1,.92-.38,1.41,1.41,0,0,1,1,.38ZM13,11.22,11.87,9,9.66,7.88l2.21-1.12L13,4.54l1.13,2.22,2.21,1.12L14.13,9Zm6-2.67-.67-1.33L17,6.55l1.34-.67L19,4.54l.66,1.34L21,6.55l-1.34.67ZM24.65,13l3.64-3.59L26.16,7.3l-3.59,3.63Zm3.05,3.55,1.13,2.21L31,19.91,28.83,21,27.7,23.25,26.57,21l-2.21-1.13,2.21-1.13Z"/></svg>