<svg id="Calque_1" data-name="Calque 1" xmlns="http://www.w3.org/2000/svg" viewBox="0 0 32 32"><defs><style>.cls-1{fill:#e3e3e3;}</style></defs><title>batchcontrol_l</title><path class="cls-1" d="M31.26,17.49a.31.31,0,0,1,.15.36A6.25,6.25,0,0,1,30,20.31a.34.34,0,0,1-.18.11.26.26,0,0,1-.21,0l-1.1-.65a5,5,0,0,1-1.59.91v1.28a.31.31,0,0,1-.07.2.3.3,0,0,1-.17.12,6.62,6.62,0,0,1-2.87,0,.3.3,0,0,1-.17-.12.31.31,0,0,1-.07-.2V20.65A5,5,0,0,1,22,19.74l-1.1.65a.26.26,0,0,1-.21,0,.34.34,0,0,1-.18-.11A6.25,6.25,0,0,1,19,17.85a.31.31,0,0,1,.15-.36l1.1-.66a5.62,5.62,0,0,1,0-1.83l-1.1-.65a.28.28,0,0,1-.14-.16A.3.3,0,0,1,19,14a6.28,6.28,0,0,1,1.44-2.45.34.34,0,0,1,.18-.11.26.26,0,0,1,.21,0l1.1.65a5,5,0,0,1,1.59-.91V9.9a.28.28,0,0,1,.07-.19.3.3,0,0,1,.17-.12,6.62,6.62,0,0,1,2.87,0,.3.3,0,0,1,.17.12.28.28,0,0,1,.07.19v1.29a5,5,0,0,1,1.59.91l1.1-.65a.26.26,0,0,1,.21,0,.34.34,0,0,1,.18.11A6.28,6.28,0,0,1,31.41,14a.3.3,0,0,1,0,.21.28.28,0,0,1-.14.16l-1.1.65a5.62,5.62,0,0,1,0,1.83Zm-4.57-3a2.1,2.1,0,0,0-3.57,1.48,2,2,0,0,0,.62,1.48,2.09,2.09,0,0,0,3,0,2.08,2.08,0,0,0,0-3Z"/><rect class="cls-1" x="2" y="4.11" width="10.52" height="10.52" rx="3.33"/><rect class="cls-1" x="2" y="18.11" width="10.52" height="10.52" rx="3.33"/><path class="cls-1" d="M18.07,19.38a1.8,1.8,0,0,1,.15-.73,1.83,1.83,0,0,1-.58-.36l-7.11,3.83.94,1.76,6.82-3.67A1.87,1.87,0,0,1,18.07,19.38Z"/><path class="cls-1" d="M18.18,13.64a1.71,1.71,0,0,1-.15-.71,1.82,1.82,0,0,1,.34-1l0,0L11.47,8.12l-.94,1.76,7.32,3.94A3.47,3.47,0,0,1,18.18,13.64Z"/></svg>