<svg id="Calque_1" data-name="Calque 1" xmlns="http://www.w3.org/2000/svg" viewBox="0 0 32 32"><defs><style>.cls-1{fill:#e3e3e3;}.cls-2{fill:none;stroke:#e3e3e3;stroke-miterlimit:10;}</style></defs><title>bezierik_l</title><path class="cls-1" d="M5.12,24.44a2.5,2.5,0,1,1-2.5,2.5,2.5,2.5,0,0,1,2.5-2.5m0-2a4.5,4.5,0,1,0,4.5,4.5,4.51,4.51,0,0,0-4.5-4.5Z"/><path class="cls-1" d="M26.77,3.67a2.5,2.5,0,1,1-2.5,2.5,2.5,2.5,0,0,1,2.5-2.5m0-2a4.5,4.5,0,1,0,4.5,4.5,4.5,4.5,0,0,0-4.5-4.5Z"/><circle class="cls-1" cx="5.86" cy="17.29" r="3.18"/><circle class="cls-1" cx="10.97" cy="10.65" r="3.18"/><circle class="cls-1" cx="17.68" cy="6.17" r="3.18"/><line class="cls-2" x1="7.35" y1="2.09" x2="1.92" y2="7.52"/><line class="cls-2" x1="2" y1="2.44" x2="6.68" y2="7.12"/></svg>