<?xml version="1.0" encoding="UTF-8" standalone="no"?>
<!-- Created with Inkscape (http://www.inkscape.org/) -->

<svg
   xmlns:dc="http://purl.org/dc/elements/1.1/"
   xmlns:cc="http://creativecommons.org/ns#"
   xmlns:rdf="http://www.w3.org/1999/02/22-rdf-syntax-ns#"
   xmlns:svg="http://www.w3.org/2000/svg"
   xmlns="http://www.w3.org/2000/svg"
   xmlns:sodipodi="http://sodipodi.sourceforge.net/DTD/sodipodi-0.dtd"
   xmlns:inkscape="http://www.inkscape.org/namespaces/inkscape"
   width="32"
   height="32"
   viewBox="0 0 8.4666666 8.4666666"
   version="1.1"
   id="svg8"
   inkscape:version="0.92.5 (2060ec1f9f, 2020-04-08)"
   sodipodi:docname="binary_sl.svg">
  <defs
     id="defs2">
    <style
       id="style1399">.cls-1{fill:#e3e3e3;}</style>
  </defs>
  <sodipodi:namedview
     id="base"
     pagecolor="#ffffff"
     bordercolor="#666666"
     borderopacity="1.0"
     inkscape:pageopacity="0.0"
     inkscape:pageshadow="2"
     inkscape:zoom="16"
     inkscape:cx="10.375997"
     inkscape:cy="11.268069"
     inkscape:document-units="mm"
     inkscape:current-layer="svg8"
     showgrid="false"
     units="px"
     inkscape:window-width="1920"
     inkscape:window-height="1043"
     inkscape:window-x="0"
     inkscape:window-y="120"
     inkscape:window-maximized="1">
    <sodipodi:guide
       position="8.4666666,0"
       orientation="-32,0"
       id="guide854"
       inkscape:locked="false" />
    <sodipodi:guide
       position="9.9390855,8.4423761"
       orientation="0,-32"
       id="guide856"
       inkscape:locked="false" />
    <sodipodi:guide
       position="0,8.4666814"
       orientation="32,0"
       id="guide858"
       inkscape:locked="false" />
  </sodipodi:namedview>
  <metadata
     id="metadata5">
    <rdf:RDF>
      <cc:Work
         rdf:about="">
        <dc:format>image/svg+xml</dc:format>
        <dc:type
           rdf:resource="http://purl.org/dc/dcmitype/StillImage" />
        <dc:title></dc:title>
      </cc:Work>
    </rdf:RDF>
  </metadata>
  <path
     style="opacity:1;fill:#e3e3e3;fill-opacity:1;stroke:none;stroke-width:1.7930001;stroke-linecap:round;stroke-linejoin:round;stroke-miterlimit:4;stroke-dasharray:none;stroke-dashoffset:10.3937006;stroke-opacity:1"
     d="m 4.248604,0.0242905 c -0.2556594,0 -0.4731079,0.04671114 -0.6520695,0.13914195 -0.176995,0.0924307 -0.321773,0.22475758 -0.4338698,0.39781933 -0.1101306,0.17306187 -0.1904691,0.3834053 -0.2416009,0.63119832 -0.049165,0.2458264 -0.073998,0.520609 -0.073998,0.8234672 0,0.3067911 0.02012,0.5821372 0.059452,0.8259969 0.041299,0.2418931 0.1115784,0.4475231 0.2118753,0.6166518 0.1002966,0.1671619 0.2362111,0.2959709 0.4073063,0.3864349 0.1710951,0.088497 0.3873478,0.1321849 0.6489074,0.1321847 0.2576258,0 0.4750743,-0.046078 0.6520695,-0.1385093 C 5.0056369,3.7462457 5.1504151,3.6139187 5.2605451,3.4408567 5.372642,3.2677951 5.4529807,3.0580149 5.5021462,2.8121884 5.5513116,2.5663621 5.5761445,2.2910162 5.5761445,1.9861915 5.5761438,1.6794001 5.5560244,1.40525 5.5166928,1.1633568 5.4773606,0.91949706 5.4076448,0.71386707 5.3073477,0.5467051 5.2070506,0.37757657 5.0705732,0.24876761 4.8975115,0.1602701 4.7264164,0.06980599 4.5101634,0.02429053 4.248604,0.0242905 Z M 1.6466503,0.0888018 c -0.107032,0 -0.1929012,0.08586918 -0.1929012,0.19290126 V 3.7235678 c 0,0.1070318 0.085869,0.1935341 0.1929012,0.1935341 h 0.3624015 c 0.1070317,0 0.1935337,-0.086503 0.1935337,-0.1935341 V 0.28170306 c 0,-0.10703208 -0.086503,-0.1929013 -0.1935337,-0.1929013 z m 4.7516963,0 c -0.1070318,0 -0.1935338,0.08586918 -0.1935338,0.19290126 V 3.7235678 c 0,0.1070318 0.086502,0.1935341 0.1935338,0.1935341 h 0.3617691 c 0.1070317,0 0.1935336,-0.086503 0.1935336,-0.1935341 V 0.28170306 c 0,-0.10703208 -0.086502,-0.1929013 -0.1935336,-0.1929013 z M 4.215716,0.63841236 c 0.066865,0 0.1283491,0.008861 0.1834143,0.0265633 0.055065,0.0176999 0.104098,0.0478088 0.1473638,0.0910746 0.043265,0.041299 0.079285,0.0974376 0.1087843,0.16823521 0.031466,0.0707984 0.057495,0.15704633 0.07716,0.25931003 0.021632,0.1022634 0.036969,0.2234043 0.046803,0.3630338 0.00983,0.1376628 0.015179,0.2972141 0.015179,0.4781423 -3e-7,0.1494629 -0.00415,0.2859397 -0.012019,0.4098363 -0.0059,0.1238963 -0.018914,0.2349777 -0.038581,0.3333082 -0.017699,0.09833 -0.041337,0.1852104 -0.070836,0.2599422 -0.0295,0.074731 -0.066714,0.1361464 -0.1119457,0.1853118 -0.043266,0.049165 -0.094058,0.087013 -0.1530558,0.1125784 -0.058998,0.023599 -0.1269551,0.035418 -0.2036532,0.035418 -0.1022647,0 -0.189708,-0.020682 -0.2624723,-0.061981 C 3.8690952,3.2559195 3.8088063,3.1820533 3.7616074,3.0778231 3.7163757,2.971626 3.6833109,2.8298026 3.6616781,2.6528078 3.6400458,2.473846 3.62879,2.2487293 3.62879,1.977337 3.62879,1.7551099 3.63765,1.5607355 3.655353,1.3935735 3.673053,1.2264114 3.703795,1.0863471 3.747061,0.97425028 3.792292,0.86215409 3.8519486,0.7788601 3.9266807,0.7237948 4.0033779,0.66676272 4.0996864,0.6384125 4.215716,0.63841236 Z M 5.8980681,4.4894811 c -0.2556595,0 -0.4731079,0.046078 -0.6520693,0.1385092 C 5.0690035,4.7204213 4.9248582,4.8533806 4.8127613,5.0264422 4.702631,5.199504 4.6216595,5.4098476 4.5705279,5.6576407 c -0.049165,0.2458262 -0.073366,0.5206089 -0.073366,0.8234668 0,0.3067915 0.019487,0.5815048 0.058819,0.8253645 0.041299,0.2418935 0.11221,0.4475231 0.2125076,0.6166517 0.1002967,0.1671621 0.2362114,0.2959709 0.4073064,0.3864352 0.1710953,0.088497 0.3873479,0.1328173 0.6489072,0.1328173 0.2576261,0 0.4744422,-0.046078 0.6514373,-0.1385094 C 6.6551012,8.2114359 6.7998792,8.0784767 6.9100093,7.9054149 7.0221061,7.7323532 7.1030776,7.5232052 7.1522427,7.277379 7.2014082,7.0315524 7.2256086,6.7562066 7.2256086,6.451382 7.2256083,6.1445906 7.2061214,5.8704404 7.1667894,5.6285473 7.1274572,5.3846876 7.0577414,5.1790575 6.9574443,5.0118956 6.8571471,4.842767 6.7200373,4.7139581 6.5469757,4.6254607 6.3758804,4.5349964 6.1596274,4.4894811 5.8980681,4.4894811 Z m -4.2609047,0.062613 c -0.1070317,0 -0.1935338,0.085869 -0.1935338,0.1929012 v 3.4418648 c 0,0.1070317 0.086503,0.193534 0.1935338,0.193534 h 0.3624014 c 0.1070318,0 0.1929013,-0.086502 0.1929013,-0.193534 V 4.744996 c 0,-0.1070317 -0.085869,-0.1929012 -0.1929013,-0.1929012 z m 1.6595835,0 c -0.1070317,0 -0.1935337,0.085869 -0.1935337,0.1929012 v 3.4418648 c 0,0.1070317 0.086503,0.193534 0.1935337,0.193534 h 0.3624015 c 0.1070317,0 0.1929012,-0.086502 0.1929012,-0.193534 V 4.744996 c 0,-0.1070317 -0.085869,-0.1929012 -0.1929012,-0.1929012 z m 2.5690657,0.5508761 c 0.066865,0 0.1277167,0.00886 0.1827818,0.026564 0.055065,0.017699 0.104098,0.048442 0.1473639,0.091708 0.043266,0.041299 0.079918,0.097437 0.1094159,0.1682355 0.031466,0.070797 0.056862,0.1570462 0.076528,0.2593098 0.021633,0.1022634 0.037602,0.2234043 0.047435,0.363034 0.00983,0.1376626 0.014547,0.2972138 0.014547,0.4781421 0,0.1494625 -0.00415,0.2859396 -0.012019,0.4098362 -0.0059,0.1238966 -0.018281,0.2349775 -0.037948,0.3333081 -0.017701,0.09833 -0.041337,0.1845785 -0.070836,0.2593099 -0.0295,0.074731 -0.066715,0.1367787 -0.1119456,0.1859443 -0.043266,0.049165 -0.09469,0.086379 -0.1536885,0.1119456 -0.058998,0.023599 -0.126955,0.035419 -0.203653,0.035419 -0.1022647,0 -0.1897082,-0.020683 -0.2624724,-0.061981 C 5.5185591,7.7204778 5.4589027,7.6472439 5.4117038,7.5430133 5.3664723,7.4368165 5.3327751,7.2949932 5.3111422,7.117998 5.2895096,6.9390366 5.2788867,6.7139198 5.2788867,6.4425275 c 0,-0.2222271 0.00886,-0.4172342 0.026563,-0.5843962 0.0177,-0.1671616 0.047809,-0.3065939 0.091075,-0.4186904 0.045231,-0.1120974 0.1055202,-0.1953901 0.1802521,-0.2504556 0.076697,-0.057032 0.1730057,-0.086015 0.2890358,-0.086015 z"
     id="rect819"
     inkscape:connector-curvature="0"
     sodipodi:nodetypes="scccscccsccsccccsssssssssssssssssssccccccccccccscccsccccscccscccscccscccscsssssscccssssssccccccccscccccscccscccc" />
</svg>
