<svg id="Calque_1" data-name="Calque 1" xmlns="http://www.w3.org/2000/svg" viewBox="0 0 32 32"><defs><style>.cls-1{fill:#e3e3e3;}</style></defs><title>blenderanim_l</title><path class="cls-1" d="M21.87,15.55A7.12,7.12,0,1,0,29,22.67,7.11,7.11,0,0,0,21.87,15.55Zm3.56,7.63-5,3a.54.54,0,0,1-.3.08.59.59,0,0,1-.29-.07.6.6,0,0,1-.3-.52V19.7a.6.6,0,0,1,.3-.52.59.59,0,0,1,.29-.07.64.64,0,0,1,.3.08l5,3a.57.57,0,0,1,.29.51A.6.6,0,0,1,25.43,23.18Z"/><path class="cls-1" d="M8.68,18h5.37A9.08,9.08,0,0,1,17,15h-.37a.37.37,0,0,1-.26-.12.4.4,0,0,1-.11-.26v-.75a.38.38,0,0,1,.11-.26.37.37,0,0,1,.26-.12H22l.85-3H16.58a.37.37,0,0,1-.26-.12.38.38,0,0,1-.11-.26V9.36a.38.38,0,0,1,.11-.26A.37.37,0,0,1,16.58,9h6.59L24,6H16.58a.37.37,0,0,1-.26-.12.38.38,0,0,1-.11-.26V4.84a.38.38,0,0,1,.11-.26.37.37,0,0,1,.26-.12h7.86l.8-3H3.4a2.19,2.19,0,0,0-1.6.66,2.17,2.17,0,0,0-.66,1.6v7.53a2.17,2.17,0,0,0,.66,1.6,2.19,2.19,0,0,0,1.6.66H8.25ZM4.16,10.49v-6H7.45l.52,6Z"/><path class="cls-1" d="M12.76,22.67a9.16,9.16,0,0,1,.57-3.15H8.68a3,3,0,0,0-2.15.88,2.9,2.9,0,0,0-.87,2.14V24a1.54,1.54,0,0,0,1.51,1.51h6.06A9.2,9.2,0,0,1,12.76,22.67Z"/></svg>