<?xml version="1.0" encoding="UTF-8" standalone="no"?>
<!-- Created with Inkscape (http://www.inkscape.org/) -->

<svg
   xmlns:osb="http://www.openswatchbook.org/uri/2009/osb"
   xmlns:dc="http://purl.org/dc/elements/1.1/"
   xmlns:cc="http://creativecommons.org/ns#"
   xmlns:rdf="http://www.w3.org/1999/02/22-rdf-syntax-ns#"
   xmlns:svg="http://www.w3.org/2000/svg"
   xmlns="http://www.w3.org/2000/svg"
   xmlns:sodipodi="http://sodipodi.sourceforge.net/DTD/sodipodi-0.dtd"
   xmlns:inkscape="http://www.inkscape.org/namespaces/inkscape"
   width="32"
   height="32"
   viewBox="0 0 8.4666666 8.4666666"
   version="1.1"
   id="svg8"
   inkscape:version="0.92.5 (2060ec1f9f, 2020-04-08)"
   sodipodi:docname="block-virus_sl.svg">
  <defs
     id="defs2">
    <linearGradient
       id="Neutral__dark_"
       osb:paint="solid">
      <stop
         style="stop-color:#232323;stop-opacity:1;"
         offset="0"
         id="stop832" />
    </linearGradient>
    <linearGradient
       id="linearGradient828"
       osb:paint="solid">
      <stop
         style="stop-color:#232323;stop-opacity:1;"
         offset="0"
         id="stop826" />
    </linearGradient>
    <linearGradient
       id="linearGradient1363"
       osb:paint="solid">
      <stop
         style="stop-color:#84b330;stop-opacity:1;"
         offset="0"
         id="stop1361" />
    </linearGradient>
    <style
       id="style1399">.cls-1{fill:#e3e3e3;}</style>
    <style
       id="style857">.cls-1{fill:#e52120;}.cls-1,.cls-2,.cls-3,.cls-4,.cls-5{stroke:#000;stroke-miterlimit:10;stroke-width:1.2px;}.cls-2{fill:#6dbc88;}.cls-3{fill:#701034;}.cls-4{fill:#51aae0;}.cls-5{fill:none;}</style>
    <style
       id="style857-2">.cls-1{fill:#e52120;}.cls-1,.cls-2,.cls-3,.cls-4,.cls-5{stroke:#000;stroke-miterlimit:10;stroke-width:1.2px;}.cls-2{fill:#6dbc88;}.cls-3{fill:#701034;}.cls-4{fill:#51aae0;}.cls-5{fill:none;}</style>
    <style
       id="style1399-7">.cls-1{fill:#e3e3e3;}</style>
    <style
       id="style1399-2">.cls-1{fill:#e3e3e3;}</style>
    <style
       id="style1399-8">.cls-1{fill:#e3e3e3;}</style>
    <style
       id="style1399-9">.cls-1{fill:#e3e3e3;}</style>
    <style
       id="style1399-5">.cls-1{fill:#e3e3e3;}</style>
    <style
       id="style857-6">.cls-1{fill:#e52120;}.cls-1,.cls-2,.cls-3,.cls-4,.cls-5{stroke:#000;stroke-miterlimit:10;stroke-width:1.2px;}.cls-2{fill:#6dbc88;}.cls-3{fill:#701034;}.cls-4{fill:#51aae0;}.cls-5{fill:none;}</style>
    <style
       id="style857-2-1">.cls-1{fill:#e52120;}.cls-1,.cls-2,.cls-3,.cls-4,.cls-5{stroke:#000;stroke-miterlimit:10;stroke-width:1.2px;}.cls-2{fill:#6dbc88;}.cls-3{fill:#701034;}.cls-4{fill:#51aae0;}.cls-5{fill:none;}</style>
    <style
       id="style1399-7-1">.cls-1{fill:#e3e3e3;}</style>
    <style
       id="style1399-2-5">.cls-1{fill:#e3e3e3;}</style>
    <style
       id="style1399-8-9">.cls-1{fill:#e3e3e3;}</style>
    <style
       id="style1399-9-8">.cls-1{fill:#e3e3e3;}</style>
    <style
       id="style1399-96">.cls-1{fill:#e3e3e3;}</style>
    <style
       id="style857-21">.cls-1{fill:#e52120;}.cls-1,.cls-2,.cls-3,.cls-4,.cls-5{stroke:#000;stroke-miterlimit:10;stroke-width:1.2px;}.cls-2{fill:#6dbc88;}.cls-3{fill:#701034;}.cls-4{fill:#51aae0;}.cls-5{fill:none;}</style>
    <style
       id="style857-2-7">.cls-1{fill:#e52120;}.cls-1,.cls-2,.cls-3,.cls-4,.cls-5{stroke:#000;stroke-miterlimit:10;stroke-width:1.2px;}.cls-2{fill:#6dbc88;}.cls-3{fill:#701034;}.cls-4{fill:#51aae0;}.cls-5{fill:none;}</style>
    <style
       id="style1399-7-8">.cls-1{fill:#e3e3e3;}</style>
    <style
       id="style1399-2-57">.cls-1{fill:#e3e3e3;}</style>
    <style
       id="style1399-8-4">.cls-1{fill:#e3e3e3;}</style>
    <style
       id="style1399-9-1">.cls-1{fill:#e3e3e3;}</style>
    <style
       id="style1399-5-8">.cls-1{fill:#e3e3e3;}</style>
    <style
       id="style857-6-5">.cls-1{fill:#e52120;}.cls-1,.cls-2,.cls-3,.cls-4,.cls-5{stroke:#000;stroke-miterlimit:10;stroke-width:1.2px;}.cls-2{fill:#6dbc88;}.cls-3{fill:#701034;}.cls-4{fill:#51aae0;}.cls-5{fill:none;}</style>
    <style
       id="style857-2-1-9">.cls-1{fill:#e52120;}.cls-1,.cls-2,.cls-3,.cls-4,.cls-5{stroke:#000;stroke-miterlimit:10;stroke-width:1.2px;}.cls-2{fill:#6dbc88;}.cls-3{fill:#701034;}.cls-4{fill:#51aae0;}.cls-5{fill:none;}</style>
    <style
       id="style1399-7-1-7">.cls-1{fill:#e3e3e3;}</style>
    <style
       id="style1399-2-5-5">.cls-1{fill:#e3e3e3;}</style>
    <style
       id="style1399-8-9-3">.cls-1{fill:#e3e3e3;}</style>
    <style
       id="style1399-9-8-8">.cls-1{fill:#e3e3e3;}</style>
  </defs>
  <sodipodi:namedview
     id="base"
     pagecolor="#ffffff"
     bordercolor="#666666"
     borderopacity="1.0"
     inkscape:pageopacity="0.0"
     inkscape:pageshadow="2"
     inkscape:zoom="16"
     inkscape:cx="13.368239"
     inkscape:cy="11.300523"
     inkscape:document-units="mm"
     inkscape:current-layer="svg8"
     showgrid="false"
     units="px"
     inkscape:window-width="1848"
     inkscape:window-height="1136"
     inkscape:window-x="0"
     inkscape:window-y="27"
     inkscape:window-maximized="1"
     inkscape:snap-bbox="true"
     inkscape:bbox-paths="true"
     inkscape:bbox-nodes="true"
     inkscape:snap-page="true">
    <sodipodi:guide
       position="8.4666666,0"
       orientation="-32,0"
       id="guide854"
       inkscape:locked="false" />
    <sodipodi:guide
       position="8.4666666,8.4666666"
       orientation="0,-32"
       id="guide856"
       inkscape:locked="false" />
    <sodipodi:guide
       position="0,8.4666814"
       orientation="32,0"
       id="guide858"
       inkscape:locked="false" />
  </sodipodi:namedview>
  <metadata
     id="metadata5">
    <rdf:RDF>
      <cc:Work
         rdf:about="">
        <dc:format>image/svg+xml</dc:format>
        <dc:type
           rdf:resource="http://purl.org/dc/dcmitype/StillImage" />
        <dc:title></dc:title>
      </cc:Work>
    </rdf:RDF>
  </metadata>
  <path
     style="fill:#83d3f6;stroke-width:0.06250605"
     d="M 16.361328 0 C 15.96929 0 15.576192 0.077397884 15.207031 0.23046875 L 3.2070312 5.2304688 C 2.0881731 5.6930451 1.3574219 6.7873764 1.3574219 8 C 1.3574219 20.407471 8.5130204 28.981752 15.201172 31.769531 C 15.938744 32.075673 16.77024 32.075673 17.507812 31.769531 C 22.864583 29.53806 31.359375 21.832617 31.359375 8 C 31.359375 6.7873764 30.628235 5.6930451 29.515625 5.2304688 L 17.513672 0.23046875 C 17.144512 0.077397884 16.753367 0 16.361328 0 z M 16.542969 5.1601562 A 1.1471126 1.1471126 0 0 1 17.722656 6.3046875 L 17.722656 7.1738281 C 17.722656 9.2172675 20.193592 10.241562 21.638672 8.796875 L 22.253906 8.1835938 A 1.1467093 1.1467093 0 0 1 23.875 9.8027344 L 23.259766 10.417969 C 21.814687 11.863033 22.839381 14.333984 24.882812 14.333984 L 25.75 14.333984 L 25.751953 14.333984 A 1.1471125 1.1471125 0 1 1 25.75 16.626953 L 24.880859 16.626953 C 22.837425 16.626953 21.814686 19.097866 23.259766 20.542969 L 23.875 21.158203 A 1.1471125 1.1471125 0 0 1 22.253906 22.779297 L 21.638672 22.164062 C 20.193592 20.718998 17.722656 21.743708 17.722656 23.787109 L 17.722656 24.654297 A 1.1471126 1.1471126 0 0 1 15.429688 24.654297 L 15.429688 23.785156 C 15.429688 21.741717 12.958752 20.71896 11.513672 22.164062 L 10.898438 22.779297 A 1.1471125 1.1471125 0 0 1 9.2792969 21.158203 L 9.8925781 20.542969 C 11.337657 19.097866 10.312964 16.626953 8.2695312 16.626953 L 7.4023438 16.626953 A 1.1471125 1.1471125 0 1 1 7.4023438 14.333984 L 8.2714844 14.333984 C 10.314917 14.333984 11.337657 11.863033 9.8925781 10.417969 L 9.2792969 9.8027344 A 1.1467093 1.1467093 0 0 1 10.898438 8.1835938 L 11.513672 8.796875 C 12.958752 10.241524 15.429688 9.2192206 15.429688 7.1757812 L 15.429688 6.3046875 A 1.1471126 1.1471126 0 0 1 16.542969 5.1601562 z M 15.205078 12.257812 A 1.9353744 1.9353744 0 0 0 15.287109 16.126953 A 1.9353744 1.9353744 0 0 0 17.220703 14.191406 A 1.9353744 1.9353744 0 0 0 15.205078 12.257812 z M 18.470703 16.449219 A 0.96768722 0.96768722 0 0 0 18.511719 18.384766 A 0.96768722 0.96768722 0 0 0 19.478516 17.416016 A 0.96768722 0.96768722 0 0 0 18.470703 16.449219 z "
     transform="scale(0.26458333)"
     id="path954" />
  <style
     id="style815"
     type="text/css">
	.st0{fill:#00005B;}
	.st1{fill:#9999FF;}
</style>
  <style
     id="style815-2"
     type="text/css">
	.st0{fill:#00005B;}
	.st1{fill:#9999FF;}
</style>
  <style
     type="text/css"
     id="style815-4">
	.st0{fill:#00005B;}
	.st1{fill:#9999FF;}
</style>
  <style
     type="text/css"
     id="style815-2-4">
	.st0{fill:#00005B;}
	.st1{fill:#9999FF;}
</style>
  <style
     type="text/css"
     id="style815-43">
	.st0{fill:#00005B;}
	.st1{fill:#9999FF;}
</style>
  <style
     type="text/css"
     id="style815-2-3">
	.st0{fill:#00005B;}
	.st1{fill:#9999FF;}
</style>
  <style
     id="style815-4-3"
     type="text/css">
	.st0{fill:#00005B;}
	.st1{fill:#9999FF;}
</style>
  <style
     id="style815-2-4-8"
     type="text/css">
	.st0{fill:#00005B;}
	.st1{fill:#9999FF;}
</style>
</svg>
