<svg id="Calque_1" data-name="Calque 1" xmlns="http://www.w3.org/2000/svg" viewBox="0 0 32 32"><defs><style>.cls-1{fill:#e3e3e3;}</style></defs><title>body_l</title><path class="cls-1" d="M25.24,22.18c-1.2-.91-3.35-.91-5.15,0-.95.47-.75,1.67-2.77,1.67s-2-1.2-2.92-1.67c-1.8-.91-4-.91-5.15,0s-.82,2.83.13,2.87a2.2,2.2,0,0,1,2.19,1.42A6.77,6.77,0,0,1,12,30.12c-.17.69,1.33,1.63,2.23,1.63s2.11-1.33,3.05-1.33,2.17,1.33,3.07,1.33,2.41-.94,2.23-1.63a6.69,6.69,0,0,1,.39-3.65,2.19,2.19,0,0,1,2.19-1.42C26.05,25,26.44,23.08,25.24,22.18Zm-12,7.68c0-.92,2.36-1.2,2.71-.3S13.17,30.78,13.21,29.86Zm3.38-1.33c-1,.9-3.69-2.4-2.36-2.88S17.62,27.63,16.59,28.53Zm1.4,0c-1-.9,1-3.35,2.36-2.87S19,29.47,18,28.57Zm.67,1c.35-.9,2.67-.62,2.71.29S18.32,30.51,18.66,29.61Z"/><path class="cls-1" d="M25.69,12.19l-.1-.42a8,8,0,0,1-2.06.64,7.52,7.52,0,0,1-1.33.11H22A7.44,7.44,0,0,1,19.37,12l.28.84,0,.09a.26.26,0,0,0,.17.18l1.17.4a.31.31,0,0,1,.22.33.31.31,0,0,1-.31.28l-.1,0-1.18-.4a.9.9,0,0,1-.57-.57L18,9.87a.86.86,0,0,0-.29-.36.85.85,0,0,0-.47-.15l-.18,0a.86.86,0,0,0-.52.39.84.84,0,0,0-.1.56l1.08,3.24A2.6,2.6,0,0,0,20,15.31l4.42,0h0a1.13,1.13,0,0,0,.85-.37,1.1,1.1,0,0,0,.08-1.39h0a.42.42,0,0,1,.09-.56A.83.83,0,0,0,25.69,12.19Z"/><path class="cls-1" d="M16.78,8.54a2.09,2.09,0,0,1,.35,0,1.86,1.86,0,0,1,1.05.35,1.65,1.65,0,0,1,.5.55h0a1.39,1.39,0,0,1,.12.28l.4,1.21a6.46,6.46,0,0,0,3,.76,6.55,6.55,0,0,0,3.22-.86l-.05-.22a.83.83,0,0,0-.69-.64l-.15,0a.23.23,0,0,1-.18-.15c0-.07.38-1.44.58-2.17a.72.72,0,0,0-.23-.76l-.09-.07-.2-.18a1.48,1.48,0,0,0,0-.21c0-3.64-2.12-5.12-5.75-5.12-.22,0-.45,0-.68,0-3.66.17-6.06,3.21-6.06,7.39,0,2.28,1.51,2.73,4.05,2.82l-.33-1.07a1.56,1.56,0,0,1,.2-1.17A1.46,1.46,0,0,1,16.78,8.54Zm4.87-2.43a1.83,1.83,0,0,1,1.77,2,1.82,1.82,0,0,1-1.77,2,2,2,0,1,1,0-4.06Z"/><path class="cls-1" d="M19.11,15.48h-.38V15a.27.27,0,0,0-.14-.25.3.3,0,0,0-.29,0,3.58,3.58,0,0,1-1.46.24,3.61,3.61,0,0,1-1.46-.24.3.3,0,0,0-.29,0A.27.27,0,0,0,15,15v.44h-.38a.48.48,0,0,0-.48.48v.33a.49.49,0,0,0,.48.48H15v.31a.31.31,0,0,0,.14.26,4.21,4.21,0,0,0,1.75.32,3.8,3.8,0,0,0,1.75-.33.29.29,0,0,0,.14-.25v-.31h.38a.48.48,0,0,0,.48-.48V16A.47.47,0,0,0,19.11,15.48Zm0,.81a0,0,0,0,1,0,0H18.5a.23.23,0,0,0-.23.23V17a3.87,3.87,0,0,1-1.43.22A3.87,3.87,0,0,1,15.41,17v-.44a.23.23,0,0,0-.23-.23h-.61a0,0,0,0,1,0,0V16a0,0,0,0,1,0,0h.61a.23.23,0,0,0,.23-.23v-.43a4.85,4.85,0,0,0,1.43.19,4.76,4.76,0,0,0,1.43-.19v.43a.23.23,0,0,0,.23.23h.61a0,0,0,0,1,0,0v.33Z"/><path class="cls-1" d="M19.05,18.34h-.32V17.9a.3.3,0,0,0-.14-.26.33.33,0,0,0-.29,0,3.76,3.76,0,0,1-1.46.24,3.79,3.79,0,0,1-1.46-.24.29.29,0,0,0-.43.27v.44h-.32a.54.54,0,0,0-.54.54v.21a.54.54,0,0,0,.54.54H15v.31a.31.31,0,0,0,.14.26,4.21,4.21,0,0,0,1.75.32,3.8,3.8,0,0,0,1.75-.33.29.29,0,0,0,.14-.25v-.31h.32a.54.54,0,0,0,.54-.54v-.21A.54.54,0,0,0,19.05,18.34Zm.08.73a.1.1,0,0,1-.08.1H18.5a.22.22,0,0,0-.23.22v.45a4,4,0,0,1-1.42.22,10.12,10.12,0,0,1-1.44-.22V19.4a.23.23,0,0,0-.23-.23h-.55a.09.09,0,0,1-.08-.08v-.21a.08.08,0,0,1,.08-.08h.55a.23.23,0,0,0,.23-.23v-.43a4.85,4.85,0,0,0,1.43.19,4.76,4.76,0,0,0,1.43-.19v.4a.23.23,0,0,0,.23.23h.55a.07.07,0,0,1,.08.08v.22Z"/><path class="cls-1" d="M15.63,15.81v.87a.24.24,0,0,0,.2.24.24.24,0,0,0,.26-.23V15.8a.23.23,0,0,0-.26-.23A.24.24,0,0,0,15.63,15.81Z"/><path class="cls-1" d="M15.63,18.68v.84a.23.23,0,1,0,.46,0v-.85a.23.23,0,1,0-.46,0Z"/><path class="cls-1" d="M19.05,21.2h-.32v-.44a.23.23,0,0,0,0-.11.29.29,0,0,0-.41-.16,3.76,3.76,0,0,1-1.46.24,3.79,3.79,0,0,1-1.46-.24.3.3,0,0,0-.29,0,.32.32,0,0,0-.14.25v.45h-.32a.54.54,0,0,0-.54.54V22a.54.54,0,0,0,.54.54H15v.22a.46.46,0,0,0,.26.41,4.66,4.66,0,0,0,1.63.26,4.5,4.5,0,0,0,1.63-.26.46.46,0,0,0,.26-.41v-.22h.32a.54.54,0,0,0,.54-.54v-.21A.54.54,0,0,0,19.05,21.2Zm.08.73a.11.11,0,0,1-.08.1H18.5a.21.21,0,0,0-.23.22v.45a4,4,0,0,1-1.42.21,10.57,10.57,0,0,1-1.44-.21v-.44a.23.23,0,0,0-.23-.23h-.55a.09.09,0,0,1-.08-.08v-.21a.08.08,0,0,1,.08-.08h.55a.23.23,0,0,0,.23-.23V21a4.85,4.85,0,0,0,1.43.19A4.76,4.76,0,0,0,18.27,21v.4a.23.23,0,0,0,.23.23h.55a.07.07,0,0,1,.08.08v.22Z"/><path class="cls-1" d="M15.63,21.54v.83a.23.23,0,1,0,.46,0v-.85a.23.23,0,1,0-.46,0Z"/><polygon class="cls-1" points="15.67 15.08 18.5 15 18.83 23.67 15.5 24 15.67 15.08"/></svg>