<svg id="Calque_1" data-name="Calque 1" xmlns="http://www.w3.org/2000/svg" viewBox="0 0 32 32"><defs><style>.cls-1{fill:#e3e3e3;}</style></defs><title>bug_l</title><path class="cls-1" d="M27.89,19.3a1.4,1.4,0,0,1-1,.37H24.64v.67a5.76,5.76,0,0,1-.58,2.54l2.54,2.49a1.4,1.4,0,0,1,.37,1,1.33,1.33,0,0,1-1.33,1.33,1.4,1.4,0,0,1-1-.37L22.44,25a5.88,5.88,0,0,1-3.79,1.33V16.18a.48.48,0,0,0-.14-.35.49.49,0,0,0-.36-.15h-1a.47.47,0,0,0-.35.15.45.45,0,0,0-.15.35V26.33A5.88,5.88,0,0,1,12.87,25l-2.25,2.29a1.4,1.4,0,0,1-1,.37,1.35,1.35,0,0,1-1.33-1.33,1.41,1.41,0,0,1,.38-1l2.53-2.49a5.9,5.9,0,0,1-.58-2.54v-.67H8.37a1.35,1.35,0,0,1-.95-.37A1.2,1.2,0,0,1,7,18.36a1.27,1.27,0,0,1,.4-.95,1.24,1.24,0,0,1,.93-.4h2.33V14.56L8.71,12.64a1.39,1.39,0,0,1-.38-1,1.37,1.37,0,0,1,1.33-1.33,1.41,1.41,0,0,1,1,.38L12.87,13h9.57l2.24-2.29a1.41,1.41,0,0,1,1-.38A1.35,1.35,0,0,1,27,11.68a1.38,1.38,0,0,1-.37,1l-2,1.92V17H27a1.26,1.26,0,0,1,.94.4,1.33,1.33,0,0,1,.39,1A1.18,1.18,0,0,1,27.89,19.3ZM15.36,7A4.71,4.71,0,0,0,13,11h9.32a4.54,4.54,0,0,0-.62-2.33A4.67,4.67,0,0,0,15.36,7Z"/></svg>