<?xml version="1.0" encoding="UTF-8" standalone="no"?>
<!-- Created with Inkscape (http://www.inkscape.org/) -->

<svg
   xmlns:dc="http://purl.org/dc/elements/1.1/"
   xmlns:cc="http://creativecommons.org/ns#"
   xmlns:rdf="http://www.w3.org/1999/02/22-rdf-syntax-ns#"
   xmlns:svg="http://www.w3.org/2000/svg"
   xmlns="http://www.w3.org/2000/svg"
   xmlns:sodipodi="http://sodipodi.sourceforge.net/DTD/sodipodi-0.dtd"
   xmlns:inkscape="http://www.inkscape.org/namespaces/inkscape"
   width="32"
   height="32"
   viewBox="0 0 8.4666666 8.4666666"
   version="1.1"
   id="svg8"
   inkscape:version="0.92.5 (2060ec1f9f, 2020-04-08)"
   sodipodi:docname="build-settings_sl.svg">
  <defs
     id="defs2">
    <style
       id="style1399">.cls-1{fill:#e3e3e3;}</style>
    <style
       id="style1399-1">.cls-1{fill:#e3e3e3;}</style>
    <style
       id="style1399-9">.cls-1{fill:#e3e3e3;}</style>
    <style
       id="style1399-0">.cls-1{fill:#e3e3e3;}</style>
    <style
       id="style1399-7">.cls-1{fill:#e3e3e3;}</style>
    <style
       id="style1399-3">.cls-1{fill:#e3e3e3;}</style>
    <style
       id="style1399-6">.cls-1{fill:#e3e3e3;}</style>
    <style
       id="style1399-06">.cls-1{fill:#e3e3e3;}</style>
  </defs>
  <sodipodi:namedview
     id="base"
     pagecolor="#ffffff"
     bordercolor="#666666"
     borderopacity="1.0"
     inkscape:pageopacity="0.0"
     inkscape:pageshadow="2"
     inkscape:zoom="15.999999"
     inkscape:cx="22.592446"
     inkscape:cy="14.28944"
     inkscape:document-units="mm"
     inkscape:current-layer="svg8"
     showgrid="false"
     units="px"
     inkscape:window-width="1848"
     inkscape:window-height="1136"
     inkscape:window-x="1920"
     inkscape:window-y="27"
     inkscape:window-maximized="1">
    <sodipodi:guide
       position="8.4666666,0"
       orientation="-32,0"
       id="guide854"
       inkscape:locked="false" />
    <sodipodi:guide
       position="8.4666666,8.4666666"
       orientation="0,-32"
       id="guide856"
       inkscape:locked="false" />
    <sodipodi:guide
       position="0,8.4666814"
       orientation="1,6.123234e-17"
       id="guide858"
       inkscape:locked="false" />
  </sodipodi:namedview>
  <metadata
     id="metadata5">
    <rdf:RDF>
      <cc:Work
         rdf:about="">
        <dc:format>image/svg+xml</dc:format>
        <dc:type
           rdf:resource="http://purl.org/dc/dcmitype/StillImage" />
        <dc:title></dc:title>
      </cc:Work>
    </rdf:RDF>
  </metadata>
  <path
     style="opacity:1;fill:#83d3f6;fill-opacity:1;stroke:none;stroke-width:1.0023849;stroke-linecap:round;stroke-linejoin:round;stroke-miterlimit:4;stroke-dasharray:none;stroke-dashoffset:10.3937006;stroke-opacity:1"
     d="M 3.4709787,0 C 1.8712271,-1.7372503e-4 0.57424622,1.2965683 0.5741252,2.8963198 c 4.9862e-4,1.5323152 1.1943467,2.7991414 2.723939,2.8904494 0.00665,-0.033037 0.01501,-0.066275 0.027218,-0.098732 C 3.4357305,5.38955 3.6186402,5.1662666 3.7671755,4.9883733 3.9672183,4.7477707 4.3155264,4.686952 4.5837167,4.8410758 c 7.104e-4,7.104e-4 0.00142,0.00142 0.00213,0.00213 l 0.042695,0.024016 c 0.010635,-0.0063 0.02125,-0.012037 0.032021,-0.018146 v -0.0507 c 0,-0.3095537 0.2221527,-0.5806226 0.5326198,-0.6350878 7.105e-4,-1.6e-6 0.00142,-1.6e-6 0.00213,0 0.2611932,-0.044641 0.5340743,-0.047518 0.8064012,-0.00213 7.105e-4,-1.6e-6 0.00142,-1.6e-6 0.00213,0 0.021619,0.00376 0.042131,0.010684 0.062975,0.016545 C 6.2639767,3.7792892 6.3667859,3.3408443 6.3672889,2.8963195 6.3671777,1.2967766 5.0705218,1.2086243e-4 3.4709787,0 Z M 3.2927273,0.61374013 3.4506988,0.9296829 3.7666415,1.088188 3.4506988,1.2461593 3.2927273,1.5621021 3.134756,1.2461593 2.8182795,1.088188 3.134756,0.9296829 Z M 4.3755784,1.3310157 c 0.048565,0 0.096953,0.018383 0.1339556,0.055503 L 5.0128007,1.889786 c 0.074124,0.074065 0.074124,0.1939059 0,0.267911 L 2.8593734,4.3111245 c -0.037061,0.037061 -0.08539,0.055504 -0.1339555,0.055504 -0.048506,0 -0.097428,-0.018442 -0.1344892,-0.055504 L 2.0881955,3.8078575 c -0.074123,-0.074065 -0.074123,-0.1937873 0,-0.267911 L 4.241623,1.3865191 c 0.037061,-0.037121 0.08539,-0.055504 0.1339554,-0.055503 z m 0,0.3911926 -0.513407,0.5128733 0.3015334,0.3020669 0.5139405,-0.513407 z M 4.59439,3.0388144 4.7523617,3.3547572 5.0688381,3.5132623 4.7523617,3.6712336 4.59439,3.9871764 4.435885,3.6712336 4.1194086,3.5132623 4.435885,3.3547572 Z"
     id="path1506"
     inkscape:connector-curvature="0"
     sodipodi:nodetypes="cccccccccsccccccccccccccccccccssccccccccccccccccccc" />
  <path
     style="fill:#83d3f6;fill-opacity:1;stroke-width:0.00871242"
     inkscape:connector-curvature="0"
     d="m 7.0861748,6.7927812 0.293609,0.1463689 c 0.087995,0.050556 0.1263302,0.1576945 0.09148,0.2535336 -0.077541,0.2108379 -0.2300081,0.4042518 -0.3711494,0.573272 -0.064471,0.077544 -0.1759911,0.096711 -0.2639865,0.0462 L 6.5825964,7.6658003 C 6.4431975,7.7851618 6.2811462,7.8801231 6.1042841,7.9419786 v 0.2927376 c 0,0.1010668 -0.072313,0.1881933 -0.1716351,0.2056108 -0.2143258,0.03663 -0.4391063,0.038346 -0.6612733,0 C 5.1711828,8.4229029 5.0971272,8.3366537 5.0971272,8.2347162 V 7.9419786 C 4.9202649,7.8792782 4.7582136,7.7851618 4.6188147,7.6658003 l -0.2535314,0.145491 c -0.087124,0.050556 -0.1995151,0.03135 -0.2639868,-0.0462 C 3.9601552,7.5960709 3.8111725,7.402657 3.733632,7.1926902 3.698782,7.0977225 3.7371165,6.9905578 3.8251125,6.9391567 L 4.1152363,6.7927878 c -0.033978,-0.1820948 -0.033978,-0.3694036 0,-0.5523697 L 3.8251125,6.0931715 C 3.7371168,6.0426152 3.6979109,5.9354769 3.733632,5.8405091 3.8111725,5.6296712 3.9601552,5.4362506 4.1012965,5.2672304 4.1657682,5.1896867 4.2772875,5.1705269 4.3652833,5.2210963 L 4.6188147,5.3674651 C 4.7582136,5.2481035 4.9202649,5.1531423 5.0971272,5.0912868 V 4.7976779 c 0,-0.1002013 0.071441,-0.187322 0.1707636,-0.2047461 0.2143256,-0.03663 0.4399776,-0.038346 0.6621444,-0.00132 0.100193,0.017424 0.1742489,0.1036799 0.1742489,0.2056107 v 0.2927397 c 0.1768621,0.062766 0.3389134,0.1568299 0.4783123,0.2761849 L 6.8361281,5.2197828 c 0.087125,-0.05049 0.1995147,-0.031416 0.2639865,0.0462 0.1411414,0.1690201 0.2892528,0.362434 0.3667931,0.573272 0.03485,0.094968 8.778e-4,0.2021259 -0.087124,0.2535335 L 7.0861748,6.2391575 c 0.033978,0.1829661 0.033978,0.3702749 0,0.5532409 z M 6.0615931,6.9766052 C 6.5773688,6.3057518 5.8115464,5.5399371 5.1406893,6.0557097 4.6249133,6.7265631 5.3907359,7.4923845 6.0615931,6.9766052 Z"
     id="path1432"
     sodipodi:nodetypes="cccccccsccsccccccccccccccsccscccccccccccc" />
</svg>
