<svg id="Calque_1" data-name="Calque 1" xmlns="http://www.w3.org/2000/svg" viewBox="0 0 32 32"><defs><style>.cls-1{fill:#e3e3e3;}</style></defs><title>camerarig_l</title><path class="cls-1" d="M27.46,7a1.09,1.09,0,0,0-.35-.07.82.82,0,0,0-.62.26L20.9,12.73V10.44a4,4,0,0,0-4-4H7.13a4,4,0,0,0-4,4v9.77a4,4,0,0,0,4,4H16.9a4,4,0,0,0,4-4v-2.3l5.59,5.59a.82.82,0,0,0,.62.26,1.09,1.09,0,0,0,.35-.07.9.9,0,0,0,.54-.82V7.78A.9.9,0,0,0,27.46,7Zm-8,9.15-2.27,2.27a.56.56,0,0,1-.4.17.58.58,0,0,1-.57-.57V16.85H12.77v3.4h1.14a.58.58,0,0,1,.57.57.6.6,0,0,1-.17.4L12,23.49a.56.56,0,0,1-.8,0L9,21.22a.56.56,0,0,1-.17-.4.58.58,0,0,1,.57-.57H10.5v-3.4H7.1V18a.58.58,0,0,1-.57.57.56.56,0,0,1-.4-.17L3.86,16.11a.59.59,0,0,1-.17-.4.6.6,0,0,1,.17-.4L6.13,13a.59.59,0,0,1,.4-.16.57.57,0,0,1,.57.56v1.14h3.4V11.17H9.37a.57.57,0,0,1-.57-.56.53.53,0,0,1,.17-.4l2.27-2.27a.56.56,0,0,1,.8,0l2.27,2.27a.56.56,0,0,1-.4,1H12.77v3.41h3.41V13.44a.57.57,0,0,1,.57-.56.59.59,0,0,1,.4.16l2.27,2.27a.59.59,0,0,1,.16.4A.58.58,0,0,1,19.42,16.11Z"/></svg>