<?xml version="1.0" encoding="UTF-8" standalone="no"?>
<!-- Created with Inkscape (http://www.inkscape.org/) -->

<svg
   xmlns:dc="http://purl.org/dc/elements/1.1/"
   xmlns:cc="http://creativecommons.org/ns#"
   xmlns:rdf="http://www.w3.org/1999/02/22-rdf-syntax-ns#"
   xmlns:svg="http://www.w3.org/2000/svg"
   xmlns="http://www.w3.org/2000/svg"
   xmlns:sodipodi="http://sodipodi.sourceforge.net/DTD/sodipodi-0.dtd"
   xmlns:inkscape="http://www.inkscape.org/namespaces/inkscape"
   width="32"
   height="32"
   viewBox="0 0 8.4666666 8.4666666"
   version="1.1"
   id="svg8"
   inkscape:version="0.92.5 (2060ec1f9f, 2020-04-08)"
   sodipodi:docname="camera_sl.svg">
  <defs
     id="defs2">
    <style
       id="style1399">.cls-1{fill:#e3e3e3;}</style>
  </defs>
  <sodipodi:namedview
     id="base"
     pagecolor="#ffffff"
     bordercolor="#666666"
     borderopacity="1.0"
     inkscape:pageopacity="0.0"
     inkscape:pageshadow="2"
     inkscape:zoom="16"
     inkscape:cx="4.5075538"
     inkscape:cy="11.614849"
     inkscape:document-units="mm"
     inkscape:current-layer="svg8"
     showgrid="false"
     units="px"
     inkscape:window-width="1920"
     inkscape:window-height="1043"
     inkscape:window-x="0"
     inkscape:window-y="120"
     inkscape:window-maximized="1">
    <sodipodi:guide
       position="8.4666666,0"
       orientation="-32,0"
       id="guide854"
       inkscape:locked="false" />
    <sodipodi:guide
       position="8.4666666,8.4666666"
       orientation="0,-32"
       id="guide856"
       inkscape:locked="false" />
    <sodipodi:guide
       position="0,8.4666814"
       orientation="32,0"
       id="guide858"
       inkscape:locked="false" />
  </sodipodi:namedview>
  <metadata
     id="metadata5">
    <rdf:RDF>
      <cc:Work
         rdf:about="">
        <dc:format>image/svg+xml</dc:format>
        <dc:type
           rdf:resource="http://purl.org/dc/dcmitype/StillImage" />
        <dc:title></dc:title>
      </cc:Work>
    </rdf:RDF>
  </metadata>
  <path
     id="path1320"
     d="m 8.4666667,2.206379 v 4.750004 c 0,0.4370663 -0.3546014,0.7916672 -0.7916673,0.7916672 H 0.81388229 c -0.43706625,0 -0.79166722,-0.3546009 -0.79166722,-0.7916672 V 2.206379 c 0,-0.4370662 0.35460097,-0.7916671 0.79166722,-0.7916671 H 2.2652723 L 2.468137,0.87208982 C 2.5835888,0.56366934 2.8788145,0.35915524 3.2086763,0.35915524 h 2.06988 c 0.3298616,0 0.6250872,0.2045141 0.7405386,0.51293458 L 6.223609,1.4147119 h 1.4513904 c 0.4370659,0 0.7916673,0.3546009 0.7916673,0.7916671 z M 6.223609,4.5813807 c 0,-1.091841 -0.8873268,-1.9791683 -1.9791683,-1.9791683 -1.091841,0 -1.9791684,0.8873273 -1.9791684,1.9791683 0,1.0918416 0.8873274,1.9791684 1.9791684,1.9791684 1.0918415,0 1.9791683,-0.8873268 1.9791683,-1.9791684 z m -0.5277783,0 c 0,0.7999142 -0.651476,1.4513902 -1.45139,1.4513902 -0.7999136,0 -1.4513901,-0.651476 -1.4513901,-1.4513902 0,-0.7999135 0.6514765,-1.45139 1.4513901,-1.45139 0.799914,0 1.45139,0.6514765 1.45139,1.45139 z"
     inkscape:connector-curvature="0"
     style="stroke-width:0.01649306;fill:#e3e3e3;fill-opacity:1" />
</svg>
