<svg id="Calque_1" data-name="Calque 1" xmlns="http://www.w3.org/2000/svg" viewBox="0 0 32 32"><defs><style>.cls-1{fill:#e3e3e3;}</style></defs><title>cancel_l</title><path class="cls-1" d="M6.88,6A13.17,13.17,0,0,1,13,2.48a13.65,13.65,0,0,1,7,0,13.45,13.45,0,0,1,9.6,9.6,13.69,13.69,0,0,1,0,7A13.45,13.45,0,0,1,20,28.7a13.65,13.65,0,0,1-7,0,13.08,13.08,0,0,1-6.1-3.5,13.24,13.24,0,0,1-3.51-6.1,13.69,13.69,0,0,1,0-7A13.24,13.24,0,0,1,6.88,6ZM23.14,11.1,21,8.93a.61.61,0,0,0-.46-.2.65.65,0,0,0-.47.2l-3.56,3.56L12.92,8.93a.65.65,0,0,0-.47-.2.63.63,0,0,0-.46.2L9.82,11.1a.62.62,0,0,0-.19.46.64.64,0,0,0,.19.47l3.56,3.56L9.82,19.15a.64.64,0,0,0-.19.47.62.62,0,0,0,.19.46L12,22.25a.63.63,0,0,0,.46.2.65.65,0,0,0,.47-.2l3.56-3.56L20,22.25a.65.65,0,0,0,.94,0l2.16-2.17a.61.61,0,0,0,.2-.46.65.65,0,0,0-.2-.47l-3.56-3.56L23.14,12a.65.65,0,0,0,.2-.47A.63.63,0,0,0,23.14,11.1Z"/></svg>