<svg id="Calque_1" data-name="Calque 1" xmlns="http://www.w3.org/2000/svg" viewBox="0 0 32 32"><defs><style>.cls-1{fill:#e3e3e3;}</style></defs><title>cel_l</title><path class="cls-1" d="M12,29.33,5.41,24.22,4,25.34l8,6.24,8-6.24-1.45-1.13Zm0-2.27L18.54,22,20,20.83l-8-6.24L4,20.83,5.42,22Z"/><path class="cls-1" d="M23.18,4.49a.36.36,0,0,1,.25-.11.28.28,0,0,1,.22.11l3,3a.28.28,0,0,1,.11.22.38.38,0,0,1-.11.25l-7.14,7.13-3.32.6a.67.67,0,0,1-.76-.76l.6-3.32Zm-5.34,8.83V12h-1l-.32,1.74.87.87,1.74-.32v-1Zm1-2.29a.41.41,0,0,0,.28.11.37.37,0,0,0,.27-.11l4.19-4.2a.39.39,0,0,0,0-.54.39.39,0,0,0-.54,0l-4.2,4.19a.4.4,0,0,0-.1.28A.38.38,0,0,0,18.82,11ZM29,5.64a1.26,1.26,0,0,0,.38-.93A1.26,1.26,0,0,0,29,3.78L27.38,2.15a1.26,1.26,0,0,0-.93-.38,1.22,1.22,0,0,0-.92.38L24.27,3.4a.36.36,0,0,0-.11.25.25.25,0,0,0,.11.21l3,3a.28.28,0,0,0,.22.11.36.36,0,0,0,.25-.11Z"/></svg>