<?xml version="1.0" encoding="UTF-8" standalone="no"?>
<!-- Created with Inkscape (http://www.inkscape.org/) -->

<svg
   xmlns:dc="http://purl.org/dc/elements/1.1/"
   xmlns:cc="http://creativecommons.org/ns#"
   xmlns:rdf="http://www.w3.org/1999/02/22-rdf-syntax-ns#"
   xmlns:svg="http://www.w3.org/2000/svg"
   xmlns="http://www.w3.org/2000/svg"
   xmlns:sodipodi="http://sodipodi.sourceforge.net/DTD/sodipodi-0.dtd"
   xmlns:inkscape="http://www.inkscape.org/namespaces/inkscape"
   width="32"
   height="32"
   viewBox="0 0 8.4666666 8.4666666"
   version="1.1"
   id="svg8"
   inkscape:version="0.92.5 (2060ec1f9f, 2020-04-08)"
   sodipodi:docname="change-frames-start-number_bl.svg">
  <defs
     id="defs2">
    <style
       id="style1399">.cls-1{fill:#e3e3e3;}</style>
    <style
       id="style1399-4">.cls-1{fill:#e3e3e3;}</style>
    <style
       id="style1399-5">.cls-1{fill:#e3e3e3;}</style>
    <style
       id="style1399-7">.cls-1{fill:#e3e3e3;}</style>
    <style
       id="style1399-85">.cls-1{fill:#e3e3e3;}</style>
    <style
       id="style1399-4-6">.cls-1{fill:#e3e3e3;}</style>
    <style
       id="style1399-8">.cls-1{fill:#e3e3e3;}</style>
    <style
       id="style1399-4-5">.cls-1{fill:#e3e3e3;}</style>
    <style
       id="style1399-78">.cls-1{fill:#e3e3e3;}</style>
    <style
       id="style1399-4-57">.cls-1{fill:#e3e3e3;}</style>
    <style
       id="style1399-5-4">.cls-1{fill:#e3e3e3;}</style>
    <style
       id="style1399-7-1">.cls-1{fill:#e3e3e3;}</style>
    <style
       id="style1399-85-8">.cls-1{fill:#e3e3e3;}</style>
    <style
       id="style1399-4-6-5">.cls-1{fill:#e3e3e3;}</style>
    <style
       id="style1399-8-9">.cls-1{fill:#e3e3e3;}</style>
    <style
       id="style1399-4-5-7">.cls-1{fill:#e3e3e3;}</style>
    <style
       id="style1399-77">.cls-1{fill:#e3e3e3;}</style>
    <style
       id="style1399-4-64">.cls-1{fill:#e3e3e3;}</style>
    <style
       id="style1399-5-3">.cls-1{fill:#e3e3e3;}</style>
    <style
       id="style1399-7-0">.cls-1{fill:#e3e3e3;}</style>
    <style
       id="style1399-85-3">.cls-1{fill:#e3e3e3;}</style>
    <style
       id="style1399-4-6-0">.cls-1{fill:#e3e3e3;}</style>
    <style
       id="style1399-8-92">.cls-1{fill:#e3e3e3;}</style>
    <style
       id="style1399-4-5-5">.cls-1{fill:#e3e3e3;}</style>
    <style
       id="style1399-2">.cls-1{fill:#e3e3e3;}</style>
    <style
       id="style1399-4-2">.cls-1{fill:#e3e3e3;}</style>
    <style
       id="style1399-5-47">.cls-1{fill:#e3e3e3;}</style>
    <style
       id="style1399-7-7">.cls-1{fill:#e3e3e3;}</style>
    <style
       id="style1399-85-5">.cls-1{fill:#e3e3e3;}</style>
    <style
       id="style1399-4-6-4">.cls-1{fill:#e3e3e3;}</style>
    <style
       id="style1399-8-8">.cls-1{fill:#e3e3e3;}</style>
    <style
       id="style1399-4-5-1">.cls-1{fill:#e3e3e3;}</style>
    <style
       id="style1399-78-2">.cls-1{fill:#e3e3e3;}</style>
    <style
       id="style1399-4-57-8">.cls-1{fill:#e3e3e3;}</style>
    <style
       id="style1399-5-4-9">.cls-1{fill:#e3e3e3;}</style>
    <style
       id="style1399-7-1-3">.cls-1{fill:#e3e3e3;}</style>
    <style
       id="style1399-85-8-6">.cls-1{fill:#e3e3e3;}</style>
    <style
       id="style1399-4-6-5-8">.cls-1{fill:#e3e3e3;}</style>
    <style
       id="style1399-8-9-0">.cls-1{fill:#e3e3e3;}</style>
    <style
       id="style1399-4-5-7-2">.cls-1{fill:#e3e3e3;}</style>
    <style
       id="style1399-50">.cls-1{fill:#e3e3e3;}</style>
    <style
       id="style1399-4-646">.cls-1{fill:#e3e3e3;}</style>
    <style
       id="style1399-5-2">.cls-1{fill:#e3e3e3;}</style>
    <style
       id="style1399-7-5">.cls-1{fill:#e3e3e3;}</style>
    <style
       id="style1399-85-86">.cls-1{fill:#e3e3e3;}</style>
    <style
       id="style1399-4-6-2">.cls-1{fill:#e3e3e3;}</style>
    <style
       id="style1399-8-84">.cls-1{fill:#e3e3e3;}</style>
    <style
       id="style1399-4-5-72">.cls-1{fill:#e3e3e3;}</style>
  </defs>
  <sodipodi:namedview
     id="base"
     pagecolor="#ffffff"
     bordercolor="#666666"
     borderopacity="1.0"
     inkscape:pageopacity="0.0"
     inkscape:pageshadow="2"
     inkscape:zoom="11.313708"
     inkscape:cx="2.7463135"
     inkscape:cy="12.122509"
     inkscape:document-units="mm"
     inkscape:current-layer="svg8"
     showgrid="false"
     units="px"
     inkscape:window-width="1920"
     inkscape:window-height="1043"
     inkscape:window-x="0"
     inkscape:window-y="120"
     inkscape:window-maximized="1">
    <sodipodi:guide
       position="8.4666666,0"
       orientation="-32,0"
       id="guide854"
       inkscape:locked="false" />
    <sodipodi:guide
       position="0,8.4666666"
       orientation="0,-32"
       id="guide856"
       inkscape:locked="false" />
    <sodipodi:guide
       position="0,8.4666666"
       orientation="32,0"
       id="guide858"
       inkscape:locked="false" />
  </sodipodi:namedview>
  <metadata
     id="metadata5">
    <rdf:RDF>
      <cc:Work
         rdf:about="">
        <dc:format>image/svg+xml</dc:format>
        <dc:type
           rdf:resource="http://purl.org/dc/dcmitype/StillImage" />
        <dc:title></dc:title>
      </cc:Work>
    </rdf:RDF>
  </metadata>
  <path
     style="fill:#e3e3e3;fill-opacity:1;stroke-width:0.04743152"
     d="M 2.3164062 0 C 1.0594707 0 0.0390625 1.0184536 0.0390625 2.2753906 L 0.0390625 18.972656 C 0.039061366 20.229591 1.05947 21.25 2.3164062 21.25 L 11.699219 21.25 C 11.868074 20.239985 12.170278 19.255166 12.59375 18.322266 C 12.429517 18.38993 12.260597 18.4534 12.083984 18.509766 C 11.334159 18.751644 10.499218 18.873047 9.5800781 18.873047 C 9.0963201 18.873047 8.6365538 18.841826 8.2011719 18.777344 C 7.7657896 18.7209 7.3740372 18.647284 7.0273438 18.558594 C 6.6806515 18.461842 6.3956753 18.369937 6.1699219 18.28125 C 5.9522324 18.184498 5.8069397 18.107217 5.734375 18.050781 C 5.6698736 17.98628 5.6201413 17.918266 5.5878906 17.845703 C 5.5556513 17.773144 5.5280952 17.688545 5.5039062 17.591797 C 5.4877677 17.486983 5.4768004 17.358268 5.46875 17.205078 C 5.4606996 17.051886 5.4550781 16.869785 5.4550781 16.660156 C 5.4550781 16.434401 5.4643302 16.244986 5.4804688 16.091797 C 5.4966073 15.930543 5.5204837 15.801828 5.5527344 15.705078 C 5.5930468 15.60833 5.6371727 15.538359 5.6855469 15.498047 C 5.733921 15.457738 5.7909749 15.4375 5.8554688 15.4375 C 5.9360936 15.4375 6.0555471 15.48724 6.2167969 15.583984 C 6.3861122 15.672675 6.6050267 15.773847 6.8710938 15.886719 C 7.1452229 15.999594 7.4762746 16.10442 7.8632812 16.201172 C 8.2502875 16.289862 8.7137101 16.333984 9.2539062 16.333984 C 9.7215389 16.333984 10.144494 16.284252 10.523438 16.1875 C 10.910444 16.090748 11.235887 15.938146 11.501953 15.728516 C 11.768021 15.510826 11.974014 15.240475 12.119141 14.917969 C 12.264267 14.595465 12.337891 14.209321 12.337891 13.757812 C 12.337891 13.370807 12.277191 13.026834 12.15625 12.728516 C 12.035305 12.42214 11.845893 12.164706 11.587891 11.955078 C 11.329886 11.745449 10.995178 11.589189 10.583984 11.484375 C 10.172789 11.379561 9.6725566 11.326172 9.0839844 11.326172 C 8.6163521 11.326172 8.1897406 11.350056 7.8027344 11.398438 C 7.4237906 11.446819 7.0651931 11.470703 6.7265625 11.470703 C 6.4927458 11.470703 6.3216111 11.415614 6.2167969 11.302734 C 6.1200447 11.181789 6.0722656 10.962879 6.0722656 10.648438 L 6.0722656 3.8515625 C 6.0722656 3.5290573 6.1329651 3.3011273 6.2539062 3.1640625 C 6.3829091 3.0189351 6.5852444 2.9453125 6.859375 2.9453125 L 14.271484 2.9453125 C 14.344044 2.9453125 14.414014 2.9692024 14.478516 3.0175781 C 14.543017 3.0659542 14.594453 3.1432326 14.634766 3.2480469 C 14.683136 3.3528611 14.716291 3.494497 14.732422 3.671875 C 14.756611 3.8411903 14.767578 4.0452307 14.767578 4.2871094 C 14.767578 4.770867 14.72346 5.1221517 14.634766 5.3398438 C 14.554145 5.5575332 14.432738 5.6660156 14.271484 5.6660156 L 8.7089844 5.6660156 L 8.7089844 9.015625 C 8.9911752 8.9833856 9.2688392 8.965093 9.5429688 8.9570312 C 9.8251596 8.9489809 10.119403 8.9433594 10.425781 8.9433594 C 11.27236 8.9433594 12.02271 9.0445278 12.675781 9.2460938 C 13.336919 9.439598 13.888587 9.7301816 14.332031 10.117188 C 14.78354 10.496131 15.127512 10.972475 15.361328 11.544922 C 15.595145 12.109307 15.710937 12.7658 15.710938 13.515625 C 15.710938 13.769776 15.692875 14.013816 15.666016 14.251953 C 17.266127 12.917461 19.232189 12.036415 21.289062 11.701172 L 21.289062 2.2753906 C 21.289061 1.0184536 20.270607 0 19.013672 0 L 2.3164062 0 z M 23.148438 0 C 23.527913 0.67974531 23.746094 1.4560161 23.746094 2.2773438 L 23.746094 11.570312 C 24.720785 11.626156 25.685676 11.801564 26.615234 12.099609 L 26.615234 2.2753906 C 26.615232 1.0184536 25.596779 -1.2968996e-07 24.339844 0 L 23.148438 0 z M 28.474609 0 C 28.854083 0.67974531 29.072266 1.4560161 29.072266 2.2773438 L 29.072266 13.216797 C 29.876145 13.69766 30.627705 14.263024 31.291016 14.925781 C 31.534318 15.168881 31.762678 15.427185 31.982422 15.691406 L 31.982422 2.2753906 C 31.982422 1.0184536 30.963967 0 29.707031 0 L 28.474609 0 z "
     transform="scale(0.26458333)"
     id="path1002" />
  <path
     inkscape:connector-curvature="0"
     id="path1533"
     d="M 6.1141653,3.7770847 A 2.3390603,2.3390603 0 0 0 3.7751048,6.1161452 2.3390603,2.3390603 0 0 0 6.1141653,8.4552057 2.3390603,2.3390603 0 0 0 8.4532258,6.1161452 2.3390603,2.3390603 0 0 0 6.1141653,3.7770847 Z m 0.6641424,0.8797174 c 0.066096,-6.183e-4 0.1324846,0.00685 0.1970156,0.022842 0.049523,0.01231 0.066903,0.073849 0.030837,0.109929 L 6.6009935,5.19474 6.6626685,5.564501 7.0324297,5.626176 7.4375965,5.2210091 c 0.035848,-0.035815 0.097154,-0.019195 0.1093579,0.029981 0.064231,0.2582876 -0.00448,0.5429907 -0.206438,0.7449474 -0.2173732,0.2173724 -0.5298586,0.277481 -0.80291,0.186451 L 5.3760707,7.3439236 c -0.1361443,0.1361443 -0.3569658,0.1361443 -0.4931101,0 -0.1361443,-0.13615 -0.1361443,-0.3569658 0,-0.4931101 L 6.0456381,5.6884215 C 5.955747,5.4154863 6.0152757,5.1023205 6.2312325,4.8863681 6.3825358,4.7351161 6.5800184,4.6586594 6.7783077,4.6568021 Z"
     style="fill:#83d3f6;fill-opacity:1;stroke:none;stroke-width:0.8647157;stroke-miterlimit:4;stroke-dasharray:none;stroke-opacity:1" />
</svg>
