<svg id="Calque_1" data-name="Calque 1" xmlns="http://www.w3.org/2000/svg" viewBox="0 0 32 32"><defs><style>.cls-1{fill:#e3e3e3;}</style></defs><title>checked_l</title><path class="cls-1" d="M5.88,29.94A2.9,2.9,0,0,1,3,27V5.66A2.83,2.83,0,0,1,3.81,3.6a2.81,2.81,0,0,1,2.07-.85H27.24a2.81,2.81,0,0,1,2.07.85,2.83,2.83,0,0,1,.85,2.06V27a2.9,2.9,0,0,1-2.92,2.91ZM26,12.83a1,1,0,0,0,.3-.7,1,1,0,0,0-.3-.7l-1.34-1.34a1,1,0,0,0-1.39,0L14.13,19.2,9.88,15a1,1,0,0,0-1.39,0L7.15,16.29a1,1,0,0,0,0,1.39L13.46,24a.81.81,0,0,0,.67.31A.79.79,0,0,0,14.8,24Z"/></svg>