<?xml version="1.0" encoding="UTF-8" standalone="no"?>
<!-- Created with Inkscape (http://www.inkscape.org/) -->

<svg
   xmlns:dc="http://purl.org/dc/elements/1.1/"
   xmlns:cc="http://creativecommons.org/ns#"
   xmlns:rdf="http://www.w3.org/1999/02/22-rdf-syntax-ns#"
   xmlns:svg="http://www.w3.org/2000/svg"
   xmlns="http://www.w3.org/2000/svg"
   xmlns:sodipodi="http://sodipodi.sourceforge.net/DTD/sodipodi-0.dtd"
   xmlns:inkscape="http://www.inkscape.org/namespaces/inkscape"
   width="32"
   height="32"
   viewBox="0 0 8.4666666 8.4666666"
   version="1.1"
   id="svg8"
   inkscape:version="0.92.5 (2060ec1f9f, 2020-04-08)"
   sodipodi:docname="code-file_sl.svg">
  <defs
     id="defs2" />
  <sodipodi:namedview
     id="base"
     pagecolor="#ffffff"
     bordercolor="#666666"
     borderopacity="1.0"
     inkscape:pageopacity="0.0"
     inkscape:pageshadow="2"
     inkscape:zoom="15.999999"
     inkscape:cx="10.720901"
     inkscape:cy="5.5627391"
     inkscape:document-units="mm"
     inkscape:current-layer="svg8"
     showgrid="false"
     units="px"
     inkscape:window-width="1920"
     inkscape:window-height="1043"
     inkscape:window-x="0"
     inkscape:window-y="120"
     inkscape:window-maximized="1">
    <sodipodi:guide
       position="8.4666666,0"
       orientation="-32,0"
       id="guide854"
       inkscape:locked="false" />
    <sodipodi:guide
       position="8.4666666,8.4666666"
       orientation="0,-32"
       id="guide856"
       inkscape:locked="false" />
    <sodipodi:guide
       position="0,8.4666814"
       orientation="1,6.123234e-17"
       id="guide858"
       inkscape:locked="false" />
  </sodipodi:namedview>
  <metadata
     id="metadata5">
    <rdf:RDF>
      <cc:Work
         rdf:about="">
        <dc:format>image/svg+xml</dc:format>
        <dc:type
           rdf:resource="http://purl.org/dc/dcmitype/StillImage" />
        <dc:title></dc:title>
      </cc:Work>
    </rdf:RDF>
  </metadata>
  <path
     id="path1026"
     d="m 7.3566924,2.0105748 v 0.099901 H 5.2462161 V 0 h 0.099901 c 0.1049472,0 0.205607,0.04169838 0.2798199,0.1158948 l 1.6148603,1.6148604 a 0.39579671,0.39579671 0 0 1 0.1158951,0.2798196 z m -2.242381,0.6275204 c -0.2176428,0 -0.3957143,-0.1780715 -0.3957143,-0.3957143 V 0 H 1.4209782 C 1.2024284,0 1.0252639,0.17716458 1.0252639,0.39571427 V 8.0461904 c 0,0.2185496 0.1771645,0.3957144 0.3957143,0.3957144 H 6.960978 c 0.2185497,0 0.3957144,-0.1771648 0.3957144,-0.3957144 V 2.6380952 Z M 3.0566961,6.6035645 A 0.08903572,0.08903572 0 0 1 2.9308425,6.607624 L 1.8613257,5.6049465 a 0.08903572,0.08903572 0 0 1 0,-0.1299097 L 2.9308425,4.4723627 a 0.08903572,0.08903572 0 0 1 0.1258536,0.00406 l 0.3228204,0.3443506 a 0.08903572,0.08903572 0 0 1 -0.00614,0.1277333 L 2.701274,5.5400003 3.3733781,6.1314943 a 0.08903572,0.08903572 0 0 1 0.00614,0.1277333 z M 3.9024529,7.4358669 3.4498053,7.3044568 A 0.08906869,0.08906869 0 0 1 3.3891126,7.1941185 L 4.4021411,3.7048089 a 0.08906869,0.08906869 0 0 1 0.1103383,-0.060693 l 0.4526313,0.1314102 a 0.08903572,0.08903572 0 0 1 0.060676,0.1103383 L 4.0127583,7.3751743 A 0.08898625,0.08898625 0 0 1 3.9024529,7.4358669 Z M 6.5536067,5.6049465 5.4840899,6.6076207 A 0.08903572,0.08903572 0 0 1 5.3582363,6.6035639 L 5.0353994,6.2592096 a 0.08903572,0.08903572 0 0 1 0.00614,-0.1277329 L 5.7136536,5.5399998 5.0415494,4.9485059 A 0.08903572,0.08903572 0 0 1 5.0354155,4.8207726 L 5.3582524,4.4764188 a 0.08903572,0.08903572 0 0 1 0.1258536,-0.00406 l 1.0695168,1.0026741 a 0.08903572,0.08903572 0 0 1 -1.65e-5,0.1299097 z"
     inkscape:connector-curvature="0"
     style="stroke-width:0.01648809;fill:#e3e3e3;fill-opacity:1" />
</svg>
