<svg id="Calque_1" data-name="Calque 1" xmlns="http://www.w3.org/2000/svg" viewBox="0 0 32 32"><defs><style>.cls-1{fill:#e3e3e3;}</style></defs><title>cog_l</title><path class="cls-1" d="M30.15,19.45a.53.53,0,0,1,.28.31.72.72,0,0,1,0,.41A12.92,12.92,0,0,1,27.62,25a.74.74,0,0,1-.36.21.57.57,0,0,1-.42-.05l-2.17-1.29a10.07,10.07,0,0,1-3.15,1.81v2.53a.62.62,0,0,1-.13.38.57.57,0,0,1-.33.24,13.27,13.27,0,0,1-5.68,0,.63.63,0,0,1-.34-.24.7.7,0,0,1-.13-.38V25.7a10.07,10.07,0,0,1-3.15-1.81L9.6,25.18a.57.57,0,0,1-.42.05A.67.67,0,0,1,8.82,25,12.79,12.79,0,0,1,6,20.17a.72.72,0,0,1,0-.41.53.53,0,0,1,.28-.31l2.17-1.29a10.48,10.48,0,0,1,0-3.62L6.29,13.25A.53.53,0,0,1,6,12.94a.72.72,0,0,1,0-.41A12.9,12.9,0,0,1,8.82,7.67a.72.72,0,0,1,.36-.2.57.57,0,0,1,.42,0l2.16,1.29A10.07,10.07,0,0,1,14.91,7V4.47A.7.7,0,0,1,15,4.09a.63.63,0,0,1,.34-.24,13.27,13.27,0,0,1,5.68,0,.57.57,0,0,1,.33.24.62.62,0,0,1,.13.38V7a10.07,10.07,0,0,1,3.15,1.81l2.17-1.29a.57.57,0,0,1,.42,0,.81.81,0,0,1,.36.2,13,13,0,0,1,2.84,4.86.72.72,0,0,1,0,.41.53.53,0,0,1-.28.31L28,14.54a10.48,10.48,0,0,1,0,3.62Zm-9-6a4.13,4.13,0,0,0-5.84,0,4.13,4.13,0,0,0,0,5.84,4.13,4.13,0,0,0,5.84,0,4.13,4.13,0,0,0,0-5.84Z"/></svg>