<?xml version="1.0" encoding="UTF-8" standalone="no"?>
<!-- Created with Inkscape (http://www.inkscape.org/) -->

<svg
   xmlns:dc="http://purl.org/dc/elements/1.1/"
   xmlns:cc="http://creativecommons.org/ns#"
   xmlns:rdf="http://www.w3.org/1999/02/22-rdf-syntax-ns#"
   xmlns:svg="http://www.w3.org/2000/svg"
   xmlns="http://www.w3.org/2000/svg"
   xmlns:sodipodi="http://sodipodi.sourceforge.net/DTD/sodipodi-0.dtd"
   xmlns:inkscape="http://www.inkscape.org/namespaces/inkscape"
   width="32"
   height="32"
   viewBox="0 0 8.4666666 8.4666666"
   version="1.1"
   id="svg8"
   inkscape:version="0.92.5 (2060ec1f9f, 2020-04-08)"
   sodipodi:docname="connections_bl.svg">
  <defs
     id="defs2">
    <style
       id="style1399">.cls-1{fill:#e3e3e3;}</style>
    <style
       id="style1399-4">.cls-1{fill:#e3e3e3;}</style>
    <style
       id="style1399-8">.cls-1{fill:#e3e3e3;}</style>
    <style
       id="style1399-4-5">.cls-1{fill:#e3e3e3;}</style>
    <style
       id="style1399-9">.cls-1{fill:#e3e3e3;}</style>
    <style
       id="style1399-4-6">.cls-1{fill:#e3e3e3;}</style>
    <style
       id="style1399-8-4">.cls-1{fill:#e3e3e3;}</style>
    <style
       id="style1399-4-5-3">.cls-1{fill:#e3e3e3;}</style>
    <style
       id="style1399-88">.cls-1{fill:#e3e3e3;}</style>
    <style
       id="style1399-3">.cls-1{fill:#e3e3e3;}</style>
    <style
       id="style1399-94">.cls-1{fill:#e3e3e3;}</style>
    <style
       id="style1399-5">.cls-1{fill:#e3e3e3;}</style>
    <style
       id="style1399-46">.cls-1{fill:#e3e3e3;}</style>
    <style
       id="style1399-4-2">.cls-1{fill:#e3e3e3;}</style>
    <style
       id="style1399-8-5">.cls-1{fill:#e3e3e3;}</style>
    <style
       id="style1399-4-5-8">.cls-1{fill:#e3e3e3;}</style>
    <style
       id="style1399-9-6">.cls-1{fill:#e3e3e3;}</style>
    <style
       id="style1399-4-6-2">.cls-1{fill:#e3e3e3;}</style>
    <style
       id="style1399-8-4-8">.cls-1{fill:#e3e3e3;}</style>
    <style
       id="style1399-4-5-3-4">.cls-1{fill:#e3e3e3;}</style>
    <style
       id="style1399-88-7">.cls-1{fill:#e3e3e3;}</style>
    <style
       id="style1399-3-2">.cls-1{fill:#e3e3e3;}</style>
    <style
       id="style1399-94-4">.cls-1{fill:#e3e3e3;}</style>
    <style
       id="style1399-5-0">.cls-1{fill:#e3e3e3;}</style>
    <style
       id="style1399-39">.cls-1{fill:#e3e3e3;}</style>
    <style
       id="style1399-4-1">.cls-1{fill:#e3e3e3;}</style>
    <style
       id="style1399-8-9">.cls-1{fill:#e3e3e3;}</style>
    <style
       id="style1399-4-5-6">.cls-1{fill:#e3e3e3;}</style>
    <style
       id="style1399-9-9">.cls-1{fill:#e3e3e3;}</style>
    <style
       id="style1399-4-6-3">.cls-1{fill:#e3e3e3;}</style>
    <style
       id="style1399-8-4-3">.cls-1{fill:#e3e3e3;}</style>
    <style
       id="style1399-4-5-3-8">.cls-1{fill:#e3e3e3;}</style>
    <style
       id="style1399-88-0">.cls-1{fill:#e3e3e3;}</style>
    <style
       id="style1399-3-5">.cls-1{fill:#e3e3e3;}</style>
    <style
       id="style1399-94-6">.cls-1{fill:#e3e3e3;}</style>
    <style
       id="style1399-5-6">.cls-1{fill:#e3e3e3;}</style>
    <style
       id="style1399-46-4">.cls-1{fill:#e3e3e3;}</style>
    <style
       id="style1399-4-2-0">.cls-1{fill:#e3e3e3;}</style>
    <style
       id="style1399-8-5-0">.cls-1{fill:#e3e3e3;}</style>
    <style
       id="style1399-4-5-8-4">.cls-1{fill:#e3e3e3;}</style>
    <style
       id="style1399-9-6-6">.cls-1{fill:#e3e3e3;}</style>
    <style
       id="style1399-4-6-2-2">.cls-1{fill:#e3e3e3;}</style>
    <style
       id="style1399-8-4-8-6">.cls-1{fill:#e3e3e3;}</style>
    <style
       id="style1399-4-5-3-4-7">.cls-1{fill:#e3e3e3;}</style>
    <style
       id="style1399-88-7-5">.cls-1{fill:#e3e3e3;}</style>
    <style
       id="style1399-3-2-6">.cls-1{fill:#e3e3e3;}</style>
    <style
       id="style1399-94-4-9">.cls-1{fill:#e3e3e3;}</style>
    <style
       id="style1399-5-0-8">.cls-1{fill:#e3e3e3;}</style>
    <style
       id="style1399-1">.cls-1{fill:#e3e3e3;}</style>
    <style
       id="style1399-4-59">.cls-1{fill:#e3e3e3;}</style>
    <style
       id="style1399-8-91">.cls-1{fill:#e3e3e3;}</style>
    <style
       id="style1399-4-5-4">.cls-1{fill:#e3e3e3;}</style>
    <style
       id="style1399-9-91">.cls-1{fill:#e3e3e3;}</style>
    <style
       id="style1399-4-6-0">.cls-1{fill:#e3e3e3;}</style>
    <style
       id="style1399-8-4-7">.cls-1{fill:#e3e3e3;}</style>
    <style
       id="style1399-4-5-3-5">.cls-1{fill:#e3e3e3;}</style>
    <style
       id="style1399-88-8">.cls-1{fill:#e3e3e3;}</style>
    <style
       id="style1399-3-7">.cls-1{fill:#e3e3e3;}</style>
    <style
       id="style1399-94-0">.cls-1{fill:#e3e3e3;}</style>
    <style
       id="style1399-5-4">.cls-1{fill:#e3e3e3;}</style>
    <style
       id="style1399-46-8">.cls-1{fill:#e3e3e3;}</style>
    <style
       id="style1399-4-2-04">.cls-1{fill:#e3e3e3;}</style>
    <style
       id="style1399-8-5-2">.cls-1{fill:#e3e3e3;}</style>
    <style
       id="style1399-4-5-8-9">.cls-1{fill:#e3e3e3;}</style>
    <style
       id="style1399-9-6-61">.cls-1{fill:#e3e3e3;}</style>
    <style
       id="style1399-4-6-2-0">.cls-1{fill:#e3e3e3;}</style>
    <style
       id="style1399-8-4-8-4">.cls-1{fill:#e3e3e3;}</style>
    <style
       id="style1399-4-5-3-4-2">.cls-1{fill:#e3e3e3;}</style>
    <style
       id="style1399-88-7-2">.cls-1{fill:#e3e3e3;}</style>
    <style
       id="style1399-3-2-2">.cls-1{fill:#e3e3e3;}</style>
    <style
       id="style1399-94-4-0">.cls-1{fill:#e3e3e3;}</style>
    <style
       id="style1399-5-0-5">.cls-1{fill:#e3e3e3;}</style>
    <style
       id="style1399-80">.cls-1{fill:#e3e3e3;}</style>
    <style
       id="style1399-4-4">.cls-1{fill:#e3e3e3;}</style>
    <style
       id="style1399-8-0">.cls-1{fill:#e3e3e3;}</style>
    <style
       id="style1399-4-5-9">.cls-1{fill:#e3e3e3;}</style>
    <style
       id="style1399-9-1">.cls-1{fill:#e3e3e3;}</style>
    <style
       id="style1399-4-6-9">.cls-1{fill:#e3e3e3;}</style>
    <style
       id="style1399-8-4-6">.cls-1{fill:#e3e3e3;}</style>
    <style
       id="style1399-4-5-3-2">.cls-1{fill:#e3e3e3;}</style>
    <style
       id="style1399-88-5">.cls-1{fill:#e3e3e3;}</style>
    <style
       id="style1399-3-4">.cls-1{fill:#e3e3e3;}</style>
    <style
       id="style1399-94-49">.cls-1{fill:#e3e3e3;}</style>
    <style
       id="style1399-5-9">.cls-1{fill:#e3e3e3;}</style>
    <style
       id="style1399-46-3">.cls-1{fill:#e3e3e3;}</style>
    <style
       id="style1399-4-2-6">.cls-1{fill:#e3e3e3;}</style>
    <style
       id="style1399-8-5-05">.cls-1{fill:#e3e3e3;}</style>
    <style
       id="style1399-4-5-8-0">.cls-1{fill:#e3e3e3;}</style>
    <style
       id="style1399-9-6-2">.cls-1{fill:#e3e3e3;}</style>
    <style
       id="style1399-4-6-2-9">.cls-1{fill:#e3e3e3;}</style>
    <style
       id="style1399-8-4-8-43">.cls-1{fill:#e3e3e3;}</style>
    <style
       id="style1399-4-5-3-4-5">.cls-1{fill:#e3e3e3;}</style>
    <style
       id="style1399-88-7-1">.cls-1{fill:#e3e3e3;}</style>
    <style
       id="style1399-3-2-7">.cls-1{fill:#e3e3e3;}</style>
    <style
       id="style1399-94-4-4">.cls-1{fill:#e3e3e3;}</style>
    <style
       id="style1399-5-0-3">.cls-1{fill:#e3e3e3;}</style>
    <style
       id="style1399-6">.cls-1{fill:#e3e3e3;}</style>
    <style
       id="style1399-888">.cls-1{fill:#e3e3e3;}</style>
    <style
       id="style1399-4-68">.cls-1{fill:#e3e3e3;}</style>
    <style
       id="style1399-5-3">.cls-1{fill:#e3e3e3;}</style>
    <style
       id="style1399-7">.cls-1{fill:#e3e3e3;}</style>
    <style
       id="style1399-76">.cls-1{fill:#e3e3e3;}</style>
    <style
       id="style1399-4-8">.cls-1{fill:#e3e3e3;}</style>
    <style
       id="style1399-5-90">.cls-1{fill:#e3e3e3;}</style>
    <style
       id="style1399-7-6">.cls-1{fill:#e3e3e3;}</style>
    <style
       id="style1399-73">.cls-1{fill:#e3e3e3;}</style>
    <style
       id="style1399-4-26">.cls-1{fill:#e3e3e3;}</style>
    <style
       id="style1399-5-5">.cls-1{fill:#e3e3e3;}</style>
    <style
       id="style1399-7-2">.cls-1{fill:#e3e3e3;}</style>
    <style
       id="style1399-41">.cls-1{fill:#e3e3e3;}</style>
    <style
       id="style1399-2">.cls-1{fill:#e3e3e3;}</style>
    <style
       id="style1399-4-47">.cls-1{fill:#e3e3e3;}</style>
    <style
       id="style1399-8-93">.cls-1{fill:#e3e3e3;}</style>
    <style
       id="style1399-4-5-92">.cls-1{fill:#e3e3e3;}</style>
    <style
       id="style1399-9-8">.cls-1{fill:#e3e3e3;}</style>
    <style
       id="style1399-4-6-30">.cls-1{fill:#e3e3e3;}</style>
    <style
       id="style1399-8-4-1">.cls-1{fill:#e3e3e3;}</style>
    <style
       id="style1399-4-5-3-7">.cls-1{fill:#e3e3e3;}</style>
    <style
       id="style1399-88-89">.cls-1{fill:#e3e3e3;}</style>
  </defs>
  <sodipodi:namedview
     id="base"
     pagecolor="#ffffff"
     bordercolor="#666666"
     borderopacity="1.0"
     inkscape:pageopacity="0.0"
     inkscape:pageshadow="2"
     inkscape:zoom="11.313709"
     inkscape:cx="-0.83846105"
     inkscape:cy="22.548419"
     inkscape:document-units="mm"
     inkscape:current-layer="svg8"
     showgrid="false"
     units="px"
     inkscape:window-width="1920"
     inkscape:window-height="1043"
     inkscape:window-x="0"
     inkscape:window-y="120"
     inkscape:window-maximized="1">
    <sodipodi:guide
       position="8.4666666,0"
       orientation="-32,0"
       id="guide854"
       inkscape:locked="false" />
    <sodipodi:guide
       position="8.5622298,8.4657622"
       orientation="0,-32"
       id="guide856"
       inkscape:locked="false" />
    <sodipodi:guide
       position="0,8.4666814"
       orientation="32,0"
       id="guide858"
       inkscape:locked="false" />
  </sodipodi:namedview>
  <metadata
     id="metadata5">
    <rdf:RDF>
      <cc:Work
         rdf:about="">
        <dc:format>image/svg+xml</dc:format>
        <dc:type
           rdf:resource="http://purl.org/dc/dcmitype/StillImage" />
        <dc:title></dc:title>
      </cc:Work>
    </rdf:RDF>
  </metadata>
  <path
     style="fill:#e3e3e3;fill-opacity:1;stroke-width:0.04209834"
     d="M 12.558594 0.005859375 C 10.697847 0.005859375 9.1914063 1.5142531 9.1914062 3.375 C 9.1914062 5.2357469 10.697847 6.7421875 12.558594 6.7421875 C 13.989937 6.7421875 15.215088 5.8508417 15.699219 4.5878906 C 15.918129 4.7183939 16.112117 4.9159432 16.263672 5.2148438 C 16.608875 5.8968361 16.701697 6.9141658 16.802734 7.9960938 C 16.966921 9.772644 17.15742 11.785482 18.630859 12.972656 C 19.363371 13.562033 20.305318 13.861762 21.488281 13.882812 C 21.942944 15.213119 23.201732 16.171875 24.683594 16.171875 C 26.54434 16.171875 28.050781 14.665434 28.050781 12.804688 C 28.050781 10.943941 26.54434 9.4375 24.683594 9.4375 C 23.151214 9.4375 21.859525 10.459756 21.451172 11.857422 C 20.773388 11.832161 20.250109 11.680799 19.896484 11.394531 C 19.088195 10.746217 18.953378 9.3179713 18.814453 7.8066406 C 18.704997 6.619468 18.587646 5.3909163 18.103516 4.3847656 L 24.166016 4.3847656 C 24.595419 5.7529614 25.871786 6.7421875 27.378906 6.7421875 C 29.239653 6.7421875 30.746094 5.2357469 30.746094 3.375 C 30.746094 1.5142531 29.239653 0.005859375 27.378906 0.005859375 C 25.871786 0.005859375 24.595419 0.99703746 24.166016 2.3652344 L 15.775391 2.3652344 C 15.341777 0.99703746 14.065714 0.005859375 12.558594 0.005859375 z M 12.558594 2.7011719 C 12.929059 2.7011719 13.232422 3.0045337 13.232422 3.375 C 13.232422 3.7454655 12.92906 4.0488281 12.558594 4.0488281 C 12.188128 4.0488281 11.886719 3.7454675 11.886719 3.375 C 11.886719 3.0045345 12.188128 2.7011719 12.558594 2.7011719 z M 27.378906 2.7011719 C 27.749372 2.7011719 28.050781 3.0045337 28.050781 3.375 C 28.050781 3.7454655 27.749373 4.0488281 27.378906 4.0488281 C 27.008441 4.0488281 26.705078 3.7454675 26.705078 3.375 C 26.705078 3.0045345 27.00844 2.7011719 27.378906 2.7011719 z M 3.4003906 7.4511719 A 3.3729417 3.3729417 0 0 0 0.02734375 10.824219 A 3.3729417 3.3729417 0 0 0 3.4003906 14.197266 A 3.3729417 3.3729417 0 0 0 6.7734375 10.824219 A 3.3729417 3.3729417 0 0 0 3.4003906 7.4511719 z M 3.4003906 10.044922 A 0.7791917 0.7791917 0 0 1 4.1796875 10.824219 A 0.7791917 0.7791917 0 0 1 3.4003906 11.603516 A 0.7791917 0.7791917 0 0 1 2.6210938 10.824219 A 0.7791917 0.7791917 0 0 1 3.4003906 10.044922 z M 24.683594 12.130859 C 25.054059 12.130859 25.357422 12.43422 25.357422 12.804688 C 25.357422 13.175153 25.054061 13.478516 24.683594 13.478516 C 24.313128 13.478516 24.009766 13.175154 24.009766 12.804688 C 24.009766 12.434222 24.313127 12.130859 24.683594 12.130859 z M 20.341797 17.300781 A 3.3729417 3.3729417 0 0 0 17.179688 19.505859 C 15.853888 19.62861 14.888889 19.935775 14.150391 20.425781 C 13.170146 21.076189 12.736243 22.002492 12.445312 22.669922 C 12.154385 23.337351 11.982045 23.736613 11.603516 24.027344 C 11.321259 24.244131 10.83727 24.461861 9.9257812 24.558594 A 3.3729417 3.3729417 0 0 0 6.7539062 22.318359 A 3.3729417 3.3729417 0 0 0 3.3808594 25.691406 A 3.3729417 3.3729417 0 0 0 6.7539062 29.064453 A 3.3729417 3.3729417 0 0 0 9.9726562 26.689453 C 11.263527 26.572456 12.211306 26.251003 12.904297 25.71875 C 13.788063 25.039971 14.129799 24.144782 14.402344 23.519531 C 14.674889 22.894281 14.851106 22.524179 15.332031 22.205078 C 15.659672 21.987683 16.222954 21.783088 17.119141 21.669922 A 3.3729417 3.3729417 0 0 0 20.341797 24.046875 A 3.3729417 3.3729417 0 0 0 23.714844 20.673828 A 3.3729417 3.3729417 0 0 0 20.341797 17.300781 z M 20.341797 19.894531 A 0.77919168 0.77919168 0 0 1 21.121094 20.673828 A 0.77919168 0.77919168 0 0 1 20.341797 21.453125 A 0.77919168 0.77919168 0 0 1 19.5625 20.673828 A 0.77919168 0.77919168 0 0 1 20.341797 19.894531 z M 6.7539062 24.912109 A 0.77919167 0.77919167 0 0 1 7.5332031 25.691406 A 0.77919167 0.77919167 0 0 1 6.7539062 26.470703 A 0.77919167 0.77919167 0 0 1 5.9746094 25.691406 A 0.77919167 0.77919167 0 0 1 6.7539062 24.912109 z M 28.617188 25.257812 A 3.3729417 3.3729417 0 0 0 25.244141 28.630859 A 3.3729417 3.3729417 0 0 0 28.617188 32.003906 A 3.3729417 3.3729417 0 0 0 31.990234 28.630859 A 3.3729417 3.3729417 0 0 0 28.617188 25.257812 z M 28.617188 27.851562 A 0.77919169 0.77919169 0 0 1 29.396484 28.630859 A 0.77919169 0.77919169 0 0 1 28.617188 29.410156 A 0.77919169 0.77919169 0 0 1 27.837891 28.630859 A 0.77919169 0.77919169 0 0 1 28.617188 27.851562 z "
     transform="scale(0.26458333)"
     id="path6795" />
</svg>
