<svg id="Calque_1" data-name="Calque 1" xmlns="http://www.w3.org/2000/svg" viewBox="0 0 32 32"><defs><style>.cls-1{fill:#e3e3e3;}.cls-2{fill:none;stroke:#e3e3e3;stroke-miterlimit:10;stroke-width:2px;}</style></defs><title>curvedwheel_l</title><path class="cls-1" d="M12.54,11.64l.17-.18L11.6,10.35l-.19.19a6.59,6.59,0,1,0,1.13,1.1Zm-5.91,2.1L4.47,11.58a5.2,5.2,0,0,1,2.16-.82Zm-3.45,5a4.94,4.94,0,0,1-.91-2.33H5.51Zm3.45-1.22v3.3a5,5,0,0,1-2.35-1Zm1.58,0,2.26,2.26a5.12,5.12,0,0,1-2.26,1Zm1.11-1.11h3.06a5.07,5.07,0,0,1-.83,2.22Zm3-1.58h-3l2.09-2.09A5.19,5.19,0,0,1,12.33,14.86ZM8.21,13.74v-3a5.1,5.1,0,0,1,2.07.88ZM3.32,12.66l2.19,2.2H2.32A5,5,0,0,1,3.32,12.66Z"/><path class="cls-2" d="M2,23c10,0,12,4,17,0,4.68-3.75,3-7,11-9"/></svg>