<svg id="Calque_1" data-name="Calque 1" xmlns="http://www.w3.org/2000/svg" viewBox="0 0 32 32"><defs><style>.cls-1{fill:#e3e3e3;}</style></defs><title>discord_l</title><path class="cls-1" d="M26.53,28.85c-3.25-2.88-2.21-1.93-6-5.44l.68,2.39H6.56a2.66,2.66,0,0,1-2.65-2.66V5.66A2.66,2.66,0,0,1,6.56,3H23.88a2.66,2.66,0,0,1,2.65,2.66ZM21,10.38A6.37,6.37,0,0,0,17.36,9l-.19.21a8.57,8.57,0,0,1,3.22,1.64,11,11,0,0,0-9.65-.38c-.48.22-.77.38-.77.38a8.79,8.79,0,0,1,3.4-1.69L13.25,9a6.38,6.38,0,0,0-3.64,1.36,17.29,17.29,0,0,0-1.86,7.53,4.69,4.69,0,0,0,3.94,2s.48-.58.87-1.07a4.06,4.06,0,0,1-2.26-1.53,6,6,0,0,0,.53.32,9.38,9.38,0,0,0,8.06.46,7.33,7.33,0,0,0,1.49-.77A4.1,4.1,0,0,1,18,18.83l.85,1.05a4.73,4.73,0,0,0,4-2A17.29,17.29,0,0,0,21,10.38Zm-6.79,4.9a1.32,1.32,0,1,1-2.64,0,1.33,1.33,0,1,1,2.64,0Zm3.4,1.43a1.44,1.44,0,1,1,1.32-1.43A1.38,1.38,0,0,1,17.6,16.71Z"/></svg>