<svg id="Calque_1" data-name="Calque 1" xmlns="http://www.w3.org/2000/svg" viewBox="0 0 32 32"><defs><style>.cls-1{fill:#e3e3e3;}</style></defs><title>distancelink_l</title><path class="cls-1" d="M25.6,22a3.34,3.34,0,1,1-2.36,1,3.32,3.32,0,0,1,2.36-1m0-2a5.34,5.34,0,1,0,3.77,1.56A5.35,5.35,0,0,0,25.6,20Z"/><path class="cls-1" d="M15.19,24.67a.2.2,0,0,1,.13.14.28.28,0,0,1,0,.18,5.61,5.61,0,0,1-1.27,2.17.26.26,0,0,1-.16.09.23.23,0,0,1-.18,0l-1-.58a4.32,4.32,0,0,1-1.41.81v1.13a.3.3,0,0,1-.06.18.25.25,0,0,1-.15.1,5.73,5.73,0,0,1-2.54,0,.25.25,0,0,1-.15-.1.3.3,0,0,1-.06-.18V27.46A4.32,4.32,0,0,1,7,26.65l-1,.58a.25.25,0,0,1-.19,0,.29.29,0,0,1-.16-.09A5.73,5.73,0,0,1,4.38,25a.37.37,0,0,1,0-.18.26.26,0,0,1,.13-.14l1-.58a4.89,4.89,0,0,1,0-1.62l-1-.58a.27.27,0,0,1-.13-.13.41.41,0,0,1,0-.19A5.73,5.73,0,0,1,5.65,19.4a.29.29,0,0,1,.16-.09.25.25,0,0,1,.19,0l1,.58a4.32,4.32,0,0,1,1.41-.81V18a.32.32,0,0,1,.06-.18.31.31,0,0,1,.15-.1,6,6,0,0,1,2.54,0,.31.31,0,0,1,.15.1.32.32,0,0,1,.06.18V19.1a4.32,4.32,0,0,1,1.41.81l1-.58a.23.23,0,0,1,.18,0,.26.26,0,0,1,.16.09,5.61,5.61,0,0,1,1.27,2.17.31.31,0,0,1,0,.19.21.21,0,0,1-.13.13l-1,.58a4.41,4.41,0,0,1,0,1.62Zm-4-2.69a1.74,1.74,0,0,0-1.3-.55A1.86,1.86,0,0,0,8,23.28a1.84,1.84,0,0,0,1.85,1.85,1.77,1.77,0,0,0,1.3-.54,1.81,1.81,0,0,0,.55-1.31A1.78,1.78,0,0,0,11.16,22Z"/><rect class="cls-1" x="2" y="1.11" width="10.52" height="10.52" rx="3.33"/><path class="cls-1" d="M25.6,22a3.34,3.34,0,1,1-2.36,1,3.32,3.32,0,0,1,2.36-1m0-2a5.34,5.34,0,1,0,3.77,1.56A5.35,5.35,0,0,0,25.6,20Z"/><path class="cls-1" d="M22.85,14.68a.89.89,0,0,0-.59-.24h-.71a.89.89,0,0,0-.59.24.81.81,0,0,0-.24.6V18l-2.85-2.85a.63.63,0,0,0-.13-.2l-3.28-3.28h2.73a.86.86,0,0,0,.6-.25.84.84,0,0,0,.25-.6v-.69a.82.82,0,0,0-.84-.84H13.39a4.31,4.31,0,0,1-3.11,3.18v2l.15,0h1.66a1.22,1.22,0,0,1,.57.16v-1.1l2,2a1.33,1.33,0,0,1,.68.29l.15.14a9.12,9.12,0,0,1,1.24,1.31,1.2,1.2,0,0,1,.22.62l2,2H17.87a1.26,1.26,0,0,1,.13.54V22a1.13,1.13,0,0,1,0,.18h2.14a5.84,5.84,0,0,1,1-1.33,6.33,6.33,0,0,1,2-1.35V15.28A.9.9,0,0,0,22.85,14.68Z"/><rect class="cls-1" x="2" y="1.11" width="10.52" height="10.52" rx="3.33"/></svg>