<?xml version="1.0" encoding="UTF-8" standalone="no"?>
<svg
   xmlns:dc="http://purl.org/dc/elements/1.1/"
   xmlns:cc="http://creativecommons.org/ns#"
   xmlns:rdf="http://www.w3.org/1999/02/22-rdf-syntax-ns#"
   xmlns:svg="http://www.w3.org/2000/svg"
   xmlns="http://www.w3.org/2000/svg"
   xmlns:sodipodi="http://sodipodi.sourceforge.net/DTD/sodipodi-0.dtd"
   xmlns:inkscape="http://www.inkscape.org/namespaces/inkscape"
   id="Calque_1"
   data-name="Calque 1"
   viewBox="0 0 32 32"
   version="1.1"
   sodipodi:docname="dutranslator_l.svg"
   inkscape:version="0.92.4 (5da689c313, 2019-01-14)"
   inkscape:export-filename="D:\RAINBOX\ADMIN\COM\04- Site\Rainboxlab.org\Elements\IMG_Icons\SVG\dutranslator_l.png"
   inkscape:export-xdpi="675"
   inkscape:export-ydpi="675">
  <metadata
     id="metadata19">
    <rdf:RDF>
      <cc:Work
         rdf:about="">
        <dc:format>image/svg+xml</dc:format>
        <dc:type
           rdf:resource="http://purl.org/dc/dcmitype/StillImage" />
        <dc:title>jsshape_l</dc:title>
      </cc:Work>
    </rdf:RDF>
  </metadata>
  <sodipodi:namedview
     pagecolor="#ffffff"
     bordercolor="#666666"
     borderopacity="1"
     objecttolerance="10"
     gridtolerance="10"
     guidetolerance="10"
     inkscape:pageopacity="0"
     inkscape:pageshadow="2"
     inkscape:window-width="1858"
     inkscape:window-height="1057"
     id="namedview17"
     showgrid="false"
     inkscape:zoom="20.85965"
     inkscape:cx="10.513191"
     inkscape:cy="17.438693"
     inkscape:window-x="54"
     inkscape:window-y="-8"
     inkscape:window-maximized="1"
     inkscape:current-layer="Calque_1" />
  <defs
     id="defs4">
    <style
       id="style2">.cls-1{fill:#e3e3e3;}.cls-2{fill:none;stroke:#e3e3e3;stroke-miterlimit:10;stroke-width:2px;}</style>
    <pattern
       y="0"
       x="0"
       height="6"
       width="6"
       patternUnits="userSpaceOnUse"
       id="EMFhbasepattern" />
    <mask
       maskUnits="userSpaceOnUse"
       id="mask4603">
      <g
         id="g4609"
         inkscape:label="truc chinois masque"
         transform="matrix(0.75151516,0,0,0.75151516,3.2398348,13.74289)"
         style="opacity:1">
        <rect
           y="-1.4137918"
           x="5.321279"
           height="13.806561"
           width="15.820017"
           id="rect4605"
           style="opacity:1;fill:#ffffff;fill-opacity:1;fill-rule:evenodd;stroke:none;stroke-width:2.24926066;stroke-linecap:square;stroke-linejoin:round;stroke-miterlimit:4;stroke-dasharray:none;stroke-opacity:1;paint-order:normal" />
        <path
           sodipodi:nodetypes="ccccscscsccscscccsccccccscccccccccccccscssccc"
           inkscape:connector-curvature="0"
           style="fill:#000000;fill-opacity:1;fill-rule:nonzero;stroke:none;stroke-width:0.624856"
           d="m 13.902376,3.5007943 v -0.449893 c -0.04999,-0.09998 -0.04999,-0.199952 -0.149965,-0.24994 -0.04999,-0.09998 -0.149964,-0.149965 -0.199952,-0.09998 h -0.499881 c -0.09998,0 -0.199952,0 -0.249941,0.09998 -0.04999,0.04999 -0.09998,0.149964 -0.09998,0.249941 v 0.449893 h -1.84956 c -0.09998,0 -0.199952,0.04999 -0.24994,0.09998 -0.09998,0.04999 -0.149965,0.149964 -0.09998,0.249941 v 0.449893 c 0,0.09998 0,0.199952 0.09998,0.24994 0.04999,0.09998 0.149964,0.09998 0.24994,0.09998 h 3.299215 c -0.199948,0.499882 -0.499877,0.899787 -0.849793,1.249704 -0.199953,-0.149965 -0.349917,-0.399905 -0.499882,-0.599858 -0.04999,-0.09998 -0.149964,-0.149964 -0.24994,-0.149964 -0.04999,0 -0.149965,0 -0.249941,0.04999 l -0.399905,0.249941 c -0.09998,0.04999 -0.149964,0.09998 -0.149964,0.24994 -0.04999,0.04999 0,0.149964 0.04999,0.249941 l 0.599857,0.7498213 c -0.199952,0.199953 -0.449893,0.349917 -0.749822,0.54987 -0.04999,0 -0.149964,0.09998 -0.149964,0.199952 0,0.04999 0,0.149964 0.04999,0.24994 l 0.199952,0.399905 c 0.04999,0.09998 0.149965,0.149965 0.249941,0.149965 0.04999,0.04999 0.199953,0.04999 0.24994,0 0.349917,-0.249941 0.699834,-0.449894 1.049751,-0.699834 0.299928,0.24994 0.649845,0.499881 0.999762,0.699834 0.09998,0.04999 0.199952,0.09998 0.299928,0.04999 0.09998,0 0.149965,-0.09998 0.199953,-0.149964 l 0.249941,-0.399905 c 0.04999,-0.09998 0.04999,-0.199952 0,-0.299929 0,-0.04999 -0.04999,-0.149964 -0.09998,-0.199952 -0.299927,-0.149967 -0.549868,-0.299931 -0.799809,-0.499883 0.54987,-0.5998573 0.999763,-1.2996913 1.249703,-2.0495133 h 0.349917 c 0.09998,0 0.149965,-0.04999 0.249941,-0.09998 0.04999,-0.09998 0.09998,-0.199952 0.09998,-0.24994 v -0.499881 c 0,-0.09998 -0.04999,-0.149965 -0.09998,-0.249941 -0.09998,-0.04999 -0.149966,-0.09998 -0.249942,-0.09998 z"
           id="path4607" />
      </g>
    </mask>
    <mask
       maskUnits="userSpaceOnUse"
       id="mask4643">
      <g
         style="opacity:1"
         transform="matrix(0.75151516,0,0,0.75151516,3.2398348,13.74289)"
         inkscape:label="A masque"
         id="g4649">
        <rect
           style="opacity:1;fill:#ffffff;fill-opacity:1;fill-rule:evenodd;stroke:none;stroke-width:2.24926066;stroke-linecap:square;stroke-linejoin:round;stroke-miterlimit:4;stroke-dasharray:none;stroke-opacity:1;paint-order:normal"
           id="rect4645"
           width="15.820017"
           height="13.806561"
           x="5.321279"
           y="-1.4137918" />
        <path
           id="path4647"
           d="m 9.0351118,9.5369004 c 3.4680262,-2.218598 1.7340132,-1.109299 0,0 z m 5.6986452,-1.199716 h 0.699834 c 0.09998,0 0.199952,-0.04999 0.24994,-0.149964 0.09998,-0.09998 0.09998,-0.199952 0.04999,-0.299929 l -1.649609,-4.948822 c -0.04999,-0.149964 -0.199953,-0.249941 -0.349918,-0.249941 h -0.949775 c -0.149964,0 -0.299929,0.09998 -0.349917,0.249941 l -1.649606,4.948822 c -0.04999,0.09998 -0.04999,0.199953 0,0.299929 0.09998,0.09998 0.199952,0.149964 0.299928,0.149964 h 0.699833 c 0.04999,0 0.149964,0 0.24994,-0.04999 0.04999,-0.04999 0.09998,-0.149965 0.09998,-0.199953 l 0.24994,-0.949774 h 1.749586 l 0.24994,0.949774 c 0.04999,0.149964 0.199953,0.249941 0.349917,0.249941 z m -1.249705,-3.399191 0.349919,1.099739 h -1.149729 l 0.349917,-1.099739 c 0.04999,-0.24994 0.09998,-0.549869 0.199953,-0.949774 0.09998,0.299929 0.199952,0.649846 0.24994,0.949774 z"
           style="fill:#000000;fill-opacity:1;fill-rule:nonzero;stroke:none;stroke-width:0.624856"
           inkscape:connector-curvature="0"
           sodipodi:nodetypes="cccscccsscccssccccccccccccc" />
      </g>
    </mask>
  </defs>
  <title
     id="title6">jsshape_l</title>
  <path
     class="cls-1"
     d="M1.52,15.07c1.78,0,2-1,2-1.81a17.82,17.82,0,0,0-.15-2,15,15,0,0,1-.18-2.06c0-2.38,1.53-3.4,3.79-3.4h.73V7.6H7.24c-1.32,0-1.78.74-1.78,2a8.34,8.34,0,0,0,.18,1.6c.05.56.15,1.17.15,1.83,0,1.78-.74,2.54-2,2.85v.05c1.29.3,2.05,1.09,2,2.87,0,.68-.1,1.29-.15,1.85a8.34,8.34,0,0,0-.18,1.6c0,1.27.51,2,1.78,2h.45V26H7c-2.21,0-3.79-.91-3.79-3.48a14.69,14.69,0,0,1,.18-2,17.47,17.47,0,0,0,.15-2c0-.73-.2-1.77-2-1.8Z"
     id="path8"
     style="fill:#710132;fill-opacity:1" />
  <path
     class="cls-1"
     d="M25.57,16.72c-1.75,0-2,1.07-2,1.8a17.64,17.64,0,0,0,.18,2c.07.69.18,1.4.18,2C24,25.13,22.37,26,20.16,26h-.74v-1.8h.46c1.27,0,1.75-.74,1.75-2a11.49,11.49,0,0,0-.15-1.6,14.43,14.43,0,0,1-.15-1.85c0-1.78.74-2.57,2-2.87v-.05c-1.27-.31-2-1.07-2-2.85a14.41,14.41,0,0,1,.15-1.83,11.49,11.49,0,0,0,.15-1.6c0-1.24-.45-2-1.75-2h-.46V5.77h.74c2.26,0,3.79,1,3.79,3.4,0,.66-.11,1.35-.18,2.06a18,18,0,0,0-.18,2c0,.82.23,1.78,2,1.81Z"
     id="path10"
     style="fill:#710132;fill-opacity:1" />
  <path
     class="cls-1"
     d="M26.54,26.27a37.16,37.16,0,0,0,1.7-6.7l3.28-.26a34.1,34.1,0,0,1-2.85,6.76Zm1.27-13.34a1.92,1.92,0,1,1,3.83,0,1.87,1.87,0,0,1-1.93,2A1.85,1.85,0,0,1,27.81,12.93Z"
     id="path12"
     style="fill:#710132;fill-opacity:1" />
  <rect
     style="opacity:1;fill:#710032;fill-opacity:1;fill-rule:evenodd;stroke:none;stroke-width:1.00157475;stroke-linecap:square;stroke-linejoin:round;stroke-miterlimit:4;stroke-dasharray:none;stroke-opacity:1;paint-order:normal"
     id="rect4581"
     width="7.5744319"
     height="7.4306135"
     x="9.3481913"
     y="14.262406"
     ry="0.52733386"
     mask="url(#mask4603)"
     transform="matrix(1.1202532,0,0,1.1202532,-1.2234354,-9.0725146)" />
  <rect
     style="opacity:1;fill:#710032;fill-opacity:1;fill-rule:evenodd;stroke:none;stroke-width:1.00157475;stroke-linecap:square;stroke-linejoin:round;stroke-miterlimit:4;stroke-dasharray:none;stroke-opacity:1;paint-order:normal"
     id="rect4581-9"
     width="7.5744319"
     height="7.4306135"
     x="9.3481913"
     y="14.262406"
     ry="0.52733386"
     mask="url(#mask4643)"
     transform="matrix(1.1202532,0,0,1.1202532,-1.285416,0.50306887)" />
</svg>
