<svg id="Calque_1" data-name="Calque 1" xmlns="http://www.w3.org/2000/svg" viewBox="0 0 32 32"><defs><style>.cls-1{fill:#e3e3e3;}</style></defs><title>editkey_l</title><path class="cls-1" d="M13.85,20.38l2.52-2.52h-.92a2,2,0,0,1-2-2V13H4v1.23l6.15,6.15v1.24L4,27.77V29H20V27.77l-6.15-6.15Z"/><path class="cls-1" d="M26.46,8.52l-7.34,7.34H15.45V12.19l7.34-7.34Zm-7,5.41-2.07-2.07-.8.8v.94h1.13v1.13h.94Zm3.62-7.58a.19.19,0,0,0-.15.07L18.14,11.2a.17.17,0,0,0-.06.15.18.18,0,0,0,.19.19.22.22,0,0,0,.15-.06L23.2,6.7a.19.19,0,0,0,.06-.15A.19.19,0,0,0,23.07,6.35Zm5.41.15L27,8,23.35,4.29l1.46-1.45a1.11,1.11,0,0,1,1.6,0L28.48,4.9a1.13,1.13,0,0,1,0,1.6Z"/></svg>