<svg id="Calque_1" data-name="Calque 1" xmlns="http://www.w3.org/2000/svg" viewBox="0 0 32 32"><defs><style>.cls-1{fill:#e3e3e3;}</style></defs><title>edithand_l</title><path class="cls-1" d="M23.5,18.5l.12-8.61a1.61,1.61,0,1,0-3.22,0V13.8h-.46V6.21a1.61,1.61,0,0,0-3.22,0V13.8h-.46V4.37a1.61,1.61,0,0,0-3.22,0V13.8h-.46V6.21a1.61,1.61,0,1,0-3.22,0V17.48l-2.21-3a1.84,1.84,0,0,0-2.94,2.22l5.52,7.36a1.84,1.84,0,0,0,1.47.73l3.3-.34,1,2-4.3.18a3.74,3.74,0,0,1-2.95-1.47L2.73,17.85A3.73,3.73,0,0,1,2,15.64,3.68,3.68,0,0,1,5.68,12a3.39,3.39,0,0,1,1.84.49V6.21A3.46,3.46,0,0,1,11,2.76a3.05,3.05,0,0,1,.6.06,3.44,3.44,0,0,1,6.15,0,3.23,3.23,0,0,1,.61-.06,3.46,3.46,0,0,1,3.45,3.45v.25a3.44,3.44,0,0,1,3.68,3.43l0,8.61Z"/><circle class="cls-1" cx="20.17" cy="26.89" r="0.41"/><path class="cls-1" d="M23.15,15.5a8,8,0,1,0,8,8A8,8,0,0,0,23.15,15.5ZM20.33,28.56a.78.78,0,0,1-.57.24.87.87,0,0,1-.59-.24l-.67-.69a.79.79,0,0,1-.25-.57.83.83,0,0,1,.25-.59l4.36-4.36a3.28,3.28,0,0,0,1.85,1.84Zm8.29-6.48a2.87,2.87,0,1,1-2.71-3.81,2.81,2.81,0,0,1,1.47.41.21.21,0,0,1,.1.17.2.2,0,0,1-.1.18L25.5,20.12v1.43l1.24.69c.21-.12,1.7-1.06,1.82-1.06a.21.21,0,0,1,.21.23A2.24,2.24,0,0,1,28.62,22.08Z"/></svg>