<svg id="Calque_1" data-name="Calque 1" xmlns="http://www.w3.org/2000/svg" viewBox="0 0 32 32"><defs><style>.cls-1{fill:#e3e3e3;}</style></defs><title>editrig_l</title><path class="cls-1" d="M12,26a6.93,6.93,0,0,1,0-5,6.08,6.08,0,0,1,2-3l-3.47-6c-.19-.32-.2-.32-.48-.07a5.89,5.89,0,0,1-6.48.92c-.11-.05-.21-.15-.35-.13s0,.19.1.26Z"/><path class="cls-1" d="M14.33,5.41h2.4a.42.42,0,0,0,.43-.25,1.77,1.77,0,0,1,1.62-1h1.63A.64.64,0,0,0,20.92,4c.58-.66,1.17-1.3,1.75-1.95a1,1,0,0,0,.14-.25,1.17,1.17,0,0,1,1.85-.53c1.08.74,2.15,1.5,3.23,2.25l1.65,1.15a1.15,1.15,0,0,1,.51,1.25,1.13,1.13,0,0,1-.93.89,1.29,1.29,0,0,1-1-.28L24.56,4c-.37-.26-.37-.26-.68.07L22.57,5.55a.79.79,0,0,0-.22.58c0,1,0,2.11,0,3.16a.73.73,0,0,0,.22.54c.54.59,1.08,1.18,1.61,1.78.16.18.27.2.48.05,1.23-.87,2.47-1.74,3.72-2.59a1.17,1.17,0,1,1,1.43,1.84c-.91.67-1.85,1.3-2.77,1.95l-2.18,1.52A1.19,1.19,0,0,1,23,13.86a6.41,6.41,0,0,0-1-1.28c-.35-.42-.73-.8-1.09-1.21a.53.53,0,0,0-.45-.19H18.71a1.62,1.62,0,0,1-1.55-.94.48.48,0,0,0-.5-.29H11.92c-.39,0-.4,0-.27-.38a5.75,5.75,0,0,0,0-3.82c-.11-.32-.09-.35.25-.35Z"/><path class="cls-1" d="M1.48,7.61a4.65,4.65,0,1,1,4.59,4.65A4.65,4.65,0,0,1,1.48,7.61Zm1.61,0a3,3,0,0,0,6.06,0,3,3,0,0,0-3-3A3,3,0,0,0,3.09,7.63Z"/><circle class="cls-1" cx="18.02" cy="27.39" r="0.41"/><path class="cls-1" d="M21,16a8,8,0,1,0,8,8A8,8,0,0,0,21,16ZM18.18,29.06a.78.78,0,0,1-.57.24.87.87,0,0,1-.59-.24l-.67-.69a.79.79,0,0,1-.25-.57.83.83,0,0,1,.25-.59l4.36-4.36a3.28,3.28,0,0,0,1.85,1.84Zm8.29-6.48a2.87,2.87,0,1,1-2.71-3.81,2.81,2.81,0,0,1,1.47.41.21.21,0,0,1,.1.17.2.2,0,0,1-.1.18l-1.88,1.09v1.43l1.24.69c.21-.12,1.7-1.06,1.82-1.06a.21.21,0,0,1,.21.23A2.24,2.24,0,0,1,26.47,22.58Z"/></svg>