<svg id="Calque_1" data-name="Calque 1" xmlns="http://www.w3.org/2000/svg" viewBox="0 0 32 32"><defs><style>.cls-1{fill:#e3e3e3;}.cls-2{fill:#ec1818;}.cls-2,.cls-3{stroke:#e3e3e3;stroke-miterlimit:10;}.cls-3{fill:none;stroke-width:2px;}</style></defs><title>effector_l</title><circle class="cls-1" cx="17.63" cy="15.31" r="4.37"/><path class="cls-2" d="M17.63,4a11.3,11.3,0,1,1-8,3.31,11.27,11.27,0,0,1,8-3.31m0-2A13.31,13.31,0,1,0,27,5.9,13.26,13.26,0,0,0,17.63,2Z"/><path class="cls-3" d="M9.16,11.46a5.3,5.3,0,0,0,6.76-5.3"/><path class="cls-3" d="M11.79,1.15A5.31,5.31,0,0,0,5.26,6.31"/><path class="cls-3" d="M3.44,21.06a5.9,5.9,0,0,0-.62.5,5.34,5.34,0,0,0,7.55,7.56c.08-.07.12-.16.19-.23"/><path class="cls-1" d="M17.63,4a11.3,11.3,0,1,1-8,3.31,11.27,11.27,0,0,1,8-3.31m0-2A13.31,13.31,0,1,0,27,5.9,13.26,13.26,0,0,0,17.63,2Z"/></svg>