<svg id="Calque_1" data-name="Calque 1" xmlns="http://www.w3.org/2000/svg" viewBox="0 0 32 32"><defs><style>.cls-1{fill:#e3e3e3;}</style></defs><title>exportanim_l</title><path class="cls-1" d="M7.25,7.77,14.59.42a1.5,1.5,0,0,1,1-.42,1.45,1.45,0,0,1,1,.42L24,7.77a1.41,1.41,0,0,1,.43,1,1.46,1.46,0,0,1-.43,1l-.83.85a1.49,1.49,0,0,1-1,.41,1.44,1.44,0,0,1-1-.41L17.78,7.34v7.94a1.45,1.45,0,0,1-1.44,1.44H14.9a1.46,1.46,0,0,1-1.45-1.44V7.34l-3.31,3.32a1.44,1.44,0,0,1-1,.41,1.48,1.48,0,0,1-1-.41l-.85-.85a1.5,1.5,0,0,1-.42-1A1.45,1.45,0,0,1,7.25,7.77Z"/><path class="cls-1" d="M24.56,12.06l0,0,0,0a3.47,3.47,0,0,1-4.74.07v3.11a3.44,3.44,0,0,1-3.44,3.44H14.9a3.45,3.45,0,0,1-3.45-3.44V12.17a3.48,3.48,0,0,1-2.33.9,3.55,3.55,0,0,1-2.44-1l-.43-.43H6v1.54l7.69,7.69v1.54L6,30.1v1.54H26V30.1l-7.69-7.69V20.87L26,13.18V11.64H25Z"/></svg>