<?xml version="1.0" encoding="UTF-8" standalone="no"?>
<!-- Created with Inkscape (http://www.inkscape.org/) -->

<svg
   xmlns:dc="http://purl.org/dc/elements/1.1/"
   xmlns:cc="http://creativecommons.org/ns#"
   xmlns:rdf="http://www.w3.org/1999/02/22-rdf-syntax-ns#"
   xmlns:svg="http://www.w3.org/2000/svg"
   xmlns="http://www.w3.org/2000/svg"
   xmlns:sodipodi="http://sodipodi.sourceforge.net/DTD/sodipodi-0.dtd"
   xmlns:inkscape="http://www.inkscape.org/namespaces/inkscape"
   width="32"
   height="32"
   viewBox="0 0 8.4666666 8.4666666"
   version="1.1"
   id="svg8"
   inkscape:version="0.92.5 (2060ec1f9f, 2020-04-08)"
   sodipodi:docname="export_bl.svg">
  <defs
     id="defs2" />
  <sodipodi:namedview
     id="base"
     pagecolor="#ffffff"
     bordercolor="#666666"
     borderopacity="1.0"
     inkscape:pageopacity="0.0"
     inkscape:pageshadow="2"
     inkscape:zoom="8"
     inkscape:cx="-25.354184"
     inkscape:cy="20.961243"
     inkscape:document-units="mm"
     inkscape:current-layer="layer1"
     showgrid="false"
     units="px"
     inkscape:window-width="1848"
     inkscape:window-height="1136"
     inkscape:window-x="1920"
     inkscape:window-y="27"
     inkscape:window-maximized="1">
    <sodipodi:guide
       position="8.4666666,0"
       orientation="-32,0"
       id="guide854"
       inkscape:locked="false" />
    <sodipodi:guide
       position="8.4666666,8.4666666"
       orientation="0,-32"
       id="guide856"
       inkscape:locked="false" />
    <sodipodi:guide
       position="0,8.4666814"
       orientation="32,0"
       id="guide858"
       inkscape:locked="false" />
  </sodipodi:namedview>
  <metadata
     id="metadata5">
    <rdf:RDF>
      <cc:Work
         rdf:about="">
        <dc:format>image/svg+xml</dc:format>
        <dc:type
           rdf:resource="http://purl.org/dc/dcmitype/StillImage" />
        <dc:title />
      </cc:Work>
    </rdf:RDF>
  </metadata>
  <g
     inkscape:label="Layer 1"
     inkscape:groupmode="layer"
     id="layer1"
     transform="translate(0,-288.53334)">
    <path
       id="path960"
       d="m 8.3436218,293.07274 -2.8243377,2.82433 c -0.2521732,0.25218 -0.6892728,0.0757 -0.6892728,-0.28579 v -1.61391 H 2.5436428 c -0.223593,0 -0.4034764,-0.17989 -0.4034764,-0.40347 v -1.61392 c 0,-0.22358 0.1798834,-0.40346 0.4034764,-0.40346 h 2.2863685 v -1.61392 c 0,-0.35976 0.4354185,-0.53796 0.6892728,-0.28579 l 2.8243377,2.82434 c 0.1563469,0.15802 0.1563469,0.41356 0,0.57159 z m -5.1275178,2.74028 v -0.67246 c 0,-0.11096 -0.090782,-0.20174 -0.2017382,-0.20174 H 1.6021973 c -0.2975644,0 -0.537969,-0.24041 -0.537969,-0.53798 v -3.2278 c 0,-0.29757 0.2404046,-0.53797 0.537969,-0.53797 h 1.4121685 c 0.1109561,0 0.2017382,-0.0908 0.2017382,-0.20174 v -0.67247 c 0,-0.11095 -0.090782,-0.20173 -0.2017382,-0.20173 H 1.6021973 c -0.89101166,0 -1.61390723,0.72289 -1.61390723,1.61391 v 3.2278 c 0,0.89102 0.72289557,1.61392 1.61390723,1.61392 h 1.4121685 c 0.1109561,0 0.2017382,-0.0908 0.2017382,-0.20174 z"
       inkscape:connector-curvature="0"
       style="fill:#8ad891;fill-opacity:1;stroke-width:0.01681153" />
  </g>
</svg>
