<svg id="Calque_1" data-name="Calque 1" xmlns="http://www.w3.org/2000/svg" viewBox="0 0 32 32"><defs><style>.cls-1{fill:#e3e3e3;}</style></defs><title>exportfile_l</title><path class="cls-1" d="M13,13.46a1,1,0,0,0,1,1h5.46V27.61a1,1,0,0,1-1,1H5a.93.93,0,0,1-.68-.28A.91.91,0,0,1,4,27.61V9a.9.9,0,0,1,.28-.68A.94.94,0,0,1,5,8h8Zm2.58,4a.45.45,0,0,0-.15-.34.42.42,0,0,0-.34-.14H8.34a.44.44,0,0,0-.34.14.48.48,0,0,0-.14.34v.32a.48.48,0,0,0,.14.34.44.44,0,0,0,.34.14h6.75a.42.42,0,0,0,.34-.14.45.45,0,0,0,.15-.34Zm0,2.89v-.32a.45.45,0,0,0-.15-.34.46.46,0,0,0-.34-.14H8.34a.48.48,0,0,0-.48.48v.32a.46.46,0,0,0,.14.34.45.45,0,0,0,.34.15h6.75a.51.51,0,0,0,.49-.49Zm0,2.58v-.33a.5.5,0,0,0-.49-.48H8.34a.48.48,0,0,0-.34.14.49.49,0,0,0-.14.34V23a.49.49,0,0,0,.14.34.48.48,0,0,0,.34.14h6.75a.5.5,0,0,0,.49-.48Zm3.85-10a.94.94,0,0,0-.28-.69L15.21,8.28A.91.91,0,0,0,14.53,8h-.24v5.15h5.14Z"/><path class="cls-1" d="M17.8,8.79a.57.57,0,0,1-.17-.42.57.57,0,0,1,.17-.43L22.64,3.1a.57.57,0,0,1,.42-.17.57.57,0,0,1,.43.17l4.84,4.84a.57.57,0,0,1,.17.43.57.57,0,0,1-.17.42l-.55.55a.55.55,0,0,1-.42.19.63.63,0,0,1-.43-.19l-2.87-3V13.5a.61.61,0,0,1-.17.43.57.57,0,0,1-.43.17h-.79a.57.57,0,0,1-.43-.17.61.61,0,0,1-.17-.43V6.34l-2.87,3a.63.63,0,0,1-.43.19.55.55,0,0,1-.42-.19Z"/></svg>