<svg id="Calque_1" data-name="Calque 1" xmlns="http://www.w3.org/2000/svg" viewBox="0 0 32 32"><defs><style>.cls-1{fill:#e3e3e3;}</style></defs><title>extractcontrollers_l</title><path class="cls-1" d="M8.78,5v8.63L8.11,13V6.09c0-.82-.77-.91-1.59-.91s-1.11.35-1.11,1.16v6.94L5.05,17,3,14.27a1.68,1.68,0,0,0-3,1,1.66,1.66,0,0,0,.34,1L5.39,23a1.7,1.7,0,0,0,1.34.67h9a1.28,1.28,0,0,0,1.25-1l1-5.33a4.9,4.9,0,0,0,.07-.77V10a1.47,1.47,0,0,0-1.47-1.47c-.82,0-1.05.66-1.05,1.47V13.6h-.85V6.65a1.47,1.47,0,0,0-1.47-1.47c-.81,0-1.1.66-1.1,1.47v7h-.79V5A1.47,1.47,0,0,0,9.89,3.5C9.07,3.5,8.78,4.15,8.78,5Z"/><path class="cls-1" d="M26.75,22.59H19.08L19,23a3.28,3.28,0,0,1-3.21,2.65h-9a3.66,3.66,0,0,1-2.36-.86,1.86,1.86,0,0,0,0,.34V26a2.59,2.59,0,0,0,2.58,2.58H26.75A2.58,2.58,0,0,0,29.33,26v-.84A2.57,2.57,0,0,0,26.75,22.59Z"/><path class="cls-1" d="M8.78,5v8.63L8.11,13V6.09c0-.82-.77-.91-1.59-.91s-1.11.35-1.11,1.16v6.94L5.05,17,3,14.27a1.68,1.68,0,0,0-3,1,1.66,1.66,0,0,0,.34,1L5.39,23a1.7,1.7,0,0,0,1.34.67h9a1.28,1.28,0,0,0,1.25-1l1-5.33a4.9,4.9,0,0,0,.07-.77V10a1.47,1.47,0,0,0-1.47-1.47c-.82,0-1.05.66-1.05,1.47V13.6h-.85V6.65a1.47,1.47,0,0,0-1.47-1.47c-.81,0-1.1.66-1.1,1.47v7h-.79V5A1.47,1.47,0,0,0,9.89,3.5C9.07,3.5,8.78,4.15,8.78,5Z"/><path class="cls-1" d="M20.74,15.32a.54.54,0,0,1-.16-.4.53.53,0,0,1,.16-.39L25.29,10a.54.54,0,0,1,.4-.16.53.53,0,0,1,.39.16l4.55,4.55a.53.53,0,0,1,.16.39.54.54,0,0,1-.16.4l-.52.52a.46.46,0,0,1-.39.17.54.54,0,0,1-.4-.17L26.62,13v6.72a.54.54,0,0,1-.16.4.54.54,0,0,1-.4.17h-.75a.54.54,0,0,1-.4-.17.54.54,0,0,1-.16-.4V13l-2.7,2.81a.54.54,0,0,1-.4.17.46.46,0,0,1-.39-.17Z"/></svg>