<svg id="Calque_1" data-name="Calque 1" xmlns="http://www.w3.org/2000/svg" viewBox="0 0 32 32"><defs><style>.cls-1{fill:#e3e3e3;}</style></defs><title>featurerequest_l</title><path class="cls-1" d="M24.89,3.79H6.2A3.12,3.12,0,0,0,3.09,6.91v14A3.11,3.11,0,0,0,6.2,24h4.67v4.09a.58.58,0,0,0,.93.47L17.88,24h7A3.11,3.11,0,0,0,28,20.92v-14A3.12,3.12,0,0,0,24.89,3.79ZM14.39,6.52H17a.68.68,0,0,1,.68.71l-.39,7.68a.67.67,0,0,1-.67.64H14.77a.67.67,0,0,1-.67-.64l-.39-7.68A.68.68,0,0,1,14.39,6.52ZM15.71,21A2.26,2.26,0,1,1,18,18.71,2.26,2.26,0,0,1,15.71,21Z"/></svg>