<svg id="Calque_1" data-name="Calque 1" xmlns="http://www.w3.org/2000/svg" viewBox="0 0 32 32"><defs><style>.cls-1{fill:#e3e3e3;}</style></defs><title>filmcam_l</title><circle class="cls-1" cx="12.45" cy="11.26" r="4.55"/><circle class="cls-1" cx="23.21" cy="10.26" r="6.61"/><path class="cls-1" d="M6.27,15.08a.67.67,0,0,1,.4-.61.8.8,0,0,1,.26-.05.61.61,0,0,1,.47.2l4.18,4.17V17.08a3,3,0,0,1,3-3h7.3a3,3,0,0,1,3,3v7.3a3,3,0,0,1-3,3h-7.3a3,3,0,0,1-3-3V22.66L7.4,26.84a.61.61,0,0,1-.47.2A.8.8,0,0,1,6.67,27a.68.68,0,0,1-.4-.62Z"/></svg>