<svg id="Calque_1" data-name="Calque 1" xmlns="http://www.w3.org/2000/svg" viewBox="0 0 32 32"><defs><style>.cls-1{fill:#e3e3e3;}.cls-2{fill:none;stroke:#e3e3e3;stroke-miterlimit:10;}</style></defs><title>fk_l</title><path class="cls-1" d="M24.19,11.19a3.21,3.21,0,0,0-3.13,1.75,5.25,5.25,0,0,0,.13,4.25L12.1,11.47c-.32-.2-.32-.2-.07-.48A5.89,5.89,0,0,0,13,4.51c0-.11-.15-.21-.13-.35s.19,0,.27.1Z"/><path class="cls-1" d="M9,24.6a3.2,3.2,0,0,0-2.7-2.35,5.25,5.25,0,0,0-4,1.55L4.7,13.32c.07-.37.07-.37.43-.23a5.86,5.86,0,0,0,6.4-1.32c.09-.08.15-.21.29-.23s0,.19,0,.28Z"/><path class="cls-1" d="M12.32,7A4.64,4.64,0,1,1,7.68,2.42,4.65,4.65,0,0,1,12.32,7Zm-7.61.07a3,3,0,0,0,3,3A3,3,0,0,0,7.69,4,3,3,0,0,0,4.71,7.08Z"/><path class="cls-1" d="M26.56,13.94a2.5,2.5,0,1,1-2.5,2.5,2.5,2.5,0,0,1,2.5-2.5m0-2a4.5,4.5,0,1,0,4.5,4.5,4.5,4.5,0,0,0-4.5-4.5Z"/><circle class="cls-1" cx="5.55" cy="27.71" r="3.18"/><path class="cls-2" d="M11.56,20.44h0a4.34,4.34,0,0,0,5.89-3.31l.11-.69"/></svg>