<?xml version="1.0" encoding="UTF-8" standalone="no"?>
<!-- Created with Inkscape (http://www.inkscape.org/) -->

<svg
   xmlns:dc="http://purl.org/dc/elements/1.1/"
   xmlns:cc="http://creativecommons.org/ns#"
   xmlns:rdf="http://www.w3.org/1999/02/22-rdf-syntax-ns#"
   xmlns:svg="http://www.w3.org/2000/svg"
   xmlns="http://www.w3.org/2000/svg"
   xmlns:sodipodi="http://sodipodi.sourceforge.net/DTD/sodipodi-0.dtd"
   xmlns:inkscape="http://www.inkscape.org/namespaces/inkscape"
   width="32"
   height="32"
   viewBox="0 0 8.4666666 8.4666666"
   version="1.1"
   id="svg8"
   inkscape:version="0.92.5 (2060ec1f9f, 2020-04-08)"
   sodipodi:docname="frames_sl.svg">
  <defs
     id="defs2">
    <style
       id="style1399">.cls-1{fill:#e3e3e3;}</style>
    <style
       id="style1399-4">.cls-1{fill:#e3e3e3;}</style>
    <style
       id="style1399-8">.cls-1{fill:#e3e3e3;}</style>
    <style
       id="style1399-4-5">.cls-1{fill:#e3e3e3;}</style>
  </defs>
  <sodipodi:namedview
     id="base"
     pagecolor="#ffffff"
     bordercolor="#666666"
     borderopacity="1.0"
     inkscape:pageopacity="0.0"
     inkscape:pageshadow="2"
     inkscape:zoom="8"
     inkscape:cx="-25.168343"
     inkscape:cy="8.2739675"
     inkscape:document-units="mm"
     inkscape:current-layer="svg8"
     showgrid="false"
     units="px"
     inkscape:window-width="1920"
     inkscape:window-height="1043"
     inkscape:window-x="0"
     inkscape:window-y="120"
     inkscape:window-maximized="1">
    <sodipodi:guide
       position="8.4666666,0"
       orientation="-32,0"
       id="guide854"
       inkscape:locked="false" />
    <sodipodi:guide
       position="9.9390855,8.4423761"
       orientation="0,-32"
       id="guide856"
       inkscape:locked="false" />
    <sodipodi:guide
       position="0,8.4666814"
       orientation="32,0"
       id="guide858"
       inkscape:locked="false" />
  </sodipodi:namedview>
  <metadata
     id="metadata5">
    <rdf:RDF>
      <cc:Work
         rdf:about="">
        <dc:format>image/svg+xml</dc:format>
        <dc:type
           rdf:resource="http://purl.org/dc/dcmitype/StillImage" />
        <dc:title></dc:title>
      </cc:Work>
    </rdf:RDF>
  </metadata>
  <path
     style="fill:#e3e3e3;fill-opacity:1;stroke-width:0.01254959"
     d="m 0.61374769,1.2200805 c -0.33256394,-10e-8 -0.60232974,0.2697657 -0.60232983,0.6023299 v 4.4176924 c 9e-8,0.3325646 0.26976582,0.60233 0.60232983,0.60233 H 0.93951605 C 0.8391133,6.6625835 0.78141592,6.4569568 0.78141589,6.2396472 V 1.8228659 c 0,-0.2173096 0.0576975,-0.4229362 0.15810016,-0.6027854 z m 1.42016781,0 c -0.3325639,-10e-8 -0.6023296,0.2697657 -0.6023297,0.6023299 v 4.4176924 c 1e-7,0.3325646 0.2697657,0.60233 0.6023297,0.60233 H 2.3487491 C 2.2483462,6.6625835 2.1906489,6.4569568 2.1906488,6.2396472 V 1.8228659 c 10e-8,-0.2173096 0.057698,-0.4229362 0.1581003,-0.6027854 z m 1.409233,0 c -0.3325639,-10e-8 -0.6023297,0.2697657 -0.6023298,0.6023299 v 4.4176924 c 1e-7,0.3325646 0.2697658,0.60233 0.6023298,0.60233 H 7.860841 c 0.3325642,0 0.6023298,-0.2697654 0.6023298,-0.60233 V 1.8224104 c 3e-7,-0.332564 -0.2697654,-0.6023299 -0.6023298,-0.6023299 z"
     id="path1002"
     inkscape:connector-curvature="0" />
</svg>
