<svg id="Calque_1" data-name="Calque 1" xmlns="http://www.w3.org/2000/svg" viewBox="0 0 32 32"><defs><style>.cls-1{fill:#e3e3e3;}</style></defs><title>getonion_l</title><path class="cls-1" d="M7,24.76c-1-1.2-1.27-1.64-1.27-1.64a8.32,8.32,0,0,1-2.77,2.3,2.59,2.59,0,0,0,2.75.16A21.21,21.21,0,0,0,3.37,28c2.29.12,2.7-.7,2.7-.7a2,2,0,0,0,.91,3c.3-1.54.45-3,.45-3S7.55,28,9,28.84a6.84,6.84,0,0,1-.53-2.7Z"/><path class="cls-1" d="M29.9,6.85,27.82,8.92l1,1a.3.3,0,0,1,0,.43l-2,1.94a.29.29,0,0,1-.42,0l-1-1-5.58,5.58a1.14,1.14,0,0,1-.83.35H17.13l-2.37,1.18-.59-.59,1.19-2.37V13.55a1.2,1.2,0,0,1,.34-.84l5.58-5.58-1-1a.3.3,0,0,1,0-.43l2-2a.29.29,0,0,1,.42,0l1,1,2.06-2.09A3,3,0,0,1,29.9,6.85Zm-5.65,3.24L22.47,8.31l-5.34,5.34v1.78h1.78Z"/><path class="cls-1" d="M19,19.21H17.61l-.46.22a5.72,5.72,0,0,1-.85,2.48,2.36,2.36,0,0,1-2.08,1.14A5.08,5.08,0,0,1,11,21.65c-1-1.09-2.39-3.2-.77-5.07a5,5,0,0,1,3-1.17l.23-.45V13.55c0-.07,0-.13,0-.2-1.86.25-3.66.72-4.7,1.92-2.58,3-.53,6.24.8,7.72a7,7,0,0,0,4.75,2.06,4.37,4.37,0,0,0,3.73-2,8.16,8.16,0,0,0,1.25-3.86Z"/><path class="cls-1" d="M21.46,18.08a11.3,11.3,0,0,1-1.68,5.55A4.94,4.94,0,0,1,15.48,26a9.18,9.18,0,0,1-6.09-2.62c-1.47-1.64-4.54-5.85-1.25-9.65,1.22-1.41,3.61-2,6.14-2.37h0l2.24-2.24c-3.75.31-7.79.88-9.9,3.31-4.1,4.74-.85,9.94,1.28,12.3A11.18,11.18,0,0,0,15.48,28a6.94,6.94,0,0,0,5.95-3.19C23.19,22.2,23.53,19,23.56,16Z"/><path class="cls-1" d="M15.66,20.18a2,2,0,0,1-.9.21,2,2,0,0,1-.92-.24,3.42,3.42,0,0,1-.46,1.58.77.77,0,0,1-.72.4,2.51,2.51,0,0,1-1.53-.64c-.57-.63-1.11-1.53-.49-2.26a3.38,3.38,0,0,1,1.74-.54,2,2,0,0,1,0-1.79l.13-.24a5.17,5.17,0,0,0-3.38,1.26c-1.63,1.89-.34,4,.51,4.9a4.45,4.45,0,0,0,3,1.31A2.76,2.76,0,0,0,15,22.86a5.43,5.43,0,0,0,.82-2.77Z"/></svg>