<?xml version="1.0" encoding="UTF-8" standalone="no"?>
<!-- Created with Inkscape (http://www.inkscape.org/) -->

<svg
   xmlns:dc="http://purl.org/dc/elements/1.1/"
   xmlns:cc="http://creativecommons.org/ns#"
   xmlns:rdf="http://www.w3.org/1999/02/22-rdf-syntax-ns#"
   xmlns:svg="http://www.w3.org/2000/svg"
   xmlns="http://www.w3.org/2000/svg"
   xmlns:sodipodi="http://sodipodi.sourceforge.net/DTD/sodipodi-0.dtd"
   xmlns:inkscape="http://www.inkscape.org/namespaces/inkscape"
   width="32"
   height="32"
   viewBox="0 0 8.4666666 8.4666666"
   version="1.1"
   id="svg8"
   inkscape:version="0.92.5 (2060ec1f9f, 2020-04-08)"
   sodipodi:docname="group_sl.svg">
  <defs
     id="defs2" />
  <sodipodi:namedview
     id="base"
     pagecolor="#ffffff"
     bordercolor="#666666"
     borderopacity="1.0"
     inkscape:pageopacity="0.0"
     inkscape:pageshadow="2"
     inkscape:zoom="2.8284271"
     inkscape:cx="-115.61751"
     inkscape:cy="1.7825375"
     inkscape:document-units="mm"
     inkscape:current-layer="svg8"
     showgrid="false"
     units="px"
     inkscape:window-width="1920"
     inkscape:window-height="1043"
     inkscape:window-x="0"
     inkscape:window-y="120"
     inkscape:window-maximized="1">
    <sodipodi:guide
       position="8.4666666,0"
       orientation="-32,0"
       id="guide854"
       inkscape:locked="false" />
    <sodipodi:guide
       position="8.4666666,8.4666666"
       orientation="0,-32"
       id="guide856"
       inkscape:locked="false" />
    <sodipodi:guide
       position="0,8.4666814"
       orientation="32,0"
       id="guide858"
       inkscape:locked="false" />
  </sodipodi:namedview>
  <metadata
     id="metadata5">
    <rdf:RDF>
      <cc:Work
         rdf:about="">
        <dc:format>image/svg+xml</dc:format>
        <dc:type
           rdf:resource="http://purl.org/dc/dcmitype/StillImage" />
        <dc:title></dc:title>
      </cc:Work>
    </rdf:RDF>
  </metadata>
  <path
     id="path1010"
     d="M 7.930413,2.0932887 V 1.5655394 h 0.3298434 c 0.1092934,0 0.1979061,-0.088613 0.1979061,-0.197906 V 0.70794678 c 0,-0.10929355 -0.088613,-0.19790597 -0.1979061,-0.19790597 h -0.659687 c -0.1092932,0 -0.197906,0.0886124 -0.197906,0.19790597 V 1.0377902 H 1.0696725 V 0.70794678 c 0,-0.10929355 -0.0886124,-0.19790597 -0.197906,-0.19790597 H 0.21207985 c -0.10929354,0 -0.19790596,0.0886124 -0.19790596,0.19790597 V 1.3676334 c 0,0.1092936 0.0886124,0.197906 0.19790596,0.197906 H 0.54192327 V 6.8430322 H 0.21207985 c -0.10929354,0 -0.19790596,0.088612 -0.19790596,0.197906 v 0.6596864 c 0,0.1092932 0.0886124,0.197906 0.19790596,0.197906 H 0.8717665 c 0.10929354,0 0.197906,-0.088613 0.197906,-0.197906 V 7.3707811 h 6.3329909 v 0.3298435 c 0,0.1092932 0.088613,0.197906 0.197906,0.197906 h 0.659687 c 0.1092934,0 0.1979061,-0.088613 0.1979061,-0.197906 V 7.0409382 c 0,-0.1092939 -0.088613,-0.197906 -0.1979061,-0.197906 H 7.930413 Z M 1.5974216,4.5341289 V 2.2911947 c 0,-0.1092938 0.088612,-0.197906 0.197906,-0.197906 h 2.7706839 c 0.1092935,0 0.1979059,0.088613 0.1979059,0.197906 v 2.2429342 c 0,0.1092937 -0.088613,0.197906 -0.1979059,0.197906 H 1.7953276 c -0.1092936,0 -0.197906,-0.088613 -0.197906,-0.197906 z m 5.277493,1.583248 c 0,0.1092932 -0.088613,0.197906 -0.197906,0.197906 H 3.9063248 c -0.1092936,0 -0.197906,-0.088613 -0.197906,-0.197906 V 5.2597842 h 1.1874359 c 0.2186036,0 0.3958119,-0.1772083 0.3958119,-0.3958119 V 3.6765365 h 1.385342 c 0.1092934,0 0.197906,0.088613 0.197906,0.197906 z"
     inkscape:connector-curvature="0"
     style="stroke-width:0.01649216;fill:#e3e3e3;fill-opacity:1" />
</svg>
