<svg id="Calque_1" data-name="Calque 1" xmlns="http://www.w3.org/2000/svg" viewBox="0 0 32 32"><defs><style>.cls-1{fill:#e3e3e3;}</style></defs><title>hand_l</title><path class="cls-1" d="M24.58,8.9A1.86,1.86,0,0,1,26,9.5a2,2,0,0,1,.58,1.41v7.55a9.91,9.91,0,0,1-.25,2.21l-1.36,5.69a2.16,2.16,0,0,1-.83,1.33,2.38,2.38,0,0,1-1.49.53h-10A2.44,2.44,0,0,1,11.57,28a2.28,2.28,0,0,1-.88-.76L4.4,18.56A2,2,0,0,1,4,17a1.86,1.86,0,0,1,.8-1.31,2,2,0,0,1,1.51-.35,1.79,1.79,0,0,1,1.28.78l1.61,2.21V6.49a2,2,0,0,1,.58-1.41,1.91,1.91,0,0,1,1.41-.61,2,2,0,0,1,1.43.61,2,2,0,0,1,.61,1.46v8.8h.4V4.47a1.94,1.94,0,0,1,.58-1.4,1.84,1.84,0,0,1,1.41-.61,1.93,1.93,0,0,1,1.43.61,2,2,0,0,1,.6,1.45V15.34h.41V6.44A2,2,0,0,1,18.67,5a1.87,1.87,0,0,1,1.4-.61,2.07,2.07,0,0,1,2,2.07v8.85h.4V11A2.07,2.07,0,0,1,24.58,8.9Z"/></svg>