<svg id="Calque_1" data-name="Calque 1" xmlns="http://www.w3.org/2000/svg" viewBox="0 0 32 32"><defs><style>.cls-1{fill:#e3e3e3;}</style></defs><title>head_l</title><path class="cls-1" d="M28,23.35l-.17-.73a14,14,0,0,1-3.57,1.11,13.4,13.4,0,0,1-2.33.2H21.6A13,13,0,0,1,17,23l.48,1.46.05.15a.49.49,0,0,0,.31.32l2,.68a.55.55,0,0,1,.38.59.54.54,0,0,1-.54.48l-.17,0-2-.7a1.57,1.57,0,0,1-1-1l-1.85-5.61a1.39,1.39,0,0,0-.5-.63,1.48,1.48,0,0,0-.82-.26,1.65,1.65,0,0,0-.32,0,1.45,1.45,0,0,0-.91.68,1.42,1.42,0,0,0-.16,1l1.87,5.64a4.51,4.51,0,0,0,4.24,3l7.7,0h0a2,2,0,0,0,1.47-.63,2,2,0,0,0,.15-2.43l0,0a.72.72,0,0,1,.14-1A1.43,1.43,0,0,0,28,23.35Z"/><path class="cls-1" d="M12.47,17a2.54,2.54,0,0,1,.61-.07,3.14,3.14,0,0,1,1.83.61,2.77,2.77,0,0,1,.86.94h0A2.58,2.58,0,0,1,16,19l.69,2.11a11.22,11.22,0,0,0,5.23,1.32,11.65,11.65,0,0,0,5.61-1.48l-.1-.4a1.43,1.43,0,0,0-1.21-1.1l-.25,0a.36.36,0,0,1-.3-.27c0-.11.64-2.49,1-3.77A1.29,1.29,0,0,0,26.25,14l-.15-.12-.35-.32c0-.12,0-.24,0-.35,0-6.34-3.69-8.92-10-8.92l-1.19,0C8.2,4.65,4,10,4,17.21c0,4,2.62,4.76,7,4.91l-.56-1.87a2.7,2.7,0,0,1,.33-2A2.53,2.53,0,0,1,12.47,17ZM21,12.78c1.95,0,3.07,1.59,3.07,3.54S22.9,19.85,21,19.85a3.54,3.54,0,1,1,0-7.07Z"/></svg>