<svg id="Calque_1" data-name="Calque 1" xmlns="http://www.w3.org/2000/svg" viewBox="0 0 32 32"><defs><style>.cls-1{fill:#e3e3e3;}</style></defs><title>help_l</title><path class="cls-1" d="M17,3.05a9.1,9.1,0,0,1,4.19,1,9.21,9.21,0,0,1,3.29,2.73,6.63,6.63,0,0,1,1.35,4,5.79,5.79,0,0,1-.7,2.9,6.61,6.61,0,0,1-1.66,1.91,18.55,18.55,0,0,1-2,1.25,12.23,12.23,0,0,0-1.41.91,1.38,1.38,0,0,0-.6,1.05v.3a1.12,1.12,0,0,1-.35.85,1.14,1.14,0,0,1-.85.36H14.74a1.21,1.21,0,0,1-1.21-1.21v-.5a4.83,4.83,0,0,1,1.31-3.41,12.65,12.65,0,0,1,2.71-1.86l.1-.05a9,9,0,0,0,1.8-1.2,1.78,1.78,0,0,0,.65-1.35A2.07,2.07,0,0,0,19,8.92a4.05,4.05,0,0,0-2.31-.7,4,4,0,0,0-2.3.65,9.71,9.71,0,0,0-1.86,1.81,1.19,1.19,0,0,1-.78.47,1.1,1.1,0,0,1-.87-.22L8.67,9.27a1.16,1.16,0,0,1-.48-.78,1.11,1.11,0,0,1,.23-.87A11,11,0,0,1,12,4.26,10.16,10.16,0,0,1,17,3.05Zm-.5,18.71a3.29,3.29,0,0,1,2.46,1,3.51,3.51,0,0,1,0,4.91,3.45,3.45,0,0,1-4.92,0,3.51,3.51,0,0,1,0-4.91A3.29,3.29,0,0,1,16.54,21.76Z"/></svg>