<svg id="Calque_1" data-name="Calque 1" xmlns="http://www.w3.org/2000/svg" viewBox="0 0 32 32"><defs><style>.cls-1{fill:#e3e3e3;}</style></defs><title>hips_l</title><path class="cls-1" d="M28.82,9.63c-1.89-1.42-5.27-1.42-8.1,0-1.49.74-1.19,2.63-4.36,2.63s-3.1-1.89-4.59-2.63c-2.84-1.42-6.21-1.42-8.1,0s-1.29,4.45.2,4.52a3.43,3.43,0,0,1,3.44,2.23,10.5,10.5,0,0,1,.61,5.74c-.27,1.08,2.09,2.57,3.51,2.57s3.31-2.1,4.8-2.1,3.4,2.1,4.82,2.1,3.78-1.49,3.51-2.57a10.5,10.5,0,0,1,.61-5.74,3.44,3.44,0,0,1,3.44-2.23C30.1,14.08,30.71,11.05,28.82,9.63ZM9.9,21.71c.06-1.44,3.71-1.88,4.26-.46S9.83,23.15,9.9,21.71Zm5.31-2.09C13.59,21,9.41,15.84,11.5,15.1S16.83,18.2,15.21,19.62Zm2.21.07c-1.62-1.42,1.62-5.27,3.72-4.53S19,21.11,17.42,19.69Zm1.06,1.63c.55-1.42,4.2-1,4.26.46S17.93,22.73,18.48,21.32Z"/></svg>