<svg id="Calque_1" data-name="Calque 1" xmlns="http://www.w3.org/2000/svg" viewBox="0 0 32 32"><defs><style>.cls-1,.cls-3{font-size:17.29px;font-family:MyriadPro-Bold, Myriad Pro;font-weight:700;}.cls-1,.cls-3,.cls-4{fill:#e3e3e3;}.cls-1{letter-spacing:-0.05em;}.cls-2{letter-spacing:-0.05em;}.cls-3{letter-spacing:-0.04em;}</style></defs><title>ik2fk_l</title><text class="cls-1" transform="translate(0.19 13.68)">i<tspan class="cls-2" x="3.8" y="0">k</tspan></text><text class="cls-3" transform="translate(17.52 30.68)">f<tspan class="cls-2" x="5.17" y="0">k</tspan></text><path class="cls-4" d="M9.4,17.12a.78.78,0,0,1,.57-.24.75.75,0,0,1,.57.24l6.51,6.5a.82.82,0,0,1,0,1.14l-6.51,6.5a.75.75,0,0,1-.57.24.78.78,0,0,1-.57-.24l-.77-.73A.72.72,0,0,1,8.42,30a.79.79,0,0,1,.25-.57l4-3.86H3.07a.8.8,0,0,1-.81-.8V23.65a.8.8,0,0,1,.81-.8h9.62L8.67,19a.79.79,0,0,1-.25-.57.72.72,0,0,1,.21-.57Z"/></svg>