<?xml version="1.0" encoding="UTF-8" standalone="no"?>
<!-- Created with Inkscape (http://www.inkscape.org/) -->

<svg
   xmlns:dc="http://purl.org/dc/elements/1.1/"
   xmlns:cc="http://creativecommons.org/ns#"
   xmlns:rdf="http://www.w3.org/1999/02/22-rdf-syntax-ns#"
   xmlns:svg="http://www.w3.org/2000/svg"
   xmlns="http://www.w3.org/2000/svg"
   xmlns:sodipodi="http://sodipodi.sourceforge.net/DTD/sodipodi-0.dtd"
   xmlns:inkscape="http://www.inkscape.org/namespaces/inkscape"
   width="32"
   height="32"
   viewBox="0 0 8.4666666 8.4666666"
   version="1.1"
   id="svg8"
   inkscape:version="0.92.5 (2060ec1f9f, 2020-04-08)"
   sodipodi:docname="image_sl.svg">
  <defs
     id="defs2" />
  <sodipodi:namedview
     id="base"
     pagecolor="#ffffff"
     bordercolor="#666666"
     borderopacity="1.0"
     inkscape:pageopacity="0.0"
     inkscape:pageshadow="2"
     inkscape:zoom="11.313709"
     inkscape:cx="4.267665"
     inkscape:cy="11.560249"
     inkscape:document-units="mm"
     inkscape:current-layer="svg8"
     showgrid="false"
     units="px"
     inkscape:window-width="1920"
     inkscape:window-height="1043"
     inkscape:window-x="0"
     inkscape:window-y="120"
     inkscape:window-maximized="1">
    <sodipodi:guide
       position="8.4666666,0"
       orientation="-32,0"
       id="guide854"
       inkscape:locked="false" />
    <sodipodi:guide
       position="8.4666666,8.4666666"
       orientation="0,-32"
       id="guide856"
       inkscape:locked="false" />
    <sodipodi:guide
       position="0,8.4666814"
       orientation="32,0"
       id="guide858"
       inkscape:locked="false" />
  </sodipodi:namedview>
  <metadata
     id="metadata5">
    <rdf:RDF>
      <cc:Work
         rdf:about="">
        <dc:format>image/svg+xml</dc:format>
        <dc:type
           rdf:resource="http://purl.org/dc/dcmitype/StillImage" />
        <dc:title></dc:title>
      </cc:Work>
    </rdf:RDF>
  </metadata>
  <path
     id="path815"
     d="M 7.658986,7.332667 H 0.79028254 c -0.43771479,0 -0.79254276,-0.3548278 -0.79254276,-0.7925428 V 1.7848685 c 0,-0.4377148 0.35482797,-0.79254281 0.79254276,-0.79254281 H 7.658986 c 0.4377145,0 0.7925427,0.35482801 0.7925427,0.79254281 v 4.7552557 c 0,0.437715 -0.3548282,0.7925428 -0.7925427,0.7925428 z M 1.8470059,1.9169589 c -0.5106615,0 -0.92463295,0.4139714 -0.92463295,0.9246329 0,0.5106619 0.41397145,0.9246333 0.92463295,0.9246333 0.5106619,0 0.9246333,-0.4139714 0.9246333,-0.9246333 0,-0.5106615 -0.4139714,-0.9246329 -0.9246333,-0.9246329 z M 1.0544635,6.2759435 H 7.3948046 V 4.4266774 L 5.949818,2.9816904 c -0.077372,-0.077372 -0.2028251,-0.077372 -0.2802136,0 L 3.4320916,5.2192201 2.5154663,4.3025949 c -0.077372,-0.077372 -0.2028248,-0.077372 -0.2802132,0 L 1.0544635,5.4834007 Z"
     inkscape:connector-curvature="0"
     style="stroke-width:0.0165113;fill:#e3e3e3;fill-opacity:1" />
</svg>
