<svg id="Calque_1" data-name="Calque 1" xmlns="http://www.w3.org/2000/svg" viewBox="0 0 32 32"><defs><style>.cls-1{fill:#e3e3e3;}</style></defs><title>importrig_l</title><path class="cls-1" d="M29.75,23.87l-7.34,7.35a1.5,1.5,0,0,1-1,.42,1.45,1.45,0,0,1-1-.42L13,23.87a1.41,1.41,0,0,1-.43-1,1.46,1.46,0,0,1,.43-1l.83-.85a1.49,1.49,0,0,1,1-.41,1.44,1.44,0,0,1,1,.41l3.32,3.32V16.36a1.45,1.45,0,0,1,1.44-1.44H22.1a1.46,1.46,0,0,1,1.45,1.44V24.3L26.86,21a1.44,1.44,0,0,1,1-.41,1.48,1.48,0,0,1,1,.41l.85.85a1.5,1.5,0,0,1,.42,1A1.45,1.45,0,0,1,29.75,23.87Z"/><path class="cls-1" d="M11.23,26.14a6.93,6.93,0,0,1,0-5,6.08,6.08,0,0,1,2-3l-3.47-6c-.19-.32-.2-.32-.48-.07A5.88,5.88,0,0,1,2.81,13c-.11,0-.21-.15-.35-.13s0,.19.09.27Z"/><path class="cls-1" d="M13.56,5.55H16a.42.42,0,0,0,.43-.25,1.77,1.77,0,0,1,1.62-1h1.64a.64.64,0,0,0,.5-.21c.58-.66,1.17-1.3,1.75-1.95A.62.62,0,0,0,22,1.93a1.17,1.17,0,0,1,1.85-.53c1.09.74,2.16,1.5,3.23,2.25.55.38,1.11.76,1.65,1.15a1.14,1.14,0,0,1,.52,1.25,1.12,1.12,0,0,1-.94.89,1.31,1.31,0,0,1-1-.28L23.79,4.18c-.36-.26-.37-.26-.67.07L21.81,5.69a.76.76,0,0,0-.23.58c0,1.05,0,2.11,0,3.16a.73.73,0,0,0,.22.54c.55.59,1.08,1.18,1.61,1.78a.3.3,0,0,0,.48.05c1.24-.87,2.48-1.74,3.72-2.59A1.17,1.17,0,1,1,29,11.05c-.91.67-1.84,1.3-2.77,1.95l-2.18,1.52A1.18,1.18,0,0,1,22.26,14a6.12,6.12,0,0,0-1.05-1.28c-.34-.42-.73-.8-1.09-1.21a.52.52,0,0,0-.45-.19H17.94a1.62,1.62,0,0,1-1.55-.94.48.48,0,0,0-.5-.29H11.16c-.39,0-.41,0-.28-.37a5.72,5.72,0,0,0,0-3.83c-.1-.32-.08-.35.26-.35Z"/><path class="cls-1" d="M.71,7.75A4.66,4.66,0,0,1,5.37,3.12,4.64,4.64,0,1,1,.71,7.75Zm1.62,0a3,3,0,1,0,6.05,0,3,3,0,0,0-3-3A3,3,0,0,0,2.33,7.77Z"/></svg>