<?xml version="1.0" encoding="UTF-8" standalone="no"?>
<!-- Created with Inkscape (http://www.inkscape.org/) -->

<svg
   xmlns:dc="http://purl.org/dc/elements/1.1/"
   xmlns:cc="http://creativecommons.org/ns#"
   xmlns:rdf="http://www.w3.org/1999/02/22-rdf-syntax-ns#"
   xmlns:svg="http://www.w3.org/2000/svg"
   xmlns="http://www.w3.org/2000/svg"
   xmlns:sodipodi="http://sodipodi.sourceforge.net/DTD/sodipodi-0.dtd"
   xmlns:inkscape="http://www.inkscape.org/namespaces/inkscape"
   width="32"
   height="32"
   viewBox="0 0 8.4666666 8.4666666"
   version="1.1"
   id="svg8"
   inkscape:version="0.92.5 (2060ec1f9f, 2020-04-08)"
   sodipodi:docname="import_bl.svg">
  <defs
     id="defs2" />
  <sodipodi:namedview
     id="base"
     pagecolor="#ffffff"
     bordercolor="#666666"
     borderopacity="1.0"
     inkscape:pageopacity="0.0"
     inkscape:pageshadow="2"
     inkscape:zoom="11.313708"
     inkscape:cx="0.16397214"
     inkscape:cy="5.7488511"
     inkscape:document-units="mm"
     inkscape:current-layer="layer1"
     showgrid="false"
     units="px"
     inkscape:window-width="1920"
     inkscape:window-height="1043"
     inkscape:window-x="0"
     inkscape:window-y="120"
     inkscape:window-maximized="1">
    <sodipodi:guide
       position="8.4666666,0"
       orientation="-32,0"
       id="guide854"
       inkscape:locked="false" />
    <sodipodi:guide
       position="8.4666666,8.4666666"
       orientation="0,-32"
       id="guide856"
       inkscape:locked="false" />
    <sodipodi:guide
       position="0,8.4666814"
       orientation="32,0"
       id="guide858"
       inkscape:locked="false" />
  </sodipodi:namedview>
  <metadata
     id="metadata5">
    <rdf:RDF>
      <cc:Work
         rdf:about="">
        <dc:format>image/svg+xml</dc:format>
        <dc:type
           rdf:resource="http://purl.org/dc/dcmitype/StillImage" />
        <dc:title></dc:title>
      </cc:Work>
    </rdf:RDF>
  </metadata>
  <g
     inkscape:label="Layer 1"
     inkscape:groupmode="layer"
     id="layer1"
     transform="translate(0,-288.53334)">
    <path
       id="path835"
       d="m 6.8627102,295.74144 h -1.378791 c -0.1083334,0 -0.1969701,-0.0886 -0.1969701,-0.19697 v -0.65656 c 0,-0.10834 0.088637,-0.19697 0.1969701,-0.19697 h 1.378791 c 0.2905306,0 0.5252533,-0.23473 0.5252533,-0.52526 v -3.15152 c 0,-0.29053 -0.2347227,-0.52525 -0.5252533,-0.52525 h -1.378791 c -0.1083334,0 -0.1969701,-0.0886 -0.1969701,-0.19697 v -0.65657 c 0,-0.10833 0.088637,-0.19697 0.1969701,-0.19697 h 1.378791 c 0.8699508,0 1.5757608,0.70581 1.5757608,1.57576 v 3.15152 c 0,0.86996 -0.70581,1.57576 -1.5757608,1.57576 z m -0.7714665,-3.29925 -2.7575813,-2.75758 c -0.2462128,-0.24621 -0.6729811,-0.0739 -0.6729811,0.27904 v 1.57577 H 0.42835336 c -0.21830851,0 -0.39394021,0.17563 -0.39394021,0.39394 v 1.57576 c 0,0.21831 0.1756317,0.39394 0.39394021,0.39394 H 2.6606813 v 1.57576 c 0,0.3529 0.4267683,0.52525 0.6729811,0.27904 l 2.7575813,-2.75758 c 0.1526515,-0.1543 0.1526515,-0.40379 0,-0.55809 z"
       inkscape:connector-curvature="0"
       style="stroke-width:0.01641417;fill:#d588f1;fill-opacity:1" />
  </g>
</svg>
