<svg id="Calque_1" data-name="Calque 1" xmlns="http://www.w3.org/2000/svg" viewBox="0 0 32 32"><defs><style>.cls-1{fill:#e3e3e3;}</style></defs><title>importanim_l</title><path class="cls-1" d="M25.75,23.87l-7.34,7.35a1.5,1.5,0,0,1-1,.42,1.45,1.45,0,0,1-1-.42L9,23.87a1.41,1.41,0,0,1-.43-1,1.46,1.46,0,0,1,.43-1L9.86,21a1.49,1.49,0,0,1,1-.41,1.44,1.44,0,0,1,1,.41l3.32,3.32V16.36a1.45,1.45,0,0,1,1.44-1.44H18.1a1.46,1.46,0,0,1,1.45,1.44V24.3L22.86,21a1.44,1.44,0,0,1,1-.41,1.48,1.48,0,0,1,1,.41l.85.85a1.5,1.5,0,0,1,.42,1A1.45,1.45,0,0,1,25.75,23.87Z"/><path class="cls-1" d="M8.44,19.58l0,0,0,0a3.47,3.47,0,0,1,4.74-.07V16.36a3.44,3.44,0,0,1,3.44-3.44H18.1a3.45,3.45,0,0,1,3.45,3.44v3.11a3.48,3.48,0,0,1,2.33-.9,3.55,3.55,0,0,1,2.44,1l.43.43H27V18.46l-7.69-7.69V9.23L27,1.54V0H7V1.54l7.69,7.69v1.54L7,18.46V20H8Z"/></svg>