<svg id="Calque_1" data-name="Calque 1" xmlns="http://www.w3.org/2000/svg" viewBox="0 0 32 32"><defs><style>.cls-1{fill:#e3e3e3;}</style></defs><title>individualcontrol_l</title><rect class="cls-1" x="3" y="4.11" width="10.52" height="10.52" rx="3.33"/><rect class="cls-1" x="3" y="18.11" width="10.52" height="10.52" rx="3.33"/><path class="cls-1" d="M18,11V9.31A1.54,1.54,0,0,1,18.07,9H10v2h8Z"/><path class="cls-1" d="M18,24V22.31a1.54,1.54,0,0,1,.05-.31H10v2h8Z"/><path class="cls-1" d="M30.43,11.24a.29.29,0,0,1,.13.14.37.37,0,0,1,0,.18,5.68,5.68,0,0,1-1.24,2.12.29.29,0,0,1-.16.09.23.23,0,0,1-.18,0L28,13.19a4.72,4.72,0,0,1-1.38.79v1.1a.27.27,0,0,1-.06.17.21.21,0,0,1-.14.1,5.81,5.81,0,0,1-2.49,0,.21.21,0,0,1-.14-.1.27.27,0,0,1-.06-.17V14a4.72,4.72,0,0,1-1.38-.79l-.95.56a.23.23,0,0,1-.18,0,.29.29,0,0,1-.16-.09,5.68,5.68,0,0,1-1.24-2.12.37.37,0,0,1,0-.18.29.29,0,0,1,.13-.14l.95-.56A4.66,4.66,0,0,1,21,9.1L20,8.53a.27.27,0,0,1-.13-.13.37.37,0,0,1,0-.18A5.72,5.72,0,0,1,21.1,6.09.51.51,0,0,1,21.26,6a.29.29,0,0,1,.18,0l.95.56a4.31,4.31,0,0,1,1.38-.79V4.69a.29.29,0,0,1,.06-.17.24.24,0,0,1,.14-.1,5.81,5.81,0,0,1,2.49,0,.24.24,0,0,1,.14.1.29.29,0,0,1,.06.17V5.8A4.31,4.31,0,0,1,28,6.59L29,6a.29.29,0,0,1,.18,0,.51.51,0,0,1,.16.09,5.72,5.72,0,0,1,1.24,2.13.37.37,0,0,1,0,.18.27.27,0,0,1-.13.13l-.95.57a4.66,4.66,0,0,1,0,1.58ZM26.49,8.61a1.8,1.8,0,0,0-2.55,0,1.73,1.73,0,0,0-.53,1.28,1.8,1.8,0,0,0,3.08,1.27A1.75,1.75,0,0,0,27,9.89,1.77,1.77,0,0,0,26.49,8.61Z"/><path class="cls-1" d="M30.43,24.24a.29.29,0,0,1,.13.14.37.37,0,0,1,0,.18,5.68,5.68,0,0,1-1.24,2.12.29.29,0,0,1-.16.09.23.23,0,0,1-.18,0L28,26.19a4.72,4.72,0,0,1-1.38.79v1.1a.27.27,0,0,1-.06.17.21.21,0,0,1-.14.1,5.81,5.81,0,0,1-2.49,0,.21.21,0,0,1-.14-.1.27.27,0,0,1-.06-.17V27a4.72,4.72,0,0,1-1.38-.79l-.95.56a.23.23,0,0,1-.18,0,.29.29,0,0,1-.16-.09,5.68,5.68,0,0,1-1.24-2.12.37.37,0,0,1,0-.18.29.29,0,0,1,.13-.14l.95-.56a4.66,4.66,0,0,1,0-1.58L20,21.53a.27.27,0,0,1-.13-.13.37.37,0,0,1,0-.18,5.72,5.72,0,0,1,1.24-2.13.51.51,0,0,1,.16-.09.29.29,0,0,1,.18,0l.95.56a4.31,4.31,0,0,1,1.38-.79V17.69a.29.29,0,0,1,.06-.17.24.24,0,0,1,.14-.1,5.81,5.81,0,0,1,2.49,0,.24.24,0,0,1,.14.1.29.29,0,0,1,.06.17V18.8a4.31,4.31,0,0,1,1.38.79L29,19a.29.29,0,0,1,.18,0,.51.51,0,0,1,.16.09,5.72,5.72,0,0,1,1.24,2.13.37.37,0,0,1,0,.18.27.27,0,0,1-.13.13l-.95.57a4.66,4.66,0,0,1,0,1.58Zm-3.94-2.63a1.8,1.8,0,0,0-2.55,0,1.73,1.73,0,0,0-.53,1.28,1.8,1.8,0,0,0,3.08,1.27A1.75,1.75,0,0,0,27,22.89,1.77,1.77,0,0,0,26.49,21.61Z"/></svg>