<svg id="Calque_1" data-name="Calque 1" xmlns="http://www.w3.org/2000/svg" viewBox="0 0 32 32"><defs><style>.cls-1{fill:#e3e3e3;}.cls-2{fill:none;stroke:#e3e3e3;stroke-miterlimit:10;stroke-width:2px;}</style></defs><title>jsshape_l</title><path class="cls-1" d="M1.52,15.07c1.78,0,2-1,2-1.81a17.82,17.82,0,0,0-.15-2,15,15,0,0,1-.18-2.06c0-2.38,1.53-3.4,3.79-3.4h.73V7.6H7.24c-1.32,0-1.78.74-1.78,2a8.34,8.34,0,0,0,.18,1.6c.05.56.15,1.17.15,1.83,0,1.78-.74,2.54-2,2.85v.05c1.29.3,2.05,1.09,2,2.87,0,.68-.1,1.29-.15,1.85a8.34,8.34,0,0,0-.18,1.6c0,1.27.51,2,1.78,2h.45V26H7c-2.21,0-3.79-.91-3.79-3.48a14.69,14.69,0,0,1,.18-2,17.47,17.47,0,0,0,.15-2c0-.73-.2-1.77-2-1.8Z"/><path class="cls-1" d="M25.57,16.72c-1.75,0-2,1.07-2,1.8a17.64,17.64,0,0,0,.18,2c.07.69.18,1.4.18,2C24,25.13,22.37,26,20.16,26h-.74v-1.8h.46c1.27,0,1.75-.74,1.75-2a11.49,11.49,0,0,0-.15-1.6,14.43,14.43,0,0,1-.15-1.85c0-1.78.74-2.57,2-2.87v-.05c-1.27-.31-2-1.07-2-2.85a14.41,14.41,0,0,1,.15-1.83,11.49,11.49,0,0,0,.15-1.6c0-1.24-.45-2-1.75-2h-.46V5.77h.74c2.26,0,3.79,1,3.79,3.4,0,.66-.11,1.35-.18,2.06a18,18,0,0,0-.18,2c0,.82.23,1.78,2,1.81Z"/><path class="cls-1" d="M26.54,26.27a37.16,37.16,0,0,0,1.7-6.7l3.28-.26a34.1,34.1,0,0,1-2.85,6.76Zm1.27-13.34a1.92,1.92,0,1,1,3.83,0,1.87,1.87,0,0,1-1.93,2A1.85,1.85,0,0,1,27.81,12.93Z"/><path class="cls-2" d="M17.64,11.13a1,1,0,0,1,.75.08,1.12,1.12,0,0,1,.51.54,1.07,1.07,0,0,1,0,.75l-2.62,9a1,1,0,0,1-.44.6,1.14,1.14,0,0,1-.72.18,1,1,0,0,1-.68-.34L7.94,15a1,1,0,0,1-.31-.73,1.11,1.11,0,0,1,.25-.7,1,1,0,0,1,.62-.38Z"/></svg>