<?xml version="1.0" encoding="UTF-8" standalone="no"?>
<!-- Created with Inkscape (http://www.inkscape.org/) -->

<svg
   xmlns:dc="http://purl.org/dc/elements/1.1/"
   xmlns:cc="http://creativecommons.org/ns#"
   xmlns:rdf="http://www.w3.org/1999/02/22-rdf-syntax-ns#"
   xmlns:svg="http://www.w3.org/2000/svg"
   xmlns="http://www.w3.org/2000/svg"
   xmlns:sodipodi="http://sodipodi.sourceforge.net/DTD/sodipodi-0.dtd"
   xmlns:inkscape="http://www.inkscape.org/namespaces/inkscape"
   width="32"
   height="32"
   viewBox="0 0 8.4666666 8.4666666"
   version="1.1"
   id="svg8"
   inkscape:version="0.92.5 (2060ec1f9f, 2020-04-08)"
   sodipodi:docname="keyboard-control_sl.svg">
  <defs
     id="defs2" />
  <sodipodi:namedview
     id="base"
     pagecolor="#ffffff"
     bordercolor="#666666"
     borderopacity="1.0"
     inkscape:pageopacity="0.0"
     inkscape:pageshadow="2"
     inkscape:zoom="16"
     inkscape:cx="11.448561"
     inkscape:cy="17.544493"
     inkscape:document-units="mm"
     inkscape:current-layer="layer1"
     showgrid="false"
     units="px"
     inkscape:window-width="1848"
     inkscape:window-height="1136"
     inkscape:window-x="0"
     inkscape:window-y="27"
     inkscape:window-maximized="1">
    <sodipodi:guide
       position="8.4666666,0"
       orientation="-32,0"
       id="guide854"
       inkscape:locked="false" />
    <sodipodi:guide
       position="8.4666666,8.4666666"
       orientation="0,-32"
       id="guide856"
       inkscape:locked="false" />
    <sodipodi:guide
       position="0,8.4666814"
       orientation="32,0"
       id="guide858"
       inkscape:locked="false" />
  </sodipodi:namedview>
  <metadata
     id="metadata5">
    <rdf:RDF>
      <cc:Work
         rdf:about="">
        <dc:format>image/svg+xml</dc:format>
        <dc:type
           rdf:resource="http://purl.org/dc/dcmitype/StillImage" />
        <dc:title></dc:title>
      </cc:Work>
    </rdf:RDF>
  </metadata>
  <g
     inkscape:label="Layer 1"
     inkscape:groupmode="layer"
     id="layer1"
     transform="translate(0,-288.53334)">
    <path
       id="path868"
       d="M 7.7694472,295.5902 H 0.71491256 c -0.38961616,0 -0.7054534,-0.31584 -0.7054534,-0.70546 v -4.23272 c 0,-0.38961 0.31583724,-0.70545 0.7054534,-0.70545 H 7.7694472 c 0.3896159,0 0.7054535,0.31584 0.7054535,0.70545 v 4.23272 c 0,0.38962 -0.3158376,0.70546 -0.7054535,0.70546 z m -5.8787788,-3.93878 v -0.58788 c 0,-0.0974 -0.078967,-0.17636 -0.1763634,-0.17636 H 1.1264271 c -0.097397,0 -0.17636341,0.079 -0.17636341,0.17636 v 0.58788 c 0,0.0974 0.0789668,0.17636 0.17636341,0.17636 H 1.714305 c 0.097397,0 0.1763634,-0.079 0.1763634,-0.17636 z m 1.410907,0 v -0.58788 c 0,-0.0974 -0.078967,-0.17636 -0.1763634,-0.17636 H 2.537334 c -0.097397,0 -0.1763633,0.079 -0.1763633,0.17636 v 0.58788 c 0,0.0974 0.078967,0.17636 0.1763633,0.17636 h 0.587878 c 0.097397,0 0.1763634,-0.079 0.1763634,-0.17636 z m 1.4109068,0 v -0.58788 c 0,-0.0974 -0.078967,-0.17636 -0.1763634,-0.17636 H 3.948241 c -0.097397,0 -0.1763634,0.079 -0.1763634,0.17636 v 0.58788 c 0,0.0974 0.078967,0.17636 0.1763634,0.17636 h 0.5878778 c 0.097397,0 0.1763634,-0.079 0.1763634,-0.17636 z m 1.4109072,0 v -0.58788 c 0,-0.0974 -0.078967,-0.17636 -0.1763634,-0.17636 H 5.3591479 c -0.097397,0 -0.1763634,0.079 -0.1763634,0.17636 v 0.58788 c 0,0.0974 0.078967,0.17636 0.1763634,0.17636 H 5.947026 c 0.097396,0 0.1763634,-0.079 0.1763634,-0.17636 z m 1.4109068,0 v -0.58788 c 0,-0.0974 -0.078967,-0.17636 -0.1763634,-0.17636 H 6.7700546 c -0.097396,0 -0.1763633,0.079 -0.1763633,0.17636 v 0.58788 c 0,0.0974 0.078967,0.17636 0.1763633,0.17636 h 0.5878782 c 0.097397,0 0.1763634,-0.079 0.1763634,-0.17636 z m -4.9381744,1.4109 v -0.58787 c 0,-0.0974 -0.078967,-0.17637 -0.1763633,-0.17637 H 1.8318806 c -0.097397,0 -0.1763634,0.079 -0.1763634,0.17637 v 0.58787 c 0,0.0974 0.078967,0.17637 0.1763634,0.17637 h 0.5878779 c 0.097397,0 0.1763633,-0.079 0.1763633,-0.17637 z m 1.410907,0 v -0.58787 c 0,-0.0974 -0.078967,-0.17637 -0.1763634,-0.17637 H 3.2427875 c -0.097397,0 -0.1763634,0.079 -0.1763634,0.17637 v 0.58787 c 0,0.0974 0.078967,0.17637 0.1763634,0.17637 h 0.5878779 c 0.097397,0 0.1763634,-0.079 0.1763634,-0.17637 z m 1.4109069,0 v -0.58787 c 0,-0.0974 -0.078967,-0.17637 -0.1763634,-0.17637 H 4.6536944 c -0.097397,0 -0.1763633,0.079 -0.1763633,0.17637 v 0.58787 c 0,0.0974 0.078967,0.17637 0.1763633,0.17637 h 0.5878779 c 0.097397,0 0.1763634,-0.079 0.1763634,-0.17637 z m 1.4109071,0 v -0.58787 c 0,-0.0974 -0.078967,-0.17637 -0.1763634,-0.17637 H 6.0646012 c -0.097397,0 -0.1763634,0.079 -0.1763634,0.17637 v 0.58787 c 0,0.0974 0.078967,0.17637 0.1763634,0.17637 h 0.5878782 c 0.097397,0 0.1763634,-0.079 0.1763634,-0.17637 z m -4.9381744,1.41091 v -0.58787 c 0,-0.0974 -0.078967,-0.17637 -0.1763634,-0.17637 H 1.1264271 c -0.097397,0 -0.17636341,0.079 -0.17636341,0.17637 v 0.58787 c 0,0.0974 0.0789668,0.17637 0.17636341,0.17637 H 1.714305 c 0.097397,0 0.1763634,-0.079 0.1763634,-0.17637 z m 4.232721,0 v -0.58787 c 0,-0.0974 -0.078967,-0.17637 -0.1763634,-0.17637 H 2.537334 c -0.097397,0 -0.1763633,0.079 -0.1763633,0.17637 v 0.58787 c 0,0.0974 0.078967,0.17637 0.1763633,0.17637 h 3.409692 c 0.097396,0 0.1763634,-0.079 0.1763634,-0.17637 z m 1.4109068,0 v -0.58787 c 0,-0.0974 -0.078967,-0.17637 -0.1763634,-0.17637 H 6.7700546 c -0.097396,0 -0.1763633,0.079 -0.1763633,0.17637 v 0.58787 c 0,0.0974 0.078967,0.17637 0.1763633,0.17637 h 0.5878782 c 0.097397,0 0.1763634,-0.079 0.1763634,-0.17637 z"
       inkscape:connector-curvature="0"
       style="stroke-width:0.01469695;fill:#e3e3e3" />
  </g>
</svg>
