<svg id="Calque_1" data-name="Calque 1" xmlns="http://www.w3.org/2000/svg" viewBox="0 0 32 32"><defs><style>.cls-1{fill:#e3e3e3;}</style></defs><title>keyframesonly_l</title><rect class="cls-1" x="10.88" y="13.88" width="4.24" height="4.24" transform="translate(15.12 -4.51) rotate(45)"/><rect class="cls-1" x="22.82" y="13.88" width="4.24" height="4.24" transform="translate(18.62 -12.95) rotate(45)"/><path class="cls-1" d="M27.42,3A2.57,2.57,0,0,1,30,5.58v.84A2.57,2.57,0,0,1,27.42,9H4.58A2.57,2.57,0,0,1,2,6.42V5.58A2.57,2.57,0,0,1,4.58,3H27.42m0-1H4.58A3.59,3.59,0,0,0,1,5.58v.84A3.59,3.59,0,0,0,4.58,10H27.42A3.59,3.59,0,0,0,31,6.42V5.58A3.59,3.59,0,0,0,27.42,2Z"/><path class="cls-1" d="M27.42,13A2.57,2.57,0,0,1,30,15.58v.84A2.57,2.57,0,0,1,27.42,19H4.58A2.57,2.57,0,0,1,2,16.42v-.84A2.57,2.57,0,0,1,4.58,13H27.42m0-2H4.58A4.58,4.58,0,0,0,0,15.58v.84A4.58,4.58,0,0,0,4.58,21H27.42A4.58,4.58,0,0,0,32,16.42v-.84A4.58,4.58,0,0,0,27.42,11Z"/><path class="cls-1" d="M27.42,23A2.57,2.57,0,0,1,30,25.58v.84A2.57,2.57,0,0,1,27.42,29H4.58A2.57,2.57,0,0,1,2,26.42v-.84A2.57,2.57,0,0,1,4.58,23H27.42m0-1H4.58A3.59,3.59,0,0,0,1,25.58v.84A3.59,3.59,0,0,0,4.58,30H27.42A3.59,3.59,0,0,0,31,26.42v-.84A3.59,3.59,0,0,0,27.42,22Z"/></svg>