<?xml version="1.0" encoding="UTF-8" standalone="no"?>
<!-- Created with Inkscape (http://www.inkscape.org/) -->

<svg
   xmlns:dc="http://purl.org/dc/elements/1.1/"
   xmlns:cc="http://creativecommons.org/ns#"
   xmlns:rdf="http://www.w3.org/1999/02/22-rdf-syntax-ns#"
   xmlns:svg="http://www.w3.org/2000/svg"
   xmlns="http://www.w3.org/2000/svg"
   xmlns:xlink="http://www.w3.org/1999/xlink"
   xmlns:sodipodi="http://sodipodi.sourceforge.net/DTD/sodipodi-0.dtd"
   xmlns:inkscape="http://www.inkscape.org/namespaces/inkscape"
   width="32"
   height="32"
   viewBox="0 0 8.4666666 8.4666666"
   version="1.1"
   id="svg8"
   inkscape:version="0.92.5 (2060ec1f9f, 2020-04-08)"
   sodipodi:docname="krita_sl.svg">
  <defs
     id="defs2">
    <style
       id="style1399">.cls-1{fill:#e3e3e3;}</style>
    <style
       id="style1281">.cls-1{fill:#e3e3e3;}</style>
    <style
       id="style1301">.cls-1{fill:#e3e3e3;}</style>
    <linearGradient
       id="linearGradient1373">
      <stop
         id="stop1369"
         offset="0"
         style="stop-color:#343434;stop-opacity:1" />
      <stop
         id="stop1371"
         offset="1"
         style="stop-color:#4d4d4d;stop-opacity:1" />
    </linearGradient>
    <linearGradient
       id="linearGradient4663-8-4">
      <stop
         offset="0"
         style="stop-color:#5596ea;stop-opacity:1"
         id="stop4665-6-3" />
      <stop
         offset="1"
         style="stop-color:#5596ea;stop-opacity:0"
         id="stop4667-8-0" />
    </linearGradient>
    <linearGradient
       y2="200.87404"
       x2="1280.8954"
       y1="62.713318"
       x1="1142.5884"
       gradientTransform="rotate(-5.8887665,1223.2651,99.834013)"
       gradientUnits="userSpaceOnUse"
       id="linearGradient1403"
       xlink:href="#linearGradient1373" />
    <linearGradient
       gradientTransform="matrix(0.0111212,0.99993816,0.99993816,-0.0111212,1077.8896,-1093.5223)"
       y2="89.862335"
       x2="1324.9103"
       y1="230.86234"
       x1="1327.5938"
       gradientUnits="userSpaceOnUse"
       id="linearGradient1405"
       xlink:href="#linearGradient4663-8-4" />
    <style
       id="style1435">.cls-1{fill:#ec1818;}</style>
  </defs>
  <sodipodi:namedview
     id="base"
     pagecolor="#ffffff"
     bordercolor="#666666"
     borderopacity="1.0"
     inkscape:pageopacity="0.0"
     inkscape:pageshadow="2"
     inkscape:zoom="16"
     inkscape:cx="1.8451692"
     inkscape:cy="11.796254"
     inkscape:document-units="mm"
     inkscape:current-layer="svg8"
     showgrid="false"
     units="px"
     inkscape:window-width="1920"
     inkscape:window-height="1043"
     inkscape:window-x="0"
     inkscape:window-y="120"
     inkscape:window-maximized="1">
    <sodipodi:guide
       position="8.4666666,0"
       orientation="-32,0"
       id="guide854"
       inkscape:locked="false" />
    <sodipodi:guide
       position="8.4666666,8.4666666"
       orientation="0,-32"
       id="guide856"
       inkscape:locked="false" />
    <sodipodi:guide
       position="0,8.4666814"
       orientation="32,0"
       id="guide858"
       inkscape:locked="false" />
  </sodipodi:namedview>
  <metadata
     id="metadata5">
    <rdf:RDF>
      <cc:Work
         rdf:about="">
        <dc:format>image/svg+xml</dc:format>
        <dc:type
           rdf:resource="http://purl.org/dc/dcmitype/StillImage" />
        <dc:title></dc:title>
      </cc:Work>
    </rdf:RDF>
  </metadata>
  <path
     style="fill:#e3e3e3;stroke-width:1.12056148;fill-opacity:1"
     d="M 17.328125 1.6621094 L 17.294922 1.6855469 A 14.679357 14.679357 0 0 0 7.2207031 5.6542969 C 4.6393346 4.0450124 2.3121619 2.5691669 2.0214844 2.4238281 C 1.4275868 1.9980147 0.75527896 1.7180892 0.2734375 2.3007812 C -0.208404 2.8834733 0.27401791 3.4893749 0.75585938 3.9824219 C 1.0118342 4.2161371 2.9050926 6.2106481 4.9726562 8.3125 A 14.735385 14.735385 0 1 0 17.328125 1.6621094 z M 7.2246094 5.6699219 C 9.8312752 7.2919313 12.681073 9.0255797 13.933594 9.7636719 C 15.894576 10.884234 18.942401 13.339154 19.390625 15.669922 C 20.197429 16.375876 22.326852 18.257251 22.853516 18.884766 A 2.420413 2.420413 0 0 1 25.654297 20.353516 C 26.774858 22.471377 25.957868 25.351334 23.033203 27.009766 C 24.545961 25.048783 22.079199 23.749218 21.462891 21.855469 A 2.801404 2.801404 0 0 1 21.318359 20.8125 C 20.623611 20.442714 18.527722 18.89592 17.597656 18.201172 C 15.188449 18.414079 11.994154 15.83792 10.458984 14.089844 C 9.4892348 12.975189 7.1225693 10.528492 5.0351562 8.296875 A 15.093965 15.093965 0 0 1 7.2246094 5.6699219 z "
     transform="scale(0.26458333)"
     id="path1441" />
</svg>
