<svg id="Calque_1" data-name="Calque 1" xmlns="http://www.w3.org/2000/svg" viewBox="0 0 32 32"><defs><style>.cls-1{font-size:21.27px;font-family:MyriadPro-Bold, Myriad Pro;font-weight:700;letter-spacing:-0.05em;}.cls-1,.cls-2{fill:#e3e3e3;}</style></defs><title>layerindex_l</title><text class="cls-1" transform="translate(13.19 27.68)">2</text><path class="cls-2" d="M14.2,22.92l.33-.29c1.83-1.64,3.77-3.45,3.87-4.39l-.27,0a3.18,3.18,0,0,0-1.75.73,2,2,0,0,1-1.21.42,2,2,0,0,1-.54-.08,2,2,0,0,1-1.32-1.19l-.92-2.32a2,2,0,0,1,.66-2.33,9.7,9.7,0,0,1,5.74-1.83A7.47,7.47,0,0,1,23,12.79,10,10,0,1,0,13,23,9.42,9.42,0,0,0,14.2,22.92Z"/><path class="cls-2" d="M14.08,27.68V25.73l1.79-1.62c3-2.7,4.49-4.26,4.53-5.87,0-1.13-.68-2-2.27-2a5,5,0,0,0-3,1.15l-.92-2.32a7.66,7.66,0,0,1,4.54-1.43c3.12,0,4.84,1.83,4.84,4.34,0,2.32-1.67,4.17-3.67,6L18.68,25v0h5.21v2.66Z"/></svg>