<svg id="Calque_1" data-name="Calque 1" xmlns="http://www.w3.org/2000/svg" viewBox="0 0 32 32"><defs><style>.cls-1{font-size:21.27px;font-family:MyriadPro-Bold, Myriad Pro;font-weight:700;letter-spacing:-0.06em;}.cls-1,.cls-3{fill:#e3e3e3;}.cls-2{letter-spacing:-0.05em;}</style></defs><title>layername_l</title><text class="cls-1" transform="translate(7.19 27.68)">a<tspan class="cls-2" x="10.06" y="0">b</tspan></text><path class="cls-3" d="M14.4,27.68l-.19-1h-.06a3.76,3.76,0,0,1-3,1.28,3.19,3.19,0,0,1-3.36-3.19c0-2.71,2.42-4,6.1-4V20.6c0-.55-.29-1.34-1.89-1.34a5.8,5.8,0,0,0-2.87.79L8.55,18a8.67,8.67,0,0,1,4-.91c3.47,0,4.58,2,4.58,4.48v3.62a15.61,15.61,0,0,0,.15,2.53ZM14,22.77c-1.7,0-3,.38-3,1.64a1.16,1.16,0,0,0,1.28,1.23A1.78,1.78,0,0,0,14,24.45,2.44,2.44,0,0,0,14,23.9Z"/><path class="cls-3" d="M7.16,21.11l.18-.21a1.82,1.82,0,0,1-.11-.3l-.6-2.09a2,2,0,0,1,1-2.29,10.25,10.25,0,0,1,5-1.17,7.34,7.34,0,0,1,4,1V12.58a2,2,0,0,1,2-2h3.23a1.92,1.92,0,0,1,1,.27A10,10,0,1,0,7.16,21.11Z"/><path class="cls-3" d="M18.46,27.68c.05-.68.09-1.93.09-3.1v-12h3.23v5.93h0A3.68,3.68,0,0,1,25,17.05c2.49,0,4.32,2.06,4.3,5.25,0,3.74-2.38,5.62-4.77,5.62a3.45,3.45,0,0,1-3.12-1.68h-.05l-.12,1.44Zm3.32-4.42a2.49,2.49,0,0,0,.06.57,2,2,0,0,0,1.9,1.53c1.38,0,2.23-1.06,2.23-2.93,0-1.62-.72-2.89-2.23-2.89a2,2,0,0,0-1.9,1.59,2.84,2.84,0,0,0-.06.6Z"/></svg>