<svg id="Calque_1" data-name="Calque 1" xmlns="http://www.w3.org/2000/svg" viewBox="0 0 32 32"><defs><style>.cls-1{fill:#e3e3e3;}</style></defs><title>leg_l</title><path class="cls-1" d="M27.45,13.22c-.58-1.93-2.83-.2-2.83-.2a3.42,3.42,0,0,1-2.54-.88,55.57,55.57,0,0,0-6.71-5.69C8.81,2,9.57,1.31,7.26.43s-2.19.8-2.49,1.72.49,3.12,1.47,2.71,1.53-1.55,2.44-1A44.24,44.24,0,0,1,21.5,13.52a5.24,5.24,0,0,0,3.38,2.6c.94.07,1-1.11,1-1.11S28,15.16,27.45,13.22Z"/><path class="cls-1" d="M3,2.32C2,3,2,3,2.23,5.3A3,3,0,0,0,4.48,8.06S4,1.68,3,2.32Z"/><path class="cls-1" d="M6.07,5c-.56,2.58.36,3.33.36,3.33s8.1,11.86,8.19,16.36a1.11,1.11,0,0,0-.52,1.16,2,2,0,0,0,2.81.81c1.21-.67,1-1.62.11-3.07S15.28,19,13.08,14.42s-3.35-6-3.52-7.69.3-2.12.3-2.12a2.55,2.55,0,0,1-1.92.88A3.6,3.6,0,0,1,6.07,5Z"/><path class="cls-1" d="M14.3,28a2.13,2.13,0,0,0,2.83.1c1.7-1.12,2.83.33,2.57,1s-.53,1.63-1.47,1.36-1.38-1-2.8-1-1.19.2-1.19.2L12,27s1-.44,1.43-.19A3.3,3.3,0,0,1,14.3,28Z"/><path class="cls-1" d="M10.48,27.42l2.74,2.94s-1.64-.53-2.36-.08a7,7,0,0,1-3.34.83c-1.18,0-2.58-.8-2.32-1.5s1.89.06,2.85-.38A13,13,0,0,0,10.48,27.42Z"/></svg>