<svg id="Calque_1" data-name="Calque 1" xmlns="http://www.w3.org/2000/svg" viewBox="0 0 32 32"><defs><style>.cls-1{fill:#e3e3e3;}</style></defs><title>list_l</title><path class="cls-1" d="M4.75,12A.72.72,0,0,1,4,11.24v-3a.72.72,0,0,1,.75-.75h3a.72.72,0,0,1,.75.75v3a.72.72,0,0,1-.75.75Zm0,7.5A.72.72,0,0,1,4,18.74v-3A.72.72,0,0,1,4.75,15h3a.72.72,0,0,1,.75.75v3a.72.72,0,0,1-.75.75Zm0,7.5A.72.72,0,0,1,4,26.24v-3a.72.72,0,0,1,.75-.75h3a.72.72,0,0,1,.75.75v3a.72.72,0,0,1-.75.75ZM10,10.68a.72.72,0,0,0,.75.75h16.5a.72.72,0,0,0,.75-.75V8.8a.72.72,0,0,0-.75-.75H10.75A.72.72,0,0,0,10,8.8Zm.75,8.25a.72.72,0,0,1-.75-.75V16.3a.72.72,0,0,1,.75-.75h16.5a.72.72,0,0,1,.75.75v1.88a.72.72,0,0,1-.75.75Zm0,7.5a.72.72,0,0,1-.75-.75V23.8a.72.72,0,0,1,.75-.75h16.5a.72.72,0,0,1,.75.75v1.88a.72.72,0,0,1-.75.75Z"/></svg>