<?xml version="1.0" encoding="UTF-8" standalone="no"?>
<!-- Created with Inkscape (http://www.inkscape.org/) -->

<svg
   xmlns:dc="http://purl.org/dc/elements/1.1/"
   xmlns:cc="http://creativecommons.org/ns#"
   xmlns:rdf="http://www.w3.org/1999/02/22-rdf-syntax-ns#"
   xmlns:svg="http://www.w3.org/2000/svg"
   xmlns="http://www.w3.org/2000/svg"
   xmlns:sodipodi="http://sodipodi.sourceforge.net/DTD/sodipodi-0.dtd"
   xmlns:inkscape="http://www.inkscape.org/namespaces/inkscape"
   width="32"
   height="32"
   viewBox="0 0 8.4666666 8.4666666"
   version="1.1"
   id="svg8"
   inkscape:version="0.92.5 (2060ec1f9f, 2020-04-08)"
   sodipodi:docname="load-text-file_bl.svg">
  <defs
     id="defs2" />
  <sodipodi:namedview
     id="base"
     pagecolor="#ffffff"
     bordercolor="#666666"
     borderopacity="1.0"
     inkscape:pageopacity="0.0"
     inkscape:pageshadow="2"
     inkscape:zoom="15.999999"
     inkscape:cx="-3.620978"
     inkscape:cy="12.188906"
     inkscape:document-units="mm"
     inkscape:current-layer="svg8"
     showgrid="false"
     units="px"
     inkscape:window-width="1920"
     inkscape:window-height="1043"
     inkscape:window-x="0"
     inkscape:window-y="120"
     inkscape:window-maximized="1">
    <sodipodi:guide
       position="8.4666666,0"
       orientation="-32,0"
       id="guide854"
       inkscape:locked="false" />
    <sodipodi:guide
       position="8.4666666,8.4666666"
       orientation="0,-32"
       id="guide856"
       inkscape:locked="false" />
    <sodipodi:guide
       position="0,8.4666814"
       orientation="1,6.123234e-17"
       id="guide858"
       inkscape:locked="false" />
  </sodipodi:namedview>
  <metadata
     id="metadata5">
    <rdf:RDF>
      <cc:Work
         rdf:about="">
        <dc:format>image/svg+xml</dc:format>
        <dc:type
           rdf:resource="http://purl.org/dc/dcmitype/StillImage" />
        <dc:title />
      </cc:Work>
    </rdf:RDF>
  </metadata>
  <path
     style="fill:#e3e3e3;fill-opacity:1;stroke-width:0.06254257"
     d="M 1.5019531 0 C 0.67013702 0 1.4802974e-16 0.67013698 0 1.5019531 L 0 30.521484 C 0 31.353299 0.67013702 32.021484 1.5019531 32.021484 L 22.515625 32.021484 C 23.347441 32.021484 24.015625 31.353299 24.015625 30.521484 L 24.015625 30.193359 C 21.7837 30.039479 19.612374 29.069405 18.029297 27.486328 C 17.055171 26.512202 16.318981 25.311991 15.853516 24.015625 L 6.7539062 24.015625 C 6.3411257 24.015625 6.0039062 23.678406 6.0039062 23.265625 L 6.0039062 22.765625 C 6.0039062 22.352844 6.3411269 22.015625 6.7539062 22.015625 L 15.371094 22.015625 C 15.323684 21.640084 15.291026 21.26166 15.291016 20.882812 C 15.291021 20.592239 15.307898 20.302651 15.335938 20.013672 L 6.7539062 20.013672 C 6.3411257 20.013672 6.0039062 19.676453 6.0039062 19.263672 L 6.0039062 18.763672 C 6.0039062 18.350891 6.3411269 18.011719 6.7539062 18.011719 L 15.759766 18.011719 C 15.988432 17.311811 16.302598 16.640501 16.685547 16.011719 L 6.7539062 16.011719 C 6.3411257 16.011719 6.0039062 15.672545 6.0039062 15.259766 L 6.0039062 14.759766 C 6.0039062 14.346985 6.3411269 14.009766 6.7539062 14.009766 L 17.261719 14.009766 C 17.54609 14.009766 17.786818 14.175466 17.914062 14.410156 C 17.954072 14.368576 17.988482 14.322056 18.029297 14.28125 C 19.612374 12.698173 21.7837 11.728099 24.015625 11.574219 L 24.015625 10.005859 L 15.509766 10.005859 C 14.684204 10.005859 14.009766 9.3314216 14.009766 8.5058594 L 14.009766 0 L 1.5019531 0 z M 16.011719 0 L 16.011719 8.0058594 L 24.015625 8.0058594 L 24.015625 7.6230469 C 24.015625 7.2290285 23.859568 6.8478488 23.578125 6.5664062 L 17.455078 0.4375 C 17.173636 0.15605843 16.792851 7.4014868e-17 16.392578 0 L 16.011719 0 z "
     transform="scale(0.26458333)"
     id="path821" />
  <path
     style="fill:#8ad891;fill-opacity:1;stroke-width:0.06254257"
     d="M 24.634766 13.503906 A 7.3802524 7.3802524 0 0 0 17.253906 20.884766 A 7.3802524 7.3802524 0 0 0 24.634766 28.265625 A 7.3802524 7.3802524 0 0 0 32.015625 20.884766 A 7.3802524 7.3802524 0 0 0 24.634766 13.503906 z M 25.638672 15.933594 C 25.76035 15.919304 25.890159 15.956614 25.992188 16.058594 L 27.697266 17.763672 C 27.865912 17.932258 27.867792 18.206382 27.699219 18.375 L 25.992188 20.080078 C 25.720147 20.352115 25.253929 20.158077 25.253906 19.773438 L 25.253906 18.712891 C 24.483735 18.738171 23.763896 19.049559 23.216797 19.597656 C 22.23205 20.583879 22.057358 22.110998 22.759766 23.283203 C 22.810866 23.368633 22.798866 23.476557 22.728516 23.546875 L 21.998047 24.277344 C 21.902627 24.372704 21.744104 24.357474 21.667969 24.246094 C 20.481378 22.508917 20.661271 20.119994 22.203125 18.578125 C 23.048539 17.732697 24.146084 17.296606 25.253906 17.271484 L 25.253906 16.363281 C 25.253908 16.122828 25.435888 15.957303 25.638672 15.933594 z "
     transform="scale(0.26458333)"
     id="path817" />
</svg>
