<?xml version="1.0" encoding="UTF-8" standalone="no"?>
<!-- Created with Inkscape (http://www.inkscape.org/) -->

<svg
   xmlns:dc="http://purl.org/dc/elements/1.1/"
   xmlns:cc="http://creativecommons.org/ns#"
   xmlns:rdf="http://www.w3.org/1999/02/22-rdf-syntax-ns#"
   xmlns:svg="http://www.w3.org/2000/svg"
   xmlns="http://www.w3.org/2000/svg"
   xmlns:sodipodi="http://sodipodi.sourceforge.net/DTD/sodipodi-0.dtd"
   xmlns:inkscape="http://www.inkscape.org/namespaces/inkscape"
   width="32"
   height="32"
   viewBox="0 0 8.4666666 8.4666666"
   version="1.1"
   id="svg8"
   inkscape:version="0.92.5 (2060ec1f9f, 2020-04-08)"
   sodipodi:docname="load-code-file_bl.svg">
  <defs
     id="defs2" />
  <sodipodi:namedview
     id="base"
     pagecolor="#ffffff"
     bordercolor="#666666"
     borderopacity="1.0"
     inkscape:pageopacity="0.0"
     inkscape:pageshadow="2"
     inkscape:zoom="0.99999994"
     inkscape:cx="-215.77297"
     inkscape:cy="2.5913453"
     inkscape:document-units="mm"
     inkscape:current-layer="svg8"
     showgrid="false"
     units="px"
     inkscape:window-width="1848"
     inkscape:window-height="1136"
     inkscape:window-x="1920"
     inkscape:window-y="27"
     inkscape:window-maximized="1">
    <sodipodi:guide
       position="8.4666666,0"
       orientation="-32,0"
       id="guide854"
       inkscape:locked="false" />
    <sodipodi:guide
       position="8.4666666,8.4666666"
       orientation="0,-32"
       id="guide856"
       inkscape:locked="false" />
    <sodipodi:guide
       position="0,8.4666814"
       orientation="1,6.123234e-17"
       id="guide858"
       inkscape:locked="false" />
  </sodipodi:namedview>
  <metadata
     id="metadata5">
    <rdf:RDF>
      <cc:Work
         rdf:about="">
        <dc:format>image/svg+xml</dc:format>
        <dc:type
           rdf:resource="http://purl.org/dc/dcmitype/StillImage" />
        <dc:title></dc:title>
      </cc:Work>
    </rdf:RDF>
  </metadata>
  <path
     style="fill:#e3e3e3;fill-opacity:1;stroke-width:0.06231719"
     d="M 1.65625 0 C 0.83023426 0 0.16015625 0.67007913 0.16015625 1.4960938 L 0.16015625 30.410156 C 0.16015625 31.23617 0.83023426 31.90625 1.65625 31.90625 L 22.59375 31.90625 C 22.892028 31.90625 23.745606 31.476712 24.029297 31.296875 C 21.616394 31.246323 19.234363 30.242177 17.527344 28.535156 C 16.108986 27.116799 15.182789 25.23084 14.876953 23.25 L 13.078125 24.935547 C 12.960814 25.045535 12.774045 25.039172 12.664062 24.921875 L 11.611328 23.796875 C 11.498866 23.676976 11.507474 23.487538 11.630859 23.378906 L 13.828125 21.443359 L 11.630859 19.509766 C 11.507481 19.401127 11.498872 19.213654 11.611328 19.09375 L 12.664062 17.964844 C 12.719052 17.906184 12.794662 17.875447 12.869141 17.873047 C 12.943621 17.870647 13.019467 17.896162 13.078125 17.951172 L 15.003906 19.757812 C 15.4017 18.029251 16.272416 16.407271 17.527344 15.152344 C 19.246341 13.433345 21.649836 12.425978 24.080078 12.388672 C 24.085286 11.698093 24.077881 10.457234 24.089844 9.9707031 L 15.615234 9.9707031 C 14.79265 9.9707031 14.119141 9.2971963 14.119141 8.4746094 L 14.119141 0 L 1.65625 0 z M 16.113281 0 L 16.113281 7.9765625 L 24.089844 7.9765625 L 24.089844 7.5996094 C 24.089823 7.2029487 23.932796 6.8215284 23.652344 6.5410156 L 17.548828 0.4375 C 17.268338 0.15707266 16.886884 7.4014868e-17 16.490234 0 L 16.113281 0 z M 9.8984375 15.244141 L 11.380859 15.671875 C 11.535299 15.716725 11.62298 15.880717 11.578125 16.035156 L 8.2675781 27.445312 C 8.2228321 27.599776 8.0587212 27.689406 7.9042969 27.644531 L 6.4257812 27.214844 C 6.2713668 27.169949 6.1817767 27.006001 6.2265625 26.851562 L 9.5410156 15.443359 C 9.5858606 15.288944 9.7439984 15.199355 9.8984375 15.244141 z M 4.9355469 17.873047 C 5.0100249 17.875447 5.0836827 17.906194 5.1386719 17.964844 L 6.1933594 19.09375 C 6.3058217 19.213654 6.2991685 19.401127 6.1757812 19.509766 L 3.9785156 21.443359 L 6.1757812 23.378906 C 6.2991591 23.487544 6.3058122 23.676971 6.1933594 23.796875 L 5.1386719 24.921875 C 5.0286934 25.039196 4.8438738 25.045558 4.7265625 24.935547 L 1.2304688 21.658203 C 1.1077705 21.543173 1.1077537 21.347467 1.2304688 21.232422 L 4.7265625 17.951172 C 4.7852205 17.896172 4.8610692 17.870647 4.9355469 17.873047 z "
     transform="scale(0.26458333)"
     id="path1026" />
  <path
     style="fill:#8ad891;fill-opacity:1;stroke-width:0.06281408"
     d="M 24.21875 14.0625 A 7.7812489 7.7812489 0 0 0 16.4375 21.84375 A 7.7812489 7.7812489 0 0 0 24.21875 29.625 A 7.7812489 7.7812489 0 0 0 32 21.84375 A 7.7812489 7.7812489 0 0 0 24.21875 14.0625 z M 25.277344 16.623047 C 25.405628 16.608047 25.542818 16.648287 25.650391 16.755859 L 27.449219 18.552734 C 27.627027 18.730478 27.626999 19.019485 27.449219 19.197266 L 25.650391 20.996094 C 25.363568 21.28291 24.873072 21.077414 24.873047 20.671875 L 24.873047 19.552734 C 24.061027 19.579384 23.301434 19.908451 22.724609 20.486328 C 21.686357 21.526136 21.501614 23.137151 22.242188 24.373047 C 22.296057 24.463117 22.283164 24.576259 22.208984 24.650391 L 21.439453 25.419922 C 21.338849 25.520466 21.172068 25.504169 21.091797 25.386719 C 19.840733 23.555172 20.028668 21.037754 21.654297 19.412109 C 22.545646 18.520746 23.705032 18.061643 24.873047 18.035156 L 24.873047 17.076172 C 24.873048 16.822653 25.063539 16.648046 25.277344 16.623047 z "
     transform="scale(0.26458333)"
     id="path833" />
</svg>
