<?xml version="1.0" encoding="UTF-8" standalone="no"?>
<svg
   xmlns:dc="http://purl.org/dc/elements/1.1/"
   xmlns:cc="http://creativecommons.org/ns#"
   xmlns:rdf="http://www.w3.org/1999/02/22-rdf-syntax-ns#"
   xmlns:svg="http://www.w3.org/2000/svg"
   xmlns="http://www.w3.org/2000/svg"
   xmlns:sodipodi="http://sodipodi.sourceforge.net/DTD/sodipodi-0.dtd"
   xmlns:inkscape="http://www.inkscape.org/namespaces/inkscape"
   id="Calque_1"
   data-name="Calque 1"
   viewBox="0 0 32 32"
   version="1.1"
   sodipodi:docname="magic_l.svg"
   inkscape:export-filename="C:\DEV_SRC\RxUI\Icons\shared\18w\w18_magic_l.png"
   inkscape:export-xdpi="54"
   inkscape:export-ydpi="54"
   inkscape:version="0.92.4 (5da689c313, 2019-01-14)">
  <metadata
     id="metadata13">
    <rdf:RDF>
      <cc:Work
         rdf:about="">
        <dc:format>image/svg+xml</dc:format>
        <dc:type
           rdf:resource="http://purl.org/dc/dcmitype/StillImage" />
      </cc:Work>
    </rdf:RDF>
  </metadata>
  <sodipodi:namedview
     pagecolor="#ffffff"
     bordercolor="#666666"
     borderopacity="1"
     objecttolerance="10"
     gridtolerance="10"
     guidetolerance="10"
     inkscape:pageopacity="0"
     inkscape:pageshadow="2"
     inkscape:window-width="1920"
     inkscape:window-height="1137"
     id="namedview11"
     showgrid="false"
     inkscape:zoom="2.6074563"
     inkscape:cx="-45.022554"
     inkscape:cy="25.155535"
     inkscape:window-x="-8"
     inkscape:window-y="-8"
     inkscape:window-maximized="1"
     inkscape:current-layer="Calque_1" />
  <defs
     id="defs4">
    <style
       id="style2">.cls-1{fill:#e3e3e3;}</style>
  </defs>
  <title
     id="title6">magic_l</title>
  <path
     class="cls-1"
     d="M30,8a1.74,1.74,0,0,1,.47,1.19A1.55,1.55,0,0,1,30,10.31L11.18,29.1a1.55,1.55,0,0,1-1.14.47,1.74,1.74,0,0,1-1.19-.47L4.46,24.71A1.75,1.75,0,0,1,4,23.53a1.59,1.59,0,0,1,.46-1.14L23.26,3.6a1.55,1.55,0,0,1,1.14-.47,1.72,1.72,0,0,1,1.18.47ZM8.13,11.39,6.74,8.66,4,7.26,6.74,5.87,8.13,3.13l1.4,2.74,2.73,1.39L9.53,8.66Zm7.44-3.3-.83-1.65-1.65-.83,1.65-.83.83-1.65.82,1.65L18,5.61l-1.65.83Zm7,5.52L27,9.17,24.4,6.54,20,11ZM26.31,18l1.39,2.74,2.74,1.39-2.74,1.4-1.39,2.73-1.4-2.73-2.73-1.4,2.73-1.39Z"
     id="path8"
     style="fill:#e3e3e3;fill-opacity:1" />
</svg>
