<svg id="Calque_1" data-name="Calque 1" xmlns="http://www.w3.org/2000/svg" viewBox="0 0 32 32"><defs><style>.cls-1{fill:#e3e3e3;}</style></defs><title>masterprops_l</title><path class="cls-1" d="M25.62,14.78H18.75l.5,2.91a4,4,0,0,1,0,.54,2.43,2.43,0,0,1-2.42,2.5,2.82,2.82,0,0,1-1.35-.36l-1.84-1v7.33A3.33,3.33,0,0,0,17,30.06h8.61A3.34,3.34,0,0,0,29,26.73V18.11A3.34,3.34,0,0,0,25.62,14.78Z"/><path class="cls-1" d="M3.61,9c0-.3.32-.42.56-.46l5-.74,2.26-4.56c.09-.19.26-.42.49-.42s.4.23.5.42l2.25,4.56,5,.74c.26,0,.57.16.57.46a.78.78,0,0,1-.25.48L16.41,13l.86,5a1.36,1.36,0,0,1,0,.2c0,.26-.13.5-.42.5a.84.84,0,0,1-.4-.12L12,16.24,7.45,18.61a.81.81,0,0,1-.4.12c-.29,0-.41-.24-.41-.5a1.34,1.34,0,0,1,0-.2l.87-5L3.87,9.45A.74.74,0,0,1,3.61,9Z"/></svg>