<?xml version="1.0" encoding="UTF-8" standalone="no"?>
<!-- Created with Inkscape (http://www.inkscape.org/) -->

<svg
   xmlns:dc="http://purl.org/dc/elements/1.1/"
   xmlns:cc="http://creativecommons.org/ns#"
   xmlns:rdf="http://www.w3.org/1999/02/22-rdf-syntax-ns#"
   xmlns:svg="http://www.w3.org/2000/svg"
   xmlns="http://www.w3.org/2000/svg"
   xmlns:sodipodi="http://sodipodi.sourceforge.net/DTD/sodipodi-0.dtd"
   xmlns:inkscape="http://www.inkscape.org/namespaces/inkscape"
   width="32"
   height="32"
   viewBox="0 0 8.4666666 8.4666666"
   version="1.1"
   id="svg8"
   inkscape:version="0.92.5 (2060ec1f9f, 2020-04-08)"
   sodipodi:docname="maximize_bl.svg">
  <defs
     id="defs2">
    <style
       id="style1399">.cls-1{fill:#e3e3e3;}</style>
    <style
       id="style1399-1">.cls-1{fill:#e3e3e3;}</style>
    <style
       id="style1399-5">.cls-1{fill:#e3e3e3;}</style>
    <style
       id="style1399-8">.cls-1{fill:#e3e3e3;}</style>
    <style
       id="style1399-7">.cls-1{fill:#e3e3e3;}</style>
    <style
       id="style1399-1-5">.cls-1{fill:#e3e3e3;}</style>
    <style
       id="style1399-5-6">.cls-1{fill:#e3e3e3;}</style>
    <style
       id="style1399-8-9">.cls-1{fill:#e3e3e3;}</style>
    <style
       id="style1399-2">.cls-1{fill:#e3e3e3;}</style>
    <style
       id="style1399-1-1">.cls-1{fill:#e3e3e3;}</style>
    <style
       id="style1399-5-5">.cls-1{fill:#e3e3e3;}</style>
    <style
       id="style1399-8-99">.cls-1{fill:#e3e3e3;}</style>
    <style
       id="style857">.cls-1{fill:#e52120;}.cls-1,.cls-2,.cls-3,.cls-4,.cls-5{stroke:#000;stroke-miterlimit:10;stroke-width:1.2px;}.cls-2{fill:#6dbc88;}.cls-3{fill:#701034;}.cls-4{fill:#51aae0;}.cls-5{fill:none;}</style>
    <style
       id="style1399-3">.cls-1{fill:#e3e3e3;}</style>
    <style
       id="style1399-1-8">.cls-1{fill:#e3e3e3;}</style>
    <style
       id="style1399-5-56">.cls-1{fill:#e3e3e3;}</style>
    <style
       id="style1399-8-1">.cls-1{fill:#e3e3e3;}</style>
    <style
       id="style1399-7-1">.cls-1{fill:#e3e3e3;}</style>
    <style
       id="style1399-1-5-5">.cls-1{fill:#e3e3e3;}</style>
    <style
       id="style1399-5-6-9">.cls-1{fill:#e3e3e3;}</style>
    <style
       id="style1399-8-9-8">.cls-1{fill:#e3e3e3;}</style>
    <style
       id="style1399-2-4">.cls-1{fill:#e3e3e3;}</style>
    <style
       id="style1399-1-1-8">.cls-1{fill:#e3e3e3;}</style>
    <style
       id="style1399-5-5-1">.cls-1{fill:#e3e3e3;}</style>
    <style
       id="style1399-8-99-0">.cls-1{fill:#e3e3e3;}</style>
    <style
       id="style857-3">.cls-1{fill:#e52120;}.cls-1,.cls-2,.cls-3,.cls-4,.cls-5{stroke:#000;stroke-miterlimit:10;stroke-width:1.2px;}.cls-2{fill:#6dbc88;}.cls-3{fill:#701034;}.cls-4{fill:#51aae0;}.cls-5{fill:none;}</style>
  </defs>
  <sodipodi:namedview
     id="base"
     pagecolor="#ffffff"
     bordercolor="#666666"
     borderopacity="1.0"
     inkscape:pageopacity="0.0"
     inkscape:pageshadow="2"
     inkscape:zoom="22.627416"
     inkscape:cx="6.8965819"
     inkscape:cy="11.348322"
     inkscape:document-units="mm"
     inkscape:current-layer="svg8"
     showgrid="false"
     units="px"
     inkscape:window-width="1920"
     inkscape:window-height="1043"
     inkscape:window-x="0"
     inkscape:window-y="120"
     inkscape:window-maximized="1">
    <sodipodi:guide
       position="8.4666666,0"
       orientation="-32,0"
       id="guide854"
       inkscape:locked="false" />
    <sodipodi:guide
       position="8.4666666,8.4666666"
       orientation="0,-32"
       id="guide856"
       inkscape:locked="false" />
    <sodipodi:guide
       position="0,8.4666814"
       orientation="1,6.123234e-17"
       id="guide858"
       inkscape:locked="false" />
  </sodipodi:namedview>
  <metadata
     id="metadata5">
    <rdf:RDF>
      <cc:Work
         rdf:about="">
        <dc:format>image/svg+xml</dc:format>
        <dc:type
           rdf:resource="http://purl.org/dc/dcmitype/StillImage" />
        <dc:title />
      </cc:Work>
    </rdf:RDF>
  </metadata>
  <path
     style="opacity:1;fill:#83d3f6;fill-opacity:1;stroke:none;stroke-width:1.88627958;stroke-linecap:round;stroke-linejoin:round;stroke-miterlimit:10;stroke-dasharray:none;stroke-opacity:1"
     d="m 16.298828,0.10546875 c -0.221971,0 -0.443939,0.0845626 -0.613281,0.25390625 l -5.580078,5.5800781 c -0.5463725,0.54637 -0.1594207,1.4804688 0.613281,1.4804688 h 11.160156 c 0.772698,0 1.159695,-0.9340988 0.613282,-1.4804688 L 16.912109,0.359375 C 16.742764,0.19003138 16.520799,0.10546875 16.298828,0.10546875 Z"
     transform="scale(0.26458333)"
     id="path855" />
  <path
     style="opacity:1;fill:#e3e3ef;fill-opacity:0.94117647;stroke:none;stroke-width:1.88627958;stroke-linecap:round;stroke-linejoin:round;stroke-miterlimit:10;stroke-dasharray:none;stroke-opacity:1"
     d="M 6.8574219 9.2128906 C 5.7250762 9.2128906 4.8125 10.125472 4.8125 11.257812 L 4.8125 29.919922 C 4.8125 31.052268 5.7250762 31.962891 6.8574219 31.962891 L 25.517578 31.962891 C 26.649924 31.962891 27.5625 31.052268 27.5625 29.919922 L 27.5625 11.257812 C 27.5625 10.125472 26.649924 9.2128906 25.517578 9.2128906 L 6.8574219 9.2128906 z M 7.9238281 11.080078 L 24.496094 11.080078 C 25.209964 11.080078 25.785156 11.655271 25.785156 12.369141 L 25.785156 12.945312 C 25.785156 13.659183 25.209964 14.234375 24.496094 14.234375 L 7.9238281 14.234375 C 7.2099574 14.234375 6.6347656 13.659183 6.6347656 12.945312 L 6.6347656 12.369141 C 6.6347656 11.655271 7.2099574 11.080078 7.9238281 11.080078 z M 11.068359 16.308594 L 15.152344 16.308594 L 15.152344 17.365234 L 14.724609 17.365234 C 13.941734 17.367234 13.293375 18.008183 13.285156 18.791016 L 13.285156 18.794922 L 13.285156 19.53125 C 13.287256 20.319729 13.938086 20.968641 14.726562 20.970703 L 15.152344 20.970703 L 15.152344 21.667969 L 14.386719 21.667969 C 13.870736 21.670869 13.442299 22.101206 13.439453 22.617188 L 13.439453 23.107422 C 13.439461 23.346432 13.258533 23.529373 13.019531 23.53125 L 12.291016 23.53125 C 12.051431 23.531251 11.868512 23.348948 11.869141 23.109375 L 11.869141 23.107422 L 11.869141 22.617188 C 11.866241 22.098115 11.434823 21.666438 10.916016 21.667969 L 9.7773438 21.667969 L 9.7773438 17.601562 C 9.7773438 16.885781 10.352576 16.308594 11.068359 16.308594 z M 16.171875 16.308594 L 21.294922 16.308594 C 22.010705 16.308594 22.585938 16.885784 22.585938 17.601562 L 22.585938 22.685547 L 21.488281 22.685547 L 21.488281 22.267578 C 21.490381 21.476172 20.838284 20.822263 20.046875 20.822266 L 19.3125 20.822266 L 19.306641 20.822266 C 18.519585 20.828466 17.87693 21.48051 17.876953 22.267578 L 17.876953 22.685547 L 16.171875 22.685547 L 16.171875 20.908203 L 16.171875 20.90625 C 16.173375 20.384362 15.738687 19.951583 15.216797 19.953125 L 14.730469 19.953125 L 14.726562 19.953125 C 14.489112 19.951225 14.306563 19.768683 14.304688 19.53125 L 14.304688 18.800781 C 14.307184 18.564924 14.489133 18.386645 14.724609 18.384766 L 15.208984 18.384766 C 15.734706 18.390566 16.174813 17.953488 16.171875 17.427734 L 16.171875 16.308594 z M 19.316406 21.841797 L 20.046875 21.841797 C 20.286459 21.841796 20.469379 22.024093 20.46875 22.263672 L 20.46875 22.267578 L 20.46875 22.757812 C 20.47155 23.277695 20.905899 23.707959 21.425781 23.705078 L 22.585938 23.705078 L 22.585938 27.826172 C 22.585938 28.541955 22.010705 29.119141 21.294922 29.119141 L 17.183594 29.119141 L 17.183594 28.009766 L 17.613281 28.009766 C 18.396156 28.007766 19.044509 27.364865 19.052734 26.582031 L 19.052734 25.84375 C 19.050634 25.055273 18.399806 24.404415 17.611328 24.402344 L 17.183594 24.402344 L 17.183594 23.705078 L 17.947266 23.705078 L 17.949219 23.705078 C 18.465213 23.702278 18.895593 23.273795 18.898438 22.757812 L 18.898438 22.267578 C 18.89843 22.028568 19.077387 21.843679 19.316406 21.841797 z M 9.7773438 22.685547 L 10.847656 22.685547 L 10.847656 23.107422 C 10.845556 23.898828 11.499606 24.550783 12.291016 24.550781 L 13.025391 24.550781 C 13.812436 24.544581 14.459009 23.89449 14.458984 23.107422 L 14.458984 22.685547 L 16.166016 22.685547 L 16.166016 24.46875 C 16.164516 24.99065 16.597241 25.423417 17.119141 25.421875 L 17.611328 25.421875 C 17.849597 25.423775 18.030626 25.609004 18.03125 25.847656 L 18.03125 26.572266 C 18.02875 26.80896 17.848038 26.989626 17.611328 26.990234 L 17.128906 26.990234 C 16.603176 26.984434 16.163079 27.421511 16.166016 27.947266 L 16.166016 29.119141 L 11.068359 29.119141 C 10.352576 29.119141 9.7773437 28.541955 9.7773438 27.826172 L 9.7773438 22.685547 z "
     transform="scale(0.26458333)"
     id="path853" />
  <style
     id="style815"
     type="text/css">
	.st0{fill:#00005B;}
	.st1{fill:#9999FF;}
</style>
  <style
     type="text/css"
     id="style815-7">
	.st0{fill:#00005B;}
	.st1{fill:#9999FF;}
</style>
</svg>
