<svg id="Calque_1" data-name="Calque 1" xmlns="http://www.w3.org/2000/svg" viewBox="0 0 32 32"><defs><style>.cls-1{fill:#e3e3e3;}</style></defs><title>minus_l</title><path class="cls-1" d="M16.64,3a13.27,13.27,0,0,1,6.87,1.86,13.83,13.83,0,0,1,5,5,13.62,13.62,0,0,1,0,13.74,13.83,13.83,0,0,1-5,5,13.27,13.27,0,0,1-6.87,1.86,13.26,13.26,0,0,1-6.86-1.86,13.94,13.94,0,0,1-5-5,13.68,13.68,0,0,1,0-13.74,13.94,13.94,0,0,1,5-5A13.26,13.26,0,0,1,16.64,3Zm-7.31,16H24a.65.65,0,0,0,.47-.2.63.63,0,0,0,.19-.47v-3.1a.63.63,0,0,0-.19-.47.65.65,0,0,0-.47-.2H9.33a.65.65,0,0,0-.47.2.63.63,0,0,0-.19.47v3.1a.63.63,0,0,0,.19.47A.65.65,0,0,0,9.33,18.93Z"/></svg>