<svg id="Calque_1" data-name="Calque 1" xmlns="http://www.w3.org/2000/svg" viewBox="0 0 32 32"><defs><style>.cls-1{fill:none;stroke:#e3e3e3;stroke-miterlimit:10;stroke-width:2px;}.cls-2{fill:#e3e3e3;}</style></defs><title>moveaway_l</title><path class="cls-1" d="M8.15,17.55a5.89,5.89,0,0,0-5.29,4.63,4.47,4.47,0,0,0,0,2.46,5.88,5.88,0,0,0,9.84,2.78,5.78,5.78,0,0,0,1.67-4.37"/><circle class="cls-2" cx="23.63" cy="8.31" r="5.81"/><path class="cls-2" d="M18.11,13.83a7.74,7.74,0,0,1-2.24-4.66H10.58a1.41,1.41,0,0,0-1,.41,1.47,1.47,0,0,0-.42,1v1.19a1.52,1.52,0,0,0,.43,1,1.46,1.46,0,0,0,1,.42h4.69L9.65,18.86a1.45,1.45,0,0,0,0,2l1,1a1.45,1.45,0,0,0,2,0l5.61-5.61V21a1.44,1.44,0,0,0,.42,1,1.5,1.5,0,0,0,1,.43H21A1.5,1.5,0,0,0,22,22a1.44,1.44,0,0,0,.42-1V16A7.8,7.8,0,0,1,18.11,13.83Z"/></svg>