<svg id="Calque_1" data-name="Calque 1" xmlns="http://www.w3.org/2000/svg" viewBox="0 0 32 32"><defs><style>.cls-1{fill:#e3e3e3;}</style></defs><title>next_l</title><path class="cls-1" d="M16.5,29a13,13,0,1,0-13-13A13,13,0,0,0,16.5,29Zm-7-13.4a1.22,1.22,0,0,1,1.2-1.31h7.21l-3-3a1.29,1.29,0,0,1,0-1.85l.77-.78a1.32,1.32,0,0,1,.92-.37,1.38,1.38,0,0,1,.93.37l6.67,6.68a1.34,1.34,0,0,1,.38.92,1.37,1.37,0,0,1-.38.93l-6.67,6.66a1.31,1.31,0,0,1-.93.39,1.27,1.27,0,0,1-.92-.39l-.77-.76a1.29,1.29,0,0,1-.39-.93,1.31,1.31,0,0,1,.39-.93l3-3H10.7a1.22,1.22,0,0,1-1.2-1.31Z"/></svg>