<svg id="Calque_1" data-name="Calque 1" xmlns="http://www.w3.org/2000/svg" viewBox="0 0 32 32"><defs><style>.cls-1{fill:#e3e3e3;}.cls-2{fill:none;stroke:#e3e3e3;stroke-miterlimit:10;stroke-width:2px;}</style></defs><title>nextframe_l</title><path class="cls-1" d="M8.4,27.35a1.67,1.67,0,0,1-2.36,0L4.52,25.76A1.59,1.59,0,0,1,4,24.58a1.56,1.56,0,0,1,.49-1.17l6.65-6.65L4.52,10.11a1.65,1.65,0,0,1,0-2.35L6,6.16a1.61,1.61,0,0,1,1.18-.48,1.63,1.63,0,0,1,1.18.48l9.41,9.42a1.67,1.67,0,0,1,0,2.36Z"/><line class="cls-2" x1="22.61" y1="5" x2="22.61" y2="27.84"/></svg>