<svg id="Calque_1" data-name="Calque 1" xmlns="http://www.w3.org/2000/svg" viewBox="0 0 32 32"><defs><style>.cls-1{fill:#e3e3e3;}</style></defs><title>numlayers_l</title><polygon class="cls-1" points="12.31 6.89 10.84 5 2.67 15.5 10.84 26 12.32 24.1 5.62 15.49 12.31 6.89"/><path class="cls-1" d="M19.06,22.68l.55-3.81H17.89V16.92H20l.34-2.38H18.48v-2h2.11l.53-3.7H23l-.53,3.7h1.94L25,8.86h1.89l-.55,3.7H28v2H26l-.34,2.38h1.77v1.95H25.35l-.53,3.81H22.91l.53-3.81H21.5L21,22.68Zm4.72-5.76.34-2.38H22.18l-.34,2.38Z"/><path class="cls-1" d="M19.06,22.68l.55-3.81H17.89V16.92H20l.34-2.38H18.48v-2h2.11l.53-3.7H23l-.53,3.7h1.94L25,8.86h1.89l-.55,3.7H28v2H26l-.34,2.38h1.77v1.95H25.35l-.53,3.81H22.91l.53-3.81H21.5L21,22.68Zm4.72-5.76.34-2.38H22.18l-.34,2.38Z"/><path class="cls-1" d="M19.06,22.68l.55-3.81H17.89V16.92H20l.34-2.38H18.48v-2h2.11l.53-3.7H23l-.53,3.7h1.94L25,8.86h1.89l-.55,3.7H28v2H26l-.34,2.38h1.77v1.95H25.35l-.53,3.81H22.91l.53-3.81H21.5L21,22.68Zm4.72-5.76.34-2.38H22.18l-.34,2.38Z"/><path class="cls-1" d="M17.54,24a2,2,0,0,1-.46-1.59l.23-1.61a2,2,0,0,1-1.42-1.92V16.92a2,2,0,0,1,.76-1.58,1.94,1.94,0,0,1-.17-.8v-2a2,2,0,0,1,2-2h.37l.29-2a1.86,1.86,0,0,1,.1-.39L16.75,5,15.27,6.9,8.59,15.5l6.68,8.59L16.75,26,18,24.36A2,2,0,0,1,17.54,24Z"/><path class="cls-1" d="M19.06,22.68l.55-3.81H17.89V16.92H20l.34-2.38H18.48v-2h2.11l.53-3.7H23l-.53,3.7h1.94L25,8.86h1.89l-.55,3.7H28v2H26l-.34,2.38h1.77v1.95H25.35l-.53,3.81H22.91l.53-3.81H21.5L21,22.68Zm4.72-5.76.34-2.38H22.18l-.34,2.38Z"/></svg>