<?xml version="1.0" encoding="UTF-8" standalone="no"?>
<!-- Created with Inkscape (http://www.inkscape.org/) -->

<svg
   xmlns:dc="http://purl.org/dc/elements/1.1/"
   xmlns:cc="http://creativecommons.org/ns#"
   xmlns:rdf="http://www.w3.org/1999/02/22-rdf-syntax-ns#"
   xmlns:svg="http://www.w3.org/2000/svg"
   xmlns="http://www.w3.org/2000/svg"
   xmlns:sodipodi="http://sodipodi.sourceforge.net/DTD/sodipodi-0.dtd"
   xmlns:inkscape="http://www.inkscape.org/namespaces/inkscape"
   width="32"
   height="32"
   viewBox="0 0 8.4666666 8.4666666"
   version="1.1"
   id="svg8"
   inkscape:version="0.92.5 (2060ec1f9f, 2020-04-08)"
   sodipodi:docname="onionskin_sl.svg">
  <defs
     id="defs2">
    <style
       id="style1399">.cls-1{fill:#e3e3e3;}</style>
  </defs>
  <sodipodi:namedview
     id="base"
     pagecolor="#ffffff"
     bordercolor="#666666"
     borderopacity="1.0"
     inkscape:pageopacity="0.0"
     inkscape:pageshadow="2"
     inkscape:zoom="11.313709"
     inkscape:cx="-5.0546701"
     inkscape:cy="24.551172"
     inkscape:document-units="mm"
     inkscape:current-layer="svg8"
     showgrid="false"
     units="px"
     inkscape:window-width="1920"
     inkscape:window-height="1043"
     inkscape:window-x="0"
     inkscape:window-y="120"
     inkscape:window-maximized="1">
    <sodipodi:guide
       position="8.4666666,0"
       orientation="-32,0"
       id="guide854"
       inkscape:locked="false" />
    <sodipodi:guide
       position="8.4666666,8.4666666"
       orientation="0,-32"
       id="guide856"
       inkscape:locked="false" />
    <sodipodi:guide
       position="0,8.4666814"
       orientation="32,0"
       id="guide858"
       inkscape:locked="false" />
  </sodipodi:namedview>
  <metadata
     id="metadata5">
    <rdf:RDF>
      <cc:Work
         rdf:about="">
        <dc:format>image/svg+xml</dc:format>
        <dc:type
           rdf:resource="http://purl.org/dc/dcmitype/StillImage" />
        <dc:title></dc:title>
      </cc:Work>
    </rdf:RDF>
  </metadata>
  <path
     inkscape:connector-curvature="0"
     id="path862"
     d="M 4.2329879,0 3.895165,0.42043005 C 3.4958709,0.91726949 2.726734,1.5755037 2.0397359,2.3035521 1.3531706,3.0311408 0.70657361,3.8477899 0.65949258,4.8214877 c -0.001212,0.015843 -0.002424,0.031738 -0.002424,0.052316 0,1.9673628 1.60876342,3.5702697 3.58010332,3.5702697 1.9713409,0 3.5803403,-1.6028948 3.5803403,-3.5702697 0,-1.0593386 -0.6704909,-1.9303867 -1.3793772,-2.6606488 C 5.7292477,1.4828921 4.9352739,0.85249378 4.5760969,0.41625722 Z m 0.01251,1.3219458 c 0.4674072,0.4758169 1.0380831,0.9619187 1.5628432,1.5025027 0.6516858,0.6713344 1.1314002,1.3792459 1.1314002,2.0493579 0,0.4394788 -0.1052097,0.8533059 -0.2910128,1.2190417 0.064679,-0.2227093 0.099991,-0.4578755 0.099994,-0.7014506 0,-1.3871363 -1.6554894,-2.0248725 -2.511485,-2.8436444 h -7.88e-5 C 3.2443155,3.396397 1.7860898,4.1199263 1.7269318,5.3676392 c -7.679e-4,0.00779 -0.00121,0.015678 -0.00121,0.023678 0,0.2431915 0.035201,0.4780236 0.099679,0.7004264 C 1.6403137,5.7268595 1.5354347,5.3141007 1.5350945,4.8758496 v -9.523e-4 l 6.303e-4,-0.010155 C 1.5633675,4.283636 2.0375595,3.5843792 2.6778237,2.9058575 3.1989642,2.3535775 3.7709932,1.8320067 4.2454674,1.3218515 Z m -0.00831,2.8829806 c 0.5805175,0.5605858 1.7032751,0.9971972 1.7032751,1.9469255 0,0.2377462 -0.047814,0.4641876 -0.134216,0.6701389 0.013687,-0.085361 0.021167,-0.1728432 0.021167,-0.2621372 0,-0.8930481 -1.0481256,-1.3035993 -1.5900644,-1.8307264 H 4.2371979 C 3.6086168,5.2754865 2.6853729,5.7413085 2.6479196,6.544589 c -1.506e-4,0.00502 -5.48e-4,0.010112 -5.48e-4,0.015263 0,0.089705 0.00753,0.1775874 0.021323,0.263319 -0.08671,-0.2062658 -0.1346887,-0.4331228 -0.1346887,-0.6713208 0,-0.00545 3.151e-4,-0.010856 7.947e-4,-0.016207 C 2.5749186,5.2813756 3.5638844,4.785962 4.2372109,4.2049233 Z m 7.87e-5,1.9561326 A 0.64038703,0.64038703 0 0 1 4.8776656,6.8014582 0.64038703,0.64038703 0 0 1 4.2372654,7.4418586 0.64038703,0.64038703 0 0 1 3.5968653,6.8014582 0.64038703,0.64038703 0 0 1 4.2372654,6.161059 Z"
     style="color:#000000;font-style:normal;font-variant:normal;font-weight:normal;font-stretch:normal;font-size:medium;line-height:normal;font-family:sans-serif;font-variant-ligatures:normal;font-variant-position:normal;font-variant-caps:normal;font-variant-numeric:normal;font-variant-alternates:normal;font-feature-settings:normal;text-indent:0;text-align:start;text-decoration:none;text-decoration-line:none;text-decoration-style:solid;text-decoration-color:#000000;letter-spacing:normal;word-spacing:normal;text-transform:none;writing-mode:lr-tb;direction:ltr;text-orientation:mixed;dominant-baseline:auto;baseline-shift:baseline;text-anchor:start;white-space:normal;shape-padding:0;clip-rule:nonzero;display:inline;overflow:visible;visibility:visible;opacity:1;isolation:auto;mix-blend-mode:normal;color-interpolation:sRGB;color-interpolation-filters:linearRGB;solid-color:#000000;solid-opacity:1;vector-effect:none;fill:#e3e3e3;fill-opacity:1;fill-rule:nonzero;stroke:none;stroke-width:0.877675;stroke-linecap:round;stroke-linejoin:miter;stroke-miterlimit:4;stroke-dasharray:none;stroke-dashoffset:0;stroke-opacity:1;paint-order:normal;color-rendering:auto;image-rendering:auto;shape-rendering:auto;text-rendering:auto;enable-background:accumulate" />
</svg>
