<svg id="Calque_1" data-name="Calque 1" xmlns="http://www.w3.org/2000/svg" viewBox="0 0 32 32"><defs><style>.cls-1{fill:#e3e3e3;}</style></defs><title>onion_l</title><path class="cls-1" d="M25.58,7.33c-.06,1.07,0,2.22,0,3.44.07,3.79.15,8.08-1.95,11.13a5.58,5.58,0,0,1-4.86,2.63A10.23,10.23,0,0,1,12,21.6c-1.64-1.83-5.07-6.54-1.37-10.81,2.06-2.38,7-2.76,11-3.06,1.46-.11,2.8-.22,4-.4m3-3.22,0,0,0,0Zm0,0c-2.48,2.7-15,.18-19.43,5.34s-.93,10.88,1.39,13.46a12.26,12.26,0,0,0,8.29,3.59A7.58,7.58,0,0,0,25.25,23c4.32-6.27.83-16.16,3.25-18.9Z"/><path class="cls-1" d="M20.88,12.16c0,.43,0,.87,0,1.32,0,2.26.08,4.83-1.1,6.55a2.77,2.77,0,0,1-2.43,1.32,5.71,5.71,0,0,1-3.72-1.59c-1.11-1.24-2.7-3.64-.84-5.79,1.09-1.26,4-1.49,6.39-1.67l1.68-.14M23.5,9.29l0,0,0,0Zm0,0c-1.55,1.69-9.38.11-12.19,3.35s-.58,6.82.88,8.44a7.69,7.69,0,0,0,5.2,2.25,4.76,4.76,0,0,0,4.08-2.19c2.7-3.93.51-10.14,2-11.85Z"/><path class="cls-1" d="M17.17,16v.06c0,1.33.05,2.83-.57,3.74a1.06,1.06,0,0,1-.95.52,2.91,2.91,0,0,1-1.82-.77c-.67-.74-1.3-1.82-.53-2.71.5-.58,2.35-.72,3.57-.81l.29,0m2.39-2.61h0Zm0,0c-1,1.07-6,.07-7.75,2.13s-.37,4.33.56,5.36a4.88,4.88,0,0,0,3.3,1.43A3,3,0,0,0,18.25,21c1.72-2.5.33-6.44,1.3-7.53Z"/><path class="cls-1" d="M9.42,23C8.35,21.72,8,21.25,8,21.25s-1.69,2.1-3,2.51a2.81,2.81,0,0,0,3,.18,23.59,23.59,0,0,0-2.5,2.59c2.5.12,2.95-.77,2.95-.77a2.14,2.14,0,0,0,1,3.25c.34-1.69.5-3.33.5-3.33s.13.85,1.73,1.82a7.42,7.42,0,0,1-.58-2.95Z"/></svg>