<svg id="Calque_1" data-name="Calque 1" xmlns="http://www.w3.org/2000/svg" viewBox="0 0 32 32"><defs><style>.cls-1{fill:#e3e3e3;}</style></defs><title>oven_l</title><rect class="cls-1" x="6.63" y="23.71" width="2.62" height="4.29" rx="1.31"/><rect class="cls-1" x="22.77" y="23.71" width="2.63" height="4.29" rx="1.31"/><path class="cls-1" d="M27.33,5H5.17a3,3,0,0,0-3,3V21.86a3,3,0,0,0,3,3H27.33a3,3,0,0,0,3-3V8A3,3,0,0,0,27.33,5ZM21.83,22H5.25V8.08H21.83Zm4.26-3.1a2.42,2.42,0,1,1,2.41-2.42A2.42,2.42,0,0,1,26.09,18.9Zm0-6A2.42,2.42,0,1,1,28.5,10.5,2.42,2.42,0,0,1,26.09,12.92Z"/><path class="cls-1" d="M12.32,9.31l-2.4,2.25A2.47,2.47,0,0,0,10,15.22l0,0a2.48,2.48,0,0,1-.17,3.85L7.94,20.5"/><path class="cls-1" d="M15.6,9.31l-2.4,2.25a2.47,2.47,0,0,0,.05,3.66l0,0a2.47,2.47,0,0,1-.17,3.85l-1.91,1.4"/><path class="cls-1" d="M19.15,9.31l-2.4,2.25a2.46,2.46,0,0,0,.06,3.66l0,0a2.47,2.47,0,0,1-.17,3.85l-1.91,1.4"/></svg>