<svg id="Calque_1" data-name="Calque 1" xmlns="http://www.w3.org/2000/svg" viewBox="0 0 32 32"><defs><style>.cls-1{fill:#e3e3e3;}</style></defs><title>paintrig_l</title><path class="cls-1" d="M8.35,24.78a2.69,2.69,0,0,1,1.46-2.62,4.38,4.38,0,0,1,3.56.11L8.58,14.66c-.16-.27-.17-.27-.4-.06a4.93,4.93,0,0,1-5.43.77c-.09,0-.17-.13-.29-.11a.27.27,0,0,0,.08.22Z"/><path class="cls-1" d="M1,11A3.89,3.89,0,0,1,4.9,7.07,3.94,3.94,0,0,1,8.78,11,3.89,3.89,0,0,1,1,11Zm1.35,0a2.54,2.54,0,0,0,5.08,0,2.54,2.54,0,0,0-5.08,0Z"/><path class="cls-1" d="M12.74,25A1.77,1.77,0,1,1,11,26.77,1.77,1.77,0,0,1,12.74,25m0-2a3.77,3.77,0,1,0,3.77,3.77A3.77,3.77,0,0,0,12.74,23Z"/><path class="cls-1" d="M13,1.67a2.21,2.21,0,0,1,1.45.6l7.11,6.46a3.21,3.21,0,0,1,1,2.37,3.42,3.42,0,0,1-5.85,2.46c-1.4-1.28-4.32-6.74-5.19-8.39A3.73,3.73,0,0,1,11,3.49,1.89,1.89,0,0,1,13,1.67ZM23.13,13.2c2.51.11,4,.56,4.94,3a.64.64,0,0,0,.61.41c.47,0,1.91-1.15,2.32-1.43,0,3.43-1.64,6.44-5.42,6.44a5,5,0,0,1-5.33-5.37V15.5A4.54,4.54,0,0,0,23.13,13.2Z"/><path class="cls-1" d="M11,8.26l-.91.2c-.31.06-.31.06-.19.36a4.92,4.92,0,0,1-1.1,5.36c-.08.07-.18.12-.2.24s.16,0,.23,0l5.2-1.13C13.13,11.93,12,10.08,11,8.26Z"/></svg>