<svg id="Calque_1" data-name="Calque 1" xmlns="http://www.w3.org/2000/svg" viewBox="0 0 32 32"><defs><style>.cls-1{fill:none;stroke:#e3e3e3;stroke-linecap:round;stroke-linejoin:bevel;stroke-width:2px;}.cls-2{fill:#e3e3e3;}</style></defs><title>parenttocam_l</title><line class="cls-1" x1="5" y1="27.5" x2="19" y2="13.5"/><line class="cls-1" x1="17" y1="26.5" x2="17" y2="13.5"/><line class="cls-1" x1="27" y1="26.5" x2="17" y2="14.5"/><circle class="cls-2" cx="6.84" cy="26.31" r="4.16"/><circle class="cls-2" cx="16.84" cy="26.31" r="4.16"/><circle class="cls-2" cx="26.84" cy="26.31" r="4.16"/><circle class="cls-2" cx="12.93" cy="6.38" r="3.42"/><circle class="cls-2" cx="21.02" cy="5.63" r="4.98"/><path class="cls-2" d="M8.27,9.26a.51.51,0,0,1,.3-.46.65.65,0,0,1,.2,0,.49.49,0,0,1,.35.15l3.15,3.14V10.76a2.25,2.25,0,0,1,2.25-2.25H20a2.25,2.25,0,0,1,2.25,2.25v5.5A2.25,2.25,0,0,1,20,18.51h-5.5a2.25,2.25,0,0,1-2.25-2.25V15L9.12,18.11a.49.49,0,0,1-.35.15.45.45,0,0,1-.2,0,.51.51,0,0,1-.3-.46Z"/></svg>