<svg id="Calque_1" data-name="Calque 1" xmlns="http://www.w3.org/2000/svg" viewBox="0 0 32 32"><defs><style>.cls-1{fill:#e3e3e3;}</style></defs><title>paste_l</title><path class="cls-1" d="M9.42,12.76V24.4H4.2A1.14,1.14,0,0,1,3.35,24,1.15,1.15,0,0,1,3,23.19V6.34a1.15,1.15,0,0,1,.35-.85,1.13,1.13,0,0,1,.85-.35H8.27A2.78,2.78,0,0,1,9.42,4a3.21,3.21,0,0,1,3.21,0,2.78,2.78,0,0,1,1.15,1.18h4.07a1.2,1.2,0,0,1,1.2,1.2V10H12.23a2.83,2.83,0,0,0-2.81,2.81ZM11,5.54a1.15,1.15,0,0,0-.86.35,1.21,1.21,0,0,0,0,1.7,1.22,1.22,0,0,0,1.71,0,1.21,1.21,0,0,0,0-1.7A1.15,1.15,0,0,0,11,5.54ZM20.25,18a1.14,1.14,0,0,1-.85-.36,1.15,1.15,0,0,1-.35-.85V11.56H12.23a1.2,1.2,0,0,0-1.2,1.2V28a1.13,1.13,0,0,0,.35.85,1.15,1.15,0,0,0,.85.35h12a1.19,1.19,0,0,0,.85-.35,1.17,1.17,0,0,0,.35-.85V18Zm5.22-1.91a1.15,1.15,0,0,0-.35-.85l-3.31-3.31a1.15,1.15,0,0,0-.85-.35h-.31v4.81h4.82Z"/></svg>