<svg id="Calque_1" data-name="Calque 1" xmlns="http://www.w3.org/2000/svg" viewBox="0 0 32 32"><defs><style>.cls-1{fill:#e3e3e3;}</style></defs><title>penis_l</title><path class="cls-1" d="M20.42,14.52l-1.89-2.35a3.55,3.55,0,0,1-.7-1.51L17,7.5H13l-.81,2.22a3.56,3.56,0,0,1-.7,1.4L9.13,13.94a3.64,3.64,0,0,0,.22,4.91l.23.23a3.52,3.52,0,0,0,3.36.93l.19,0v.65a1.91,1.91,0,0,1-.53,1.48,1.76,1.76,0,0,0,.22,2.64l.73.59a2.33,2.33,0,0,0,2.85,0l1-.81a1.75,1.75,0,0,0,.46-2.32L17.71,22a1.88,1.88,0,0,1-.28-1V20.4a3.56,3.56,0,0,0,3.26-1.71v0A3.65,3.65,0,0,0,20.42,14.52Z"/></svg>