<?xml version="1.0" encoding="UTF-8" standalone="no"?>
<!-- Created with Inkscape (http://www.inkscape.org/) -->

<svg
   xmlns:dc="http://purl.org/dc/elements/1.1/"
   xmlns:cc="http://creativecommons.org/ns#"
   xmlns:rdf="http://www.w3.org/1999/02/22-rdf-syntax-ns#"
   xmlns:svg="http://www.w3.org/2000/svg"
   xmlns="http://www.w3.org/2000/svg"
   xmlns:sodipodi="http://sodipodi.sourceforge.net/DTD/sodipodi-0.dtd"
   xmlns:inkscape="http://www.inkscape.org/namespaces/inkscape"
   width="32"
   height="32"
   viewBox="0 0 8.4666666 8.4666666"
   version="1.1"
   id="svg8"
   inkscape:version="0.92.5 (2060ec1f9f, 2020-04-08)"
   sodipodi:docname="photoshop_sl.svg">
  <defs
     id="defs2">
    <style
       id="style1399">.cls-1{fill:#e3e3e3;}</style>
  </defs>
  <sodipodi:namedview
     id="base"
     pagecolor="#ffffff"
     bordercolor="#666666"
     borderopacity="1.0"
     inkscape:pageopacity="0.0"
     inkscape:pageshadow="2"
     inkscape:zoom="16"
     inkscape:cx="-1.1971186"
     inkscape:cy="16.702731"
     inkscape:document-units="mm"
     inkscape:current-layer="svg8"
     showgrid="false"
     units="px"
     inkscape:window-width="1920"
     inkscape:window-height="1043"
     inkscape:window-x="0"
     inkscape:window-y="120"
     inkscape:window-maximized="1">
    <sodipodi:guide
       position="8.4666666,0"
       orientation="-32,0"
       id="guide854"
       inkscape:locked="false" />
    <sodipodi:guide
       position="8.4666666,8.4666666"
       orientation="0,-32"
       id="guide856"
       inkscape:locked="false" />
    <sodipodi:guide
       position="0,8.4666814"
       orientation="32,0"
       id="guide858"
       inkscape:locked="false" />
  </sodipodi:namedview>
  <metadata
     id="metadata5">
    <rdf:RDF>
      <cc:Work
         rdf:about="">
        <dc:format>image/svg+xml</dc:format>
        <dc:type
           rdf:resource="http://purl.org/dc/dcmitype/StillImage" />
        <dc:title></dc:title>
      </cc:Work>
    </rdf:RDF>
  </metadata>
  <path
     inkscape:connector-curvature="0"
     id="path1057"
     style="font-style:normal;font-variant:normal;font-weight:bold;font-stretch:normal;font-size:10.58333302px;line-height:1.25;font-family:'Courier Prime Sans';-inkscape-font-specification:'Courier Prime Sans, Bold';font-variant-ligatures:normal;font-variant-caps:normal;font-variant-numeric:normal;font-feature-settings:normal;text-align:start;letter-spacing:0px;word-spacing:0px;writing-mode:lr-tb;text-anchor:start;fill:#e3e3e3;fill-opacity:1;stroke:none;stroke-width:0.23289122"
     d="m 2.0059499,1.7024249 q 0.6913958,0 1.1690047,0.2365302 0.477609,0.2319815 0.7141392,0.6641038 0.2410787,0.4275738 0.2410787,1.0188991 0,0.5913254 -0.2410787,1.0234478 Q 3.6525636,5.0775282 3.1749546,5.3140583 2.6973457,5.5460398 2.0059499,5.5460398 H 1.1417051 V 6.815115 q 0,0.1546543 -0.06823,0.2228841 -0.063681,0.063681 -0.2183355,0.063681 H 0.29110633 q -0.15465432,0 -0.22288417,-0.063681 Q 0.00454097,6.969769 0.00454097,6.815115 V 1.9889903 q 0,-0.1546543 0.06368119,-0.2183355 0.06822985,-0.06823 0.22288417,-0.06823 z M 1.8649415,4.4771055 q 0.5412901,0 0.8142096,-0.2092382 0.277468,-0.2092382 0.277468,-0.6459093 0,-0.436671 -0.277468,-0.6413606 Q 2.4062316,2.7713592 1.8649415,2.7713592 H 1.1417051 v 1.7057463 z" />
  <path
     inkscape:connector-curvature="0"
     id="path1059"
     style="font-style:normal;font-variant:normal;font-weight:bold;font-stretch:normal;font-size:10.58333302px;line-height:1.25;font-family:'Courier Prime Sans';-inkscape-font-specification:'Courier Prime Sans, Bold';font-variant-ligatures:normal;font-variant-caps:normal;font-variant-numeric:normal;font-feature-settings:normal;text-align:start;letter-spacing:0px;word-spacing:0px;writing-mode:lr-tb;text-anchor:start;fill:#e3e3e3;fill-opacity:1;stroke:none;stroke-width:0.23289122"
     d="m 6.527994,7.2017508 q -0.4730603,0 -0.9825098,-0.086424 Q 5.0405833,7.0334505 4.5720717,6.8742475 4.3400902,6.7923717 4.3400902,6.5467443 q 0,-0.1046192 0.040938,-0.2456275 0.1091678,-0.3820872 0.3411492,-0.3820872 0.045486,0 0.1137165,0.022743 0.8278554,0.2956627 1.5920298,0.2956627 0.4594143,0 0.6550066,-0.1000705 0.2001409,-0.1000704 0.2001409,-0.291114 0,-0.1046191 -0.1046192,-0.1637517 Q 7.0783815,5.6188183 6.8827893,5.5824291 6.7235863,5.5505885 6.3596937,5.5187479 5.8866334,5.47781 5.5545815,5.4186774 5.2225296,5.3549962 4.9496102,5.2139879 4.3355415,4.8955819 4.3355415,4.1677969 q 0,-0.4230251 0.2183356,-0.7323338 Q 4.7767612,3.1261545 5.177043,2.9624028 5.5818734,2.7986512 6.1186149,2.7986512 q 0.4730603,0 0.9779612,0.086424 0.5094495,0.081876 0.9779611,0.2410788 0.2319816,0.081876 0.2319816,0.3275033 0,0.1000704 -0.040939,0.2456274 -0.1091673,0.3820871 -0.341149,0.3820871 -0.04549,0 -0.1137163,-0.022743 -0.8278557,-0.2956627 -1.59203,-0.2956627 -0.3684412,0 -0.5412901,0.1000705 -0.1683003,0.095522 -0.1683003,0.2865653 0,0.095522 0.081875,0.1546544 0.081876,0.054584 0.2410789,0.086424 0.2001408,0.040938 0.5913253,0.063681 0.4230251,0.031841 0.7141391,0.077327 0.291114,0.040938 0.5458388,0.1364597 0.3638927,0.131911 0.5685823,0.3911844 0.2092386,0.2592735 0.2092386,0.6913959 0,0.436671 -0.2183356,0.7641743 Q 8.029051,6.8378582 7.5969283,7.0198046 7.1648059,7.2017508 6.527994,7.2017508 Z" />
</svg>
