<?xml version="1.0" encoding="UTF-8" standalone="no"?>
<!-- Created with Inkscape (http://www.inkscape.org/) -->

<svg
   xmlns:dc="http://purl.org/dc/elements/1.1/"
   xmlns:cc="http://creativecommons.org/ns#"
   xmlns:rdf="http://www.w3.org/1999/02/22-rdf-syntax-ns#"
   xmlns:svg="http://www.w3.org/2000/svg"
   xmlns="http://www.w3.org/2000/svg"
   xmlns:sodipodi="http://sodipodi.sourceforge.net/DTD/sodipodi-0.dtd"
   xmlns:inkscape="http://www.inkscape.org/namespaces/inkscape"
   width="32"
   height="32"
   viewBox="0 0 8.4666666 8.4666666"
   version="1.1"
   id="svg8"
   inkscape:version="0.92.5 (2060ec1f9f, 2020-04-08)"
   sodipodi:docname="pixel-format_sl.svg">
  <defs
     id="defs2">
    <style
       id="style1399">.cls-1{fill:#e3e3e3;}</style>
    <style
       id="style1399-4">.cls-1{fill:#e3e3e3;}</style>
    <style
       id="style1399-8">.cls-1{fill:#e3e3e3;}</style>
    <style
       id="style1399-4-5">.cls-1{fill:#e3e3e3;}</style>
    <style
       id="style1399-9">.cls-1{fill:#e3e3e3;}</style>
    <style
       id="style1399-4-6">.cls-1{fill:#e3e3e3;}</style>
    <style
       id="style1399-8-4">.cls-1{fill:#e3e3e3;}</style>
    <style
       id="style1399-4-5-3">.cls-1{fill:#e3e3e3;}</style>
    <style
       id="style1399-88">.cls-1{fill:#e3e3e3;}</style>
    <style
       id="style1399-3">.cls-1{fill:#e3e3e3;}</style>
    <style
       id="style1399-94">.cls-1{fill:#e3e3e3;}</style>
    <style
       id="style1399-5">.cls-1{fill:#e3e3e3;}</style>
    <style
       id="style1399-46">.cls-1{fill:#e3e3e3;}</style>
    <style
       id="style1399-4-2">.cls-1{fill:#e3e3e3;}</style>
    <style
       id="style1399-8-5">.cls-1{fill:#e3e3e3;}</style>
    <style
       id="style1399-4-5-8">.cls-1{fill:#e3e3e3;}</style>
    <style
       id="style1399-9-6">.cls-1{fill:#e3e3e3;}</style>
    <style
       id="style1399-4-6-2">.cls-1{fill:#e3e3e3;}</style>
    <style
       id="style1399-8-4-8">.cls-1{fill:#e3e3e3;}</style>
    <style
       id="style1399-4-5-3-4">.cls-1{fill:#e3e3e3;}</style>
    <style
       id="style1399-88-7">.cls-1{fill:#e3e3e3;}</style>
    <style
       id="style1399-3-2">.cls-1{fill:#e3e3e3;}</style>
    <style
       id="style1399-94-4">.cls-1{fill:#e3e3e3;}</style>
    <style
       id="style1399-5-0">.cls-1{fill:#e3e3e3;}</style>
  </defs>
  <sodipodi:namedview
     id="base"
     pagecolor="#ffffff"
     bordercolor="#666666"
     borderopacity="1.0"
     inkscape:pageopacity="0.0"
     inkscape:pageshadow="2"
     inkscape:zoom="8"
     inkscape:cx="-15.67081"
     inkscape:cy="18.35984"
     inkscape:document-units="mm"
     inkscape:current-layer="svg8"
     showgrid="false"
     units="px"
     inkscape:window-width="1920"
     inkscape:window-height="1043"
     inkscape:window-x="0"
     inkscape:window-y="120"
     inkscape:window-maximized="1">
    <sodipodi:guide
       position="8.4666666,0"
       orientation="-32,0"
       id="guide854"
       inkscape:locked="false" />
    <sodipodi:guide
       position="8.5622298,8.4657622"
       orientation="0,-32"
       id="guide856"
       inkscape:locked="false" />
    <sodipodi:guide
       position="0,8.4666814"
       orientation="32,0"
       id="guide858"
       inkscape:locked="false" />
  </sodipodi:namedview>
  <metadata
     id="metadata5">
    <rdf:RDF>
      <cc:Work
         rdf:about="">
        <dc:format>image/svg+xml</dc:format>
        <dc:type
           rdf:resource="http://purl.org/dc/dcmitype/StillImage" />
        <dc:title></dc:title>
      </cc:Work>
    </rdf:RDF>
  </metadata>
  <path
     style="opacity:1;fill:#e3e3e3;fill-opacity:1;stroke:none;stroke-width:0.82755244;stroke-linecap:round;stroke-linejoin:round;stroke-miterlimit:4;stroke-dasharray:none;stroke-dashoffset:10.3937006;stroke-opacity:1"
     d="M 4.5976562 0.00390625 L 4.5976562 4.5996094 L 9.1953125 4.5996094 L 9.1953125 0.00390625 L 4.5976562 0.00390625 z M 13.791016 4.5996094 L 13.791016 13.792969 L 9.1953125 13.792969 L 9.1953125 22.986328 L 15.988281 22.986328 C 15.904352 22.628286 15.908079 22.245886 16.025391 21.873047 C 16.438059 20.551016 17.133962 19.35048 18.048828 18.359375 C 18.713156 17.632048 19.810718 17.446315 20.683594 17.945312 A 1.7679437 1.7679437 0 0 1 20.699219 17.953125 L 21.119141 18.197266 C 21.128673 18.191752 21.138882 18.187112 21.148438 18.181641 L 21.148438 17.6875 C 21.148437 16.717812 21.820174 15.823942 22.810547 15.605469 L 22.818359 15.605469 C 22.872965 15.593309 22.929479 15.589316 22.984375 15.578125 L 22.984375 9.1972656 L 18.388672 9.1972656 L 18.388672 4.5996094 L 13.791016 4.5996094 z M 0 9.1445312 L 0 13.742188 L 4.5957031 13.742188 L 4.5957031 9.1445312 L 0 9.1445312 z "
     transform="scale(0.26458333)"
     id="rect5880" />
  <path
     style="fill:#e3e3e3;fill-opacity:1;stroke-width:0.00796504"
     inkscape:connector-curvature="0"
     d="M 8.4150642,6.9885169 8.0757536,6.7925816 c 0.034249,-0.1847936 0.034249,-0.3743575 0,-0.5591464 L 8.4150642,6.0374906 C 8.4540925,6.015179 8.4716159,5.968997 8.4588718,5.9259843 8.37046,5.6424272 8.2199206,5.3859521 8.0231845,5.1724896 7.9929174,5.1398625 7.9435338,5.1318807 7.9053017,5.1541456 L 7.565991,5.3500856 C 7.4234169,5.2274235 7.2593371,5.1326369 7.0817168,5.0705147 V 4.6794329 c 0,-0.044576 -0.031063,-0.083635 -0.074871,-0.09319 -0.2923169,-0.06532 -0.5918024,-0.062132 -0.8697822,0 -0.043808,0.00952 -0.074871,0.048567 -0.074871,0.09319 V 5.0713082 C 5.885368,5.1342333 5.7212881,5.2290152 5.5779174,5.3508791 L 5.2394034,5.1549438 C 5.2003746,5.1326322 5.1517879,5.1398205 5.1215208,5.1732878 4.9247843,5.3859521 4.7742451,5.6424272 4.6858332,5.9267825 c -0.013541,0.043036 0.00478,0.089209 0.043808,0.1115062 l 0.3393107,0.1959447 c -0.03425,0.1847842 -0.03425,0.3743528 0,0.5591417 l -0.3393107,0.19594 c -0.039029,0.022311 -0.056552,0.068503 -0.043808,0.1115109 0.088412,0.2835571 0.2389511,0.5400276 0.4356876,0.7534947 0.030267,0.032627 0.07965,0.040609 0.1178826,0.018344 l 0.3393106,-0.19594 c 0.1425741,0.1226621 0.306654,0.217444 0.4842743,0.2795756 v 0.3918753 c 0,0.044576 0.031064,0.083635 0.074871,0.09319 0.2923169,0.06532 0.5918023,0.062132 0.8697823,0 0.043808,-0.00952 0.074871,-0.048567 0.074871,-0.09319 V 7.9563003 c 0.1768245,-0.06293 0.3409043,-0.1577117 0.484275,-0.2795756 l 0.3393106,0.19594 C 7.9451271,7.8949763 7.9937138,7.887788 8.023981,7.8543207 8.2207172,7.6416564 8.3712566,7.3851813 8.4596683,7.100826 8.4716162,7.0570432 8.4540928,7.0108238 8.4150642,6.9885169 Z m -1.84311,0.1616932 c -0.3512582,0 -0.6372031,-0.2859469 -0.6372031,-0.637204 0,-0.3512572 0.2859449,-0.6372041 0.6372031,-0.6372041 0.3512581,0 0.637203,0.2859469 0.637203,0.6372041 0,0.3512571 -0.2859449,0.637204 -0.637203,0.637204 z"
     id="path5954" />
</svg>
