<?xml version="1.0" encoding="UTF-8" standalone="no"?>
<!-- Created with Inkscape (http://www.inkscape.org/) -->

<svg
   xmlns:dc="http://purl.org/dc/elements/1.1/"
   xmlns:cc="http://creativecommons.org/ns#"
   xmlns:rdf="http://www.w3.org/1999/02/22-rdf-syntax-ns#"
   xmlns:svg="http://www.w3.org/2000/svg"
   xmlns="http://www.w3.org/2000/svg"
   xmlns:sodipodi="http://sodipodi.sourceforge.net/DTD/sodipodi-0.dtd"
   xmlns:inkscape="http://www.inkscape.org/namespaces/inkscape"
   width="32"
   height="32"
   viewBox="0 0 8.4666666 8.4666666"
   version="1.1"
   id="svg8"
   inkscape:version="0.92.5 (2060ec1f9f, 2020-04-08)"
   sodipodi:docname="pixel-format_bl.svg">
  <defs
     id="defs2">
    <style
       id="style1399">.cls-1{fill:#e3e3e3;}</style>
    <style
       id="style1399-4">.cls-1{fill:#e3e3e3;}</style>
    <style
       id="style1399-8">.cls-1{fill:#e3e3e3;}</style>
    <style
       id="style1399-4-5">.cls-1{fill:#e3e3e3;}</style>
    <style
       id="style1399-9">.cls-1{fill:#e3e3e3;}</style>
    <style
       id="style1399-4-6">.cls-1{fill:#e3e3e3;}</style>
    <style
       id="style1399-8-4">.cls-1{fill:#e3e3e3;}</style>
    <style
       id="style1399-4-5-3">.cls-1{fill:#e3e3e3;}</style>
    <style
       id="style1399-88">.cls-1{fill:#e3e3e3;}</style>
    <style
       id="style1399-3">.cls-1{fill:#e3e3e3;}</style>
    <style
       id="style1399-94">.cls-1{fill:#e3e3e3;}</style>
    <style
       id="style1399-5">.cls-1{fill:#e3e3e3;}</style>
    <style
       id="style1399-46">.cls-1{fill:#e3e3e3;}</style>
    <style
       id="style1399-4-2">.cls-1{fill:#e3e3e3;}</style>
    <style
       id="style1399-8-5">.cls-1{fill:#e3e3e3;}</style>
    <style
       id="style1399-4-5-8">.cls-1{fill:#e3e3e3;}</style>
    <style
       id="style1399-9-6">.cls-1{fill:#e3e3e3;}</style>
    <style
       id="style1399-4-6-2">.cls-1{fill:#e3e3e3;}</style>
    <style
       id="style1399-8-4-8">.cls-1{fill:#e3e3e3;}</style>
    <style
       id="style1399-4-5-3-4">.cls-1{fill:#e3e3e3;}</style>
    <style
       id="style1399-88-7">.cls-1{fill:#e3e3e3;}</style>
    <style
       id="style1399-3-2">.cls-1{fill:#e3e3e3;}</style>
    <style
       id="style1399-94-4">.cls-1{fill:#e3e3e3;}</style>
    <style
       id="style1399-5-0">.cls-1{fill:#e3e3e3;}</style>
    <style
       id="style1399-39">.cls-1{fill:#e3e3e3;}</style>
    <style
       id="style1399-4-1">.cls-1{fill:#e3e3e3;}</style>
    <style
       id="style1399-8-9">.cls-1{fill:#e3e3e3;}</style>
    <style
       id="style1399-4-5-6">.cls-1{fill:#e3e3e3;}</style>
    <style
       id="style1399-9-9">.cls-1{fill:#e3e3e3;}</style>
    <style
       id="style1399-4-6-3">.cls-1{fill:#e3e3e3;}</style>
    <style
       id="style1399-8-4-3">.cls-1{fill:#e3e3e3;}</style>
    <style
       id="style1399-4-5-3-8">.cls-1{fill:#e3e3e3;}</style>
    <style
       id="style1399-88-0">.cls-1{fill:#e3e3e3;}</style>
    <style
       id="style1399-3-5">.cls-1{fill:#e3e3e3;}</style>
    <style
       id="style1399-94-6">.cls-1{fill:#e3e3e3;}</style>
    <style
       id="style1399-5-6">.cls-1{fill:#e3e3e3;}</style>
    <style
       id="style1399-46-4">.cls-1{fill:#e3e3e3;}</style>
    <style
       id="style1399-4-2-0">.cls-1{fill:#e3e3e3;}</style>
    <style
       id="style1399-8-5-0">.cls-1{fill:#e3e3e3;}</style>
    <style
       id="style1399-4-5-8-4">.cls-1{fill:#e3e3e3;}</style>
    <style
       id="style1399-9-6-6">.cls-1{fill:#e3e3e3;}</style>
    <style
       id="style1399-4-6-2-2">.cls-1{fill:#e3e3e3;}</style>
    <style
       id="style1399-8-4-8-6">.cls-1{fill:#e3e3e3;}</style>
    <style
       id="style1399-4-5-3-4-7">.cls-1{fill:#e3e3e3;}</style>
    <style
       id="style1399-88-7-5">.cls-1{fill:#e3e3e3;}</style>
    <style
       id="style1399-3-2-6">.cls-1{fill:#e3e3e3;}</style>
    <style
       id="style1399-94-4-9">.cls-1{fill:#e3e3e3;}</style>
    <style
       id="style1399-5-0-8">.cls-1{fill:#e3e3e3;}</style>
  </defs>
  <sodipodi:namedview
     id="base"
     pagecolor="#ffffff"
     bordercolor="#666666"
     borderopacity="1.0"
     inkscape:pageopacity="0.0"
     inkscape:pageshadow="2"
     inkscape:zoom="8"
     inkscape:cx="-15.534362"
     inkscape:cy="25.628022"
     inkscape:document-units="mm"
     inkscape:current-layer="svg8"
     showgrid="false"
     units="px"
     inkscape:window-width="1920"
     inkscape:window-height="1043"
     inkscape:window-x="0"
     inkscape:window-y="120"
     inkscape:window-maximized="1">
    <sodipodi:guide
       position="8.4666666,0"
       orientation="-32,0"
       id="guide854"
       inkscape:locked="false" />
    <sodipodi:guide
       position="8.5622298,8.4657622"
       orientation="0,-32"
       id="guide856"
       inkscape:locked="false" />
    <sodipodi:guide
       position="0,8.4666814"
       orientation="32,0"
       id="guide858"
       inkscape:locked="false" />
  </sodipodi:namedview>
  <metadata
     id="metadata5">
    <rdf:RDF>
      <cc:Work
         rdf:about="">
        <dc:format>image/svg+xml</dc:format>
        <dc:type
           rdf:resource="http://purl.org/dc/dcmitype/StillImage" />
        <dc:title></dc:title>
      </cc:Work>
    </rdf:RDF>
  </metadata>
  <path
     style="opacity:1;fill:#e3e3e3;fill-opacity:1;stroke:none;stroke-width:0.74710327;stroke-linecap:round;stroke-linejoin:round;stroke-miterlimit:4;stroke-dasharray:none;stroke-dashoffset:10.3937006;stroke-opacity:1"
     d="M 4.1523438 0.00390625 L 4.1523438 4.1523438 L 8.3027344 4.1523438 L 8.3027344 0.00390625 L 4.1523438 0.00390625 z M 12.451172 4.1523438 L 12.451172 12.451172 L 8.3027344 12.451172 L 8.3027344 20.751953 L 10.794922 20.751953 C 11.17485 19.87844 11.722986 19.170682 12.203125 18.595703 C 12.830583 17.841021 13.92785 17.668688 14.755859 18.144531 L 15.074219 18.322266 C 15.219248 18.230663 15.365091 18.144982 15.517578 18.064453 L 15.517578 17.708984 C 15.517578 16.739639 16.219615 15.89074 17.177734 15.722656 A 1.2656147 1.2656147 0 0 1 17.185547 15.722656 C 18.096455 15.566974 19.048955 15.558604 19.998047 15.716797 A 1.2656147 1.2656147 0 0 1 20.005859 15.716797 C 20.277458 15.764028 20.526698 15.870094 20.75 16.013672 L 20.75 8.3027344 L 16.601562 8.3027344 L 16.601562 4.1523438 L 12.451172 4.1523438 z M 0 8.2558594 L 0 12.40625 L 4.1484375 12.40625 L 4.1484375 8.2558594 L 0 8.2558594 z "
     transform="scale(0.26458333)"
     id="rect5880" />
  <path
     style="fill:#e3e3e3;fill-opacity:1;stroke-width:0.00833966"
     inkscape:connector-curvature="0"
     d="M 7.3928241,5.8025033 7.324439,5.9217678 C 7.2994199,5.9659282 7.2460463,5.9842493 7.19851,5.9667495 7.1001021,5.9300439 7.0100339,5.8775127 6.9308071,5.8116323 6.8924438,5.7799178 6.8824367,5.7240635 6.9074558,5.6807055 L 6.9758411,5.561441 C 6.9182975,5.4947267 6.8732631,5.4171713 6.8432403,5.3329381 H 6.7056364 c -0.050038,0 -0.093405,-0.035884 -0.101744,-0.085901 -0.016679,-0.1000778 -0.017514,-0.2051529 0,-0.3094066 0.00834,-0.049973 0.051706,-0.086722 0.101744,-0.086722 h 0.137604 C 6.8732625,4.7666687 6.9182973,4.6891196 6.9758412,4.622399 L 6.9074559,4.5031471 C 6.8824367,4.4597449 6.8916099,4.4039033 6.9308071,4.372214 7.0100339,4.3063336 7.1009362,4.2537897 7.19851,4.2170968 c 0.047537,-0.0175 0.1009101,0.00126 0.125929,0.044982 l 0.068385,0.1192455 c 0.087567,-0.015857 0.176801,-0.015857 0.2643675,0 l 0.068385,-0.1192455 c 0.025019,-0.044224 0.078393,-0.062608 0.1259289,-0.044982 0.098408,0.036706 0.1884762,0.089237 0.2677029,0.1551172 0.038363,0.031715 0.04837,0.087563 0.023352,0.1309331 l -0.068385,0.1192582 c 0.057544,0.066721 0.102578,0.1442697 0.1326008,0.2285092 h 0.1376042 c 0.050038,0 0.093404,0.035884 0.101744,0.085895 0.016679,0.1000778 0.017514,0.2051528 0,0.3094003 -0.00834,0.049973 -0.051707,0.086735 -0.101744,0.086735 H 8.2067761 C 8.176754,5.4171776 8.1317191,5.494733 8.0741753,5.5614473 l 0.068385,0.1192582 c 0.025019,0.043402 0.015847,0.099244 -0.023351,0.1309268 -0.079227,0.065887 -0.170129,0.1184306 -0.2677029,0.1551235 -0.047536,0.0175 -0.1009101,-0.00126 -0.125929,-0.045045 l -0.068385,-0.119258 c -0.086732,0.015857 -0.1768009,0.015857 -0.2643676,0 z M 7.3052579,5.3121278 C 7.626335,5.5589897 7.9924463,5.1928759 7.745592,4.8717943 7.424515,4.6241048 7.0584038,4.9910525 7.3052579,5.3121278 Z m -0.9615632,1.28348 0.2810468,0.1401064 c 0.084231,0.048393 0.120925,0.1509474 0.087566,0.2426859 -0.074223,0.2018172 -0.2201671,0.3869557 -0.3552696,0.5487443 -0.061713,0.074226 -0.1684612,0.092572 -0.2526917,0.044224 L 5.8616622,7.4312741 C 5.7282276,7.5455287 5.5731097,7.636427 5.4038148,7.695636 v 0.2802128 c 0,0.096742 -0.069219,0.1801413 -0.1642916,0.1968135 -0.2051557,0.035063 -0.4203189,0.036706 -0.6329803,0 C 4.5106367,8.1559837 4.4397496,8.0734248 4.4397496,7.9758488 V 7.695636 C 4.2704545,7.6356183 4.1153366,7.5455287 3.981902,7.4312741 L 3.7392181,7.5705403 C 3.6558214,7.6189334 3.5482395,7.6005491 3.4865261,7.5263168 3.3514236,7.3645282 3.2088152,7.1793897 3.1345924,6.9784065 3.1012334,6.8875019 3.1379278,6.7849223 3.2221588,6.7357205 L 3.4998696,6.5956141 c -0.032524,-0.1743038 -0.032524,-0.3535986 0,-0.5287363 L 3.2221588,5.9259312 C 3.1379281,5.877538 3.1003997,5.7749837 3.1345924,5.6840791 3.2088152,5.482262 3.3514236,5.2971171 3.4865261,5.1353285 c 0.061713,-0.074226 0.1684612,-0.092566 0.252692,-0.04416 L 3.981902,5.2312746 C 4.1153366,5.11702 4.2704545,5.0261217 4.4397496,4.9669128 V 4.685866 c 0,-0.095914 0.068385,-0.1793073 0.1634575,-0.1959859 0.2051555,-0.035063 0.4211528,-0.036706 0.6338142,-0.00126 0.095906,0.016678 0.1667935,0.099244 0.1667935,0.1968135 v 0.2802128 c 0.1692949,0.060081 0.3244128,0.1501199 0.4578474,0.2643682 L 6.1043464,5.089911 c 0.083397,-0.04833 0.1909784,-0.030072 0.2526917,0.044224 0.1351025,0.1617885 0.2768769,0.3469271 0.3510997,0.5487442 0.033359,0.090905 8.402e-4,0.1934779 -0.083396,0.242686 L 6.3436947,6.0656711 c 0.032525,0.1751378 0.032525,0.3544325 0,0.5295702 z M 5.3629503,6.7715668 C 5.8566583,6.1294162 5.123602,5.3963673 4.4814479,5.8900722 3.9877397,6.5322228 4.7207961,7.265278 5.3629503,6.7715668 Z M 7.3928241,8.2952246 7.324439,8.4144828 C 7.2994199,8.4587063 7.2460463,8.4770275 7.19851,8.4595276 7.1001021,8.4228221 7.0100339,8.3703035 6.9308071,8.3044105 6.8924438,8.2726959 6.8824367,8.2168479 6.9074558,8.1734836 L 6.9758411,8.0542255 C 6.9182975,7.9875111 6.8732631,7.9099494 6.8432403,7.8257226 H 6.7056364 c -0.050038,0 -0.093405,-0.035884 -0.101744,-0.085901 -0.016679,-0.1000842 -0.017514,-0.2051592 0,-0.3094003 0.00834,-0.050036 0.051706,-0.086735 0.101744,-0.086735 h 0.137604 C 6.8732625,7.2594595 6.9182973,7.1818978 6.9758412,7.1151771 L 6.9074559,6.9959253 C 6.8824367,6.9525231 6.8916099,6.8966877 6.9308071,6.8649921 7.0100339,6.7991117 7.1009362,6.7465805 7.19851,6.709875 7.246047,6.692375 7.2994201,6.711135 7.324439,6.75492 l 0.068385,0.1192518 c 0.087567,-0.015857 0.176801,-0.015857 0.2643675,0 L 7.7255765,6.75492 c 0.025019,-0.044223 0.078393,-0.062608 0.1259289,-0.045045 0.098408,0.036706 0.1884762,0.089237 0.2677029,0.1551171 0.038363,0.031715 0.04837,0.087569 0.023352,0.1309332 l -0.068385,0.1192582 c 0.057544,0.066721 0.102578,0.1442823 0.1326008,0.2285091 h 0.1376042 c 0.050038,0 0.093404,0.035884 0.101744,0.085901 0.016679,0.1000714 0.017514,0.2051528 0,0.3094003 -0.00834,0.050036 -0.051707,0.086735 -0.101744,0.086735 H 8.2067761 C 8.176754,7.9099494 8.1317191,7.9875174 8.0741753,8.0542318 l 0.068385,0.1192581 c 0.025019,0.043402 0.015847,0.099244 -0.023351,0.1309269 -0.079227,0.065893 -0.170129,0.1184306 -0.2677029,0.1551234 -0.047536,0.0175 -0.1009101,-0.00126 -0.125929,-0.045045 L 7.6571922,8.2952373 c -0.086732,0.015857 -0.1768008,0.015857 -0.2643675,0 z M 7.3052579,7.8040215 C 7.626335,8.0508771 7.9924463,7.6847696 7.745592,7.3636943 7.424515,7.1168324 7.0584038,7.4829398 7.3052579,7.8040215 Z"
     id="path6070" />
</svg>
