<svg id="Calque_1" data-name="Calque 1" xmlns="http://www.w3.org/2000/svg" viewBox="0 0 32 32"><defs><style>.cls-1{fill:#e3e3e3;}</style></defs><title>plantigrade_l</title><path class="cls-1" d="M21.09,15.23c.34,2.07-2.86,1.82-3,6.54S17,31,13.76,30.73s-3.54-2.53-3.32-4.25,1.41-3.67,1.41-7S10.56,16,10.1,14s.69-3.79,2.4-3.79,3.21-.69,5.27.69S20.74,13.16,21.09,15.23Z"/><path class="cls-1" d="M11,3.17C9.33,3.41,8.5,4.83,8.62,6.6A2.77,2.77,0,0,0,10.16,9s2.36.12,2.48-3S11,3.17,11,3.17Z"/><path class="cls-1" d="M16.48,6.3c.35-1.18-1.78-2.13-2.13-1.06s-.12,2.95.35,2.95A2.57,2.57,0,0,0,16.48,6.3Z"/><path class="cls-1" d="M19.88,7.55c.5-1-1.28-2.19-1.76-1.29S17.56,8.92,18,9A2.36,2.36,0,0,0,19.88,7.55Z"/><path class="cls-1" d="M22.58,9c.33-.85-1.18-1.65-1.5-.89s-.24,2.16.1,2.18A1.85,1.85,0,0,0,22.58,9Z"/></svg>