<svg id="Calque_1" data-name="Calque 1" xmlns="http://www.w3.org/2000/svg" viewBox="0 0 32 32"><defs><style>.cls-1{fill:#e3e3e3;}</style></defs><title>plus_l</title><path class="cls-1" d="M16.87,2.57a13.41,13.41,0,0,1,7,1.88A14,14,0,0,1,28.9,9.52a13.47,13.47,0,0,1,1.88,7,13.42,13.42,0,0,1-1.88,7,14,14,0,0,1-5.08,5.08,13.8,13.8,0,0,1-13.91,0,14.06,14.06,0,0,1-5.08-5.08,13.82,13.82,0,0,1,0-13.92A14,14,0,0,1,9.91,4.45,13.42,13.42,0,0,1,16.87,2.57ZM25,18.05V14.91a.63.63,0,0,0-.2-.47.62.62,0,0,0-.48-.2H19.11V9.08a.68.68,0,0,0-.67-.68H15.29a.68.68,0,0,0-.67.68v5.16H9.46a.62.62,0,0,0-.48.2.63.63,0,0,0-.2.47v3.14a.68.68,0,0,0,.68.68h5.16v5.16a.66.66,0,0,0,.2.48.64.64,0,0,0,.47.19h3.15a.64.64,0,0,0,.47-.19.66.66,0,0,0,.2-.48V18.73h5.16a.68.68,0,0,0,.68-.68Z"/></svg>