<svg id="Calque_1" data-name="Calque 1" xmlns="http://www.w3.org/2000/svg" viewBox="0 0 32 32"><defs><style>.cls-1{fill:#e3e3e3;}</style></defs><title>pos_l</title><path class="cls-1" d="M28.56,16.3l-4.89-4.89a.34.34,0,0,0-.24-.11.32.32,0,0,0-.24.11l-.53.52a.35.35,0,0,0,0,.49l3.09,3.08H17.13V6.88l3.06,3.06a.34.34,0,0,0,.48,0l.52-.52a.35.35,0,0,0,.11-.24.36.36,0,0,0-.11-.25L16.32,4.06A.35.35,0,0,0,16.08,4a.36.36,0,0,0-.25.11L11,8.93a.36.36,0,0,0-.11.25.35.35,0,0,0,.11.24l.52.52a.35.35,0,0,0,.24.1.37.37,0,0,0,.24-.1l3.17-3.17V15.5H6.43l3.06-3.06a.35.35,0,0,0,.1-.24.39.39,0,0,0-.1-.24L9,11.44a.35.35,0,0,0-.24-.1.37.37,0,0,0-.24.1L3.6,16.32a.35.35,0,0,0-.1.24.37.37,0,0,0,.1.24l4.88,4.88a.37.37,0,0,0,.24.1.35.35,0,0,0,.24-.1l.53-.53a.33.33,0,0,0,.1-.24.39.39,0,0,0-.1-.24L6.31,17.5h8.82v8.78L12,23.11a.39.39,0,0,0-.24-.1.37.37,0,0,0-.25.1l-.52.53a.32.32,0,0,0,0,.48L15.85,29a.34.34,0,0,0,.24.11.32.32,0,0,0,.24-.11l4.9-4.89a.34.34,0,0,0,0-.48l-.53-.53a.34.34,0,0,0-.48,0L17.13,26.2V17.5h8.7l-3.17,3.17a.34.34,0,0,0,0,.48l.53.52a.32.32,0,0,0,.24.11.34.34,0,0,0,.24-.11l4.89-4.89a.36.36,0,0,0,.11-.24A.38.38,0,0,0,28.56,16.3Z"/></svg>