<svg id="Calque_1" data-name="Calque 1" xmlns="http://www.w3.org/2000/svg" viewBox="0 0 32 32"><defs><style>.cls-1{fill:#e3e3e3;}</style></defs><title>positionconstraint_l</title><path class="cls-1" d="M25,4a3,3,0,1,1-3,3,3,3,0,0,1,3-3m0-2a5,5,0,1,0,5,5,5,5,0,0,0-5-5Z"/><circle class="cls-1" cx="6.84" cy="26.31" r="4.16"/><path class="cls-1" d="M17,12.88a.63.63,0,0,1-.2-.48.61.61,0,0,1,.2-.47.6.6,0,0,1,.47-.2h3.4a.68.68,0,0,1,.67.67v3.4a.68.68,0,0,1-.67.67.62.62,0,0,1-.48-.2l-.91-.91-4.81,4.82.9.91a.67.67,0,0,1,.2.48.68.68,0,0,1-.67.67h-3.4a.65.65,0,0,1-.47-.2.61.61,0,0,1-.2-.47v-3.4a.68.68,0,0,1,.67-.67.6.6,0,0,1,.47.2l.91.9,4.82-4.82Z"/></svg>