<svg id="Calque_1" data-name="Calque 1" xmlns="http://www.w3.org/2000/svg" viewBox="0 0 32 32"><defs><style>.cls-1{fill:#e3e3e3;}.cls-2{fill:none;stroke:#e3e3e3;stroke-miterlimit:10;stroke-width:2px;}</style></defs><title>previousframe_l</title><path class="cls-1" d="M14.39,17.94a1.64,1.64,0,0,1-.49-1.18,1.62,1.62,0,0,1,.49-1.18l9.42-9.42A1.59,1.59,0,0,1,25,5.68a1.61,1.61,0,0,1,1.18.48l1.52,1.6a1.65,1.65,0,0,1,0,2.35L21,16.76l6.64,6.65a1.56,1.56,0,0,1,.49,1.17,1.59,1.59,0,0,1-.49,1.18l-1.52,1.59a1.59,1.59,0,0,1-1.18.49,1.56,1.56,0,0,1-1.17-.49Z"/><line class="cls-2" x1="9.59" y1="5" x2="9.59" y2="27.84"/></svg>