<svg id="Calque_1" data-name="Calque 1" xmlns="http://www.w3.org/2000/svg" viewBox="0 0 32 32"><defs><style>.cls-1{fill:#e3e3e3;}</style></defs><title>proceduralwalk_l</title><path class="cls-1" d="M11,2.17C9.33,2.41,8.5,3.83,8.62,5.6A2.77,2.77,0,0,0,10.16,8s2.36.12,2.48-3S11,2.17,11,2.17Z"/><path class="cls-1" d="M16.48,5.3c.35-1.18-1.78-2.13-2.13-1.06s-.12,3,.35,3A2.57,2.57,0,0,0,16.48,5.3Z"/><path class="cls-1" d="M19.88,6.55c.5-1-1.28-2.19-1.76-1.29S17.56,7.92,18,8A2.36,2.36,0,0,0,19.88,6.55Z"/><path class="cls-1" d="M22.58,8c.33-.85-1.18-1.65-1.5-.89s-.24,2.16.1,2.18A1.85,1.85,0,0,0,22.58,8Z"/><path class="cls-1" d="M13.26,23.67a9.12,9.12,0,0,1,7.84-9,2,2,0,0,0,0-.42c-.35-2.07-1.26-3-3.32-4.37s-3.55-.69-5.27-.69S9.64,10.9,10.1,13s1.75,2.19,1.75,5.52-1.18,5.27-1.41,7,.12,4,3.32,4.25a2.76,2.76,0,0,0,1.54-.32A9.11,9.11,0,0,1,13.26,23.67Z"/><path class="cls-1" d="M29.71,22.45l-1.82-.28a5.83,5.83,0,0,0-.4-1c.33-.47.7-.91,1-1.37a.37.37,0,0,0,.08-.22.34.34,0,0,0-.07-.22A11.91,11.91,0,0,0,26.9,17.7a.39.39,0,0,0-.25-.1.34.34,0,0,0-.24.09L25,18.75a6.2,6.2,0,0,0-.89-.37l-.28-1.83a.36.36,0,0,0-.36-.29H21.26a.37.37,0,0,0-.35.27,13.16,13.16,0,0,0-.29,1.85,6,6,0,0,0-.91.38L18.34,17.7a.44.44,0,0,0-.26-.1c-.33,0-1.68,1.45-1.91,1.78a.39.39,0,0,0-.09.23.37.37,0,0,0,.1.23c.36.45.72.9,1.06,1.38a4.89,4.89,0,0,0-.39.91L15,22.41a.39.39,0,0,0-.27.36V25a.36.36,0,0,0,.29.36l1.82.27a5.22,5.22,0,0,0,.41,1c-.34.47-.71.91-1,1.36a.38.38,0,0,0-.08.23.39.39,0,0,0,.07.23,11.76,11.76,0,0,0,1.64,1.67.32.32,0,0,0,.24.11.38.38,0,0,0,.25-.09L19.73,29a5,5,0,0,0,.9.36l.28,1.83a.35.35,0,0,0,.35.3h2.21a.37.37,0,0,0,.36-.28,12.72,12.72,0,0,0,.29-1.85A5.33,5.33,0,0,0,25,29l1.37,1.07a.51.51,0,0,0,.26.09c.34,0,1.68-1.46,1.92-1.78a.33.33,0,0,0,.09-.23.39.39,0,0,0-.1-.25,16.08,16.08,0,0,1-1.06-1.37,6.57,6.57,0,0,0,.38-.9l1.84-.28A.38.38,0,0,0,30,25v-2.2A.36.36,0,0,0,29.71,22.45Zm-4,1.51-5.1,2.84a.14.14,0,0,1-.22-.13V21c0-.14.1-.2.22-.13l5.1,2.83C25.84,23.79,25.84,23.9,25.72,24Z"/></svg>