<?xml version="1.0" encoding="UTF-8" standalone="no"?>
<!-- Created with Inkscape (http://www.inkscape.org/) -->

<svg
   xmlns:dc="http://purl.org/dc/elements/1.1/"
   xmlns:cc="http://creativecommons.org/ns#"
   xmlns:rdf="http://www.w3.org/1999/02/22-rdf-syntax-ns#"
   xmlns:svg="http://www.w3.org/2000/svg"
   xmlns="http://www.w3.org/2000/svg"
   xmlns:sodipodi="http://sodipodi.sourceforge.net/DTD/sodipodi-0.dtd"
   xmlns:inkscape="http://www.inkscape.org/namespaces/inkscape"
   width="32"
   height="32"
   viewBox="0 0 8.4666666 8.4666666"
   version="1.1"
   id="svg8"
   inkscape:version="0.92.5 (2060ec1f9f, 2020-04-08)"
   sodipodi:docname="quit_bl.svg">
  <defs
     id="defs2">
    <style
       id="style1399">.cls-1{fill:#e3e3e3;}</style>
    <style
       id="style1399-1">.cls-1{fill:#e3e3e3;}</style>
    <style
       id="style1399-5">.cls-1{fill:#e3e3e3;}</style>
    <style
       id="style1399-8">.cls-1{fill:#e3e3e3;}</style>
    <style
       id="style1399-7">.cls-1{fill:#e3e3e3;}</style>
    <style
       id="style1399-1-5">.cls-1{fill:#e3e3e3;}</style>
    <style
       id="style1399-5-6">.cls-1{fill:#e3e3e3;}</style>
    <style
       id="style1399-8-9">.cls-1{fill:#e3e3e3;}</style>
    <style
       id="style1399-2">.cls-1{fill:#e3e3e3;}</style>
    <style
       id="style1399-1-1">.cls-1{fill:#e3e3e3;}</style>
    <style
       id="style1399-5-5">.cls-1{fill:#e3e3e3;}</style>
    <style
       id="style1399-8-99">.cls-1{fill:#e3e3e3;}</style>
    <style
       id="style857">.cls-1{fill:#e52120;}.cls-1,.cls-2,.cls-3,.cls-4,.cls-5{stroke:#000;stroke-miterlimit:10;stroke-width:1.2px;}.cls-2{fill:#6dbc88;}.cls-3{fill:#701034;}.cls-4{fill:#51aae0;}.cls-5{fill:none;}</style>
    <style
       id="style1399-3">.cls-1{fill:#e3e3e3;}</style>
    <style
       id="style1399-1-8">.cls-1{fill:#e3e3e3;}</style>
    <style
       id="style1399-5-56">.cls-1{fill:#e3e3e3;}</style>
    <style
       id="style1399-8-1">.cls-1{fill:#e3e3e3;}</style>
    <style
       id="style1399-7-1">.cls-1{fill:#e3e3e3;}</style>
    <style
       id="style1399-1-5-5">.cls-1{fill:#e3e3e3;}</style>
    <style
       id="style1399-5-6-9">.cls-1{fill:#e3e3e3;}</style>
    <style
       id="style1399-8-9-8">.cls-1{fill:#e3e3e3;}</style>
    <style
       id="style1399-2-4">.cls-1{fill:#e3e3e3;}</style>
    <style
       id="style1399-1-1-8">.cls-1{fill:#e3e3e3;}</style>
    <style
       id="style1399-5-5-1">.cls-1{fill:#e3e3e3;}</style>
    <style
       id="style1399-8-99-0">.cls-1{fill:#e3e3e3;}</style>
    <style
       id="style857-3">.cls-1{fill:#e52120;}.cls-1,.cls-2,.cls-3,.cls-4,.cls-5{stroke:#000;stroke-miterlimit:10;stroke-width:1.2px;}.cls-2{fill:#6dbc88;}.cls-3{fill:#701034;}.cls-4{fill:#51aae0;}.cls-5{fill:none;}</style>
    <style
       id="style1399-9">.cls-1{fill:#e3e3e3;}</style>
    <style
       id="style1399-1-6">.cls-1{fill:#e3e3e3;}</style>
    <style
       id="style1399-5-2">.cls-1{fill:#e3e3e3;}</style>
    <style
       id="style1399-8-17">.cls-1{fill:#e3e3e3;}</style>
    <style
       id="style1399-7-8">.cls-1{fill:#e3e3e3;}</style>
    <style
       id="style1399-1-5-57">.cls-1{fill:#e3e3e3;}</style>
    <style
       id="style1399-5-6-4">.cls-1{fill:#e3e3e3;}</style>
    <style
       id="style1399-8-9-1">.cls-1{fill:#e3e3e3;}</style>
    <style
       id="style1399-2-8">.cls-1{fill:#e3e3e3;}</style>
    <style
       id="style1399-1-1-5">.cls-1{fill:#e3e3e3;}</style>
    <style
       id="style1399-5-5-9">.cls-1{fill:#e3e3e3;}</style>
    <style
       id="style1399-8-99-7">.cls-1{fill:#e3e3e3;}</style>
    <style
       id="style857-5">.cls-1{fill:#e52120;}.cls-1,.cls-2,.cls-3,.cls-4,.cls-5{stroke:#000;stroke-miterlimit:10;stroke-width:1.2px;}.cls-2{fill:#6dbc88;}.cls-3{fill:#701034;}.cls-4{fill:#51aae0;}.cls-5{fill:none;}</style>
    <style
       id="style1399-3-3">.cls-1{fill:#e3e3e3;}</style>
    <style
       id="style1399-1-8-8">.cls-1{fill:#e3e3e3;}</style>
    <style
       id="style1399-5-56-8">.cls-1{fill:#e3e3e3;}</style>
    <style
       id="style1399-8-1-3">.cls-1{fill:#e3e3e3;}</style>
    <style
       id="style1399-7-1-1">.cls-1{fill:#e3e3e3;}</style>
    <style
       id="style1399-1-5-5-8">.cls-1{fill:#e3e3e3;}</style>
    <style
       id="style1399-5-6-9-9">.cls-1{fill:#e3e3e3;}</style>
    <style
       id="style1399-8-9-8-6">.cls-1{fill:#e3e3e3;}</style>
    <style
       id="style1399-2-4-4">.cls-1{fill:#e3e3e3;}</style>
    <style
       id="style1399-1-1-8-3">.cls-1{fill:#e3e3e3;}</style>
    <style
       id="style1399-5-5-1-3">.cls-1{fill:#e3e3e3;}</style>
    <style
       id="style1399-8-99-0-3">.cls-1{fill:#e3e3e3;}</style>
    <style
       id="style857-3-8">.cls-1{fill:#e52120;}.cls-1,.cls-2,.cls-3,.cls-4,.cls-5{stroke:#000;stroke-miterlimit:10;stroke-width:1.2px;}.cls-2{fill:#6dbc88;}.cls-3{fill:#701034;}.cls-4{fill:#51aae0;}.cls-5{fill:none;}</style>
    <style
       id="style857-6">.cls-1{fill:#e52120;}.cls-1,.cls-2,.cls-3,.cls-4,.cls-5{stroke:#000;stroke-miterlimit:10;stroke-width:1.2px;}.cls-2{fill:#6dbc88;}.cls-3{fill:#701034;}.cls-4{fill:#51aae0;}.cls-5{fill:none;}</style>
    <style
       id="style1399-4">.cls-1{fill:#e3e3e3;}</style>
    <style
       id="style1399-1-0">.cls-1{fill:#e3e3e3;}</style>
    <style
       id="style1399-5-59">.cls-1{fill:#e3e3e3;}</style>
    <style
       id="style1399-8-4">.cls-1{fill:#e3e3e3;}</style>
    <style
       id="style1399-7-6">.cls-1{fill:#e3e3e3;}</style>
    <style
       id="style1399-1-5-9">.cls-1{fill:#e3e3e3;}</style>
    <style
       id="style1399-5-6-2">.cls-1{fill:#e3e3e3;}</style>
    <style
       id="style1399-8-9-2">.cls-1{fill:#e3e3e3;}</style>
    <style
       id="style1399-2-47">.cls-1{fill:#e3e3e3;}</style>
    <style
       id="style1399-1-1-7">.cls-1{fill:#e3e3e3;}</style>
    <style
       id="style1399-5-5-5">.cls-1{fill:#e3e3e3;}</style>
    <style
       id="style1399-8-99-4">.cls-1{fill:#e3e3e3;}</style>
    <style
       id="style857-8">.cls-1{fill:#e52120;}.cls-1,.cls-2,.cls-3,.cls-4,.cls-5{stroke:#000;stroke-miterlimit:10;stroke-width:1.2px;}.cls-2{fill:#6dbc88;}.cls-3{fill:#701034;}.cls-4{fill:#51aae0;}.cls-5{fill:none;}</style>
    <style
       id="style1399-3-1">.cls-1{fill:#e3e3e3;}</style>
    <style
       id="style1399-1-8-2">.cls-1{fill:#e3e3e3;}</style>
    <style
       id="style1399-5-56-89">.cls-1{fill:#e3e3e3;}</style>
    <style
       id="style1399-8-1-36">.cls-1{fill:#e3e3e3;}</style>
    <style
       id="style1399-7-1-8">.cls-1{fill:#e3e3e3;}</style>
    <style
       id="style1399-1-5-5-0">.cls-1{fill:#e3e3e3;}</style>
    <style
       id="style1399-5-6-9-2">.cls-1{fill:#e3e3e3;}</style>
    <style
       id="style1399-8-9-8-1">.cls-1{fill:#e3e3e3;}</style>
    <style
       id="style1399-2-4-0">.cls-1{fill:#e3e3e3;}</style>
    <style
       id="style1399-1-1-8-5">.cls-1{fill:#e3e3e3;}</style>
    <style
       id="style1399-5-5-1-1">.cls-1{fill:#e3e3e3;}</style>
    <style
       id="style1399-8-99-0-1">.cls-1{fill:#e3e3e3;}</style>
    <style
       id="style857-3-0">.cls-1{fill:#e52120;}.cls-1,.cls-2,.cls-3,.cls-4,.cls-5{stroke:#000;stroke-miterlimit:10;stroke-width:1.2px;}.cls-2{fill:#6dbc88;}.cls-3{fill:#701034;}.cls-4{fill:#51aae0;}.cls-5{fill:none;}</style>
    <style
       id="style1399-9-8">.cls-1{fill:#e3e3e3;}</style>
    <style
       id="style1399-1-6-5">.cls-1{fill:#e3e3e3;}</style>
    <style
       id="style1399-5-2-0">.cls-1{fill:#e3e3e3;}</style>
    <style
       id="style1399-8-17-6">.cls-1{fill:#e3e3e3;}</style>
    <style
       id="style1399-7-8-4">.cls-1{fill:#e3e3e3;}</style>
    <style
       id="style1399-1-5-57-6">.cls-1{fill:#e3e3e3;}</style>
    <style
       id="style1399-5-6-4-2">.cls-1{fill:#e3e3e3;}</style>
    <style
       id="style1399-8-9-1-5">.cls-1{fill:#e3e3e3;}</style>
    <style
       id="style1399-2-8-8">.cls-1{fill:#e3e3e3;}</style>
    <style
       id="style1399-1-1-5-6">.cls-1{fill:#e3e3e3;}</style>
    <style
       id="style1399-5-5-9-2">.cls-1{fill:#e3e3e3;}</style>
    <style
       id="style1399-8-99-7-8">.cls-1{fill:#e3e3e3;}</style>
    <style
       id="style857-5-4">.cls-1{fill:#e52120;}.cls-1,.cls-2,.cls-3,.cls-4,.cls-5{stroke:#000;stroke-miterlimit:10;stroke-width:1.2px;}.cls-2{fill:#6dbc88;}.cls-3{fill:#701034;}.cls-4{fill:#51aae0;}.cls-5{fill:none;}</style>
    <style
       id="style1399-3-3-7">.cls-1{fill:#e3e3e3;}</style>
    <style
       id="style1399-1-8-8-2">.cls-1{fill:#e3e3e3;}</style>
    <style
       id="style1399-5-56-8-4">.cls-1{fill:#e3e3e3;}</style>
    <style
       id="style1399-8-1-3-0">.cls-1{fill:#e3e3e3;}</style>
    <style
       id="style1399-7-1-1-6">.cls-1{fill:#e3e3e3;}</style>
    <style
       id="style1399-1-5-5-8-2">.cls-1{fill:#e3e3e3;}</style>
    <style
       id="style1399-5-6-9-9-9">.cls-1{fill:#e3e3e3;}</style>
    <style
       id="style1399-8-9-8-6-9">.cls-1{fill:#e3e3e3;}</style>
    <style
       id="style1399-2-4-4-0">.cls-1{fill:#e3e3e3;}</style>
    <style
       id="style1399-1-1-8-3-8">.cls-1{fill:#e3e3e3;}</style>
    <style
       id="style1399-5-5-1-3-1">.cls-1{fill:#e3e3e3;}</style>
    <style
       id="style1399-8-99-0-3-3">.cls-1{fill:#e3e3e3;}</style>
    <style
       id="style857-3-8-1">.cls-1{fill:#e52120;}.cls-1,.cls-2,.cls-3,.cls-4,.cls-5{stroke:#000;stroke-miterlimit:10;stroke-width:1.2px;}.cls-2{fill:#6dbc88;}.cls-3{fill:#701034;}.cls-4{fill:#51aae0;}.cls-5{fill:none;}</style>
  </defs>
  <sodipodi:namedview
     id="base"
     pagecolor="#ffffff"
     bordercolor="#666666"
     borderopacity="1.0"
     inkscape:pageopacity="0.0"
     inkscape:pageshadow="2"
     inkscape:zoom="2.828427"
     inkscape:cx="-135.46416"
     inkscape:cy="-21.524117"
     inkscape:document-units="mm"
     inkscape:current-layer="svg8"
     showgrid="false"
     units="px"
     inkscape:window-width="1920"
     inkscape:window-height="1043"
     inkscape:window-x="0"
     inkscape:window-y="120"
     inkscape:window-maximized="1">
    <sodipodi:guide
       position="8.4666666,0"
       orientation="-32,0"
       id="guide854"
       inkscape:locked="false" />
    <sodipodi:guide
       position="8.4666666,8.4666666"
       orientation="0,-32"
       id="guide856"
       inkscape:locked="false" />
    <sodipodi:guide
       position="0,8.4666814"
       orientation="1,6.123234e-17"
       id="guide858"
       inkscape:locked="false" />
  </sodipodi:namedview>
  <metadata
     id="metadata5">
    <rdf:RDF>
      <cc:Work
         rdf:about="">
        <dc:format>image/svg+xml</dc:format>
        <dc:type
           rdf:resource="http://purl.org/dc/dcmitype/StillImage" />
        <dc:title></dc:title>
      </cc:Work>
    </rdf:RDF>
  </metadata>
  <style
     id="style815"
     type="text/css">
	.st0{fill:#00005B;}
	.st1{fill:#9999FF;}
</style>
  <style
     type="text/css"
     id="style815-7">
	.st0{fill:#00005B;}
	.st1{fill:#9999FF;}
</style>
  <style
     type="text/css"
     id="style815-8">
	.st0{fill:#00005B;}
	.st1{fill:#9999FF;}
</style>
  <style
     id="style815-7-9"
     type="text/css">
	.st0{fill:#00005B;}
	.st1{fill:#9999FF;}
</style>
  <path
     style="opacity:1;fill:#f96969;fill-opacity:1;stroke:none;stroke-width:2.23347926;stroke-linecap:round;stroke-linejoin:round;stroke-miterlimit:10;stroke-dasharray:none;stroke-opacity:1"
     d="M 23.6875 0 A 8.3124982 8.3124982 0 0 0 15.375 8.3125 A 8.3124982 8.3124982 0 0 0 23.6875 16.625 A 8.3124982 8.3124982 0 0 0 32 8.3125 A 8.3124982 8.3124982 0 0 0 23.6875 0 z M 21.28125 4.1503906 C 21.383131 4.1503906 21.484872 4.1899546 21.5625 4.2675781 L 23.712891 6.4375 L 25.863281 4.2675781 C 26.018533 4.1123265 26.270532 4.1123265 26.425781 4.2675781 L 27.736328 5.5761719 C 27.891576 5.7314235 27.891576 5.9853764 27.736328 6.140625 L 25.566406 8.2910156 L 27.736328 10.441406 C 27.891576 10.596654 27.891576 10.848658 27.736328 11.003906 L 26.425781 12.314453 C 26.27053 12.469701 26.018528 12.469701 25.863281 12.314453 L 23.712891 10.144531 L 21.5625 12.314453 C 21.407248 12.469701 21.153295 12.469701 20.998047 12.314453 L 19.689453 11.003906 C 19.534201 10.848658 19.534201 10.596655 19.689453 10.441406 L 21.859375 8.2910156 L 19.689453 6.140625 C 19.534201 5.9853733 19.534201 5.7314201 19.689453 5.5761719 L 20.998047 4.2675781 C 21.075677 4.1899501 21.179368 4.1503929 21.28125 4.1503906 z "
     transform="scale(0.26458333)"
     id="path1467" />
  <path
     style="opacity:1;fill:#e3e3e3;fill-opacity:1;stroke:none;stroke-width:2.23347926;stroke-linecap:round;stroke-linejoin:round;stroke-miterlimit:10;stroke-dasharray:none;stroke-opacity:1"
     d="M 2.4335938 5.0722656 C 1.0928218 5.0722656 0.013671875 6.1514156 0.013671875 7.4921875 L 0.013671875 29.589844 C 0.013671875 30.930616 1.0928218 32.009766 2.4335938 32.009766 L 24.53125 32.009766 C 25.872022 32.009766 26.951172 30.930616 26.951172 29.589844 L 26.951172 18.685547 C 25.897046 19.019543 24.79597 19.201107 23.689453 19.201172 C 22.112563 19.201079 20.545549 18.829642 19.115234 18.167969 L 19.115234 18.589844 C 19.119034 19.273749 19.691095 19.839724 20.375 19.835938 L 21.900391 19.835938 L 21.900391 25.257812 C 21.900391 26.199426 21.142785 26.957031 20.201172 26.957031 L 14.792969 26.957031 L 14.792969 25.498047 L 15.357422 25.498047 C 16.387294 25.4954 17.239181 24.650913 17.25 23.621094 L 17.25 22.650391 C 17.2473 21.613148 16.392712 20.75663 15.355469 20.753906 L 14.792969 20.753906 L 14.792969 19.835938 L 15.796875 19.835938 L 15.800781 19.835938 C 16.479573 19.832238 17.045086 19.268618 17.048828 18.589844 L 17.048828 17.945312 C 17.048818 17.630897 17.285185 17.387242 17.599609 17.384766 L 17.685547 17.384766 C 17.254409 17.101797 16.849187 16.781282 16.462891 16.439453 C 16.005182 16.788274 15.703106 17.332249 15.703125 17.945312 L 15.703125 18.496094 L 13.462891 18.496094 L 13.462891 16.158203 L 13.462891 16.154297 C 13.464891 15.467757 12.891624 14.898363 12.205078 14.900391 L 11.566406 14.900391 L 11.5625 14.900391 C 11.25014 14.897891 11.008332 14.656094 11.005859 14.34375 L 11.005859 13.384766 C 11.009059 13.074497 11.248825 12.840363 11.558594 12.837891 L 12.195312 12.837891 C 12.784066 12.844391 13.288212 12.427532 13.423828 11.876953 C 13.024141 10.731577 12.800853 9.5263563 12.800781 8.3125 C 12.800846 7.2142197 12.977457 6.1192739 13.306641 5.0722656 L 2.4335938 5.0722656 z M 6.75 10.107422 L 12.121094 10.107422 L 12.121094 11.496094 L 11.558594 11.496094 C 10.528721 11.498694 9.676827 12.34323 9.6660156 13.373047 L 9.6660156 13.376953 L 9.6660156 14.34375 C 9.6687256 15.381013 10.525256 16.237522 11.5625 16.240234 L 12.121094 16.240234 L 12.121094 17.15625 L 11.115234 17.15625 C 10.436459 17.16005 9.8709304 17.725522 9.8671875 18.404297 L 9.8671875 19.048828 C 9.8671977 19.363247 9.6308119 19.604953 9.3164062 19.607422 L 8.3574219 19.607422 C 8.0422497 19.607423 7.799955 19.367894 7.8007812 19.052734 L 7.8007812 19.048828 L 7.8007812 18.404297 C 7.797019 17.721456 7.2293662 17.154237 6.546875 17.15625 L 5.0488281 17.15625 L 5.0488281 11.806641 C 5.0488281 10.865027 5.808387 10.107422 6.75 10.107422 z M 5.0488281 18.496094 L 6.4589844 18.496094 L 6.4589844 19.048828 C 6.4562544 20.089924 7.3163227 20.949223 8.3574219 20.949219 L 9.3242188 20.949219 C 10.359577 20.941119 11.209017 20.084217 11.208984 19.048828 L 11.208984 18.496094 L 13.453125 18.496094 L 13.453125 20.839844 C 13.451125 21.526402 14.022426 22.095778 14.708984 22.09375 L 15.355469 22.09375 C 15.668905 22.09625 15.907382 22.340344 15.908203 22.654297 L 15.908203 23.609375 C 15.904903 23.920748 15.666859 24.157403 15.355469 24.158203 L 14.720703 24.158203 C 14.029104 24.150503 13.449261 24.726339 13.453125 25.417969 L 13.453125 26.957031 L 6.75 26.957031 C 5.808387 26.957031 5.0488281 26.199426 5.0488281 25.257812 L 5.0488281 18.496094 z "
     transform="scale(0.26458333)"
     id="path1463" />
  <style
     id="style815-9"
     type="text/css">
	.st0{fill:#00005B;}
	.st1{fill:#9999FF;}
</style>
  <style
     type="text/css"
     id="style815-3">
	.st0{fill:#00005B;}
	.st1{fill:#9999FF;}
</style>
  <style
     id="style815-7-91"
     type="text/css">
	.st0{fill:#00005B;}
	.st1{fill:#9999FF;}
</style>
  <style
     id="style815-8-9"
     type="text/css">
	.st0{fill:#00005B;}
	.st1{fill:#9999FF;}
</style>
  <style
     type="text/css"
     id="style815-7-9-6">
	.st0{fill:#00005B;}
	.st1{fill:#9999FF;}
</style>
</svg>
