<?xml version="1.0" encoding="UTF-8" standalone="no"?>
<!-- Created with Inkscape (http://www.inkscape.org/) -->

<svg
   xmlns:dc="http://purl.org/dc/elements/1.1/"
   xmlns:cc="http://creativecommons.org/ns#"
   xmlns:rdf="http://www.w3.org/1999/02/22-rdf-syntax-ns#"
   xmlns:svg="http://www.w3.org/2000/svg"
   xmlns="http://www.w3.org/2000/svg"
   xmlns:sodipodi="http://sodipodi.sourceforge.net/DTD/sodipodi-0.dtd"
   xmlns:inkscape="http://www.inkscape.org/namespaces/inkscape"
   width="32"
   height="32"
   viewBox="0 0 8.4666666 8.4666666"
   version="1.1"
   id="svg8"
   inkscape:version="0.92.5 (2060ec1f9f, 2020-04-08)"
   sodipodi:docname="radio-transmission_sl.svg">
  <defs
     id="defs2">
    <style
       id="style857">.cls-1{fill:#e52120;}.cls-1,.cls-2,.cls-3,.cls-4,.cls-5{stroke:#000;stroke-miterlimit:10;stroke-width:1.2px;}.cls-2{fill:#6dbc88;}.cls-3{fill:#701034;}.cls-4{fill:#51aae0;}.cls-5{fill:none;}</style>
  </defs>
  <sodipodi:namedview
     id="base"
     pagecolor="#ffffff"
     bordercolor="#666666"
     borderopacity="1.0"
     inkscape:pageopacity="0.0"
     inkscape:pageshadow="2"
     inkscape:zoom="22.627417"
     inkscape:cx="15.942873"
     inkscape:cy="13.492561"
     inkscape:document-units="mm"
     inkscape:current-layer="svg8"
     showgrid="false"
     units="px"
     inkscape:window-width="1848"
     inkscape:window-height="1136"
     inkscape:window-x="0"
     inkscape:window-y="27"
     inkscape:window-maximized="1">
    <sodipodi:guide
       position="8.4666666,0"
       orientation="-32,0"
       id="guide854"
       inkscape:locked="false" />
    <sodipodi:guide
       position="8.4666666,8.4666666"
       orientation="0,-32"
       id="guide856"
       inkscape:locked="false" />
    <sodipodi:guide
       position="0,8.4666814"
       orientation="32,0"
       id="guide858"
       inkscape:locked="false" />
  </sodipodi:namedview>
  <metadata
     id="metadata5">
    <rdf:RDF>
      <cc:Work
         rdf:about="">
        <dc:format>image/svg+xml</dc:format>
        <dc:type
           rdf:resource="http://purl.org/dc/dcmitype/StillImage" />
        <dc:title></dc:title>
      </cc:Work>
    </rdf:RDF>
  </metadata>
  <style
     type="text/css"
     id="style815">
	.st0{fill:#00005B;}
	.st1{fill:#9999FF;}
</style>
  <path
     style="stroke-width:0.01097714;fill:#e3e3e3;fill-opacity:1"
     d="m 6.9812797,0.62096747 c -0.045843,-6.5926e-4 -0.09211,0.0172046 -0.127183,0.0525487 L 6.481689,1.0489703 c -0.066961,0.0674 -0.068786,0.1759535 -0.00457,0.2459875 1.4674239,1.6017842 1.4677529,4.0761611 0,5.6782737 -0.064217,0.070035 -0.062279,0.1778266 0.00457,0.2452259 l 0.3724083,0.3762161 c 0.070144,0.070582 0.1844608,0.069298 0.2520798,-0.0038 1.7988236,-1.9448195 1.7981651,-4.9694907 0,-6.91354196 -0.033809,-0.0365545 -0.079054,-0.0556962 -0.1248972,-0.0563555 z m -5.491689,0.008372 c -0.045843,6.5903e-4 -0.091088,0.0198021 -0.124897,0.0563555 -1.79816485,1.94405113 -1.79882348,4.96872253 0,6.91354223 0.067619,0.073106 0.1819363,0.074391 0.25208,0.0038 L 1.9899431,7.2268349 c 0.06685,-0.0674 0.068024,-0.1751915 0.0038,-0.2452262 -1.46775292,-1.6021127 -1.46742364,-4.0764893 0,-5.6782736 0.064217,-0.070035 0.063153,-0.178588 -0.0038,-0.2459875 L 1.6167732,0.68189309 C 1.5817015,0.64654863 1.5354337,0.62868555 1.4895903,0.62934434 Z M 5.7345876,1.8508988 c -0.046296,-0.00108 -0.093248,0.015833 -0.1287052,0.051787 L 5.2327126,2.2811923 c -0.064985,0.065863 -0.068971,0.1712744 -0.00837,0.2414181 0.7966108,0.9215306 0.7948547,2.302872 0,3.2222069 -0.060594,0.070145 -0.056719,0.1763168 0.00837,0.2421796 l 0.3731697,0.3777393 c 0.070913,0.072009 0.1875142,0.069538 0.2543649,-0.00608 1.1188996,-1.2652246 1.1176923,-3.1860618 0,-4.4498594 -0.03348,-0.037872 -0.079363,-0.056796 -0.1256591,-0.05788 z m -2.998305,0.00837 c -0.046296,0.00108 -0.092179,0.020009 -0.125659,0.05788 -1.1176927,1.2637976 -1.1188997,3.1846353 0,4.4498596 0.06685,0.075631 0.1834516,0.078102 0.2543644,0.00608 L 3.2381581,5.995371 c 0.065095,-0.065864 0.068971,-0.1720347 0.00837,-0.2421796 -0.7948546,-0.9193353 -0.7966108,-2.3006766 0,-3.2222072 0.060592,-0.070144 0.056609,-0.1755556 -0.00837,-0.241418 L 2.864988,1.9110687 C 2.829531,1.8751137 2.782579,1.8581987 2.7362827,1.8592817 Z M 4.2403854,3.431153 c -0.3880418,0 -0.7029298,0.3148882 -0.7029298,0.70293 0,0.3880418 0.314888,0.7021684 0.7029298,0.7021684 0.3880415,0 0.7021685,-0.3141266 0.7021685,-0.7021684 0,-0.3880418 -0.314127,-0.70293 -0.7021685,-0.70293 z"
     id="path866"
     inkscape:connector-curvature="0" />
</svg>
