<svg id="Calque_1" data-name="Calque 1" xmlns="http://www.w3.org/2000/svg" viewBox="0 0 32 32"><defs><style>.cls-1{fill:#e3e3e3;}</style></defs><title>randomize_l</title><circle class="cls-1" cx="16.63" cy="15.31" r="4.37"/><path class="cls-1" d="M7.13,4.94a1.82,1.82,0,0,1,1.32.55,1.86,1.86,0,0,1,0,2.64,1.86,1.86,0,0,1-2.64,0,1.86,1.86,0,0,1,0-2.64,1.82,1.82,0,0,1,1.32-.55m0-2A3.87,3.87,0,1,0,9.87,4.07,3.89,3.89,0,0,0,7.13,2.94Z"/><path class="cls-1" d="M21.1,3a2.84,2.84,0,0,1,2,4.85,2.85,2.85,0,0,1-4,0A2.84,2.84,0,0,1,21.1,3m0-2a4.84,4.84,0,0,0-3.42,8.26,4.84,4.84,0,1,0,6.84-6.84A4.79,4.79,0,0,0,21.1,1Z"/><path class="cls-1" d="M28.6,16a1.34,1.34,0,1,1,0,2.68,1.34,1.34,0,0,1-1-.39,1.35,1.35,0,0,1,0-1.9,1.34,1.34,0,0,1,1-.39m0-2A3.34,3.34,0,1,0,31,15a3.32,3.32,0,0,0-2.36-1Z"/><path class="cls-1" d="M6.6,22a3.34,3.34,0,1,1-2.36,1A3.32,3.32,0,0,1,6.6,22m0-2a5.34,5.34,0,1,0,3.77,1.56A5.35,5.35,0,0,0,6.6,20Z"/></svg>