<?xml version="1.0" encoding="UTF-8" standalone="no"?>
<!-- Created with Inkscape (http://www.inkscape.org/) -->

<svg
   xmlns:dc="http://purl.org/dc/elements/1.1/"
   xmlns:cc="http://creativecommons.org/ns#"
   xmlns:rdf="http://www.w3.org/1999/02/22-rdf-syntax-ns#"
   xmlns:svg="http://www.w3.org/2000/svg"
   xmlns="http://www.w3.org/2000/svg"
   xmlns:sodipodi="http://sodipodi.sourceforge.net/DTD/sodipodi-0.dtd"
   xmlns:inkscape="http://www.inkscape.org/namespaces/inkscape"
   width="32"
   height="32"
   viewBox="0 0 8.4666666 8.4666666"
   version="1.1"
   id="svg8"
   inkscape:version="0.92.5 (2060ec1f9f, 2020-04-08)"
   sodipodi:docname="reload-code-file_bl.svg">
  <defs
     id="defs2">
    <style
       id="style1399">.cls-1{fill:#e3e3e3;}</style>
  </defs>
  <sodipodi:namedview
     id="base"
     pagecolor="#ffffff"
     bordercolor="#666666"
     borderopacity="1.0"
     inkscape:pageopacity="0.0"
     inkscape:pageshadow="2"
     inkscape:zoom="11.313708"
     inkscape:cx="-0.017950177"
     inkscape:cy="19.847129"
     inkscape:document-units="mm"
     inkscape:current-layer="svg8"
     showgrid="false"
     units="px"
     inkscape:window-width="1848"
     inkscape:window-height="1136"
     inkscape:window-x="1920"
     inkscape:window-y="27"
     inkscape:window-maximized="1">
    <sodipodi:guide
       position="8.4666666,0"
       orientation="-32,0"
       id="guide854"
       inkscape:locked="false" />
    <sodipodi:guide
       position="8.4666666,8.4666666"
       orientation="0,-32"
       id="guide856"
       inkscape:locked="false" />
    <sodipodi:guide
       position="0,8.4666814"
       orientation="1,6.123234e-17"
       id="guide858"
       inkscape:locked="false" />
  </sodipodi:namedview>
  <metadata
     id="metadata5">
    <rdf:RDF>
      <cc:Work
         rdf:about="">
        <dc:format>image/svg+xml</dc:format>
        <dc:type
           rdf:resource="http://purl.org/dc/dcmitype/StillImage" />
        <dc:title></dc:title>
      </cc:Work>
    </rdf:RDF>
  </metadata>
  <path
     style="fill:#e3e3e3;fill-opacity:1;stroke-width:0.06231719"
     d="M 1.4628906 0 C 0.63687563 0 -0.033203125 0.67007917 -0.033203125 1.4960938 L -0.033203125 30.410156 C -0.033203125 31.23617 0.63687563 31.90625 1.4628906 31.90625 L 22.402344 31.90625 C 22.973355 31.90625 23.462855 31.581768 23.714844 31.111328 C 21.277289 31.026057 18.881601 30.004648 17.15625 28.279297 C 15.353469 26.476516 14.306314 23.942095 14.306641 21.392578 C 14.306315 18.843062 15.353469 16.30864 17.15625 14.505859 C 18.924464 12.737645 21.396657 11.703028 23.896484 11.664062 L 23.896484 9.9707031 L 15.421875 9.9707031 C 14.599288 9.9707031 13.925781 9.2971963 13.925781 8.4746094 L 13.925781 0 L 1.4628906 0 z M 15.919922 0 L 15.919922 7.9765625 L 23.896484 7.9765625 L 23.896484 7.5996094 C 23.896464 7.2029491 23.739433 6.8215284 23.458984 6.5410156 L 17.355469 0.4375 C 17.074979 0.15707266 16.695479 0 16.298828 0 L 15.919922 0 z M 11.423828 13.761719 C 11.46724 13.756583 11.512016 13.760497 11.556641 13.773438 L 13.267578 14.269531 C 13.44607 14.321356 13.547934 14.509014 13.496094 14.6875 L 9.6679688 27.875 C 9.6162573 28.053522 9.4284784 28.155384 9.25 28.103516 L 7.5410156 27.607422 C 7.3625463 27.555567 7.2587862 27.36795 7.3105469 27.189453 L 11.138672 14.001953 C 11.177563 13.868101 11.293592 13.777127 11.423828 13.761719 z M 5.8203125 16.8125 C 5.906392 16.815277 5.9911317 16.850172 6.0546875 16.917969 L 7.2753906 18.220703 C 7.4053308 18.359321 7.3945925 18.57761 7.2519531 18.703125 L 4.7109375 20.939453 L 7.2519531 23.173828 C 7.3945925 23.299342 7.4053308 23.517631 7.2753906 23.65625 L 6.0546875 24.958984 C 5.9275744 25.094579 5.7137103 25.10173 5.578125 24.974609 L 1.5371094 21.183594 C 1.3952989 21.050645 1.3952989 20.826307 1.5371094 20.693359 L 5.578125 16.904297 C 5.6459184 16.840737 5.734233 16.809723 5.8203125 16.8125 z "
     transform="scale(0.26458333)"
     id="path1026" />
  <path
     inkscape:connector-curvature="0"
     id="path975"
     d="M 6.3610151,3.5551424 A 2.1051994,2.1051994 0 0 0 4.2558156,5.6603419 2.1051994,2.1051994 0 0 0 6.3610151,7.7655414 2.1051994,2.1051994 0 0 0 8.4662146,5.6603419 2.1051994,2.1051994 0 0 0 6.3610151,3.5551424 Z m -0.00308,0.8400753 c 0.338464,0 0.6456647,0.1330236 0.8724552,0.349753 L 7.4123297,4.5630272 c 0.077011,-0.07701 0.2086697,-0.022324 0.2086697,0.086603 v 0.6828021 c 0,0.067517 -0.05455,0.1223236 -0.1220666,0.1223236 H 6.8158736 c -0.1089128,0 -0.1633572,-0.1319061 -0.086346,-0.2089267 L 6.942052,5.033305 C 6.7828138,4.8842021 6.5763915,4.8025929 6.3571601,4.8027918 5.9626149,4.8030905 5.6219225,5.0735895 5.527878,5.4488454 c -0.00685,0.027301 -0.0312,0.046514 -0.059363,0.046514 H 5.176583 c -0.038192,0 -0.067199,-0.034667 -0.060134,-0.072212 C 5.2266609,4.8378802 5.7406449,4.3952177 6.357931,4.3952177 Z M 7.24709,5.8214698 h 0.291932 c 0.038192,0 0.067199,0.034667 0.060134,0.072212 -0.1102167,0.585252 -0.6239388,1.0279294 -1.2412249,1.0279294 -0.3384638,0 -0.6459217,-0.1330236 -0.872712,-0.3497531 L 5.3032757,6.7538019 C 5.2262645,6.8308173 5.094606,6.7761206 5.094606,6.6671989 V 5.9843967 c 0,-0.067517 0.054807,-0.1223236 0.1223236,-0.1223236 h 0.6828022 c 0.1089128,0 0.1633572,0.1316541 0.086346,0.2086697 L 5.7735534,6.2835241 c 0.1592382,0.1491128 0.3659124,0.2307121 0.5851489,0.2305132 0.3943414,-3.026e-4 0.7349348,-0.2706237 0.8290251,-0.6460536 0.00685,-0.027301 0.0312,-0.046514 0.059363,-0.046514 z"
     style="fill:#d588f1;fill-opacity:1;stroke:none;stroke-width:0.77826083;stroke-miterlimit:4;stroke-dasharray:none;stroke-opacity:1" />
</svg>
