<?xml version="1.0" encoding="UTF-8" standalone="no"?>
<!-- Created with Inkscape (http://www.inkscape.org/) -->

<svg
   xmlns:dc="http://purl.org/dc/elements/1.1/"
   xmlns:cc="http://creativecommons.org/ns#"
   xmlns:rdf="http://www.w3.org/1999/02/22-rdf-syntax-ns#"
   xmlns:svg="http://www.w3.org/2000/svg"
   xmlns="http://www.w3.org/2000/svg"
   xmlns:sodipodi="http://sodipodi.sourceforge.net/DTD/sodipodi-0.dtd"
   xmlns:inkscape="http://www.inkscape.org/namespaces/inkscape"
   width="32"
   height="32"
   viewBox="0 0 8.4666666 8.4666666"
   version="1.1"
   id="svg8"
   inkscape:version="0.92.5 (2060ec1f9f, 2020-04-08)"
   sodipodi:docname="reload_bl.svg">
  <defs
     id="defs2" />
  <sodipodi:namedview
     id="base"
     pagecolor="#ffffff"
     bordercolor="#666666"
     borderopacity="1.0"
     inkscape:pageopacity="0.0"
     inkscape:pageshadow="2"
     inkscape:zoom="8"
     inkscape:cx="-11.819746"
     inkscape:cy="23.400104"
     inkscape:document-units="mm"
     inkscape:current-layer="layer1"
     showgrid="false"
     units="px"
     inkscape:window-width="1920"
     inkscape:window-height="1043"
     inkscape:window-x="0"
     inkscape:window-y="120"
     inkscape:window-maximized="1">
    <sodipodi:guide
       position="8.4666666,0"
       orientation="-32,0"
       id="guide854"
       inkscape:locked="false" />
    <sodipodi:guide
       position="8.4666666,8.4666666"
       orientation="0,-32"
       id="guide856"
       inkscape:locked="false" />
    <sodipodi:guide
       position="0,8.4666814"
       orientation="32,0"
       id="guide858"
       inkscape:locked="false" />
  </sodipodi:namedview>
  <metadata
     id="metadata5">
    <rdf:RDF>
      <cc:Work
         rdf:about="">
        <dc:format>image/svg+xml</dc:format>
        <dc:type
           rdf:resource="http://purl.org/dc/dcmitype/StillImage" />
        <dc:title></dc:title>
      </cc:Work>
    </rdf:RDF>
  </metadata>
  <g
     inkscape:label="Layer 1"
     inkscape:groupmode="layer"
     id="layer1"
     transform="translate(0,-288.53334)">
    <path
       style="fill:#d588f1;fill-opacity:1;stroke:none;stroke-width:5.91496086;stroke-miterlimit:4;stroke-dasharray:none;stroke-opacity:1"
       d="M 16,0 A 15.999999,15.999999 0 0 0 0,16 15.999999,15.999999 0 0 0 16,32 15.999999,15.999999 0 0 0 32,16 15.999999,15.999999 0 0 0 16,0 Z m -0.02344,6.3847656 c 2.572404,0 4.9072,1.0110094 6.63086,2.6582032 l 1.382812,-1.3828126 c 0.585304,-0.5852976 1.585938,-0.1696645 1.585938,0.6582032 v 5.1894526 c 0,0.513147 -0.414594,0.929688 -0.927734,0.929688 h -5.191407 c -0.827762,0 -1.241552,-1.002517 -0.65625,-1.587891 l 1.615235,-1.615234 c -1.210247,-1.133216 -2.779104,-1.7534649 -4.445313,-1.7519531 -2.998634,0.00227 -5.587975,2.0581251 -6.3027342,4.9101561 -0.052029,0.207496 -0.2371259,0.353516 -0.4511719,0.353516 h -2.21875 c -0.2902715,0 -0.5107259,-0.263474 -0.4570313,-0.548828 0.837634,-4.4481642 4.7440304,-7.8125004 9.4355464,-7.8125004 z m 6.757813,10.8398434 h 2.21875 c 0.290271,0 0.510727,0.263474 0.457031,0.548829 -0.837672,4.44805 -4.742078,7.8125 -9.433594,7.8125 -2.572403,0 -4.909153,-1.01101 -6.632812,-2.658204 L 7.9609375,24.310547 C 7.3756349,24.895882 6.375,24.480174 6.375,23.652344 v -5.189453 c 0,-0.513147 0.4165467,-0.929688 0.9296875,-0.929688 h 5.1894535 c 0.827762,0 1.241552,1.000602 0.65625,1.585938 l -1.615235,1.617187 c 1.210247,1.133291 2.781018,1.753465 4.447266,1.751953 2.997085,-0.0023 5.585673,-2.056802 6.300781,-4.910156 0.05203,-0.207496 0.237126,-0.353516 0.451172,-0.353516 z"
       transform="matrix(0.26458333,0,0,0.26458333,0,288.53334)"
       id="path1058"
       inkscape:connector-curvature="0" />
  </g>
</svg>
