<?xml version="1.0" encoding="UTF-8" standalone="no"?>
<!-- Created with Inkscape (http://www.inkscape.org/) -->

<svg
   xmlns:dc="http://purl.org/dc/elements/1.1/"
   xmlns:cc="http://creativecommons.org/ns#"
   xmlns:rdf="http://www.w3.org/1999/02/22-rdf-syntax-ns#"
   xmlns:svg="http://www.w3.org/2000/svg"
   xmlns="http://www.w3.org/2000/svg"
   xmlns:sodipodi="http://sodipodi.sourceforge.net/DTD/sodipodi-0.dtd"
   xmlns:inkscape="http://www.inkscape.org/namespaces/inkscape"
   width="32"
   height="32"
   viewBox="0 0 8.4666666 8.4666666"
   version="1.1"
   id="svg8"
   inkscape:version="0.92.5 (2060ec1f9f, 2020-04-08)"
   sodipodi:docname="reload-code-file-2_sl.svg">
  <defs
     id="defs2">
    <style
       id="style1399">.cls-1{fill:#e3e3e3;}</style>
    <style
       id="style1399-1">.cls-1{fill:#e3e3e3;}</style>
    <style
       id="style1399-9">.cls-1{fill:#e3e3e3;}</style>
    <style
       id="style1399-0">.cls-1{fill:#e3e3e3;}</style>
    <style
       id="style1399-7">.cls-1{fill:#e3e3e3;}</style>
    <style
       id="style1399-3">.cls-1{fill:#e3e3e3;}</style>
    <style
       id="style1399-6">.cls-1{fill:#e3e3e3;}</style>
  </defs>
  <sodipodi:namedview
     id="base"
     pagecolor="#ffffff"
     bordercolor="#666666"
     borderopacity="1.0"
     inkscape:pageopacity="0.0"
     inkscape:pageshadow="2"
     inkscape:zoom="7.9999995"
     inkscape:cx="-14.432888"
     inkscape:cy="9.4568295"
     inkscape:document-units="mm"
     inkscape:current-layer="svg8"
     showgrid="false"
     units="px"
     inkscape:window-width="1848"
     inkscape:window-height="1136"
     inkscape:window-x="1920"
     inkscape:window-y="27"
     inkscape:window-maximized="1">
    <sodipodi:guide
       position="8.4666666,0"
       orientation="-32,0"
       id="guide854"
       inkscape:locked="false" />
    <sodipodi:guide
       position="8.4666666,8.4666666"
       orientation="0,-32"
       id="guide856"
       inkscape:locked="false" />
    <sodipodi:guide
       position="0,8.4666814"
       orientation="1,6.123234e-17"
       id="guide858"
       inkscape:locked="false" />
  </sodipodi:namedview>
  <metadata
     id="metadata5">
    <rdf:RDF>
      <cc:Work
         rdf:about="">
        <dc:format>image/svg+xml</dc:format>
        <dc:type
           rdf:resource="http://purl.org/dc/dcmitype/StillImage" />
        <dc:title></dc:title>
      </cc:Work>
    </rdf:RDF>
  </metadata>
  <path
     style="fill:#d588f1;fill-opacity:1;stroke-width:0.06281408"
     d="M 2.4394531 0 C 1.6040267 0 0.93359375 0.67238576 0.93359375 1.5078125 L 0.93359375 30.652344 C 0.93359375 31.487771 1.6040267 32.160156 2.4394531 32.160156 L 23.544922 32.160156 C 24.380348 32.160156 25.052734 31.487771 25.052734 30.652344 L 25.052734 29.257812 C 23.721258 29.12974 22.515247 28.618251 21.414062 27.947266 C 20.655862 28.432915 19.739047 28.747889 18.978516 28.435547 C 18.065966 28.060773 17.31836 27.064469 17.318359 25.955078 L 17.318359 22.550781 C 17.318359 21.974499 17.622368 21.508812 17.9375 21.068359 C 17.599478 20.573951 17.340478 19.998718 17.458984 19.369141 C 18.151819 15.689946 21.266712 12.868902 25.052734 12.578125 L 25.052734 10.050781 L 16.509766 10.050781 C 15.680621 10.050781 15.003906 9.3721212 15.003906 8.5429688 L 15.003906 0 L 2.4394531 0 z M 17.013672 0 L 17.013672 8.0410156 L 25.052734 8.0410156 L 25.052734 7.65625 C 25.052734 7.2605335 24.895945 6.8784118 24.613281 6.5957031 L 18.464844 0.43945312 C 18.18218 0.15659331 17.798494 -7.4014868e-17 17.396484 0 L 17.013672 0 z M 10.341797 11.978516 C 10.588142 11.978514 10.760859 12.056093 10.859375 12.210938 C 10.957911 12.358745 11.007812 12.649556 11.007812 13.085938 C 11.007813 13.409705 10.985588 13.654522 10.943359 13.816406 C 10.901127 13.978291 10.830962 14.086271 10.732422 14.142578 C 10.640925 14.198882 10.510719 14.226562 10.341797 14.226562 C 9.6942625 14.226563 9.1863106 14.294007 8.8203125 14.427734 C 8.4543148 14.561464 8.1911816 14.769244 8.0292969 15.050781 C 7.8744534 15.32528 7.796875 15.696395 7.796875 16.167969 C 7.796875 16.294659 7.801526 16.394458 7.8085938 16.464844 L 7.8613281 17.490234 L 7.8710938 17.763672 C 7.8710938 18.502705 7.682809 19.115912 7.3027344 19.601562 C 6.9226598 20.080175 6.297366 20.441154 5.4316406 20.6875 L 5.4316406 20.794922 C 6.297366 21.034228 6.925377 21.395207 7.3125 21.880859 C 7.7066533 22.36651 7.9023438 22.967628 7.9023438 23.685547 C 7.9023437 23.826315 7.8996458 23.933524 7.8925781 24.003906 L 7.796875 25.386719 C 7.7898148 25.471181 7.7871094 25.596703 7.7871094 25.765625 C 7.7871094 26.2372 7.867414 26.612994 8.0292969 26.894531 C 8.1911816 27.176068 8.4589957 27.3858 8.8320312 27.519531 C 9.2050672 27.660296 9.708339 27.730469 10.341797 27.730469 C 10.510719 27.730469 10.640923 27.755417 10.732422 27.804688 C 10.83096 27.860995 10.901129 27.968974 10.943359 28.130859 C 10.985588 28.292744 11.007812 28.535609 11.007812 28.859375 C 11.007812 29.295756 10.957915 29.59125 10.859375 29.746094 C 10.760837 29.900937 10.588143 29.978516 10.341797 29.978516 C 8.5751539 29.978516 7.2657099 29.66548 6.4140625 29.039062 C 5.5624151 28.419685 5.1367188 27.455631 5.1367188 26.146484 C 5.1367187 25.942371 5.1468412 25.731864 5.1679688 25.513672 L 5.3046875 24.003906 C 5.3117492 23.947603 5.3164062 23.862615 5.3164062 23.75 C 5.3164063 23.151734 5.1058985 22.690953 4.6835938 22.367188 C 4.2683189 22.03638 3.6672091 21.869141 2.8789062 21.869141 C 2.7099818 21.869141 2.5778305 21.843417 2.4863281 21.787109 C 2.3948258 21.723761 2.3246568 21.609147 2.2753906 21.447266 C 2.233162 21.285381 2.2128906 21.049925 2.2128906 20.740234 C 2.2128906 20.430544 2.233162 20.197812 2.2753906 20.042969 C 2.3246605 19.881084 2.3948295 19.773104 2.4863281 19.716797 C 2.577829 19.653448 2.709984 19.621094 2.8789062 19.621094 C 3.6672091 19.621094 4.2609197 19.460484 4.6621094 19.136719 C 5.0703392 18.812952 5.2734375 18.352172 5.2734375 17.753906 C 5.2734375 17.641291 5.2707396 17.553579 5.2636719 17.490234 L 5.1582031 16.337891 C 5.1370756 16.126738 5.1269531 15.923638 5.1269531 15.726562 C 5.1269531 14.452608 5.552648 13.508827 6.4042969 12.896484 C 7.2559454 12.28414 8.5681149 11.978516 10.341797 11.978516 z M 25.693359 14.625 C 22.616134 14.625 20.053321 16.832413 19.503906 19.75 C 19.468686 19.937117 19.614298 20.111328 19.804688 20.111328 L 21.259766 20.111328 C 21.40016 20.111328 21.520558 20.015078 21.554688 19.878906 C 22.023506 18.008204 23.722611 16.659693 25.689453 16.658203 C 26.782341 16.657235 27.811653 17.063348 28.605469 17.806641 L 27.544922 18.867188 C 27.161015 19.251139 27.433624 19.908203 27.976562 19.908203 L 31.380859 19.908203 C 31.717436 19.908203 31.990234 19.635403 31.990234 19.298828 L 31.990234 15.894531 C 31.990234 15.351556 31.333127 15.078983 30.949219 15.462891 L 30.042969 16.369141 C 28.912398 15.28872 27.380631 14.625 25.693359 14.625 z M 14.183594 16.603516 C 14.795936 16.603516 15.239173 16.656143 15.513672 16.761719 C 15.788171 16.860257 15.925781 17.028274 15.925781 17.267578 L 15.925781 19.527344 C 15.925781 19.76665 15.78817 19.937391 15.513672 20.042969 C 15.239173 20.141505 14.795936 20.191406 14.183594 20.191406 C 13.571251 20.191406 13.128015 20.141509 12.853516 20.042969 C 12.579017 19.937393 12.441406 19.766648 12.441406 19.527344 L 12.441406 17.267578 C 12.441406 17.028272 12.579016 16.860259 12.853516 16.761719 C 13.128014 16.656145 13.571251 16.603514 14.183594 16.603516 z M 30.126953 21.736328 C 29.986555 21.736328 29.864207 21.832578 29.830078 21.96875 C 29.36103 23.840301 27.663092 25.187964 25.697266 25.189453 C 24.604353 25.190437 23.573113 24.782385 22.779297 24.039062 L 23.839844 22.978516 C 24.223751 22.594593 23.951143 21.939453 23.408203 21.939453 L 20.003906 21.939453 C 19.66733 21.939453 19.394531 22.212254 19.394531 22.548828 L 19.394531 25.953125 C 19.394531 26.496084 20.05164 26.766735 20.435547 26.382812 L 21.341797 25.476562 C 22.472367 26.556983 24.006087 27.220703 25.693359 27.220703 C 28.770584 27.220703 31.331417 25.013231 31.880859 22.095703 C 31.916079 21.908586 31.772421 21.736328 31.582031 21.736328 L 30.126953 21.736328 z M 13.255859 22.724609 L 15.820312 22.724609 C 15.939969 22.724609 16.032358 22.756968 16.095703 22.820312 C 16.159048 22.883661 16.189453 22.968641 16.189453 23.074219 C 16.189453 23.179792 16.164504 23.285048 16.115234 23.390625 L 13.613281 29.060547 C 13.472512 29.398391 13.099444 29.568359 12.494141 29.568359 C 12.226682 29.568359 12.016172 29.518462 11.861328 29.419922 C 11.713522 29.321383 11.638672 29.183772 11.638672 29.007812 C 11.638672 28.944464 11.643323 28.899251 11.650391 28.871094 L 12.707031 23.148438 C 12.735189 23.014706 12.793267 22.912183 12.884766 22.841797 C 12.983302 22.764373 13.108053 22.724609 13.255859 22.724609 z "
     transform="scale(0.26458333)"
     id="path1112" />
</svg>
