<?xml version="1.0" encoding="UTF-8" standalone="no"?>
<!-- Created with Inkscape (http://www.inkscape.org/) -->

<svg
   xmlns:dc="http://purl.org/dc/elements/1.1/"
   xmlns:cc="http://creativecommons.org/ns#"
   xmlns:rdf="http://www.w3.org/1999/02/22-rdf-syntax-ns#"
   xmlns:svg="http://www.w3.org/2000/svg"
   xmlns="http://www.w3.org/2000/svg"
   xmlns:sodipodi="http://sodipodi.sourceforge.net/DTD/sodipodi-0.dtd"
   xmlns:inkscape="http://www.inkscape.org/namespaces/inkscape"
   width="32"
   height="32"
   viewBox="0 0 8.4666666 8.4666666"
   version="1.1"
   id="svg8"
   inkscape:version="0.92.5 (2060ec1f9f, 2020-04-08)"
   sodipodi:docname="reload-code-file_sl.svg">
  <defs
     id="defs2">
    <style
       id="style1399">.cls-1{fill:#e3e3e3;}</style>
    <style
       id="style1399-1">.cls-1{fill:#e3e3e3;}</style>
    <style
       id="style1399-9">.cls-1{fill:#e3e3e3;}</style>
    <style
       id="style1399-0">.cls-1{fill:#e3e3e3;}</style>
    <style
       id="style1399-7">.cls-1{fill:#e3e3e3;}</style>
    <style
       id="style1399-3">.cls-1{fill:#e3e3e3;}</style>
  </defs>
  <sodipodi:namedview
     id="base"
     pagecolor="#ffffff"
     bordercolor="#666666"
     borderopacity="1.0"
     inkscape:pageopacity="0.0"
     inkscape:pageshadow="2"
     inkscape:zoom="5.6568539"
     inkscape:cx="2.331284"
     inkscape:cy="-3.4929441"
     inkscape:document-units="mm"
     inkscape:current-layer="svg8"
     showgrid="false"
     units="px"
     inkscape:window-width="1848"
     inkscape:window-height="1136"
     inkscape:window-x="1920"
     inkscape:window-y="27"
     inkscape:window-maximized="1">
    <sodipodi:guide
       position="8.4666666,0"
       orientation="-32,0"
       id="guide854"
       inkscape:locked="false" />
    <sodipodi:guide
       position="8.4666666,8.4666666"
       orientation="0,-32"
       id="guide856"
       inkscape:locked="false" />
    <sodipodi:guide
       position="0,8.4666814"
       orientation="1,6.123234e-17"
       id="guide858"
       inkscape:locked="false" />
  </sodipodi:namedview>
  <metadata
     id="metadata5">
    <rdf:RDF>
      <cc:Work
         rdf:about="">
        <dc:format>image/svg+xml</dc:format>
        <dc:type
           rdf:resource="http://purl.org/dc/dcmitype/StillImage" />
        <dc:title></dc:title>
      </cc:Work>
    </rdf:RDF>
  </metadata>
  <path
     style="fill:#dcb5ea;fill-opacity:1;stroke-width:0.06281408"
     d="M 2.4394531 0 C 1.6040267 0 0.93359375 0.67238575 0.93359375 1.5078125 L 0.93359375 30.652344 C 0.93359375 31.487771 1.6040267 32.160156 2.4394531 32.160156 L 23.544922 32.160156 C 24.380348 32.160156 25.052734 31.487771 25.052734 30.652344 L 25.052734 29.257812 C 23.721258 29.129739 22.515247 28.618251 21.414062 27.947266 C 20.655861 28.432915 19.739047 28.747889 18.978516 28.435547 C 18.065966 28.060773 17.31836 27.064469 17.318359 25.955078 L 17.318359 22.550781 C 17.318359 21.974499 17.622368 21.508812 17.9375 21.068359 C 17.599478 20.573951 17.340478 19.998718 17.458984 19.369141 C 18.151819 15.689946 21.266712 12.868902 25.052734 12.578125 L 25.052734 10.050781 L 16.509766 10.050781 C 15.680621 10.050781 15.003906 9.3721213 15.003906 8.5429688 L 15.003906 0 L 2.4394531 0 z M 17.013672 0 L 17.013672 8.0410156 L 25.052734 8.0410156 L 25.052734 7.65625 C 25.052734 7.2605335 24.895945 6.8784118 24.613281 6.5957031 L 18.464844 0.43945312 C 18.18218 0.1565933 17.798494 -1.4802974e-16 17.396484 0 L 17.013672 0 z M 15.015625 11.8125 C 15.070434 11.806006 15.127244 11.810324 15.183594 11.826172 L 17.332031 12.449219 C 17.557431 12.512613 17.684484 12.749212 17.621094 12.974609 L 12.8125 29.533203 C 12.745583 29.758599 12.51446 29.889181 12.289062 29.822266 L 10.140625 29.199219 C 9.9152264 29.135825 9.7881692 28.899226 9.8515625 28.673828 L 14.658203 12.115234 C 14.705749 11.946185 14.851199 11.831981 15.015625 11.8125 z M 25.693359 14.625 C 22.616134 14.625 20.053321 16.832413 19.503906 19.75 C 19.468685 19.937117 19.614298 20.111328 19.804688 20.111328 L 21.259766 20.111328 C 21.40016 20.111328 21.520558 20.015075 21.554688 19.878906 C 22.023507 18.008204 23.722611 16.659693 25.689453 16.658203 C 26.782341 16.657235 27.811653 17.063348 28.605469 17.806641 L 27.544922 18.867188 C 27.161015 19.25114 27.433623 19.908203 27.976562 19.908203 L 31.380859 19.908203 C 31.717436 19.908203 31.990234 19.635403 31.990234 19.298828 L 31.990234 15.894531 C 31.990234 15.351556 31.333127 15.078983 30.949219 15.462891 L 30.042969 16.369141 C 28.912398 15.28872 27.380631 14.625 25.693359 14.625 z M 7.9785156 15.644531 C 8.0868125 15.648053 8.1941957 15.692818 8.2734375 15.777344 L 9.8046875 17.412109 C 9.9702308 17.58468 9.9569581 17.859095 9.7773438 18.017578 L 6.5859375 20.824219 L 9.7773438 23.630859 C 9.9569551 23.789343 9.9666924 24.063759 9.8046875 24.236328 L 8.2734375 25.871094 C 8.1149544 26.043665 7.8464014 26.050674 7.6738281 25.888672 L 2.5996094 21.130859 C 2.4199949 20.965333 2.4199949 20.6792 2.5996094 20.513672 L 7.6738281 15.759766 C 7.7601136 15.678765 7.8702188 15.641009 7.9785156 15.644531 z M 30.126953 21.736328 C 29.986555 21.736328 29.864207 21.832581 29.830078 21.96875 C 29.36103 23.840301 27.663092 25.187964 25.697266 25.189453 C 24.604353 25.190437 23.573113 24.782385 22.779297 24.039062 L 23.839844 22.978516 C 24.223751 22.594593 23.951143 21.939453 23.408203 21.939453 L 20.003906 21.939453 C 19.66733 21.939453 19.394531 22.212254 19.394531 22.548828 L 19.394531 25.953125 C 19.394531 26.496084 20.05164 26.766735 20.435547 26.382812 L 21.341797 25.476562 C 22.472367 26.556983 24.006087 27.220703 25.693359 27.220703 C 28.770584 27.220703 31.331417 25.013231 31.880859 22.095703 C 31.916081 21.908586 31.772421 21.736328 31.582031 21.736328 L 30.126953 21.736328 z "
     transform="scale(0.26458333)"
     id="path1112" />
</svg>
