<svg id="Calque_1" data-name="Calque 1" xmlns="http://www.w3.org/2000/svg" viewBox="0 0 32 32"><defs><style>.cls-1{fill:#e3e3e3;}</style></defs><title>removeexpression_l</title><path class="cls-1" d="M27,26.08a1.62,1.62,0,0,1-2.77,1.15L5.44,8.41a1.63,1.63,0,0,1,2.3-2.3L26.56,24.94A1.62,1.62,0,0,1,27,26.08Z"/><path class="cls-1" d="M20.15,15.7h5.23A2.59,2.59,0,0,0,28,13.12v-.84A2.58,2.58,0,0,0,25.38,9.7H14.15Z"/><path class="cls-1" d="M4.74,10.53A2.55,2.55,0,0,0,4,12.28v.84A2.59,2.59,0,0,0,6.62,15.7H9.91Z"/><path class="cls-1" d="M27,26.08a1.62,1.62,0,0,1-2.77,1.15L5.44,8.41a1.63,1.63,0,0,1,2.3-2.3L26.56,24.94A1.62,1.62,0,0,1,27,26.08Z"/><path class="cls-1" d="M27.75,23.3a2.52,2.52,0,0,0,.21-1v-.84a2.58,2.58,0,0,0-2.58-2.58H23.33Z"/><path class="cls-1" d="M13.09,18.88H6.62A2.58,2.58,0,0,0,4,21.46v.84a2.59,2.59,0,0,0,2.58,2.58H19.09Z"/><path class="cls-1" d="M27,26.08a1.62,1.62,0,0,1-2.77,1.15L5.44,8.41a1.63,1.63,0,0,1,2.3-2.3L26.56,24.94A1.62,1.62,0,0,1,27,26.08Z"/></svg>