<svg id="Calque_1" data-name="Calque 1" xmlns="http://www.w3.org/2000/svg" viewBox="0 0 32 32"><defs><style>.cls-1{font-size:21.27px;font-family:MyriadPro-Bold, Myriad Pro;font-weight:700;letter-spacing:-0.06em;}.cls-1,.cls-3{fill:#e3e3e3;}.cls-2{letter-spacing:-0.05em;}</style></defs><title>rename_l</title><text class="cls-1" transform="translate(-0.81 24.68)">R<tspan class="cls-2" x="11.42" y="0">e</tspan></text><path class="cls-3" d="M30,10.28a.48.48,0,0,1-.47.47c-2.19,0-3.28.62-3.28,1.87V17h1.41a.42.42,0,0,1,.33.14.45.45,0,0,1,.14.33V19a.48.48,0,0,1-.47.47H26.25v4.37a1.67,1.67,0,0,0,1.25,1.61,5.55,5.55,0,0,0,2,.27.42.42,0,0,1,.33.14.45.45,0,0,1,.14.33v1.56a.48.48,0,0,1-.47.47,10,10,0,0,1-2.23-.2A4.68,4.68,0,0,1,25,26.76a4.68,4.68,0,0,1-2.34,1.29,9.83,9.83,0,0,1-2.19.2.48.48,0,0,1-.47-.47V26.22a.45.45,0,0,1,.14-.33.42.42,0,0,1,.33-.14c2.19,0,3.28-.63,3.28-1.88V19.5H22.34a.45.45,0,0,1-.33-.14.44.44,0,0,1-.13-.33V17.47a.44.44,0,0,1,.13-.33.42.42,0,0,1,.33-.14h1.41V12.62A1.65,1.65,0,0,0,22.5,11a5.15,5.15,0,0,0-2-.27.48.48,0,0,1-.47-.47V8.72a.45.45,0,0,1,.14-.33.42.42,0,0,1,.33-.14,10.13,10.13,0,0,1,2.23.19A4.76,4.76,0,0,1,25,9.73a4.75,4.75,0,0,1,2.34-1.29,9.92,9.92,0,0,1,2.19-.19.42.42,0,0,1,.33.14.45.45,0,0,1,.14.33Z"/></svg>