<?xml version="1.0" encoding="UTF-8" standalone="no"?>
<!-- Created with Inkscape (http://www.inkscape.org/) -->

<svg
   xmlns:dc="http://purl.org/dc/elements/1.1/"
   xmlns:cc="http://creativecommons.org/ns#"
   xmlns:rdf="http://www.w3.org/1999/02/22-rdf-syntax-ns#"
   xmlns:svg="http://www.w3.org/2000/svg"
   xmlns="http://www.w3.org/2000/svg"
   xmlns:sodipodi="http://sodipodi.sourceforge.net/DTD/sodipodi-0.dtd"
   xmlns:inkscape="http://www.inkscape.org/namespaces/inkscape"
   width="32"
   height="32"
   viewBox="0 0 8.4666666 8.4666666"
   version="1.1"
   id="svg8"
   inkscape:version="0.92.5 (2060ec1f9f, 2020-04-08)"
   sodipodi:docname="render-compute-build-file_bl.svg">
  <defs
     id="defs2">
    <style
       id="style1399">.cls-1{fill:#e3e3e3;}</style>
    <style
       id="style1399-1">.cls-1{fill:#e3e3e3;}</style>
    <style
       id="style1399-5">.cls-1{fill:#e3e3e3;}</style>
    <style
       id="style1399-8">.cls-1{fill:#e3e3e3;}</style>
  </defs>
  <sodipodi:namedview
     id="base"
     pagecolor="#ffffff"
     bordercolor="#666666"
     borderopacity="1.0"
     inkscape:pageopacity="0.0"
     inkscape:pageshadow="2"
     inkscape:zoom="15.999999"
     inkscape:cx="-9.9466896"
     inkscape:cy="19.942596"
     inkscape:document-units="mm"
     inkscape:current-layer="svg8"
     showgrid="false"
     units="px"
     inkscape:window-width="1920"
     inkscape:window-height="1043"
     inkscape:window-x="0"
     inkscape:window-y="120"
     inkscape:window-maximized="1">
    <sodipodi:guide
       position="8.4666666,0"
       orientation="-32,0"
       id="guide854"
       inkscape:locked="false" />
    <sodipodi:guide
       position="8.4666666,8.4666666"
       orientation="0,-32"
       id="guide856"
       inkscape:locked="false" />
    <sodipodi:guide
       position="0,8.4666814"
       orientation="1,6.123234e-17"
       id="guide858"
       inkscape:locked="false" />
  </sodipodi:namedview>
  <metadata
     id="metadata5">
    <rdf:RDF>
      <cc:Work
         rdf:about="">
        <dc:format>image/svg+xml</dc:format>
        <dc:type
           rdf:resource="http://purl.org/dc/dcmitype/StillImage" />
        <dc:title></dc:title>
      </cc:Work>
    </rdf:RDF>
  </metadata>
  <path
     style="fill:#e3e3e3;fill-opacity:1;stroke-width:0.0624048"
     d="M 6.9179688 0 C 6.087986 0 5.4199219 0.66806372 5.4199219 1.4980469 L 5.4199219 2.34375 C 6.1132212 2.1610888 6.8256644 2.0583307 7.5429688 2.0585938 C 9.7448981 2.0577862 11.935188 2.9586255 13.492188 4.515625 C 15.049183 6.0726245 15.950027 8.2629132 15.949219 10.464844 C 15.949742 11.893412 15.56452 13.313492 14.873047 14.5625 L 19.564453 19.253906 A 2.0627062 2.0627062 0 0 1 19.572266 19.259766 C 20.677234 20.376562 20.67716 22.225006 19.572266 23.341797 A 2.0627062 2.0627062 0 0 1 19.556641 23.349609 L 13.761719 29.136719 C 12.914578 29.978826 11.606468 30.167196 10.625 29.765625 C 9.9721297 29.498501 9.7490292 28.692165 9.4355469 27.994141 C 9.179725 29.086237 8.3316836 29.978516 7.1699219 29.978516 L 5.4199219 29.978516 L 5.4199219 30.453125 C 5.4199219 31.283108 6.087986 31.951172 6.9179688 31.951172 L 27.886719 31.951172 C 28.716702 31.951172 29.382813 31.283108 29.382812 30.453125 L 29.382812 9.984375 L 20.896484 9.984375 C 20.072742 9.984375 19.398438 9.3100784 19.398438 8.4863281 L 19.398438 0 L 6.9179688 0 z M 21.396484 0 L 21.396484 7.9882812 L 29.382812 7.9882812 L 29.382812 7.6074219 C 29.382813 7.2142834 29.228092 6.8336024 28.947266 6.5527344 L 22.837891 0.4375 C 22.557069 0.15648328 22.176734 7.4014868e-17 21.777344 0 L 21.396484 0 z "
     transform="scale(0.26458333)"
     id="path836" />
  <path
     style="fill:#8ad891;fill-opacity:1;stroke-width:0.0624048"
     d="M 7.5449219 4.0390625 A 6.4264383 6.4264383 0 0 0 1.1171875 10.464844 A 6.4264383 6.4264383 0 0 0 2.9570312 14.958984 C 1.7875376 15.469402 0.96679686 16.633344 0.96679688 17.990234 L 0.96679688 24.609375 C 0.96679688 26.436444 2.4502915 27.917969 4.2773438 27.917969 L 7.171875 27.917969 C 7.399395 27.917969 7.5859367 27.733345 7.5859375 27.505859 L 7.5859375 26.126953 C 7.5859375 25.899426 7.3993965 25.712891 7.171875 25.712891 L 4.2773438 25.712891 C 3.6671769 25.712891 3.1738281 25.219554 3.1738281 24.609375 L 3.1738281 17.990234 C 3.1738281 17.380056 3.6671769 16.886719 4.2773438 16.886719 L 7.171875 16.886719 C 7.184398 16.886719 7.1947817 16.880006 7.2070312 16.878906 A 6.4264383 6.4264383 0 0 0 7.5449219 16.892578 A 6.4264383 6.4264383 0 0 0 10.896484 15.939453 L 10.896484 18.818359 L 6.2070312 18.818359 C 5.7485479 18.818359 5.3808594 19.186071 5.3808594 19.644531 L 5.3808594 22.955078 C 5.3808594 23.413538 5.7485476 23.78125 6.2070312 23.78125 L 10.896484 23.78125 L 10.896484 27.091797 C 10.896484 27.833046 11.791503 28.194839 12.308594 27.677734 L 18.099609 21.886719 C 18.420204 21.562672 18.420204 21.036917 18.099609 20.712891 L 12.308594 14.921875 C 12.282114 14.895575 12.248933 14.888993 12.220703 14.867188 A 6.4264383 6.4264383 0 0 0 13.970703 10.464844 A 6.4264383 6.4264383 0 0 0 7.5449219 4.0390625 z M 5.40625 6.9921875 L 5.7558594 7.6933594 L 6.4570312 8.0449219 L 5.7558594 8.3945312 L 5.40625 9.0957031 L 5.0546875 8.3945312 L 4.3535156 8.0449219 L 5.0546875 7.6933594 L 5.40625 6.9921875 z M 7.3007812 6.9921875 L 7.5097656 7.4121094 L 7.9316406 7.6230469 L 7.5097656 7.8339844 L 7.3007812 8.2539062 L 7.0898438 7.8339844 L 6.6679688 7.6230469 L 7.046875 7.4335938 L 7.046875 7.5683594 L 7.2460938 7.3691406 L 7.1113281 7.3691406 L 7.3007812 6.9921875 z M 9.5507812 6.9921875 C 9.658528 6.9921875 9.767518 7.0329045 9.8496094 7.1152344 L 10.964844 8.2304688 C 11.129302 8.3947871 11.129302 8.6619779 10.964844 8.8261719 L 6.1875 13.603516 C 6.105276 13.685736 5.9983756 13.726563 5.890625 13.726562 C 5.7830067 13.726562 5.6740205 13.685762 5.5917969 13.603516 L 4.4765625 12.488281 C 4.3121115 12.323955 4.3121115 12.057035 4.4765625 11.892578 L 9.2539062 7.1152344 C 9.3361372 7.0328744 9.4430303 6.9921833 9.5507812 6.9921875 z M 9.5507812 7.859375 L 8.4121094 8.9980469 L 9.0820312 9.6679688 L 10.220703 8.5292969 L 9.5507812 7.859375 z M 10.037109 10.78125 L 10.386719 11.482422 L 11.089844 11.833984 L 10.386719 12.183594 L 10.037109 12.884766 L 9.6855469 12.183594 L 8.984375 11.833984 L 9.6855469 11.482422 L 10.037109 10.78125 z "
     transform="scale(0.26458333)"
     id="path832" />
</svg>
