<svg id="Calque_1" data-name="Calque 1" xmlns="http://www.w3.org/2000/svg" viewBox="0 0 32 32"><defs><style>.cls-1{fill:#e3e3e3;}</style></defs><title>rig_l</title><path class="cls-1" d="M10.2,24.1A3.21,3.21,0,0,1,12,21a5.25,5.25,0,0,1,4.25.15L10.53,12c-.19-.32-.2-.33-.48-.07a5.89,5.89,0,0,1-6.48.88c-.11-.05-.21-.15-.35-.13s0,.19.1.27Z"/><path class="cls-1" d="M14.36,5.4h2.4a.41.41,0,0,0,.43-.25,1.78,1.78,0,0,1,1.63-1h1.63A.61.61,0,0,0,21,4c.58-.65,1.17-1.29,1.76-1.94a1,1,0,0,0,.14-.25,1.17,1.17,0,0,1,1.85-.52c1.08.74,2.15,1.51,3.22,2.26.55.39,1.1.77,1.64,1.17A1.1,1.1,0,0,1,30.08,6a1.1,1.1,0,0,1-.94.89,1.28,1.28,0,0,1-1-.29L24.6,4.08c-.37-.26-.37-.27-.68.06L22.6,5.58a.79.79,0,0,0-.22.58c0,1,0,2.11,0,3.16a.73.73,0,0,0,.22.54c.54.59,1.08,1.18,1.6,1.79a.3.3,0,0,0,.48,0c1.24-.87,2.49-1.72,3.74-2.58A1.17,1.17,0,1,1,29.82,11c-.92.66-1.86,1.29-2.79,1.93-.72.51-1.45,1-2.18,1.51A1.18,1.18,0,0,1,23,13.89a6.41,6.41,0,0,0-1-1.28c-.34-.42-.73-.81-1.09-1.22a.54.54,0,0,0-.45-.19H18.72a1.63,1.63,0,0,1-1.55-.94.48.48,0,0,0-.5-.29l-4.73,0c-.39,0-.41,0-.28-.37a5.78,5.78,0,0,0,.05-3.83c-.11-.32-.08-.35.25-.35Z"/><path class="cls-1" d="M1.5,7.55a4.65,4.65,0,1,1,4.57,4.67A4.65,4.65,0,0,1,1.5,7.55Zm1.62,0a3,3,0,0,0,6.05,0,3,3,0,0,0-3-3A3,3,0,0,0,3.12,7.57Z"/><path class="cls-1" d="M15.5,24A2.5,2.5,0,1,1,13,26.5,2.5,2.5,0,0,1,15.5,24m0-2A4.5,4.5,0,1,0,20,26.5,4.49,4.49,0,0,0,15.5,22Z"/></svg>