<svg id="Calque_1" data-name="Calque 1" xmlns="http://www.w3.org/2000/svg" viewBox="0 0 32 32"><defs><style>.cls-1{fill:#e3e3e3;}</style></defs><title>ruler_l</title><path class="cls-1" d="M11.29,18.15v1.94L3.82,27.6l0-.1a1.38,1.38,0,0,1,0-.28V6.06A1.47,1.47,0,0,1,4.18,5a1.44,1.44,0,0,1,1.06-.45H9.78A1.44,1.44,0,0,1,10.84,5a1.47,1.47,0,0,1,.45,1.07V7.57H8.64a.37.37,0,0,0-.26.12A.35.35,0,0,0,8.26,8V8.7A.35.35,0,0,0,8.38,9a.37.37,0,0,0,.26.12h2.65v3H8.64a.41.41,0,0,0-.38.38v.76a.41.41,0,0,0,.38.38h2.65v3H8.64a.37.37,0,0,0-.26.12.35.35,0,0,0-.12.26v.75a.35.35,0,0,0,.12.26.37.37,0,0,0,.26.12Zm15.12,3a1.54,1.54,0,0,1,1.51,1.52v4.53a1.44,1.44,0,0,1-.45,1.06,1.46,1.46,0,0,1-1.06.45H5.24a1.23,1.23,0,0,1-.28,0l-.1-.05,7.51-7.47h1.94v2.65a.41.41,0,0,0,.38.38h.76a.37.37,0,0,0,.26-.12.4.4,0,0,0,.11-.26V21.17h3v2.65a.4.4,0,0,0,.11.26.37.37,0,0,0,.26.12H20a.41.41,0,0,0,.38-.38V21.17h3v2.65a.41.41,0,0,0,.38.38h.76a.37.37,0,0,0,.26-.12.4.4,0,0,0,.11-.26V21.17Z"/><path class="cls-1" d="M23.94,19.64a1,1,0,0,1-1-1A8.61,8.61,0,0,0,14.33,10a1,1,0,1,1,0-2,10.62,10.62,0,0,1,10.61,10.6A1,1,0,0,1,23.94,19.64Z"/></svg>