<svg id="Calque_1" data-name="Calque 1" xmlns="http://www.w3.org/2000/svg" viewBox="0 0 32 32"><defs><style>.cls-1{fill:#e3e3e3;}</style></defs><title>save2_l</title><path class="cls-1" d="M23.28,7,19,2.72A2.47,2.47,0,0,0,17.23,2H3.46A2.46,2.46,0,0,0,1,4.46V22.54A2.46,2.46,0,0,0,3.46,25H21.54A2.46,2.46,0,0,0,24,22.54V8.77A2.47,2.47,0,0,0,23.28,7ZM12.48,21.69a3.29,3.29,0,1,1,3.29-3.28A3.28,3.28,0,0,1,12.48,21.69ZM17.43,6.08v5.16a.62.62,0,0,1-.62.62H4.9a.61.61,0,0,1-.61-.62V5.9a.61.61,0,0,1,.61-.61H16.63a.6.6,0,0,1,.44.18l.18.17A.67.67,0,0,1,17.43,6.08Z"/></svg>