<?xml version="1.0" encoding="UTF-8" standalone="no"?>
<!-- Created with Inkscape (http://www.inkscape.org/) -->

<svg
   xmlns:dc="http://purl.org/dc/elements/1.1/"
   xmlns:cc="http://creativecommons.org/ns#"
   xmlns:rdf="http://www.w3.org/1999/02/22-rdf-syntax-ns#"
   xmlns:svg="http://www.w3.org/2000/svg"
   xmlns="http://www.w3.org/2000/svg"
   xmlns:sodipodi="http://sodipodi.sourceforge.net/DTD/sodipodi-0.dtd"
   xmlns:inkscape="http://www.inkscape.org/namespaces/inkscape"
   width="32"
   height="32"
   viewBox="0 0 8.4666666 8.4666666"
   version="1.1"
   id="svg8"
   inkscape:version="0.92.5 (2060ec1f9f, 2020-04-08)"
   sodipodi:docname="savefileas_sl.svg">
  <defs
     id="defs2" />
  <sodipodi:namedview
     id="base"
     pagecolor="#ffffff"
     bordercolor="#666666"
     borderopacity="1.0"
     inkscape:pageopacity="0.0"
     inkscape:pageshadow="2"
     inkscape:zoom="11.313708"
     inkscape:cx="-8.7066832"
     inkscape:cy="10.75055"
     inkscape:document-units="mm"
     inkscape:current-layer="svg8"
     showgrid="false"
     units="px"
     inkscape:window-width="1920"
     inkscape:window-height="1043"
     inkscape:window-x="0"
     inkscape:window-y="120"
     inkscape:window-maximized="1">
    <sodipodi:guide
       position="8.4666666,0"
       orientation="-32,0"
       id="guide854"
       inkscape:locked="false" />
    <sodipodi:guide
       position="8.4666666,8.4666666"
       orientation="0,-32"
       id="guide856"
       inkscape:locked="false" />
    <sodipodi:guide
       position="0,8.4666814"
       orientation="32,0"
       id="guide858"
       inkscape:locked="false" />
  </sodipodi:namedview>
  <metadata
     id="metadata5">
    <rdf:RDF>
      <cc:Work
         rdf:about="">
        <dc:format>image/svg+xml</dc:format>
        <dc:type
           rdf:resource="http://purl.org/dc/dcmitype/StillImage" />
        <dc:title />
      </cc:Work>
    </rdf:RDF>
  </metadata>
  <path
     style="fill:#8ad891;fill-opacity:1;stroke-width:0.06281408"
     d="M 9.3867188 0.00390625 C 8.5512924 0.00390625 7.8789062 0.67433889 7.8789062 1.5097656 L 7.8789062 8.8027344 C 8.2608393 8.7597778 8.6436644 8.7310229 9.0273438 8.7324219 C 11.569556 8.7425049 14.13026 9.7318272 16.0625 11.664062 C 17.406252 13.007795 18.125748 14.680319 18.542969 16.410156 C 19.577945 16.659268 20.614496 17.148358 20.986328 18.048828 C 21.440961 19.149819 21.226273 20.636977 20.285156 21.578125 L 17.427734 24.441406 C 16.179075 25.689981 14.092492 25.690156 12.84375 24.441406 L 12.283203 23.880859 C 11.864426 25.066518 10.708408 25.708645 9.4628906 25.71875 C 9.453749 26.885626 8.9052874 28.02189 7.8789062 28.507812 L 7.8789062 30.65625 C 7.8789062 31.491677 8.5512924 32.164062 9.3867188 32.164062 L 30.492188 32.164062 C 31.327613 32.164062 32 31.491677 32 30.65625 L 32 10.052734 L 23.457031 10.052734 C 22.627886 10.052734 21.949219 9.3740746 21.949219 8.5449219 L 21.949219 0.00390625 L 9.3867188 0.00390625 z M 23.958984 0.00390625 L 23.958984 8.0429688 L 32 8.0429688 L 32 7.6601562 C 32 7.2644398 31.84321 6.8803649 31.560547 6.5976562 L 25.410156 0.44335938 C 25.127493 0.16049953 24.74576 0.00390625 24.34375 0.00390625 L 23.958984 0.00390625 z M 9.0195312 11.251953 C 7.5371843 11.246548 6.0535079 11.680432 4.7792969 12.550781 C 4.5923577 12.678567 4.5685736 12.945595 4.7285156 13.105469 L 5.9511719 14.326172 C 6.0691071 14.444093 6.2516198 14.466277 6.3945312 14.380859 C 8.3598674 13.203234 10.918738 13.497389 12.572266 15.148438 C 13.49117 16.065691 14.014215 17.271224 14.056641 18.5625 L 12.277344 18.5625 C 11.632279 18.562538 11.307568 19.34463 11.763672 19.800781 L 14.625 22.660156 C 14.907744 22.942903 15.363757 22.942865 15.646484 22.660156 L 18.505859 19.800781 C 18.961957 19.344668 18.641132 18.5625 17.996094 18.5625 L 16.472656 18.5625 C 16.430508 16.705127 15.700622 14.860758 14.283203 13.443359 C 12.829102 11.989262 10.925359 11.259512 9.0195312 11.251953 z M 4.3320312 16.246094 C 4.2687809 16.238535 4.2021839 16.236962 4.1367188 16.255859 L 3.3769531 16.460938 C 3.1147484 16.531123 2.9611258 16.801713 3.0371094 17.0625 L 3.9511719 20.207031 L 0.80859375 19.292969 C 0.54778707 19.217151 0.27546049 19.370513 0.20507812 19.632812 L 0.001953125 20.392578 C -0.068182041 20.654688 0.089693263 20.921698 0.35351562 20.986328 L 3.5332031 21.767578 L 1.1699219 24.033203 C 0.97383999 24.221046 0.9700867 24.532609 1.1621094 24.724609 L 1.71875 25.28125 C 1.9107836 25.47325 2.2222873 25.469217 2.4101562 25.273438 L 4.6757812 22.910156 L 5.4550781 26.087891 C 5.5196377 26.351702 5.7886294 26.511328 6.0507812 26.441406 L 6.8105469 26.238281 C 7.0729368 26.167944 7.2263742 25.895553 7.1503906 25.634766 L 6.234375 22.490234 L 9.3789062 23.40625 C 9.6397125 23.482105 9.9120433 23.328705 9.9824219 23.066406 L 10.185547 22.306641 C 10.255943 22.044115 10.095873 21.775567 9.8320312 21.710938 L 6.6542969 20.931641 L 9.0175781 18.666016 C 9.2136978 18.478135 9.2174246 18.165034 9.0253906 17.972656 L 8.46875 17.417969 C 8.2767428 17.225969 7.9651863 17.229624 7.7773438 17.425781 L 5.5097656 19.789062 L 4.7304688 16.609375 C 4.6819173 16.411706 4.5212571 16.27255 4.3320312 16.246094 z "
     transform="scale(0.26458333)"
     id="path1112" />
</svg>
