<svg id="Calque_1" data-name="Calque 1" xmlns="http://www.w3.org/2000/svg" viewBox="0 0 32 32"><defs><style>.cls-1{fill:#e3e3e3;}</style></defs><title>save_l</title><path class="cls-1" d="M21.52,10.21a1,1,0,0,0,1,1H28V24.36a.92.92,0,0,1-.29.68.9.9,0,0,1-.68.28H13.48a.94.94,0,0,1-.69-.28,1,1,0,0,1-.28-.68V5.71a1,1,0,0,1,1-1h8Zm2.57,4a.48.48,0,0,0-.14-.34.46.46,0,0,0-.35-.14H16.85a.44.44,0,0,0-.34.14.48.48,0,0,0-.14.34v.32a.46.46,0,0,0,.14.34.44.44,0,0,0,.34.14H23.6a.48.48,0,0,0,.49-.48Zm0,2.89V16.8a.48.48,0,0,0-.14-.34.5.5,0,0,0-.35-.14H16.85a.48.48,0,0,0-.48.48v.32a.5.5,0,0,0,.14.35.48.48,0,0,0,.34.14H23.6a.48.48,0,0,0,.49-.49Zm0,2.58v-.32a.48.48,0,0,0-.49-.49H16.85a.48.48,0,0,0-.34.14.5.5,0,0,0-.14.35v.32a.49.49,0,0,0,.14.34.48.48,0,0,0,.34.14H23.6A.5.5,0,0,0,24,20,.49.49,0,0,0,24.09,19.7ZM28,9.65A.94.94,0,0,0,27.66,9L23.73,5A.94.94,0,0,0,23,4.75H22.8V9.89H28Z"/><path class="cls-1" d="M7.56,9.85a.77.77,0,0,1,.56-.23.81.81,0,0,1,.57.23l6.43,6.43a.81.81,0,0,1,.23.57.79.79,0,0,1-.23.56L8.69,23.84a.81.81,0,0,1-.57.23.77.77,0,0,1-.56-.23l-.73-.73a.66.66,0,0,1-.25-.56A.88.88,0,0,1,6.83,22l4-3.81H1.3a.79.79,0,0,1-.8-.79V16.32a.79.79,0,0,1,.8-.8h9.51l-4-3.81a.85.85,0,0,1-.25-.56.68.68,0,0,1,.25-.57Z"/></svg>