<?xml version="1.0" encoding="UTF-8" standalone="no"?>
<!-- Created with Inkscape (http://www.inkscape.org/) -->

<svg
   xmlns:dc="http://purl.org/dc/elements/1.1/"
   xmlns:cc="http://creativecommons.org/ns#"
   xmlns:rdf="http://www.w3.org/1999/02/22-rdf-syntax-ns#"
   xmlns:svg="http://www.w3.org/2000/svg"
   xmlns="http://www.w3.org/2000/svg"
   xmlns:sodipodi="http://sodipodi.sourceforge.net/DTD/sodipodi-0.dtd"
   xmlns:inkscape="http://www.inkscape.org/namespaces/inkscape"
   width="32"
   height="32"
   viewBox="0 0 8.4666666 8.4666666"
   version="1.1"
   id="svg8"
   inkscape:version="0.92.5 (2060ec1f9f, 2020-04-08)"
   sodipodi:docname="saveas_sl.svg">
  <defs
     id="defs2" />
  <sodipodi:namedview
     id="base"
     pagecolor="#ffffff"
     bordercolor="#666666"
     borderopacity="1.0"
     inkscape:pageopacity="0.0"
     inkscape:pageshadow="2"
     inkscape:zoom="8"
     inkscape:cx="-23.542053"
     inkscape:cy="14.046191"
     inkscape:document-units="mm"
     inkscape:current-layer="layer1-6"
     showgrid="false"
     units="px"
     inkscape:window-width="1848"
     inkscape:window-height="1136"
     inkscape:window-x="1920"
     inkscape:window-y="27"
     inkscape:window-maximized="1">
    <sodipodi:guide
       position="8.4666666,0"
       orientation="-32,0"
       id="guide854"
       inkscape:locked="false" />
    <sodipodi:guide
       position="8.4666666,8.4666666"
       orientation="0,-32"
       id="guide856"
       inkscape:locked="false" />
    <sodipodi:guide
       position="0,8.4666814"
       orientation="32,0"
       id="guide858"
       inkscape:locked="false" />
  </sodipodi:namedview>
  <metadata
     id="metadata5">
    <rdf:RDF>
      <cc:Work
         rdf:about="">
        <dc:format>image/svg+xml</dc:format>
        <dc:type
           rdf:resource="http://purl.org/dc/dcmitype/StillImage" />
        <dc:title></dc:title>
      </cc:Work>
    </rdf:RDF>
  </metadata>
  <g
     inkscape:label="Layer 1"
     inkscape:groupmode="layer"
     id="layer1"
     transform="translate(0,-288.53334)">
    <g
       transform="rotate(45,4.2331072,292.76613)"
       id="layer1-6"
       inkscape:label="Layer 1">
      <path
         style="fill:#8ad891;fill-opacity:1;stroke:none;stroke-width:2.08167505;stroke-miterlimit:4;stroke-dasharray:none;stroke-opacity:1"
         d="m 1.6613189,290.40244 c 0.6108523,-0.60642 1.4523868,-0.98132 2.3811324,-0.98132 0.905316,0 1.7268858,0.35594 2.3335001,0.93564 l 0.4865306,-0.48653 c 0.2059884,-0.20599 0.5584653,-0.0595 0.5584653,0.23185 v 1.82655 c -2e-7,0.18059 -0.1460307,0.32662 -0.326622,0.32662 l -1.8270416,4.8e-4 c -0.2913174,0 -0.4368589,-0.35342 -0.2308713,-0.55943 l 0.5681861,-0.56819 c -0.425927,-0.39882 -0.9776962,-0.61683 -1.5640911,-0.6163 -1.0553211,7.9e-4 -1.9662737,0.72415 -2.2178217,1.72788 -0.018311,0.073 -0.084093,0.12443 -0.1594219,0.12443 H 0.88267603 c -0.10215636,0 -0.17977752,-0.0925 -0.16088154,-0.19296 0.12897155,-0.68488 0.46441621,-1.29705 0.93952441,-1.76872 z m 0.097695,3.09173 c 0.06922,-0.0516 0.1653409,-0.0593 0.2439945,-0.0116 l 1.2642019,0.76649 -0.031107,-1.47855 c -0.00263,-0.12262 0.096075,-0.22358 0.2187113,-0.22359 h 0.3548127 c 0.1226539,0 0.2213404,0.10096 0.2187115,0.22359 l -0.031108,1.47855 1.264202,-0.76649 c 0.1048799,-0.0636 0.2414835,-0.0289 0.302806,0.0773 l 0.1774062,0.30766 c 0.061332,0.10621 0.02342,0.2418 -0.084086,0.30086 l -1.2962808,0.71206 1.2962808,0.71206 c 0.1075043,0.059 0.1454086,0.19457 0.084086,0.30085 l -0.1774061,0.30767 c -0.061322,0.10615 -0.1979344,0.14086 -0.3028058,0.0773 l -1.264688,-0.766 0.031592,1.47806 c 0.00262,0.12261 -0.096075,0.22358 -0.2187115,0.22359 l -0.354803,-10e-6 c -0.1226446,0 -0.2213403,-0.10097 -0.2187201,-0.22358 l 0.031592,-1.47806 -1.2646879,0.766 c -0.1048713,0.0636 -0.2414836,0.0289 -0.3028059,-0.0773 l -0.1774043,-0.30772 c -0.061331,-0.10621 -0.02342,-0.2418 0.084086,-0.30086 l 1.2962809,-0.71205 -1.2962808,-0.71206 c -0.1075049,-0.059 -0.1454082,-0.19472 -0.084086,-0.30086 l 0.1774062,-0.30766 c 0.015332,-0.0265 0.035738,-0.0484 0.058811,-0.0657 z"
         id="path1058"
         inkscape:connector-curvature="0"
         sodipodi:nodetypes="csccsccccccccscccccccccccccccccccccccccccccccccccc" />
    </g>
  </g>
</svg>
