<svg id="Calque_1" data-name="Calque 1" xmlns="http://www.w3.org/2000/svg" viewBox="0 0 32 32"><defs><style>.cls-1{fill:#e3e3e3;}</style></defs><title>saveinc_l</title><path class="cls-1" d="M30.07,21.11H25.89V16.93A.93.93,0,0,0,25,16H24a.93.93,0,0,0-.93.93v4.18H18.93A.93.93,0,0,0,18,22V23a.93.93,0,0,0,.93.93h4.18v4.18A.93.93,0,0,0,24,29H25a.93.93,0,0,0,.93-.93V23.89h4.18A.93.93,0,0,0,31,23V22A.93.93,0,0,0,30.07,21.11Z"/><path class="cls-1" d="M16,23V22a2.93,2.93,0,0,1,2.93-2.93h2.18V16.93A2.93,2.93,0,0,1,24,14V8.77A2.47,2.47,0,0,0,23.28,7L19,2.72A2.47,2.47,0,0,0,17.23,2H3.46A2.46,2.46,0,0,0,1,4.46V22.54A2.46,2.46,0,0,0,3.46,25H16.83A2.92,2.92,0,0,1,16,23ZM4.29,11.24V5.9a.61.61,0,0,1,.61-.61H16.63a.6.6,0,0,1,.44.18l.18.17a.67.67,0,0,1,.18.44v5.16a.62.62,0,0,1-.62.62H4.9A.61.61,0,0,1,4.29,11.24Zm8.19,10.45a3.29,3.29,0,1,1,3.29-3.28A3.28,3.28,0,0,1,12.48,21.69Z"/></svg>