<svg id="Calque_1" data-name="Calque 1" xmlns="http://www.w3.org/2000/svg" viewBox="0 0 32 32"><defs><style>.cls-1{fill:#e3e3e3;}</style></defs><title>scriptify_l</title><path class="cls-1" d="M2.8,9.37,2.36,14.6H.64L.19,9.37Zm3.71,0L6.07,14.6H4.35L3.9,9.37Z"/><path class="cls-1" d="M7.76,16.3c1.34,0,1.47-.73,1.47-1.31s-.06-1-.11-1.51A13.52,13.52,0,0,1,9,12C9,10.14,10.16,9.35,12,9.35h.67V11h-.35c-.87,0-1.17.52-1.17,1.37,0,.35.05.7.09,1.1a12.29,12.29,0,0,1,.1,1.32c0,1.47-.58,2-1.64,2.24v0c1.06.23,1.66.79,1.64,2.26a13.1,13.1,0,0,1-.1,1.35c0,.39-.09.75-.09,1.08,0,.85.29,1.39,1.17,1.39h.35v1.62h-.69c-1.72,0-2.92-.69-2.92-2.62a13.54,13.54,0,0,1,.1-1.53c.05-.52.11-1,.11-1.51s-.13-1.27-1.47-1.31Z"/><path class="cls-1" d="M18.73,17.79c-1.31,0-1.46.77-1.46,1.31a13.26,13.26,0,0,0,.11,1.51,13.67,13.67,0,0,1,.12,1.53c0,1.93-1.2,2.62-2.94,2.62h-.69V23.14h.34c.89,0,1.18-.54,1.18-1.39a8.72,8.72,0,0,0-.09-1.08,13.1,13.1,0,0,1-.1-1.35c0-1.47.58-2,1.66-2.26v0c-1.08-.23-1.68-.77-1.66-2.24a12.29,12.29,0,0,1,.1-1.32,8.87,8.87,0,0,0,.09-1.1c0-.85-.31-1.35-1.18-1.37h-.34V9.35h.67c1.82,0,3,.79,3,2.61a13.68,13.68,0,0,1-.12,1.52A13.59,13.59,0,0,0,17.27,15c0,.58.15,1.28,1.46,1.31Z"/><path class="cls-1" d="M19.35,24.9a34.58,34.58,0,0,0,1.41-5.49l3-.19a26.86,26.86,0,0,1-2.44,5.51Zm1-10.08a1.72,1.72,0,1,1,3.44,0,1.72,1.72,0,1,1-3.44,0Z"/><path class="cls-1" d="M27.62,9.37l-.45,5.23H25.45L25,9.37Zm3.71,0-.45,5.23H29.16l-.44-5.23Z"/></svg>