<svg id="Calque_1" data-name="Calque 1" xmlns="http://www.w3.org/2000/svg" viewBox="0 0 32 32"><defs><style>.cls-1{fill:#e3e3e3;}</style></defs><title>search_l</title><path class="cls-1" d="M29.41,24.75a1.17,1.17,0,0,1,.35.85,1.19,1.19,0,0,1-.35.86L28,27.87a1.19,1.19,0,0,1-.86.35,1.17,1.17,0,0,1-.85-.35l-5-5A1.16,1.16,0,0,1,20.9,22v-.8a10.14,10.14,0,0,1-6.44,2.21A10.13,10.13,0,0,1,9.21,22a10.49,10.49,0,0,1-3.8-3.8A10.13,10.13,0,0,1,4,12.93,10.14,10.14,0,0,1,5.41,7.67a10.57,10.57,0,0,1,3.8-3.8,10.13,10.13,0,0,1,5.25-1.41,10.14,10.14,0,0,1,5.26,1.41,10.64,10.64,0,0,1,3.8,3.8,10.14,10.14,0,0,1,1.41,5.26,10.13,10.13,0,0,1-2.22,6.44h.81a1.15,1.15,0,0,1,.86.35ZM14.46,19.37a6.39,6.39,0,0,0,3.25-.86,6.26,6.26,0,0,0,2.34-2.34,6.62,6.62,0,0,0,0-6.49,6.26,6.26,0,0,0-2.34-2.34,6.62,6.62,0,0,0-6.49,0A6.26,6.26,0,0,0,8.88,9.68a6.55,6.55,0,0,0,0,6.49,6.26,6.26,0,0,0,2.34,2.34A6.38,6.38,0,0,0,14.46,19.37Z"/></svg>