<svg id="Calque_1" data-name="Calque 1" xmlns="http://www.w3.org/2000/svg" viewBox="0 0 32 32"><defs><style>.cls-1{fill:#e3e3e3;}</style></defs><title>searchtext_l</title><path class="cls-1" d="M18.69,13.29a6.27,6.27,0,0,0-2.77-5.2V16.8c0,.57,0,1.15,0,1.7A6.24,6.24,0,0,0,18.69,13.29Z"/><path class="cls-1" d="M19.83,3.35V2.27h-1.7A12.52,12.52,0,0,1,19.83,3.35Z"/><path class="cls-1" d="M24.84,13.29s0,0,0,.05a4.76,4.76,0,0,1,.07.86,4.73,4.73,0,0,1-.47,2.21,12,12,0,0,1-1.33,3.21l1.11,1.11C26.69,20.23,28.9,18,28.9,14s-2.19-6.36-5.21-6.36h-.2A12.41,12.41,0,0,1,24.84,13.29Z"/><path class="cls-1" d="M14.27,17.49V13.12c0-2.76-1.16-5.09-4.71-5.4a6.32,6.32,0,0,0-2.74,2.77A6.24,6.24,0,0,1,8,10.36c1.93,0,2.29,1,2.29,1.62v.18a12.2,12.2,0,0,0-4.15.6,4.71,4.71,0,0,0,0,.53,6.2,6.2,0,0,0,.71,2.88c.28-1.18,1.75-1.58,3.6-1.56V16a2.8,2.8,0,0,1-.08.67,2.13,2.13,0,0,1-2,1.44,6.27,6.27,0,0,0,2.26,1.22h0a6.18,6.18,0,0,0,1.73.25,6.3,6.3,0,0,0,1.9-.3C14.29,18.72,14.27,18.12,14.27,17.49Z"/><path class="cls-1" d="M26.22,28.25a.5.5,0,0,1-.4-.17l-5.27-5.26a.52.52,0,0,1-.16-.4v-.84L19.26,21A10,10,0,0,1,13,23.19,10,10,0,0,1,7.8,21.82a10.39,10.39,0,0,1-3.72-3.73A9.94,9.94,0,0,1,2.7,12.94,9.93,9.93,0,0,1,4.08,7.8,10.39,10.39,0,0,1,7.8,4.07,10.06,10.06,0,0,1,13,2.69,10.06,10.06,0,0,1,18.1,4.07,10.39,10.39,0,0,1,21.82,7.8a9.93,9.93,0,0,1,1.38,5.14A10,10,0,0,1,21,19.25l.55,1.13h.85a.52.52,0,0,1,.4.17l5.26,5.26a.54.54,0,0,1,.16.4.52.52,0,0,1-.16.4l-1.47,1.47A.52.52,0,0,1,26.22,28.25ZM13,5.51A7.46,7.46,0,0,0,6.5,16.69a7.24,7.24,0,0,0,2.71,2.7,7.58,7.58,0,0,0,7.49,0,7.29,7.29,0,0,0,2.7-2.7,7.47,7.47,0,0,0-2.7-10.2A7.47,7.47,0,0,0,13,5.51Z"/></svg>