<?xml version="1.0" encoding="UTF-8" standalone="no"?>
<!-- Created with Inkscape (http://www.inkscape.org/) -->

<svg
   xmlns:dc="http://purl.org/dc/elements/1.1/"
   xmlns:cc="http://creativecommons.org/ns#"
   xmlns:rdf="http://www.w3.org/1999/02/22-rdf-syntax-ns#"
   xmlns:svg="http://www.w3.org/2000/svg"
   xmlns="http://www.w3.org/2000/svg"
   xmlns:sodipodi="http://sodipodi.sourceforge.net/DTD/sodipodi-0.dtd"
   xmlns:inkscape="http://www.inkscape.org/namespaces/inkscape"
   width="32"
   height="32"
   viewBox="0 0 8.4666666 8.4666666"
   version="1.1"
   id="svg8"
   inkscape:version="0.92.5 (2060ec1f9f, 2020-04-08)"
   sodipodi:docname="select_bl.svg">
  <defs
     id="defs2" />
  <sodipodi:namedview
     id="base"
     pagecolor="#ffffff"
     bordercolor="#666666"
     borderopacity="1.0"
     inkscape:pageopacity="0.0"
     inkscape:pageshadow="2"
     inkscape:zoom="8"
     inkscape:cx="-14.459402"
     inkscape:cy="20.497745"
     inkscape:document-units="mm"
     inkscape:current-layer="layer1"
     showgrid="false"
     units="px"
     inkscape:window-width="1920"
     inkscape:window-height="1043"
     inkscape:window-x="0"
     inkscape:window-y="120"
     inkscape:window-maximized="1">
    <sodipodi:guide
       position="8.4666666,0"
       orientation="-32,0"
       id="guide854"
       inkscape:locked="false" />
    <sodipodi:guide
       position="8.4666666,8.4666666"
       orientation="0,-32"
       id="guide856"
       inkscape:locked="false" />
    <sodipodi:guide
       position="0,8.4666814"
       orientation="32,0"
       id="guide858"
       inkscape:locked="false" />
  </sodipodi:namedview>
  <metadata
     id="metadata5">
    <rdf:RDF>
      <cc:Work
         rdf:about="">
        <dc:format>image/svg+xml</dc:format>
        <dc:type
           rdf:resource="http://purl.org/dc/dcmitype/StillImage" />
        <dc:title></dc:title>
      </cc:Work>
    </rdf:RDF>
  </metadata>
  <g
     inkscape:label="Layer 1"
     inkscape:groupmode="layer"
     id="layer1"
     transform="translate(0,-288.53334)">
    <path
       style="fill:#83d3f6;fill-opacity:1;stroke:none;stroke-width:5.91496086;stroke-miterlimit:4;stroke-dasharray:none;stroke-opacity:1"
       d="M 16,0 A 15.999999,15.999999 0 0 0 0,16 15.999999,15.999999 0 0 0 16,32 15.999999,15.999999 0 0 0 32,16 15.999999,15.999999 0 0 0 16,0 Z m 6.351562,8.1835938 c 0.56997,-0.038065 1.082142,0.57608 0.84375,1.1484374 L 16.955078,24.730469 c -0.797248,1.70846 -3.302734,1.138403 -3.302734,-0.683594 V 17.783203 H 7.3886719 c -1.822026,0 -2.3897237,-2.505481 -0.6816407,-3.302734 L 22.105469,8.2421875 c 0.08174,-0.034072 0.164669,-0.053156 0.246093,-0.058594 z"
       transform="matrix(0.26458333,0,0,0.26458333,0,288.53334)"
       id="path1269"
       inkscape:connector-curvature="0" />
  </g>
</svg>
