<svg id="Calque_1" data-name="Calque 1" xmlns="http://www.w3.org/2000/svg" viewBox="0 0 32 32"><defs><style>.cls-1{fill:#e3e3e3;}</style></defs><title>selectedelement_l</title><path class="cls-1" d="M2.42,12.08a6.55,6.55,0,0,0,3.5,1A6.11,6.11,0,0,0,6.78,13l.65,6.92a5,5,0,0,0-2.32-.62,3.94,3.94,0,0,0-2,.52l-.69-7.76M1.25,9.65c-.07.08,0,.17,0,.26l1.1,12.3a3,3,0,0,1,2.79-1.89h0a4.94,4.94,0,0,1,3.52,1.92L7.71,12.15c0-.23,0-.31-.13-.31l-.25.05a5.21,5.21,0,0,1-1.41.19A5.58,5.58,0,0,1,1.49,9.9c-.07-.09-.11-.21-.24-.25Z"/><path class="cls-1" d="M22.33,9.79A3,3,0,0,1,20.47,7a5,5,0,0,1,2-3.51l-10.09.86c-.35,0-.36,0-.27.37a5.55,5.55,0,0,1-2,5.82c-.09.07-.22.11-.26.24s.18,0,.26,0Z"/><path class="cls-1" d="M4.93,23.35A3.25,3.25,0,1,1,1.68,26.6a3.26,3.26,0,0,1,3.25-3.25m0-1A4.25,4.25,0,1,0,9.18,26.6a4.25,4.25,0,0,0-4.25-4.25Z"/><path class="cls-1" d="M22.53,12.81A6.54,6.54,0,0,0,26.27,14a5.63,5.63,0,0,0,.58,0l-4.12,6.62a3.86,3.86,0,0,0-1.57-1.38A4.91,4.91,0,0,0,19,18.68h-.14l3.69-5.87m-.22-1.43c-.07,0-.11.07-.21.23l-5.39,8.58A5.64,5.64,0,0,1,19,19.68a3.85,3.85,0,0,1,1.74.39A3,3,0,0,1,22.37,23L28.9,12.54c.05-.08.12-.14.09-.25h0a.67.67,0,0,0-.29.12,5.4,5.4,0,0,1-2.39.55,5.53,5.53,0,0,1-3.72-1.41c-.12-.11-.19-.17-.24-.17Z"/><path class="cls-1" d="M17.66,22.36a3.28,3.28,0,0,1,3,2.09,3.25,3.25,0,0,1-3,4.41,3.36,3.36,0,0,1-1.32-.28,3.25,3.25,0,0,1,1.33-6.22m0-1a4.26,4.26,0,1,0,1.73.38,4.1,4.1,0,0,0-1.73-.38Z"/><circle class="cls-1" cx="6" cy="6.17" r="4.25"/><path class="cls-1" d="M26.63,3.88a3.25,3.25,0,1,1-3.25,3.25,3.26,3.26,0,0,1,3.25-3.25m0-1a4.25,4.25,0,1,0,4.25,4.25,4.25,4.25,0,0,0-4.25-4.25Z"/></svg>