<svg id="Calque_1" data-name="Calque 1" xmlns="http://www.w3.org/2000/svg" viewBox="0 0 32 32"><defs><style>.cls-1{fill:#e3e3e3;}</style></defs><title>selectcontroller_l</title><path class="cls-1" d="M13.89,17.11a2.6,2.6,0,0,1-.29-1.21A2.65,2.65,0,0,1,14.41,14a2.71,2.71,0,0,1,1.89-.78,2.83,2.83,0,0,1,1.24.3l2.69,1.35s0-.09,0-.13V7.79a1.56,1.56,0,0,0-1.56-1.56c-.86,0-1.11.7-1.11,1.56v3.79h-.89V4.23a1.56,1.56,0,0,0-1.56-1.56c-.87,0-1.17.7-1.17,1.56v7.35h-.84V2.45A1.56,1.56,0,0,0,11.55.89c-.86,0-1.17.68-1.17,1.55v9.13L9.67,11V3.63c0-.86-.81-1-1.68-1S6.81,3,6.81,3.9v7.34l-.38,3.9L4.29,12.29a1.76,1.76,0,0,0-1.42-.71,1.78,1.78,0,0,0-1.42,2.85L6.8,21.55a1.75,1.75,0,0,0,1.41.71h8.26Z"/><path class="cls-1" d="M30.52,22.23a.69.69,0,0,1,.38.62.78.78,0,0,1,0,.16.69.69,0,0,1-.67.54H24V29.8a.7.7,0,0,1-.53.68.71.71,0,0,1-.79-.36L15.68,16.21a.66.66,0,0,1,.13-.8.68.68,0,0,1,.81-.13Z"/></svg>