<svg id="Calque_1" data-name="Calque 1" xmlns="http://www.w3.org/2000/svg" viewBox="0 0 32 32"><defs><style>.cls-1{fill:none;stroke:#e3e3e3;stroke-miterlimit:10;stroke-width:2px;}.cls-2{fill:#e3e3e3;}</style></defs><title>selecteditems_l</title><line class="cls-1" x1="9.14" y1="9.98" x2="16" y2="9.98"/><circle class="cls-2" cx="4.97" cy="8.84" r="2.84"/><line class="cls-1" x1="9.14" y1="17.16" x2="16" y2="17.16"/><path class="cls-2" d="M5,14.19A1.84,1.84,0,1,1,3.13,16,1.84,1.84,0,0,1,5,14.19m0-1A2.84,2.84,0,1,0,7.81,16,2.84,2.84,0,0,0,5,13.19Z"/><line class="cls-1" x1="9.14" y1="23.98" x2="16" y2="23.98"/><circle class="cls-2" cx="4.97" cy="22.84" r="2.84"/><line class="cls-1" x1="24.14" y1="9.98" x2="31" y2="9.98"/><circle class="cls-2" cx="19.97" cy="8.84" r="2.84"/><line class="cls-1" x1="24.14" y1="17.16" x2="31" y2="17.16"/><path class="cls-2" d="M20,14.19A1.84,1.84,0,1,1,18.13,16,1.84,1.84,0,0,1,20,14.19m0-1A2.84,2.84,0,1,0,22.81,16,2.84,2.84,0,0,0,20,13.19Z"/><line class="cls-1" x1="24.14" y1="23.98" x2="31" y2="23.98"/><path class="cls-2" d="M20,21a1.85,1.85,0,1,1-1.84,1.84A1.84,1.84,0,0,1,20,21m0-1a2.85,2.85,0,1,0,2.84,2.84A2.84,2.84,0,0,0,20,20Z"/></svg>