<svg id="Calque_1" data-name="Calque 1" xmlns="http://www.w3.org/2000/svg" viewBox="0 0 32 32"><defs><style>.cls-1{fill:#e3e3e3;}</style></defs><title>selectcam_l</title><circle class="cls-1" cx="7.89" cy="7.9" r="3.95"/><circle class="cls-1" cx="17.25" cy="7.02" r="5.75"/><path class="cls-1" d="M13.59,18.87a2.57,2.57,0,0,1-.29-1.21,2.63,2.63,0,0,1,.81-1.91,2.63,2.63,0,0,1,3.12-.48l1.46.72V13a2.61,2.61,0,0,0-2.6-2.6H9.73A2.61,2.61,0,0,0,7.13,13v1.49L3.49,10.81a.54.54,0,0,0-.4-.17.64.64,0,0,0-.23,0,.57.57,0,0,0-.35.53V21a.57.57,0,0,0,.35.53.64.64,0,0,0,.23.05.54.54,0,0,0,.4-.17l3.64-3.64v1.5a2.61,2.61,0,0,0,2.6,2.6h5.38Z"/><path class="cls-1" d="M15.74,19a1.18,1.18,0,0,1,0-1,1.56,1.56,0,0,1,.76-.76,1.16,1.16,0,0,1,1,0L29.41,22.7a1.3,1.3,0,0,1,.78.95A1.43,1.43,0,0,1,30,24.82a1.26,1.26,0,0,1-1.09.53h-5v5a1.23,1.23,0,0,1-.53,1.09,1.5,1.5,0,0,1-1.17.24,1.34,1.34,0,0,1-.95-.79Z"/></svg>