<svg id="Calque_1" data-name="Calque 1" xmlns="http://www.w3.org/2000/svg" viewBox="0 0 32 32"><defs><style>.cls-1{fill:#e3e3e3;}</style></defs><title>selectchain_l</title><path class="cls-1" d="M2,15.61a2,2,0,0,1,1.82-1.36,3.33,3.33,0,0,1,2.43,1.18l-1-6.74c0-.23,0-.24-.26-.16a3.75,3.75,0,0,1-4-1.15C1,7.32,1,7.24.9,7.22s0,.12,0,.17Z"/><path class="cls-1" d="M15.28,7.21A2,2,0,0,1,14,5.31,3.31,3.31,0,0,1,15.34,3l-6.78.57c-.23,0-.24,0-.17.25A3.74,3.74,0,0,1,7,7.69c-.06,0-.14.07-.17.16s.12,0,.18,0Z"/><path class="cls-1" d="M4.2,16.64a1.85,1.85,0,1,1-1.85,1.85A1.85,1.85,0,0,1,4.2,16.64m0-1a2.85,2.85,0,1,0,2.85,2.85A2.85,2.85,0,0,0,4.2,15.64Z"/><path class="cls-1" d="M12.14,16a1.86,1.86,0,0,1,1.69,2.61,1.85,1.85,0,0,1-1.69,1.1,2,2,0,0,1-.76-.16,1.88,1.88,0,0,1-1-1A1.86,1.86,0,0,1,12.14,16m0-1A2.85,2.85,0,0,0,11,20.43a2.79,2.79,0,0,0,1.16.25,2.85,2.85,0,0,0,1.16-5.46A2.79,2.79,0,0,0,12.14,15Z"/><circle class="cls-1" cx="4.32" cy="4.77" r="2.85"/><path class="cls-1" d="M18.17,3.57a1.85,1.85,0,1,1-1.86,1.85,1.85,1.85,0,0,1,1.86-1.85m0-1A2.85,2.85,0,1,0,21,5.42a2.85,2.85,0,0,0-2.85-2.85Z"/><path class="cls-1" d="M13.64,13.8a2.6,2.6,0,0,1-.29-1.21,2.65,2.65,0,0,1,.81-1.92,2.71,2.71,0,0,1,1.89-.78,2.83,2.83,0,0,1,1.24.3l1.29.65,1.11-1.79c0-.05.08-.1.06-.17s-.15,0-.22.08a3.71,3.71,0,0,1-4.1-.58c-.18-.16-.18-.16-.3,0L11.5,14.19a3.57,3.57,0,0,1,2.21-.27Z"/><path class="cls-1" d="M15.27,13.66a1.26,1.26,0,0,1,0-1.09,1.68,1.68,0,0,1,.81-.81,1.26,1.26,0,0,1,1.09,0l12.65,5.8a1.43,1.43,0,0,1,.83,1,1.54,1.54,0,0,1-.25,1.25,1.34,1.34,0,0,1-1.16.56H23.9v5.35a1.34,1.34,0,0,1-.56,1.16,1.58,1.58,0,0,1-1.25.25,1.43,1.43,0,0,1-1-.83Z"/></svg>