<svg id="Calque_1" data-name="Calque 1" xmlns="http://www.w3.org/2000/svg" viewBox="0 0 32 32"><defs><style>.cls-1{fill:#e3e3e3;}</style></defs><title>selectallstructures_l</title><path class="cls-1" d="M10.2,23.3a3,3,0,0,1,1.45-3.06,5,5,0,0,1,4-.15l-6-8.19c-.2-.29-.2-.29-.45,0a5.56,5.56,0,0,1-6,1.28c-.11,0-.21-.13-.34-.1s.06.17.11.24Z"/><path class="cls-1" d="M26.29,2.72A2.25,2.25,0,1,1,24.05,5a2.25,2.25,0,0,1,2.24-2.24m0-2A4.25,4.25,0,1,0,30.54,5,4.24,4.24,0,0,0,26.29.72Z"/><path class="cls-1" d="M.35,7.44a4.65,4.65,0,1,1,4.59,4.65A4.64,4.64,0,0,1,.35,7.44ZM2,7.46A3,3,0,0,0,8,7.44a3,3,0,0,0-3-3A3,3,0,0,0,2,7.46Z"/><path class="cls-1" d="M10.23,25.31a4.64,4.64,0,0,1,4.65-4.63A4.64,4.64,0,1,1,14.82,30,4.63,4.63,0,0,1,10.23,25.31Zm1.61,0a3,3,0,0,0,3,3,3.06,3.06,0,0,0,3-3,3,3,0,0,0-6.06,0Z"/><path class="cls-1" d="M13.64,10.56a2.6,2.6,0,0,1-.28-1.21,2.64,2.64,0,0,1,.8-1.92,2.67,2.67,0,0,1,1.89-.78,2.7,2.7,0,0,1,1.24.3L21.44,9l1.1-.24a3.21,3.21,0,0,1-2.36-2.7,5.29,5.29,0,0,1,1.55-4L11.25,4.46c-.36.07-.37.08-.22.43a5.9,5.9,0,0,1-1.32,6.4c-.09.09-.21.15-.24.29s.19,0,.28,0l4-.87Z"/><path class="cls-1" d="M15.47,10.92a1.23,1.23,0,0,1,0-1.09A1.68,1.68,0,0,1,16.29,9a1.26,1.26,0,0,1,1.09,0L30,14.82a1.39,1.39,0,0,1,.84,1,1.54,1.54,0,0,1-.26,1.25,1.33,1.33,0,0,1-1.15.56H24.1V23a1.33,1.33,0,0,1-.57,1.16,1.52,1.52,0,0,1-1.24.25,1.4,1.4,0,0,1-1-.83Z"/></svg>