<svg id="Calque_1" data-name="Calque 1" xmlns="http://www.w3.org/2000/svg" viewBox="0 0 32 32"><defs><style>.cls-1{fill:#e3e3e3;}.cls-2{fill:none;stroke:#e3e3e3;stroke-miterlimit:10;stroke-width:2px;}</style></defs><title>separatedimensions_l</title><rect class="cls-1" x="18.44" y="4.54" width="10.52" height="10.52" rx="3.33"/><rect class="cls-1" x="18.44" y="17.54" width="10.52" height="10.52" rx="3.33"/><path class="cls-1" d="M9.19,12.74a1.34,1.34,0,0,1,1.33,1.33v3.86a1.34,1.34,0,0,1-1.33,1.33H5.33A1.34,1.34,0,0,1,4,17.93V14.07a1.34,1.34,0,0,1,1.33-1.33H9.19m0-2H5.33A3.33,3.33,0,0,0,2,14.07v3.86a3.33,3.33,0,0,0,3.33,3.33H9.19a3.33,3.33,0,0,0,3.33-3.33V14.07a3.33,3.33,0,0,0-3.33-3.33Z"/><polyline class="cls-2" points="18.44 9.8 12.52 16 18.44 22.8"/></svg>