<?xml version="1.0" encoding="UTF-8" standalone="no"?>
<!-- Created with Inkscape (http://www.inkscape.org/) -->

<svg
   xmlns:dc="http://purl.org/dc/elements/1.1/"
   xmlns:cc="http://creativecommons.org/ns#"
   xmlns:rdf="http://www.w3.org/1999/02/22-rdf-syntax-ns#"
   xmlns:svg="http://www.w3.org/2000/svg"
   xmlns="http://www.w3.org/2000/svg"
   xmlns:sodipodi="http://sodipodi.sourceforge.net/DTD/sodipodi-0.dtd"
   xmlns:inkscape="http://www.inkscape.org/namespaces/inkscape"
   width="32"
   height="32"
   viewBox="0 0 8.4666666 8.4666666"
   version="1.1"
   id="svg8"
   inkscape:version="0.92.5 (2060ec1f9f, 2020-04-08)"
   sodipodi:docname="set-pixel-format_sl.svg">
  <defs
     id="defs2">
    <style
       id="style1399">.cls-1{fill:#e3e3e3;}</style>
    <style
       id="style1399-4">.cls-1{fill:#e3e3e3;}</style>
    <style
       id="style1399-8">.cls-1{fill:#e3e3e3;}</style>
    <style
       id="style1399-4-5">.cls-1{fill:#e3e3e3;}</style>
    <style
       id="style1399-9">.cls-1{fill:#e3e3e3;}</style>
    <style
       id="style1399-4-6">.cls-1{fill:#e3e3e3;}</style>
    <style
       id="style1399-8-4">.cls-1{fill:#e3e3e3;}</style>
    <style
       id="style1399-4-5-3">.cls-1{fill:#e3e3e3;}</style>
    <style
       id="style1399-88">.cls-1{fill:#e3e3e3;}</style>
    <style
       id="style1399-3">.cls-1{fill:#e3e3e3;}</style>
    <style
       id="style1399-94">.cls-1{fill:#e3e3e3;}</style>
    <style
       id="style1399-5">.cls-1{fill:#e3e3e3;}</style>
    <style
       id="style1399-46">.cls-1{fill:#e3e3e3;}</style>
    <style
       id="style1399-4-2">.cls-1{fill:#e3e3e3;}</style>
    <style
       id="style1399-8-5">.cls-1{fill:#e3e3e3;}</style>
    <style
       id="style1399-4-5-8">.cls-1{fill:#e3e3e3;}</style>
    <style
       id="style1399-9-6">.cls-1{fill:#e3e3e3;}</style>
    <style
       id="style1399-4-6-2">.cls-1{fill:#e3e3e3;}</style>
    <style
       id="style1399-8-4-8">.cls-1{fill:#e3e3e3;}</style>
    <style
       id="style1399-4-5-3-4">.cls-1{fill:#e3e3e3;}</style>
    <style
       id="style1399-88-7">.cls-1{fill:#e3e3e3;}</style>
    <style
       id="style1399-3-2">.cls-1{fill:#e3e3e3;}</style>
    <style
       id="style1399-94-4">.cls-1{fill:#e3e3e3;}</style>
    <style
       id="style1399-5-0">.cls-1{fill:#e3e3e3;}</style>
    <style
       id="style1399-39">.cls-1{fill:#e3e3e3;}</style>
    <style
       id="style1399-4-1">.cls-1{fill:#e3e3e3;}</style>
    <style
       id="style1399-8-9">.cls-1{fill:#e3e3e3;}</style>
    <style
       id="style1399-4-5-6">.cls-1{fill:#e3e3e3;}</style>
    <style
       id="style1399-9-9">.cls-1{fill:#e3e3e3;}</style>
    <style
       id="style1399-4-6-3">.cls-1{fill:#e3e3e3;}</style>
    <style
       id="style1399-8-4-3">.cls-1{fill:#e3e3e3;}</style>
    <style
       id="style1399-4-5-3-8">.cls-1{fill:#e3e3e3;}</style>
    <style
       id="style1399-88-0">.cls-1{fill:#e3e3e3;}</style>
    <style
       id="style1399-3-5">.cls-1{fill:#e3e3e3;}</style>
    <style
       id="style1399-94-6">.cls-1{fill:#e3e3e3;}</style>
    <style
       id="style1399-5-6">.cls-1{fill:#e3e3e3;}</style>
    <style
       id="style1399-46-4">.cls-1{fill:#e3e3e3;}</style>
    <style
       id="style1399-4-2-0">.cls-1{fill:#e3e3e3;}</style>
    <style
       id="style1399-8-5-0">.cls-1{fill:#e3e3e3;}</style>
    <style
       id="style1399-4-5-8-4">.cls-1{fill:#e3e3e3;}</style>
    <style
       id="style1399-9-6-6">.cls-1{fill:#e3e3e3;}</style>
    <style
       id="style1399-4-6-2-2">.cls-1{fill:#e3e3e3;}</style>
    <style
       id="style1399-8-4-8-6">.cls-1{fill:#e3e3e3;}</style>
    <style
       id="style1399-4-5-3-4-7">.cls-1{fill:#e3e3e3;}</style>
    <style
       id="style1399-88-7-5">.cls-1{fill:#e3e3e3;}</style>
    <style
       id="style1399-3-2-6">.cls-1{fill:#e3e3e3;}</style>
    <style
       id="style1399-94-4-9">.cls-1{fill:#e3e3e3;}</style>
    <style
       id="style1399-5-0-8">.cls-1{fill:#e3e3e3;}</style>
    <style
       id="style1399-1">.cls-1{fill:#e3e3e3;}</style>
    <style
       id="style1399-4-59">.cls-1{fill:#e3e3e3;}</style>
    <style
       id="style1399-8-91">.cls-1{fill:#e3e3e3;}</style>
    <style
       id="style1399-4-5-4">.cls-1{fill:#e3e3e3;}</style>
    <style
       id="style1399-9-91">.cls-1{fill:#e3e3e3;}</style>
    <style
       id="style1399-4-6-0">.cls-1{fill:#e3e3e3;}</style>
    <style
       id="style1399-8-4-7">.cls-1{fill:#e3e3e3;}</style>
    <style
       id="style1399-4-5-3-5">.cls-1{fill:#e3e3e3;}</style>
    <style
       id="style1399-88-8">.cls-1{fill:#e3e3e3;}</style>
    <style
       id="style1399-3-7">.cls-1{fill:#e3e3e3;}</style>
    <style
       id="style1399-94-0">.cls-1{fill:#e3e3e3;}</style>
    <style
       id="style1399-5-4">.cls-1{fill:#e3e3e3;}</style>
    <style
       id="style1399-46-8">.cls-1{fill:#e3e3e3;}</style>
    <style
       id="style1399-4-2-04">.cls-1{fill:#e3e3e3;}</style>
    <style
       id="style1399-8-5-2">.cls-1{fill:#e3e3e3;}</style>
    <style
       id="style1399-4-5-8-9">.cls-1{fill:#e3e3e3;}</style>
    <style
       id="style1399-9-6-61">.cls-1{fill:#e3e3e3;}</style>
    <style
       id="style1399-4-6-2-0">.cls-1{fill:#e3e3e3;}</style>
    <style
       id="style1399-8-4-8-4">.cls-1{fill:#e3e3e3;}</style>
    <style
       id="style1399-4-5-3-4-2">.cls-1{fill:#e3e3e3;}</style>
    <style
       id="style1399-88-7-2">.cls-1{fill:#e3e3e3;}</style>
    <style
       id="style1399-3-2-2">.cls-1{fill:#e3e3e3;}</style>
    <style
       id="style1399-94-4-0">.cls-1{fill:#e3e3e3;}</style>
    <style
       id="style1399-5-0-5">.cls-1{fill:#e3e3e3;}</style>
  </defs>
  <sodipodi:namedview
     id="base"
     pagecolor="#ffffff"
     bordercolor="#666666"
     borderopacity="1.0"
     inkscape:pageopacity="0.0"
     inkscape:pageshadow="2"
     inkscape:zoom="16"
     inkscape:cx="1.6019296"
     inkscape:cy="18.185277"
     inkscape:document-units="mm"
     inkscape:current-layer="svg8"
     showgrid="false"
     units="px"
     inkscape:window-width="1920"
     inkscape:window-height="1043"
     inkscape:window-x="0"
     inkscape:window-y="120"
     inkscape:window-maximized="1">
    <sodipodi:guide
       position="8.4666666,0"
       orientation="-32,0"
       id="guide854"
       inkscape:locked="false" />
    <sodipodi:guide
       position="8.5622298,8.4657622"
       orientation="0,-32"
       id="guide856"
       inkscape:locked="false" />
    <sodipodi:guide
       position="0,8.4666814"
       orientation="32,0"
       id="guide858"
       inkscape:locked="false" />
  </sodipodi:namedview>
  <metadata
     id="metadata5">
    <rdf:RDF>
      <cc:Work
         rdf:about="">
        <dc:format>image/svg+xml</dc:format>
        <dc:type
           rdf:resource="http://purl.org/dc/dcmitype/StillImage" />
        <dc:title></dc:title>
      </cc:Work>
    </rdf:RDF>
  </metadata>
  <path
     style="opacity:1;fill:#83d3f6;fill-opacity:1;stroke:none;stroke-width:0.82755244;stroke-linecap:round;stroke-linejoin:round;stroke-miterlimit:4;stroke-dasharray:none;stroke-dashoffset:10.3937006;stroke-opacity:1"
     d="M 4.4785156 0.00390625 L 4.4785156 4.5996094 L 9.0761719 4.5996094 L 9.0761719 0.00390625 L 4.4785156 0.00390625 z M 13.671875 4.5996094 L 13.671875 13.792969 L 9.0761719 13.792969 L 9.0761719 22.986328 L 15.869141 22.986328 C 15.785211 22.628286 15.78894 22.245886 15.90625 21.873047 C 16.318918 20.551016 17.014821 19.35048 17.929688 18.359375 C 18.594015 17.632048 19.691577 17.446315 20.564453 17.945312 A 1.7679437 1.7679437 0 0 1 20.580078 17.953125 L 21 18.197266 C 21.009487 18.191748 21.019735 18.187121 21.029297 18.181641 L 21.029297 17.6875 C 21.029296 16.717812 21.701033 15.823942 22.691406 15.605469 L 22.699219 15.605469 C 22.753829 15.593299 22.810337 15.589312 22.865234 15.578125 L 22.865234 9.1972656 L 18.269531 9.1972656 L 18.269531 4.5996094 L 13.671875 4.5996094 z M -0.11914062 9.1445312 L -0.11914062 13.742188 L 4.4765625 13.742188 L 4.4765625 9.1445312 L -0.11914062 9.1445312 z M 24.699219 17.152344 C 24.146809 17.15385 23.601488 17.21657 23.076172 17.333984 C 22.910598 17.369965 22.792969 17.516893 22.792969 17.685547 L 22.792969 19.166016 C 22.124655 19.403843 21.504764 19.762068 20.962891 20.222656 L 19.683594 19.482422 C 19.536083 19.398095 19.352677 19.426244 19.238281 19.552734 C 18.49471 20.356505 17.925952 21.325662 17.591797 22.400391 C 17.540618 22.563046 17.610305 22.737993 17.757812 22.822266 L 19.039062 23.5625 C 18.909614 24.260897 18.909614 24.977367 19.039062 25.675781 L 17.757812 26.416016 C 17.610301 26.500341 17.543631 26.675341 17.591797 26.837891 C 17.925952 27.909602 18.49471 28.878742 19.238281 29.685547 C 19.352676 29.808862 19.539093 29.838057 19.683594 29.753906 L 20.966797 29.013672 C 21.50566 29.477277 22.125554 29.835484 22.796875 30.070312 L 22.796875 31.550781 C 22.796875 31.719257 22.914508 31.868183 23.080078 31.904297 C 24.184898 32.151176 25.316554 32.139126 26.367188 31.904297 C 26.532761 31.868316 26.650391 31.719435 26.650391 31.550781 L 26.650391 30.070312 C 27.318704 29.832467 27.938595 29.47426 28.480469 29.013672 L 29.761719 29.753906 C 29.90923 29.838235 30.09459 29.812036 30.208984 29.685547 C 30.952554 28.881776 31.521314 27.912619 31.855469 26.837891 C 31.900626 26.672412 31.833057 26.496419 31.685547 26.412109 L 30.404297 25.671875 C 30.533742 24.973442 30.533742 24.257008 30.404297 23.558594 L 31.685547 22.818359 C 31.833055 22.734032 31.899729 22.559052 31.851562 22.396484 C 31.517408 21.324773 30.948648 20.355616 30.205078 19.548828 C 30.090683 19.425513 29.904265 19.396318 29.759766 19.480469 L 28.476562 20.220703 C 27.9377 19.757098 27.317805 19.398855 26.646484 19.164062 L 26.646484 17.685547 C 26.646484 17.517071 26.528855 17.370098 26.363281 17.333984 C 25.810871 17.210545 25.251629 17.150838 24.699219 17.152344 z M 24.720703 22.207031 C 26.048293 22.207031 27.128906 23.287648 27.128906 24.615234 C 27.128906 25.94282 26.048293 27.023438 24.720703 27.023438 C 23.393113 27.023438 22.3125 25.94282 22.3125 24.615234 C 22.3125 23.287648 23.393113 22.207031 24.720703 22.207031 z "
     transform="scale(0.26458333)"
     id="rect5880" />
</svg>
