<svg id="Calque_1" data-name="Calque 1" xmlns="http://www.w3.org/2000/svg" viewBox="0 0 32 32"><defs><style>.cls-1{fill:#e3e3e3;}</style></defs><title>shoulders_l</title><path class="cls-1" d="M18.58,17.56H18.2v-.45a.29.29,0,0,0-.43-.26,3.79,3.79,0,0,1-1.46.24,3.76,3.76,0,0,1-1.46-.24.33.33,0,0,0-.29,0,.3.3,0,0,0-.14.25v.45H14a.47.47,0,0,0-.48.48v.32a.48.48,0,0,0,.48.49h.38v.3a.29.29,0,0,0,.14.26,4.09,4.09,0,0,0,1.75.33,3.83,3.83,0,0,0,1.75-.33.29.29,0,0,0,.14-.26v-.3h.38a.49.49,0,0,0,.48-.49V18A.48.48,0,0,0,18.58,17.56Zm0,.8s0,0,0,0H18a.23.23,0,0,0-.23.23v.44a4.09,4.09,0,0,1-1.43.22,4.09,4.09,0,0,1-1.43-.22v-.44a.23.23,0,0,0-.23-.23H14s0,0,0,0V18a0,0,0,0,1,0,0h.61a.23.23,0,0,0,.23-.23v-.43a4.76,4.76,0,0,0,1.43.19,4.85,4.85,0,0,0,1.43-.19v.43A.23.23,0,0,0,18,18h.61a0,0,0,0,1,0,0v.32Z"/><path class="cls-1" d="M18.52,20.41H18.2V20a.32.32,0,0,0-.14-.25.3.3,0,0,0-.29,0,3.82,3.82,0,0,1-1.46.23,3.79,3.79,0,0,1-1.46-.23.29.29,0,0,0-.43.26v.44H14.1a.55.55,0,0,0-.54.55v.2a.55.55,0,0,0,.54.55h.32V22a.29.29,0,0,0,.14.26,4.09,4.09,0,0,0,1.75.33,4,4,0,0,0,1.75-.33A.3.3,0,0,0,18.2,22v-.3h.32a.55.55,0,0,0,.54-.55V21A.55.55,0,0,0,18.52,20.41Zm.08.74a.09.09,0,0,1-.08.09H18a.23.23,0,0,0-.23.23v.45a4,4,0,0,1-1.42.21,10.31,10.31,0,0,1-1.44-.21v-.44a.23.23,0,0,0-.23-.24H14.1a.07.07,0,0,1-.08-.08V21a.07.07,0,0,1,.08-.08h.55a.23.23,0,0,0,.23-.23v-.43a4.76,4.76,0,0,0,1.43.19,4.85,4.85,0,0,0,1.43-.19v.39a.23.23,0,0,0,.23.23h.55a.09.09,0,0,1,.08.08v.23Z"/><path class="cls-1" d="M15.09,17.89v.87a.24.24,0,0,0,.21.23.22.22,0,0,0,.25-.23v-.88a.22.22,0,0,0-.25-.23A.24.24,0,0,0,15.09,17.89Z"/><path class="cls-1" d="M15.09,20.76v.83a.24.24,0,0,0,.21.24.22.22,0,0,0,.25-.23v-.85a.22.22,0,0,0-.25-.23A.24.24,0,0,0,15.09,20.76Z"/><path class="cls-1" d="M18.52,23.27H18.2v-.43a.43.43,0,0,0,0-.11.29.29,0,0,0-.41-.16,3.82,3.82,0,0,1-1.46.23,3.79,3.79,0,0,1-1.46-.23.3.3,0,0,0-.29,0,.29.29,0,0,0-.14.25v.44H14.1a.54.54,0,0,0-.54.54V24a.54.54,0,0,0,.54.54h.32v.22a.44.44,0,0,0,.26.41,4.46,4.46,0,0,0,1.63.27,4.53,4.53,0,0,0,1.63-.26.47.47,0,0,0,.26-.42v-.22h.32a.54.54,0,0,0,.54-.54v-.21A.54.54,0,0,0,18.52,23.27Zm.08.74a.09.09,0,0,1-.08.09H18a.23.23,0,0,0-.23.23v.44a3.82,3.82,0,0,1-1.42.22,9.88,9.88,0,0,1-1.44-.22v-.44a.23.23,0,0,0-.23-.23H14.1A.07.07,0,0,1,14,24v-.21a.08.08,0,0,1,.08-.08h.55a.23.23,0,0,0,.23-.23v-.42a4.79,4.79,0,0,0,1.43.18,4.88,4.88,0,0,0,1.43-.18v.39a.23.23,0,0,0,.23.23h.55a.09.09,0,0,1,.08.08V24Z"/><path class="cls-1" d="M15.09,23.61v.84a.25.25,0,0,0,.21.24.22.22,0,0,0,.25-.23V23.6a.22.22,0,0,0-.25-.22A.23.23,0,0,0,15.09,23.61Z"/><polygon class="cls-1" points="14.66 17.16 17.92 17.08 18.3 25.26 14.47 25.58 14.66 17.16"/><path class="cls-1" d="M18.58,8.56H18.2V8.11a.29.29,0,0,0-.43-.26,3.79,3.79,0,0,1-1.46.24,3.76,3.76,0,0,1-1.46-.24.33.33,0,0,0-.29,0,.3.3,0,0,0-.14.25v.45H14a.47.47,0,0,0-.48.48v.32a.48.48,0,0,0,.48.49h.38v.3a.29.29,0,0,0,.14.26,4.09,4.09,0,0,0,1.75.33,3.83,3.83,0,0,0,1.75-.33.29.29,0,0,0,.14-.26v-.3h.38a.49.49,0,0,0,.48-.49V9A.48.48,0,0,0,18.58,8.56Zm0,.8s0,0,0,0H18a.23.23,0,0,0-.23.23v.44a4.09,4.09,0,0,1-1.43.22,4.09,4.09,0,0,1-1.43-.22V9.62a.23.23,0,0,0-.23-.23H14s0,0,0,0V9l0,0h.61a.23.23,0,0,0,.23-.23V8.36a4.76,4.76,0,0,0,1.43.19,4.85,4.85,0,0,0,1.43-.19v.43A.23.23,0,0,0,18,9h.61l0,0v.32Z"/><path class="cls-1" d="M18.52,11.41H18.2V11a.32.32,0,0,0-.14-.25.3.3,0,0,0-.29,0,3.82,3.82,0,0,1-1.46.23,3.79,3.79,0,0,1-1.46-.23.29.29,0,0,0-.43.26v.44H14.1a.55.55,0,0,0-.54.55v.2a.55.55,0,0,0,.54.55h.32V13a.29.29,0,0,0,.14.26,4.09,4.09,0,0,0,1.75.33,4,4,0,0,0,1.75-.33A.3.3,0,0,0,18.2,13v-.3h.32a.55.55,0,0,0,.54-.55V12A.55.55,0,0,0,18.52,11.41Zm.08.74a.09.09,0,0,1-.08.09H18a.23.23,0,0,0-.23.23v.45a4,4,0,0,1-1.42.21,10.31,10.31,0,0,1-1.44-.21v-.44a.23.23,0,0,0-.23-.24H14.1a.07.07,0,0,1-.08-.08V12a.07.07,0,0,1,.08-.08h.55a.23.23,0,0,0,.23-.23v-.43a4.76,4.76,0,0,0,1.43.19,4.85,4.85,0,0,0,1.43-.19v.39a.23.23,0,0,0,.23.23h.55a.09.09,0,0,1,.08.08v.23Z"/><path class="cls-1" d="M15.09,8.89v.87a.24.24,0,0,0,.21.23.22.22,0,0,0,.25-.23V8.88a.22.22,0,0,0-.25-.23A.24.24,0,0,0,15.09,8.89Z"/><path class="cls-1" d="M15.09,11.76v.83a.24.24,0,0,0,.21.24.22.22,0,0,0,.25-.23v-.85a.22.22,0,0,0-.25-.23A.24.24,0,0,0,15.09,11.76Z"/><path class="cls-1" d="M18.52,14.27H18.2v-.43a.43.43,0,0,0,0-.11.29.29,0,0,0-.41-.16,3.82,3.82,0,0,1-1.46.23,3.79,3.79,0,0,1-1.46-.23.3.3,0,0,0-.29,0,.29.29,0,0,0-.14.25v.44H14.1a.54.54,0,0,0-.54.54V15a.54.54,0,0,0,.54.54h.32v.22a.44.44,0,0,0,.26.41,4.46,4.46,0,0,0,1.63.27,4.53,4.53,0,0,0,1.63-.26.47.47,0,0,0,.26-.42v-.22h.32a.54.54,0,0,0,.54-.54v-.21A.54.54,0,0,0,18.52,14.27Zm.08.74a.09.09,0,0,1-.08.09H18a.23.23,0,0,0-.23.23v.44a3.82,3.82,0,0,1-1.42.22,9.88,9.88,0,0,1-1.44-.22v-.44a.23.23,0,0,0-.23-.23H14.1A.07.07,0,0,1,14,15v-.21a.08.08,0,0,1,.08-.08h.55a.23.23,0,0,0,.23-.23v-.42a4.79,4.79,0,0,0,1.43.18,4.88,4.88,0,0,0,1.43-.18v.39a.23.23,0,0,0,.23.23h.55a.09.09,0,0,1,.08.08V15Z"/><path class="cls-1" d="M15.09,14.61v.84a.25.25,0,0,0,.21.24.22.22,0,0,0,.25-.23V14.6a.22.22,0,0,0-.25-.22A.23.23,0,0,0,15.09,14.61Z"/><polygon class="cls-1" points="14.66 8.17 17.92 8.08 18.3 17.23 14.47 17.58 14.66 8.17"/><path class="cls-1" d="M4.26,18.87C4,18.4,7,15.79,9.47,15.73s3.18-1,3.57-.59.84,1.32.29,1.79-3.47-1.19-5.42-.05S5.8,19.27,5.49,19.42A1.11,1.11,0,0,1,4.26,18.87Z"/><path class="cls-1" d="M28.57,18.87c.23-.47-2.73-3.08-5.21-3.14s-3.19-1-3.57-.59-.84,1.32-.3,1.79,3.48-1.19,5.43-.05,2.11,2.39,2.42,2.54A1.11,1.11,0,0,0,28.57,18.87Z"/></svg>