<svg id="Calque_1" data-name="Calque 1" xmlns="http://www.w3.org/2000/svg" viewBox="0 0 32 32"><defs><style>.cls-1{fill:#e3e3e3;}</style></defs><title>showhand_l</title><path class="cls-1" d="M21.2,12.82c.19,0,.38,0,.57,0v-7a2,2,0,0,0-2-2c-1.13,0-1.54.91-1.54,2v7.34A12.18,12.18,0,0,1,21.2,12.82Z"/><path class="cls-1" d="M26.44,14V10.54a2,2,0,0,0-2.05-2c-1.13,0-1.45.91-1.45,2V13A12.77,12.77,0,0,1,26.44,14Z"/><path class="cls-1" d="M21.2,29a13,13,0,0,1-11-6.32,3.45,3.45,0,0,1-.51-1.77,3.39,3.39,0,0,1,.48-1.72,13.77,13.77,0,0,1,3.32-3.71l-.93-.77V5.09c0-1.13-1.07-1.26-2.2-1.26s-1.54.48-1.54,1.61v9.62l-.5,5.11L5.54,16.43a2.31,2.31,0,0,0-1.85-.93,2.34,2.34,0,0,0-2.34,2.33,2.31,2.31,0,0,0,.48,1.41l7,9.33a2.33,2.33,0,0,0,1.86.93H23.23a1.77,1.77,0,0,0,1.59-1.06A12.32,12.32,0,0,1,21.2,29Z"/><path class="cls-1" d="M17.1,13.56v-10a2,2,0,0,0-2-2c-1.13,0-1.53.9-1.53,2v12A13.12,13.12,0,0,1,17.1,13.56Z"/><path class="cls-1" d="M30.57,20.1a1.4,1.4,0,0,1,.23.79,1.43,1.43,0,0,1-.23.8,10.83,10.83,0,0,1-14.74,3.84A10.66,10.66,0,0,1,12,21.69a1.52,1.52,0,0,1-.23-.8A1.48,1.48,0,0,1,12,20.1a10.69,10.69,0,0,1,3.88-3.85A10.8,10.8,0,0,1,30.57,20.1Zm-9.31,5.3a4.43,4.43,0,0,0,2.26-.61,4.77,4.77,0,0,0,1.64-1.64,4.47,4.47,0,0,0,0-4.51A4.77,4.77,0,0,0,23.52,17,4.47,4.47,0,0,0,19,17a4.77,4.77,0,0,0-1.64,1.64,4.47,4.47,0,0,0,0,4.51A4.77,4.77,0,0,0,19,24.79,4.42,4.42,0,0,0,21.26,25.4Zm3.45-4.51a3.45,3.45,0,0,0-3.45-3.44,3.52,3.52,0,0,0-1.62.39,1.44,1.44,0,1,1-1.42,1.43,3.41,3.41,0,0,0-.4,1.62,3.45,3.45,0,0,0,3.44,3.45,3.45,3.45,0,0,0,3.45-3.45Z"/></svg>