<svg id="Calque_1" data-name="Calque 1" xmlns="http://www.w3.org/2000/svg" viewBox="0 0 32 32"><defs><style>.cls-1{fill:#e3e3e3;}</style></defs><title>slider_l</title><path class="cls-1" d="M15.81,11.69a.94.94,0,0,0,1.32,0l.74-.89L20,8.66a.93.93,0,0,1,1.31,0l.56.55a1,1,0,0,1,.26.65,1,1,0,0,1-.26.67l-4.75,4.73a.94.94,0,0,1-.66.27,1,1,0,0,1-.66-.27l-4.73-4.73a1,1,0,0,1-.28-.67.94.94,0,0,1,.28-.65l.54-.55a1,1,0,0,1,.66-.27.94.94,0,0,1,.66.27l2.14,2.14Z"/><rect class="cls-1" x="3.33" y="15.81" width="25.3" height="5.66"/></svg>