<svg id="Calque_1" data-name="Calque 1" xmlns="http://www.w3.org/2000/svg" viewBox="0 0 7 16"><defs><style>.cls-1{fill:#e3e3e3;}</style></defs><title>spacer_l</title><path class="cls-1" d="M3.75,7.8a.4.4,0,0,1-.27.11.37.37,0,0,1-.27-.11L.11,4.7A.37.37,0,0,1,0,4.43a.4.4,0,0,1,.11-.27l3.1-3.09A.33.33,0,0,1,3.48,1a.36.36,0,0,1,.27.11l.36.35a.33.33,0,0,1,.11.27A.42.42,0,0,1,4.1,2L2.18,3.79H6.76A.34.34,0,0,1,7,3.91a.33.33,0,0,1,.11.27v.51A.36.36,0,0,1,7,5a.37.37,0,0,1-.27.11H2.18L4.1,6.9a.47.47,0,0,1,.12.28.36.36,0,0,1-.11.27Z"/><path class="cls-1" d="M3.25,9.18a.37.37,0,0,1,.27-.12.34.34,0,0,1,.27.12l3.1,3.09a.39.39,0,0,1,0,.54L3.79,15.9a.34.34,0,0,1-.27.12.37.37,0,0,1-.27-.12l-.36-.35a.33.33,0,0,1-.11-.27A.47.47,0,0,1,2.9,15l1.92-1.83H.24A.37.37,0,0,1,0,13.07a.37.37,0,0,1-.11-.28v-.5A.37.37,0,0,1,0,12a.37.37,0,0,1,.27-.11H4.82L2.9,10.07a.47.47,0,0,1-.12-.27.33.33,0,0,1,.11-.27Z"/></svg>