<svg id="Calque_1" data-name="Calque 1" xmlns="http://www.w3.org/2000/svg" viewBox="0 0 32 32"><defs><style>.cls-1{fill:#e3e3e3;}.cls-2{fill:none;stroke:#e3e3e3;stroke-miterlimit:10;stroke-width:2px;}</style></defs><title>structurehide_l</title><path class="cls-1" d="M26.29,2.72A2.25,2.25,0,1,1,24.05,5a2.25,2.25,0,0,1,2.24-2.24m0-2A4.25,4.25,0,1,0,30.54,5,4.24,4.24,0,0,0,26.29.72Z"/><path class="cls-1" d="M22.54,8.79a3.21,3.21,0,0,1-2.36-2.7,5.29,5.29,0,0,1,1.55-4L11.25,4.46c-.36.07-.37.08-.22.43a5.9,5.9,0,0,1-1.32,6.4c-.09.09-.21.15-.24.29s.19,0,.28,0Z"/><path class="cls-1" d="M.35,7.44a4.65,4.65,0,1,1,4.59,4.65A4.64,4.64,0,0,1,.35,7.44ZM2,7.46A3,3,0,0,0,8,7.44a3,3,0,0,0-3-3A3,3,0,0,0,2,7.46Z"/><path class="cls-2" d="M10.85,23.56a4.44,4.44,0,0,0-1,2.76,4.48,4.48,0,0,0,7.29,3.51"/><path class="cls-1" d="M9.82,21.67a3.23,3.23,0,0,1-.1-.76,3.34,3.34,0,0,1,.54-1.82,15,15,0,0,1,2.09-2.55L9.4,11.87c-.19-.33-.2-.33-.48-.07a5.87,5.87,0,0,1-6.47.91c-.11-.05-.21-.15-.35-.12s0,.18.09.26L9.12,24A3.41,3.41,0,0,1,9.82,21.67Z"/><path class="cls-1" d="M22.49,26.91c-.33,0-.68,0-1,0A11,11,0,0,1,12,21.54a1.49,1.49,0,0,1,0-1.62,10.57,10.57,0,0,1,3.24-3.48l1.93,2.77a4.39,4.39,0,0,0-.27,1.52,4.5,4.5,0,0,0,.6,2.29,4.69,4.69,0,0,0,1.66,1.68,4.45,4.45,0,0,0,2.29.62ZM29,24a11.47,11.47,0,0,1-2.6,1.79l1.42,2a.83.83,0,0,1,.11.6.67.67,0,0,1-.32.51l-.44.34a.89.89,0,0,1-.6.12A.81.81,0,0,1,26,29L15.1,13.67a.9.9,0,0,1-.12-.61.67.67,0,0,1,.32-.5l.44-.34a.9.9,0,0,1,.61-.12.81.81,0,0,1,.54.32l1.72,2.47a11,11,0,0,1,12.33,5,1.54,1.54,0,0,1,0,1.62A9.88,9.88,0,0,1,29,24Zm-11-3.61a3.43,3.43,0,0,0,.64,2.36,3.5,3.5,0,0,0,2,1.39Zm7.48-2a4.8,4.8,0,0,0-1.68-1.67,4.33,4.33,0,0,0-2.29-.62,4.65,4.65,0,0,0-1.72.33l.67.92a3.49,3.49,0,0,1,2.7.23,1.43,1.43,0,0,0-1.45,1.45,1.4,1.4,0,0,0,.42,1,1.42,1.42,0,0,0,1,.43,1.45,1.45,0,0,0,1.45-1.46,3.52,3.52,0,0,1-.27,3.75l.65.91a4.42,4.42,0,0,0,1.11-3A4.48,4.48,0,0,0,25.42,18.43Z"/></svg>