<svg id="Calque_1" data-name="Calque 1" xmlns="http://www.w3.org/2000/svg" viewBox="0 0 32 32"><defs><style>.cls-1{fill:#e3e3e3;}</style></defs><title>structureget_l</title><path class="cls-1" d="M16.37,24.75h0a2.25,2.25,0,1,1,0,4.5,2.24,2.24,0,0,1-2.21-2.65,2.27,2.27,0,0,1,2.2-1.85m0-2a4.25,4.25,0,1,0,2.43,7.74,4.25,4.25,0,0,0-2.43-7.74Z"/><circle class="cls-1" cx="4.87" cy="10.11" r="4.25"/><path class="cls-1" d="M13.84,20.24l-2.67,1.34A1,1,0,0,1,10,21.39l-.72-.72a1,1,0,0,1-.18-1.16l1.33-2.67V15.17l-1-1.1c-.23-.27-.24-.27-.45,0a5.58,5.58,0,0,1-5.85,2A.59.59,0,0,0,2.77,16c0,.11.08.16.14.23l8.35,9.09a3,3,0,0,1,1.08-3.2,5,5,0,0,1,4-.62l-1.17-1.26Z"/><path class="cls-1" d="M12.94,13.07l4.7-4.7,4.77,4.77-4.7,4.7a2.33,2.33,0,0,1-1.71.71H14.32l-2.09,1.19L11,18.55l1.19-2.09V14.78A2.3,2.3,0,0,1,12.94,13.07ZM29.09,1.69a3.43,3.43,0,0,1,1.05,2.53,3.45,3.45,0,0,1-1.05,2.54L26.22,9.63l.48.49a.83.83,0,0,1,.27.63.87.87,0,0,1-.27.64l-1.53,1.53a.89.89,0,0,1-1.26,0l-6.05-6a.86.86,0,0,1-.26-.63.9.9,0,0,1,.26-.64l1.53-1.52A.87.87,0,0,1,20,3.81a.83.83,0,0,1,.63.27l.49.48L24,1.69a3.59,3.59,0,0,1,5.07,0Z"/></svg>