<svg id="Calque_1" data-name="Calque 1" xmlns="http://www.w3.org/2000/svg" viewBox="0 0 32 32"><defs><style>.cls-1{fill:#e3e3e3;}.cls-2{fill:none;stroke:#e3e3e3;stroke-miterlimit:10;stroke-width:2px;}</style></defs><title>swing_l</title><circle class="cls-1" cx="8.13" cy="24.81" r="4.91"/><path class="cls-1" d="M18.46,5a2,2,0,1,1-2,2,2,2,0,0,1,2-2m0-2a4,4,0,1,0,4,4,4,4,0,0,0-4-4Z"/><path class="cls-2" d="M7.41,24.35s8.45,7.51,21.59-.94"/><path class="cls-1" d="M18.46,12.82a5.85,5.85,0,0,1-5.39-3.58L8,18h.14a6.78,6.78,0,0,1,6.2,4.05l5.43-9.4A6.24,6.24,0,0,1,18.46,12.82Z"/></svg>