<svg id="Calque_1" data-name="Calque 1" xmlns="http://www.w3.org/2000/svg" viewBox="0 0 32 32"><defs><style>.cls-1{fill:#e3e3e3;}</style></defs><title>tail_l</title><path class="cls-1" d="M6.81,24a3.56,3.56,0,0,1,0,2.74,1.43,1.43,0,0,0,.58,2l1,2.28s-4.74-3.39-3.48-4.5a1.62,1.62,0,0,0,.05-2.39,2.25,2.25,0,0,1,2.54-2.22C10,22.1,6.81,24,6.81,24Z"/><path class="cls-1" d="M7.05,24.1a3.46,3.46,0,0,1,0,2.64,1.38,1.38,0,0,0,.6,1.92l1,2.18s-4.64-3.17-3.45-4.27a1.57,1.57,0,0,0,0-2.31,2.16,2.16,0,0,1,2.39-2.2C10,22.17,7.05,24.1,7.05,24.1Z"/><path class="cls-1" d="M7.73,24.21a3.3,3.3,0,0,1,.08,2.55,1.35,1.35,0,0,0,.64,1.84l1.06,2.06s-4.56-2.92-3.43-4A1.51,1.51,0,0,0,6,24.42a2.09,2.09,0,0,1,2.25-2.19C10.56,22.28,7.73,24.21,7.73,24.21Z"/><path class="cls-1" d="M8.85,24.23A3.16,3.16,0,0,1,9,26.68a1.31,1.31,0,0,0,.68,1.76l1.08,1.95S6.3,27.71,7.34,26.63a1.48,1.48,0,0,0-.14-2.15,2,2,0,0,1,2.09-2.17C11.51,22.28,8.85,24.23,8.85,24.23Z"/><path class="cls-1" d="M10.35,24.17a3.13,3.13,0,0,1,.25,2.36,1.25,1.25,0,0,0,.71,1.66L12.42,30S8,27.62,9,26.53a1.41,1.41,0,0,0-.22-2.05,1.92,1.92,0,0,1,1.92-2.17C12.82,22.2,10.35,24.17,10.35,24.17Z"/><path class="cls-1" d="M12.09,24a3,3,0,0,1,.35,2.25,1.2,1.2,0,0,0,.76,1.56l1.14,1.7S10,27.43,10.9,26.35a1.37,1.37,0,0,0-.3-2,1.84,1.84,0,0,1,1.73-2.17C14.37,22,12.09,24,12.09,24Z"/><path class="cls-1" d="M14,23.75a2.86,2.86,0,0,1,.46,2.13,1.15,1.15,0,0,0,.82,1.45l1.19,1.56S12.21,27.13,13,26a1.3,1.3,0,0,0-.4-1.86A1.78,1.78,0,0,1,14.1,22C16,21.7,14,23.75,14,23.75Z"/><path class="cls-1" d="M15.91,23.33a2.76,2.76,0,0,1,.6,2,1.11,1.11,0,0,0,.89,1.33l1.24,1.4s-4.16-1.38-3.51-2.47a1.27,1.27,0,0,0-.53-1.76,1.69,1.69,0,0,1,1.3-2.18C17.72,21.23,15.91,23.33,15.91,23.33Z"/><path class="cls-1" d="M17.8,22.77a2.64,2.64,0,0,1,.76,1.85,1.06,1.06,0,0,0,1,1.18L20.83,27s-4.07-.93-3.56-2a1.22,1.22,0,0,0-.66-1.62,1.61,1.61,0,0,1,1-2.19C19.32,20.61,17.8,22.77,17.8,22.77Z"/><path class="cls-1" d="M19.56,22a2.54,2.54,0,0,1,.94,1.66,1,1,0,0,0,1.05,1l1.39,1s-4-.39-3.61-1.48a1.16,1.16,0,0,0-.83-1.45,1.54,1.54,0,0,1,.7-2.2C20.72,19.82,19.56,22,19.56,22Z"/><path class="cls-1" d="M21.09,21.13a2.39,2.39,0,0,1,1.15,1.4,1,1,0,0,0,1.15.78l1.45.7s-3.76.26-3.61-.82-1-1.23-1-1.23a1.45,1.45,0,0,1,.3-2.16C21.82,18.86,21.09,21.13,21.09,21.13Z"/><path class="cls-1" d="M22.36,19.84a2.34,2.34,0,0,1,1.35,1.07.92.92,0,0,0,1.22.48l1.48.36s-3.42,1-3.51,0-1.18-.94-1.18-.94a1.37,1.37,0,0,1-.17-2.06C22.57,17.6,22.36,19.84,22.36,19.84Z"/><path class="cls-1" d="M23.32,18.18a2.21,2.21,0,0,1,1.49.65.89.89,0,0,0,1.24.15l1.43,0s-2.88,1.73-3.2.81A1,1,0,0,0,23,19.2a1.3,1.3,0,0,1-.66-1.84C23,16.09,23.32,18.18,23.32,18.18Z"/><path class="cls-1" d="M23.94,16.19a2,2,0,0,1,1.52.2.83.83,0,0,0,1.16-.18l1.29-.39s-2.17,2.29-2.7,1.55a.94.94,0,0,0-1.33-.18,1.22,1.22,0,0,1-1.07-1.49C23.08,14.39,23.94,16.19,23.94,16.19Z"/><path class="cls-1" d="M24.1,14.07a2,2,0,0,1,1.44-.18.78.78,0,0,0,1-.44l1.07-.64s-1.43,2.57-2.08,2a.91.91,0,0,0-1.26.16A1.14,1.14,0,0,1,23,13.89C22.9,12.65,24.1,14.07,24.1,14.07Z"/><path class="cls-1" d="M23.63,11.54a1.86,1.86,0,0,1,1.28-.44.74.74,0,0,0,.85-.6l.85-.79S25.8,12.33,25.09,12a.84.84,0,0,0-1.12.38,1,1,0,0,1-1.41-.73C22.27,10.48,23.63,11.54,23.63,11.54Z"/><path class="cls-1" d="M22.51,8.84a1.73,1.73,0,0,1,1.08-.67.71.71,0,0,0,.65-.72l.6-.89s-.21,2.53-.92,2.35a.79.79,0,0,0-.94.58,1,1,0,0,1-1.43-.37C21.06,8.16,22.51,8.84,22.51,8.84Z"/><path class="cls-1" d="M21,6.93a1.6,1.6,0,0,1,.78-.87.66.66,0,0,0,.39-.81l.31-.93S23,6.6,22.3,6.62s-.69.77-.69.77a.89.89,0,0,1-1.35.05C19.59,6.72,21,6.93,21,6.93Z"/><path class="cls-1" d="M19.17,5.71a1.58,1.58,0,0,1,.45-1,.61.61,0,0,0,.12-.82l0-.89s1,1.87.42,2.08a.7.7,0,0,0-.39.86.81.81,0,0,1-1.16.41C17.85,5.92,19.17,5.71,19.17,5.71Z"/><path class="cls-1" d="M17.13,5a1.38,1.38,0,0,1,.15-1,.58.58,0,0,0-.09-.76L17,2.51s1.32,1.39.87,1.72a.64.64,0,0,0-.14.85s-.13.86-.91.66S17.13,5,17.13,5Z"/><path class="cls-1" d="M15.06,4.83a1.33,1.33,0,0,1-.06-.9.52.52,0,0,0-.22-.65l-.31-.64s1.4,1,1.07,1.35a.59.59,0,0,0,.05.78s.05.78-.67.75S15.06,4.83,15.06,4.83Z"/><path class="cls-1" d="M13.15,5A1.22,1.22,0,0,1,13,4.19a.47.47,0,0,0-.28-.55l-.36-.51s1.35.66,1.12,1a.55.55,0,0,0,.16.69s.15.69-.47.75S13.15,5,13.15,5Z"/><path class="cls-1" d="M11.28,5.41A1.12,1.12,0,0,1,11,4.74a.43.43,0,0,0-.31-.45l-.35-.41s1.22.45,1.06.8a.49.49,0,0,0,.22.58s.21.59-.32.7S11.28,5.41,11.28,5.41Z"/><path class="cls-1" d="M9.62,6a1,1,0,0,1-.26-.56.41.41,0,0,0-.3-.38l-.33-.31s1.06.3,1,.61.23.49.23.49.24.49-.19.62S9.62,6,9.62,6Z"/><path class="cls-1" d="M8.29,6.56A.92.92,0,0,1,8,6.1a.34.34,0,0,0-.28-.3l-.27-.24s.87.2.81.46.23.4.23.4.24.41-.11.53S8.29,6.56,8.29,6.56Z"/><path class="cls-1" d="M7.4,7a.82.82,0,0,1-.25-.36.3.3,0,0,0-.24-.24L6.7,6.21s.67.14.65.35.22.32.22.32.21.31,0,.41S7.4,7,7.4,7Z"/><path class="cls-1" d="M7,7.17a.9.9,0,0,1-.21-.28.29.29,0,0,0-.2-.18L6.46,6.6s.47.1.48.25.18.24.18.24.19.24,0,.31S7,7.17,7,7.17Z"/></svg>