<svg id="Calque_1" data-name="Calque 1" xmlns="http://www.w3.org/2000/svg" viewBox="0 0 32 32"><defs><style>.cls-1{fill:none;stroke:#e3e3e3;stroke-miterlimit:10;stroke-width:2px;}.cls-2{fill:#e3e3e3;}</style></defs><title>textbelow_l</title><rect class="cls-1" x="3" y="3" width="26" height="27" rx="3"/><path class="cls-2" d="M7.7,24.52a.77.77,0,0,0,.84.82,1.17,1.17,0,0,0,1.11-.79,2.09,2.09,0,0,0,0-.36v-.74C8.57,23.43,7.7,23.7,7.7,24.52Z"/><path class="cls-2" d="M16.12,21.32a1.31,1.31,0,0,0-1.25,1.05,1.61,1.61,0,0,0,0,.39v1a1.53,1.53,0,0,0,0,.38,1.3,1.3,0,0,0,1.25,1c.91,0,1.47-.7,1.47-1.94C17.59,22.16,17.11,21.32,16.12,21.32Z"/><path class="cls-2" d="M3,15V29H29V15ZM9.94,26.68,9.81,26h0a2.49,2.49,0,0,1-2,.84A2.1,2.1,0,0,1,5.6,24.73c0-1.77,1.59-2.63,4-2.61V22c0-.37-.2-.88-1.25-.88a3.86,3.86,0,0,0-1.89.51l-.39-1.37a5.57,5.57,0,0,1,2.66-.6c2.28,0,3,1.34,3,2.95V25a10.57,10.57,0,0,0,.1,1.66Zm6.68.16a2.28,2.28,0,0,1-2.06-1.11h0l-.08.95H12.64c0-.45.06-1.27.06-2v-7.9h2.13v3.91h0a2.4,2.4,0,0,1,2.07-1c1.64,0,2.84,1.36,2.83,3.46C19.76,25.6,18.19,26.84,16.62,26.84Zm7.43-1.68A3.47,3.47,0,0,0,25.27,25l.25,1.56a5.15,5.15,0,0,1-1.91.31A3.31,3.31,0,0,1,20,23.32a3.57,3.57,0,0,1,3.92-3.64,5.14,5.14,0,0,1,1.62.26l-.33,1.59A3,3,0,0,0,24,21.32a1.77,1.77,0,0,0-1.84,1.92A1.78,1.78,0,0,0,24.05,25.16Z"/></svg>