<?xml version="1.0" encoding="UTF-8" standalone="no"?>
<!-- Created with Inkscape (http://www.inkscape.org/) -->

<svg
   xmlns:dc="http://purl.org/dc/elements/1.1/"
   xmlns:cc="http://creativecommons.org/ns#"
   xmlns:rdf="http://www.w3.org/1999/02/22-rdf-syntax-ns#"
   xmlns:svg="http://www.w3.org/2000/svg"
   xmlns="http://www.w3.org/2000/svg"
   xmlns:sodipodi="http://sodipodi.sourceforge.net/DTD/sodipodi-0.dtd"
   xmlns:inkscape="http://www.inkscape.org/namespaces/inkscape"
   width="32"
   height="32"
   viewBox="0 0 8.4666666 8.4666666"
   version="1.1"
   id="svg8"
   inkscape:version="0.92.5 (2060ec1f9f, 2020-04-08)"
   sodipodi:docname="text_sl.svg">
  <defs
     id="defs2" />
  <sodipodi:namedview
     id="base"
     pagecolor="#ffffff"
     bordercolor="#666666"
     borderopacity="1.0"
     inkscape:pageopacity="0.0"
     inkscape:pageshadow="2"
     inkscape:zoom="15.999999"
     inkscape:cx="1.4954569"
     inkscape:cy="16.432487"
     inkscape:document-units="mm"
     inkscape:current-layer="svg8"
     showgrid="false"
     units="px"
     inkscape:window-width="1920"
     inkscape:window-height="1043"
     inkscape:window-x="0"
     inkscape:window-y="120"
     inkscape:window-maximized="1">
    <sodipodi:guide
       position="8.4666666,0"
       orientation="-32,0"
       id="guide854"
       inkscape:locked="false" />
    <sodipodi:guide
       position="8.4666666,8.4666666"
       orientation="0,-32"
       id="guide856"
       inkscape:locked="false" />
    <sodipodi:guide
       position="0,8.4666814"
       orientation="32,0"
       id="guide858"
       inkscape:locked="false" />
  </sodipodi:namedview>
  <metadata
     id="metadata5">
    <rdf:RDF>
      <cc:Work
         rdf:about="">
        <dc:format>image/svg+xml</dc:format>
        <dc:type
           rdf:resource="http://purl.org/dc/dcmitype/StillImage" />
        <dc:title></dc:title>
      </cc:Work>
    </rdf:RDF>
  </metadata>
  <path
     id="path826"
     d="M 7.9871094,1.5053511 V 0.4148088 c 0,-0.2258442 -0.1831079,-0.40895292 -0.408953,-0.40895292 H 0.76226829 c -0.2258443,0 -0.40895291,0.18310793 -0.40895291,0.40895292 v 1.0905423 c 0,0.2258442 0.18310781,0.408953 0.40895291,0.408953 H 7.5781564 c 0.2258436,0 0.408953,-0.1831078 0.408953,-0.408953 z m 0,3.2716258 V 3.6864353 c 0,-0.2258449 -0.1831079,-0.4089538 -0.408953,-0.4089538 H 0.76226829 c -0.2258443,0 -0.40895291,0.1831079 -0.40895291,0.4089538 v 1.0905416 c 0,0.2258445 0.18310781,0.4089537 0.40895291,0.4089537 H 7.5781564 c 0.2258436,0 0.408953,-0.1831078 0.408953,-0.4089537 z m 0,3.271626 V 6.958061 c 0,-0.2258443 -0.1831079,-0.4089529 -0.408953,-0.4089529 H 0.76226829 c -0.2258443,0 -0.40895291,0.1831079 -0.40895291,0.4089529 v 1.0905419 c 0,0.2258447 0.18310781,0.4089542 0.40895291,0.4089542 H 7.5781564 c 0.2258436,0 0.408953,-0.183108 0.408953,-0.4089542 z"
     inkscape:connector-curvature="0"
     style="fill:#e3e3e3;fill-opacity:1;stroke-width:0.03407944"
     sodipodi:nodetypes="sssssssssssssssssssssssssss" />
</svg>
