<svg id="Calque_1" data-name="Calque 1" xmlns="http://www.w3.org/2000/svg" viewBox="0 0 32 32"><defs><style>.cls-1{fill:#e3e3e3;}.cls-2{fill:none;stroke:#e3e3e3;stroke-miterlimit:10;}</style></defs><title>timerange_l</title><rect class="cls-1" x="8" y="14" width="15" height="6" transform="translate(31 34) rotate(180)"/><path class="cls-1" d="M3.58,12H6a0,0,0,0,1,0,0v8a0,0,0,0,1,0,0H3.58A1.58,1.58,0,0,1,2,18.42V13.58A1.58,1.58,0,0,1,3.58,12Z"/><path class="cls-1" d="M26.58,12H29a0,0,0,0,1,0,0v8a0,0,0,0,1,0,0H26.58A1.58,1.58,0,0,1,25,18.42V13.58A1.58,1.58,0,0,1,26.58,12Z" transform="translate(54 32) rotate(180)"/><line class="cls-2" x1="22.5" y1="14" x2="22.5" y2="12"/><line class="cls-2" x1="8.5" y1="14" x2="8.5" y2="12"/><line class="cls-2" x1="15.5" y1="14" x2="15.5" y2="13"/></svg>