<?xml version="1.0" encoding="UTF-8" standalone="no"?>
<!-- Created with Inkscape (http://www.inkscape.org/) -->

<svg
   xmlns:dc="http://purl.org/dc/elements/1.1/"
   xmlns:cc="http://creativecommons.org/ns#"
   xmlns:rdf="http://www.w3.org/1999/02/22-rdf-syntax-ns#"
   xmlns:svg="http://www.w3.org/2000/svg"
   xmlns="http://www.w3.org/2000/svg"
   xmlns:sodipodi="http://sodipodi.sourceforge.net/DTD/sodipodi-0.dtd"
   xmlns:inkscape="http://www.inkscape.org/namespaces/inkscape"
   width="32"
   height="32"
   viewBox="0 0 8.4666666 8.4666666"
   version="1.1"
   id="svg8"
   inkscape:version="0.92.5 (2060ec1f9f, 2020-04-08)"
   sodipodi:docname="touch_sl.svg">
  <defs
     id="defs2">
    <style
       id="style1399">.cls-1{fill:#e3e3e3;}</style>
    <style
       id="style857">.cls-1{fill:#e52120;}.cls-1,.cls-2,.cls-3,.cls-4,.cls-5{stroke:#000;stroke-miterlimit:10;stroke-width:1.2px;}.cls-2{fill:#6dbc88;}.cls-3{fill:#701034;}.cls-4{fill:#51aae0;}.cls-5{fill:none;}</style>
    <style
       id="style857-2">.cls-1{fill:#e52120;}.cls-1,.cls-2,.cls-3,.cls-4,.cls-5{stroke:#000;stroke-miterlimit:10;stroke-width:1.2px;}.cls-2{fill:#6dbc88;}.cls-3{fill:#701034;}.cls-4{fill:#51aae0;}.cls-5{fill:none;}</style>
    <style
       id="style1399-7">.cls-1{fill:#e3e3e3;}</style>
    <style
       id="style1399-2">.cls-1{fill:#e3e3e3;}</style>
  </defs>
  <sodipodi:namedview
     id="base"
     pagecolor="#ffffff"
     bordercolor="#666666"
     borderopacity="1.0"
     inkscape:pageopacity="0.0"
     inkscape:pageshadow="2"
     inkscape:zoom="16"
     inkscape:cx="15.710369"
     inkscape:cy="12.76471"
     inkscape:document-units="mm"
     inkscape:current-layer="layer1"
     showgrid="false"
     units="px"
     inkscape:window-width="1848"
     inkscape:window-height="1136"
     inkscape:window-x="0"
     inkscape:window-y="27"
     inkscape:window-maximized="1">
    <sodipodi:guide
       position="8.4666666,0"
       orientation="-32,0"
       id="guide854"
       inkscape:locked="false" />
    <sodipodi:guide
       position="8.4666666,8.4666666"
       orientation="0,-32"
       id="guide856"
       inkscape:locked="false" />
    <sodipodi:guide
       position="0,8.4666814"
       orientation="32,0"
       id="guide858"
       inkscape:locked="false" />
  </sodipodi:namedview>
  <metadata
     id="metadata5">
    <rdf:RDF>
      <cc:Work
         rdf:about="">
        <dc:format>image/svg+xml</dc:format>
        <dc:type
           rdf:resource="http://purl.org/dc/dcmitype/StillImage" />
        <dc:title></dc:title>
      </cc:Work>
    </rdf:RDF>
  </metadata>
  <g
     inkscape:label="Layer 1"
     inkscape:groupmode="layer"
     id="layer1"
     transform="translate(0,-288.53334)">
    <path
       id="path1192"
       d="m 7.8548177,292.4875 v 1.58099 c 0,0.0507 -0.00587,0.10158 -0.017505,0.15088 l -0.5269952,2.23972 c -0.070007,0.29757 -0.3355472,0.50787 -0.6412372,0.50787 H 3.243612 c -0.2107552,-10e-6 -0.4087872,-0.10084 -0.5327591,-0.27128 l -2.10793026,-2.89844 c -0.2139752,-0.29429 -0.1489243,-0.70623 0.1452853,-0.92021 0.29424526,-0.21392 0.70623906,-0.14879 0.92021536,0.1452 l 0.5211983,0.71669 v -4.5452 c 0,-0.36381 0.2949205,-0.65876 0.6587435,-0.65876 0.3638242,0 0.6587439,0.29489 0.6587439,0.65876 v 3.29372 h 0.1317486 v -0.65876 c 0,-0.36378 0.2949195,-0.65873 0.6587437,-0.65873 0.3638242,0 0.6587437,0.29489 0.6587437,0.65873 v 0.65876 h 0.1317487 v -0.39525 c 0,-0.36381 0.2949197,-0.65875 0.6587437,-0.65875 0.3638242,0 0.6587437,0.29488 0.6587437,0.65875 v 0.39525 h 0.1317496 c 0,-0.36382 0.2949191,-0.65876 0.6587436,-0.65876 0.3638237,0 0.6587434,0.29489 0.6587434,0.65876 z"
       inkscape:connector-curvature="0"
       style="fill:#e3e3e3;fill-opacity:1;stroke-width:0.01646858"
       sodipodi:nodetypes="csccsccccccsssccsssccsssccssc" />
  </g>
  <style
     id="style815"
     type="text/css">
	.st0{fill:#00005B;}
	.st1{fill:#9999FF;}
</style>
  <style
     id="style815-2"
     type="text/css">
	.st0{fill:#00005B;}
	.st1{fill:#9999FF;}
</style>
</svg>
