<svg id="Calque_1" data-name="Calque 1" xmlns="http://www.w3.org/2000/svg" viewBox="0 0 32 32"><defs><style>.cls-1{fill:#e3e3e3;}</style></defs><title>tvpclip_l</title><path class="cls-1" d="M1,7.88c.74-.74,5.16-.74,8.85,3.68a2.59,2.59,0,0,0,1.47-.73S12.06,2.71,15,2c1.47-.74,3,5.16,2.21,7.37,2.21,2.21-1.47,5.9-1.47,5.9L12.8,13.77,11.32,13s1.48,3,.74,3.68-4.42,0-5.16-2.21C5.42,10.09,1,9.35,1,7.88Z"/><path class="cls-1" d="M27.84,16.38a.68.68,0,0,1,.68.68v9.53a.68.68,0,0,1-.68.68h-.23V26.7a.34.34,0,0,0-.34-.34H26.14a.34.34,0,0,0-.34.34v.57H16.73V26.7a.33.33,0,0,0-.1-.24.33.33,0,0,0-.24-.1H15.25a.33.33,0,0,0-.24.1.3.3,0,0,0-.1.24v.57h-.23a.67.67,0,0,1-.48-.2.66.66,0,0,1-.2-.48V17.06a.66.66,0,0,1,.2-.48.67.67,0,0,1,.48-.2h.23V17a.33.33,0,0,0,.1.24.37.37,0,0,0,.24.1h1.14a.34.34,0,0,0,.34-.34v-.57H25.8V17a.33.33,0,0,0,.1.24.33.33,0,0,0,.24.1h1.13a.33.33,0,0,0,.24-.1.33.33,0,0,0,.1-.24v-.57ZM16.73,19.67V18.53a.34.34,0,0,0-.34-.34H15.25a.37.37,0,0,0-.24.1.33.33,0,0,0-.1.24v1.14a.34.34,0,0,0,.34.34h1.14a.33.33,0,0,0,.24-.1A.37.37,0,0,0,16.73,19.67Zm0,2.72V21.26a.33.33,0,0,0-.1-.24.33.33,0,0,0-.24-.1H15.25A.33.33,0,0,0,15,21a.3.3,0,0,0-.1.24v1.13a.34.34,0,0,0,.34.34h1.14a.33.33,0,0,0,.24-.1A.37.37,0,0,0,16.73,22.39Zm0,2.72V24a.33.33,0,0,0-.1-.24.33.33,0,0,0-.24-.1H15.25a.33.33,0,0,0-.24.1.3.3,0,0,0-.1.24v1.13a.3.3,0,0,0,.1.24.33.33,0,0,0,.24.1h1.14a.33.33,0,0,0,.24-.1A.33.33,0,0,0,16.73,25.11Zm7.71-4.31V18.08a.37.37,0,0,0-.1-.24.33.33,0,0,0-.24-.1H18.43a.3.3,0,0,0-.24.1.33.33,0,0,0-.1.24V20.8a.34.34,0,0,0,.34.34H24.1a.33.33,0,0,0,.24-.1A.33.33,0,0,0,24.44,20.8Zm0,4.77V22.84a.34.34,0,0,0-.34-.34H18.43a.33.33,0,0,0-.24.1.33.33,0,0,0-.1.24v2.73a.33.33,0,0,0,.1.24.33.33,0,0,0,.24.1H24.1a.34.34,0,0,0,.34-.34Zm3.17-5.9V18.53a.33.33,0,0,0-.1-.24.33.33,0,0,0-.24-.1H26.14a.33.33,0,0,0-.24.1.33.33,0,0,0-.1.24v1.14a.33.33,0,0,0,.1.24.3.3,0,0,0,.24.1h1.13a.3.3,0,0,0,.24-.1A.33.33,0,0,0,27.61,19.67Zm0,2.72V21.26a.34.34,0,0,0-.34-.34H26.14a.34.34,0,0,0-.34.34v1.13a.33.33,0,0,0,.1.24.3.3,0,0,0,.24.1h1.13a.3.3,0,0,0,.24-.1A.33.33,0,0,0,27.61,22.39Zm0,2.72V24a.34.34,0,0,0-.34-.34H26.14a.34.34,0,0,0-.34.34v1.13a.34.34,0,0,0,.34.34h1.13a.34.34,0,0,0,.34-.34Z"/></svg>