<svg id="Calque_1" data-name="Calque 1" xmlns="http://www.w3.org/2000/svg" viewBox="0 0 32 32"><defs><style>.cls-1{fill:#e3e3e3;}</style></defs><title>unchained2_l</title><path class="cls-1" d="M13.51,28.85l4.66-4.66a1.69,1.69,0,0,0,0-2.39h0a1.7,1.7,0,0,0-2.4,0l-4.71,4.71a4,4,0,0,1-5.38.39,3.93,3.93,0,0,1-.29-5.81l4.84-4.84a1.69,1.69,0,0,0,0-2.39h0a1.7,1.7,0,0,0-2.4,0L3,18.69a7.31,7.31,0,0,0,.35,10.67A7.48,7.48,0,0,0,13.51,28.85Z"/><path class="cls-1" d="M18.2,3.43,13.54,8.09a1.69,1.69,0,0,0,0,2.39h0a1.68,1.68,0,0,0,2.4,0l4.71-4.71A4,4,0,0,1,26,5.39a3.93,3.93,0,0,1,.29,5.81L21.49,16a1.68,1.68,0,0,0,0,2.4h0a1.69,1.69,0,0,0,2.39,0l4.84-4.84a7.32,7.32,0,0,0-.36-10.67A7.48,7.48,0,0,0,18.2,3.43Z"/></svg>