<svg id="Calque_1" data-name="Calque 1" xmlns="http://www.w3.org/2000/svg" viewBox="0 0 32 32"><defs><style>.cls-1{fill:#e3e3e3;}</style></defs><title>unlink_l</title><path class="cls-1" d="M2.77,27.91A2,2,0,0,1,1.35,24.5L24.57,1.28A2,2,0,0,1,27.4,4.11L4.18,27.33A2,2,0,0,1,2.77,27.91Z"/><path class="cls-1" d="M14.41,21.06a7.88,7.88,0,0,0,7.88-7.88,9.45,9.45,0,0,0-.07-1.07L13.37,21A5.92,5.92,0,0,0,14.41,21.06Z"/><path class="cls-1" d="M13.47,8.59A5.78,5.78,0,0,0,7.7,14.36a6.54,6.54,0,0,0,.07.89l6.5-6.49A2,2,0,0,0,13.47,8.59Z"/><path class="cls-1" d="M29.59,10.15a2,2,0,0,0-2,2A12.36,12.36,0,0,1,15.24,24.5a9.39,9.39,0,0,1-4.35-1.06L8,26.36a13.39,13.39,0,0,0,7.27,2.14A16.36,16.36,0,0,0,31.59,12.15,2,2,0,0,0,29.59,10.15Z"/><path class="cls-1" d="M6,17.05a9.71,9.71,0,0,1-.22-2,7.19,7.19,0,0,1,7.19-7.19,5.38,5.38,0,0,1,1.89.36l3-3a9.28,9.28,0,0,0-4.87-1.38A11.2,11.2,0,0,0,1.75,15a13.35,13.35,0,0,0,1,5.21Z"/><path class="cls-1" d="M2.77,27.91A2,2,0,0,1,1.35,24.5L24.57,1.28A2,2,0,0,1,27.4,4.11L4.18,27.33A2,2,0,0,1,2.77,27.91Z"/></svg>