<?xml version="1.0" encoding="UTF-8" standalone="no"?>
<svg
   xmlns:dc="http://purl.org/dc/elements/1.1/"
   xmlns:cc="http://creativecommons.org/ns#"
   xmlns:rdf="http://www.w3.org/1999/02/22-rdf-syntax-ns#"
   xmlns:svg="http://www.w3.org/2000/svg"
   xmlns="http://www.w3.org/2000/svg"
   xmlns:sodipodi="http://sodipodi.sourceforge.net/DTD/sodipodi-0.dtd"
   xmlns:inkscape="http://www.inkscape.org/namespaces/inkscape"
   id="Calque_1"
   data-name="Calque 1"
   viewBox="0 0 32 32"
   version="1.1"
   sodipodi:docname="updatemagic_l.svg"
   inkscape:version="0.92.4 (5da689c313, 2019-01-14)"
   inkscape:export-filename="C:\DEV_SRC\RxUI\Icons\shared\18w\w18_updatemagic_l.png"
   inkscape:export-xdpi="54"
   inkscape:export-ydpi="54">
  <metadata
     id="metadata13">
    <rdf:RDF>
      <cc:Work
         rdf:about="">
        <dc:format>image/svg+xml</dc:format>
        <dc:type
           rdf:resource="http://purl.org/dc/dcmitype/StillImage" />
        <dc:title>update_l</dc:title>
      </cc:Work>
    </rdf:RDF>
  </metadata>
  <sodipodi:namedview
     pagecolor="#ffffff"
     bordercolor="#666666"
     borderopacity="1"
     objecttolerance="10"
     gridtolerance="10"
     guidetolerance="10"
     inkscape:pageopacity="0"
     inkscape:pageshadow="2"
     inkscape:window-width="1920"
     inkscape:window-height="1121"
     id="namedview11"
     showgrid="false"
     inkscape:zoom="3.6875"
     inkscape:cx="-12.750479"
     inkscape:cy="10.41444"
     inkscape:window-x="-9"
     inkscape:window-y="-9"
     inkscape:window-maximized="1"
     inkscape:current-layer="Calque_1" />
  <defs
     id="defs4">
    <style
       id="style2">.cls-1{fill:#e3e3e3;}</style>
    <mask
       maskUnits="userSpaceOnUse"
       id="mask855">
      <g
         id="g861"
         style="display:inline">
        <rect
           inkscape:label="updaterect"
           y="-0.81355935"
           x="-0.61016947"
           height="33.491524"
           width="33.559322"
           id="rect857"
           style="fill:#ffffff;fill-opacity:1" />
        <path
           sodipodi:type="inkscape:offset"
           inkscape:radius="0.62505388"
           inkscape:original="M 9.4433594 5.8613281 L 8.4140625 7.921875 L 6.3535156 8.9511719 L 8.4140625 9.9804688 L 9.4433594 12.039062 L 10.472656 9.9804688 L 12.53125 8.9511719 L 10.472656 7.921875 L 9.4433594 5.8613281 z M 15.001953 5.8613281 L 14.384766 7.0976562 L 13.148438 7.7148438 L 14.384766 8.3320312 L 15.001953 9.5683594 L 15.619141 8.3320312 L 16.855469 7.7148438 L 15.619141 7.0976562 L 15.001953 5.8613281 z M 21.609375 5.8613281 C 21.293187 5.8613281 20.977619 5.9829299 20.736328 6.2246094 L 6.7167969 20.244141 C 6.234212 20.726725 6.234212 21.508036 6.7167969 21.990234 L 9.9921875 25.265625 C 10.233479 25.506917 10.549431 25.628906 10.865234 25.628906 C 11.181422 25.628906 11.496989 25.506917 11.738281 25.265625 L 25.757812 11.246094 C 26.240396 10.76428 26.240397 9.9821973 25.757812 9.5 L 22.482422 6.2246094 C 22.241517 5.9829299 21.925564 5.8613281 21.609375 5.8613281 z M 21.609375 8.4082031 L 23.574219 10.373047 L 20.230469 13.716797 L 18.265625 11.751953 L 21.609375 8.4082031 z M 23.03125 16.980469 L 22.001953 19.039062 L 19.943359 20.068359 L 22.001953 21.099609 L 23.03125 23.158203 L 24.060547 21.099609 L 26.121094 20.068359 L 24.060547 19.039062 L 23.03125 16.980469 z "
           style="display:inline;fill:#090000;fill-opacity:1;stroke-width:0.03860671"
           id="path859"
           d="m 9.4472656,5.2363281 a 0.62511639,0.62511639 0 0 0 -0.5625,0.3457031 l -0.9375,1.8730469 -1.8730468,0.9375 a 0.62511639,0.62511639 0 0 0 0,1.1171875 l 1.8730468,0.9375004 0.9375,1.871093 a 0.62511639,0.62511639 0 0 0 1.1171874,0 l 0.9375,-1.871093 1.871094,-0.9375004 a 0.62511639,0.62511639 0 0 0 0,-1.1171875 l -1.871094,-0.9375 -0.9375,-1.8730469 A 0.62511639,0.62511639 0 0 0 9.4472656,5.2363281 Z m 5.5585934,0 a 0.62511639,0.62511639 0 0 0 -0.5625,0.3457031 L 13.917969,6.6308594 12.869141,7.15625 a 0.62511639,0.62511639 0 0 0 0,1.1171875 l 1.048828,0.5253906 0.52539,1.0488281 a 0.62511639,0.62511639 0 0 0 1.117188,0 l 0.525391,-1.0488281 1.048828,-0.5253906 a 0.62511639,0.62511639 0 0 0 0,-1.1171875 L 16.085938,6.6308594 15.560547,5.5820312 A 0.62511639,0.62511639 0 0 0 15.005859,5.2363281 Z m 6.603516,0 c -0.476446,0 -0.954707,0.1865498 -1.314453,0.546875 L 6.2753906,19.802734 c -0.7211092,0.721108 -0.7213955,1.908089 0,2.628907 l 3.2753906,3.27539 c 0.3597206,0.359722 0.8376858,0.546875 1.3144528,0.546875 0.476957,0 0.954968,-0.187389 1.314454,-0.546875 L 26.199219,11.6875 c 0.721915,-0.720764 0.721632,-1.9078536 0,-2.6289062 L 22.925781,5.7832031 C 22.565973,5.4222385 22.085822,5.2363281 21.609375,5.2363281 Z m 0,4.0546875 1.082031,1.0820314 -2.460937,2.460937 -1.082031,-1.082031 z m 1.425781,7.0644534 a 0.62511639,0.62511639 0 0 0 -0.5625,0.345703 l -0.9375,1.871094 -1.871094,0.9375 a 0.62511639,0.62511639 0 0 0 0,1.117187 l 1.871094,0.9375 0.9375,1.873047 a 0.62511639,0.62511639 0 0 0 1.117188,0 l 0.9375,-1.873047 1.873047,-0.9375 a 0.62511639,0.62511639 0 0 0 0,-1.117187 l -1.873047,-0.9375 -0.9375,-1.871094 a 0.62511639,0.62511639 0 0 0 -0.554688,-0.345703 z" />
      </g>
    </mask>
  </defs>
  <title
     id="title6">update_l</title>
  <g
     id="g865"
     style="fill:#e3e3e3;fill-opacity:1">
    <path
       mask="url(#mask855)"
       style="fill:#e3e3e3;fill-opacity:1;stroke-width:1.20064282"
       inkscape:connector-curvature="0"
       id="path8"
       d="m 15.941696,26.425203 a 10.565657,10.565657 0 0 0 10.301515,-8.128353 0.64834714,0.64834714 0 0 1 0.264141,-0.396212 0.79242428,0.79242428 0 0 1 0.432231,-0.120064 h 2.953582 a 0.67235999,0.67235999 0 0 1 0.564303,0.264141 0.69637286,0.69637286 0 0 1 0.156083,0.576308 14.707875,14.707875 0 0 1 -2.773484,6.195317 15.272177,15.272177 0 0 1 -5.210791,4.370341 14.407715,14.407715 0 0 1 -6.711594,1.596854 14.815933,14.815933 0 0 1 -11.3820941,-5.234801 l 0.2401285,4.934641 A 0.62433429,0.62433429 0 0 1 4.6316392,31.047677 0.78041785,0.78041785 0 0 1 4.0553308,31.263792 H 1.2458265 A 0.74439856,0.74439856 0 0 1 0.52544072,30.543407 V 18.536979 A 0.69637286,0.69637286 0 0 1 0.74155649,18.020702 0.64834714,0.64834714 0 0 1 1.2458265,17.780574 H 13.252255 a 0.69637286,0.69637286 0 0 1 0.720385,0.720385 v 2.821511 a 0.68436642,0.68436642 0 0 1 -0.204109,0.516276 0.69637286,0.69637286 0 0 1 -0.516276,0.216117 L 7.1169701,21.754701 a 10.409573,10.409573 0 0 0 3.7580119,3.421834 10.241483,10.241483 0 0 0 5.066714,1.248668 z M 27.083662,1.2117024 a 0.76841143,0.76841143 0 0 1 0.204109,-0.56430218 0.69637286,0.69637286 0 0 1 0.516276,-0.21611563 h 2.833517 A 0.74439856,0.74439856 0 0 1 31.357949,1.1516703 V 13.158099 a 0.69637286,0.69637286 0 0 1 -0.216115,0.516276 0.64834714,0.64834714 0 0 1 -0.50427,0.204109 H 18.631136 A 0.69637286,0.69637286 0 0 1 17.91075,13.158099 v -2.809504 a 0.68436642,0.68436642 0 0 1 0.204109,-0.5162769 0.78041785,0.78041785 0 0 1 0.576309,-0.216115 l 6.075253,0.312167 A 10.541644,10.541644 0 0 0 15.977714,5.2218496 10.565657,10.565657 0 0 0 5.6761987,13.350202 0.64834714,0.64834714 0 0 1 5.4120572,13.746414 0.81643713,0.81643713 0 0 1 4.9558129,13.890491 H 1.9662122 A 0.66035357,0.66035357 0 0 1 1.40191,13.626349 0.69637286,0.69637286 0 0 1 1.2458265,13.050041 14.707875,14.707875 0 0 1 4.0193114,6.8547238 15.272177,15.272177 0 0 1 9.2301016,2.4843838 14.515772,14.515772 0 0 1 15.941696,0.88752882 14.815933,14.815933 0 0 1 27.32379,6.1223316 Z"
       class="cls-1" />
    <path
       style="display:inline;fill:#e3e3e3;fill-opacity:1;stroke-width:0.03860671"
       inkscape:connector-curvature="0"
       d="M 15.001924,9.568302 15.619632,8.3328873 16.855048,7.7151805 15.619632,7.0974726 15.001924,5.8620578 14.384217,7.0974726 13.148802,7.7151805 14.384217,8.3328873 Z M 9.4425573,12.039133 10.471812,9.9802364 12.531095,8.9505952 10.471812,7.9209539 9.4425573,5.8620578 8.4133025,7.9209539 6.3540199,8.9505952 8.4133025,9.9802364 Z m 13.5895647,4.94166 -1.029255,2.058895 -2.059283,1.029642 2.059283,1.029641 1.029255,2.058896 1.029255,-2.058896 2.059282,-1.029641 -2.059282,-1.029642 z M 25.758529,9.4999696 22.482748,6.22419 C 22.241843,5.9825105 21.925653,5.8620578 21.609464,5.8620578 c -0.316188,0 -0.632378,0.1204527 -0.873669,0.3621322 L 6.7161521,20.243832 c -0.4825849,0.482584 -0.4825849,1.264756 0,1.746954 l 3.2757798,3.27578 c 0.2412911,0.241292 0.5574811,0.361746 0.8732841,0.361746 0.316188,0 0.632376,-0.120454 0.873668,-0.361746 L 25.758529,11.246537 c 0.482584,-0.481814 0.482584,-1.2643701 0,-1.7465674 z m -5.527325,4.2170114 -1.965467,-1.965468 3.343343,-3.3433414 1.965467,1.9654664 z"
       id="path830" />
  </g>
</svg>
