<?xml version="1.0" encoding="UTF-8" standalone="no"?>
<!-- Created with Inkscape (http://www.inkscape.org/) -->

<svg
   xmlns:dc="http://purl.org/dc/elements/1.1/"
   xmlns:cc="http://creativecommons.org/ns#"
   xmlns:rdf="http://www.w3.org/1999/02/22-rdf-syntax-ns#"
   xmlns:svg="http://www.w3.org/2000/svg"
   xmlns="http://www.w3.org/2000/svg"
   xmlns:sodipodi="http://sodipodi.sourceforge.net/DTD/sodipodi-0.dtd"
   xmlns:inkscape="http://www.inkscape.org/namespaces/inkscape"
   width="32"
   height="32"
   viewBox="0 0 8.4666666 8.4666666"
   version="1.1"
   id="svg8"
   inkscape:version="0.92.5 (2060ec1f9f, 2020-04-08)"
   sodipodi:docname="versionning-git-fetch-reload_sl.svg">
  <defs
     id="defs2">
    <style
       id="style1399">.cls-1{fill:#e3e3e3;}</style>
    <style
       id="style857">.cls-1{fill:#e52120;}.cls-1,.cls-2,.cls-3,.cls-4,.cls-5{stroke:#000;stroke-miterlimit:10;stroke-width:1.2px;}.cls-2{fill:#6dbc88;}.cls-3{fill:#701034;}.cls-4{fill:#51aae0;}.cls-5{fill:none;}</style>
    <style
       id="style1399-59">.cls-1{fill:#e3e3e3;}</style>
    <style
       id="style1399-4">.cls-1{fill:#e3e3e3;}</style>
    <style
       id="style1399-5">.cls-1{fill:#e3e3e3;}</style>
    <style
       id="style1399-7">.cls-1{fill:#e3e3e3;}</style>
    <style
       id="style1399-85">.cls-1{fill:#e3e3e3;}</style>
    <style
       id="style1399-4-6">.cls-1{fill:#e3e3e3;}</style>
    <style
       id="style1399-8">.cls-1{fill:#e3e3e3;}</style>
    <style
       id="style1399-4-5">.cls-1{fill:#e3e3e3;}</style>
  </defs>
  <sodipodi:namedview
     id="base"
     pagecolor="#ffffff"
     bordercolor="#666666"
     borderopacity="1.0"
     inkscape:pageopacity="0.0"
     inkscape:pageshadow="2"
     inkscape:zoom="4.0000002"
     inkscape:cx="-4.4604961"
     inkscape:cy="9.8740668"
     inkscape:document-units="mm"
     inkscape:current-layer="svg8"
     showgrid="false"
     units="px"
     inkscape:window-width="1237"
     inkscape:window-height="1136"
     inkscape:window-x="0"
     inkscape:window-y="27"
     inkscape:window-maximized="0"
     inkscape:snap-bbox="true"
     inkscape:snap-nodes="false"
     inkscape:bbox-paths="true"
     inkscape:bbox-nodes="true"
     inkscape:snap-bbox-midpoints="true"
     inkscape:snap-bbox-edge-midpoints="true">
    <sodipodi:guide
       position="8.4666666,0"
       orientation="-32,0"
       id="guide854"
       inkscape:locked="false" />
    <sodipodi:guide
       position="8.4666666,8.4666666"
       orientation="0,-32"
       id="guide856"
       inkscape:locked="false" />
    <sodipodi:guide
       position="0,8.4666814"
       orientation="32,0"
       id="guide858"
       inkscape:locked="false" />
  </sodipodi:namedview>
  <metadata
     id="metadata5">
    <rdf:RDF>
      <cc:Work
         rdf:about="">
        <dc:format>image/svg+xml</dc:format>
        <dc:type
           rdf:resource="http://purl.org/dc/dcmitype/StillImage" />
        <dc:title></dc:title>
      </cc:Work>
    </rdf:RDF>
  </metadata>
  <style
     id="style815"
     type="text/css">
	.st0{fill:#00005B;}
	.st1{fill:#9999FF;}
</style>
  <path
     style="fill:#8cffef;fill-opacity:1;stroke-width:0.04743152"
     d="M 2.3320312 1.546875 C 1.0750962 1.546875 0.056640625 2.5653289 0.056640625 3.8222656 L 0.056640625 20.519531 C 0.056640625 20.929984 0.17518833 21.309866 0.36523438 21.642578 C 1.0194694 20.575052 1.912049 19.67293 2.9667969 19.001953 L 2.9667969 3.8242188 C 2.9667969 3.0028907 3.1849792 2.22662 3.5644531 1.546875 L 2.3320312 1.546875 z M 7.6992188 1.546875 C 6.4422836 1.546875 5.4238293 2.5653289 5.4238281 3.8222656 L 5.4238281 17.957031 C 6.0370736 17.809011 6.6734502 17.724609 7.3300781 17.724609 C 7.6589236 17.724609 7.9791261 17.75418 8.2929688 17.800781 L 8.2929688 3.8242188 C 8.2929688 3.0028907 8.5111495 2.22662 8.890625 1.546875 L 7.6992188 1.546875 z M 13.025391 1.546875 C 11.768456 1.546875 10.750001 2.5653289 10.75 3.8222656 L 10.75 18.625 C 11.00161 18.753753 11.253015 18.884652 11.494141 19.03125 C 12.240206 18.598014 13.110186 18.262844 13.841797 18.566406 C 14.757527 18.946363 15.501953 19.947672 15.501953 21.052734 L 15.501953 22.796875 L 29.722656 22.796875 C 30.979593 22.796875 32.000001 21.776466 32 20.519531 L 32 3.8222656 C 32 2.5653289 30.979592 1.546875 29.722656 1.546875 L 13.025391 1.546875 z M 22.369141 5.1933594 C 22.411698 5.1883326 22.454295 5.1927947 22.498047 5.2050781 L 24.167969 5.6875 C 24.34298 5.7367208 24.43985 5.9226437 24.390625 6.0976562 L 20.658203 18.953125 C 20.606246 19.128136 20.425014 19.231645 20.25 19.179688 L 18.582031 18.695312 C 18.40702 18.646088 18.31015 18.462121 18.359375 18.287109 L 22.091797 5.4296875 C 22.128723 5.2984283 22.241473 5.2084866 22.369141 5.1933594 z M 25.847656 8.1679688 C 25.931743 8.1655767 26.014447 8.1943513 26.080078 8.2558594 L 30.021484 11.955078 C 30.160949 12.083601 30.160949 12.305069 30.021484 12.433594 L 26.080078 16.126953 C 25.946083 16.249988 25.740241 16.245324 25.617188 16.111328 L 24.427734 14.841797 C 24.299219 14.707805 24.309784 14.494152 24.449219 14.371094 L 26.927734 12.191406 L 24.449219 10.009766 C 24.309747 9.8867118 24.301934 9.6730566 24.427734 9.5390625 L 25.617188 8.2714844 C 25.680083 8.2058604 25.763569 8.1703589 25.847656 8.1679688 z M 16.90625 8.1699219 C 16.990337 8.172656 17.073239 8.2078136 17.134766 8.2734375 L 18.324219 9.5410156 C 18.452734 9.6750112 18.442169 9.8886645 18.302734 10.011719 L 15.824219 12.191406 L 18.302734 14.371094 C 18.442207 14.494151 18.450035 14.707804 18.324219 14.841797 L 17.134766 16.111328 C 17.011712 16.245324 16.803913 16.248845 16.669922 16.123047 L 12.728516 12.429688 C 12.589055 12.301165 12.589055 12.079695 12.728516 11.951172 L 16.669922 8.2597656 C 16.736918 8.1968667 16.822162 8.1671866 16.90625 8.1699219 z "
     transform="scale(0.26458333)"
     id="path1002" />
  <path
     style="fill:#8cffef;fill-opacity:1;stroke-width:0.00646333"
     inkscape:connector-curvature="0"
     d="M 2.6818268,6.0570408 C 2.4797701,5.8678443 2.2175528,5.7641336 1.9393709,5.7643801 1.4387342,5.7647593 1.0065312,6.1080866 0.88719868,6.5842519 c -0.008687,0.03466 -0.0395685,0.059142 -0.0753043,0.059142 H 0.44152611 c -0.0484621,0 -0.0852772,-0.043996 -0.0763126,-0.091625 0.1398471,-0.7426377 0.79186809,-1.3044557 1.57513989,-1.3044557 0.4294754,0 0.8194923,0.1689277 1.1072658,0.4439361 L 3.2784569,5.4604074 c 0.097719,-0.097719 0.2648028,-0.028517 0.2648028,0.1096909 v 0.8664695 c 0,0.085672 -0.069449,0.1551167 -0.15512,0.1551167 H 2.5216719 c -0.138199,0 -0.2074083,-0.1670809 -0.1096892,-0.2648114 z M 0.49256706,7.1087516 H 1.3590349 c 0.1381989,0 0.2074083,0.1670847 0.1096891,0.2648077 L 1.1988799,7.6434029 c 0.2020567,0.1892041 0.4642935,0.292911 0.7424818,0.2926607 0.5003782,-3.792e-4 0.9327557,-0.3434865 1.0521465,-0.819868 0.00869,-0.03466 0.039568,-0.059138 0.075304,-0.059138 h 0.3703746 c 0.048462,0 0.085277,0.043996 0.076312,0.091625 C 3.3756461,7.8913052 2.7236252,8.453127 1.9403534,8.453127 1.5108779,8.453127 1.1208611,8.2841994 0.83308769,8.0091909 L 0.60224981,8.2400287 C 0.5045307,8.3377517 0.33744709,8.2685417 0.33744709,8.1303378 V 7.2638722 c 0,-0.085672 0.0694485,-0.1551206 0.15511997,-0.1551206 z"
     id="path1058" />
</svg>
