<?xml version="1.0" encoding="UTF-8" standalone="no"?>
<!-- Created with Inkscape (http://www.inkscape.org/) -->

<svg
   xmlns:dc="http://purl.org/dc/elements/1.1/"
   xmlns:cc="http://creativecommons.org/ns#"
   xmlns:rdf="http://www.w3.org/1999/02/22-rdf-syntax-ns#"
   xmlns:svg="http://www.w3.org/2000/svg"
   xmlns="http://www.w3.org/2000/svg"
   xmlns:sodipodi="http://sodipodi.sourceforge.net/DTD/sodipodi-0.dtd"
   xmlns:inkscape="http://www.inkscape.org/namespaces/inkscape"
   width="32"
   height="32"
   viewBox="0 0 8.4666666 8.4666666"
   version="1.1"
   id="svg8"
   inkscape:version="0.92.5 (2060ec1f9f, 2020-04-08)"
   sodipodi:docname="video-codec_bl.svg">
  <defs
     id="defs2">
    <style
       id="style1399">.cls-1{fill:#e3e3e3;}</style>
    <style
       id="style1399-4">.cls-1{fill:#e3e3e3;}</style>
  </defs>
  <sodipodi:namedview
     id="base"
     pagecolor="#ffffff"
     bordercolor="#666666"
     borderopacity="1.0"
     inkscape:pageopacity="0.0"
     inkscape:pageshadow="2"
     inkscape:zoom="16"
     inkscape:cx="2.4643351"
     inkscape:cy="22.094469"
     inkscape:document-units="mm"
     inkscape:current-layer="svg8"
     showgrid="false"
     units="px"
     inkscape:window-width="1920"
     inkscape:window-height="1043"
     inkscape:window-x="0"
     inkscape:window-y="120"
     inkscape:window-maximized="1">
    <sodipodi:guide
       position="8.4666666,0"
       orientation="-32,0"
       id="guide854"
       inkscape:locked="false" />
    <sodipodi:guide
       position="9.9390855,8.4423761"
       orientation="0,-32"
       id="guide856"
       inkscape:locked="false" />
    <sodipodi:guide
       position="0,8.4666814"
       orientation="32,0"
       id="guide858"
       inkscape:locked="false" />
  </sodipodi:namedview>
  <metadata
     id="metadata5">
    <rdf:RDF>
      <cc:Work
         rdf:about="">
        <dc:format>image/svg+xml</dc:format>
        <dc:type
           rdf:resource="http://purl.org/dc/dcmitype/StillImage" />
        <dc:title></dc:title>
      </cc:Work>
    </rdf:RDF>
  </metadata>
  <path
     style="opacity:1;fill:#e3e3e3;fill-opacity:1;stroke:none;stroke-width:3.25398445;stroke-linecap:round;stroke-linejoin:round;stroke-miterlimit:4;stroke-dasharray:none;stroke-dashoffset:10.3937006;stroke-opacity:1"
     d="M 1.578125 4.0585938 C 0.7508673 4.0585938 0.0859375 4.723522 0.0859375 5.5507812 L 0.0859375 26.449219 C 0.0859375 27.276478 0.7508673 27.941406 1.578125 27.941406 L 2.0761719 27.941406 L 2.0761719 26.699219 C 2.0761719 26.288698 2.4117458 25.951172 2.8222656 25.951172 L 5.3105469 25.951172 C 5.7210656 25.951172 6.0566406 26.288705 6.0566406 26.699219 L 6.0566406 27.941406 L 25.960938 27.941406 L 25.960938 26.699219 C 25.960938 26.288698 26.296518 25.951172 26.707031 25.951172 L 29.195312 25.951172 C 29.60583 25.951172 29.941406 26.288705 29.941406 26.699219 L 29.941406 27.941406 L 30.439453 27.941406 C 31.266709 27.941406 31.931641 27.276478 31.931641 26.449219 L 31.931641 5.5507812 C 31.931641 4.723522 31.266709 4.0585937 30.439453 4.0585938 L 29.941406 4.0585938 L 29.941406 5.3007812 C 29.941406 5.7113022 29.605822 6.0488281 29.195312 6.0488281 L 26.707031 6.0488281 C 26.29651 6.0488281 25.960937 5.7112946 25.960938 5.3007812 L 25.960938 4.0585938 L 6.0566406 4.0585938 L 6.0566406 5.3007812 C 6.0566406 5.7113022 5.7210659 6.0488281 5.3105469 6.0488281 L 2.8222656 6.0488281 C 2.4117462 6.0488281 2.0761719 5.7112946 2.0761719 5.3007812 L 2.0761719 4.0585938 L 1.578125 4.0585938 z M 9.7890625 7.0429688 L 22.228516 7.0429688 C 22.639035 7.0429688 22.974609 7.3785491 22.974609 7.7890625 L 22.974609 24.210938 C 22.974609 24.621458 22.639035 24.957031 22.228516 24.957031 L 9.7890625 24.957031 C 9.3785434 24.957031 9.0429688 24.621451 9.0429688 24.210938 L 9.0429688 7.7890625 C 9.0429688 7.3785416 9.3785427 7.0429688 9.7890625 7.0429688 z M 2.8222656 8.0390625 L 5.3105469 8.0390625 C 5.7210656 8.0390625 6.0566406 8.3746429 6.0566406 8.7851562 L 6.0566406 11.273438 C 6.0566406 11.683958 5.7210659 12.019531 5.3105469 12.019531 L 2.8222656 12.019531 C 2.4117462 12.019531 2.0761719 11.683951 2.0761719 11.273438 L 2.0761719 8.7851562 C 2.0761719 8.3746353 2.4117458 8.0390625 2.8222656 8.0390625 z M 26.707031 8.0390625 L 29.195312 8.0390625 C 29.60583 8.0390625 29.941406 8.3746429 29.941406 8.7851562 L 29.941406 11.273438 C 29.941406 11.683958 29.605822 12.019531 29.195312 12.019531 L 26.707031 12.019531 C 26.29651 12.019531 25.960938 11.683951 25.960938 11.273438 L 25.960938 8.7851562 C 25.960938 8.3746353 26.296518 8.0390625 26.707031 8.0390625 z M 16.101562 8.4238281 C 15.637585 8.4238281 15.242752 8.5080345 14.917969 8.6757812 C 14.596754 8.843528 14.334296 9.0843603 14.130859 9.3984375 C 13.93099 9.7125125 13.786155 10.093267 13.693359 10.542969 C 13.604125 10.989101 13.558594 11.489427 13.558594 12.039062 C 13.558594 12.595835 13.594635 13.094546 13.666016 13.537109 C 13.740971 13.976103 13.868761 14.349311 14.050781 14.65625 C 14.232803 14.959621 14.478552 15.193246 14.789062 15.357422 C 15.09957 15.518029 15.492111 15.597656 15.966797 15.597656 C 16.434343 15.597656 16.829176 15.51345 17.150391 15.345703 C 17.475176 15.177957 17.737633 14.939077 17.9375 14.625 C 18.140939 14.310923 18.287726 13.928555 18.376953 13.482422 C 18.466188 13.03629 18.511719 12.537579 18.511719 11.984375 C 18.511717 11.427602 18.473709 10.929229 18.402344 10.490234 C 18.330965 10.047669 18.20546 9.674464 18.023438 9.3710938 C 17.841416 9.0641549 17.593372 8.8305291 17.279297 8.6699219 C 16.968789 8.5057449 16.576248 8.4238289 16.101562 8.4238281 z M 11.378906 8.5410156 C 11.184661 8.5410156 11.029297 8.69638 11.029297 8.890625 L 11.029297 15.136719 C 11.029297 15.330964 11.184661 15.488281 11.378906 15.488281 L 12.037109 15.488281 C 12.231354 15.488281 12.388672 15.330964 12.388672 15.136719 L 12.388672 8.890625 C 12.388672 8.69638 12.231358 8.5410156 12.037109 8.5410156 L 11.378906 8.5410156 z M 20.003906 8.5410156 C 19.809661 8.5410156 19.652344 8.69638 19.652344 8.890625 L 19.652344 15.136719 C 19.652344 15.330964 19.809657 15.488281 20.003906 15.488281 L 20.660156 15.488281 C 20.854401 15.488281 21.011719 15.330964 21.011719 15.136719 L 21.011719 8.890625 C 21.011719 8.69638 20.854401 8.5410156 20.660156 8.5410156 L 20.003906 8.5410156 z M 16.041016 9.5390625 L 16.042969 9.5390625 C 16.164307 9.5390625 16.275062 9.5538304 16.375 9.5859375 C 16.474923 9.6180635 16.564058 9.6734334 16.642578 9.7519531 C 16.72109 9.8269049 16.786299 9.9281556 16.839844 10.056641 C 16.896956 10.185126 16.94479 10.341752 16.980469 10.527344 C 17.019738 10.712934 17.046614 10.934097 17.064453 11.1875 C 17.082217 11.437334 17.091797 11.726334 17.091797 12.054688 C 17.091795 12.325937 17.084675 12.573977 17.070312 12.798828 C 17.059616 13.02368 17.035698 13.223891 17 13.402344 C 16.967874 13.580794 16.924627 13.739375 16.871094 13.875 C 16.817557 14.010625 16.750064 14.121714 16.667969 14.210938 C 16.589442 14.300165 16.497691 14.369618 16.390625 14.416016 C 16.283551 14.458841 16.160677 14.480469 16.021484 14.480469 C 15.835891 14.480469 15.676974 14.442143 15.544922 14.367188 C 15.412855 14.288666 15.304404 14.154006 15.21875 13.964844 C 15.136665 13.772113 15.076363 13.514574 15.037109 13.193359 C 14.99784 12.868575 14.976563 12.46128 14.976562 11.96875 C 14.976562 11.565446 14.993329 11.211573 15.025391 10.908203 C 15.057517 10.604832 15.112879 10.351874 15.191406 10.148438 C 15.27349 9.9450044 15.381954 9.7932935 15.517578 9.6933594 C 15.656774 9.589857 15.830444 9.5390625 16.041016 9.5390625 z M 2.8222656 14.009766 L 5.3105469 14.009766 C 5.7210656 14.009766 6.0566406 14.34535 6.0566406 14.755859 L 6.0566406 17.244141 C 6.0566406 17.654662 5.7210659 17.990234 5.3105469 17.990234 L 2.8222656 17.990234 C 2.4117462 17.990234 2.0761719 17.654654 2.0761719 17.244141 L 2.0761719 14.755859 C 2.0761719 14.345342 2.4117458 14.009766 2.8222656 14.009766 z M 26.707031 14.009766 L 29.195312 14.009766 C 29.60583 14.009766 29.941406 14.34535 29.941406 14.755859 L 29.941406 17.244141 C 29.941406 17.654662 29.605822 17.990234 29.195312 17.990234 L 26.707031 17.990234 C 26.29651 17.990234 25.960938 17.654654 25.960938 17.244141 L 25.960938 14.755859 C 25.960938 14.345342 26.296518 14.009766 26.707031 14.009766 z M 19.095703 16.527344 C 18.631726 16.527344 18.236892 16.61155 17.912109 16.779297 C 17.590895 16.947044 17.328436 17.187876 17.125 17.501953 C 16.925135 17.816032 16.778341 18.196783 16.685547 18.646484 C 16.596312 19.092616 16.552734 19.592944 16.552734 20.142578 C 16.552734 20.699352 16.588784 21.198062 16.660156 21.640625 C 16.735112 22.07962 16.862898 22.452826 17.044922 22.759766 C 17.22694 23.063133 17.474648 23.29676 17.785156 23.460938 C 18.095663 23.621545 18.488207 23.701172 18.962891 23.701172 C 19.430437 23.701172 19.823314 23.616966 20.144531 23.449219 C 20.469317 23.281472 20.731774 23.04064 20.931641 22.726562 C 21.135074 22.412484 21.281866 22.034023 21.371094 21.587891 C 21.460313 21.141758 21.503906 20.641094 21.503906 20.087891 C 21.503904 19.531117 21.46981 19.032744 21.398438 18.59375 C 21.327053 18.151187 21.199602 17.777979 21.017578 17.474609 C 20.835556 17.16767 20.587514 16.934046 20.273438 16.773438 C 19.96293 16.609261 19.570389 16.527344 19.095703 16.527344 z M 11.363281 16.640625 C 11.169036 16.640625 11.011719 16.795989 11.011719 16.990234 L 11.011719 23.238281 C 11.011719 23.432526 11.169032 23.587891 11.363281 23.587891 L 12.019531 23.587891 C 12.213776 23.587891 12.371094 23.432526 12.371094 23.238281 L 12.371094 16.990234 C 12.371094 16.795989 12.213776 16.640625 12.019531 16.640625 L 11.363281 16.640625 z M 14.375 16.640625 C 14.180755 16.640625 14.023437 16.795989 14.023438 16.990234 L 14.023438 23.238281 C 14.023438 23.432526 14.180751 23.587891 14.375 23.587891 L 15.03125 23.587891 C 15.225491 23.587891 15.382812 23.432526 15.382812 23.238281 L 15.382812 16.990234 C 15.382812 16.795989 15.225495 16.640625 15.03125 16.640625 L 14.375 16.640625 z M 19.037109 17.640625 C 19.158447 17.640625 19.269206 17.657346 19.369141 17.689453 C 19.469083 17.721579 19.558199 17.776949 19.636719 17.855469 C 19.715246 17.930417 19.780455 18.031671 19.833984 18.160156 C 19.891097 18.288641 19.936955 18.445267 19.972656 18.630859 C 20.011926 18.816449 20.040735 19.037612 20.058594 19.291016 C 20.076358 19.54085 20.085938 19.82985 20.085938 20.158203 C 20.085938 20.429452 20.078815 20.677493 20.064453 20.902344 C 20.053757 21.127195 20.029831 21.327407 19.994141 21.505859 C 19.962015 21.684314 19.920725 21.840939 19.867188 21.976562 C 19.81365 22.112187 19.746139 22.225226 19.664062 22.314453 C 19.585535 22.40368 19.491843 22.471181 19.384766 22.517578 C 19.277692 22.560404 19.154817 22.582031 19.015625 22.582031 C 18.830031 22.582031 18.671115 22.543706 18.539062 22.46875 C 18.407018 22.390225 18.298552 22.257519 18.212891 22.068359 C 18.130806 21.875633 18.068554 21.618091 18.029297 21.296875 C 17.990027 20.97209 17.970703 20.564796 17.970703 20.072266 C 17.970703 19.668962 17.98747 19.315089 18.019531 19.011719 C 18.051657 18.708351 18.10702 18.455389 18.185547 18.251953 C 18.267631 18.048516 18.37609 17.896809 18.511719 17.796875 C 18.650915 17.693373 18.826536 17.640625 19.037109 17.640625 z M 2.8222656 19.980469 L 5.3105469 19.980469 C 5.7210656 19.980469 6.0566406 20.316049 6.0566406 20.726562 L 6.0566406 23.214844 C 6.0566406 23.625361 5.7210659 23.960938 5.3105469 23.960938 L 2.8222656 23.960938 C 2.4117462 23.960938 2.0761719 23.625353 2.0761719 23.214844 L 2.0761719 20.726562 C 2.0761719 20.316042 2.4117458 19.980469 2.8222656 19.980469 z M 26.707031 19.980469 L 29.195312 19.980469 C 29.60583 19.980469 29.941406 20.316049 29.941406 20.726562 L 29.941406 23.214844 C 29.941406 23.625361 29.605822 23.960938 29.195312 23.960938 L 26.707031 23.960938 C 26.29651 23.960938 25.960938 23.625353 25.960938 23.214844 L 25.960938 20.726562 C 25.960938 20.316042 26.296518 19.980469 26.707031 19.980469 z "
     transform="scale(0.26458333)"
     id="rect819" />
</svg>
