<svg id="Calque_1" data-name="Calque 1" xmlns="http://www.w3.org/2000/svg" viewBox="0 0 32 32"><defs><style>.cls-1{fill:#e3e3e3;}</style></defs><title>xpos_l</title><path class="cls-1" d="M28.54,15.29,22.08,8.83a.42.42,0,0,0-.63,0l-.7.69a.5.5,0,0,0-.13.32.48.48,0,0,0,.13.32l4.34,4.34H7l4.31-4.31a.49.49,0,0,0,.14-.32.47.47,0,0,0-.14-.31l-.69-.7a.5.5,0,0,0-.32-.13.48.48,0,0,0-.32.13L3.51,15.31a.42.42,0,0,0,0,.63L10,22.39a.48.48,0,0,0,.32.13.5.5,0,0,0,.32-.13l.69-.7a.45.45,0,0,0,.14-.31.49.49,0,0,0-.14-.32L6.72,16.5H25.31l-4.56,4.55a.5.5,0,0,0-.13.32.44.44,0,0,0,.13.32l.7.69a.43.43,0,0,0,.32.14.43.43,0,0,0,.31-.14l6.46-6.45a.51.51,0,0,0,.14-.32A.49.49,0,0,0,28.54,15.29Z"/></svg>