<svg id="Calque_1" data-name="Calque 1" xmlns="http://www.w3.org/2000/svg" viewBox="0 0 32 32"><defs><style>.cls-1{fill:#e3e3e3;}</style></defs><title>ypos_l</title><path class="cls-1" d="M16.34,28.12l6.46-6.45a.51.51,0,0,0,.14-.32A.49.49,0,0,0,22.8,21l-.69-.69a.47.47,0,0,0-.32-.14.45.45,0,0,0-.32.14l-4.34,4.34V6.55l4.31,4.31a.49.49,0,0,0,.32.14.51.51,0,0,0,.32-.14l.69-.69a.49.49,0,0,0,.14-.32.51.51,0,0,0-.14-.32L16.33,3.09A.51.51,0,0,0,16,3a.49.49,0,0,0-.32.14L9.25,9.53a.51.51,0,0,0-.14.32.49.49,0,0,0,.14.32l.69.69a.45.45,0,0,0,.32.14.51.51,0,0,0,.32-.14L15.13,6.3V24.89l-4.55-4.55a.44.44,0,0,0-.64,0L9.25,21a.49.49,0,0,0-.14.32.51.51,0,0,0,.14.32l6.46,6.45a.45.45,0,0,0,.32.14A.43.43,0,0,0,16.34,28.12Z"/></svg>