<svg id="Calque_1" data-name="Calque 1" xmlns="http://www.w3.org/2000/svg" viewBox="0 0 32 32"><defs><style>.cls-1{fill:#e3e3e3;}</style></defs><title>addkey_l</title><path class="cls-1" d="M13.85,20.38l1.63-1.63a3.06,3.06,0,0,1-.35-1.37V15.2H13A3,3,0,0,1,10.11,13H4v1.23l6.15,6.15v1.24L4,27.77V29H20V27.77l-6.15-6.15Z"/><path class="cls-1" d="M26.12,12.24a1,1,0,0,1-1,1H21v4.18a1,1,0,0,1-1,1H18.1a1,1,0,0,1-1-1V13.2H13a1,1,0,0,1-1-1V10.32a1,1,0,0,1,1-1h4.17V5.18a1,1,0,0,1,1-1H20a1,1,0,0,1,1,1V9.35h4.17a1,1,0,0,1,1,1Z"/></svg>