<svg id="Calque_1" data-name="Calque 1" xmlns="http://www.w3.org/2000/svg" viewBox="0 0 32 32"><defs><style>.cls-1{fill:#e3e3e3;}</style></defs><title>align_l</title><rect class="cls-1" x="15" y="3" width="2" height="26"/><path class="cls-1" d="M24,17H19V27h5a3,3,0,0,0,3-3V20A3,3,0,0,0,24,17Z"/><path class="cls-1" d="M13,17H8a3,3,0,0,0-3,3v4a3,3,0,0,0,3,3h5Z"/><rect class="cls-1" x="15" y="3" width="2" height="26"/><path class="cls-1" d="M13,13H5a1,1,0,0,1-1-1V8A1,1,0,0,1,5,7h8V5H5A3,3,0,0,0,2,8v4a3,3,0,0,0,3,3h8Z"/><path class="cls-1" d="M27,5H19V7h8a1,1,0,0,1,1,1v4a1,1,0,0,1-1,1H19v2h8a3,3,0,0,0,3-3V8A3,3,0,0,0,27,5Z"/></svg>