<svg id="Calque_1" data-name="Calque 1" xmlns="http://www.w3.org/2000/svg" viewBox="0 0 32 32"><defs><style>.cls-1{fill:#e3e3e3;}</style></defs><title>allprops_l</title><path class="cls-1" d="M19.19,7.11a.33.33,0,0,1,.33.33v3.85a.34.34,0,0,1-.33.34H15.33a.34.34,0,0,1-.33-.34V7.44a.33.33,0,0,1,.33-.33h3.86m0-3H15.33A3.33,3.33,0,0,0,12,7.44v3.85a3.34,3.34,0,0,0,3.33,3.34h3.86a3.34,3.34,0,0,0,3.33-3.34V7.44a3.33,3.33,0,0,0-3.33-3.33Z"/><path class="cls-1" d="M19.19,21.11a.33.33,0,0,1,.33.33v3.85a.34.34,0,0,1-.33.34H15.33a.34.34,0,0,1-.33-.34V21.44a.33.33,0,0,1,.33-.33h3.86m0-3H15.33A3.33,3.33,0,0,0,12,21.44v3.85a3.34,3.34,0,0,0,3.33,3.34h3.86a3.34,3.34,0,0,0,3.33-3.34V21.44a3.33,3.33,0,0,0-3.33-3.33Z"/></svg>