<svg id="Calque_1" data-name="Calque 1" xmlns="http://www.w3.org/2000/svg" viewBox="0 0 32 32"><defs><style>.cls-1{fill:#e3e3e3;}</style></defs><title>arm_l</title><path class="cls-1" d="M20.14,11.12A52.22,52.22,0,0,0,13,18.59C10.59,22,8.61,25.87,7.54,26.16s-3.37,1.41-2.49,2.26A2.41,2.41,0,0,0,7.86,29a3.57,3.57,0,0,0,.7-1.85s5.75-8.24,8.63-10.44S22.8,14.54,23,13.15s-.39-2.42-.91-2.58A2.31,2.31,0,0,0,20.14,11.12Z"/><path class="cls-1" d="M5.76,29.8c-.89.64-2-1-2.26-2.49s.39-13.83,1-15.78S3.64,8.8,4.33,8.44s2.84-.08,2.33.62S4.39,20.47,4.82,25.48c.91.23.89.85.89.85S4.17,27.57,4.56,28.5A2.22,2.22,0,0,0,5.76,29.8Z"/><path class="cls-1" d="M4.7,7.64c0-.62,4.33-3.92,5-3.41s2.4,2.59,2.1,3-.76,2.23-1.77,2.15a7.63,7.63,0,0,1-2.37-.86s.37-.81.65-.6a10.3,10.3,0,0,0,1.08.57s.93-.4,1.06-1.16a2.72,2.72,0,0,0-1.32-2C8.92,5.35,7.32,7,7.33,7.84S4.67,8.26,4.7,7.64Z"/><path class="cls-1" d="M20.05,9.77c-.42-.3,1-4,3.13-5.21s2.35-2.36,2.88-2.2,1.36.77,1.09,1.44-3.62.58-4.8,2.5-.75,3.1-1,3.38A1.12,1.12,0,0,1,20.05,9.77Z"/><path class="cls-1" d="M22.51,9.63c.18-1.15,1.25-3.8,2.71-3.17s3.46,1.43,3.46,1.43,2.41,7.31,1.21,8.37-2.56-2.07-3.22-2.34-2.59-.38-3.1-.74A5.06,5.06,0,0,1,22.51,9.63Z"/></svg>