<?xml version="1.0" encoding="UTF-8" standalone="no"?>
<!-- Created with Inkscape (http://www.inkscape.org/) -->

<svg
   xmlns:dc="http://purl.org/dc/elements/1.1/"
   xmlns:cc="http://creativecommons.org/ns#"
   xmlns:rdf="http://www.w3.org/1999/02/22-rdf-syntax-ns#"
   xmlns:svg="http://www.w3.org/2000/svg"
   xmlns="http://www.w3.org/2000/svg"
   xmlns:sodipodi="http://sodipodi.sourceforge.net/DTD/sodipodi-0.dtd"
   xmlns:inkscape="http://www.inkscape.org/namespaces/inkscape"
   width="32"
   height="32"
   viewBox="0 0 8.4666666 8.4666666"
   version="1.1"
   id="svg8"
   inkscape:version="0.92.5 (2060ec1f9f, 2020-04-08)"
   sodipodi:docname="audio-codec_sl.svg">
  <defs
     id="defs2">
    <style
       id="style1399">.cls-1{fill:#e3e3e3;}</style>
    <style
       id="style1399-4">.cls-1{fill:#e3e3e3;}</style>
    <style
       id="style1399-5">.cls-1{fill:#e3e3e3;}</style>
    <style
       id="style1399-7">.cls-1{fill:#e3e3e3;}</style>
  </defs>
  <sodipodi:namedview
     id="base"
     pagecolor="#ffffff"
     bordercolor="#666666"
     borderopacity="1.0"
     inkscape:pageopacity="0.0"
     inkscape:pageshadow="2"
     inkscape:zoom="2.8284271"
     inkscape:cx="-97.64849"
     inkscape:cy="13.334431"
     inkscape:document-units="mm"
     inkscape:current-layer="svg8"
     showgrid="false"
     units="px"
     inkscape:window-width="1920"
     inkscape:window-height="1043"
     inkscape:window-x="0"
     inkscape:window-y="120"
     inkscape:window-maximized="1">
    <sodipodi:guide
       position="8.4666666,0"
       orientation="-32,0"
       id="guide854"
       inkscape:locked="false" />
    <sodipodi:guide
       position="8.4666666,8.4599157"
       orientation="0,-32"
       id="guide856"
       inkscape:locked="false" />
    <sodipodi:guide
       position="0,8.4666814"
       orientation="32,0"
       id="guide858"
       inkscape:locked="false" />
  </sodipodi:namedview>
  <metadata
     id="metadata5">
    <rdf:RDF>
      <cc:Work
         rdf:about="">
        <dc:format>image/svg+xml</dc:format>
        <dc:type
           rdf:resource="http://purl.org/dc/dcmitype/StillImage" />
        <dc:title></dc:title>
      </cc:Work>
    </rdf:RDF>
  </metadata>
  <path
     style="fill:#e3e3e3;fill-opacity:1;stroke-width:0.08291218"
     d="M 19.564453,0.0390625 C 19.0038,-0.02578885 18.410051,0.14268384 17.943359,0.609375 l -7.376953,7.375 H 2.1035156 c -1.0994153,0 -1.98828123,0.8908231 -1.98828122,1.9902344 V 21.914062 c 0,1.098587 0.88886592,1.988282 1.98828122,1.988282 h 8.4628904 l 7.376953,7.375 c 1.246171,1.24617 3.396485,0.371385 3.396485,-1.40625 V 2.015625 c 0,-1.11205899 -0.84097,-1.86847692 -1.775391,-1.9765625 z m 7.457031,9.2949219 c -0.636075,0.057767 -1.23372,0.417911 -1.566406,1.0195316 -0.529806,0.962611 -0.179403,2.17166 0.783203,2.703125 1.070397,0.587847 1.734375,1.695272 1.734375,2.886718 0,1.192278 -0.664808,2.298872 -1.734375,2.886719 -0.96261,0.531469 -1.313011,1.740513 -0.783203,2.703125 0.533125,0.966755 1.74466,1.309695 2.703125,0.783203 2.340609,-1.289283 3.794922,-3.729807 3.794922,-6.373047 0,-2.643238 -1.453483,-5.084589 -3.794922,-6.3730465 C 27.798157,9.3735009 27.40313,9.2993244 27.021484,9.3339844 Z M 10.474189,9.9523629 c 0.786734,1.8e-6 1.43683,0.1407061 1.95146,0.4128081 0.520546,0.26619 0.932577,0.650488 1.234257,1.159201 0.30168,0.502802 0.511334,1.122058 0.629638,1.855556 0.118306,0.727582 0.1793,1.554066 0.1793,2.476853 0,0.91687 -0.07729,1.74161 -0.225169,2.481022 -0.147889,0.739414 -0.38837,1.372542 -0.725543,1.893083 -0.331256,0.520547 -0.76685,0.918711 -1.305143,1.19673 -0.532376,0.278025 -1.184898,0.416978 -1.959799,0.416978 -0.7867357,-1e-6 -1.4368339,-0.134115 -1.9514605,-0.400298 C 7.7870957,21.172192 7.3774897,20.787898 7.075813,20.285094 6.7741361,19.776379 6.5620502,19.157122 6.4378357,18.429538 c -0.1183081,-0.733495 -0.179301,-1.562405 -0.179301,-2.48519 0,-0.910956 0.073117,-1.737442 0.2209987,-2.476856 0.1537957,-0.745325 0.3984549,-1.37671 0.7297127,-1.89725 C 7.5464177,11.049694 7.9820109,10.651529 8.5143892,10.373513 9.0526799,10.095494 9.7052023,9.9523629 10.474189,9.9523629 Z M 2.6474998,10.148344 h 1.0924839 c 0.3219301,0 0.5796004,0.257662 0.5796004,0.579599 v 10.353581 c 0,0.321929 -0.2576621,0.583769 -0.5796004,0.583769 H 2.6474998 c -0.3219376,0 -0.5796004,-0.261833 -0.5796004,-0.583769 V 10.727943 c 0,-0.321937 0.2576628,-0.579599 0.5796004,-0.579599 z m 7.7266142,1.651233 c -0.348999,9e-6 -0.636622,0.08697 -0.8673154,0.258528 -0.224779,0.165626 -0.4060285,0.417557 -0.5420724,0.754732 -0.1301373,0.337172 -0.2219503,0.75647 -0.2752059,1.259275 -0.053255,0.502801 -0.079225,1.087059 -0.079225,1.755479 0,0.81631 0.035038,1.496563 0.1000746,2.034857 0.065069,0.532372 0.1641709,0.956526 0.3002246,1.275954 0.1419666,0.313507 0.3231918,0.537028 0.5420724,0.667165 0.2188722,0.124211 0.4804897,0.183477 0.7880897,0.183477 0.230701,0 0.435504,-0.03324 0.612958,-0.10425 0.177455,-0.07688 0.32854,-0.189881 0.458677,-0.337754 0.136044,-0.147887 0.249018,-0.333973 0.337753,-0.558751 0.08873,-0.224787 0.159402,-0.483988 0.212658,-0.779752 0.05916,-0.295763 0.099,-0.632258 0.116753,-1.004918 0.02372,-0.372664 0.03753,-0.78469 0.03753,-1.234257 0,-0.544206 -0.01633,-1.020334 -0.04587,-1.434406 -0.02957,-0.419982 -0.07665,-0.784883 -0.141772,-1.092482 -0.05915,-0.3076 -0.138859,-0.566791 -0.233509,-0.77975 -0.08873,-0.21294 -0.195114,-0.384491 -0.325243,-0.508713 -0.130145,-0.130146 -0.276372,-0.21778 -0.441997,-0.271037 -0.165633,-0.05326 -0.353461,-0.0834 -0.554582,-0.0834 z"
     transform="scale(0.26458333)"
     id="path1124"
     inkscape:connector-curvature="0"
     sodipodi:nodetypes="sccssssccssssccscccscsccccccccccccsccccssssssssscccsscccscccccccccccc" />
</svg>
