<?xml version="1.0" encoding="UTF-8" standalone="no"?>
<!-- Created with Inkscape (http://www.inkscape.org/) -->

<svg
   xmlns:dc="http://purl.org/dc/elements/1.1/"
   xmlns:cc="http://creativecommons.org/ns#"
   xmlns:rdf="http://www.w3.org/1999/02/22-rdf-syntax-ns#"
   xmlns:svg="http://www.w3.org/2000/svg"
   xmlns="http://www.w3.org/2000/svg"
   xmlns:sodipodi="http://sodipodi.sourceforge.net/DTD/sodipodi-0.dtd"
   xmlns:inkscape="http://www.inkscape.org/namespaces/inkscape"
   width="32"
   height="32"
   viewBox="0 0 8.4666666 8.4666666"
   version="1.1"
   id="svg8"
   inkscape:version="0.92.5 (2060ec1f9f, 2020-04-08)"
   sodipodi:docname="audition_sl.svg">
  <defs
     id="defs2">
    <style
       id="style1399">.cls-1{fill:#e3e3e3;}</style>
  </defs>
  <sodipodi:namedview
     id="base"
     pagecolor="#ffffff"
     bordercolor="#666666"
     borderopacity="1.0"
     inkscape:pageopacity="0.0"
     inkscape:pageshadow="2"
     inkscape:zoom="11.313709"
     inkscape:cx="-0.91381002"
     inkscape:cy="15.493682"
     inkscape:document-units="mm"
     inkscape:current-layer="svg8"
     showgrid="false"
     units="px"
     inkscape:window-width="1920"
     inkscape:window-height="1043"
     inkscape:window-x="0"
     inkscape:window-y="120"
     inkscape:window-maximized="1">
    <sodipodi:guide
       position="8.4666666,0"
       orientation="-32,0"
       id="guide854"
       inkscape:locked="false" />
    <sodipodi:guide
       position="8.4666666,8.4666666"
       orientation="0,-32"
       id="guide856"
       inkscape:locked="false" />
    <sodipodi:guide
       position="0,8.4666814"
       orientation="32,0"
       id="guide858"
       inkscape:locked="false" />
  </sodipodi:namedview>
  <metadata
     id="metadata5">
    <rdf:RDF>
      <cc:Work
         rdf:about="">
        <dc:format>image/svg+xml</dc:format>
        <dc:type
           rdf:resource="http://purl.org/dc/dcmitype/StillImage" />
        <dc:title></dc:title>
      </cc:Work>
    </rdf:RDF>
  </metadata>
  <path
     style="font-style:normal;font-variant:normal;font-weight:bold;font-stretch:normal;font-size:10.58333302px;line-height:1.25;font-family:'Courier Prime Sans';-inkscape-font-specification:'Courier Prime Sans, Bold';font-variant-ligatures:normal;font-variant-caps:normal;font-variant-numeric:normal;font-feature-settings:normal;text-align:start;letter-spacing:0px;word-spacing:0px;writing-mode:lr-tb;text-anchor:start;fill:#e3e3e3;fill-opacity:1;stroke:none;stroke-width:0.81848127"
     d="M 8.8378906 6.7324219 C 8.1451657 6.7324219 7.6281432 6.8127948 7.2871094 6.9726562 C 6.9460763 7.1218584 6.7019375 7.3878213 6.5527344 7.7714844 L 0.17382812 24.507812 C 0.10988419 24.667671 0.078125 24.811564 0.078125 24.939453 C 0.078125 25.195229 0.20019441 25.419497 0.4453125 25.611328 C 0.70108792 25.803161 1.1178647 25.963913 1.6933594 26.091797 C 2.2368822 26.219686 2.668562 26.283203 2.9882812 26.283203 C 3.276029 26.283203 3.5052648 26.229617 3.6757812 26.123047 C 3.8569553 26.016474 3.9889602 25.850757 4.0742188 25.626953 L 5.2089844 22.542969 L 12.210938 22.542969 L 13.314453 25.626953 C 13.399712 25.850757 13.526749 26.016472 13.697266 26.123047 C 13.867782 26.229619 14.103938 26.283203 14.402344 26.283203 C 14.73272 26.283203 15.169368 26.219686 15.712891 26.091797 C 16.288385 25.963909 16.703209 25.803159 16.958984 25.611328 C 17.21476 25.419497 17.34375 25.190261 17.34375 24.923828 C 17.34375 24.763966 17.316958 24.625041 17.263672 24.507812 L 11.091797 7.7714844 C 10.953252 7.3984805 10.714081 7.1325177 10.373047 6.9726562 C 10.04267 6.8127948 9.5306158 6.7324219 8.8378906 6.7324219 z M 18.595703 11.289062 C 18.233356 11.289062 17.972361 11.367482 17.8125 11.527344 C 17.663297 11.676546 17.589844 11.932574 17.589844 12.294922 L 17.589844 21.039062 C 17.589844 22.104793 17.797255 23.04356 18.212891 23.853516 C 18.628526 24.663471 19.225922 25.292627 20.003906 25.740234 C 20.78189 26.187841 21.691912 26.410156 22.736328 26.410156 C 23.866003 26.410156 24.921872 26.117402 25.902344 25.53125 C 26.882816 24.934441 27.746183 24.109761 28.492188 23.054688 L 28.492188 25.052734 C 28.492188 25.415081 28.565636 25.676076 28.714844 25.835938 C 28.874702 25.985141 29.135698 26.058594 29.498047 26.058594 L 31.001953 26.058594 C 31.364294 26.058594 31.620323 25.985141 31.769531 25.835938 C 31.929403 25.676078 32.007812 25.415083 32.007812 25.052734 L 32.007812 12.294922 C 32.007812 11.932575 31.929403 11.676547 31.769531 11.527344 C 31.620329 11.367482 31.3643 11.289062 31.001953 11.289062 L 29.019531 11.289062 C 28.657194 11.289062 28.3962 11.367482 28.236328 11.527344 C 28.08712 11.676546 28.011719 11.932574 28.011719 12.294922 L 28.011719 17.011719 C 28.011719 17.981534 27.804307 18.898477 27.388672 19.761719 C 26.973037 20.62496 26.434187 21.317635 25.773438 21.839844 C 25.123342 22.362052 24.457459 22.623047 23.775391 22.623047 C 22.315339 22.623047 21.585938 21.779558 21.585938 20.095703 L 21.585938 12.294922 C 21.585938 11.932575 21.505565 11.676547 21.345703 11.527344 C 21.196501 11.367482 20.940474 11.289063 20.578125 11.289062 L 18.595703 11.289062 z M 8.7421875 12.232422 L 8.8066406 12.232422 L 11.011719 18.785156 L 6.4726562 18.785156 L 8.7421875 12.232422 z "
     transform="scale(0.26458333)"
     id="path1235" />
</svg>
