<svg id="Calque_1" data-name="Calque 1" xmlns="http://www.w3.org/2000/svg" viewBox="0 0 32 32"><defs><style>.cls-1{fill:#e3e3e3;}</style></defs><title>autoparent_l</title><path class="cls-1" d="M12,19.21H6a4.37,4.37,0,0,0-4.36,4.37v6.51h12V24.32a3.3,3.3,0,0,1,2.11-3.08A4.37,4.37,0,0,0,12,19.21Z"/><path class="cls-1" d="M9.05,10.54a3.68,3.68,0,1,0,3.68,3.68A3.68,3.68,0,0,0,9.05,10.54Z"/><path class="cls-1" d="M23.3,21.93H16.93a2.37,2.37,0,0,0-2.37,2.37v5.79H25.67V24.3A2.37,2.37,0,0,0,23.3,21.93Z"/><path class="cls-1" d="M17.59.57a1.09,1.09,0,0,1,.76-.3,1,1,0,0,1,.72.3l12,12a1,1,0,0,1,.3.72,1.09,1.09,0,0,1-.3.76l-2.8,2.81a1.1,1.1,0,0,1-.76.29,1,1,0,0,1-.73-.29l-12-12a1,1,0,0,1-.29-.73,1.1,1.1,0,0,1,.29-.76Zm2.18,14L18,15.42l-.89,1.75-.89-1.75-1.75-.89,1.75-.89.89-1.75L18,13.64ZM17.66,9.78l-1.06.53-.53,1-.53-1-1-.53,1-.53.53-1.06.53,1.06Zm3.53-4.46L18.35,2.45,16.66,4.13,19.54,7ZM24,2.91,25.74,2l.9-1.75L27.53,2l1.75.89-1.75.89-.89,1.75-.9-1.75Z"/><path class="cls-1" d="M21.76,14.67a2,2,0,0,1-1.08,1.65l-1.17.59-.6,1.17a2,2,0,0,1-1.38,1,3.53,3.53,0,0,0,6.14-2.38c0-.06,0-.12,0-.19Z"/><path class="cls-1" d="M17.59.57a1.09,1.09,0,0,1,.76-.3,1,1,0,0,1,.72.3l12,12a1,1,0,0,1,.3.72,1.09,1.09,0,0,1-.3.76l-2.8,2.81a1.1,1.1,0,0,1-.76.29,1,1,0,0,1-.73-.29l-12-12a1,1,0,0,1-.29-.73,1.1,1.1,0,0,1,.29-.76Zm2.18,14L18,15.42l-.89,1.75-.89-1.75-1.75-.89,1.75-.89.89-1.75L18,13.64ZM17.66,9.78l-1.06.53-.53,1-.53-1-1-.53,1-.53.53-1.06.53,1.06Zm3.53-4.46L18.35,2.45,16.66,4.13,19.54,7ZM24,2.91,25.74,2l.9-1.75L27.53,2l1.75.89-1.75.89-.89,1.75-.9-1.75Z"/></svg>