<svg id="Calque_1" data-name="Calque 1" xmlns="http://www.w3.org/2000/svg" viewBox="0 0 32 32"><defs><style>.cls-1{fill:#e3e3e3;}</style></defs><title>automationplay_l</title><path class="cls-1" d="M13,23.5A9.5,9.5,0,0,1,22.5,14a9.79,9.79,0,0,1,2.5.34v-2.4a.58.58,0,0,0-.45-.57l-2.86-.43a9.29,9.29,0,0,0-.64-1.54c.53-.73,1.11-1.42,1.64-2.14a.58.58,0,0,0,.12-.36.51.51,0,0,0-.11-.34A20.18,20.18,0,0,0,20.13,3.9a.63.63,0,0,0-.39-.15.5.5,0,0,0-.38.14L17.14,5.56A10.07,10.07,0,0,0,15.74,5L15.3,2.11a.55.55,0,0,0-.56-.47H11.27a.59.59,0,0,0-.57.44A20.33,20.33,0,0,0,10.25,5a9.3,9.3,0,0,0-1.42.6L6.67,3.9a.68.68,0,0,0-.4-.15c-.53,0-2.64,2.28-3,2.79a.6.6,0,0,0-.14.36.57.57,0,0,0,.16.38c.57.7,1.14,1.41,1.67,2.16a8.2,8.2,0,0,0-.61,1.43l-2.91.44a.61.61,0,0,0-.42.56v3.47a.56.56,0,0,0,.45.56l2.86.43A9,9,0,0,0,5,17.87c-.53.74-1.11,1.42-1.64,2.14a.65.65,0,0,0-.12.36.59.59,0,0,0,.11.36,18.85,18.85,0,0,0,2.58,2.63.56.56,0,0,0,.39.17.62.62,0,0,0,.39-.14l2.2-1.67a8.66,8.66,0,0,0,1.41.57l.43,2.88a.57.57,0,0,0,.57.47h2A9.42,9.42,0,0,1,13,23.5ZM9,13.64a4,4,0,1,1,4,4A4,4,0,0,1,9,13.64Z"/><path class="cls-1" d="M22.37,16.55a7.12,7.12,0,1,0,7.11,7.12A7.11,7.11,0,0,0,22.37,16.55Zm3.56,7.63-5,3a.54.54,0,0,1-.3.08.59.59,0,0,1-.29-.07.6.6,0,0,1-.3-.52V20.7a.6.6,0,0,1,.3-.52.59.59,0,0,1,.29-.07.64.64,0,0,1,.3.08l5,3a.57.57,0,0,1,.29.51A.6.6,0,0,1,25.93,24.18Z"/></svg>