<?xml version="1.0" encoding="UTF-8" standalone="no"?>
<!-- Created with Inkscape (http://www.inkscape.org/) -->

<svg
   xmlns:dc="http://purl.org/dc/elements/1.1/"
   xmlns:cc="http://creativecommons.org/ns#"
   xmlns:rdf="http://www.w3.org/1999/02/22-rdf-syntax-ns#"
   xmlns:svg="http://www.w3.org/2000/svg"
   xmlns="http://www.w3.org/2000/svg"
   xmlns:sodipodi="http://sodipodi.sourceforge.net/DTD/sodipodi-0.dtd"
   xmlns:inkscape="http://www.inkscape.org/namespaces/inkscape"
   width="32"
   height="32"
   viewBox="0 0 8.4666666 8.4666666"
   version="1.1"
   id="svg8"
   inkscape:version="0.92.5 (2060ec1f9f, 2020-04-08)"
   sodipodi:docname="automation-sl.svg">
  <defs
     id="defs2">
    <style
       id="style1399">.cls-1{fill:#e3e3e3;}</style>
    <style
       id="style1399-4">.cls-1{fill:#e3e3e3;}</style>
    <style
       id="style1399-8">.cls-1{fill:#e3e3e3;}</style>
    <style
       id="style1399-4-5">.cls-1{fill:#e3e3e3;}</style>
    <style
       id="style1399-0">.cls-1{fill:#e3e3e3;}</style>
    <style
       id="style854">.cls-1{fill:#e3e3e3;}</style>
    <style
       id="style1399-84">.cls-1{fill:#e3e3e3;}</style>
    <style
       id="style1399-4-8">.cls-1{fill:#e3e3e3;}</style>
    <style
       id="style1399-8-10">.cls-1{fill:#e3e3e3;}</style>
    <style
       id="style1399-4-5-3">.cls-1{fill:#e3e3e3;}</style>
    <style
       id="style1399-0-0">.cls-1{fill:#e3e3e3;}</style>
    <style
       id="style1399-5">.cls-1{fill:#e3e3e3;}</style>
    <style
       id="style1399-4-6">.cls-1{fill:#e3e3e3;}</style>
    <style
       id="style1399-8-1">.cls-1{fill:#e3e3e3;}</style>
    <style
       id="style1399-4-5-1">.cls-1{fill:#e3e3e3;}</style>
    <style
       id="style1399-0-5">.cls-1{fill:#e3e3e3;}</style>
    <style
       id="style1257">.cls-1{fill:#e3e3e3;}</style>
    <style
       id="style1387">.cls-1{fill:#e3e3e3;}</style>
    <style
       id="style1399-59">.cls-1{fill:#e3e3e3;}</style>
  </defs>
  <sodipodi:namedview
     id="base"
     pagecolor="#ffffff"
     bordercolor="#666666"
     borderopacity="1.0"
     inkscape:pageopacity="0.0"
     inkscape:pageshadow="2"
     inkscape:zoom="2.828427"
     inkscape:cx="-52.104609"
     inkscape:cy="49.374787"
     inkscape:document-units="mm"
     inkscape:current-layer="svg8"
     showgrid="false"
     units="px"
     inkscape:window-width="1920"
     inkscape:window-height="1043"
     inkscape:window-x="0"
     inkscape:window-y="120"
     inkscape:window-maximized="1"
     inkscape:snap-bbox="true"
     inkscape:bbox-paths="true"
     inkscape:bbox-nodes="true"
     inkscape:snap-bbox-edge-midpoints="true"
     inkscape:snap-bbox-midpoints="true"
     inkscape:snap-nodes="true"
     inkscape:snap-others="true"
     inkscape:snap-object-midpoints="true"
     inkscape:snap-page="true">
    <sodipodi:guide
       position="8.4666666,0"
       orientation="-32,0"
       id="guide854"
       inkscape:locked="false" />
    <sodipodi:guide
       position="8.4666666,8.4666666"
       orientation="0,-32"
       id="guide856"
       inkscape:locked="false" />
    <sodipodi:guide
       position="0,8.4666814"
       orientation="32,0"
       id="guide858"
       inkscape:locked="false" />
  </sodipodi:namedview>
  <metadata
     id="metadata5">
    <rdf:RDF>
      <cc:Work
         rdf:about="">
        <dc:format>image/svg+xml</dc:format>
        <dc:type
           rdf:resource="http://purl.org/dc/dcmitype/StillImage" />
        <dc:title></dc:title>
      </cc:Work>
    </rdf:RDF>
  </metadata>
  <path
     style="fill:#e3e3e3;fill-opacity:1;stroke-width:0.05936152"
     d="M 14.09375 0.7265625 C 13.004465 0.72953246 11.928437 0.85245853 10.892578 1.0839844 C 10.566091 1.1549503 10.333984 1.4447785 10.333984 1.7773438 L 10.333984 4.6992188 C 9.0161572 5.168184 7.7950708 5.8730273 6.7265625 6.78125 L 4.203125 5.3222656 C 3.9122522 5.1559849 3.5497925 5.2095605 3.3242188 5.4589844 C 1.8579881 7.0439209 0.73703854 8.9549862 0.078125 11.074219 C -0.022789028 11.394957 0.11342183 11.738118 0.40429688 11.904297 L 2.9316406 13.365234 C 2.6763865 14.742388 2.6763865 16.156015 2.9316406 17.533203 L 0.40429688 18.992188 C 0.11342557 19.158472 -0.01685415 19.50369 0.078125 19.824219 C 0.73703854 21.937503 1.8579881 23.848532 3.3242188 25.439453 C 3.5497927 25.682617 3.9181891 25.742108 4.203125 25.576172 L 6.7324219 24.115234 C 7.7949933 25.029405 9.0180344 25.736167 10.341797 26.199219 L 10.341797 29.119141 C 10.341797 29.451357 10.57195 29.743244 10.898438 29.814453 C 12.231171 30.112258 13.580501 30.196929 14.904297 30.128906 L 14.904297 20.115234 C 14.652223 20.156779 14.398392 20.191406 14.134766 20.191406 C 11.516921 20.191406 9.3847656 18.061196 9.3847656 15.443359 C 9.3847656 12.825522 11.516921 10.693359 14.134766 10.693359 C 15.817618 10.693359 17.289072 11.5798 18.132812 12.904297 C 19.18099 12.645799 20.308295 12.778499 21.314453 13.373047 L 25.513672 15.855469 C 25.543803 15.020838 25.49459 14.183762 25.341797 13.359375 L 27.871094 11.898438 C 28.161963 11.732155 28.292245 11.388923 28.197266 11.068359 C 27.538354 8.9550751 26.415448 7.0440105 24.949219 5.453125 C 24.723645 5.2099627 24.355248 5.1504718 24.070312 5.3164062 L 21.542969 6.7753906 C 20.480398 5.8612189 19.257356 5.1563413 17.933594 4.6933594 L 17.933594 1.7773438 C 17.933594 1.4451267 17.701491 1.1551937 17.375 1.0839844 C 16.285715 0.8405787 15.183035 0.72359254 14.09375 0.7265625 z "
     transform="scale(0.26458333)"
     id="path818" />
  <path
     id="path1429"
     d="M 8.2655629,5.9177619 5.2644577,4.1435288 C 5.020618,3.9994417 4.6471851,4.1392662 4.6471851,4.4956472 v 3.5476134 c 0,0.3197196 0.3470027,0.5124041 0.6172726,0.352118 L 8.2655629,6.6219984 c 0.2677118,-0.1577287 0.2685646,-0.5465082 0,-0.7042365 z"
     inkscape:connector-curvature="0"
     style="fill:#e3e3e3;fill-opacity:1;stroke-width:0.00852587" />
</svg>
