<svg id="Calque_1" data-name="Calque 1" xmlns="http://www.w3.org/2000/svg" viewBox="0 0 32 32"><defs><style>.cls-1{fill:#e3e3e3;}</style></defs><title>babybottle_l</title><rect class="cls-1" x="9" y="13" width="12" height="18" rx="2.88"/><rect class="cls-1" x="10" y="8" width="10" height="3.5" rx="1.19"/><path class="cls-1" d="M11,9V8.42a2.64,2.64,0,0,1,1.18-2.21S13.79,5.42,14,5a1,1,0,0,0,0-1c-.15-.23-.67-.62-.81-1a2.08,2.08,0,0,1,0-1A1.79,1.79,0,0,1,14,1a4,4,0,0,1,2,0,1.73,1.73,0,0,1,.9.9,2.73,2.73,0,0,1,0,1A11.62,11.62,0,0,1,16,4a1,1,0,0,0,0,1c.19.4,1.82,1.21,1.82,1.21A2.64,2.64,0,0,1,19,8.42V9Z"/></svg>