<?xml version="1.0" encoding="UTF-8" standalone="no"?>
<svg
   xmlns:dc="http://purl.org/dc/elements/1.1/"
   xmlns:cc="http://creativecommons.org/ns#"
   xmlns:rdf="http://www.w3.org/1999/02/22-rdf-syntax-ns#"
   xmlns:svg="http://www.w3.org/2000/svg"
   xmlns="http://www.w3.org/2000/svg"
   xmlns:sodipodi="http://sodipodi.sourceforge.net/DTD/sodipodi-0.dtd"
   xmlns:inkscape="http://www.inkscape.org/namespaces/inkscape"
   id="Calque_1"
   data-name="Calque 1"
   viewBox="0 0 32 32"
   version="1.1"
   sodipodi:docname="beer_l.svg"
   inkscape:export-filename="F:\DEV_SRC\RainboxUI\Icons\25w\w25_beer_l.png"
   inkscape:export-xdpi="75"
   inkscape:export-ydpi="75"
   inkscape:version="0.92.4 (5da689c313, 2019-01-14)">
  <metadata
     id="metadata2096">
    <rdf:RDF>
      <cc:Work
         rdf:about="">
        <dc:format>image/svg+xml</dc:format>
        <dc:type
           rdf:resource="http://purl.org/dc/dcmitype/StillImage" />
      </cc:Work>
    </rdf:RDF>
  </metadata>
  <sodipodi:namedview
     pagecolor="#ffffff"
     bordercolor="#666666"
     borderopacity="1"
     objecttolerance="10"
     gridtolerance="10"
     guidetolerance="10"
     inkscape:pageopacity="0"
     inkscape:pageshadow="2"
     inkscape:window-width="1858"
     inkscape:window-height="1057"
     id="namedview2094"
     showgrid="false"
     inkscape:zoom="25.870117"
     inkscape:cx="16"
     inkscape:cy="16"
     inkscape:window-x="54"
     inkscape:window-y="-1"
     inkscape:window-maximized="1"
     inkscape:current-layer="Calque_1" />
  <defs
     id="defs2087">
    <style
       id="style2085">.cls-1{fill:#e3e3e3;}</style>
  </defs>
  <title
     id="title2089">beer_l</title>
  <path
     class="cls-1"
     d="M22.28,8.11a4,4,0,0,1,3,1.24,4,4,0,0,1,1.24,3v6.79a4,4,0,0,1-.69,2.29A4.37,4.37,0,0,1,24,23l-4.27,1.89v2.21a1.26,1.26,0,0,1-1.26,1.27H4.18a1.26,1.26,0,0,1-1.27-1.27V6a1.24,1.24,0,0,1,.37-.89,1.22,1.22,0,0,1,.9-.37H18.49a1.19,1.19,0,0,1,.89.37,1.2,1.2,0,0,1,.37.89V8.11ZM8.81,23.26a.81.81,0,0,0,.6-.23.82.82,0,0,0,.24-.61V10.63a.85.85,0,1,0-1.69,0V22.42a.81.81,0,0,0,.85.84Zm5,0a.79.79,0,0,0,.6-.23.82.82,0,0,0,.24-.61V10.63a.81.81,0,0,0-.24-.6.8.8,0,0,0-.6-.24.82.82,0,0,0-.61.24.85.85,0,0,0-.23.6V22.42a.85.85,0,0,0,.23.61A.81.81,0,0,0,13.86,23.26Zm9.26-4.15V12.32a.82.82,0,0,0-.24-.61.83.83,0,0,0-.6-.23H19.75v9.68l2.9-1.32A.74.74,0,0,0,23.12,19.11Z"
     id="path2091" />
</svg>
