<?xml version="1.0" encoding="UTF-8" standalone="no"?>
<!-- Created with Inkscape (http://www.inkscape.org/) -->

<svg
   xmlns:dc="http://purl.org/dc/elements/1.1/"
   xmlns:cc="http://creativecommons.org/ns#"
   xmlns:rdf="http://www.w3.org/1999/02/22-rdf-syntax-ns#"
   xmlns:svg="http://www.w3.org/2000/svg"
   xmlns="http://www.w3.org/2000/svg"
   xmlns:sodipodi="http://sodipodi.sourceforge.net/DTD/sodipodi-0.dtd"
   xmlns:inkscape="http://www.inkscape.org/namespaces/inkscape"
   width="32"
   height="32"
   viewBox="0 0 8.4666666 8.4666666"
   version="1.1"
   id="svg8"
   inkscape:version="0.92.5 (2060ec1f9f, 2020-04-08)"
   sodipodi:docname="binary_bl.svg">
  <defs
     id="defs2">
    <style
       id="style1399">.cls-1{fill:#e3e3e3;}</style>
  </defs>
  <sodipodi:namedview
     id="base"
     pagecolor="#ffffff"
     bordercolor="#666666"
     borderopacity="1.0"
     inkscape:pageopacity="0.0"
     inkscape:pageshadow="2"
     inkscape:zoom="8"
     inkscape:cx="-12.52724"
     inkscape:cy="30.308249"
     inkscape:document-units="mm"
     inkscape:current-layer="svg8"
     showgrid="false"
     units="px"
     inkscape:window-width="1920"
     inkscape:window-height="1043"
     inkscape:window-x="0"
     inkscape:window-y="120"
     inkscape:window-maximized="1">
    <sodipodi:guide
       position="8.4666666,0"
       orientation="-32,0"
       id="guide854"
       inkscape:locked="false" />
    <sodipodi:guide
       position="9.9390855,8.4423761"
       orientation="0,-32"
       id="guide856"
       inkscape:locked="false" />
    <sodipodi:guide
       position="0,8.4666814"
       orientation="32,0"
       id="guide858"
       inkscape:locked="false" />
  </sodipodi:namedview>
  <metadata
     id="metadata5">
    <rdf:RDF>
      <cc:Work
         rdf:about="">
        <dc:format>image/svg+xml</dc:format>
        <dc:type
           rdf:resource="http://purl.org/dc/dcmitype/StillImage" />
        <dc:title></dc:title>
      </cc:Work>
    </rdf:RDF>
  </metadata>
  <path
     style="opacity:1;fill:#e3e3e3;fill-opacity:1;stroke:none;stroke-width:1.46499979;stroke-linecap:round;stroke-linejoin:round;stroke-miterlimit:4;stroke-dasharray:none;stroke-dashoffset:10.3937006;stroke-opacity:1"
     d="m 2.891813,0.7942668 c -0.2088906,0 -0.3865604,0.0381661 -0.5327839,0.11368818 -0.1446166,0.075522 -0.2629098,0.18364182 -0.3545003,0.32504472 -0.089984,0.141403 -0.1556259,0.3132675 -0.197404,0.5157308 -0.040171,0.2008564 -0.060461,0.425372 -0.060461,0.6728272 0,0.2506687 0.016439,0.4756446 0.048576,0.6748941 0.033744,0.1976427 0.091167,0.365656 0.1731161,0.5038453 0.081949,0.1365824 0.1930002,0.2418278 0.3327962,0.3157429 0.1397961,0.072308 0.3164889,0.1080039 0.5302003,0.1080037 0.2104974,0 0.3881672,-0.037649 0.532784,-0.1131713 C 3.5103591,3.8353505 3.6286524,3.7272306 3.7186359,3.5858275 3.8102265,3.4444247 3.8758685,3.2730204 3.91604,3.0721639 3.9562114,2.8713075 3.9765015,2.6463317 3.9765015,2.3972697 3.9765009,2.1466009 3.9600621,1.9226021 3.9279256,1.7249594 3.8957885,1.5257098 3.8388261,1.3576965 3.7568767,1.2211141 3.6749273,1.0829249 3.5634163,0.97767946 3.4220134,0.90537114 3.2822174,0.83145597 3.1055244,0.79426683 2.891813,0.7942668 Z m 3.8819336,0 c -0.2088907,0 -0.3865605,0.0381661 -0.5327841,0.11368818 C 6.096346,0.98347698 5.9785697,1.0915968 5.8869791,1.2329997 5.7969951,1.3744027 5.7308363,1.5462672 5.6890584,1.7487305 c -0.040172,0.2008564 -0.059945,0.425372 -0.059945,0.6728272 2e-7,0.2506687 0.015922,0.4756446 0.048059,0.6748941 0.033744,0.1976427 0.091684,0.365656 0.1736329,0.5038453 0.081949,0.1365824 0.1924835,0.2418278 0.3322793,0.3157429 0.1397963,0.072308 0.317006,0.1080039 0.5307171,0.1080037 0.2104975,0 0.3876506,-0.037649 0.5322673,-0.1131713 C 7.3922926,3.8353505 7.510586,3.7272306 7.6005695,3.5858275 7.69216,3.4444247 7.7578021,3.2730204 7.7979735,3.0721639 7.8381449,2.8713075 7.858435,2.6463317 7.858435,2.3972697 7.8584345,2.1466009 7.8425127,1.9226021 7.8103758,1.7249594 7.7782388,1.5257098 7.7212763,1.3576965 7.639327,1.2211141 7.5573776,1.0829249 7.4453498,0.97767946 7.3039469,0.90537114 7.1641509,0.83145597 6.9874579,0.79426683 6.7737466,0.7942668 Z m -6.00790186,0.05271 c -0.0874523,0 -0.15761311,0.0701608 -0.15761311,0.1576131 v 2.8122313 c 0,0.087452 0.0701608,0.1581301 0.15761311,0.1581301 H 1.0619507 c 0.087452,0 0.1581298,-0.070678 0.1581298,-0.1581301 V 1.0045899 c 0,-0.0874523 -0.070678,-0.15761313 -0.1581298,-0.15761313 z m 3.88245026,0 c -0.087452,0 -0.1581299,0.0701608 -0.1581299,0.1576131 v 2.8122313 c 0,0.087452 0.070678,0.1581301 0.1581299,0.1581301 h 0.2955893 c 0.087452,0 0.1581298,-0.070678 0.1581298,-0.1581301 V 1.0045899 c 0,-0.0874523 -0.070678,-0.15761313 -0.1581298,-0.15761313 z M 2.8649414,1.296045 c 0.054633,0 0.1048697,0.00724 0.1498616,0.021704 0.044992,0.014462 0.085055,0.039063 0.120406,0.074414 0.035351,0.033744 0.064781,0.079613 0.088884,0.1374593 0.02571,0.057847 0.046977,0.1283172 0.063045,0.2118734 0.017675,0.083556 0.030206,0.1825361 0.038241,0.2966227 0.00803,0.1124796 0.012402,0.2428435 0.012402,0.3906738 -2e-7,0.1221211 -0.00339,0.2336317 -0.00982,0.3348634 -0.00482,0.1012315 -0.015454,0.1919923 -0.031523,0.2723349 -0.014462,0.080342 -0.033775,0.1513292 -0.057878,0.21239 -0.024103,0.06106 -0.05451,0.1112406 -0.091467,0.151412 -0.035351,0.040171 -0.076852,0.071095 -0.1250568,0.091984 -0.048205,0.019282 -0.1037307,0.028939 -0.1663981,0.028939 -0.083557,0 -0.155004,-0.016899 -0.2144572,-0.050643 C 2.5817292,3.4347216 2.5324692,3.374368 2.4939046,3.289205 2.4569473,3.2024349 2.4299312,3.0865559 2.4122558,2.9419394 2.3945805,2.7957158 2.3853841,2.6117805 2.3853841,2.390035 c 0,-0.1815742 0.00724,-0.340391 0.021704,-0.4769734 0.014462,-0.1365824 0.03958,-0.2510243 0.074931,-0.3426148 0.036957,-0.09159 0.0857,-0.1596467 0.1467611,-0.2046387 0.062667,-0.046599 0.1413571,-0.069763 0.2361612,-0.069763 z m 3.8824503,0 c 0.054633,0 0.104353,0.00724 0.1493448,0.021704 0.044992,0.014462 0.085055,0.039063 0.1204061,0.074414 0.035351,0.033744 0.065298,0.079613 0.0894,0.1374593 0.02571,0.057847 0.04646,0.1283172 0.062528,0.2118734 0.017675,0.083556 0.030723,0.1825361 0.038757,0.2966227 0.00803,0.1124796 0.011886,0.2428435 0.011886,0.3906738 0,0.1221211 -0.00339,0.2336317 -0.00982,0.3348634 -0.00482,0.1012315 -0.014937,0.1919923 -0.031006,0.2723349 -0.014462,0.080342 -0.033775,0.1513292 -0.057878,0.21239 -0.024103,0.06106 -0.05451,0.1112406 -0.091467,0.151412 -0.035351,0.040171 -0.077368,0.071095 -0.1255736,0.091984 -0.048205,0.019282 -0.1037307,0.028939 -0.166398,0.028939 -0.083557,0 -0.1550041,-0.016899 -0.2144573,-0.050643 C 6.4636626,3.4347216 6.4149194,3.374368 6.3763548,3.289205 6.3393976,3.2024349 6.3118648,3.0865559 6.2941893,2.9419394 6.276514,2.7957158 6.2678344,2.6117805 6.2678344,2.390035 c 0,-0.1815742 0.00724,-0.340391 0.021704,-0.4769734 0.014462,-0.1365824 0.039063,-0.2510243 0.074414,-0.3426148 0.036957,-0.09159 0.086217,-0.1596467 0.1472779,-0.2046387 0.062667,-0.046599 0.1413571,-0.069763 0.2361613,-0.069763 z M 4.7852375,4.442623 c -0.2088907,0 -0.3865605,0.037649 -0.5327838,0.1131712 C 4.1078369,4.6313164 3.9900606,4.739953 3.89847,4.8813558 3.8084863,5.0227587 3.7423272,5.1946233 3.7005493,5.3970867 3.6603778,5.597943 3.6406047,5.8224586 3.6406047,6.0699136 c 0,0.2506689 0.015922,0.4751279 0.048059,0.6743774 0.033744,0.197643 0.091683,0.365656 0.1736328,0.5038453 0.081949,0.1365824 0.1930003,0.2418278 0.3327963,0.3157431 0.1397961,0.072308 0.3164888,0.1085205 0.5302001,0.1085205 0.2104975,0 0.3876506,-0.037649 0.5322673,-0.1131713 C 5.4037836,7.4837064 5.5220769,7.3750699 5.6120604,7.233667 5.7036509,7.0922641 5.76981,6.9213764 5.8099811,6.7205201 5.8501526,6.5196635 5.8699259,6.2946877 5.8699259,6.0456259 5.8699257,5.794957 5.8540036,5.5709581 5.8218668,5.3733155 5.7897297,5.174066 5.7327673,5.0060526 5.6508179,4.8694702 5.5688685,4.731281 5.4568407,4.6260356 5.3154379,4.5537273 5.1756418,4.479812 4.9989488,4.442623 4.7852375,4.442623 Z M 1.3037964,4.493782 c -0.087452,0 -0.1581299,0.070161 -0.1581299,0.1576131 v 2.8122313 c 0,0.087452 0.070678,0.1581301 0.1581299,0.1581301 h 0.2961059 c 0.087452,0 0.1576131,-0.070678 0.1576131,-0.1581301 V 4.6513956 c 0,-0.087452 -0.070161,-0.1576131 -0.1576131,-0.1576131 z m 1.3559895,0 c -0.087452,0 -0.1581298,0.070161 -0.1581298,0.1576131 v 2.8122313 c 0,0.087452 0.070678,0.1581301 0.1581298,0.1581301 h 0.296106 c 0.087452,0 0.1576131,-0.070678 0.1576131,-0.1581301 V 4.6513956 c 0,-0.087452 -0.070161,-0.1576131 -0.1576131,-0.1576131 z m 3.8354248,0 c -0.087452,0 -0.1581298,0.070161 -0.1581298,0.1576131 v 2.8122313 c 0,0.087452 0.070678,0.1581301 0.1581298,0.1581301 H 6.7908 c 0.087452,0 0.1581298,-0.070678 0.1581298,-0.1581301 V 4.6513956 c 0,-0.087452 -0.070678,-0.1576131 -0.1581298,-0.1576131 z M 4.7588826,4.9438843 c 0.054633,0 0.104353,0.00724 0.1493448,0.021704 0.044992,0.014462 0.085055,0.03958 0.1204061,0.074931 0.035351,0.033744 0.065298,0.079613 0.0894,0.1374595 0.02571,0.057846 0.04646,0.1283171 0.062528,0.2118733 0.017676,0.083556 0.030723,0.1825361 0.038757,0.2966228 0.00803,0.1124794 0.011886,0.2428433 0.011886,0.3906737 0,0.1221208 -0.00339,0.2336316 -0.00982,0.3348633 -0.00482,0.1012317 -0.014937,0.1919922 -0.031006,0.2723348 -0.014462,0.080342 -0.033775,0.1508128 -0.057878,0.2118733 -0.024103,0.06106 -0.05451,0.1117573 -0.091467,0.1519288 -0.035351,0.040171 -0.077368,0.070578 -0.1255736,0.091467 -0.048205,0.019282 -0.1037307,0.028939 -0.166398,0.028939 -0.083557,0 -0.1550041,-0.016899 -0.2144573,-0.050643 C 4.4751535,7.0825611 4.4264103,7.0227242 4.3878457,6.9375609 4.3508885,6.8507911 4.3233557,6.7349121 4.3056802,6.5902953 4.288005,6.444072 4.2793253,6.2601366 4.2793253,6.0383912 c 0,-0.1815743 0.00724,-0.340908 0.021704,-0.4774904 0.014462,-0.1365821 0.039063,-0.2505075 0.074414,-0.3420978 0.036957,-0.091591 0.086217,-0.1596466 0.1472779,-0.2046388 0.062667,-0.046599 0.1413571,-0.07028 0.2361614,-0.07028 z"
     id="rect819"
     inkscape:connector-curvature="0" />
</svg>
