<svg id="Calque_1" data-name="Calque 1" xmlns="http://www.w3.org/2000/svg" viewBox="0 0 32 32"><defs><style>.cls-1{fill:#e3e3e3;}</style></defs><title>broom_l</title><path class="cls-1" d="M26.7,3.55,16.25,16l2,2L27.9,4.53a.79.79,0,0,0-.1-1h0A.78.78,0,0,0,26.7,3.55Z"/><path class="cls-1" d="M13.08,16.78,11.25,18l6,5,1-1.54a1.91,1.91,0,0,0-.39-2.56l-2.53-2A1.91,1.91,0,0,0,13.08,16.78Z"/><path class="cls-1" d="M10.25,19s-2,3-8,2a13.38,13.38,0,0,0,.3,2.38L6.25,23,3,24.07a9.88,9.88,0,0,0,2.1,3.46L7.25,27,6,28.27a8.59,8.59,0,0,0,1.31.83l5-3.1L9,29.75a9.67,9.67,0,0,0,1.28.25,14.93,14.93,0,0,0,6-6A61.22,61.22,0,0,1,10.25,19Z"/></svg>