<?xml version="1.0" encoding="UTF-8" standalone="no"?>
<!-- Created with Inkscape (http://www.inkscape.org/) -->

<svg
   xmlns:dc="http://purl.org/dc/elements/1.1/"
   xmlns:cc="http://creativecommons.org/ns#"
   xmlns:rdf="http://www.w3.org/1999/02/22-rdf-syntax-ns#"
   xmlns:svg="http://www.w3.org/2000/svg"
   xmlns="http://www.w3.org/2000/svg"
   xmlns:sodipodi="http://sodipodi.sourceforge.net/DTD/sodipodi-0.dtd"
   xmlns:inkscape="http://www.inkscape.org/namespaces/inkscape"
   width="32"
   height="32"
   viewBox="0 0 8.4666666 8.4666666"
   version="1.1"
   id="svg8"
   inkscape:version="0.92.5 (2060ec1f9f, 2020-04-08)"
   sodipodi:docname="bug-report_bl.svg">
  <defs
     id="defs2">
    <style
       id="style1399">.cls-1{fill:#e3e3e3;}</style>
    <style
       id="style1399-1">.cls-1{fill:#e3e3e3;}</style>
    <style
       id="style1399-5">.cls-1{fill:#e3e3e3;}</style>
    <style
       id="style1399-8">.cls-1{fill:#e3e3e3;}</style>
    <style
       id="style1399-7">.cls-1{fill:#e3e3e3;}</style>
    <style
       id="style1399-1-5">.cls-1{fill:#e3e3e3;}</style>
    <style
       id="style1399-5-6">.cls-1{fill:#e3e3e3;}</style>
    <style
       id="style1399-8-9">.cls-1{fill:#e3e3e3;}</style>
    <style
       id="style1399-3">.cls-1{fill:#e3e3e3;}</style>
    <style
       id="style1399-1-8">.cls-1{fill:#e3e3e3;}</style>
    <style
       id="style1399-5-60">.cls-1{fill:#e3e3e3;}</style>
    <style
       id="style1399-8-4">.cls-1{fill:#e3e3e3;}</style>
    <style
       id="style1399-4">.cls-1{fill:#e3e3e3;}</style>
    <style
       id="style1399-1-3">.cls-1{fill:#e3e3e3;}</style>
    <style
       id="style1399-5-0">.cls-1{fill:#e3e3e3;}</style>
    <style
       id="style1399-8-3">.cls-1{fill:#e3e3e3;}</style>
    <style
       id="style1399-9">.cls-1{fill:#e3e3e3;}</style>
    <style
       id="style1399-1-4">.cls-1{fill:#e3e3e3;}</style>
    <style
       id="style1399-5-69">.cls-1{fill:#e3e3e3;}</style>
    <style
       id="style1399-8-2">.cls-1{fill:#e3e3e3;}</style>
    <style
       id="style1399-0">.cls-1{fill:#e3e3e3;}</style>
    <style
       id="style1399-1-2">.cls-1{fill:#e3e3e3;}</style>
    <style
       id="style1399-5-1">.cls-1{fill:#e3e3e3;}</style>
    <style
       id="style1399-8-0">.cls-1{fill:#e3e3e3;}</style>
    <style
       id="style1399-7-5">.cls-1{fill:#e3e3e3;}</style>
    <style
       id="style1399-1-5-1">.cls-1{fill:#e3e3e3;}</style>
    <style
       id="style1399-5-6-1">.cls-1{fill:#e3e3e3;}</style>
    <style
       id="style1399-8-9-0">.cls-1{fill:#e3e3e3;}</style>
  </defs>
  <sodipodi:namedview
     id="base"
     pagecolor="#ffffff"
     bordercolor="#666666"
     borderopacity="1.0"
     inkscape:pageopacity="0.0"
     inkscape:pageshadow="2"
     inkscape:zoom="11.313708"
     inkscape:cx="13.200184"
     inkscape:cy="6.4592687"
     inkscape:document-units="mm"
     inkscape:current-layer="svg8"
     showgrid="false"
     units="px"
     inkscape:window-width="1848"
     inkscape:window-height="1136"
     inkscape:window-x="0"
     inkscape:window-y="27"
     inkscape:window-maximized="1">
    <sodipodi:guide
       position="8.4666666,0"
       orientation="-32,0"
       id="guide854"
       inkscape:locked="false" />
    <sodipodi:guide
       position="8.4666666,8.4666666"
       orientation="0,-32"
       id="guide856"
       inkscape:locked="false" />
    <sodipodi:guide
       position="0,8.4666814"
       orientation="1,6.123234e-17"
       id="guide858"
       inkscape:locked="false" />
  </sodipodi:namedview>
  <metadata
     id="metadata5">
    <rdf:RDF>
      <cc:Work
         rdf:about="">
        <dc:format>image/svg+xml</dc:format>
        <dc:type
           rdf:resource="http://purl.org/dc/dcmitype/StillImage" />
        <dc:title></dc:title>
      </cc:Work>
    </rdf:RDF>
  </metadata>
  <path
     style="fill:#e3e3e3;fill-opacity:1;stroke-width:0.04478052"
     d="M 11.779297 0 C 10.198544 0 8.9140625 1.2844742 8.9140625 2.8652344 L 8.9140625 15.763672 C 8.9140625 15.795193 8.9228454 15.824204 8.9238281 15.855469 L 13.285156 15.855469 C 14.827668 15.855469 16.032763 16.978824 16.066406 18.587891 L 16.078125 22.390625 C 16.079455 22.829485 16.579828 23.08395 16.933594 22.824219 L 22.527344 18.628906 L 28.974609 18.628906 C 30.555362 18.628906 31.839844 17.344405 31.839844 15.763672 L 31.839844 2.8652344 C 31.839844 1.2844742 30.555362 1.1842379e-15 28.974609 0 L 11.779297 0 z M 20.544922 2.5 C 22.159275 2.5 23.46875 3.809488 23.46875 5.4238281 L 17.623047 5.4238281 C 17.623047 3.809488 18.930572 2.5 20.544922 2.5 z M 15.507812 5.0058594 C 15.721549 5.0058594 15.936519 5.0869247 16.099609 5.25 L 17.525391 6.6757812 L 23.513672 6.6757812 L 24.939453 5.25 C 25.26563 4.9238532 25.794914 4.9238532 26.121094 5.25 C 26.447218 5.5761619 26.447218 6.1054787 26.121094 6.4316406 L 24.904297 7.6484375 L 24.904297 9.1816406 L 26.365234 9.1816406 C 26.834278 9.1816406 27.212165 9.5670786 27.199219 10.039062 C 27.186784 10.493949 26.802709 10.851563 26.347656 10.851562 L 24.904297 10.851562 L 24.904297 11.269531 C 24.904297 11.840148 24.776348 12.380807 24.548828 12.865234 L 26.121094 14.4375 C 26.447222 14.763662 26.447222 15.291026 26.121094 15.617188 C 25.794913 15.943329 25.265604 15.943314 24.939453 15.617188 L 23.511719 14.189453 C 22.865782 14.71332 22.042994 15.027344 21.146484 15.027344 L 21.146484 8.6601562 C 21.146484 8.4872052 21.005009 8.3457031 20.832031 8.3457031 L 20.207031 8.3457031 C 20.034084 8.3457031 19.892578 8.4871938 19.892578 8.6601562 L 19.892578 15.027344 C 18.996067 15.027344 18.173285 14.713318 17.527344 14.189453 L 16.099609 15.617188 C 15.773429 15.943329 15.429671 15.943314 15.103516 15.617188 C 14.777392 15.291026 14.591845 14.763662 14.917969 14.4375 L 16.490234 12.865234 C 16.262706 12.380807 16.134766 11.840148 16.134766 11.269531 L 16.134766 10.851562 L 14.691406 10.851562 C 14.23635 10.851562 13.850369 10.493951 13.837891 10.039062 C 13.824851 9.5670786 14.204784 9.1816406 14.673828 9.1816406 L 16.134766 9.1816406 L 16.134766 7.6484375 L 14.917969 6.4316406 C 14.591845 6.1054787 14.591845 5.576146 14.917969 5.25 C 15.081059 5.0869247 15.294078 5.0058579 15.507812 5.0058594 z "
     transform="scale(0.26458333)"
     id="path851" />
  <path
     style="fill:#8cffef;fill-opacity:1;stroke-width:0.04478052"
     d="M 3.2871094 18.480469 C 2.6140401 18.480469 2.0683594 19.02615 2.0683594 19.699219 L 2.0683594 28.636719 C 2.0683594 28.651232 2.075673 28.663327 2.0761719 28.677734 L 6.3105469 24.423828 L 5.4980469 23.611328 C 5.1144452 23.227691 5.3866126 22.572266 5.9277344 22.572266 L 8.7714844 22.572266 C 9.1080173 22.572266 9.3808594 22.845102 9.3808594 23.181641 L 9.3808594 26.023438 C 9.3808594 26.567934 8.7214188 26.836603 8.3398438 26.455078 L 7.5292969 25.642578 L 3.3359375 29.855469 L 12.224609 29.855469 C 12.897678 29.855469 13.443359 29.309788 13.443359 28.636719 L 13.443359 19.699219 C 13.443359 19.02615 12.897678 18.480469 12.224609 18.480469 L 3.2871094 18.480469 z M 3.3359375 29.855469 L 3.2871094 29.855469 C 2.6285502 29.855469 2.0989995 29.330726 2.0761719 28.677734 L 0.068359375 30.695312 C -0.050332908 30.814568 -0.050612594 31.007951 0.068359375 31.126953 L 0.85546875 31.914062 C 0.97446566 32.033034 1.1681374 32.033034 1.2871094 31.914062 L 3.3359375 29.855469 z "
     transform="scale(0.26458333)"
     id="path845" />
</svg>
