<?xml version="1.0" encoding="UTF-8" standalone="no"?>
<!-- Created with Inkscape (http://www.inkscape.org/) -->

<svg
   xmlns:dc="http://purl.org/dc/elements/1.1/"
   xmlns:cc="http://creativecommons.org/ns#"
   xmlns:rdf="http://www.w3.org/1999/02/22-rdf-syntax-ns#"
   xmlns:svg="http://www.w3.org/2000/svg"
   xmlns="http://www.w3.org/2000/svg"
   xmlns:sodipodi="http://sodipodi.sourceforge.net/DTD/sodipodi-0.dtd"
   xmlns:inkscape="http://www.inkscape.org/namespaces/inkscape"
   width="32"
   height="32"
   viewBox="0 0 8.4666666 8.4666666"
   version="1.1"
   id="svg8"
   inkscape:version="0.92.5 (2060ec1f9f, 2020-04-08)"
   sodipodi:docname="build-settings_sl.svg">
  <defs
     id="defs2">
    <style
       id="style1399">.cls-1{fill:#e3e3e3;}</style>
    <style
       id="style1399-1">.cls-1{fill:#e3e3e3;}</style>
    <style
       id="style1399-9">.cls-1{fill:#e3e3e3;}</style>
    <style
       id="style1399-0">.cls-1{fill:#e3e3e3;}</style>
    <style
       id="style1399-7">.cls-1{fill:#e3e3e3;}</style>
    <style
       id="style1399-3">.cls-1{fill:#e3e3e3;}</style>
    <style
       id="style1399-6">.cls-1{fill:#e3e3e3;}</style>
    <style
       id="style1399-06">.cls-1{fill:#e3e3e3;}</style>
  </defs>
  <sodipodi:namedview
     id="base"
     pagecolor="#ffffff"
     bordercolor="#666666"
     borderopacity="1.0"
     inkscape:pageopacity="0.0"
     inkscape:pageshadow="2"
     inkscape:zoom="15.999999"
     inkscape:cx="17.054794"
     inkscape:cy="15.018012"
     inkscape:document-units="mm"
     inkscape:current-layer="svg8"
     showgrid="false"
     units="px"
     inkscape:window-width="1848"
     inkscape:window-height="1136"
     inkscape:window-x="1920"
     inkscape:window-y="27"
     inkscape:window-maximized="1">
    <sodipodi:guide
       position="8.4666666,0"
       orientation="-32,0"
       id="guide854"
       inkscape:locked="false" />
    <sodipodi:guide
       position="8.4666666,8.4666666"
       orientation="0,-32"
       id="guide856"
       inkscape:locked="false" />
    <sodipodi:guide
       position="0,8.4666814"
       orientation="1,6.123234e-17"
       id="guide858"
       inkscape:locked="false" />
  </sodipodi:namedview>
  <metadata
     id="metadata5">
    <rdf:RDF>
      <cc:Work
         rdf:about="">
        <dc:format>image/svg+xml</dc:format>
        <dc:type
           rdf:resource="http://purl.org/dc/dcmitype/StillImage" />
        <dc:title></dc:title>
      </cc:Work>
    </rdf:RDF>
  </metadata>
  <path
     style="opacity:1;fill:#e3e3e3;fill-opacity:1;stroke:none;stroke-width:3.66840982;stroke-linecap:round;stroke-linejoin:round;stroke-miterlimit:4;stroke-dasharray:none;stroke-dashoffset:10.3937006;stroke-opacity:1"
     d="M 10.646484 0 A 10.600411 10.600411 0 0 0 0.044921875 10.599609 A 10.600411 10.600411 0 0 0 10.013672 21.177734 C 10.038016 21.056829 10.068603 20.935187 10.113281 20.816406 C 10.517486 19.724038 11.186877 18.906892 11.730469 18.255859 C 12.462562 17.37533 13.737259 17.152753 14.71875 17.716797 A 1.5966647 1.5966647 0 0 1 14.726562 17.724609 L 14.882812 17.8125 C 14.921733 17.789427 14.960578 17.768451 15 17.746094 L 15 17.560547 C 15 16.427679 15.813008 15.435653 16.949219 15.236328 A 1.5966647 1.5966647 0 0 1 16.957031 15.236328 C 17.912915 15.072957 18.911573 15.062428 19.908203 15.228516 A 1.5966647 1.5966647 0 0 1 19.916016 15.228516 C 19.995138 15.242276 20.070201 15.267612 20.146484 15.289062 A 10.600411 10.600411 0 0 0 21.246094 10.599609 A 10.600411 10.600411 0 0 0 10.646484 0 z M 7.1191406 4.8710938 L 7.6972656 6.0273438 L 8.8535156 6.6074219 L 7.6972656 7.1855469 L 7.1191406 8.3417969 L 6.5410156 7.1855469 L 5.3828125 6.6074219 L 6.5410156 6.0273438 L 7.1191406 4.8710938 z M 10.244141 4.8710938 L 10.589844 5.5664062 L 11.285156 5.9121094 L 10.589844 6.2597656 L 10.244141 6.953125 L 9.8945312 6.2597656 L 9.2011719 5.9121094 L 9.8945312 5.5664062 L 10.244141 4.8710938 z M 13.957031 4.8710938 C 14.134764 4.8710938 14.311849 4.9383712 14.447266 5.0742188 L 16.289062 6.9160156 C 16.560331 7.1870682 16.560331 7.6256495 16.289062 7.8964844 L 8.4082031 15.777344 C 8.272571 15.912976 8.0957014 15.980469 7.9179688 15.980469 C 7.7404519 15.980469 7.5614149 15.912976 7.4257812 15.777344 L 5.5859375 13.935547 C 5.3146695 13.664494 5.3146695 13.226347 5.5859375 12.955078 L 13.466797 5.0742188 C 13.60243 4.9383682 13.779298 4.8710922 13.957031 4.8710938 z M 13.957031 6.3027344 L 12.078125 8.1796875 L 13.181641 9.2851562 L 15.0625 7.40625 L 13.957031 6.3027344 z M 14.757812 11.121094 L 15.335938 12.277344 L 16.494141 12.857422 L 15.335938 13.435547 L 14.757812 14.591797 L 14.177734 13.435547 L 13.019531 12.857422 L 14.177734 12.277344 L 14.757812 11.121094 z "
     transform="scale(0.26458333)"
     id="path1506" />
  <path
     style="fill:#83d3f6;fill-opacity:1;stroke-width:0.00843616"
     inkscape:connector-curvature="0"
     d="m 7.3787127,5.7751058 -0.069176,0.1206446 c -0.025309,0.044671 -0.0793,0.063205 -0.1273862,0.045502 C 7.0826035,5.9041222 6.991493,5.8509832 6.9113494,5.7843404 6.8725422,5.7522589 6.8624193,5.6957583 6.8877279,5.6518986 L 6.9569046,5.531254 C 6.8986951,5.4637677 6.8531396,5.3853149 6.8227694,5.300107 H 6.6835732 c -0.050617,0 -0.094485,-0.036299 -0.1029214,-0.086895 -0.016871,-0.1012358 -0.017716,-0.2075268 0,-0.3129869 0.00844,-0.050551 0.052304,-0.087726 0.1029214,-0.087726 H 6.8227695 C 6.853139,4.7272851 6.8986949,4.6488386 6.9569047,4.5813459 L 6.887728,4.4607142 C 6.862419,4.4168092 6.871699,4.3603219 6.911349,4.3282659 6.991493,4.2616229 7.0834467,4.2084713 7.1821496,4.1713538 c 0.048087,-0.017702 0.1020778,0.00128 0.1273862,0.045502 l 0.069176,0.1206253 c 0.08858,-0.016041 0.1788469,-0.016041 0.2674267,0 L 7.7153161,4.216856 c 0.025309,-0.044735 0.0793,-0.063332 0.1273861,-0.045502 0.099546,0.03713 0.1906571,0.090269 0.2708007,0.1569121 0.038807,0.032082 0.048929,0.088576 0.023622,0.1324483 l -0.069177,0.1206381 c 0.05821,0.067493 0.103765,0.1459392 0.1341352,0.2311534 h 0.1391965 c 0.050617,0 0.094485,0.036299 0.1029213,0.086889 0.016872,0.1012359 0.017717,0.2075268 0,0.3129805 -0.00844,0.050551 -0.052305,0.087739 -0.1029213,0.087739 H 8.2020833 c -0.03037,0.085208 -0.075926,0.1636607 -0.1341352,0.231147 l 0.069177,0.1206382 c 0.025309,0.043904 0.01603,0.1003922 -0.023621,0.1324418 -0.080144,0.066649 -0.1720976,0.119801 -0.2708006,0.1569185 -0.048087,0.017702 -0.1020777,-0.00128 -0.1273861,-0.045566 L 7.6461398,5.7750547 c -0.087736,0.016041 -0.1788468,0.016041 -0.2674267,0 z M 7.2901332,5.2790559 C 7.6149257,5.5287744 7.9852734,5.1584241 7.7355626,4.8336271 7.4107703,4.5830714 7.0404226,4.9542653 7.2901332,5.2790559 Z M 6.3174433,6.5773876 6.6017422,6.7191152 c 0.085205,0.048953 0.1223244,0.1526942 0.088579,0.2454943 -0.075082,0.2041524 -0.2227147,0.3914333 -0.3593806,0.555094 -0.062427,0.075085 -0.1704105,0.093644 -0.2556157,0.044735 L 5.829833,7.4227239 C 5.6948543,7.5383006 5.5379415,7.6302507 5.3666876,7.6901448 V 7.9736 c 0,0.097862 -0.07002,0.1822258 -0.1661927,0.199091 -0.2075297,0.035469 -0.4251826,0.03713 -0.6403048,0 C 4.4631742,8.1558194 4.3914668,8.0723051 4.3914668,7.9736 V 7.6901448 C 4.2202127,7.6294326 4.0632999,7.5383006 3.9283212,7.4227239 L 3.6828291,7.5636015 C 3.5984673,7.6125547 3.4896405,7.5939576 3.4272131,7.5188663 3.2905473,7.3552056 3.1462887,7.1679247 3.071207,6.9646158 3.037462,6.8726594 3.074581,6.7688928 3.1597867,6.7191216 L 3.4407109,6.577394 c -0.032901,-0.1763208 -0.032901,-0.3576902 0,-0.5348545 L 3.1597867,5.8999619 C 3.0745813,5.8510087 3.0366186,5.7472677 3.071207,5.6553112 3.1462887,5.4511588 3.2905473,5.2638715 3.4272131,5.1002108 3.4896405,5.0251259 3.5976236,5.0065736 3.6828291,5.0555395 L 3.9283212,5.1972671 C 4.0632999,5.0816904 4.2202127,4.9897403 4.3914668,4.9298462 V 4.6455474 c 0,-0.097024 0.069176,-0.1813822 0.1653489,-0.1982538 0.2075295,-0.035469 0.4260262,-0.03713 0.6411483,-0.00128 0.097016,0.016872 0.1687236,0.1003923 0.1687236,0.199091 V 4.9285617 C 5.5379415,4.9893377 5.6948543,5.0804187 5.829833,5.195989 L 6.0753254,5.0542677 c 0.084362,-0.048889 0.1931883,-0.03042 0.2556157,0.044735 0.1366659,0.1636606 0.2800808,0.3509415 0.3551624,0.555094 0.033745,0.091957 8.5e-4,0.1957167 -0.084361,0.2454942 L 6.3174433,6.0413188 c 0.032901,0.1771644 0.032901,0.3585338 0,0.5356981 z M 5.3253503,6.7553827 C 5.8247712,6.1058015 5.0832324,5.3642701 4.4336476,5.863688 3.9342265,6.5132692 4.6757654,7.254807 5.3253503,6.7553827 Z m 2.0533624,1.5412888 -0.069176,0.1206382 c -0.025309,0.044735 -0.0793,0.063268 -0.1273862,0.045566 C 7.0826035,8.4257455 6.991493,8.3726192 6.9113494,8.3059637 6.8725422,8.2738821 6.8624193,8.2173879 6.8877279,8.1735218 L 6.9569046,8.0528836 C 6.8986951,7.9853973 6.8531396,7.9069381 6.8227694,7.8217367 H 6.6835732 c -0.050617,0 -0.094485,-0.0363 -0.1029214,-0.086895 -0.016871,-0.1012422 -0.017716,-0.2075331 0,-0.3129805 0.00844,-0.050615 0.052304,-0.087739 0.1029214,-0.087739 H 6.8227695 C 6.853139,7.2489211 6.8986949,7.1704619 6.9569047,7.1029692 L 6.887728,6.9823374 C 6.862419,6.9384324 6.871699,6.8819515 6.911349,6.8498891 6.991493,6.7832461 7.0834467,6.7301073 7.1821496,6.6929771 c 0.048087,-0.017702 0.1020778,0.00128 0.1273862,0.045566 l 0.069176,0.1206318 c 0.08858,-0.016041 0.1788469,-0.016041 0.2674267,0 l 0.069177,-0.1206318 c 0.025309,-0.044735 0.0793,-0.063332 0.1273861,-0.045566 0.099546,0.03713 0.1906571,0.090269 0.2708007,0.156912 0.038807,0.032082 0.048929,0.088582 0.023622,0.1324483 l -0.069177,0.1206382 c 0.05821,0.067493 0.103765,0.1459519 0.1341352,0.2311533 H 8.341279 c 0.050617,0 0.094485,0.0363 0.1029213,0.086895 0.016872,0.1012295 0.017717,0.2075268 0,0.3129806 -0.00844,0.050615 -0.052305,0.087738 -0.1029213,0.087738 H 8.2020833 c -0.03037,0.085195 -0.075926,0.1636607 -0.1341352,0.231147 l 0.069177,0.1206382 C 8.1624341,8.2174317 8.1531551,8.27392 8.1135041,8.3059696 8.0333597,8.3726256 7.9414056,8.425771 7.8427026,8.4628885 7.7946161,8.4805909 7.7406249,8.4616104 7.7153165,8.4173225 L 7.6461399,8.2966843 c -0.087736,0.016041 -0.1788467,0.016041 -0.2674267,0 z M 7.2901332,7.7997844 C 7.6149257,8.0494965 7.9852734,7.6791527 7.7355626,7.354362 7.4107703,7.1046435 7.0404226,7.4749874 7.2901332,7.7997844 Z"
     id="path1432" />
</svg>
