<svg id="Calque_1" data-name="Calque 1" xmlns="http://www.w3.org/2000/svg" viewBox="0 0 32 32"><defs><style>.cls-1{fill:#e3e3e3;}</style></defs><title>calc_l</title><path class="cls-1" d="M23.37,4.12a2.1,2.1,0,0,1,1.53.66,2.09,2.09,0,0,1,.67,1.54v19.1a2.27,2.27,0,0,1-2.2,2.2H7.2A2.1,2.1,0,0,1,5.67,27,2.11,2.11,0,0,1,5,25.42V6.32a2.09,2.09,0,0,1,.67-1.54A2.1,2.1,0,0,1,7.2,4.12Zm-.74,8.21V7.65a.63.63,0,0,0-.6-.6H8.54a.55.55,0,0,0-.42.19.57.57,0,0,0-.18.41v4.68a.59.59,0,0,0,.18.42.58.58,0,0,0,.42.18H22a.62.62,0,0,0,.6-.6ZM10.88,18.21V16.47a.63.63,0,0,0-.6-.6H8.54a.58.58,0,0,0-.42.18.59.59,0,0,0-.18.42v1.74a.57.57,0,0,0,.18.41.55.55,0,0,0,.42.19h1.74a.66.66,0,0,0,.6-.6Zm0,5.88V22.34a.54.54,0,0,0-.19-.41.57.57,0,0,0-.41-.18H8.54a.62.62,0,0,0-.6.59v1.75a.62.62,0,0,0,.6.59h1.74a.57.57,0,0,0,.41-.18A.54.54,0,0,0,10.88,24.09Zm5.87-5.88V16.47a.59.59,0,0,0-.18-.42.57.57,0,0,0-.41-.18H14.41a.57.57,0,0,0-.41.18.59.59,0,0,0-.18.42v1.74a.57.57,0,0,0,.18.41.54.54,0,0,0,.41.19h1.75a.54.54,0,0,0,.41-.19A.57.57,0,0,0,16.75,18.21Zm0,5.88V22.34a.62.62,0,0,0-.59-.59H14.41a.62.62,0,0,0-.59.59v1.75a.62.62,0,0,0,.59.59h1.75a.62.62,0,0,0,.59-.59Zm5.88,0V16.47a.62.62,0,0,0-.6-.6H20.29a.63.63,0,0,0-.6.6v7.62a.54.54,0,0,0,.19.41.57.57,0,0,0,.41.18H22a.59.59,0,0,0,.42-.18A.57.57,0,0,0,22.63,24.09Z"/></svg>