<?xml version="1.0" encoding="UTF-8" standalone="no"?>
<!-- Created with Inkscape (http://www.inkscape.org/) -->

<svg
   xmlns:dc="http://purl.org/dc/elements/1.1/"
   xmlns:cc="http://creativecommons.org/ns#"
   xmlns:rdf="http://www.w3.org/1999/02/22-rdf-syntax-ns#"
   xmlns:svg="http://www.w3.org/2000/svg"
   xmlns="http://www.w3.org/2000/svg"
   xmlns:sodipodi="http://sodipodi.sourceforge.net/DTD/sodipodi-0.dtd"
   xmlns:inkscape="http://www.inkscape.org/namespaces/inkscape"
   width="32"
   height="32"
   viewBox="0 0 8.4666666 8.4666666"
   version="1.1"
   id="svg8"
   inkscape:version="0.92.5 (2060ec1f9f, 2020-04-08)"
   sodipodi:docname="calculator_sl.svg">
  <defs
     id="defs2" />
  <sodipodi:namedview
     id="base"
     pagecolor="#ffffff"
     bordercolor="#666666"
     borderopacity="1.0"
     inkscape:pageopacity="0.0"
     inkscape:pageshadow="2"
     inkscape:zoom="11.313709"
     inkscape:cx="11.970716"
     inkscape:cy="17.156868"
     inkscape:document-units="mm"
     inkscape:current-layer="svg8"
     showgrid="false"
     units="px"
     inkscape:window-width="1237"
     inkscape:window-height="1136"
     inkscape:window-x="0"
     inkscape:window-y="27"
     inkscape:window-maximized="0"
     inkscape:snap-bbox="true"
     inkscape:snap-nodes="false"
     inkscape:bbox-paths="true"
     inkscape:bbox-nodes="true"
     inkscape:snap-bbox-midpoints="true"
     inkscape:snap-bbox-edge-midpoints="true">
    <sodipodi:guide
       position="8.4666666,0"
       orientation="-32,0"
       id="guide854"
       inkscape:locked="false" />
    <sodipodi:guide
       position="8.4666666,8.4666666"
       orientation="0,-32"
       id="guide856"
       inkscape:locked="false" />
    <sodipodi:guide
       position="0,8.4666814"
       orientation="32,0"
       id="guide858"
       inkscape:locked="false" />
  </sodipodi:namedview>
  <metadata
     id="metadata5">
    <rdf:RDF>
      <cc:Work
         rdf:about="">
        <dc:format>image/svg+xml</dc:format>
        <dc:type
           rdf:resource="http://purl.org/dc/dcmitype/StillImage" />
        <dc:title></dc:title>
      </cc:Work>
    </rdf:RDF>
  </metadata>
  <path
     id="path909"
     d="M 7.1807557,0 H 1.3629177 C 0.93980219,0 0.56957623,0.37022603 0.56957623,0.79334151 V 7.6689687 c 0,0.4231153 0.37022596,0.7933415 0.79334147,0.7933415 h 5.817838 c 0.4231159,0 0.7933416,-0.3702262 0.7933416,-0.7933415 V 0.79334151 C 7.9740973,0.37022603 7.6038716,0 7.1807557,0 Z M 2.6851538,7.1929637 c 0,0.1057787 -0.105779,0.2115574 -0.2115578,0.2115574 H 1.8389228 c -0.1057789,0 -0.2115578,-0.1057787 -0.2115578,-0.2115574 V 6.5582904 c 0,-0.1057792 0.1057789,-0.2115579 0.2115578,-0.2115579 H 2.473596 c 0.1057788,0 0.2115578,0.1057787 0.2115578,0.2115579 z m 0,-2.1155777 c 0,0.1057789 -0.105779,0.2115578 -0.2115578,0.2115578 H 1.8389228 C 1.7331439,5.2889438 1.627365,5.1831649 1.627365,5.077386 V 4.4427127 c 0,-0.1057787 0.1057789,-0.2115577 0.2115578,-0.2115577 H 2.473596 c 0.1057788,0 0.2115578,0.105779 0.2115578,0.2115577 z m 2.1155775,2.1155777 c 0,0.1057787 -0.1057789,0.2115574 -0.2115578,0.2115574 H 3.9545002 c -0.1057789,0 -0.2115577,-0.1057787 -0.2115577,-0.2115574 V 6.5582904 c 0,-0.1057792 0.1057788,-0.2115579 0.2115577,-0.2115579 h 0.6346733 c 0.1057789,0 0.2115578,0.1057787 0.2115578,0.2115579 z m 0,-2.1155777 c 0,0.1057789 -0.1057789,0.2115578 -0.2115578,0.2115578 H 3.9545002 c -0.1057789,0 -0.2115577,-0.1057789 -0.2115577,-0.2115578 V 4.4427127 c 0,-0.1057787 0.1057788,-0.2115577 0.2115577,-0.2115577 h 0.6346733 c 0.1057789,0 0.2115578,0.105779 0.2115578,0.2115577 z m 2.1155775,2.1155777 c 0,0.1057787 -0.1057788,0.2115574 -0.2115578,0.2115574 H 6.0700777 C 5.9642989,7.4045211 5.85852,7.2987424 5.85852,7.1929637 V 4.4427127 C 5.85852,4.336934 5.9642989,4.231155 6.0700777,4.231155 H 6.704751 c 0.105779,0 0.2115578,0.105779 0.2115578,0.2115577 z m 0,-4.2311552 c 0,0.1057789 -0.1057788,0.2115578 -0.2115578,0.2115578 H 1.8389228 c -0.1057789,0 -0.2115578,-0.1057789 -0.2115578,-0.2115578 V 1.2693466 c 0,-0.1057789 0.1057789,-0.2115578 0.2115578,-0.2115578 H 6.704751 c 0.105779,0 0.2115578,0.1057789 0.2115578,0.2115578 z"
     inkscape:connector-curvature="0"
     style="stroke-width:0.01652795;fill:#e3e3e3" />
</svg>
