<svg id="Calque_1" data-name="Calque 1" xmlns="http://www.w3.org/2000/svg" viewBox="0 0 32 32"><defs><style>.cls-1{fill:#e3e3e3;}</style></defs><title>chain2_l</title><path class="cls-1" d="M18.52,3.14,12.73,8.93a9.21,9.21,0,0,1,2.46-.06,8.74,8.74,0,0,1,2,.44l3.73-3.73a4,4,0,0,1,5.64,0,3.93,3.93,0,0,1,0,5.5l-3.78,3.78-1.37,1.37-.73.73A4,4,0,0,1,18.1,18.1a3.85,3.85,0,0,1-1.68-.25A3.72,3.72,0,0,1,15,17l-.19-.21a1.65,1.65,0,0,0-2.24-.25l-.1.07a1.64,1.64,0,0,0-.26,2.36l.39.43h0a7.32,7.32,0,0,0,1.83,1.33,7,7,0,0,0,1.76.63,7.31,7.31,0,0,0,6.75-2l.09-.09,5.79-5.79a7.32,7.32,0,0,0,0-10.34h0A7.32,7.32,0,0,0,18.52,3.14Z"/><path class="cls-1" d="M17.53,11.31a7,7,0,0,0-1.76-.63,7.54,7.54,0,0,0-2.22-.15,7.17,7.17,0,0,0-2.39.63A7.34,7.34,0,0,0,9,12.64l-.09.09L3.14,18.52a7.32,7.32,0,0,0,0,10.34h0a7.32,7.32,0,0,0,10.34,0l5.79-5.79a9.06,9.06,0,0,1-4.41-.38l-3.73,3.73a4,4,0,0,1-5.64,0,3.93,3.93,0,0,1,0-5.5l3.78-3.78,1.37-1.37.73-.73a3.86,3.86,0,0,1,.8-.61,3.94,3.94,0,0,1,1.69-.53,3.85,3.85,0,0,1,1.68.25A3.72,3.72,0,0,1,17,15l.19.21a1.65,1.65,0,0,0,2.24.25l.1-.07a1.64,1.64,0,0,0,.26-2.36l-.39-.43h0A7.32,7.32,0,0,0,17.53,11.31Z"/></svg>