<svg id="Calque_1" data-name="Calque 1" xmlns="http://www.w3.org/2000/svg" viewBox="0 0 32 32"><defs><style>.cls-1{fill:#e3e3e3;}</style></defs><title>chain_l</title><path class="cls-1" d="M23.14,16.85a7.24,7.24,0,0,1,0,3.64,6.79,6.79,0,0,1-1.82,3.18l-3.18,3.17A6.73,6.73,0,0,1,15,28.66a7,7,0,0,1-3.64,0,7.12,7.12,0,0,1-5-5,7.24,7.24,0,0,1,0-3.64A6.89,6.89,0,0,1,8.1,16.8L9.88,15a.65.65,0,0,1,.77-.14.75.75,0,0,1,.49.65A8.5,8.5,0,0,0,11.61,18a.69.69,0,0,1-.19.75l-.61.65a3.28,3.28,0,0,0-1,2.36,3.35,3.35,0,0,0,3.34,3.38,3.23,3.23,0,0,0,2.38-1l3.13-3.13a3.38,3.38,0,0,0,0-4.76,3.54,3.54,0,0,0-.52-.42.64.64,0,0,1-.28-.56,1.73,1.73,0,0,1,.52-1.4l1-1a.68.68,0,0,1,.45-.21.74.74,0,0,1,.49.12,10.58,10.58,0,0,1,1,.79A7.12,7.12,0,0,1,23.14,16.85ZM24.68,5.22a7.24,7.24,0,0,0-3.64,0,6.86,6.86,0,0,0-3.18,1.83l-3.17,3.17a6.71,6.71,0,0,0-1.82,3.18,7.24,7.24,0,0,0,0,3.64,7,7,0,0,0,1.82,3.22,12.53,12.53,0,0,0,1,.79.72.72,0,0,0,.49.12A.73.73,0,0,0,16.6,21l1-1a1.76,1.76,0,0,0,.51-1.4.61.61,0,0,0-.28-.56,4.22,4.22,0,0,1-.51-.42,3.38,3.38,0,0,1,0-4.76l3.13-3.13a3.35,3.35,0,0,1,5.72,2.4,3.29,3.29,0,0,1-1,2.36l-.6.65a.69.69,0,0,0-.19.75,8.44,8.44,0,0,1,.47,2.48.74.74,0,0,0,.49.65.65.65,0,0,0,.77-.14l1.77-1.78a6.81,6.81,0,0,0,1.82-3.17,7.24,7.24,0,0,0,0-3.64A7.07,7.07,0,0,0,27.9,7.05,7.14,7.14,0,0,0,24.68,5.22Z"/></svg>