<?xml version="1.0" encoding="UTF-8" standalone="no"?>
<!-- Created with Inkscape (http://www.inkscape.org/) -->

<svg
   xmlns:dc="http://purl.org/dc/elements/1.1/"
   xmlns:cc="http://creativecommons.org/ns#"
   xmlns:rdf="http://www.w3.org/1999/02/22-rdf-syntax-ns#"
   xmlns:svg="http://www.w3.org/2000/svg"
   xmlns="http://www.w3.org/2000/svg"
   xmlns:sodipodi="http://sodipodi.sourceforge.net/DTD/sodipodi-0.dtd"
   xmlns:inkscape="http://www.inkscape.org/namespaces/inkscape"
   width="32"
   height="32"
   viewBox="0 0 8.4666666 8.4666666"
   version="1.1"
   id="svg8"
   inkscape:version="0.92.5 (2060ec1f9f, 2020-04-08)"
   sodipodi:docname="check_bl.svg">
  <defs
     id="defs2" />
  <sodipodi:namedview
     id="base"
     pagecolor="#ffffff"
     bordercolor="#666666"
     borderopacity="1.0"
     inkscape:pageopacity="0.0"
     inkscape:pageshadow="2"
     inkscape:zoom="16"
     inkscape:cx="-0.56749186"
     inkscape:cy="10.873293"
     inkscape:document-units="mm"
     inkscape:current-layer="svg8"
     showgrid="false"
     units="px"
     inkscape:window-width="3440"
     inkscape:window-height="1403"
     inkscape:window-x="0"
     inkscape:window-y="264"
     inkscape:window-maximized="1">
    <sodipodi:guide
       position="8.4666666,0"
       orientation="-32,0"
       id="guide854"
       inkscape:locked="false" />
    <sodipodi:guide
       position="8.4666666,8.4666666"
       orientation="0,-32"
       id="guide856"
       inkscape:locked="false" />
    <sodipodi:guide
       position="0,8.4666814"
       orientation="32,0"
       id="guide858"
       inkscape:locked="false" />
  </sodipodi:namedview>
  <metadata
     id="metadata5">
    <rdf:RDF>
      <cc:Work
         rdf:about="">
        <dc:format>image/svg+xml</dc:format>
        <dc:type
           rdf:resource="http://purl.org/dc/dcmitype/StillImage" />
        <dc:title></dc:title>
      </cc:Work>
    </rdf:RDF>
  </metadata>
  <path
     id="path891"
     d="m 8.4666667,4.2333334 c 0,2.3288793 -1.8879177,4.216797 -4.216797,4.216797 -2.3288791,0 -4.21679698,-1.8879177 -4.21679698,-4.216797 0,-2.3288791 1.88791788,-4.21679698 4.21679698,-4.21679698 2.3288793,0 4.216797,1.88791788 4.216797,4.21679698 z m -4.7045511,2.23276 3.1285913,-3.1285913 c 0.1062363,-0.1062361 0.1062363,-0.2784957 0,-0.3847317 L 6.505975,2.5680387 c -0.1062357,-0.1062531 -0.2784955,-0.1062531 -0.3847486,0 L 3.5697411,5.1195069 2.378513,3.9282788 c -0.106236,-0.1062361 -0.2784956,-0.1062361 -0.3847486,0 L 1.6090326,4.3130105 c -0.106236,0.106236 -0.106236,0.2784956 0,0.3847317 l 1.7683342,1.7683339 c 0.1062531,0.1062537 0.2784957,0.1062537 0.3847488,1.73e-5 z"
     inkscape:connector-curvature="0"
     style="stroke-width:0.01700321;fill:#8ad891;fill-opacity:1" />
</svg>
