<svg id="Calque_1" data-name="Calque 1" xmlns="http://www.w3.org/2000/svg" viewBox="0 0 32 32"><defs><style>.cls-1{fill:#e3e3e3;}</style></defs><title>check_l</title><path class="cls-1" d="M27.57,23.56a13.57,13.57,0,0,1-4.9,4.91A13,13,0,0,1,16,30.28a13,13,0,0,1-6.72-1.81,13.6,13.6,0,0,1-4.91-4.91,13,13,0,0,1-1.81-6.72,13,13,0,0,1,1.81-6.72,13.57,13.57,0,0,1,4.91-4.9,13.32,13.32,0,0,1,13.44,0,13.54,13.54,0,0,1,4.9,4.9,13.32,13.32,0,0,1,0,13.44ZM24.35,14a.73.73,0,0,0,.27-.6.71.71,0,0,0-.27-.59l-1.19-1.25a.86.86,0,0,0-1.25,0l-8.13,8.13L10,15.87a.88.88,0,0,0-.63-.27.86.86,0,0,0-.62.27L7.55,17.11a.74.74,0,0,0-.27.6.71.71,0,0,0,.27.59l5.63,5.64a.8.8,0,0,0,1.2,0Z"/></svg>