<svg id="Calque_1" data-name="Calque 1" xmlns="http://www.w3.org/2000/svg" viewBox="0 0 32 32"><defs><style>.cls-1{fill:#e3e3e3;}</style></defs><title>clipboard_l</title><path class="cls-1" d="M22.85,6.74a2.39,2.39,0,0,1,2.41,2.41V26.8a2.39,2.39,0,0,1-2.41,2.41H8.41A2.39,2.39,0,0,1,6,26.8V9.15A2.39,2.39,0,0,1,8.41,6.74h4a3.12,3.12,0,0,1,.95-2.26,3.16,3.16,0,0,1,4.52,0,3.12,3.12,0,0,1,.95,2.26Zm-12,8.43A1.2,1.2,0,0,0,12,14a1.17,1.17,0,0,0-.35-.85,1.22,1.22,0,0,0-1.71,0,1.17,1.17,0,0,0-.35.85,1.2,1.2,0,0,0,1.2,1.21Zm0,4.81a1.19,1.19,0,0,0,.86-.35,1.17,1.17,0,0,0,.35-.85,1.21,1.21,0,1,0-2.41,0,1.17,1.17,0,0,0,.35.85A1.19,1.19,0,0,0,10.81,20Zm0,4.82A1.2,1.2,0,0,0,12,23.59a1.17,1.17,0,0,0-.35-.85,1.22,1.22,0,0,0-1.71,0,1.17,1.17,0,0,0-.35.85,1.2,1.2,0,0,0,1.2,1.21ZM22.05,14.36v-.8a.45.45,0,0,0-.4-.4H14.43a.37.37,0,0,0-.28.13.37.37,0,0,0-.12.27v.8a.41.41,0,0,0,.4.4h7.22a.37.37,0,0,0,.27-.12A.37.37,0,0,0,22.05,14.36Zm0,4.82v-.8a.37.37,0,0,0-.13-.28.37.37,0,0,0-.27-.12H14.43a.41.41,0,0,0-.4.4v.8a.41.41,0,0,0,.12.28.39.39,0,0,0,.28.12h7.22a.37.37,0,0,0,.27-.12A.38.38,0,0,0,22.05,19.18Zm0,4.81v-.8a.45.45,0,0,0-.4-.4H14.43a.37.37,0,0,0-.28.13.37.37,0,0,0-.12.27V24a.39.39,0,0,0,.12.28.41.41,0,0,0,.28.13h7.22a.39.39,0,0,0,.27-.13A.37.37,0,0,0,22.05,24ZM15.63,5.54a1.2,1.2,0,0,0-1.2,1.2,1.2,1.2,0,1,0,2.05-.85A1.13,1.13,0,0,0,15.63,5.54Z"/></svg>