<svg id="Calque_1" data-name="Calque 1" xmlns="http://www.w3.org/2000/svg" viewBox="0 0 32 32"><defs><style>.cls-1{fill:#e3e3e3;}</style></defs><title>close_l</title><path class="cls-1" d="M18.83,14.71l6.92,6.92a2,2,0,0,1,.62,1.52,2.32,2.32,0,0,1-.62,1.6l-1.52,1.52a2.33,2.33,0,0,1-1.6.62,2.11,2.11,0,0,1-1.52-.62l-6.92-6.93L7.26,26.27a2.07,2.07,0,0,1-1.52.62,2.32,2.32,0,0,1-1.59-.62L2.62,24.75A2.37,2.37,0,0,1,2,23.15a2.07,2.07,0,0,1,.62-1.52l6.93-6.92L2.62,7.78A2.07,2.07,0,0,1,2,6.26a2.37,2.37,0,0,1,.62-1.6L4.15,3.14a2.32,2.32,0,0,1,1.59-.62,2.07,2.07,0,0,1,1.52.62l6.93,6.93,6.92-6.93a2.11,2.11,0,0,1,1.52-.62,2.33,2.33,0,0,1,1.6.62l1.52,1.52a2.32,2.32,0,0,1,.62,1.6,2,2,0,0,1-.62,1.52Z"/></svg>