<svg id="Calque_1" data-name="Calque 1" xmlns="http://www.w3.org/2000/svg" viewBox="0 0 32 32"><defs><style>.cls-1{fill:#e3e3e3;}</style></defs><title>code_l</title><path class="cls-1" d="M9.15,23.09a.43.43,0,0,1-.36.18.65.65,0,0,1-.4-.14L2,17.11a.55.55,0,0,1-.18-.4.53.53,0,0,1,.18-.4l6.43-6a.64.64,0,0,1,.4-.13.45.45,0,0,1,.36.17l1.92,2.06a.46.46,0,0,1,.15.4.54.54,0,0,1-.15.36L7,16.71l4.06,3.57a.54.54,0,0,1,.15.35.47.47,0,0,1-.15.41Zm5.09,5a.43.43,0,0,0,.4,0,.71.71,0,0,0,.27-.34L21,6.75a.41.41,0,0,0,0-.4.64.64,0,0,0-.33-.27l-2.72-.8a.53.53,0,0,0-.41.07.63.63,0,0,0-.26.33l-6.07,21a.4.4,0,0,0,0,.4.64.64,0,0,0,.33.27Zm9.5-5a.65.65,0,0,1-.4.14.43.43,0,0,1-.36-.18L21.06,21a.5.5,0,0,1-.15-.41.54.54,0,0,1,.15-.35l4.07-3.57-4.07-3.57a.54.54,0,0,1-.15-.36.48.48,0,0,1,.15-.4L23,10.32a.57.57,0,0,1,.38-.17.6.6,0,0,1,.38.13l6.43,6a.53.53,0,0,1,.18.4.55.55,0,0,1-.18.4Z"/></svg>