<svg id="Calque_1" data-name="Calque 1" xmlns="http://www.w3.org/2000/svg" viewBox="0 0 32 32"><defs><style>.cls-1{fill:#e3e3e3;}</style></defs><title>cogs_l</title><path class="cls-1" d="M20.76,18.08a.45.45,0,0,1-.33.43l-2.25.35a6.11,6.11,0,0,1-.46,1.1c.41.58.84,1.11,1.3,1.66a.48.48,0,0,1,.1.29.34.34,0,0,1-.1.27c-.29.39-1.91,2.16-2.32,2.16a.63.63,0,0,1-.31-.1l-1.66-1.3a6.06,6.06,0,0,1-1.12.44,13.74,13.74,0,0,1-.33,2.24.45.45,0,0,1-.43.35H10.16a.46.46,0,0,1-.44-.36L9.39,23.4A8.48,8.48,0,0,1,8.31,23L6.6,24.24a.43.43,0,0,1-.29.1.49.49,0,0,1-.3-.12c-.38-.35-2.08-1.89-2.08-2.31a.5.5,0,0,1,.1-.28c.42-.54.85-1.08,1.27-1.64a7.75,7.75,0,0,1-.51-1.19L2.6,18.45A.41.41,0,0,1,2.25,18V15.36a.45.45,0,0,1,.33-.44l2.24-.34a7.52,7.52,0,0,1,.46-1.1A18.59,18.59,0,0,0,4,11.82a.63.63,0,0,1-.1-.29.43.43,0,0,1,.1-.29c.29-.39,1.91-2.14,2.33-2.14a.55.55,0,0,1,.31.1l1.66,1.3A7.2,7.2,0,0,1,9.39,10a16.65,16.65,0,0,1,.33-2.23.48.48,0,0,1,.44-.35h2.69a.45.45,0,0,1,.43.36L13.61,10a6.1,6.1,0,0,1,1.09.45L16.41,9.2a.43.43,0,0,1,.29-.1.48.48,0,0,1,.3.11c.37.35,2.08,1.91,2.08,2.32a.45.45,0,0,1-.1.27c-.42.56-.85,1.09-1.26,1.65a9.2,9.2,0,0,1,.49,1.18l2.2.34a.45.45,0,0,1,.35.43ZM11.5,13a3.7,3.7,0,1,0,3.71,3.7A3.71,3.71,0,0,0,11.5,13ZM30,10.33c0,.21-1.86.42-2.15.44a3.35,3.35,0,0,1-.44.76,13.5,13.5,0,0,1,.74,2,.1.1,0,0,1-.05.1c-.18.1-1.73,1-1.8,1A9.54,9.54,0,0,1,24.89,13c-.14,0-.28,0-.43,0s-.29,0-.43,0a9.54,9.54,0,0,1-1.42,1.66c-.07,0-1.62-.93-1.79-1a.11.11,0,0,1-.06-.1,14.39,14.39,0,0,1,.74-2,3.35,3.35,0,0,1-.44-.76c-.29,0-2.15-.23-2.15-.44v-2c0-.21,1.86-.42,2.15-.45a3.78,3.78,0,0,1,.44-.75,14.39,14.39,0,0,1-.74-2,.1.1,0,0,1,.06-.1c.17-.09,1.72-1,1.79-1A9.1,9.1,0,0,1,24,5.64c.14,0,.28,0,.43,0s.29,0,.43,0A13.8,13.8,0,0,1,26.22,4l.09,0c.07,0,1.62.91,1.8,1a.11.11,0,0,1,.05.1,13.5,13.5,0,0,1-.74,2,3.78,3.78,0,0,1,.44.75c.29,0,2.15.24,2.15.45Zm0,14.8c0,.22-1.86.42-2.15.45a3.28,3.28,0,0,1-.44.75,13.61,13.61,0,0,1,.74,2,.11.11,0,0,1-.05.1c-.18.1-1.73,1-1.8,1a9.27,9.27,0,0,1-1.42-1.67,3.1,3.1,0,0,1-.86,0,9.27,9.27,0,0,1-1.42,1.67c-.07,0-1.62-.93-1.79-1a.11.11,0,0,1-.06-.1,14,14,0,0,1,.74-2,3.28,3.28,0,0,1-.44-.75c-.29,0-2.15-.23-2.15-.45v-2c0-.22,1.86-.42,2.15-.45a3.78,3.78,0,0,1,.44-.75,14,14,0,0,1-.74-2,.11.11,0,0,1,.06-.1c.17-.08,1.72-1,1.79-1A9.1,9.1,0,0,1,24,20.45a3.1,3.1,0,0,1,.86,0,13,13,0,0,1,1.33-1.62l.09,0c.07,0,1.62.91,1.8,1a.12.12,0,0,1,.05.1,13.61,13.61,0,0,1-.74,2,3.78,3.78,0,0,1,.44.75c.29,0,2.15.23,2.15.45ZM24.46,7.46a1.85,1.85,0,0,0,0,3.7,1.85,1.85,0,0,0,1.85-1.85A1.87,1.87,0,0,0,24.46,7.46Zm0,14.81a1.85,1.85,0,1,0,1.85,1.85A1.87,1.87,0,0,0,24.46,22.27Z"/></svg>