<?xml version="1.0" encoding="UTF-8" standalone="no"?>
<!-- Created with Inkscape (http://www.inkscape.org/) -->

<svg
   xmlns:dc="http://purl.org/dc/elements/1.1/"
   xmlns:cc="http://creativecommons.org/ns#"
   xmlns:rdf="http://www.w3.org/1999/02/22-rdf-syntax-ns#"
   xmlns:svg="http://www.w3.org/2000/svg"
   xmlns="http://www.w3.org/2000/svg"
   xmlns:sodipodi="http://sodipodi.sourceforge.net/DTD/sodipodi-0.dtd"
   xmlns:inkscape="http://www.inkscape.org/namespaces/inkscape"
   width="32"
   height="32"
   viewBox="0 0 8.4666666 8.4666666"
   version="1.1"
   id="svg8"
   inkscape:version="0.92.5 (2060ec1f9f, 2020-04-08)"
   sodipodi:docname="color-settings_bl.svg">
  <defs
     id="defs2">
    <style
       id="style1399">.cls-1{fill:#e3e3e3;}</style>
    <style
       id="style1399-4">.cls-1{fill:#e3e3e3;}</style>
    <style
       id="style1399-8">.cls-1{fill:#e3e3e3;}</style>
    <style
       id="style1399-4-5">.cls-1{fill:#e3e3e3;}</style>
    <style
       id="style1399-9">.cls-1{fill:#e3e3e3;}</style>
    <style
       id="style1399-4-6">.cls-1{fill:#e3e3e3;}</style>
    <style
       id="style1399-8-4">.cls-1{fill:#e3e3e3;}</style>
    <style
       id="style1399-4-5-3">.cls-1{fill:#e3e3e3;}</style>
    <style
       id="style1399-88">.cls-1{fill:#e3e3e3;}</style>
    <style
       id="style1399-3">.cls-1{fill:#e3e3e3;}</style>
    <style
       id="style1399-94">.cls-1{fill:#e3e3e3;}</style>
    <style
       id="style1399-5">.cls-1{fill:#e3e3e3;}</style>
    <style
       id="style1399-46">.cls-1{fill:#e3e3e3;}</style>
    <style
       id="style1399-4-2">.cls-1{fill:#e3e3e3;}</style>
    <style
       id="style1399-8-5">.cls-1{fill:#e3e3e3;}</style>
    <style
       id="style1399-4-5-8">.cls-1{fill:#e3e3e3;}</style>
    <style
       id="style1399-9-6">.cls-1{fill:#e3e3e3;}</style>
    <style
       id="style1399-4-6-2">.cls-1{fill:#e3e3e3;}</style>
    <style
       id="style1399-8-4-8">.cls-1{fill:#e3e3e3;}</style>
    <style
       id="style1399-4-5-3-4">.cls-1{fill:#e3e3e3;}</style>
    <style
       id="style1399-88-7">.cls-1{fill:#e3e3e3;}</style>
    <style
       id="style1399-3-2">.cls-1{fill:#e3e3e3;}</style>
    <style
       id="style1399-94-4">.cls-1{fill:#e3e3e3;}</style>
    <style
       id="style1399-5-0">.cls-1{fill:#e3e3e3;}</style>
  </defs>
  <sodipodi:namedview
     id="base"
     pagecolor="#ffffff"
     bordercolor="#666666"
     borderopacity="1.0"
     inkscape:pageopacity="0.0"
     inkscape:pageshadow="2"
     inkscape:zoom="8"
     inkscape:cx="-5.0944794"
     inkscape:cy="6.9815229"
     inkscape:document-units="mm"
     inkscape:current-layer="svg8"
     showgrid="false"
     units="px"
     inkscape:window-width="1920"
     inkscape:window-height="1043"
     inkscape:window-x="0"
     inkscape:window-y="120"
     inkscape:window-maximized="1">
    <sodipodi:guide
       position="8.4666666,0"
       orientation="-32,0"
       id="guide854"
       inkscape:locked="false" />
    <sodipodi:guide
       position="8.5622298,8.4657622"
       orientation="0,-32"
       id="guide856"
       inkscape:locked="false" />
    <sodipodi:guide
       position="0,8.4666814"
       orientation="32,0"
       id="guide858"
       inkscape:locked="false" />
  </sodipodi:namedview>
  <metadata
     id="metadata5">
    <rdf:RDF>
      <cc:Work
         rdf:about="">
        <dc:format>image/svg+xml</dc:format>
        <dc:type
           rdf:resource="http://purl.org/dc/dcmitype/StillImage" />
        <dc:title></dc:title>
      </cc:Work>
    </rdf:RDF>
  </metadata>
  <path
     style="fill:#e3e3e3;fill-opacity:1;stroke-width:0.06247763"
     d="M 15.607422,0.02148438 C 14.67671,0.04341204 13.728953,0.14518399 12.769531,0.33203125 6.5592538,1.5440974 1.5546405,6.5350296 0.33007812,12.726562 -1.9791453,24.397496 8.536632,33.101042 16.474609,31.892578 c -0.250074,-0.357227 -0.423673,-0.776662 -0.5,-1.228516 -1.061517,0.398094 -2.267021,0.221877 -3.027343,-0.685546 -0.0011,-0.0013 0.0011,-0.0065 0,-0.0078 -0.0015,-0.0018 -0.0044,0.0018 -0.0059,0 -0.51621,-0.618275 -1.165422,-1.410624 -1.574218,-2.517578 -5e-6,-0.0026 -5e-6,-0.0052 0,-0.0078 -0.39375,-1.072985 0.0438,-2.239306 0.916015,-2.966796 -0.877441,-0.725623 -1.315987,-1.892054 -0.916015,-2.97461 0.410385,-1.115867 1.065201,-1.908812 1.580078,-2.52539 0.756724,-0.90294 1.970106,-1.078758 3.027343,-0.685547 0.184486,-1.112136 0.936079,-2.076446 2.103516,-2.28125 0.0026,-5e-6 0.0052,-5e-6 0.0078,0 0.951782,-0.162666 1.930967,-0.161539 2.90039,0 0.0052,-2e-5 0.01042,-2e-5 0.01563,0 1.142464,0.19868 1.920524,1.163775 2.111328,2.28125 0.324007,-0.12163 0.64945,-0.183436 0.988281,-0.177735 0.134585,-0.154114 0.257394,-0.269007 0.427735,-0.384765 0.03287,-0.644324 0.248804,-1.261518 0.804687,-1.710938 0.47217,-0.388097 0.982026,-0.670449 1.5,-0.865234 0.0046,-1.5e-5 0.0091,-1.5e-5 0.01367,0 0.524186,-0.192972 1.104653,-0.188171 1.625,-0.0059 0.09232,0.03234 0.140449,0.140264 0.228516,0.183593 0.587453,-0.286135 1.235524,-0.403998 1.845703,-0.177734 0.002,-3e-6 0.0039,-3e-6 0.0059,0 0.511881,0.190927 0.998437,0.470033 1.4375,0.820312 1.97e-4,-0.01462 0.0039,-0.02831 0.0039,-0.04297 C 31.965841,7.0082722 24.604304,-0.19048306 15.607422,0.02148438 Z M 16,4.0175781 c 1.105854,0 1.998047,0.8941465 1.998047,2 0,1.1058539 -0.892193,1.9980469 -1.998047,1.9980469 -1.105853,0 -2,-0.892193 -2,-1.9980469 0,-1.1058535 0.894147,-2 2,-2 z M 8.0019531,8.015625 c 1.1058535,0 1.9999999,0.8941461 1.9999999,2 0,1.105855 -0.8941464,2 -1.9999999,2 -1.1058542,0 -1.9980469,-0.894145 -1.9980469,-2 0,-1.1058539 0.8921927,-2 1.9980469,-2 z m 15.9941409,0 c 1.105854,0 2,0.8941461 2,2 0,1.105855 -0.894146,2 -2,2 -1.105854,0 -1.998047,-0.894145 -1.998047,-2 0,-1.1058539 0.892193,-2 1.998047,-2 z M 6.0039062,16.013672 c 1.1058539,0 1.9980469,0.894145 1.9980469,2 0,1.105854 -0.892193,1.998047 -1.9980469,1.998047 -1.1058549,0 -1.9999999,-0.892193 -2,-1.998047 0,-1.105855 0.8941451,-2 2,-2 z"
     transform="scale(0.26458333)"
     id="path5532"
     inkscape:connector-curvature="0"
     sodipodi:nodetypes="scccccccccccccccccccccccccccccsssssssssssssssssssss" />
  <path
     id="path5781"
     d="m 7.4695143,5.9854152 -0.063602,0.1109226 c -0.023269,0.041072 -0.07291,0.058111 -0.117121,0.041835 C 7.1972665,6.104035 7.113498,6.0551781 7.0398127,5.9939056 7.0041327,5.9644093 6.9948255,5.9124617 7.0180947,5.8721364 L 7.0816969,5.7612137 C 7.0281781,5.6991657 6.9862936,5.6270348 6.9583707,5.5486933 H 6.8303914 c -0.046538,0 -0.086871,-0.033374 -0.094628,-0.079893 -0.015512,-0.093078 -0.016289,-0.1908036 0,-0.2877654 0.00776,-0.046477 0.048089,-0.080657 0.094628,-0.080657 H 6.9583708 C 6.986293,5.0220312 7.0281779,4.9499062 7.0816969,4.8878523 L 7.0180947,4.7769414 c -0.023269,-0.040367 -0.014737,-0.092302 0.021718,-0.1217751 0.073685,-0.061273 0.1582296,-0.1101412 0.2489787,-0.1442676 0.044212,-0.016276 0.093852,0.00118 0.1171209,0.041835 l 0.063602,0.110905 c 0.081442,-0.014748 0.1644349,-0.014748 0.2458766,0 l 0.063602,-0.110905 c 0.023269,-0.04113 0.07291,-0.058229 0.117121,-0.041835 0.091525,0.034138 0.1752933,0.082995 0.2489786,0.1442676 0.03568,0.029496 0.044987,0.081438 0.021719,0.1217751 l -0.063602,0.1109168 c 0.053519,0.062054 0.095403,0.1341789 0.1233261,0.2125263 h 0.1279796 c 0.046538,0 0.086871,0.033374 0.094628,0.079887 0.015513,0.093078 0.016289,0.1908036 0,0.2877596 -0.00776,0.046477 -0.04809,0.080668 -0.094628,0.080668 H 8.2265351 c -0.027922,0.078342 -0.069807,0.1504724 -0.1233262,0.2125204 l 0.063602,0.1109168 c 0.023269,0.040366 0.014738,0.092302 -0.021718,0.1217692 C 8.0714077,6.055184 7.9868636,6.1040527 7.8961144,6.1381791 7.8519028,6.154455 7.8022624,6.1370039 7.7789935,6.0962849 L 7.7153913,5.9853682 c -0.080666,0.014748 -0.1644347,0.014748 -0.2458766,0 z M 7.3880728,5.5293386 C 7.6866925,5.7589339 8.0271964,5.4184277 7.7976081,5.1198039 7.4989886,4.8894388 7.1584847,5.2307206 7.3880728,5.5293386 Z M 6.4937654,6.7230465 6.7551546,6.8533533 c 0.078339,0.045008 0.1124671,0.1403896 0.081442,0.2257115 C 6.7675646,7.266766 6.6318289,7.4389552 6.506176,7.5894276 6.448779,7.6584616 6.3494977,7.6755256 6.2711587,7.6305576 L 6.0454483,7.5002629 C 5.9213467,7.606526 5.7770784,7.6910665 5.6196247,7.7461341 v 0.2606135 c 0,0.089976 -0.064378,0.1675415 -0.1528004,0.1830476 -0.1908062,0.03261 -0.39092,0.034138 -0.588707,0 -0.089198,-0.015512 -0.155127,-0.092296 -0.155127,-0.1830476 V 7.7461341 C 4.5655364,7.6903144 4.4212681,7.606526 4.2971664,7.5002629 L 4.0714569,7.6297882 C 3.9938933,7.6747965 3.8938361,7.657698 3.8364393,7.5886578 3.7107864,7.4381855 3.5781526,7.2659963 3.5091212,7.0790707 3.4780955,6.9945243 3.5122236,6.8991196 3.5905629,6.8533592 L 3.8488494,6.7230524 c -0.03025,-0.1621123 -0.03025,-0.3288664 0,-0.4917542 L 3.5905629,6.1002099 C 3.5122237,6.0552016 3.4773201,5.9598204 3.5091212,5.875274 3.5781526,5.6875728 3.7107864,5.5153778 3.8364393,5.3649054 3.8938361,5.2958711 3.9931176,5.2788137 4.0714569,5.3238338 L 4.2971664,5.4541406 C 4.4212681,5.3478774 4.5655364,5.263337 4.7229903,5.2082693 V 4.9468802 c 0,-0.089206 0.063602,-0.1667659 0.1520245,-0.1822779 0.1908061,-0.03261 0.3916956,-0.034138 0.5894826,-0.00118 0.089198,0.015512 0.1551273,0.092302 0.1551273,0.1830476 v 0.2606135 c 0.1574537,0.055879 0.301722,0.1396198 0.4258236,0.2458771 l 0.2257099,-0.130296 c 0.077563,-0.04495 0.1776206,-0.027969 0.2350173,0.04113 0.1256529,0.1504723 0.257511,0.3226615 0.3265423,0.5103627 0.031026,0.084546 7.815e-4,0.1799452 -0.077563,0.2257115 L 6.4937654,6.2301759 c 0.03025,0.1628879 0.03025,0.329642 0,0.4925298 z M 5.5816184,6.8866982 C 6.0407944,6.2894623 5.3590112,5.607686 4.761772,6.0668591 4.3025959,6.664095 4.9843792,7.3458772 5.5816184,6.8866982 Z M 7.4695143,8.303785 7.4059123,8.4147018 c -0.023269,0.04113 -0.07291,0.05817 -0.117121,0.041894 C 7.1972665,8.4224578 7.113498,8.3736126 7.0398127,8.3123284 7.0041327,8.282832 6.9948255,8.2308903 7.0180947,8.1905591 L 7.0816969,8.0796423 C 7.0281781,8.0175943 6.9862936,7.9454576 6.9583707,7.8671219 H 6.8303914 c -0.046538,0 -0.086871,-0.033374 -0.094628,-0.079893 -0.015512,-0.093084 -0.016289,-0.1908095 0,-0.2877596 0.00776,-0.046536 0.048089,-0.080668 0.094628,-0.080668 H 6.9583708 C 6.986293,7.3404657 7.0281779,7.2683289 7.0816969,7.206275 L 7.0180947,7.0953641 C 6.9948257,7.0549981 7.0033577,7.0030681 7.0398127,6.973589 7.1134977,6.912317 7.1980423,6.8634596 7.2887914,6.8293214 c 0.044212,-0.016276 0.093852,0.00118 0.1171209,0.041894 l 0.063602,0.1109109 c 0.081442,-0.014748 0.1644349,-0.014748 0.2458766,0 l 0.063602,-0.1109109 c 0.023269,-0.04113 0.07291,-0.058229 0.117121,-0.041894 0.091525,0.034138 0.1752933,0.082995 0.2489786,0.1442676 0.03568,0.029496 0.044987,0.081444 0.021719,0.1217751 l -0.063602,0.1109168 c 0.053519,0.062054 0.095403,0.1341906 0.1233261,0.2125263 h 0.1279796 c 0.046538,0 0.086871,0.033374 0.094628,0.079893 0.015513,0.093072 0.016289,0.1908036 0,0.2877596 -0.00776,0.046536 -0.04809,0.080668 -0.094628,0.080668 H 8.2265351 c -0.027922,0.07833 -0.069807,0.1504724 -0.1233262,0.2125204 l 0.063602,0.1109168 c 0.023269,0.040366 0.014738,0.092302 -0.021718,0.1217692 -0.073685,0.061284 -0.1582295,0.1101471 -0.2489787,0.1442735 -0.044212,0.016276 -0.093852,-0.00118 -0.1171209,-0.041894 L 7.7153914,8.3037968 c -0.080666,0.014748 -0.1644347,0.014748 -0.2458766,0 z M 7.3880728,7.8469387 C 7.6866925,8.0765282 8.0271964,7.7360278 7.7976081,7.4374099 7.4989886,7.2078145 7.1584847,7.5483149 7.3880728,7.8469387 Z"
     inkscape:connector-curvature="0"
     style="fill:#e3e3e3;fill-opacity:1;stroke-width:0.00775635" />
</svg>
