<?xml version="1.0" encoding="UTF-8" standalone="no"?>
<!-- Created with Inkscape (http://www.inkscape.org/) -->

<svg
   xmlns:dc="http://purl.org/dc/elements/1.1/"
   xmlns:cc="http://creativecommons.org/ns#"
   xmlns:rdf="http://www.w3.org/1999/02/22-rdf-syntax-ns#"
   xmlns:svg="http://www.w3.org/2000/svg"
   xmlns="http://www.w3.org/2000/svg"
   xmlns:sodipodi="http://sodipodi.sourceforge.net/DTD/sodipodi-0.dtd"
   xmlns:inkscape="http://www.inkscape.org/namespaces/inkscape"
   width="32"
   height="32"
   viewBox="0 0 8.4666666 8.4666666"
   version="1.1"
   id="svg8"
   inkscape:version="0.92.5 (2060ec1f9f, 2020-04-08)"
   sodipodi:docname="color-settings_sl.svg">
  <defs
     id="defs2">
    <style
       id="style1399">.cls-1{fill:#e3e3e3;}</style>
    <style
       id="style1399-4">.cls-1{fill:#e3e3e3;}</style>
    <style
       id="style1399-8">.cls-1{fill:#e3e3e3;}</style>
    <style
       id="style1399-4-5">.cls-1{fill:#e3e3e3;}</style>
    <style
       id="style1399-9">.cls-1{fill:#e3e3e3;}</style>
    <style
       id="style1399-4-6">.cls-1{fill:#e3e3e3;}</style>
    <style
       id="style1399-8-4">.cls-1{fill:#e3e3e3;}</style>
    <style
       id="style1399-4-5-3">.cls-1{fill:#e3e3e3;}</style>
    <style
       id="style1399-88">.cls-1{fill:#e3e3e3;}</style>
    <style
       id="style1399-3">.cls-1{fill:#e3e3e3;}</style>
    <style
       id="style1399-94">.cls-1{fill:#e3e3e3;}</style>
    <style
       id="style1399-5">.cls-1{fill:#e3e3e3;}</style>
  </defs>
  <sodipodi:namedview
     id="base"
     pagecolor="#ffffff"
     bordercolor="#666666"
     borderopacity="1.0"
     inkscape:pageopacity="0.0"
     inkscape:pageshadow="2"
     inkscape:zoom="8"
     inkscape:cx="-5.5227266"
     inkscape:cy="19.533081"
     inkscape:document-units="mm"
     inkscape:current-layer="svg8"
     showgrid="false"
     units="px"
     inkscape:window-width="1920"
     inkscape:window-height="1043"
     inkscape:window-x="0"
     inkscape:window-y="120"
     inkscape:window-maximized="1">
    <sodipodi:guide
       position="8.4666666,0"
       orientation="-32,0"
       id="guide854"
       inkscape:locked="false" />
    <sodipodi:guide
       position="8.5622298,8.4657622"
       orientation="0,-32"
       id="guide856"
       inkscape:locked="false" />
    <sodipodi:guide
       position="0,8.4666814"
       orientation="32,0"
       id="guide858"
       inkscape:locked="false" />
  </sodipodi:namedview>
  <metadata
     id="metadata5">
    <rdf:RDF>
      <cc:Work
         rdf:about="">
        <dc:format>image/svg+xml</dc:format>
        <dc:type
           rdf:resource="http://purl.org/dc/dcmitype/StillImage" />
        <dc:title></dc:title>
      </cc:Work>
    </rdf:RDF>
  </metadata>
  <path
     style="fill:#e3e3e3;fill-opacity:1;stroke-width:0.06247763"
     d="M 15.601562 0.00390625 C 14.670851 0.025833915 13.723094 0.12760586 12.763672 0.31445312 C 6.5533945 1.5265193 1.5487811 6.5174515 0.32421875 12.708984 C -1.9874546 24.392301 8.553233 33.101903 16.494141 31.871094 C 16.838848 31.817547 17.156238 31.713496 17.451172 31.574219 C 17.015491 31.441552 16.611284 31.201166 16.285156 30.849609 A 2.2502249 2.2502249 0 0 1 16.277344 30.849609 C 15.224951 29.70772 14.423156 28.332123 13.951172 26.818359 A 2.2502249 2.2502249 0 0 1 13.945312 26.789062 C 13.609233 25.654914 14.120496 24.324522 15.169922 23.724609 L 15.244141 23.681641 L 15.169922 23.636719 C 14.131795 23.043591 13.583603 21.711206 13.951172 20.542969 C 14.420549 19.036603 15.216822 17.670426 16.261719 16.535156 C 17.092219 15.616843 18.519586 15.428921 19.539062 16.011719 A 2.2502249 2.2502249 0 0 1 19.546875 16.019531 L 19.636719 16.070312 L 19.636719 15.966797 C 19.636719 14.718161 20.515443 13.649011 21.716797 13.382812 C 23.204567 13.050278 24.78293 13.033603 26.345703 13.382812 C 27.546266 13.649717 28.427734 14.717261 28.427734 15.966797 L 28.427734 16.054688 L 28.509766 16.011719 L 28.509766 16.019531 C 29.621034 15.372374 30.966271 15.637255 31.779297 16.513672 A 2.2502249 2.2502249 0 0 1 31.787109 16.513672 C 31.831294 16.561613 31.868798 16.615303 31.912109 16.664062 C 31.958343 16.420239 31.987564 16.170157 31.988281 15.914062 C 31.959981 6.9906941 24.598445 -0.20806118 15.601562 0.00390625 z M 15.994141 4 C 17.099995 4 17.992188 4.8941465 17.992188 6 C 17.992188 7.1058539 17.099995 7.9980469 15.994141 7.9980469 C 14.888287 7.9980469 13.994141 7.1058539 13.994141 6 C 13.994141 4.8941465 14.888287 4 15.994141 4 z M 7.9960938 7.9980469 C 9.1019472 7.9980469 9.9960938 8.892193 9.9960938 9.9980469 C 9.9960938 11.103902 9.1019472 11.998047 7.9960938 11.998047 C 6.8902395 11.998047 5.9980469 11.103902 5.9980469 9.9980469 C 5.9980469 8.892193 6.8902395 7.9980469 7.9960938 7.9980469 z M 23.990234 7.9980469 C 25.096089 7.9980469 25.990234 8.892193 25.990234 9.9980469 C 25.990234 11.103902 25.096089 11.998047 23.990234 11.998047 C 22.884381 11.998047 21.992188 11.103902 21.992188 9.9980469 C 21.992188 8.892193 22.884381 7.9980469 23.990234 7.9980469 z M 5.9980469 15.996094 C 7.1039007 15.996094 7.9960937 16.890239 7.9960938 17.996094 C 7.9960938 19.101948 7.1039007 19.994141 5.9980469 19.994141 C 4.8921919 19.994141 3.9980469 19.101948 3.9980469 17.996094 C 3.9980469 16.890239 4.8921919 15.996094 5.9980469 15.996094 z "
     transform="scale(0.26458333)"
     id="path5532" />
  <path
     id="path5636"
     d="M 8.4089194,6.7938446 8.0313636,6.5758245 c 0.038109,-0.2056225 0.038109,-0.416553 0,-0.6221703 L 8.4089194,5.7356237 C 8.4523469,5.7107974 8.4718454,5.6594099 8.4576648,5.6115491 8.3592877,5.296031 8.1917804,5.0106473 7.9728692,4.7731245 7.9391905,4.7368199 7.8842407,4.7279385 7.8416993,4.7527129 L 7.4641433,4.9707382 C 7.3054991,4.8342503 7.122925,4.7287799 6.9252844,4.6596556 V 4.2244932 c 0,-0.049601 -0.034565,-0.093063 -0.08331,-0.1036942 -0.3252653,-0.072682 -0.6585072,-0.069135 -0.9678194,0 C 5.82541,4.131394 5.790845,4.174841 5.790845,4.2244932 V 4.6605385 C 5.5940896,4.7305561 5.4115155,4.8360214 5.2519849,4.9716211 L 4.8753154,4.753601 C 4.8318874,4.7287747 4.7778243,4.7367731 4.7441457,4.7740127 4.5252341,5.0106473 4.357727,5.296031 4.2593497,5.6124372 c -0.015067,0.047887 0.00532,0.099264 0.048745,0.1240747 L 4.685651,5.9545423 c -0.03811,0.2056121 -0.03811,0.4165479 0,0.6221652 L 4.3080951,6.7947328 c -0.043428,0.024826 -0.062926,0.076224 -0.048745,0.1240798 0.098377,0.3155178 0.2658844,0.6008968 0.484796,0.8384248 0.033679,0.036305 0.088628,0.045186 0.1311697,0.020412 L 5.2528712,7.5596238 c 0.1586443,0.1364878 0.3412184,0.2419531 0.5388591,0.3110877 v 0.4360449 c 0,0.049601 0.034565,0.093063 0.08331,0.1036947 0.3252653,0.072682 0.6585071,0.069135 0.9678194,0 0.048745,-0.010595 0.08331,-0.054042 0.08331,-0.1036947 V 7.8707115 C 7.122925,7.8006887 7.3054991,7.6952235 7.4650297,7.5596238 L 7.8425856,7.777649 C 7.8860136,7.802475 7.9400766,7.794477 7.9737554,7.757237 8.1926667,7.5206024 8.3601741,7.2352187 8.4585511,6.9188122 8.4718461,6.8700942 8.4523511,6.8186654 8.4089194,6.7938446 Z M 6.3580641,6.973763 c -0.3908502,0 -0.7090252,-0.3181773 -0.7090252,-0.7090262 0,-0.390849 0.318175,-0.7090263 0.7090252,-0.7090263 0.39085,0 0.7090251,0.3181773 0.7090251,0.7090263 0,0.3908489 -0.3181751,0.7090262 -0.7090251,0.7090262 z"
     inkscape:connector-curvature="0"
     style="fill:#e3e3e3;fill-opacity:1;stroke-width:0.00886281" />
</svg>
