<svg id="Calque_1" data-name="Calque 1" xmlns="http://www.w3.org/2000/svg" viewBox="0 0 32 32"><defs><style>.cls-1{fill:#e3e3e3;}.cls-2{fill:none;stroke:#e3e3e3;stroke-miterlimit:10;stroke-width:2px;}</style></defs><title>constraint_l</title><rect class="cls-1" x="3" y="1.11" width="10.52" height="10.52" rx="3.33"/><path class="cls-1" d="M10.19,22.48a1.34,1.34,0,0,1,1.33,1.33v3.86A1.34,1.34,0,0,1,10.19,29H6.33A1.34,1.34,0,0,1,5,27.67V23.81a1.34,1.34,0,0,1,1.33-1.33h3.86m0-2H6.33A3.33,3.33,0,0,0,3,23.81v3.86A3.33,3.33,0,0,0,6.33,31h3.86a3.33,3.33,0,0,0,3.33-3.33V23.81a3.33,3.33,0,0,0-3.33-3.33Z"/><polyline class="cls-2" points="8 6 23 6 23 9"/><path class="cls-1" d="M29,17a.29.29,0,0,1-.21.27l-1.38.21a4.09,4.09,0,0,1-.29.68c.25.37.52.69.8,1a.32.32,0,0,1,.07.19.25.25,0,0,1-.06.17c-.18.24-1.19,1.34-1.45,1.34a.37.37,0,0,1-.19-.07l-1-.81a4.48,4.48,0,0,1-.68.29,9.56,9.56,0,0,1-.22,1.39.27.27,0,0,1-.27.21H22.43a.28.28,0,0,1-.27-.23L22,20.3a5.58,5.58,0,0,1-.67-.28l-1.05.8a.28.28,0,0,1-.19.07.27.27,0,0,1-.19-.08,9.76,9.76,0,0,1-1.23-1.26.26.26,0,0,1-.05-.17.25.25,0,0,1,.06-.17c.25-.35.53-.68.78-1a4,4,0,0,1-.31-.74l-1.36-.2a.27.27,0,0,1-.22-.27V15.31a.29.29,0,0,1,.2-.27l1.39-.21a4.59,4.59,0,0,1,.29-.69c-.25-.35-.52-.69-.8-1a.29.29,0,0,1-.07-.18.28.28,0,0,1,.07-.17c.18-.25,1.19-1.34,1.44-1.34a.29.29,0,0,1,.19.08l1,.8A4.63,4.63,0,0,1,22,12a9.53,9.53,0,0,1,.21-1.39.28.28,0,0,1,.27-.21h1.66a.26.26,0,0,1,.27.23L24.57,12a5,5,0,0,1,.67.28l1.06-.8a.31.31,0,0,1,.18-.07.27.27,0,0,1,.19.08,9.3,9.3,0,0,1,1.24,1.27.28.28,0,0,1,.05.16.39.39,0,0,1-.06.18c-.26.34-.53.67-.79,1a4.56,4.56,0,0,1,.31.73l1.37.21a.27.27,0,0,1,.21.27Zm-5.74-2.76a1.92,1.92,0,1,0,1.92,1.92A1.92,1.92,0,0,0,23.26,14.24Z"/><path class="cls-1" d="M18.19,27.13l1.72,1.73a.74.74,0,0,1,0,1.05l-.44.45a.77.77,0,0,1-1.06,0L15.05,27H15V27l-.41-.41a.77.77,0,0,1,0-1.06l.41-.41V25h.07l3.34-3.33a.75.75,0,0,1,1.06,0l.44.43a.76.76,0,0,1,0,1.07l-1.72,1.71H22V23h2v4Z"/></svg>