<svg id="Calque_1" data-name="Calque 1" xmlns="http://www.w3.org/2000/svg" viewBox="0 0 32 32"><defs><style>.cls-1{fill:#e3e3e3;}</style></defs><title>copy_l</title><path class="cls-1" d="M19.05,28a1.17,1.17,0,0,1-.35.85,1.19,1.19,0,0,1-.85.35H4.2A1.2,1.2,0,0,1,3,28V9.55a1.15,1.15,0,0,1,.35-.85,1.13,1.13,0,0,1,.85-.35H7.81V23.19A2.83,2.83,0,0,0,10.62,26h8.43Zm0-24.48H10.62a1.17,1.17,0,0,0-.85.35,1.19,1.19,0,0,0-.35.85V23.19a1.15,1.15,0,0,0,.35.85,1.14,1.14,0,0,0,.85.36H24.27a1.21,1.21,0,0,0,1.2-1.21V10H20.25a1.2,1.2,0,0,1-1.2-1.2Zm2.76.35A1.19,1.19,0,0,0,21,3.53h-.31V8.35h4.82V8a1.19,1.19,0,0,0-.35-.85Z"/></svg>