<svg id="Calque_1" data-name="Calque 1" xmlns="http://www.w3.org/2000/svg" viewBox="0 0 32 32"><defs><style>.cls-1{fill:#e3e3e3;}</style></defs><title>createcam_l</title><path class="cls-1" d="M14.45,23a9.22,9.22,0,0,1,9.21-9.2,8.94,8.94,0,0,1,1,.06,6.47,6.47,0,0,0,1.18-.92A6.6,6.6,0,1,0,14.65,7.51a4.69,4.69,0,0,0-1-1.46A4.55,4.55,0,1,0,9.9,13.76a2.92,2.92,0,0,0-.32,1.32v1.71L5.4,12.62a.61.61,0,0,0-.47-.2.8.8,0,0,0-.26.05.67.67,0,0,0-.4.61V24.37a.68.68,0,0,0,.4.62.8.8,0,0,0,.26.05.61.61,0,0,0,.47-.2l4.18-4.18v1.72a3,3,0,0,0,3,3h2.2A9.3,9.3,0,0,1,14.45,23Zm.45-12.78a6.47,6.47,0,0,0,.93,1.88H14A4.69,4.69,0,0,0,14.9,10.21Z"/><path class="cls-1" d="M23.66,30.2A7.21,7.21,0,1,1,30.86,23,7.21,7.21,0,0,1,23.66,30.2Zm4.2-7.81a.6.6,0,0,0-.6-.6h-2.4v-2.4a.61.61,0,0,0-.6-.6H23.05a.61.61,0,0,0-.6.6v2.4h-2.4a.6.6,0,0,0-.6.6v1.2a.61.61,0,0,0,.6.61h2.4v2.4a.61.61,0,0,0,.6.6h1.21a.61.61,0,0,0,.6-.6V24.2h2.4a.61.61,0,0,0,.6-.61Z"/></svg>