<svg id="Calque_1" data-name="Calque 1" xmlns="http://www.w3.org/2000/svg" viewBox="0 0 32 32"><defs><style>.cls-1{fill:#e3e3e3;}</style></defs><title>detectexposure_l</title><rect class="cls-1" y="7" width="3" height="18"/><rect class="cls-1" x="5" y="7" width="6" height="18"/><path class="cls-1" d="M30.18,21.51l-1.9-.29a6.34,6.34,0,0,0-.43-1c.35-.48.74-.94,1.09-1.42a.38.38,0,0,0,.08-.24.39.39,0,0,0-.07-.23,13.54,13.54,0,0,0-1.71-1.76.46.46,0,0,0-.26-.11.32.32,0,0,0-.25.1l-1.48,1.11a6.31,6.31,0,0,0-.93-.39L24,15.35a.38.38,0,0,0-.38-.31h-2.3a.39.39,0,0,0-.38.29,14.32,14.32,0,0,0-.3,1.93,7.1,7.1,0,0,0-1,.4l-1.43-1.11a.49.49,0,0,0-.27-.11c-.35,0-1.75,1.52-2,1.86a.39.39,0,0,0-.1.24.34.34,0,0,0,.11.25c.38.47.75.94,1.11,1.44a5.68,5.68,0,0,0-.41.95l-1.93.29a.4.4,0,0,0-.28.38v2.3a.38.38,0,0,0,.3.38l1.9.28a6.08,6.08,0,0,0,.43,1c-.35.48-.74.94-1.09,1.42a.42.42,0,0,0-.09.24.38.38,0,0,0,.08.24,12.77,12.77,0,0,0,1.71,1.74.35.35,0,0,0,.26.12.37.37,0,0,0,.26-.1l1.47-1.11a6.31,6.31,0,0,0,.93.39L21,30.69a.38.38,0,0,0,.38.31h2.3a.39.39,0,0,0,.38-.29,14.07,14.07,0,0,0,.3-1.93,6.47,6.47,0,0,0,.94-.4l1.44,1.12a.45.45,0,0,0,.27.1c.35,0,1.75-1.53,2-1.86a.39.39,0,0,0,.1-.24.43.43,0,0,0-.11-.26c-.38-.47-.76-.93-1.11-1.43a6.64,6.64,0,0,0,.41-.95l1.92-.29a.41.41,0,0,0,.29-.38v-2.3A.4.4,0,0,0,30.18,21.51ZM26,23.1l-5.33,3c-.12.07-.22,0-.22-.13V20c0-.14.1-.2.22-.14l5.33,3C26.13,22.92,26.13,23,26,23.1Z"/><path class="cls-1" d="M14.16,19.58a2.44,2.44,0,0,1-.24-1,2.41,2.41,0,0,1,.46-1.39c.22-.3,2-2.71,3.64-2.71a2.39,2.39,0,0,1,1.05.25A2.39,2.39,0,0,1,21.35,13H22V7H13V20.42A2.34,2.34,0,0,1,14.16,19.58Z"/><path class="cls-1" d="M30.18,21.51l-1.9-.29a6.34,6.34,0,0,0-.43-1c.35-.48.74-.94,1.09-1.42a.38.38,0,0,0,.08-.24.39.39,0,0,0-.07-.23,13.54,13.54,0,0,0-1.71-1.76.46.46,0,0,0-.26-.11.32.32,0,0,0-.25.1l-1.48,1.11a6.31,6.31,0,0,0-.93-.39L24,15.35a.38.38,0,0,0-.38-.31h-2.3a.39.39,0,0,0-.38.29,14.32,14.32,0,0,0-.3,1.93,7.1,7.1,0,0,0-1,.4l-1.43-1.11a.49.49,0,0,0-.27-.11c-.35,0-1.75,1.52-2,1.86a.39.39,0,0,0-.1.24.34.34,0,0,0,.11.25c.38.47.75.94,1.11,1.44a5.68,5.68,0,0,0-.41.95l-1.93.29a.4.4,0,0,0-.28.38v2.3a.38.38,0,0,0,.3.38l1.9.28a6.08,6.08,0,0,0,.43,1c-.35.48-.74.94-1.09,1.42a.42.42,0,0,0-.09.24.38.38,0,0,0,.08.24,12.77,12.77,0,0,0,1.71,1.74.35.35,0,0,0,.26.12.37.37,0,0,0,.26-.1l1.47-1.11a6.31,6.31,0,0,0,.93.39L21,30.69a.38.38,0,0,0,.38.31h2.3a.39.39,0,0,0,.38-.29,14.07,14.07,0,0,0,.3-1.93,6.47,6.47,0,0,0,.94-.4l1.44,1.12a.45.45,0,0,0,.27.1c.35,0,1.75-1.53,2-1.86a.39.39,0,0,0,.1-.24.43.43,0,0,0-.11-.26c-.38-.47-.76-.93-1.11-1.43a6.64,6.64,0,0,0,.41-.95l1.92-.29a.41.41,0,0,0,.29-.38v-2.3A.4.4,0,0,0,30.18,21.51ZM26,23.1l-5.33,3c-.12.07-.22,0-.22-.13V20c0-.14.1-.2.22-.14l5.33,3C26.13,22.92,26.13,23,26,23.1Z"/><path class="cls-1" d="M25.92,14.69A2.43,2.43,0,0,1,27,14.44h0V7H24v6.07A2.36,2.36,0,0,1,25.92,14.69Z"/><path class="cls-1" d="M30.18,21.51l-1.9-.29a6.34,6.34,0,0,0-.43-1c.35-.48.74-.94,1.09-1.42a.38.38,0,0,0,.08-.24.39.39,0,0,0-.07-.23,13.54,13.54,0,0,0-1.71-1.76.46.46,0,0,0-.26-.11.32.32,0,0,0-.25.1l-1.48,1.11a6.31,6.31,0,0,0-.93-.39L24,15.35a.38.38,0,0,0-.38-.31h-2.3a.39.39,0,0,0-.38.29,14.32,14.32,0,0,0-.3,1.93,7.1,7.1,0,0,0-1,.4l-1.43-1.11a.49.49,0,0,0-.27-.11c-.35,0-1.75,1.52-2,1.86a.39.39,0,0,0-.1.24.34.34,0,0,0,.11.25c.38.47.75.94,1.11,1.44a5.68,5.68,0,0,0-.41.95l-1.93.29a.4.4,0,0,0-.28.38v2.3a.38.38,0,0,0,.3.38l1.9.28a6.08,6.08,0,0,0,.43,1c-.35.48-.74.94-1.09,1.42a.42.42,0,0,0-.09.24.38.38,0,0,0,.08.24,12.77,12.77,0,0,0,1.71,1.74.35.35,0,0,0,.26.12.37.37,0,0,0,.26-.1l1.47-1.11a6.31,6.31,0,0,0,.93.39L21,30.69a.38.38,0,0,0,.38.31h2.3a.39.39,0,0,0,.38-.29,14.07,14.07,0,0,0,.3-1.93,6.47,6.47,0,0,0,.94-.4l1.44,1.12a.45.45,0,0,0,.27.1c.35,0,1.75-1.53,2-1.86a.39.39,0,0,0,.1-.24.43.43,0,0,0-.11-.26c-.38-.47-.76-.93-1.11-1.43a6.64,6.64,0,0,0,.41-.95l1.92-.29a.41.41,0,0,0,.29-.38v-2.3A.4.4,0,0,0,30.18,21.51ZM26,23.1l-5.33,3c-.12.07-.22,0-.22-.13V20c0-.14.1-.2.22-.14l5.33,3C26.13,22.92,26.13,23,26,23.1Z"/><path class="cls-1" d="M30.56,17.12A2.36,2.36,0,0,1,31,18.54a2.43,2.43,0,0,1-.25,1.07,2.35,2.35,0,0,1,1.23.85V7H29v8.45A13.1,13.1,0,0,1,30.56,17.12Z"/><path class="cls-1" d="M30.18,21.51l-1.9-.29a6.34,6.34,0,0,0-.43-1c.35-.48.74-.94,1.09-1.42a.38.38,0,0,0,.08-.24.39.39,0,0,0-.07-.23,13.54,13.54,0,0,0-1.71-1.76.46.46,0,0,0-.26-.11.32.32,0,0,0-.25.1l-1.48,1.11a6.31,6.31,0,0,0-.93-.39L24,15.35a.38.38,0,0,0-.38-.31h-2.3a.39.39,0,0,0-.38.29,14.32,14.32,0,0,0-.3,1.93,7.1,7.1,0,0,0-1,.4l-1.43-1.11a.49.49,0,0,0-.27-.11c-.35,0-1.75,1.52-2,1.86a.39.39,0,0,0-.1.24.34.34,0,0,0,.11.25c.38.47.75.94,1.11,1.44a5.68,5.68,0,0,0-.41.95l-1.93.29a.4.4,0,0,0-.28.38v2.3a.38.38,0,0,0,.3.38l1.9.28a6.08,6.08,0,0,0,.43,1c-.35.48-.74.94-1.09,1.42a.42.42,0,0,0-.09.24.38.38,0,0,0,.08.24,12.77,12.77,0,0,0,1.71,1.74.35.35,0,0,0,.26.12.37.37,0,0,0,.26-.1l1.47-1.11a6.31,6.31,0,0,0,.93.39L21,30.69a.38.38,0,0,0,.38.31h2.3a.39.39,0,0,0,.38-.29,14.07,14.07,0,0,0,.3-1.93,6.47,6.47,0,0,0,.94-.4l1.44,1.12a.45.45,0,0,0,.27.1c.35,0,1.75-1.53,2-1.86a.39.39,0,0,0,.1-.24.43.43,0,0,0-.11-.26c-.38-.47-.76-.93-1.11-1.43a6.64,6.64,0,0,0,.41-.95l1.92-.29a.41.41,0,0,0,.29-.38v-2.3A.4.4,0,0,0,30.18,21.51ZM26,23.1l-5.33,3c-.12.07-.22,0-.22-.13V20c0-.14.1-.2.22-.14l5.33,3C26.13,22.92,26.13,23,26,23.1Z"/></svg>