<svg id="Calque_1" data-name="Calque 1" xmlns="http://www.w3.org/2000/svg" viewBox="0 0 32 32"><defs><style>.cls-1{fill:#e3e3e3;}</style></defs><title>digitigrade_l</title><path class="cls-1" d="M9.34,12.22,6.85,15.37s-3,6.12,0,7a3.71,3.71,0,0,0,4.64-4.64c-.83-2.81-2.65-2.81-2.65-2.81Z"/><path class="cls-1" d="M14.64,2,13,5.15S8.59,6.78,9.5,10.45c.67,2.65,3,3.89,5,2.65,2.65-1.66,3.31-5.47,1-7.46Z"/><path class="cls-1" d="M19.72,2l-.83,3.64s-3.17,4.9.5,8a3.17,3.17,0,0,0,5.13-3.14,7,7,0,0,0-3.14-4.81Z"/><path class="cls-1" d="M25.63,13.1l1,2.65s2.81,4.14-.5,7.12-5-1.49-4.47-3.48,3-3.64,3-3.64Z"/><path class="cls-1" d="M16.17,19.93c2.42,0,1.3,2.24,2.79,3.17s5.22,1.3,3.36,4.65-9.78,2.62-12.11,0c-3-3.35-.74-3.91,1.86-5C14.49,21.69,13.75,19.93,16.17,19.93Z"/></svg>