<?xml version="1.0" encoding="UTF-8" standalone="no"?>
<!-- Created with Inkscape (http://www.inkscape.org/) -->

<svg
   xmlns:dc="http://purl.org/dc/elements/1.1/"
   xmlns:cc="http://creativecommons.org/ns#"
   xmlns:rdf="http://www.w3.org/1999/02/22-rdf-syntax-ns#"
   xmlns:svg="http://www.w3.org/2000/svg"
   xmlns="http://www.w3.org/2000/svg"
   xmlns:sodipodi="http://sodipodi.sourceforge.net/DTD/sodipodi-0.dtd"
   xmlns:inkscape="http://www.inkscape.org/namespaces/inkscape"
   width="32"
   height="32"
   viewBox="0 0 8.4666666 8.4666666"
   version="1.1"
   id="svg8"
   inkscape:version="0.92.5 (2060ec1f9f, 2020-04-08)"
   sodipodi:docname="download_bl.svg">
  <defs
     id="defs2" />
  <sodipodi:namedview
     id="base"
     pagecolor="#ffffff"
     bordercolor="#666666"
     borderopacity="1.0"
     inkscape:pageopacity="0.0"
     inkscape:pageshadow="2"
     inkscape:zoom="11.313708"
     inkscape:cx="-17.538869"
     inkscape:cy="15.001616"
     inkscape:document-units="mm"
     inkscape:current-layer="layer1"
     showgrid="false"
     units="px"
     inkscape:window-width="1848"
     inkscape:window-height="1136"
     inkscape:window-x="1920"
     inkscape:window-y="27"
     inkscape:window-maximized="1">
    <sodipodi:guide
       position="8.4666666,0"
       orientation="-32,0"
       id="guide854"
       inkscape:locked="false" />
    <sodipodi:guide
       position="8.4666666,8.4666666"
       orientation="0,-32"
       id="guide856"
       inkscape:locked="false" />
    <sodipodi:guide
       position="0,8.4666814"
       orientation="32,0"
       id="guide858"
       inkscape:locked="false" />
  </sodipodi:namedview>
  <metadata
     id="metadata5">
    <rdf:RDF>
      <cc:Work
         rdf:about="">
        <dc:format>image/svg+xml</dc:format>
        <dc:type
           rdf:resource="http://purl.org/dc/dcmitype/StillImage" />
        <dc:title />
      </cc:Work>
    </rdf:RDF>
  </metadata>
  <g
     inkscape:label="Layer 1"
     inkscape:groupmode="layer"
     id="layer1"
     transform="translate(0,-288.53334)">
    <path
       id="path819"
       d="m 3.5720732,288.53334 h 1.3228631 c 0.219926,0 0.3968589,0.17694 0.3968589,0.39686 v 2.77801 h 1.4501882 c 0.2943375,0 0.4415059,0.35552 0.2331549,0.56387 l -2.5150933,2.51675 c -0.1240184,0.12402 -0.3274086,0.12402 -0.451427,0 l -2.5184005,-2.51675 c -0.208351,-0.20835 -0.061182,-0.56387 0.2331546,-0.56387 h 1.4518422 v -2.77801 c 0,-0.21992 0.1769329,-0.39686 0.3968589,-0.39686 z m 4.8945935,6.21746 v 1.85201 c 0,0.21992 -0.1769335,0.39685 -0.396859,0.39685 H 0.39720194 c -0.21992602,0 -0.39685890862,-0.17693 -0.39685890862,-0.39685 v -1.85201 c 0,-0.21993 0.17693288862,-0.39686 0.39685890862,-0.39686 H 2.823002 l 0.8102536,0.81026 c 0.3323694,0.33236 0.8681289,0.33236 1.2004983,0 l 0.8102536,-0.81026 h 2.4258002 c 0.2199255,0 0.396859,0.17693 0.396859,0.39686 z"
       inkscape:connector-curvature="0"
       style="fill:#8ad891;fill-opacity:1;stroke-width:0.01653579"
       sodipodi:nodetypes="ssscsccccscsssssssssccccss" />
  </g>
</svg>
