<svg id="Calque_1" data-name="Calque 1" xmlns="http://www.w3.org/2000/svg" viewBox="0 0 32 32"><defs><style>.cls-1{fill:#e3e3e3;}</style></defs><title>duplicatestructure_l</title><path class="cls-1" d="M6.53,24.2A2.71,2.71,0,0,1,9,22.39,4.42,4.42,0,0,1,12.19,24l-1.27-9c0-.31,0-.32-.35-.22a5,5,0,0,1-5.31-1.53C5.2,13.14,5.15,13,5,13s0,.16,0,.24Z"/><path class="cls-1" d="M24.22,13a2.71,2.71,0,0,1-1.66-2.53A4.42,4.42,0,0,1,24.3,7.32l-9,.76c-.32,0-.32,0-.24.33a5,5,0,0,1-1.83,5.22c-.08.06-.19.1-.23.21s.16,0,.23,0Z"/><path class="cls-1" d="M9.44,26.24A1.81,1.81,0,1,1,7.63,28a1.81,1.81,0,0,1,1.81-1.8m0-2a3.81,3.81,0,1,0,3.8,3.8,3.8,3.8,0,0,0-3.8-3.8Z"/><circle class="cls-1" cx="9.59" cy="9.74" r="3.8"/><path class="cls-1" d="M28.07,8.8a1.8,1.8,0,1,1-1.8,1.8,1.81,1.81,0,0,1,1.8-1.8m0-2a3.8,3.8,0,1,0,3.81,3.8,3.8,3.8,0,0,0-3.81-3.8Z"/><path class="cls-1" d="M21.94,5.51a1.8,1.8,0,0,1,3.58-.12,5.79,5.79,0,0,1,1.94-.56,3.8,3.8,0,0,0-7.53.77s0,.05,0,.08Z"/><path class="cls-1" d="M10.81,4.06A6,6,0,0,1,12,4.44a5.68,5.68,0,0,1,2.28,1.84,2.68,2.68,0,0,1,.9-.2l3.12-.26c0-.12,0-.23,0-.36A4.45,4.45,0,0,1,20,2.32l-9,.76c-.32,0-.32,0-.24.33A4.94,4.94,0,0,1,10.81,4.06Z"/><path class="cls-1" d="M4,8.3a5.39,5.39,0,0,1,.32-.93A5.81,5.81,0,0,1,9,4,3.8,3.8,0,1,0,3.7,8.21Z"/><path class="cls-1" d="M3,13.51a2.14,2.14,0,0,1,.43-1.76A2,2,0,0,1,4,11.3a6.08,6.08,0,0,1-.2-1.42A4.9,4.9,0,0,1,.93,8.22C.86,8.14.82,8,.7,8s0,.16,0,.24l1.5,11a2.89,2.89,0,0,1,1.42-1.56Z"/><path class="cls-1" d="M4.62,24.8a0,0,0,0,0,0,0,1.8,1.8,0,0,1-.47-3.25l-.28-2.06a3.79,3.79,0,0,0,0,7.15A5.66,5.66,0,0,1,4.62,24.8Z"/></svg>