<?xml version="1.0" encoding="UTF-8" standalone="no"?>
<!-- Created with Inkscape (http://www.inkscape.org/) -->

<svg
   xmlns:dc="http://purl.org/dc/elements/1.1/"
   xmlns:cc="http://creativecommons.org/ns#"
   xmlns:rdf="http://www.w3.org/1999/02/22-rdf-syntax-ns#"
   xmlns:svg="http://www.w3.org/2000/svg"
   xmlns="http://www.w3.org/2000/svg"
   xmlns:sodipodi="http://sodipodi.sourceforge.net/DTD/sodipodi-0.dtd"
   xmlns:inkscape="http://www.inkscape.org/namespaces/inkscape"
   width="32"
   height="32"
   viewBox="0 0 8.4666666 8.4666666"
   version="1.1"
   id="svg8"
   inkscape:version="0.92.5 (2060ec1f9f, 2020-04-08)"
   sodipodi:docname="edit-image_sl.svg">
  <defs
     id="defs2" />
  <sodipodi:namedview
     id="base"
     pagecolor="#ffffff"
     bordercolor="#666666"
     borderopacity="1.0"
     inkscape:pageopacity="0.0"
     inkscape:pageshadow="2"
     inkscape:zoom="16.000001"
     inkscape:cx="16.5362"
     inkscape:cy="5.5319504"
     inkscape:document-units="mm"
     inkscape:current-layer="svg8"
     showgrid="false"
     units="px"
     inkscape:window-width="1237"
     inkscape:window-height="1136"
     inkscape:window-x="0"
     inkscape:window-y="27"
     inkscape:window-maximized="0"
     inkscape:snap-bbox="true"
     inkscape:snap-nodes="false"
     inkscape:bbox-paths="true"
     inkscape:bbox-nodes="true"
     inkscape:snap-bbox-midpoints="true"
     inkscape:snap-bbox-edge-midpoints="true">
    <sodipodi:guide
       position="8.4666666,0"
       orientation="-32,0"
       id="guide854"
       inkscape:locked="false" />
    <sodipodi:guide
       position="8.4666666,8.4666666"
       orientation="0,-32"
       id="guide856"
       inkscape:locked="false" />
    <sodipodi:guide
       position="0,8.4666814"
       orientation="32,0"
       id="guide858"
       inkscape:locked="false" />
  </sodipodi:namedview>
  <metadata
     id="metadata5">
    <rdf:RDF>
      <cc:Work
         rdf:about="">
        <dc:format>image/svg+xml</dc:format>
        <dc:type
           rdf:resource="http://purl.org/dc/dcmitype/StillImage" />
        <dc:title></dc:title>
      </cc:Work>
    </rdf:RDF>
  </metadata>
  <path
     style="fill:#d588f1;fill-opacity:1;stroke-width:0.01263557"
     d="m 0.62425129,2.6525514 c -0.33496908,0 -0.6066813,0.2711955 -0.6066813,0.6061644 V 6.89777 c 0,0.3349694 0.27171222,0.6066814 0.6066813,0.6066814 H 5.8807778 c 0.3349688,0 0.6061646,-0.271712 0.6061646,-0.6066814 V 4.0245607 l -0.094568,0.094568 a 0.42999091,0.42999091 0 0 1 -0.2578653,0.12299 l -0.730188,0.080099 C 5.0417748,4.3623137 4.7195515,4.0406227 4.759916,3.6778118 a 0.42999091,0.42999091 0 0 1 0,-0.00207 L 4.841565,2.9450398 A 0.42999091,0.42999091 0 0 1 4.9650716,2.6892414 l 0.03669,-0.03669 z M 1.4329874,3.3600017 c 0.3907932,0 0.7074504,0.3166573 0.7074504,0.7074503 0,0.3907933 -0.3166572,0.7079671 -0.7074504,0.7079671 -0.3907927,0 -0.70796706,-0.3171738 -0.70796706,-0.7079671 0,-0.390793 0.31717436,-0.7074503 0.70796706,-0.7074503 z m 3.032373,0.7704955 c 0.038806,0 0.077882,0.014837 0.107487,0.044442 l 1.105359,1.1058755 V 6.6957154 H 0.82630615 V 6.0895507 L 1.7301269,5.1857299 c 0.059223,-0.05921 0.1552472,-0.05921 0.2144572,0 L 2.6458333,5.8869791 4.3583902,4.174939 c 0.029612,-0.029605 0.068165,-0.044442 0.1069702,-0.044442 z"
     id="path815"
     inkscape:connector-curvature="0" />
  <path
     id="path824"
     d="M 7.0493453,1.2132868 7.8693917,2.0333332 6.0886959,3.814029 5.3575594,3.8947397 C 5.2596816,3.9055648 5.1769852,3.8228048 5.1878747,3.7249267 L 5.269226,2.9932781 Z M 8.3765877,1.0911959 7.9915467,0.70615456 c -0.1201054,-0.1201052 -0.3149,-0.1201052 -0.4350052,0 L 7.1943043,1.0683919 8.0143506,1.8884382 8.3765877,1.5262009 c 0.1201053,-0.1201693 0.1201053,-0.3148999 0,-0.435005 z"
     inkscape:connector-curvature="0"
     style="fill:#d588f1;stroke-width:0.00640561" />
</svg>
