<?xml version="1.0" encoding="UTF-8" standalone="no"?>
<!-- Created with Inkscape (http://www.inkscape.org/) -->

<svg
   xmlns:dc="http://purl.org/dc/elements/1.1/"
   xmlns:cc="http://creativecommons.org/ns#"
   xmlns:rdf="http://www.w3.org/1999/02/22-rdf-syntax-ns#"
   xmlns:svg="http://www.w3.org/2000/svg"
   xmlns="http://www.w3.org/2000/svg"
   xmlns:sodipodi="http://sodipodi.sourceforge.net/DTD/sodipodi-0.dtd"
   xmlns:inkscape="http://www.inkscape.org/namespaces/inkscape"
   width="32"
   height="32"
   viewBox="0 0 8.4666666 8.4666666"
   version="1.1"
   id="svg8"
   inkscape:version="0.92.5 (2060ec1f9f, 2020-04-08)"
   sodipodi:docname="edit-alpha_bl.svg">
  <defs
     id="defs2">
    <style
       id="style1399">.cls-1{fill:#e3e3e3;}</style>
    <style
       id="style1399-4">.cls-1{fill:#e3e3e3;}</style>
    <style
       id="style1399-5">.cls-1{fill:#e3e3e3;}</style>
    <style
       id="style1399-7">.cls-1{fill:#e3e3e3;}</style>
    <style
       id="style1399-85">.cls-1{fill:#e3e3e3;}</style>
    <style
       id="style1399-4-6">.cls-1{fill:#e3e3e3;}</style>
    <style
       id="style1399-8">.cls-1{fill:#e3e3e3;}</style>
    <style
       id="style1399-4-5">.cls-1{fill:#e3e3e3;}</style>
    <style
       id="style1399-78">.cls-1{fill:#e3e3e3;}</style>
    <style
       id="style1399-4-57">.cls-1{fill:#e3e3e3;}</style>
    <style
       id="style1399-5-4">.cls-1{fill:#e3e3e3;}</style>
    <style
       id="style1399-7-1">.cls-1{fill:#e3e3e3;}</style>
    <style
       id="style1399-85-8">.cls-1{fill:#e3e3e3;}</style>
    <style
       id="style1399-4-6-5">.cls-1{fill:#e3e3e3;}</style>
    <style
       id="style1399-8-9">.cls-1{fill:#e3e3e3;}</style>
    <style
       id="style1399-4-5-7">.cls-1{fill:#e3e3e3;}</style>
    <style
       id="style1399-77">.cls-1{fill:#e3e3e3;}</style>
    <style
       id="style1399-4-64">.cls-1{fill:#e3e3e3;}</style>
    <style
       id="style1399-5-3">.cls-1{fill:#e3e3e3;}</style>
    <style
       id="style1399-7-0">.cls-1{fill:#e3e3e3;}</style>
    <style
       id="style1399-85-3">.cls-1{fill:#e3e3e3;}</style>
    <style
       id="style1399-4-6-0">.cls-1{fill:#e3e3e3;}</style>
    <style
       id="style1399-8-92">.cls-1{fill:#e3e3e3;}</style>
    <style
       id="style1399-4-5-5">.cls-1{fill:#e3e3e3;}</style>
  </defs>
  <sodipodi:namedview
     id="base"
     pagecolor="#ffffff"
     bordercolor="#666666"
     borderopacity="1.0"
     inkscape:pageopacity="0.0"
     inkscape:pageshadow="2"
     inkscape:zoom="11.313708"
     inkscape:cx="7.6139263"
     inkscape:cy="9.9897068"
     inkscape:document-units="mm"
     inkscape:current-layer="svg8"
     showgrid="false"
     units="px"
     inkscape:window-width="1920"
     inkscape:window-height="1043"
     inkscape:window-x="0"
     inkscape:window-y="120"
     inkscape:window-maximized="1">
    <sodipodi:guide
       position="8.4666666,0"
       orientation="-32,0"
       id="guide854"
       inkscape:locked="false" />
    <sodipodi:guide
       position="0,8.4666666"
       orientation="0,-32"
       id="guide856"
       inkscape:locked="false" />
    <sodipodi:guide
       position="0,8.4666666"
       orientation="32,0"
       id="guide858"
       inkscape:locked="false" />
  </sodipodi:namedview>
  <metadata
     id="metadata5">
    <rdf:RDF>
      <cc:Work
         rdf:about="">
        <dc:format>image/svg+xml</dc:format>
        <dc:type
           rdf:resource="http://purl.org/dc/dcmitype/StillImage" />
        <dc:title></dc:title>
      </cc:Work>
    </rdf:RDF>
  </metadata>
  <path
     style="opacity:1;fill:#e3e3e3;fill-opacity:1;stroke:none;stroke-width:4.75758553;stroke-linecap:round;stroke-linejoin:round;stroke-miterlimit:4;stroke-dasharray:none;stroke-dashoffset:10.3937006;stroke-opacity:1"
     d="M 13.880859 0 A 13.747746 13.747746 0 0 0 4.15625 4.0449219 A 13.747746 13.747746 0 0 0 0.11328125 13.771484 A 13.747746 13.747746 0 0 0 13.861328 27.519531 A 13.747746 13.747746 0 0 0 14.875 27.466797 C 14.617112 26.564901 14.475964 25.631718 14.476562 24.693359 C 14.476692 24.347418 14.496685 24.001942 14.533203 23.658203 A 10.011536 10.011536 0 0 1 13.771484 23.693359 A 10.011536 10.011536 0 0 1 3.7617188 13.679688 A 10.011536 10.011536 0 0 1 6.7050781 6.5976562 L 17.537109 17.431641 C 19.414434 15.594462 22.021381 14.520513 24.648438 14.519531 C 25.638665 14.519901 26.625074 14.674894 27.572266 14.962891 A 13.747746 13.747746 0 0 0 27.628906 13.748047 A 13.747746 13.747746 0 0 0 13.880859 0 z "
     transform="scale(0.26458333)"
     id="path1082" />
  <path
     inkscape:connector-curvature="0"
     id="path1302"
     d="M 6.5216264,4.6035602 A 1.9304088,1.9304088 0 0 0 4.5912176,6.5339691 1.9304088,1.9304088 0 0 0 6.5216264,8.4643782 1.9304088,1.9304088 0 0 0 8.4520351,6.5339691 1.9304088,1.9304088 0 0 0 6.5216264,4.6035602 Z m 0.5481117,0.7260242 c 0.054549,-5.108e-4 0.1093384,0.00565 0.1625954,0.018852 0.040872,0.01016 0.055215,0.060947 0.025449,0.090724 l -0.3343808,0.3343811 0.050899,0.305161 0.305161,0.050899 L 7.613844,5.79522 C 7.643429,5.765662 7.694024,5.779378 7.704096,5.819963 7.757106,6.0331258 7.700396,6.2680891 7.5337245,6.4347624 7.3543282,6.614158 7.096436,6.6637651 6.8710888,6.5886388 L 5.9124826,7.5472453 c -0.1123589,0.1123588 -0.2946012,0.1123588 -0.4069601,0 -0.1123588,-0.1123635 -0.1123588,-0.2946011 0,-0.40696 L 6.4650714,6.180972 C 6.390885,5.9557207 6.4400135,5.6972673 6.6182411,5.5190435 6.7431106,5.3942163 6.9060915,5.3311172 7.0697381,5.3295844 Z"
     style="fill:#d588f1;fill-opacity:1;stroke:none;stroke-width:0.71364331;stroke-miterlimit:4;stroke-dasharray:none;stroke-opacity:1" />
</svg>
