<svg id="Calque_1" data-name="Calque 1" xmlns="http://www.w3.org/2000/svg" viewBox="0 0 32 32"><defs><style>.cls-1{fill:#e3e3e3;}</style></defs><title>edit_l</title><path class="cls-1" d="M21.51,21.37a.43.43,0,0,1,.18-.37l1.82-1.82a.45.45,0,0,1,.57-.14.5.5,0,0,1,.35.5v7.21a2.17,2.17,0,0,1-2.19,2.18h-16A2.17,2.17,0,0,1,4,26.75v-16A2.19,2.19,0,0,1,6.19,8.51h13a.5.5,0,0,1,.5.34.46.46,0,0,1-.14.57l-1.82,1.87a.5.5,0,0,1-.37.14H6.92V26H21.51Zm.86-12a.42.42,0,0,0-.32-.13.42.42,0,0,0-.31.13l-10,10-.46,4.19a.9.9,0,0,0,1,1l4.19-.46,10-10a.45.45,0,0,0,.13-.32.44.44,0,0,0-.13-.32Zm7.39-1a1.83,1.83,0,0,1,.5,1.27,1.67,1.67,0,0,1-.5,1.23l-1.64,1.65a.46.46,0,0,1-.64,0l-4.1-4.11a.44.44,0,0,1,0-.64L25,6.09a1.67,1.67,0,0,1,1.23-.5,1.86,1.86,0,0,1,1.28.5Z"/></svg>