<?xml version="1.0" encoding="UTF-8" standalone="no"?>
<!-- Created with Inkscape (http://www.inkscape.org/) -->

<svg
   xmlns:dc="http://purl.org/dc/elements/1.1/"
   xmlns:cc="http://creativecommons.org/ns#"
   xmlns:rdf="http://www.w3.org/1999/02/22-rdf-syntax-ns#"
   xmlns:svg="http://www.w3.org/2000/svg"
   xmlns="http://www.w3.org/2000/svg"
   xmlns:sodipodi="http://sodipodi.sourceforge.net/DTD/sodipodi-0.dtd"
   xmlns:inkscape="http://www.inkscape.org/namespaces/inkscape"
   width="32"
   height="32"
   viewBox="0 0 8.4666666 8.4666666"
   version="1.1"
   id="svg8"
   inkscape:version="0.92.5 (2060ec1f9f, 2020-04-08)"
   sodipodi:docname="edit_bl.svg">
  <defs
     id="defs2" />
  <sodipodi:namedview
     id="base"
     pagecolor="#ffffff"
     bordercolor="#666666"
     borderopacity="1.0"
     inkscape:pageopacity="0.0"
     inkscape:pageshadow="2"
     inkscape:zoom="2"
     inkscape:cx="-105.89451"
     inkscape:cy="37.92705"
     inkscape:document-units="mm"
     inkscape:current-layer="layer1"
     showgrid="false"
     units="px"
     inkscape:window-width="1920"
     inkscape:window-height="1043"
     inkscape:window-x="0"
     inkscape:window-y="120"
     inkscape:window-maximized="1">
    <sodipodi:guide
       position="8.4666666,0"
       orientation="-32,0"
       id="guide854"
       inkscape:locked="false" />
    <sodipodi:guide
       position="8.4666666,8.4666666"
       orientation="0,-32"
       id="guide856"
       inkscape:locked="false" />
    <sodipodi:guide
       position="0,8.4666814"
       orientation="32,0"
       id="guide858"
       inkscape:locked="false" />
  </sodipodi:namedview>
  <metadata
     id="metadata5">
    <rdf:RDF>
      <cc:Work
         rdf:about="">
        <dc:format>image/svg+xml</dc:format>
        <dc:type
           rdf:resource="http://purl.org/dc/dcmitype/StillImage" />
        <dc:title></dc:title>
      </cc:Work>
    </rdf:RDF>
  </metadata>
  <g
     inkscape:label="Layer 1"
     inkscape:groupmode="layer"
     id="layer1"
     transform="translate(0,-288.53334)">
    <path
       style="fill:#d588f1;fill-opacity:1;stroke:none;stroke-width:5.91496086;stroke-miterlimit:4;stroke-dasharray:none;stroke-opacity:1"
       d="M 16,0 A 15.999999,15.999999 0 0 0 0,16 15.999999,15.999999 0 0 0 16,32 15.999999,15.999999 0 0 0 32,16 15.999999,15.999999 0 0 0 16,0 Z m 4.542969,6.0175781 c 0.452123,-0.00423 0.906241,0.046871 1.347656,0.15625 0.338755,0.084208 0.457639,0.50515 0.210937,0.7519531 l -2.771484,2.7714844 0.421875,2.5292964 2.529297,0.421876 2.771484,-2.7714849 c 0.24521,-0.244989 0.664565,-0.1312998 0.748047,0.2050779 0.439364,1.766778 -0.03066,3.714248 -1.412109,5.095703 -1.486909,1.486904 -3.62442,1.898068 -5.492188,1.275391 l -7.945312,7.945313 c -0.931275,0.931275 -2.4417718,0.931275 -3.373047,0 -0.9312748,-0.931314 -0.9312748,-2.441772 0,-3.373047 L 15.53125,13.074219 C 14.916363,11.207246 15.32356,9.0650812 16.800781,7.5878906 17.835749,6.5532733 19.1866,6.0302827 20.542969,6.0175781 Z"
       transform="matrix(0.26458333,0,0,0.26458333,0,288.53334)"
       id="path2396"
       inkscape:connector-curvature="0" />
  </g>
</svg>
