<svg id="Calque_1" data-name="Calque 1" xmlns="http://www.w3.org/2000/svg" viewBox="0 0 32 32"><defs><style>.cls-1{fill:#e3e3e3;}</style></defs><title>exportcode_l</title><path class="cls-1" d="M8.15,11.65a.75.75,0,0,0,.76.77h4.34V22.88a.75.75,0,0,1-.76.77H1.77A.75.75,0,0,1,1,22.88V8.08a.73.73,0,0,1,.22-.54.75.75,0,0,1,.55-.23H8.15Zm2,3.19a.38.38,0,0,0-.38-.38H4.45a.41.41,0,0,0-.28.11.4.4,0,0,0-.11.27v.26a.38.38,0,0,0,.39.38H9.81a.36.36,0,0,0,.27-.11.37.37,0,0,0,.11-.27Zm0,2.3v-.25a.37.37,0,0,0-.11-.27.37.37,0,0,0-.27-.12H4.45a.38.38,0,0,0-.28.12.37.37,0,0,0-.11.27v.25a.38.38,0,0,0,.39.38H9.81a.36.36,0,0,0,.27-.11A.37.37,0,0,0,10.19,17.14Zm0,2v-.25a.37.37,0,0,0-.11-.27.36.36,0,0,0-.27-.11H4.45a.38.38,0,0,0-.39.38v.25a.37.37,0,0,0,.11.27.38.38,0,0,0,.28.12H9.81a.37.37,0,0,0,.27-.12A.37.37,0,0,0,10.19,19.18Zm3.06-8a.74.74,0,0,0-.22-.55L9.9,7.54a.74.74,0,0,0-.54-.23H9.17V11.4h4.08Z"/><path class="cls-1" d="M16.64,23.21a.5.5,0,0,1-.39.16.53.53,0,0,1-.39-.16l-.53-.5a.57.57,0,0,1-.16-.39.53.53,0,0,1,.16-.39l3.54-3.56-3.54-3.56a.57.57,0,0,1-.16-.39.53.53,0,0,1,.16-.39l.53-.51a.53.53,0,0,1,.39-.16.5.5,0,0,1,.39.16L21.1,18a.5.5,0,0,1,.16.39.53.53,0,0,1-.16.39Zm13.23-1a.53.53,0,0,0-.16-.39.57.57,0,0,0-.39-.16h-7a.55.55,0,0,0-.39.16.53.53,0,0,0-.16.39V23a.53.53,0,0,0,.16.39.51.51,0,0,0,.39.16h7a.55.55,0,0,0,.55-.55Z"/></svg>