<?xml version="1.0" encoding="UTF-8" standalone="no"?>
<!-- Created with Inkscape (http://www.inkscape.org/) -->

<svg
   xmlns:dc="http://purl.org/dc/elements/1.1/"
   xmlns:cc="http://creativecommons.org/ns#"
   xmlns:rdf="http://www.w3.org/1999/02/22-rdf-syntax-ns#"
   xmlns:svg="http://www.w3.org/2000/svg"
   xmlns="http://www.w3.org/2000/svg"
   xmlns:sodipodi="http://sodipodi.sourceforge.net/DTD/sodipodi-0.dtd"
   xmlns:inkscape="http://www.inkscape.org/namespaces/inkscape"
   width="32"
   height="32"
   viewBox="0 0 8.4666666 8.4666666"
   version="1.1"
   id="svg8"
   inkscape:version="0.92.5 (2060ec1f9f, 2020-04-08)"
   sodipodi:docname="exposure_sl.svg">
  <defs
     id="defs2">
    <style
       id="style1399">.cls-1{fill:#e3e3e3;}</style>
    <style
       id="style1399-4">.cls-1{fill:#e3e3e3;}</style>
    <style
       id="style1399-5">.cls-1{fill:#e3e3e3;}</style>
    <style
       id="style1399-7">.cls-1{fill:#e3e3e3;}</style>
    <style
       id="style1399-85">.cls-1{fill:#e3e3e3;}</style>
    <style
       id="style1399-4-6">.cls-1{fill:#e3e3e3;}</style>
    <style
       id="style1399-8">.cls-1{fill:#e3e3e3;}</style>
    <style
       id="style1399-4-5">.cls-1{fill:#e3e3e3;}</style>
  </defs>
  <sodipodi:namedview
     id="base"
     pagecolor="#ffffff"
     bordercolor="#666666"
     borderopacity="1.0"
     inkscape:pageopacity="0.0"
     inkscape:pageshadow="2"
     inkscape:zoom="16"
     inkscape:cx="14.985663"
     inkscape:cy="16.716528"
     inkscape:document-units="mm"
     inkscape:current-layer="svg8"
     showgrid="false"
     units="px"
     inkscape:window-width="1920"
     inkscape:window-height="1043"
     inkscape:window-x="0"
     inkscape:window-y="120"
     inkscape:window-maximized="1">
    <sodipodi:guide
       position="8.4666666,0"
       orientation="-32,0"
       id="guide854"
       inkscape:locked="false" />
    <sodipodi:guide
       position="0,8.4666666"
       orientation="0,-32"
       id="guide856"
       inkscape:locked="false" />
    <sodipodi:guide
       position="0,8.4666666"
       orientation="32,0"
       id="guide858"
       inkscape:locked="false" />
  </sodipodi:namedview>
  <metadata
     id="metadata5">
    <rdf:RDF>
      <cc:Work
         rdf:about="">
        <dc:format>image/svg+xml</dc:format>
        <dc:type
           rdf:resource="http://purl.org/dc/dcmitype/StillImage" />
        <dc:title></dc:title>
      </cc:Work>
    </rdf:RDF>
  </metadata>
  <path
     style="opacity:1;fill:#e3e3e3;fill-opacity:1;stroke:none;stroke-width:2.25730348;stroke-linecap:butt;stroke-linejoin:miter;stroke-miterlimit:4;stroke-dasharray:none;stroke-dashoffset:0;stroke-opacity:1"
     d="M 4.2280951,0 A 4.2217386,4.2217386 0 0 0 3.6287316,0.0469938 L 5.5693447,3.7910904 6.871304,0.93525378 A 4.2217386,4.2217386 0 0 0 4.2280951,0 Z M 3.2258172,0.12557362 A 4.2217386,4.2217386 0 0 0 0.55795584,2.1416849 L 4.6656768,2.9066824 Z M 7.1794602,1.2087422 5.4753567,4.9520687 8.4498337,4.2240495 a 4.2217386,4.2217386 0 0 0 0,-0.00231 A 4.2217386,4.2217386 0 0 0 7.1794602,1.2087382 Z M 0.37306221,2.5083906 A 4.2217386,4.2217386 0 0 0 0.00635653,4.2217386 4.2217386,4.2217386 0 0 0 0.29448242,5.7563559 C 1.3337923,4.8597311 2.3706867,3.9606261 3.4091701,3.0738572 Z M 2.8745192,4.0553342 0.46319795,6.131536 A 4.2217386,4.2217386 0 0 0 2.920743,8.2323903 Z M 8.4298037,4.6338973 4.4060553,5.6215375 6.9075124,7.479719 A 4.2217386,4.2217386 0 0 0 8.4298037,4.6338973 Z m -5.146207,0.6463575 0.033898,3.0607603 A 4.2217386,4.2217386 0 0 0 4.228096,8.4434771 4.2217386,4.2217386 0 0 0 6.5762455,7.7262439 Z"
     id="path839"
     inkscape:connector-curvature="0" />
</svg>
