<svg id="Calque_1" data-name="Calque 1" xmlns="http://www.w3.org/2000/svg" viewBox="0 0 32 32"><defs><style>.cls-1{fill:#e3e3e3;}</style></defs><title>exportrig_l</title><path class="cls-1" d="M30.85,9.92a1.49,1.49,0,0,1-.41,1l-.85.85a1.49,1.49,0,0,1-1,.41,1.44,1.44,0,0,1-1-.41L24.23,8.48v7.94a1.45,1.45,0,0,1-1.44,1.44H21.35a1.46,1.46,0,0,1-1.45-1.44V8.48L16.59,11.8a1.44,1.44,0,0,1-1,.41,1.48,1.48,0,0,1-1-.41L13.71,11a1.45,1.45,0,0,1-.42-1,1.41,1.41,0,0,1,.42-1l7.35-7.35a1.43,1.43,0,0,1,1-.42,1.51,1.51,0,0,1,1,.42l7.34,7.35A1.44,1.44,0,0,1,30.85,9.92Z"/><path class="cls-1" d="M11.92,6.64a6.93,6.93,0,0,0,0,5,6.08,6.08,0,0,0,2,3l-3.47,6c-.19.32-.2.32-.48.07a5.89,5.89,0,0,0-6.48-.92c-.1.05-.2.15-.34.13s.05-.19.09-.26Z"/><path class="cls-1" d="M14.25,27.23h2.4a.42.42,0,0,1,.43.25,1.77,1.77,0,0,0,1.62,1h1.63a.64.64,0,0,1,.51.21c.58.66,1.17,1.3,1.75,2a1,1,0,0,1,.14.25,1.17,1.17,0,0,0,1.85.53c1.08-.74,2.15-1.5,3.23-2.25L29.46,28A1.16,1.16,0,0,0,30,26.73a1.14,1.14,0,0,0-.94-.89,1.26,1.26,0,0,0-1,.29L24.48,28.6c-.37.26-.37.26-.67-.07-.45-.48-.88-1-1.32-1.44a.79.79,0,0,1-.22-.58c0-1.05,0-2.11,0-3.16a.73.73,0,0,1,.22-.54c.54-.59,1.08-1.18,1.61-1.78.16-.18.27-.2.48-.05,1.23.87,2.48,1.74,3.72,2.59a1.17,1.17,0,1,0,1.43-1.84c-.91-.67-1.85-1.3-2.77-1.95l-2.18-1.52a1.18,1.18,0,0,0-1.83.52,6.45,6.45,0,0,1-1.05,1.28c-.34.42-.73.8-1.09,1.21a.53.53,0,0,1-.45.19H18.63a1.62,1.62,0,0,0-1.55.94.48.48,0,0,1-.5.29H11.85c-.39,0-.41,0-.28.38a5.69,5.69,0,0,1,0,3.82c-.11.32-.08.35.25.35Z"/><path class="cls-1" d="M6,20.38A4.64,4.64,0,0,1,10.69,25,4.65,4.65,0,1,1,1.4,25,4.63,4.63,0,0,1,6,20.38ZM6.06,28a3,3,0,0,0,3-3,3.07,3.07,0,0,0-3-3,3,3,0,0,0-3,3A3,3,0,0,0,6.06,28Z"/></svg>