<?xml version="1.0" encoding="UTF-8" standalone="no"?>
<!-- Created with Inkscape (http://www.inkscape.org/) -->

<svg
   xmlns:dc="http://purl.org/dc/elements/1.1/"
   xmlns:cc="http://creativecommons.org/ns#"
   xmlns:rdf="http://www.w3.org/1999/02/22-rdf-syntax-ns#"
   xmlns:svg="http://www.w3.org/2000/svg"
   xmlns="http://www.w3.org/2000/svg"
   xmlns:sodipodi="http://sodipodi.sourceforge.net/DTD/sodipodi-0.dtd"
   xmlns:inkscape="http://www.inkscape.org/namespaces/inkscape"
   width="32"
   height="32"
   viewBox="0 0 8.4666666 8.4666666"
   version="1.1"
   id="svg8"
   inkscape:version="0.92.5 (2060ec1f9f, 2020-04-08)"
   sodipodi:docname="export-file_sl.svg">
  <defs
     id="defs2">
    <style
       id="style1399">.cls-1{fill:#e3e3e3;}</style>
  </defs>
  <sodipodi:namedview
     id="base"
     pagecolor="#ffffff"
     bordercolor="#666666"
     borderopacity="1.0"
     inkscape:pageopacity="0.0"
     inkscape:pageshadow="2"
     inkscape:zoom="7.9999995"
     inkscape:cx="-23.786538"
     inkscape:cy="25.641627"
     inkscape:document-units="mm"
     inkscape:current-layer="svg8"
     showgrid="false"
     units="px"
     inkscape:window-width="1848"
     inkscape:window-height="1136"
     inkscape:window-x="1920"
     inkscape:window-y="27"
     inkscape:window-maximized="1">
    <sodipodi:guide
       position="8.4666666,0"
       orientation="-32,0"
       id="guide854"
       inkscape:locked="false" />
    <sodipodi:guide
       position="8.4666666,8.4666666"
       orientation="0,-32"
       id="guide856"
       inkscape:locked="false" />
    <sodipodi:guide
       position="0,8.4666814"
       orientation="1,6.123234e-17"
       id="guide858"
       inkscape:locked="false" />
  </sodipodi:namedview>
  <metadata
     id="metadata5">
    <rdf:RDF>
      <cc:Work
         rdf:about="">
        <dc:format>image/svg+xml</dc:format>
        <dc:type
           rdf:resource="http://purl.org/dc/dcmitype/StillImage" />
        <dc:title />
      </cc:Work>
    </rdf:RDF>
  </metadata>
  <path
     style="fill:#8ad891;fill-opacity:1;stroke-width:0.06281408"
     d="M 9.3867188 0 C 8.5512924 0 7.8789063 0.67238574 7.8789062 1.5078125 L 7.8789062 8.2089844 C 7.9871876 8.1834517 8.0947062 8.1514255 8.2050781 8.1386719 C 9.0969971 8.0356193 10.113095 8.3435754 10.824219 9.0546875 L 16.945312 15.181641 A 2.3161076 2.3161076 0 0 1 16.951172 15.189453 C 18.158502 16.409822 18.158503 18.463225 16.951172 19.683594 A 2.3161076 2.3161076 0 0 1 16.945312 19.691406 L 10.824219 25.810547 C 10.031497 26.60326 8.8736272 26.867329 7.8789062 26.660156 L 7.8789062 30.652344 C 7.8789062 31.487771 8.5512924 32.160156 9.3867188 32.160156 L 30.492188 32.160156 C 31.327613 32.160156 32 31.487771 32 30.652344 L 32 10.050781 L 23.457031 10.050781 C 22.627886 10.050781 21.949219 9.3721214 21.949219 8.5429688 L 21.949219 0 L 9.3867188 0 z M 23.958984 0 L 23.958984 8.0410156 L 32 8.0410156 L 32 7.65625 C 32 7.2605335 31.843218 6.8784118 31.560547 6.5957031 L 25.410156 0.43945312 C 25.127493 0.15659329 24.74576 -7.4014868e-17 24.34375 0 L 23.958984 0 z M 8.4726562 10.445312 C 8.061757 10.492792 7.6914062 10.824883 7.6914062 11.314453 L 7.6914062 14.8125 L 2.7363281 14.8125 C 2.2518171 14.8125 1.8632823 15.202985 1.8632812 15.6875 L 1.8632812 19.183594 C 1.8632812 19.668108 2.2518171 20.058594 2.7363281 20.058594 L 7.6914062 20.058594 L 7.6914062 23.554688 C 7.6914062 24.337909 8.6391047 24.722217 9.1855469 24.175781 L 15.304688 18.054688 C 15.643481 17.712236 15.643481 17.158858 15.304688 16.816406 L 9.1855469 10.695312 C 8.9806307 10.4904 8.7191952 10.416827 8.4726562 10.445312 z "
     transform="scale(0.26458333)"
     id="path1112-8" />
</svg>
