<svg id="Calque_1" data-name="Calque 1" xmlns="http://www.w3.org/2000/svg" viewBox="0 0 32 32"><defs><style>.cls-1{fill:none;stroke:#e3e3e3;stroke-miterlimit:10;stroke-width:2px;}.cls-2{fill:#e3e3e3;}</style></defs><title>extractloc_l</title><rect class="cls-1" x="2.39" y="7.74" width="13.99" height="13.99"/><path class="cls-2" d="M9.38,12.21A2.35,2.35,0,1,1,7,14.56a2.35,2.35,0,0,1,2.35-2.35m0-2a4.35,4.35,0,1,0,4.35,4.35,4.35,4.35,0,0,0-4.35-4.35Z"/><line class="cls-1" x1="3.86" y1="14.39" x2="-0.37" y2="14.39"/><line class="cls-1" x1="18.99" y1="14.39" x2="14.76" y2="14.39"/><line class="cls-1" x1="9.31" y1="4.7" x2="9.31" y2="8.94"/><line class="cls-1" x1="9.31" y1="19.83" x2="9.31" y2="24.07"/><path class="cls-2" d="M26.75,21.81H19.08l-.09.45a3.28,3.28,0,0,1-3.21,2.65h-9a3.66,3.66,0,0,1-2.36-.86,1.86,1.86,0,0,0,0,.34v.84a2.59,2.59,0,0,0,2.58,2.58H26.75a2.58,2.58,0,0,0,2.58-2.58v-.84A2.57,2.57,0,0,0,26.75,21.81Z"/><path class="cls-2" d="M20.74,15.32a.54.54,0,0,1-.16-.4.53.53,0,0,1,.16-.39L25.29,10a.54.54,0,0,1,.4-.16.53.53,0,0,1,.39.16l4.55,4.55a.53.53,0,0,1,.16.39.54.54,0,0,1-.16.4l-.52.52a.46.46,0,0,1-.39.17.54.54,0,0,1-.4-.17L26.62,13v6.72a.54.54,0,0,1-.16.4.54.54,0,0,1-.4.17h-.75a.54.54,0,0,1-.4-.17.54.54,0,0,1-.16-.4V13l-2.7,2.81a.54.54,0,0,1-.4.17.46.46,0,0,1-.39-.17Z"/></svg>