<svg id="Calque_1" data-name="Calque 1" xmlns="http://www.w3.org/2000/svg" viewBox="0 0 32 32"><defs><style>.cls-1{fill:#e3e3e3;}</style></defs><title>eyedropper_l</title><path class="cls-1" d="M6.57,20.57l6.33-6.33,6.44,6.44L13,27a3.12,3.12,0,0,1-2.31,1H8.43L5.61,29.58,4,28l1.61-2.82V22.89A3.16,3.16,0,0,1,6.57,20.57ZM28.35,5.23a4.66,4.66,0,0,1,1.41,3.42,4.66,4.66,0,0,1-1.41,3.42L24.48,16l.65.65a1.19,1.19,0,0,1,.35.86,1.17,1.17,0,0,1-.35.85l-2.06,2.06a1.16,1.16,0,0,1-.86.36,1.14,1.14,0,0,1-.85-.36l-8.15-8.15a1.14,1.14,0,0,1-.36-.85,1.16,1.16,0,0,1,.36-.86l2.06-2.06a1.22,1.22,0,0,1,1.71,0l.65.65,3.88-3.87a4.85,4.85,0,0,1,6.84,0Z"/></svg>