<?xml version="1.0" encoding="UTF-8" standalone="no"?>
<!-- Created with Inkscape (http://www.inkscape.org/) -->

<svg
   xmlns:dc="http://purl.org/dc/elements/1.1/"
   xmlns:cc="http://creativecommons.org/ns#"
   xmlns:rdf="http://www.w3.org/1999/02/22-rdf-syntax-ns#"
   xmlns:svg="http://www.w3.org/2000/svg"
   xmlns="http://www.w3.org/2000/svg"
   xmlns:sodipodi="http://sodipodi.sourceforge.net/DTD/sodipodi-0.dtd"
   xmlns:inkscape="http://www.inkscape.org/namespaces/inkscape"
   width="32"
   height="32"
   viewBox="0 0 8.4666666 8.4666666"
   version="1.1"
   id="svg8"
   inkscape:version="0.92.5 (2060ec1f9f, 2020-04-08)"
   sodipodi:docname="file-arcihve_sl.svg">
  <defs
     id="defs2">
    <style
       id="style1399">.cls-1{fill:#e3e3e3;}</style>
    <style
       id="style1399-4">.cls-1{fill:#e3e3e3;}</style>
    <style
       id="style1399-8">.cls-1{fill:#e3e3e3;}</style>
    <style
       id="style1399-4-5">.cls-1{fill:#e3e3e3;}</style>
    <style
       id="style1399-0">.cls-1{fill:#e3e3e3;}</style>
    <style
       id="style854">.cls-1{fill:#e3e3e3;}</style>
    <style
       id="style1399-84">.cls-1{fill:#e3e3e3;}</style>
    <style
       id="style1399-4-8">.cls-1{fill:#e3e3e3;}</style>
    <style
       id="style1399-8-10">.cls-1{fill:#e3e3e3;}</style>
    <style
       id="style1399-4-5-3">.cls-1{fill:#e3e3e3;}</style>
    <style
       id="style1399-0-0">.cls-1{fill:#e3e3e3;}</style>
    <style
       id="style1399-5">.cls-1{fill:#e3e3e3;}</style>
    <style
       id="style1399-4-6">.cls-1{fill:#e3e3e3;}</style>
    <style
       id="style1399-8-1">.cls-1{fill:#e3e3e3;}</style>
    <style
       id="style1399-4-5-1">.cls-1{fill:#e3e3e3;}</style>
    <style
       id="style1399-0-5">.cls-1{fill:#e3e3e3;}</style>
  </defs>
  <sodipodi:namedview
     id="base"
     pagecolor="#ffffff"
     bordercolor="#666666"
     borderopacity="1.0"
     inkscape:pageopacity="0.0"
     inkscape:pageshadow="2"
     inkscape:zoom="7.9999996"
     inkscape:cx="-4.1224064"
     inkscape:cy="15.990937"
     inkscape:document-units="mm"
     inkscape:current-layer="svg8"
     showgrid="false"
     units="px"
     inkscape:window-width="1920"
     inkscape:window-height="1043"
     inkscape:window-x="0"
     inkscape:window-y="120"
     inkscape:window-maximized="1"
     inkscape:snap-bbox="true"
     inkscape:bbox-paths="true"
     inkscape:bbox-nodes="true"
     inkscape:snap-bbox-edge-midpoints="true"
     inkscape:snap-bbox-midpoints="true"
     inkscape:snap-nodes="true"
     inkscape:snap-others="true"
     inkscape:snap-object-midpoints="true"
     inkscape:snap-page="true">
    <sodipodi:guide
       position="8.4666666,0"
       orientation="-32,0"
       id="guide854"
       inkscape:locked="false" />
    <sodipodi:guide
       position="8.4666666,8.4666666"
       orientation="0,-32"
       id="guide856"
       inkscape:locked="false" />
    <sodipodi:guide
       position="0,8.4666814"
       orientation="32,0"
       id="guide858"
       inkscape:locked="false" />
  </sodipodi:namedview>
  <metadata
     id="metadata5">
    <rdf:RDF>
      <cc:Work
         rdf:about="">
        <dc:format>image/svg+xml</dc:format>
        <dc:type
           rdf:resource="http://purl.org/dc/dcmitype/StillImage" />
        <dc:title></dc:title>
      </cc:Work>
    </rdf:RDF>
  </metadata>
  <path
     style="fill:#e3e3e3;fill-opacity:1;stroke-width:0.04035315"
     d="M 9.5039062 0 C 8.9672103 0 8.5351562 0.43205361 8.5351562 0.96875 L 8.5351562 10.646484 L 16.402344 11.648438 L 24.029297 10.675781 L 24.029297 6.4570312 L 18.542969 6.4570312 C 18.010308 6.4570312 17.574219 6.0209471 17.574219 5.4882812 L 17.574219 0 L 9.5039062 0 z M 18.865234 0 L 18.865234 5.1660156 L 24.029297 5.1660156 L 24.029297 4.9199219 C 24.029296 4.6657048 23.929634 4.4179458 23.748047 4.2363281 L 19.796875 0.28320312 C 19.615286 0.10148779 19.369587 0 19.111328 0 L 18.865234 0 z "
     transform="scale(0.26458333)"
     id="path1112" />
  <path
     style="fill:#e3e3e3;stroke-width:0.01201028"
     inkscape:connector-curvature="0"
     d="m 5.6093771,5.7766645 c -0.2029734,0 -0.3939369,-0.1080925 -0.4972254,-0.2810404 L 4.3398909,4.2153284 3.5688312,5.4956241 c -0.1044895,0.174149 -0.2954528,0.2822415 -0.4984267,0.2822415 -0.054046,0 -0.1080925,-0.00721 -0.1597366,-0.02282 L 1.2652599,5.2842433 v 2.1378294 c 0,0.1765507 0.1201027,0.3302824 0.2906487,0.3723184 l 2.5966221,0.6497562 c 0.1225047,0.030026 0.2510147,0.030026 0.3723185,0 L 7.1238732,7.7943911 C 7.2944194,7.751154 7.4145221,7.5974229 7.4145221,7.4220727 V 5.2842433 L 5.7691138,5.7538451 c -0.051644,0.015613 -0.1056902,0.02282 -0.1597367,0.022819 z M 8.1627625,4.4291113 7.544233,3.1944547 C 7.5070012,3.1199911 7.4265322,3.076754 7.3436616,3.0875632 l -3.0037707,0.383128 1.1013426,1.8267633 c 0.045638,0.075664 0.1369172,0.1116956 0.2221901,0.087675 L 8.0402575,4.7065486 C 8.1591594,4.6717189 8.2168087,4.5396059 8.1627625,4.4291113 Z M 1.1355489,3.1944547 0.51701955,4.4291113 c -0.0552473,0.1104946 0.003603,0.2426076 0.1213038,0.2762364 L 3.0151574,5.3839284 c 0.085273,0.024021 0.1765509,-0.012009 0.22219,-0.087675 L 4.3398909,3.4706912 1.3349194,3.0875632 c -0.082871,-0.00961 -0.1621386,0.032428 -0.1993705,0.1068915 z"
     id="path1212" />
</svg>
