<svg id="Calque_1" data-name="Calque 1" xmlns="http://www.w3.org/2000/svg" viewBox="0 0 32 32"><defs><style>.cls-1{fill:#e3e3e3;}</style></defs><title>filledhand_l</title><path class="cls-1" d="M14.53,4.53v12l-.94-.77V6.09c0-1.13-1.07-1.26-2.2-1.26s-1.54.48-1.54,1.61v9.62l-.5,5.11L6.54,17.43a2.31,2.31,0,0,0-1.85-.93,2.34,2.34,0,0,0-2.34,2.33,2.31,2.31,0,0,0,.48,1.41l7,9.33a2.33,2.33,0,0,0,1.86.93H24.23A1.78,1.78,0,0,0,26,29.08l1.38-7.38a6.48,6.48,0,0,0,.1-1.08V11.54a2,2,0,0,0-2.05-2c-1.13,0-1.45.91-1.45,2v5H22.77V6.87a2,2,0,0,0-2-2c-1.13,0-1.54.91-1.54,2V16.5H18.1v-12a2,2,0,0,0-2-2C14.93,2.5,14.53,3.4,14.53,4.53Z"/></svg>