<?xml version="1.0" encoding="UTF-8" standalone="no"?>
<!-- Created with Inkscape (http://www.inkscape.org/) -->

<svg
   xmlns:dc="http://purl.org/dc/elements/1.1/"
   xmlns:cc="http://creativecommons.org/ns#"
   xmlns:rdf="http://www.w3.org/1999/02/22-rdf-syntax-ns#"
   xmlns:svg="http://www.w3.org/2000/svg"
   xmlns="http://www.w3.org/2000/svg"
   xmlns:sodipodi="http://sodipodi.sourceforge.net/DTD/sodipodi-0.dtd"
   xmlns:inkscape="http://www.inkscape.org/namespaces/inkscape"
   width="32"
   height="32"
   viewBox="0 0 8.4666666 8.4666666"
   version="1.1"
   id="svg8"
   inkscape:version="0.92.5 (2060ec1f9f, 2020-04-08)"
   sodipodi:docname="film-file_sl.svg">
  <defs
     id="defs2">
    <style
       id="style1399">.cls-1{fill:#e3e3e3;}</style>
  </defs>
  <sodipodi:namedview
     id="base"
     pagecolor="#ffffff"
     bordercolor="#666666"
     borderopacity="1.0"
     inkscape:pageopacity="0.0"
     inkscape:pageshadow="2"
     inkscape:zoom="15.999999"
     inkscape:cx="0.3565373"
     inkscape:cy="11.192704"
     inkscape:document-units="mm"
     inkscape:current-layer="svg8"
     showgrid="false"
     units="px"
     inkscape:window-width="1920"
     inkscape:window-height="1043"
     inkscape:window-x="0"
     inkscape:window-y="120"
     inkscape:window-maximized="1">
    <sodipodi:guide
       position="8.4666666,0"
       orientation="-32,0"
       id="guide854"
       inkscape:locked="false" />
    <sodipodi:guide
       position="8.4666666,8.4666666"
       orientation="0,-32"
       id="guide856"
       inkscape:locked="false" />
    <sodipodi:guide
       position="0,8.4666814"
       orientation="1,6.123234e-17"
       id="guide858"
       inkscape:locked="false" />
  </sodipodi:namedview>
  <metadata
     id="metadata5">
    <rdf:RDF>
      <cc:Work
         rdf:about="">
        <dc:format>image/svg+xml</dc:format>
        <dc:type
           rdf:resource="http://purl.org/dc/dcmitype/StillImage" />
        <dc:title></dc:title>
      </cc:Work>
    </rdf:RDF>
  </metadata>
  <path
     style="stroke-width:0.06246131;fill:#e3e3e3;fill-opacity:1"
     d="M 4.7402344 0 C 3.9094991 0 3.2421875 0.66926483 3.2421875 1.5 L 3.2421875 30.480469 C 3.2421875 31.311202 3.9094991 31.980469 4.7402344 31.980469 L 25.728516 31.980469 C 26.559251 31.980469 27.226562 31.311202 27.226562 30.480469 L 27.226562 9.9941406 L 18.732422 9.9941406 C 17.907933 9.9941406 17.232422 9.3186298 17.232422 8.4941406 L 17.232422 0 L 4.7402344 0 z M 19.232422 0 L 19.232422 7.9941406 L 27.226562 7.9941406 L 27.226562 7.6132812 C 27.226562 7.219775 27.070138 6.8396697 26.789062 6.5585938 L 20.675781 0.4375 C 20.394705 0.15642413 20.013033 0 19.613281 0 L 19.232422 0 z M 7.6210938 13.767578 L 7.8808594 13.767578 L 7.8808594 14.416016 C 7.8808594 14.629955 8.0555949 14.806641 8.2695312 14.806641 L 9.5664062 14.806641 C 9.7803457 14.806641 9.9550781 14.629952 9.9550781 14.416016 L 9.9550781 13.767578 L 20.328125 13.767578 L 20.328125 14.416016 C 20.328125 14.629955 20.50286 14.806641 20.716797 14.806641 L 22.013672 14.806641 C 22.227611 14.806641 22.402344 14.629952 22.402344 14.416016 L 22.402344 13.767578 L 22.662109 13.767578 C 23.093222 13.767578 23.439453 14.115759 23.439453 14.546875 L 23.439453 25.4375 C 23.439453 25.868613 23.093224 26.214844 22.662109 26.214844 L 22.402344 26.214844 L 22.402344 25.568359 C 22.402344 25.354421 22.227608 25.177734 22.013672 25.177734 L 20.716797 25.177734 C 20.502858 25.177734 20.328125 25.354423 20.328125 25.568359 L 20.328125 26.214844 L 9.9550781 26.214844 L 9.9550781 25.568359 C 9.9550781 25.354421 9.7803426 25.177734 9.5664062 25.177734 L 8.2695312 25.177734 C 8.0555922 25.177734 7.8808594 25.354423 7.8808594 25.568359 L 7.8808594 26.214844 L 7.6210938 26.214844 C 7.1899804 26.214844 6.84375 25.868616 6.84375 25.4375 L 6.84375 14.546875 C 6.84375 14.115762 7.1899785 13.767578 7.6210938 13.767578 z M 11.900391 15.324219 C 11.686451 15.324219 11.509766 15.498954 11.509766 15.712891 L 11.509766 18.826172 C 11.509766 19.040111 11.686454 19.214844 11.900391 19.214844 L 18.382812 19.214844 C 18.596752 19.214844 18.771484 19.040108 18.771484 18.826172 L 18.771484 15.712891 C 18.771484 15.498952 18.596749 15.324219 18.382812 15.324219 L 11.900391 15.324219 z M 8.2695312 15.84375 C 8.0555922 15.84375 7.8808594 16.018485 7.8808594 16.232422 L 7.8808594 17.529297 C 7.8808594 17.743236 8.0555949 17.917969 8.2695312 17.917969 L 9.5664062 17.917969 C 9.7803457 17.917969 9.9550781 17.743233 9.9550781 17.529297 L 9.9550781 16.232422 C 9.9550781 16.018482 9.7803426 15.84375 9.5664062 15.84375 L 8.2695312 15.84375 z M 20.716797 15.84375 C 20.502858 15.84375 20.328125 16.018485 20.328125 16.232422 L 20.328125 17.529297 C 20.328125 17.743236 20.50286 17.917969 20.716797 17.917969 L 22.013672 17.917969 C 22.227611 17.917969 22.402344 17.743233 22.402344 17.529297 L 22.402344 16.232422 C 22.402344 16.018482 22.227608 15.84375 22.013672 15.84375 L 20.716797 15.84375 z M 8.2695312 18.955078 C 8.0555922 18.955078 7.8808594 19.129814 7.8808594 19.34375 L 7.8808594 20.640625 C 7.8808594 20.854564 8.0555949 21.029297 8.2695312 21.029297 L 9.5664062 21.029297 C 9.7803457 21.029297 9.9550781 20.854561 9.9550781 20.640625 L 9.9550781 19.34375 C 9.9550781 19.129811 9.7803426 18.955078 9.5664062 18.955078 L 8.2695312 18.955078 z M 20.716797 18.955078 C 20.502858 18.955078 20.328125 19.129814 20.328125 19.34375 L 20.328125 20.640625 C 20.328125 20.854564 20.50286 21.029297 20.716797 21.029297 L 22.013672 21.029297 C 22.227611 21.029297 22.402344 20.854561 22.402344 20.640625 L 22.402344 19.34375 C 22.402344 19.129811 22.227608 18.955078 22.013672 18.955078 L 20.716797 18.955078 z M 11.900391 20.769531 C 11.686451 20.769531 11.509766 20.944267 11.509766 21.158203 L 11.509766 24.271484 C 11.509766 24.485424 11.686454 24.660156 11.900391 24.660156 L 18.382812 24.660156 C 18.596752 24.660156 18.771484 24.485421 18.771484 24.271484 L 18.771484 21.158203 C 18.771484 20.944264 18.596749 20.769531 18.382812 20.769531 L 11.900391 20.769531 z M 8.2695312 22.066406 C 8.0555922 22.066406 7.8808594 22.241142 7.8808594 22.455078 L 7.8808594 23.751953 C 7.8808594 23.965892 8.0555949 24.140625 8.2695312 24.140625 L 9.5664062 24.140625 C 9.7803457 24.140625 9.9550781 23.96589 9.9550781 23.751953 L 9.9550781 22.455078 C 9.9550781 22.241139 9.7803426 22.066406 9.5664062 22.066406 L 8.2695312 22.066406 z M 20.716797 22.066406 C 20.502858 22.066406 20.328125 22.241142 20.328125 22.455078 L 20.328125 23.751953 C 20.328125 23.965892 20.50286 24.140625 20.716797 24.140625 L 22.013672 24.140625 C 22.227611 24.140625 22.402344 23.96589 22.402344 23.751953 L 22.402344 22.455078 C 22.402344 22.241139 22.227608 22.066406 22.013672 22.066406 L 20.716797 22.066406 z "
     transform="scale(0.26458333)"
     id="path1075" />
</svg>
