<?xml version="1.0" encoding="UTF-8" standalone="no"?>
<!-- Created with Inkscape (http://www.inkscape.org/) -->

<svg
   xmlns:dc="http://purl.org/dc/elements/1.1/"
   xmlns:cc="http://creativecommons.org/ns#"
   xmlns:rdf="http://www.w3.org/1999/02/22-rdf-syntax-ns#"
   xmlns:svg="http://www.w3.org/2000/svg"
   xmlns="http://www.w3.org/2000/svg"
   xmlns:sodipodi="http://sodipodi.sourceforge.net/DTD/sodipodi-0.dtd"
   xmlns:inkscape="http://www.inkscape.org/namespaces/inkscape"
   width="32"
   height="32"
   viewBox="0 0 8.4666666 8.4666666"
   version="1.1"
   id="svg8"
   inkscape:version="0.92.5 (2060ec1f9f, 2020-04-08)"
   sodipodi:docname="fk-forward-kinematics_sl.svg">
  <defs
     id="defs2">
    <style
       id="style1399">.cls-1{fill:#e3e3e3;}</style>
    <style
       id="style1399-4">.cls-1{fill:#e3e3e3;}</style>
    <style
       id="style1399-8">.cls-1{fill:#e3e3e3;}</style>
    <style
       id="style1399-4-5">.cls-1{fill:#e3e3e3;}</style>
    <style
       id="style1399-0">.cls-1{fill:#e3e3e3;}</style>
  </defs>
  <sodipodi:namedview
     id="base"
     pagecolor="#ffffff"
     bordercolor="#666666"
     borderopacity="1.0"
     inkscape:pageopacity="0.0"
     inkscape:pageshadow="2"
     inkscape:zoom="5.6568543"
     inkscape:cx="12.718964"
     inkscape:cy="26.299854"
     inkscape:document-units="mm"
     inkscape:current-layer="svg8"
     showgrid="false"
     units="px"
     inkscape:window-width="1920"
     inkscape:window-height="1043"
     inkscape:window-x="0"
     inkscape:window-y="120"
     inkscape:window-maximized="1"
     inkscape:snap-bbox="true"
     inkscape:bbox-paths="true"
     inkscape:bbox-nodes="true"
     inkscape:snap-bbox-edge-midpoints="true"
     inkscape:snap-bbox-midpoints="true"
     inkscape:snap-nodes="false"
     inkscape:snap-others="true"
     inkscape:snap-object-midpoints="true"
     inkscape:snap-page="true">
    <sodipodi:guide
       position="8.4666666,0"
       orientation="-32,0"
       id="guide854"
       inkscape:locked="false" />
    <sodipodi:guide
       position="9.9384114,8.4666666"
       orientation="0,-32"
       id="guide856"
       inkscape:locked="false" />
    <sodipodi:guide
       position="0,8.4666814"
       orientation="32,0"
       id="guide858"
       inkscape:locked="false" />
  </sodipodi:namedview>
  <metadata
     id="metadata5">
    <rdf:RDF>
      <cc:Work
         rdf:about="">
        <dc:format>image/svg+xml</dc:format>
        <dc:type
           rdf:resource="http://purl.org/dc/dcmitype/StillImage" />
        <dc:title></dc:title>
      </cc:Work>
    </rdf:RDF>
  </metadata>
  <path
     style="opacity:1;fill:#e3e3e3;fill-opacity:1;stroke:none;stroke-width:4.78877592;stroke-linecap:butt;stroke-linejoin:miter;stroke-miterlimit:4;stroke-dasharray:none;stroke-dashoffset:0;stroke-opacity:1"
     d="M 29.828125 0.00390625 C 29.699914 0.011640619 29.570439 0.031832124 29.441406 0.06640625 L 7.8105469 5.8613281 C 7.4880666 5.4874191 7.1064018 5.1703011 6.6796875 4.921875 C 4.5499347 3.692261 1.827269 4.4229827 0.59765625 6.5527344 C 0.443955 6.8189537 0.32012777 7.0943089 0.2265625 7.375 C -0.42839401 9.3398358 0.36302927 11.558855 2.2265625 12.634766 C 4.3563154 13.864379 7.0809335 13.133658 8.3105469 11.003906 C 8.5558805 10.575406 8.7260365 10.1081 8.8183594 9.6230469 L 30.449219 3.828125 C 31.481476 3.5515313 32.089091 2.4971015 31.8125 1.4648438 L 31.804688 1.4316406 C 31.666387 0.91553543 31.333298 0.50434156 30.90625 0.2578125 C 30.585979 0.072901252 30.212757 -0.019296857 29.828125 0.00390625 z M 27.501953 1.9785156 C 28.034852 2.0199376 28.193305 2.9121846 27.53125 3.0332031 L 25.494141 3.59375 C 25.27026 3.6573028 25.030132 3.5688226 24.904297 3.3730469 C 24.708156 3.0720033 24.863886 2.6652949 25.210938 2.5722656 L 27.251953 2.0175781 C 27.34207 1.9840652 27.425825 1.9725982 27.501953 1.9785156 z M 23.423828 3.0957031 C 23.956729 3.137122 24.115183 4.0293741 23.453125 4.1503906 L 21.416016 4.7128906 C 21.192136 4.7764434 20.953945 4.6860177 20.828125 4.4902344 C 20.628529 4.1864972 20.788222 3.7764285 21.140625 3.6875 L 23.173828 3.1347656 C 23.263945 3.1012518 23.347699 3.0897861 23.423828 3.0957031 z M 19.349609 4.21875 C 19.873304 4.27253 20.021456 5.1385376 19.376953 5.2675781 L 17.339844 5.8300781 C 17.11596 5.8936309 16.877789 5.8031976 16.751953 5.6074219 C 16.552356 5.3036843 16.71205 4.893616 17.064453 4.8046875 L 19.103516 4.25 C 19.192479 4.2199564 19.274796 4.2110671 19.349609 4.21875 z M 15.273438 5.3359375 C 15.797129 5.3897197 15.945281 6.2576766 15.300781 6.3867188 L 13.263672 6.9472656 C 13.039793 7.0108146 12.799652 6.9203889 12.673828 6.7246094 C 12.474232 6.4208714 12.633926 6.0127555 12.986328 5.9238281 L 15.027344 5.3671875 C 15.116307 5.3371446 15.198624 5.3282543 15.273438 5.3359375 z M 4.2636719 6.0625 C 4.7864427 6.0254715 5.3263738 6.1379614 5.8144531 6.4199219 C 7.1163851 7.1711449 7.5624419 8.837128 6.8105469 10.138672 C 6.0593242 11.440606 4.3952946 11.888613 3.09375 11.136719 C 1.9545591 10.479399 1.4705586 9.1207515 1.8710938 7.9199219 C 1.9283131 7.7483729 2.0036693 7.5806645 2.0976562 7.4179688 C 2.5671703 6.6042601 3.3923872 6.1242142 4.2636719 6.0625 z M 11.197266 6.453125 C 11.720958 6.5069072 11.867156 7.3748638 11.222656 7.5039062 L 9.1855469 8.0664062 C 8.9616681 8.1299552 8.7234767 8.0395333 8.5976562 7.84375 C 8.3980603 7.540012 8.5577532 7.1299441 8.9101562 7.0410156 L 10.949219 6.484375 C 11.038182 6.4543321 11.122452 6.4454418 11.197266 6.453125 z M 4.59375 7.6582031 C 4.1577316 7.6041291 3.7099828 7.8103081 3.4765625 8.2148438 C 3.3986867 8.3496484 3.3520391 8.4933264 3.3339844 8.6386719 C 3.2798234 9.0747111 3.48609 9.5204869 3.890625 9.7539062 C 4.4298468 10.065414 5.1184593 9.8831339 5.4296875 9.34375 C 5.7411912 8.804529 5.5569636 8.1120091 5.0175781 7.8007812 C 4.8827725 7.7229045 4.7390895 7.6762278 4.59375 7.6582031 z M 9.546875 11.009766 C 9.4837259 11.206399 9.4144026 11.400634 9.3105469 11.582031 C 8.7225726 12.600431 7.8544848 13.361513 6.8613281 13.832031 L 19.125 26.097656 C 18.962427 26.563887 18.878741 27.053116 18.876953 27.546875 C 18.876954 30.006101 20.870853 32 23.330078 32 C 25.789304 32 27.783203 30.006101 27.783203 27.546875 C 27.783202 25.087649 25.789304 23.09375 23.330078 23.09375 C 22.83632 23.095531 22.347091 23.179223 21.880859 23.341797 L 9.546875 11.009766 z M 9.4335938 13.300781 C 9.5943344 13.27608 9.7659709 13.324715 9.8925781 13.455078 L 11.394531 14.945312 C 11.958526 15.441493 11.144442 16.255557 10.648438 15.691406 L 9.1445312 14.207031 C 8.9775555 14.044921 8.9363256 13.792795 9.0429688 13.585938 C 9.124592 13.423575 9.2728531 13.325483 9.4335938 13.300781 z M 12.439453 16.273438 C 12.600194 16.248736 12.773783 16.297372 12.900391 16.427734 L 14.400391 17.916016 C 14.964386 18.412197 14.150301 19.22626 13.654297 18.662109 L 12.150391 17.179688 C 11.983415 17.017577 11.942189 16.765451 12.048828 16.558594 C 12.130451 16.396232 12.278712 16.298139 12.439453 16.273438 z M 15.447266 19.246094 C 15.608006 19.221392 15.779643 19.268075 15.90625 19.398438 L 17.408203 20.888672 C 17.972204 21.384853 17.158114 22.198921 16.662109 21.634766 L 15.15625 20.152344 C 14.98927 19.990233 14.948059 19.736162 15.054688 19.529297 C 15.136311 19.366935 15.286525 19.270795 15.447266 19.246094 z M 18.453125 22.216797 C 18.613866 22.192095 18.785502 22.240731 18.912109 22.371094 L 20.408203 23.857422 C 21.00086 24.347714 20.166063 25.191584 19.667969 24.605469 L 18.164062 23.123047 C 17.997083 22.960937 17.953904 22.70881 18.060547 22.501953 C 18.14217 22.339591 18.292384 22.241499 18.453125 22.216797 z M 23.330078 24.826172 C 24.833197 24.825784 26.051169 26.043757 26.050781 27.546875 C 26.05117 29.049993 24.831243 30.267966 23.328125 30.267578 C 21.825009 30.267967 20.608987 29.049993 20.609375 27.546875 C 20.609327 27.358987 20.627823 27.175221 20.664062 26.998047 C 20.917605 25.75783 22.014849 24.825832 23.330078 24.826172 z M 23.330078 26.419922 C 22.863029 26.419802 22.462133 26.70272 22.291016 27.107422 C 22.233975 27.242321 22.201134 27.391194 22.201172 27.546875 C 22.20101 28.169608 22.707345 28.673988 23.330078 28.673828 C 23.95281 28.673989 24.457192 28.169607 24.457031 27.546875 C 24.457191 26.924141 23.952812 26.419762 23.330078 26.419922 z "
     transform="scale(0.26458333)"
     id="path828" />
</svg>
