<svg id="Calque_1" data-name="Calque 1" xmlns="http://www.w3.org/2000/svg" viewBox="0 0 32 32"><defs><style>.cls-1,.cls-3{font-size:17.29px;font-family:MyriadPro-Bold, Myriad Pro;font-weight:700;}.cls-1,.cls-3,.cls-4{fill:#e3e3e3;}.cls-1{letter-spacing:-0.04em;}.cls-2{letter-spacing:-0.05em;}.cls-3{letter-spacing:-0.05em;}</style></defs><title>fk2ik_l</title><text class="cls-1" transform="translate(0.86 13.68)">f<tspan class="cls-2" x="5.17" y="0">k</tspan></text><text class="cls-3" transform="translate(18.19 30.68)">i<tspan class="cls-2" x="3.8" y="0">k</tspan></text><path class="cls-4" d="M10.07,17.06a.81.81,0,0,1,1.15,0l6.52,6.53a.75.75,0,0,1,.24.57.78.78,0,0,1-.24.57l-6.52,6.53a.83.83,0,0,1-1.15,0l-.77-.74A.72.72,0,0,1,9.08,30a.83.83,0,0,1,.25-.58l4-3.87H3.71a.79.79,0,0,1-.8-.8V23.62a.77.77,0,0,1,.23-.57.78.78,0,0,1,.57-.24h9.66l-4-3.87a.79.79,0,0,1-.25-.57.72.72,0,0,1,.22-.57Z"/></svg>