<svg id="Calque_1" data-name="Calque 1" xmlns="http://www.w3.org/2000/svg" viewBox="0 0 32 32"><defs><style>.cls-1{fill:#e3e3e3;}</style></defs><title>folder_l</title><path class="cls-1" d="M10.62,14.76a4.56,4.56,0,0,0-2.4.66,4.92,4.92,0,0,0-1.76,1.75L3,23.09V9.15A2.39,2.39,0,0,1,5.41,6.74h8L16.64,10h8a2.39,2.39,0,0,1,2.4,2.41v2.4Zm21.12,3.42a1.21,1.21,0,0,0-1-1.81H10.62A3.15,3.15,0,0,0,9,16.8,2.78,2.78,0,0,0,7.87,18L4.2,24.19A1.21,1.21,0,0,0,5.26,26H25.32a3.12,3.12,0,0,0,1.6-.43,2.84,2.84,0,0,0,1.16-1.17Z"/></svg>