<svg id="Calque_1" data-name="Calque 1" xmlns="http://www.w3.org/2000/svg" viewBox="0 0 32 32"><defs><style>.cls-1{fill:#e3e3e3;}</style></defs><title>forum_l</title><path class="cls-1" d="M11.92,18.2A11.77,11.77,0,0,1,6.75,17,8.17,8.17,0,0,1,2.63,18.2.36.36,0,0,1,2.29,18a.38.38,0,0,1,.07-.41A10.17,10.17,0,0,0,4,15a6.29,6.29,0,0,1-1.76-4.27c0-4.1,4.32-7.43,9.66-7.43s9.65,3.33,9.65,7.43S17.25,18.2,11.92,18.2Zm17,5.32a.37.37,0,0,1,.07.4.36.36,0,0,1-.34.22A8.2,8.2,0,0,1,24.51,23a11.62,11.62,0,0,1-5.16,1.16c-4,0-7.44-1.87-8.91-4.54a14.52,14.52,0,0,0,1.48.09c6.14,0,11.14-4,11.14-8.92A7,7,0,0,0,23,9.84c3.52,1.11,6,3.77,6,6.87A6.3,6.3,0,0,1,27.24,21,10.73,10.73,0,0,0,28.9,23.52Z"/></svg>