<svg id="Calque_1" data-name="Calque 1" xmlns="http://www.w3.org/2000/svg" viewBox="0 0 32 32"><defs><style>.cls-1{fill:#e3e3e3;}.cls-2{fill:none;stroke:#e3e3e3;stroke-miterlimit:10;}</style></defs><title>foxtail_l</title><path class="cls-1" d="M23,6.5,21.67,8.27a17,17,0,0,0-2.55,4.87L19,13.5V12.4a11.61,11.61,0,0,1,.6-3.7L20,7.5l-.17.34a5.56,5.56,0,0,1-2.49,2.49L17,10.5l.21-.21a6.81,6.81,0,0,0,1.29-1.8l.5-1L17.19,9.31a10.39,10.39,0,0,0-2,2.7L15,12.5V10.82a3.21,3.21,0,0,1,.94-2.26L17,7.5l-.72.36a25.17,25.17,0,0,0-2.47,1.43l-.18.12A10.55,10.55,0,0,0,12,15v2.5a6.45,6.45,0,0,1-3.55,5.75L6,24.5l1,3c2.59-.42,4.36-.09,8.09-1.54A9.6,9.6,0,0,0,21,17.1V12.54a8.39,8.39,0,0,1,1.87-5.28Z"/><path class="cls-2" d="M6,24.5l2.45-1.22A6.45,6.45,0,0,0,12,17.53V15A10.56,10.56,0,0,1,20.34,4.71L26,3.5,23,7.17A8.36,8.36,0,0,0,21,12.54V17.1A9.6,9.6,0,0,1,15.09,26C11.36,27.41,9.59,27.08,7,27.5Z"/></svg>