<?xml version="1.0" encoding="UTF-8" standalone="no"?>
<!-- Created with Inkscape (http://www.inkscape.org/) -->

<svg
   xmlns:dc="http://purl.org/dc/elements/1.1/"
   xmlns:cc="http://creativecommons.org/ns#"
   xmlns:rdf="http://www.w3.org/1999/02/22-rdf-syntax-ns#"
   xmlns:svg="http://www.w3.org/2000/svg"
   xmlns="http://www.w3.org/2000/svg"
   xmlns:sodipodi="http://sodipodi.sourceforge.net/DTD/sodipodi-0.dtd"
   xmlns:inkscape="http://www.inkscape.org/namespaces/inkscape"
   width="32"
   height="32"
   viewBox="0 0 8.4666666 8.4666666"
   version="1.1"
   id="svg8"
   inkscape:version="0.92.5 (2060ec1f9f, 2020-04-08)"
   sodipodi:docname="function_sl.svg">
  <defs
     id="defs2">
    <style
       id="style1399">.cls-1{fill:#e3e3e3;}</style>
  </defs>
  <sodipodi:namedview
     id="base"
     pagecolor="#ffffff"
     bordercolor="#666666"
     borderopacity="1.0"
     inkscape:pageopacity="0.0"
     inkscape:pageshadow="2"
     inkscape:zoom="11.313709"
     inkscape:cx="6.6515208"
     inkscape:cy="14.602203"
     inkscape:document-units="mm"
     inkscape:current-layer="svg8"
     showgrid="false"
     units="px"
     inkscape:window-width="1920"
     inkscape:window-height="1043"
     inkscape:window-x="0"
     inkscape:window-y="120"
     inkscape:window-maximized="1">
    <sodipodi:guide
       position="8.4666666,0"
       orientation="-32,0"
       id="guide854"
       inkscape:locked="false" />
    <sodipodi:guide
       position="8.4666666,8.4666666"
       orientation="0,-32"
       id="guide856"
       inkscape:locked="false" />
    <sodipodi:guide
       position="0,8.4666814"
       orientation="32,0"
       id="guide858"
       inkscape:locked="false" />
  </sodipodi:namedview>
  <metadata
     id="metadata5">
    <rdf:RDF>
      <cc:Work
         rdf:about="">
        <dc:format>image/svg+xml</dc:format>
        <dc:type
           rdf:resource="http://purl.org/dc/dcmitype/StillImage" />
        <dc:title></dc:title>
      </cc:Work>
    </rdf:RDF>
  </metadata>
  <path
     style="font-style:normal;font-variant:normal;font-weight:bold;font-stretch:normal;font-size:5.76447964px;line-height:1.25;font-family:'Courier Prime Sans';-inkscape-font-specification:'Courier Prime Sans, Bold';font-variant-ligatures:normal;font-variant-caps:normal;font-variant-numeric:normal;font-feature-settings:normal;text-align:start;letter-spacing:0px;word-spacing:0px;writing-mode:lr-tb;text-anchor:start;fill:#e3e3e3;fill-opacity:1;stroke:none;stroke-width:0.68135154"
     d="M 19.947266 5.1601562 C 19.82306 5.1601562 19.698424 5.1966036 19.574219 5.2675781 C 18.341044 5.9684474 17.210765 6.8466035 16.181641 7.9023438 C 15.161388 8.9580835 14.332126 10.227399 13.693359 11.708984 C 13.054592 13.190569 12.734375 14.839491 12.734375 16.658203 C 12.734375 18.476915 13.054592 20.12779 13.693359 21.609375 C 14.332126 23.09096 15.161388 24.358323 16.181641 25.414062 C 17.210765 26.469802 18.341046 27.349913 19.574219 28.050781 C 19.698424 28.121756 19.82306 28.15625 19.947266 28.15625 C 20.151315 28.15625 20.359342 28.072861 20.572266 27.904297 C 20.794059 27.744604 20.994439 27.526977 21.171875 27.251953 C 21.491258 26.772878 21.650391 26.350071 21.650391 25.986328 C 21.650391 25.746788 21.571799 25.575209 21.412109 25.46875 C 19.637756 24.35978 18.297498 23.090463 17.392578 21.662109 C 16.487658 20.224883 16.035156 18.556761 16.035156 16.658203 C 16.035156 14.759645 16.487658 13.096323 17.392578 11.667969 C 18.297498 10.230743 19.637754 8.9585782 21.412109 7.8496094 C 21.571799 7.7431494 21.650391 7.569617 21.650391 7.3300781 C 21.650391 6.9663356 21.491258 6.5454815 21.171875 6.0664062 C 20.994441 5.7913826 20.794061 5.5737551 20.572266 5.4140625 C 20.359344 5.2454981 20.151317 5.1601562 19.947266 5.1601562 z M 24.621094 5.1601562 C 24.417045 5.1601562 24.204217 5.2454981 23.982422 5.4140625 C 23.7695 5.5737543 23.573921 5.7913814 23.396484 6.0664062 C 23.077101 6.5454815 22.917969 6.9663359 22.917969 7.3300781 C 22.917969 7.5696178 22.99656 7.7431502 23.15625 7.8496094 C 24.930603 8.95858 26.270862 10.230743 27.175781 11.667969 C 28.080703 13.096323 28.533203 14.759645 28.533203 16.658203 C 28.533203 18.556761 28.080703 20.224883 27.175781 21.662109 C 26.270861 23.090463 24.930604 24.35978 23.15625 25.46875 C 22.99656 25.57521 22.917969 25.746789 22.917969 25.986328 C 22.917969 26.350071 23.077101 26.772878 23.396484 27.251953 C 23.57392 27.526977 23.769498 27.744604 23.982422 27.904297 C 24.204215 28.072861 24.417042 28.15625 24.621094 28.15625 C 24.745297 28.15625 24.869935 28.121756 24.994141 28.050781 C 26.227316 27.349912 27.352795 26.469802 28.373047 25.414062 C 29.402173 24.358323 30.236235 23.09096 30.875 21.609375 C 31.513769 20.12779 31.833984 18.476915 31.833984 16.658203 C 31.833984 14.839491 31.513769 13.190569 30.875 11.708984 C 30.236235 10.227399 29.402173 8.9580835 28.373047 7.9023438 C 27.352795 6.8466035 26.227316 5.9684474 24.994141 5.2675781 C 24.869938 5.1966029 24.745299 5.1601562 24.621094 5.1601562 z M 8.1953125 6.0390625 C 6.6516254 6.0390625 5.4724521 6.469517 4.65625 7.3300781 C 3.8489193 8.1906395 3.4453125 9.4455551 3.4453125 11.095703 L 3.4453125 12.066406 L 1.0097656 12.066406 C 0.69925524 12.066406 0.48162771 12.173798 0.35742188 12.386719 C 0.23321604 12.590769 0.171875 12.984776 0.171875 13.570312 C 0.171875 14.155848 0.23321604 14.551808 0.35742188 14.755859 C 0.4816265 14.959911 0.69925403 15.0625 1.0097656 15.0625 L 3.4453125 15.0625 L 3.4453125 22.726562 C 3.4453125 23.028204 3.5066533 23.245832 3.6308594 23.378906 C 3.7639368 23.503112 3.9815643 23.564453 4.2832031 23.564453 L 5.9335938 23.564453 C 6.2352331 23.564453 6.4480603 23.503112 6.5722656 23.378906 C 6.7053403 23.245829 6.7714844 23.028201 6.7714844 22.726562 L 6.7714844 15.0625 L 10.910156 15.0625 C 11.220668 15.0625 11.438295 14.959911 11.5625 14.755859 C 11.686705 14.551809 11.748047 14.155849 11.748047 13.570312 C 11.748047 12.984777 11.686705 12.59077 11.5625 12.386719 C 11.438295 12.173798 11.220668 12.066406 10.910156 12.066406 L 6.7714844 12.066406 L 6.7714844 11.269531 C 6.7714844 10.550918 6.9181682 10.027474 7.2109375 9.6992188 C 7.5037058 9.3620917 7.9293599 9.1933594 8.4882812 9.1933594 C 9.3310988 9.1933594 10.316645 9.3649389 11.443359 9.7109375 C 11.549824 9.7464247 11.66006 9.765625 11.775391 9.765625 C 11.988314 9.765625 12.174294 9.6754831 12.333984 9.4980469 C 12.502547 9.3117396 12.644432 9.0155232 12.759766 8.6074219 C 12.848481 8.2880397 12.892578 8.0042701 12.892578 7.7558594 C 12.892578 7.4985766 12.840834 7.2933964 12.734375 7.1425781 C 12.627915 6.9917573 12.46203 6.8767213 12.240234 6.796875 C 10.891726 6.2911843 9.5438207 6.0390625 8.1953125 6.0390625 z "
     transform="scale(0.26458333)"
     id="path954" />
</svg>
