<svg id="Calque_1" data-name="Calque 1" xmlns="http://www.w3.org/2000/svg" viewBox="0 0 32 32"><defs><style>.cls-1{fill:#e3e3e3;}</style></defs><title>handeyedropper_l</title><path class="cls-1" d="M15,10.51V9.65A1.63,1.63,0,0,0,13.36,8c-.9,0-1.23.72-1.23,1.63v3.74Z"/><path class="cls-1" d="M19,20.88a2.92,2.92,0,0,1-2.07.86H15L12.39,23a1.44,1.44,0,0,1-.67.16,1.49,1.49,0,0,1-1.06-.44L9.94,22a1.49,1.49,0,0,1-.28-1.73l1.28-2.57V15.78a2.93,2.93,0,0,1,.44-1.53V10.89c0-.91-.86-1-1.77-1s-1.24.39-1.24,1.29V18.9L8,23,5.72,20a1.87,1.87,0,1,0-3,2.26l5.63,7.49a1.86,1.86,0,0,0,1.49.75H19.92a1.41,1.41,0,0,0,1.39-1.14l1.12-5.93a6.13,6.13,0,0,0,.07-.87V17.35Z"/><path class="cls-1" d="M13,14.25l5-5L23,14.33l-5,5a2.48,2.48,0,0,1-1.82.75H14.47l-2.21,1.26L11,20.06l1.26-2.21V16.07A2.48,2.48,0,0,1,13,14.25Zm17.1-12a3.65,3.65,0,0,1,1.11,2.68,3.65,3.65,0,0,1-1.11,2.69l-3,3,.52.51a1,1,0,0,1,0,1.35L26,14.1a1,1,0,0,1-1.35,0L18.23,7.7a1,1,0,0,1,0-1.35l1.62-1.61a.88.88,0,0,1,.67-.28.91.91,0,0,1,.67.28l.51.51,3-3A3.67,3.67,0,0,1,27.43,1.1,3.63,3.63,0,0,1,30.11,2.21Z"/></svg>