<?xml version="1.0" encoding="UTF-8" standalone="no"?>
<!-- Created with Inkscape (http://www.inkscape.org/) -->

<svg
   xmlns:dc="http://purl.org/dc/elements/1.1/"
   xmlns:cc="http://creativecommons.org/ns#"
   xmlns:rdf="http://www.w3.org/1999/02/22-rdf-syntax-ns#"
   xmlns:svg="http://www.w3.org/2000/svg"
   xmlns="http://www.w3.org/2000/svg"
   xmlns:sodipodi="http://sodipodi.sourceforge.net/DTD/sodipodi-0.dtd"
   xmlns:inkscape="http://www.inkscape.org/namespaces/inkscape"
   width="32"
   height="32"
   viewBox="0 0 8.4666666 8.4666666"
   version="1.1"
   id="svg8"
   inkscape:version="0.92.5 (2060ec1f9f, 2020-04-08)"
   sodipodi:docname="help_bld.svg">
  <defs
     id="defs2" />
  <sodipodi:namedview
     id="base"
     pagecolor="#ffffff"
     bordercolor="#666666"
     borderopacity="1.0"
     inkscape:pageopacity="0.0"
     inkscape:pageshadow="2"
     inkscape:zoom="16"
     inkscape:cx="5.0813115"
     inkscape:cy="12.866294"
     inkscape:document-units="mm"
     inkscape:current-layer="layer1"
     showgrid="false"
     units="px"
     inkscape:window-width="1920"
     inkscape:window-height="1043"
     inkscape:window-x="0"
     inkscape:window-y="120"
     inkscape:window-maximized="1">
    <sodipodi:guide
       position="8.4666666,0"
       orientation="-32,0"
       id="guide854"
       inkscape:locked="false" />
    <sodipodi:guide
       position="8.4666666,8.4666666"
       orientation="0,-32"
       id="guide856"
       inkscape:locked="false" />
    <sodipodi:guide
       position="0,8.4666814"
       orientation="32,0"
       id="guide858"
       inkscape:locked="false" />
  </sodipodi:namedview>
  <metadata
     id="metadata5">
    <rdf:RDF>
      <cc:Work
         rdf:about="">
        <dc:format>image/svg+xml</dc:format>
        <dc:type
           rdf:resource="http://purl.org/dc/dcmitype/StillImage" />
        <dc:title></dc:title>
      </cc:Work>
    </rdf:RDF>
  </metadata>
  <g
     inkscape:label="Layer 1"
     inkscape:groupmode="layer"
     id="layer1"
     transform="translate(0,-288.53334)">
    <path
       id="path1012"
       d="m 8.4666667,292.76376 c 0,2.32784 -1.8868214,4.21398 -4.213968,4.21398 -2.3271467,0 -4.21396781,-1.88614 -4.21396781,-4.21398 0,-2.32645 1.88682111,-4.21396 4.21396781,-4.21396 2.3271466,0 4.213968,1.88751 4.213968,4.21396 z m -4.1008875,-2.82063 c -0.9260025,0 -1.5166037,0.39007 -1.980378,1.08336 -0.060084,0.0899 -0.039982,0.21095 0.046133,0.27626 l 0.5895987,0.44704 c 0.088443,0.0671 0.2144537,0.0511 0.2831685,-0.0361 0.3035416,-0.385 0.5116742,-0.60826 0.9736814,-0.60826 0.3471257,0 0.7764916,0.22341 0.7764916,0.56001 0,0.25448 -0.2100697,0.38516 -0.5528116,0.57732 -0.399715,0.22408 -0.9286359,0.50296 -0.9286359,1.20064 v 0.068 c 0,0.11261 0.091298,0.2039 0.2039016,0.2039 h 0.9515411 c 0.1126046,0 0.2039018,-0.0913 0.2039018,-0.2039 v -0.0226 c 0,-0.48361 1.4134805,-0.50375 1.4134805,-1.81246 0,-0.98556 -1.0223122,-1.73315 -1.9800724,-1.73315 z m -0.1130805,4.21396 c -0.4309972,0 -0.7816231,0.35063 -0.7816231,0.78163 0,0.43098 0.3506259,0.78162 0.7816231,0.78162 0.4309971,0 0.7816231,-0.35064 0.7816231,-0.78162 0,-0.431 -0.350626,-0.78163 -0.7816231,-0.78163 z"
       inkscape:connector-curvature="0"
       style="stroke-width:0.01699181;fill:#e3e3e3;fill-opacity:1" />
  </g>
</svg>
