<svg id="Calque_1" data-name="Calque 1" xmlns="http://www.w3.org/2000/svg" viewBox="0 0 32 32"><defs><style>.cls-1{fill:#e3e3e3;}</style></defs><title>hidehand_l</title><path class="cls-1" d="M21.2,12.82c.19,0,.38,0,.57,0v-7a2,2,0,0,0-2-2c-1.13,0-1.54.91-1.54,2v7.34A12.18,12.18,0,0,1,21.2,12.82Z"/><path class="cls-1" d="M26.44,14V10.54a2,2,0,0,0-2.05-2c-1.13,0-1.45.91-1.45,2V13A12.77,12.77,0,0,1,26.44,14Z"/><path class="cls-1" d="M21.2,29a13,13,0,0,1-11-6.32,3.45,3.45,0,0,1-.51-1.77,3.39,3.39,0,0,1,.48-1.72,13.77,13.77,0,0,1,3.32-3.71l-.93-.77V5.09c0-1.13-1.07-1.26-2.2-1.26s-1.54.48-1.54,1.61v9.62l-.5,5.11L5.54,16.43a2.31,2.31,0,0,0-1.85-.93,2.34,2.34,0,0,0-2.34,2.33,2.31,2.31,0,0,0,.48,1.41l7,9.33a2.33,2.33,0,0,0,1.86.93H23.23a1.77,1.77,0,0,0,1.59-1.06A12.32,12.32,0,0,1,21.2,29Z"/><path class="cls-1" d="M17.1,13.56v-10a2,2,0,0,0-2-2c-1.13,0-1.53.9-1.53,2v12A13.12,13.12,0,0,1,17.1,13.56Z"/><path class="cls-1" d="M22.39,26.93c-.34,0-.68,0-1,0A10.89,10.89,0,0,1,12,21.62a1.47,1.47,0,0,1-.24-.81A1.44,1.44,0,0,1,12,20a10.45,10.45,0,0,1,3.21-3.44l1.9,2.74a4.32,4.32,0,0,0-.27,1.5,4.38,4.38,0,0,0,.61,2.28A4.52,4.52,0,0,0,19,24.74a4.29,4.29,0,0,0,2.28.62Zm6.42-2.87a11.37,11.37,0,0,1-2.58,1.77l1.41,2a.83.83,0,0,1,.11.6.67.67,0,0,1-.31.5l-.44.34a.89.89,0,0,1-.6.12.84.84,0,0,1-.54-.32L15.07,13.83a.83.83,0,0,1-.12-.6.69.69,0,0,1,.32-.51l.43-.33a.89.89,0,0,1,.6-.12.82.82,0,0,1,.54.32L18.54,15a11.06,11.06,0,0,1,2.81-.37,10.64,10.64,0,0,1,5.48,1.47A10.8,10.8,0,0,1,30.75,20a1.52,1.52,0,0,1,.23.8,1.55,1.55,0,0,1-.23.81A10.13,10.13,0,0,1,28.81,24.06ZM17.87,20.48a3.5,3.5,0,0,0,.64,2.34,3.45,3.45,0,0,0,2,1.37Zm7.41-1.94a4.69,4.69,0,0,0-1.66-1.65,4.26,4.26,0,0,0-2.27-.62,4.55,4.55,0,0,0-1.7.33l.66.9a3.74,3.74,0,0,1,1.34-.15,3.51,3.51,0,0,1,1.34.39,1.39,1.39,0,0,0-1,.42,1.37,1.37,0,0,0-.42,1,1.39,1.39,0,0,0,.42,1,1.47,1.47,0,0,0,2,0,1.39,1.39,0,0,0,.42-1,3.44,3.44,0,0,1,.4,1.87,3.56,3.56,0,0,1-.67,1.84l.63.9a4.52,4.52,0,0,0,.49-5.25Z"/></svg>