<svg id="Calque_1" data-name="Calque 1" xmlns="http://www.w3.org/2000/svg" viewBox="0 0 32 32"><defs><style>.cls-1{fill:#e3e3e3;}.cls-2{fill:none;stroke:#e3e3e3;stroke-miterlimit:10;}</style></defs><title>hsym_l</title><path class="cls-1" d="M3.8,16.14a1,1,0,0,1-.47-.54,1.05,1.05,0,0,1,0-.7,1,1,0,0,1,.47-.55l7.69-4.54a1,1,0,0,1,.7-.14,1,1,0,0,1,.62.35,1,1,0,0,1,.25.68v9.09a1,1,0,0,1-.26.71,1.08,1.08,0,0,1-.63.33,1,1,0,0,1-.68-.14Z"/><path class="cls-2" d="M28.85,14.36a1,1,0,0,1,.49.57,1.14,1.14,0,0,1,0,.73,1,1,0,0,1-.49.57L20.78,21a1,1,0,0,1-.73.14,1.15,1.15,0,0,1-.66-.37,1.05,1.05,0,0,1-.26-.71V10.53a1,1,0,0,1,.27-.75,1.17,1.17,0,0,1,.67-.34,1,1,0,0,1,.71.15Z"/><rect class="cls-1" x="15" y="3" width="2" height="26"/></svg>