<svg id="Calque_1" data-name="Calque 1" xmlns="http://www.w3.org/2000/svg" viewBox="0 0 32 32"><defs><style>.cls-1{fill:#e3e3e3;}</style></defs><title>human_l</title><path class="cls-1" d="M25.69,12.19l-.1-.42a8,8,0,0,1-2.06.64,7.52,7.52,0,0,1-1.33.11H22A7.44,7.44,0,0,1,19.37,12l.28.84,0,.09a.26.26,0,0,0,.17.18l1.17.4a.31.31,0,0,1,.22.33.31.31,0,0,1-.31.28l-.1,0-1.18-.4a.9.9,0,0,1-.57-.57L18,9.87a.86.86,0,0,0-.29-.36.85.85,0,0,0-.47-.15l-.18,0a.86.86,0,0,0-.52.39.84.84,0,0,0-.1.56l1.08,3.24A2.6,2.6,0,0,0,20,15.31l4.42,0h0a1.13,1.13,0,0,0,.85-.37,1.1,1.1,0,0,0,.08-1.39h0a.42.42,0,0,1,.09-.56A.83.83,0,0,0,25.69,12.19Z"/><path class="cls-1" d="M16.78,8.54a2.09,2.09,0,0,1,.35,0,1.86,1.86,0,0,1,1.05.35,1.65,1.65,0,0,1,.5.55h0a1.39,1.39,0,0,1,.12.28l.4,1.21a6.46,6.46,0,0,0,3,.76,6.55,6.55,0,0,0,3.22-.86l-.05-.22a.83.83,0,0,0-.69-.64l-.15,0a.23.23,0,0,1-.18-.15c0-.07.38-1.44.58-2.17a.72.72,0,0,0-.23-.76l-.09-.07-.2-.18a1.48,1.48,0,0,0,0-.21c0-3.64-2.12-5.12-5.75-5.12-.22,0-.45,0-.68,0-3.66.17-6.06,3.21-6.06,7.39,0,2.28,1.51,2.73,4.05,2.82l-.33-1.07a1.56,1.56,0,0,1,.2-1.17A1.46,1.46,0,0,1,16.78,8.54Zm4.87-2.43a1.83,1.83,0,0,1,1.77,2,1.82,1.82,0,0,1-1.77,2,2,2,0,1,1,0-4.06Z"/><path class="cls-1" d="M11,18a28.49,28.49,0,0,0-3.94,4.13c-1.35,1.87-2.45,4-3,4.2s-1.87.78-1.38,1.25a1.36,1.36,0,0,0,1.56.3,2,2,0,0,0,.38-1s3.19-4.56,4.78-5.77,3.11-1.19,3.19-2-.21-1.34-.5-1.43A1.26,1.26,0,0,0,11,18Z"/><path class="cls-1" d="M3.06,28.37c-.5.35-1.13-.58-1.26-1.38a62,62,0,0,1,.53-8.74c.31-1.08-.45-1.51-.07-1.71s1.57,0,1.29.35a34.52,34.52,0,0,0-1,9.09c.5.13.48.47.48.47s-.85.69-.63,1.2A1.22,1.22,0,0,0,3.06,28.37Z"/><path class="cls-1" d="M2.46,16.1c0-.35,2.4-2.17,2.79-1.89s1.33,1.44,1.16,1.67-.42,1.23-1,1.19a4.2,4.2,0,0,1-1.32-.48s.21-.45.36-.33a6,6,0,0,0,.6.31s.52-.22.59-.64-.6-1.14-.73-1.12-1,.92-1,1.4S2.45,16.44,2.46,16.1Z"/><path class="cls-1" d="M11,17.28c-.24-.17.53-2.22,1.73-2.89s1.3-1.31,1.59-1.22.76.43.61.8-2,.32-2.66,1.39a4,4,0,0,0-.53,1.87A.62.62,0,0,1,11,17.28Z"/><path class="cls-1" d="M12.33,17.2c.1-.64.69-2.1,1.5-1.75s1.92.79,1.92.79,1.33,4,.67,4.63S15,19.72,14.63,19.58a13,13,0,0,1-1.71-.42A2.76,2.76,0,0,1,12.33,17.2Z"/><path class="cls-1" d="M18,22.25c.3-1,1.48-.1,1.48-.1a1.85,1.85,0,0,0,1.34-.45,28.36,28.36,0,0,1,3.53-2.91c3.45-2.3,3.05-2.63,4.26-3.08s1.15.41,1.31.88-.26,1.6-.77,1.39-.81-.8-1.28-.52a23.27,23.27,0,0,0-6.75,4.94,2.79,2.79,0,0,1-1.77,1.34c-.5,0-.54-.57-.54-.57S17.71,23.24,18,22.25Z"/><path class="cls-1" d="M30.87,16.68c.54.32.54.32.4,1.52a1.56,1.56,0,0,1-1.18,1.41S30.33,16.35,30.87,16.68Z"/><path class="cls-1" d="M29.26,18c.29,1.32-.19,1.7-.19,1.7s-4.26,6.07-4.31,8.37a.57.57,0,0,1,.27.6,1.09,1.09,0,0,1-1.48.41c-.63-.34-.52-.83-.05-1.57s.91-2.33,2.07-4.66,1.76-3.09,1.85-3.94-.16-1.08-.16-1.08a1.36,1.36,0,0,0,1,.45A2,2,0,0,0,29.26,18Z"/><path class="cls-1" d="M24.93,29.81a1.14,1.14,0,0,1-1.49.05c-.89-.57-1.49.17-1.35.53s.28.84.77.7.73-.51,1.47-.53.63.1.63.1l1.19-1.37s-.5-.23-.74-.1A1.66,1.66,0,0,0,24.93,29.81Z"/><path class="cls-1" d="M26.94,29.52,25.5,31s.86-.27,1.24,0a3.66,3.66,0,0,0,1.76.42c.62,0,1.35-.41,1.21-.76s-1,0-1.5-.2A6.68,6.68,0,0,1,26.94,29.52Z"/></svg>