<?xml version="1.0" encoding="UTF-8" standalone="no"?>
<!-- Created with Inkscape (http://www.inkscape.org/) -->

<svg
   xmlns:dc="http://purl.org/dc/elements/1.1/"
   xmlns:cc="http://creativecommons.org/ns#"
   xmlns:rdf="http://www.w3.org/1999/02/22-rdf-syntax-ns#"
   xmlns:svg="http://www.w3.org/2000/svg"
   xmlns="http://www.w3.org/2000/svg"
   xmlns:sodipodi="http://sodipodi.sourceforge.net/DTD/sodipodi-0.dtd"
   xmlns:inkscape="http://www.inkscape.org/namespaces/inkscape"
   width="32"
   height="32"
   viewBox="0 0 8.4666666 8.4666666"
   version="1.1"
   id="svg8"
   inkscape:version="0.92.5 (2060ec1f9f, 2020-04-08)"
   sodipodi:docname="ik-fk_bl.svg">
  <defs
     id="defs2">
    <style
       id="style1399">.cls-1{fill:#e3e3e3;}</style>
    <style
       id="style1399-4">.cls-1{fill:#e3e3e3;}</style>
    <style
       id="style1399-8">.cls-1{fill:#e3e3e3;}</style>
    <style
       id="style1399-4-5">.cls-1{fill:#e3e3e3;}</style>
    <style
       id="style1399-0">.cls-1{fill:#e3e3e3;}</style>
    <style
       id="style1399-5">.cls-1{fill:#e3e3e3;}</style>
    <style
       id="style1399-4-6">.cls-1{fill:#e3e3e3;}</style>
    <style
       id="style1399-8-1">.cls-1{fill:#e3e3e3;}</style>
    <style
       id="style1399-4-5-1">.cls-1{fill:#e3e3e3;}</style>
    <style
       id="style1399-0-5">.cls-1{fill:#e3e3e3;}</style>
    <style
       id="style1399-44">.cls-1{fill:#e3e3e3;}</style>
    <style
       id="style1399-4-4">.cls-1{fill:#e3e3e3;}</style>
    <style
       id="style1399-8-4">.cls-1{fill:#e3e3e3;}</style>
    <style
       id="style1399-4-5-7">.cls-1{fill:#e3e3e3;}</style>
    <style
       id="style1399-0-6">.cls-1{fill:#e3e3e3;}</style>
    <style
       id="style1399-1">.cls-1{fill:#e3e3e3;}</style>
    <style
       id="style1399-4-7">.cls-1{fill:#e3e3e3;}</style>
    <style
       id="style1399-8-8">.cls-1{fill:#e3e3e3;}</style>
    <style
       id="style1399-4-5-5">.cls-1{fill:#e3e3e3;}</style>
    <style
       id="style1399-0-7">.cls-1{fill:#e3e3e3;}</style>
  </defs>
  <sodipodi:namedview
     id="base"
     pagecolor="#ffffff"
     bordercolor="#666666"
     borderopacity="1.0"
     inkscape:pageopacity="0.0"
     inkscape:pageshadow="2"
     inkscape:zoom="7.9999996"
     inkscape:cx="5.2276095"
     inkscape:cy="35.269335"
     inkscape:document-units="mm"
     inkscape:current-layer="svg8"
     showgrid="false"
     units="px"
     inkscape:window-width="1920"
     inkscape:window-height="1043"
     inkscape:window-x="0"
     inkscape:window-y="120"
     inkscape:window-maximized="1"
     inkscape:snap-bbox="true"
     inkscape:bbox-paths="true"
     inkscape:bbox-nodes="true"
     inkscape:snap-bbox-edge-midpoints="true"
     inkscape:snap-bbox-midpoints="true"
     inkscape:snap-nodes="false"
     inkscape:snap-others="true"
     inkscape:snap-object-midpoints="true"
     inkscape:snap-page="true">
    <sodipodi:guide
       position="8.4666666,0"
       orientation="-32,0"
       id="guide854"
       inkscape:locked="false" />
    <sodipodi:guide
       position="9.9384114,8.4666666"
       orientation="0,-32"
       id="guide856"
       inkscape:locked="false" />
    <sodipodi:guide
       position="0,8.4666814"
       orientation="32,0"
       id="guide858"
       inkscape:locked="false" />
  </sodipodi:namedview>
  <metadata
     id="metadata5">
    <rdf:RDF>
      <cc:Work
         rdf:about="">
        <dc:format>image/svg+xml</dc:format>
        <dc:type
           rdf:resource="http://purl.org/dc/dcmitype/StillImage" />
        <dc:title></dc:title>
      </cc:Work>
    </rdf:RDF>
  </metadata>
  <path
     style="color:#000000;font-style:normal;font-variant:normal;font-weight:normal;font-stretch:normal;font-size:medium;line-height:normal;font-family:sans-serif;font-variant-ligatures:normal;font-variant-position:normal;font-variant-caps:normal;font-variant-numeric:normal;font-variant-alternates:normal;font-feature-settings:normal;text-indent:0;text-align:start;text-decoration:none;text-decoration-line:none;text-decoration-style:solid;text-decoration-color:#000000;letter-spacing:normal;word-spacing:normal;text-transform:none;writing-mode:lr-tb;direction:ltr;text-orientation:mixed;dominant-baseline:auto;baseline-shift:baseline;text-anchor:start;white-space:normal;shape-padding:0;clip-rule:nonzero;display:inline;overflow:visible;visibility:visible;opacity:1;isolation:auto;mix-blend-mode:normal;color-interpolation:sRGB;color-interpolation-filters:linearRGB;solid-color:#000000;solid-opacity:1;vector-effect:none;fill:#e3e3e3;fill-opacity:1;fill-rule:nonzero;stroke:none;stroke-width:0.27959621;stroke-linecap:round;stroke-linejoin:miter;stroke-miterlimit:4;stroke-dasharray:0.55919241, 0.55919240999999997;stroke-dashoffset:0;stroke-opacity:1;color-rendering:auto;image-rendering:auto;shape-rendering:auto;text-rendering:auto;enable-background:accumulate"
     d="m 7.7585332,1.1914062 c -0.061506,0.00293 -0.1138509,0.045762 -0.1289063,0.1054688 l -0.140625,0.5410156 c -0.06365,0.1882848 0.2304503,0.2671381 0.2695313,0.072266 L 7.9011113,1.3691406 C 7.9273547,1.2766283 7.8545353,1.1858535 7.7585332,1.1914062 Z M 7.4753301,2.2734375 c -0.061506,0.00293 -0.1138508,0.045762 -0.1289063,0.1054687 L 7.2057988,2.9199219 C 7.1421488,3.1082067 7.4362491,3.18706 7.4753301,2.9921879 L 7.6179082,2.4511719 C 7.6441516,2.3586596 7.5713322,2.2678848 7.4753301,2.2734375 Z M 7.1921269,3.3554688 c -0.061506,0.00293 -0.1138507,0.045762 -0.1289062,0.1054687 l -0.140625,0.5410156 c -0.063651,0.1882854 0.230451,0.2671394 0.2695312,0.072266 L 7.3347051,3.5332031 C 7.3609484,3.4406908 7.288129,3.349916 7.1921269,3.3554688 Z M 6.9089238,4.4375 C 6.8474178,4.44043 6.795073,4.483262 6.7800176,4.5429688 L 6.6393926,5.0839844 C 6.5709862,5.2756538 6.8749839,5.354957 6.9089238,5.1542964 L 7.0515019,4.6152344 C 7.0777453,4.5227221 7.0049259,4.4319473 6.9089238,4.4375 Z M 6.6257207,5.5195312 C 6.564215,5.5224654 6.5118699,5.5652933 6.4968145,5.625 l -0.140625,0.5410156 c -0.068405,0.1916687 0.2355901,0.2709719 0.2695312,0.070312 L 6.7682988,5.6953125 C 6.792894,5.6034837 6.7206484,5.5144137 6.6257207,5.5195312 Z"
     id="path975"
     inkscape:connector-curvature="0"
     sodipodi:nodetypes="cccccccccccccccccccccccccccccc" />
  <path
     id="path828-7"
     d="M 7.9239738,9.3196722e-4 C 7.8900508,0.00297797 7.8557948,0.00832097 7.8216544,0.01746847 L 2.0984899,1.5507081 C 2.0131699,1.4517781 1.9121849,1.3678739 1.7992829,1.3021445 1.2357859,0.97680915 0.51541395,1.1701459 0.19007895,1.7336427 c -0.04067,0.070437 -0.07343,0.1432916 -0.09819,0.2175578 -0.173291,0.5198628 0.03611,1.1069782 0.529167,1.3916464 C 1.1845529,3.668182 1.9054409,3.4748454 2.2307759,2.9113485 2.2956879,2.7979745 2.340708,2.6743332 2.3651351,2.5459962 L 8.0883,1.0127565 C 8.361418,0.9395744 8.5221828,0.66058987 8.4490014,0.38747169 l -0.00207,-0.008785 C 8.4103473,0.24213385 8.3222175,0.13333881 8.2092277,0.06811133 8.1244894,0.0191869 8.0257411,-0.00520719 7.9239738,9.3196722e-4 Z M 7.3085075,0.52338069 c 0.1409962,0.0109596 0.1829202,0.24703325 0.00775,0.27905273 L 6.7772739,0.95074478 C 6.7180389,0.96755978 6.6545049,0.94414978 6.621211,0.89235038 6.569315,0.81269928 6.610519,0.705091 6.702343,0.680477 L 7.2423616,0.53371593 c 0.023843,-0.008867 0.046004,-0.0119009 0.066146,-0.0103352 z M 6.2295036,0.81896987 c 0.1409967,0.0109588 0.182921,0.24703373 0.00775,0.27905273 L 5.69827,1.2468507 C 5.639035,1.2636657 5.5760137,1.2397407 5.5427239,1.1879397 5.4899139,1.1075757 5.5321659,0.99907857 5.6254059,0.97554957 L 6.1633575,0.82930526 c 0.023843,-0.008867 0.046003,-0.0119008 0.066146,-0.0103354 z M 5.1515332,1.1161093 c 0.138561,0.014229 0.1777595,0.2433605 0.00723,0.2775025 L 4.6197782,1.5424399 C 4.5605422,1.5592549 4.4975261,1.5353299 4.464232,1.4835289 4.411422,1.4031649 4.453674,1.2946677 4.546914,1.2711387 l 0.5395021,-0.146761 c 0.023538,-0.00795 0.045318,-0.010301 0.065112,-0.00827 z M 4.0730463,1.4116985 c 0.1385599,0.01423 0.1777584,0.2438768 0.00723,0.2780192 L 3.5412957,1.8380291 c -0.059235,0.016814 -0.122772,-0.00711 -0.1560629,-0.058911 -0.05281,-0.080364 -0.010557,-0.1883446 0.082682,-0.2118733 L 4.0079339,1.4199667 c 0.023538,-0.00795 0.045318,-0.010301 0.065112,-0.00827 z M 1.1600459,1.6039348 c 0.138316,-0.0098 0.281173,0.019966 0.410311,0.094568 0.344469,0.198761 0.462488,0.6395524 0.263549,0.9839192 -0.198761,0.34447 -0.639035,0.4630052 -0.98340195,0.2640666 -0.301411,-0.1739159 -0.429469,-0.5333914 -0.323494,-0.8511109 0.01514,-0.045389 0.03508,-0.089762 0.05994,-0.1328084 0.124226,-0.2152938 0.342564,-0.3423059 0.57309195,-0.3586345 z m 1.8345132,0.1033529 c 0.1385602,0.01423 0.1772418,0.2438767 0.00672,0.2780192 L 2.4622918,2.134135 C 2.4030568,2.150949 2.3400357,2.127025 2.3067457,2.075224 2.2539357,1.99486 2.2961877,1.8863629 2.3894277,1.8628339 L 2.9289297,1.715556 c 0.023538,-0.00795 0.045835,-0.010301 0.065629,-0.00827 z M 1.2473789,2.0261313 c -0.115363,-0.014307 -0.23383,0.040244 -0.29558895,0.1472778 -0.0206,0.035667 -0.03295,0.073682 -0.03772,0.1121379 -0.01433,0.1153687 0.04025,0.2333135 0.14727795,0.2950724 0.142669,0.08242 0.324864,0.034191 0.40721,-0.1085205 0.08242,-0.1426689 0.03367,-0.3258981 -0.109037,-0.4082438 -0.03567,-0.020605 -0.07368,-0.032955 -0.112138,-0.037724 z M 2.5578932,2.912899 C 2.5411852,2.964925 2.5228432,3.0163161 2.4953652,3.0643107 2.339797,3.3337624 2.1101154,3.535132 1.8473424,3.6596232 l 3.2447635,3.2452799 c -0.043014,0.123357 -0.065156,0.2527988 -0.065629,0.3834392 2e-7,0.6506702 0.5275527,1.1782227 1.1782226,1.1782227 0.6506702,0 1.1782227,-0.5275525 1.1782227,-1.1782227 -3e-7,-0.6506702 -0.5275525,-1.1782226 -1.1782227,-1.1782226 -0.1306401,4.712e-4 -0.2600819,0.022615 -0.3834392,0.065629 z m -0.029972,0.6061643 c 0.042529,-0.00654 0.087941,0.00633 0.1214396,0.040824 L 3.0467522,3.9541788 C 3.1959758,4.08546 2.9805832,4.3008478 2.8493484,4.1515829 L 2.4514397,3.758842 c -0.044179,-0.042892 -0.055088,-0.1096 -0.026872,-0.1643309 0.021596,-0.042958 0.060824,-0.068912 0.1033535,-0.075448 z m 0.7953002,0.7865155 c 0.042529,-0.00654 0.088458,0.00633 0.1219565,0.040824 l 0.396875,0.3937746 c 0.1492237,0.1312812 -0.06617,0.3466687 -0.197404,0.1974037 L 3.2467401,4.5453575 C 3.2025611,4.5024655 3.1916531,4.4357573 3.2198681,4.3810263 3.2414641,4.3380683 3.2806921,4.3121143 3.3232214,4.3055788 Z M 4.1190386,5.092094 c 0.042529,-0.00654 0.087941,0.00582 0.1214395,0.040308 l 0.3973917,0.3942911 c 0.1492253,0.1312812 -0.066169,0.34667 -0.197404,0.197404 L 4.0420403,5.3318727 c -0.04418,-0.042892 -0.055084,-0.1101148 -0.026872,-0.1648479 0.021596,-0.042958 0.06134,-0.068395 0.1038703,-0.074931 z m 0.7953002,0.7859985 c 0.042529,-0.00654 0.087941,0.00633 0.1214395,0.040824 L 5.4316198,6.3121742 C 5.588427,6.4418972 5.3675538,6.6651712 5.2357662,6.5100949 L 4.8378572,6.1178712 c -0.04418,-0.042892 -0.055604,-0.1096002 -0.027388,-0.1643311 0.021596,-0.042958 0.06134,-0.068912 0.1038696,-0.075448 z M 6.2046989,6.5684897 C 6.6023992,6.568387 6.9246542,6.8906424 6.9245516,7.2883423 6.9246545,7.6860423 6.6018822,8.0082976 6.2041822,8.008195 5.8064828,8.0082979 5.4847436,7.6860423 5.4848463,7.2883423 5.4848336,7.2386303 5.4897263,7.1900093 5.4993153,7.1431316 5.5663983,6.8149908 5.8567111,6.5683997 6.2046989,6.5684897 Z m 0,0.4216796 c -0.1235734,-3.17e-5 -0.2296438,0.074824 -0.2749185,0.1819011 -0.015092,0.035692 -0.023781,0.075081 -0.023771,0.1162719 -4.28e-5,0.1647648 0.133925,0.2982153 0.2986897,0.298173 0.1647645,4.26e-5 0.2982156,-0.1334085 0.298173,-0.298173 4.23e-5,-0.164765 -0.1334079,-0.2982153 -0.2981732,-0.298173 z"
     style="opacity:1;fill:#e3e3e3;fill-opacity:1;stroke:none;stroke-width:1.26703024;stroke-linecap:butt;stroke-linejoin:miter;stroke-miterlimit:4;stroke-dasharray:none;stroke-dashoffset:0;stroke-opacity:1"
     inkscape:connector-curvature="0" />
</svg>
