<svg id="Calque_1" data-name="Calque 1" xmlns="http://www.w3.org/2000/svg" viewBox="0 0 32 32"><defs><style>.cls-1{fill:#e3e3e3;}.cls-2{fill:none;stroke:#e3e3e3;stroke-miterlimit:10;}</style></defs><title>ik_l</title><path class="cls-1" d="M10.25,24.13A3.21,3.21,0,0,1,12,21a5.25,5.25,0,0,1,4.25.13L10.53,12c-.19-.32-.2-.32-.48-.07a5.89,5.89,0,0,1-6.48.92c-.11-.05-.21-.15-.35-.13s0,.19.1.26Z"/><path class="cls-1" d="M23.66,9a3.2,3.2,0,0,1-2.35-2.7,5.25,5.25,0,0,1,1.55-4L12.38,4.64c-.37.07-.37.07-.23.42a5.89,5.89,0,0,1-1.31,6.41c-.09.09-.22.15-.24.29s.19,0,.28,0Z"/><path class="cls-1" d="M1.48,7.61a4.65,4.65,0,1,1,4.59,4.65A4.65,4.65,0,0,1,1.48,7.61Zm1.61,0a3,3,0,0,0,6.06,0,3,3,0,0,0-3-3A3,3,0,0,0,3.09,7.63Z"/><path class="cls-1" d="M15.5,24A2.5,2.5,0,1,1,13,26.5,2.5,2.5,0,0,1,15.5,24m0-2A4.5,4.5,0,1,0,20,26.5,4.49,4.49,0,0,0,15.5,22Z"/><circle class="cls-1" cx="26.77" cy="5.49" r="3.18"/><line class="cls-2" x1="18.17" y1="24.13" x2="25.62" y2="8.45"/></svg>