<svg id="Calque_1" data-name="Calque 1" xmlns="http://www.w3.org/2000/svg" viewBox="0 0 32 32"><defs><style>.cls-1{fill:#e3e3e3;}</style></defs><title>ikfk_l</title><path class="cls-1" d="M4.14,4.78A1.29,1.29,0,0,1,2.75,6.07,1.27,1.27,0,0,1,1.4,4.78,1.27,1.27,0,0,1,2.77,3.47,1.29,1.29,0,0,1,4.14,4.78ZM1.47,15.42V7.09H4.06v8.33Z"/><path class="cls-1" d="M24.72,22h.05c.23-.43.49-.86.74-1.26l2.11-3.13h3.89l-3.72,4.21L32,28h-4l-2.51-4.27-.83,1V28H21.49V12.94h3.23Z"/><path class="cls-1" d="M9.32,25.77l6.21-21h2.93l-6.21,21Z"/><path class="cls-1" d="M20.26,15.26a3.59,3.59,0,0,1,1,.15l.13-2.49a6.14,6.14,0,0,0-1.72-.21,4.82,4.82,0,0,0-1.6.28l-2.59,8.78V28h3.25V20h2.06V17.64H18.75v-.53C18.75,16.09,19.2,15.26,20.26,15.26Z"/><path class="cls-1" d="M9.32,25.77l6.21-21h2.93l-6.21,21Z"/><polygon class="cls-1" points="13.64 15.42 12.76 14.13 12.38 15.42 13.64 15.42"/><path class="cls-1" d="M7.78,12.81,8.45,12l1.9,3.24,1-3.22-1.06-1.55,2.28-2.58.23-.79H10.1L8.41,9.59c-.2.33-.4.67-.59,1h0V3.33H5.2V15.42H7.78Z"/></svg>