<svg id="Calque_1" data-name="Calque 1" xmlns="http://www.w3.org/2000/svg" viewBox="0 0 32 32"><defs><style>.cls-1{fill:#e3e3e3;}</style></defs><title>import_l</title><path class="cls-1" d="M6.48,14.14a2.74,2.74,0,0,0-1.43.39,2.88,2.88,0,0,0-1,1L2,19.09V10.81a1.37,1.37,0,0,1,.42-1,1.37,1.37,0,0,1,1-.42H8.14l1.91,1.91h4.76a1.4,1.4,0,0,1,1.43,1.43v1.42Zm12.53,2a.65.65,0,0,0,0-.71.68.68,0,0,0-.62-.36H6.48a1.91,1.91,0,0,0-1,.25,1.76,1.76,0,0,0-.68.7L2.67,19.74a.67.67,0,0,0,0,.72.68.68,0,0,0,.62.35H15.2a1.88,1.88,0,0,0,.95-.25,1.72,1.72,0,0,0,.69-.7Z"/></svg>