<svg id="Calque_1" data-name="Calque 1" xmlns="http://www.w3.org/2000/svg" viewBox="0 0 32 32"><defs><style>.cls-1{fill:#e3e3e3;}</style></defs><title>info_l</title><path class="cls-1" d="M13.66,24V18h-.83a.85.85,0,0,1-.83-.83v-2a.77.77,0,0,1,.25-.58.79.79,0,0,1,.58-.25h4.66a.85.85,0,0,1,.84.83V24h.83a.85.85,0,0,1,.83.83v2a.77.77,0,0,1-.25.58.79.79,0,0,1-.58.25H12.83a.79.79,0,0,1-.58-.25.77.77,0,0,1-.25-.58v-2a.85.85,0,0,1,.83-.83Zm.21-16.77A2.89,2.89,0,0,0,13,9.35a3,3,0,0,0,5.12,2.13A2.91,2.91,0,0,0,19,9.35a3,3,0,0,0-5.12-2.12Z"/></svg>