<svg id="Calque_1" data-name="Calque 1" xmlns="http://www.w3.org/2000/svg" viewBox="0 0 32 32"><defs><style>.cls-1{fill:#e3e3e3;}</style></defs><title>io_l</title><path class="cls-1" d="M3,9.15a1.19,1.19,0,0,1,.35-.85A1.17,1.17,0,0,1,4.2,8H22.26V5.54a1.2,1.2,0,0,1,1.2-1.2,1.19,1.19,0,0,1,.86.35l4,4a1.22,1.22,0,0,1,0,1.71l-4,4a1.19,1.19,0,0,1-.86.35,1.2,1.2,0,0,1-1.2-1.2V11.16H4.2A1.2,1.2,0,0,1,3,10Zm6.42,8.43V15.17a1.17,1.17,0,0,0-.35-.85,1.22,1.22,0,0,0-1.71,0l-4,4a1.22,1.22,0,0,0,0,1.71l4,4a1.22,1.22,0,0,0,1.71,0,1.17,1.17,0,0,0,.35-.85V20.79H27.48a1.19,1.19,0,0,0,.85-.35,1.17,1.17,0,0,0,.35-.85v-.81a1.2,1.2,0,0,0-1.2-1.2Z"/></svg>