<svg id="Calque_1" data-name="Calque 1" xmlns="http://www.w3.org/2000/svg" viewBox="0 0 18 12"><defs><style>.cls-1{fill:#e3e3e3;}</style></defs><title>keyboard_l</title><path class="cls-1" d="M1.64,11.8a1.39,1.39,0,0,1-1-.42,1.39,1.39,0,0,1-.42-1V1.74a1.39,1.39,0,0,1,.42-1,1.39,1.39,0,0,1,1-.42H16a1.39,1.39,0,0,1,1,.42,1.39,1.39,0,0,1,.42,1v8.62A1.43,1.43,0,0,1,16,11.8ZM4,2.58a.34.34,0,0,0-.36-.36H2.48a.34.34,0,0,0-.36.36V3.77a.34.34,0,0,0,.36.36H3.67A.34.34,0,0,0,4,3.77ZM4,8.33A.34.34,0,0,0,3.67,8H2.48a.34.34,0,0,0-.36.36V9.52a.34.34,0,0,0,.36.36H3.67A.34.34,0,0,0,4,9.52ZM5.47,5.45a.33.33,0,0,0-.1-.25.36.36,0,0,0-.26-.11H3.91a.38.38,0,0,0-.36.36v1.2A.38.38,0,0,0,3.91,7h1.2a.36.36,0,0,0,.26-.11.33.33,0,0,0,.1-.25ZM6.91,2.58a.36.36,0,0,0-.11-.26.33.33,0,0,0-.25-.1H5.35a.33.33,0,0,0-.25.1A.36.36,0,0,0,5,2.58V3.77A.36.36,0,0,0,5.1,4a.33.33,0,0,0,.25.1h1.2A.33.33,0,0,0,6.8,4a.36.36,0,0,0,.11-.26Zm5.75,5.75a.33.33,0,0,0-.11-.26A.32.32,0,0,0,12.3,8h-7a.33.33,0,0,0-.25.1A.36.36,0,0,0,5,8.33V9.52a.36.36,0,0,0,.11.26.33.33,0,0,0,.25.1h7a.32.32,0,0,0,.25-.1.33.33,0,0,0,.11-.26ZM8.35,5.45A.38.38,0,0,0,8,5.09H6.79a.36.36,0,0,0-.26.11.33.33,0,0,0-.1.25v1.2a.33.33,0,0,0,.1.25A.36.36,0,0,0,6.79,7H8a.38.38,0,0,0,.36-.36ZM9.78,2.58a.34.34,0,0,0-.36-.36H8.23a.34.34,0,0,0-.36.36V3.77a.34.34,0,0,0,.36.36H9.42a.34.34,0,0,0,.36-.36Zm1.44,2.87a.33.33,0,0,0-.1-.25.36.36,0,0,0-.26-.11H9.66a.38.38,0,0,0-.36.36v1.2A.38.38,0,0,0,9.66,7h1.2a.36.36,0,0,0,.26-.11.33.33,0,0,0,.1-.25Zm1.44-2.87a.33.33,0,0,0-.11-.26.32.32,0,0,0-.25-.1H11.1a.33.33,0,0,0-.25.1.36.36,0,0,0-.11.26V3.77a.36.36,0,0,0,.11.26.33.33,0,0,0,.25.1h1.2a.32.32,0,0,0,.25-.1.33.33,0,0,0,.11-.26ZM14.1,5.45a.38.38,0,0,0-.36-.36h-1.2a.38.38,0,0,0-.36.36v1.2a.38.38,0,0,0,.36.36h1.2a.38.38,0,0,0,.36-.36Zm1.44-2.87a.36.36,0,0,0-.11-.26.33.33,0,0,0-.25-.1H14a.34.34,0,0,0-.36.36V3.77a.34.34,0,0,0,.36.36h1.2a.33.33,0,0,0,.25-.1.36.36,0,0,0,.11-.26Zm0,5.75a.36.36,0,0,0-.11-.26.33.33,0,0,0-.25-.1H14a.34.34,0,0,0-.36.36V9.52a.34.34,0,0,0,.36.36h1.2a.33.33,0,0,0,.25-.1.36.36,0,0,0,.11-.26Z"/></svg>