<svg id="Calque_1" data-name="Calque 1" xmlns="http://www.w3.org/2000/svg" viewBox="0 0 32 32"><defs><style>.cls-1{fill:#e3e3e3;}</style></defs><title>keyeyedropper_l</title><path class="cls-1" d="M11,13.25l5-5,5,5.05-5,5a2.48,2.48,0,0,1-1.82.75H12.47l-2.21,1.26L9,19.06l1.26-2.21V15.07A2.48,2.48,0,0,1,11,13.25Zm17.1-12a3.65,3.65,0,0,1,1.11,2.68,3.65,3.65,0,0,1-1.11,2.69l-3,3,.52.51a1,1,0,0,1,0,1.35L24,13.1a1,1,0,0,1-1.35,0L16.23,6.7a1,1,0,0,1,0-1.35l1.62-1.61a.88.88,0,0,1,.67-.28.91.91,0,0,1,.67.28l.51.51,3-3A3.67,3.67,0,0,1,25.43.1,3.63,3.63,0,0,1,28.11,1.21Z"/><path class="cls-1" d="M10,25l2.5-2.5-.75.43a3,3,0,0,1-1.49.39,3,3,0,0,1-2.12-.88L6.88,21.18A3,3,0,0,1,6,19H2v1l5,5v1L2,31v1H15V31l-5-5Z"/><path class="cls-1" d="M11,13.25l5-5,5,5.05-5,5a2.48,2.48,0,0,1-1.82.75H12.47l-2.21,1.26L9,19.06l1.26-2.21V15.07A2.48,2.48,0,0,1,11,13.25Zm17.1-12a3.65,3.65,0,0,1,1.11,2.68,3.65,3.65,0,0,1-1.11,2.69l-3,3,.52.51a1,1,0,0,1,0,1.35L24,13.1a1,1,0,0,1-1.35,0L16.23,6.7a1,1,0,0,1,0-1.35l1.62-1.61a.88.88,0,0,1,.67-.28.91.91,0,0,1,.67.28l.51.51,3-3A3.67,3.67,0,0,1,25.43.1,3.63,3.63,0,0,1,28.11,1.21Z"/></svg>