<svg id="Calque_1" data-name="Calque 1" xmlns="http://www.w3.org/2000/svg" viewBox="0 0 32 32"><defs><style>.cls-1{fill:#e3e3e3;}</style></defs><title>krita_l</title><path class="cls-1" d="M8.48,6.89C6.17,5.45,4.09,4.13,3.83,4c-.53-.38-1.13-.63-1.56-.11s0,1.06.43,1.5c.23.21,1.93,2,3.79,3.89A13.47,13.47,0,0,1,8.48,6.89Z"/><path class="cls-1" d="M17.46,3.34a13.1,13.1,0,0,0-9,3.55c2.33,1.45,4.88,3,6,3.66,1.75,1,4.47,3.19,4.87,5.27.72.63,2.62,2.31,3.09,2.87A2.16,2.16,0,0,1,24.92,20c1,1.89.27,4.46-2.34,5.94h0c1.35-1.75-.85-2.91-1.4-4.6a2.5,2.5,0,0,1-.13-.93c-.62-.33-2.49-1.71-3.32-2.33-2.15.19-5-2.11-6.37-3.67-.87-1-3-3.2-4.87-5.2a13.15,13.15,0,1,0,11-5.89Z"/></svg>