<svg id="Calque_1" data-name="Calque 1" xmlns="http://www.w3.org/2000/svg" viewBox="0 0 32 32"><defs><style>.cls-1{fill:#e3e3e3;}</style></defs><title>languagefile_l</title><path class="cls-1" d="M27.79,29l-7.44-2.36c-.15.07-7,2.39-7.14,2.39a.17.17,0,0,1-.17-.12s0,0,0,0V18.49l0-.09a.4.4,0,0,1,.2-.11l1.43-.48V14.12L20.05,16c.07,0,6.05-2.08,6.14-2.08a.19.19,0,0,1,.19.2v4l1.41.45Zm-7.72-2.65V16.41L13.4,18.65v9.91ZM18.7,24.1c-.13-.06-.69-.38-.84-.47s-.69-.55-.76-.58a16.83,16.83,0,0,1-1.29,1.74,6.58,6.58,0,0,1-1,1.06.89.89,0,0,1-.36,0c.15-.12.6-.67.79-.89a27,27,0,0,0,1.57-2.24c.21-.36.81-1.57.84-1.69a9.06,9.06,0,0,0-1.06.32c-.19.06-.72.18-.76.21s0,.15,0,.19a.6.6,0,0,1-.29.15,1.41,1.41,0,0,1-.46,0,.48.48,0,0,1-.26-.21.43.43,0,0,1,0-.22c.11,0,.31-.05.52-.1s.73-.21,1-.31.81-.3,1-.34.6-.31.83-.39.4-.17.41-.13a1.74,1.74,0,0,1,0,.32c0,.05-.47,1-.54,1.1s-.31.58-.74,1.26c.15.06.48.2.61.27l1.37.57a1.14,1.14,0,0,1,.14.54C19.29,24.37,18.82,24.15,18.7,24.1Zm-1.4-4.2a.88.88,0,0,1-.48.36,1.65,1.65,0,0,1-.57.12.75.75,0,0,1-.47-.25c-.12-.13-.21-.46-.17-.42a1,1,0,0,0,.44,0c.13,0,.43-.11.56-.15a3.67,3.67,0,0,1,.53-.13.18.18,0,0,1,.2.16A.35.35,0,0,1,17.3,19.9ZM26,18V14.38l-5.5,1.88Zm.31,7.78-1.74-6.32-1-.29-2.08,5.15,1,.3L23,23.59l2,.62.35,1.3Zm-1.65-2.76-1.34-.4.73-1.78Z"/><path class="cls-1" d="M20.38,28.72c-.86.31-2.3.81-3.67,1.26h7.63Z"/><path class="cls-1" d="M26.61,10.16,20.46,4a3,3,0,0,0-.54-.42v7.11H27A3.06,3.06,0,0,0,26.61,10.16Z"/><path class="cls-1" d="M11.16,29.58a.14.14,0,0,1,0-.06,2.12,2.12,0,0,1-.11-.66V18.49a2,2,0,0,1,.1-.64,2.11,2.11,0,0,1,.44-.78,2.24,2.24,0,0,1,1-.67l.07,0V14.12a2,2,0,0,1,.85-1.63,2,2,0,0,1,1.82-.25l4.71,1.67.46-.16,3.24-1.12H19.44A1.43,1.43,0,0,1,18,11.19V3H6A1.44,1.44,0,0,0,4.5,4.44v24.1A1.44,1.44,0,0,0,6,30h5.43A2.24,2.24,0,0,1,11.16,29.58Z"/></svg>