<?xml version="1.0" encoding="UTF-8" standalone="no"?>
<!-- Created with Inkscape (http://www.inkscape.org/) -->

<svg
   xmlns:dc="http://purl.org/dc/elements/1.1/"
   xmlns:cc="http://creativecommons.org/ns#"
   xmlns:rdf="http://www.w3.org/1999/02/22-rdf-syntax-ns#"
   xmlns:svg="http://www.w3.org/2000/svg"
   xmlns="http://www.w3.org/2000/svg"
   xmlns:sodipodi="http://sodipodi.sourceforge.net/DTD/sodipodi-0.dtd"
   xmlns:inkscape="http://www.inkscape.org/namespaces/inkscape"
   width="32"
   height="32"
   viewBox="0 0 8.4666666 8.4666666"
   version="1.1"
   id="svg8"
   inkscape:version="0.92.5 (2060ec1f9f, 2020-04-08)"
   sodipodi:docname="layers_bl.svg">
  <defs
     id="defs2">
    <style
       id="style1399">.cls-1{fill:#e3e3e3;}</style>
    <style
       id="style1399-4">.cls-1{fill:#e3e3e3;}</style>
    <style
       id="style1399-8">.cls-1{fill:#e3e3e3;}</style>
    <style
       id="style1399-4-5">.cls-1{fill:#e3e3e3;}</style>
  </defs>
  <sodipodi:namedview
     id="base"
     pagecolor="#ffffff"
     bordercolor="#666666"
     borderopacity="1.0"
     inkscape:pageopacity="0.0"
     inkscape:pageshadow="2"
     inkscape:zoom="16"
     inkscape:cx="2.9076221"
     inkscape:cy="16.406414"
     inkscape:document-units="mm"
     inkscape:current-layer="svg8"
     showgrid="false"
     units="px"
     inkscape:window-width="1920"
     inkscape:window-height="1043"
     inkscape:window-x="0"
     inkscape:window-y="120"
     inkscape:window-maximized="1">
    <sodipodi:guide
       position="8.4666666,0"
       orientation="-32,0"
       id="guide854"
       inkscape:locked="false" />
    <sodipodi:guide
       position="8.5622298,8.4657622"
       orientation="0,-32"
       id="guide856"
       inkscape:locked="false" />
    <sodipodi:guide
       position="0,8.4666814"
       orientation="32,0"
       id="guide858"
       inkscape:locked="false" />
  </sodipodi:namedview>
  <metadata
     id="metadata5">
    <rdf:RDF>
      <cc:Work
         rdf:about="">
        <dc:format>image/svg+xml</dc:format>
        <dc:type
           rdf:resource="http://purl.org/dc/dcmitype/StillImage" />
        <dc:title></dc:title>
      </cc:Work>
    </rdf:RDF>
  </metadata>
  <path
     style="fill:#e3e3e3;fill-opacity:1;stroke-width:0.06239139"
     d="M 15.957031 0.00390625 C 15.730411 0.00390625 15.503863 0.052044429 15.292969 0.1484375 L 0.75976562 6.7402344 C -0.27281226 7.2087945 -0.27281226 8.7716746 0.75976562 9.2402344 L 15.292969 15.832031 C 15.717228 16.024825 16.19683 16.024825 16.621094 15.832031 L 31.154297 9.2402344 C 32.186875 8.7716746 32.186875 7.2107465 31.154297 6.7421875 L 16.621094 0.1484375 C 16.410196 0.052044429 16.183663 0.0039047382 15.957031 0.00390625 z M 13.853516 3.6699219 C 14.557691 3.6173449 15.228011 3.6908225 15.697266 3.9023438 C 16.635779 4.3254067 16.415642 5.1410911 15.205078 5.7246094 C 13.994511 6.3081272 12.252963 6.4386868 11.314453 6.015625 C 10.375944 5.5925606 10.596073 4.7768784 11.806641 4.1933594 C 12.411921 3.9015987 13.149341 3.7224966 13.853516 3.6699219 z M 10.755859 6.9511719 C 11.081503 6.9268695 11.312704 7.0291291 11.271484 7.1816406 L 10.783203 8.9902344 L 20.199219 8.2871094 C 20.524863 8.262807 20.756063 8.3650666 20.714844 8.5175781 L 19.943359 11.367188 L 15.560547 13.480469 L 3.9082031 8.2265625 L 5.7871094 7.3222656 L 10.755859 6.9511719 z M 4.4394531 13.119141 L 0.81445312 14.761719 C -0.21812476 15.229653 -0.21812476 16.789878 0.81445312 17.257812 L 15.347656 23.845703 C 15.771917 24.037869 16.25152 24.037869 16.675781 23.845703 L 31.210938 17.257812 C 32.243514 16.789878 32.243514 15.229653 31.210938 14.761719 L 27.585938 13.119141 L 17.501953 17.689453 C 17.030275 17.903454 16.529648 18.013672 16.013672 18.013672 C 15.497696 18.013672 14.99574 17.90345 14.523438 17.689453 L 4.4394531 13.119141 z M 4.4257812 21.099609 L 0.81445312 22.734375 C -0.21812476 23.202311 -0.21812476 24.762535 0.81445312 25.230469 L 15.347656 31.818359 C 15.771917 32.010511 16.25152 32.010511 16.675781 31.818359 L 31.210938 25.230469 C 32.243514 24.762535 32.243514 23.202311 31.210938 22.734375 L 27.599609 21.099609 L 17.501953 25.675781 C 17.030275 25.889782 16.529648 25.998047 16.013672 25.998047 C 15.497696 25.998047 14.99574 25.889782 14.523438 25.675781 L 4.4257812 21.099609 z "
     transform="scale(0.26458333)"
     id="path885" />
</svg>
