<?xml version="1.0" encoding="UTF-8" standalone="no"?>
<!-- Created with Inkscape (http://www.inkscape.org/) -->

<svg
   xmlns:dc="http://purl.org/dc/elements/1.1/"
   xmlns:cc="http://creativecommons.org/ns#"
   xmlns:rdf="http://www.w3.org/1999/02/22-rdf-syntax-ns#"
   xmlns:svg="http://www.w3.org/2000/svg"
   xmlns="http://www.w3.org/2000/svg"
   xmlns:sodipodi="http://sodipodi.sourceforge.net/DTD/sodipodi-0.dtd"
   xmlns:inkscape="http://www.inkscape.org/namespaces/inkscape"
   width="32"
   height="32"
   viewBox="0 0 8.4666666 8.4666666"
   version="1.1"
   id="svg8"
   inkscape:version="0.92.5 (2060ec1f9f, 2020-04-08)"
   sodipodi:docname="leg-bones_sl.svg">
  <defs
     id="defs2">
    <style
       id="style1399">.cls-1{fill:#e3e3e3;}</style>
    <style
       id="style1399-4">.cls-1{fill:#e3e3e3;}</style>
    <style
       id="style1399-8">.cls-1{fill:#e3e3e3;}</style>
    <style
       id="style1399-4-5">.cls-1{fill:#e3e3e3;}</style>
    <style
       id="style1399-0">.cls-1{fill:#e3e3e3;}</style>
    <style
       id="style854">.cls-1{fill:#e3e3e3;}</style>
    <style
       id="style1399-84">.cls-1{fill:#e3e3e3;}</style>
    <style
       id="style1399-4-8">.cls-1{fill:#e3e3e3;}</style>
    <style
       id="style1399-8-10">.cls-1{fill:#e3e3e3;}</style>
    <style
       id="style1399-4-5-3">.cls-1{fill:#e3e3e3;}</style>
    <style
       id="style1399-0-0">.cls-1{fill:#e3e3e3;}</style>
    <style
       id="style1399-5">.cls-1{fill:#e3e3e3;}</style>
    <style
       id="style1399-4-6">.cls-1{fill:#e3e3e3;}</style>
    <style
       id="style1399-8-1">.cls-1{fill:#e3e3e3;}</style>
    <style
       id="style1399-4-5-1">.cls-1{fill:#e3e3e3;}</style>
    <style
       id="style1399-0-5">.cls-1{fill:#e3e3e3;}</style>
    <style
       id="style1257">.cls-1{fill:#e3e3e3;}</style>
    <style
       id="style836">.cls-1{fill:#e3e3e3;}</style>
    <style
       id="style891">.cls-1{fill:#e3e3e3;}</style>
    <style
       id="style949">.cls-1{fill:#e3e3e3;}</style>
  </defs>
  <sodipodi:namedview
     id="base"
     pagecolor="#ffffff"
     bordercolor="#666666"
     borderopacity="1.0"
     inkscape:pageopacity="0.0"
     inkscape:pageshadow="2"
     inkscape:zoom="5.656854"
     inkscape:cx="-9.1779006"
     inkscape:cy="9.7678015"
     inkscape:document-units="mm"
     inkscape:current-layer="svg8"
     showgrid="false"
     units="px"
     inkscape:window-width="1848"
     inkscape:window-height="1136"
     inkscape:window-x="0"
     inkscape:window-y="27"
     inkscape:window-maximized="1"
     inkscape:snap-bbox="true"
     inkscape:bbox-paths="true"
     inkscape:bbox-nodes="true"
     inkscape:snap-bbox-edge-midpoints="true"
     inkscape:snap-bbox-midpoints="true"
     inkscape:snap-nodes="true"
     inkscape:snap-others="true"
     inkscape:snap-object-midpoints="true"
     inkscape:snap-page="true">
    <sodipodi:guide
       position="8.3674482,-3.1750001"
       orientation="-32,0"
       id="guide854"
       inkscape:locked="false" />
    <sodipodi:guide
       position="8.4666666,8.4666666"
       orientation="0,-32"
       id="guide856"
       inkscape:locked="false" />
    <sodipodi:guide
       position="0,8.4666814"
       orientation="32,0"
       id="guide858"
       inkscape:locked="false" />
  </sodipodi:namedview>
  <metadata
     id="metadata5">
    <rdf:RDF>
      <cc:Work
         rdf:about="">
        <dc:format>image/svg+xml</dc:format>
        <dc:type
           rdf:resource="http://purl.org/dc/dcmitype/StillImage" />
        <dc:title></dc:title>
      </cc:Work>
    </rdf:RDF>
  </metadata>
  <path
     style="fill:#e3e3e3;stroke:none;stroke-width:0.23965746px;stroke-linecap:butt;stroke-linejoin:miter;stroke-opacity:1"
     d="m 1.2729525,1.3348316 c -0.00511,0.2675448 0.018983,0.6029036 0.1455952,0.8600277 0.2877787,0.5844215 0.8135426,1.0650531 1.417256,2.177157 C 3.4395172,5.4841197 3.4319301,5.9401125 3.4830012,6.23283 3.5340725,6.5255475 3.6478805,6.696282 3.7809635,6.7987649 4.190801,7.1143671 4.7000951,7.0043019 4.821897,6.6183428 4.9256752,6.2894966 4.7631976,5.8868878 4.5911698,5.5822465 4.3657729,5.1830947 4.2851328,4.9263304 3.8303016,3.9613507 3.4384174,3.1299209 2.8754005,2.4232437 2.56638,1.9433326 2.5059747,1.8657722 2.3883437,1.8209933 2.2853473,1.8122486 1.923118,1.7814942 1.7920621,1.7784472 1.5322184,1.6110272 1.4180531,1.5374694 1.3344388,1.4417537 1.2729525,1.3348316 Z"
     id="path980"
     inkscape:connector-curvature="0"
     sodipodi:nodetypes="cssssssscssc" />
  <path
     style="fill:#e3e3e3;stroke:none;stroke-width:0.20085721px;stroke-linecap:butt;stroke-linejoin:miter;stroke-opacity:1"
     d="M 1.0504481,0.09703013 C 0.84933284,0.12147647 0.689008,0.36505938 0.75829018,0.85015903 0.81285571,1.2322153 0.92595636,1.3686301 1.0436762,1.3280597 1.0789696,1.3158965 1.120958,1.219032 1.1583143,1.088142 1.1368761,1.0035461 1.1240915,0.91717079 1.121069,0.83226195 1.1142363,0.64031428 1.1488105,0.44121498 1.242479,0.26632694 1.2263566,0.17410897 1.1944021,0.10956259 1.1384824,0.09944865 1.1086333,0.09404998 1.0791788,0.09353779 1.0504481,0.09703013 Z"
     id="path982"
     inkscape:connector-curvature="0" />
  <path
     style="fill:#e3e3e3;stroke:none;stroke-width:0.30266482px;stroke-linecap:butt;stroke-linejoin:miter;stroke-opacity:1"
     d="M 3.292314,6.9834911 C 3.1883531,6.9922711 3.0845428,7.0777861 2.992605,7.1797505 2.96234,7.2133155 2.930419,7.2481655 2.899795,7.282609 L 3.4767504,8.0032116 C 3.7424876,7.9585583 3.964982,7.9526384 4.1595197,7.9417328 4.4682311,7.9244268 4.6222875,8.2909909 5.1668261,8.1876479 5.814718,8.0646903 5.7738136,7.2542656 5.2283048,7.1472378 4.9027386,7.0833618 4.631332,7.4499198 4.1955794,7.4504936 3.8265857,7.4509793 3.6380252,7.2300031 3.4773416,7.0632954 3.4170853,7.00078 3.3546906,6.9782297 3.292314,6.9834911 Z M 2.6704324,7.5172926 C 2.4775565,7.6995782 2.2428541,7.8632605 1.8723905,7.9381859 1.3064677,8.0526408 0.91596891,7.7776624 0.82902439,8.0451822 0.74207925,8.3127029 1.3504357,8.4666667 1.8185965,8.4666667 c 0.4681607,0 0.7391583,-0.1957752 1.1397222,-0.3339955 0.050788,-0.017526 0.093423,-0.026005 0.141283,-0.040199 z"
     id="path984"
     inkscape:connector-curvature="0" />
  <path
     sodipodi:nodetypes="scszzzssssss"
     inkscape:connector-curvature="0"
     id="path943"
     d="m 7.6482594,3.341842 c 0.1136221,0.4624818 -0.4100091,0.4821443 -0.4100091,0.4821443 0,0 -0.021778,0.4725064 -0.3017154,0.664265 C 6.5440624,4.7570964 6.0842899,4.5898441 5.8883739,4.2891945 5.6924578,3.9885449 5.3216426,3.5684007 4.3917632,2.792584 3.4618837,2.0167673 2.5566118,1.517786 2.30091,1.5050586 2.0452082,1.4923311 1.9099783,1.489013 1.6981631,1.3525383 1.3733698,1.1432706 1.3572739,0.51161719 1.6523263,0.2521507 1.9343306,0.00415874 2.4431356,-0.05579431 3.0098668,0.43940775 3.576598,0.9346098 4.1873472,1.3032601 5.1007199,2.0460633 6.0140926,2.7888663 6.7539775,3.4663869 6.8916174,3.3002819 7.2205062,2.9033762 7.5828011,3.0754035 7.6482594,3.341842 Z"
     style="fill:#e3e3e3;stroke:none;stroke-width:0.24900317px;stroke-linecap:butt;stroke-linejoin:miter;stroke-opacity:1" />
</svg>
