<svg id="Calque_1" data-name="Calque 1" xmlns="http://www.w3.org/2000/svg" viewBox="0 0 32 32"><defs><style>.cls-1{fill:#e3e3e3;}</style></defs><title>linkcameralayers_l</title><polygon class="cls-1" points="10.4 6.89 8.93 5 0.76 15.5 8.93 26 10.41 24.1 3.71 15.49 10.4 6.89"/><path class="cls-1" d="M16.08,24.23A3.1,3.1,0,0,1,14,23.37l-.65-.65a3.13,3.13,0,0,1-.9-2.17,3,3,0,0,1,.24-1.18H11.31a3,3,0,0,1-3-3.06V15.25a3,3,0,0,1,3-3.06h1.33A3,3,0,0,1,12.4,11a3.06,3.06,0,0,1,.93-2.19l.59-.59a3,3,0,0,1,2.16-.9,3.18,3.18,0,0,1,.62.07L14.84,5,13.36,6.9,6.68,15.5l6.68,8.59L14.84,26l1.39-1.78Z"/><path class="cls-1" d="M30.31,10.57a.43.43,0,0,0-.19,0,.44.44,0,0,0-.34.14l-3.09,3.08V12.49a2.21,2.21,0,0,0-2.21-2.21H20.31l3.33,3.34a3,3,0,0,1,.9,2.16,3,3,0,0,1-.9,2.16L21.5,20.09h3a2.21,2.21,0,0,0,2.21-2.21V16.61l3.09,3.09a.44.44,0,0,0,.34.14.43.43,0,0,0,.19,0,.48.48,0,0,0,.3-.45V11A.48.48,0,0,0,30.31,10.57Z"/><path class="cls-1" d="M22.23,16.53l-5.4,5.39a1.08,1.08,0,0,1-.75.31,1.06,1.06,0,0,1-.74-.31l-.63-.62a1.1,1.1,0,0,1-.31-.75,1.13,1.13,0,0,1,.31-.76l2.43-2.42H11.31a1,1,0,0,1-1-1.06V15.25a1,1,0,0,1,1-1.06h5.83l-2.43-2.44a1.05,1.05,0,0,1,0-1.49l.63-.62a1,1,0,0,1,.74-.32,1.05,1.05,0,0,1,.75.32L22.23,15a1,1,0,0,1,.31.75A1.06,1.06,0,0,1,22.23,16.53Z"/></svg>