<?xml version="1.0" encoding="UTF-8" standalone="no"?>
<!-- Created with Inkscape (http://www.inkscape.org/) -->

<svg
   xmlns:dc="http://purl.org/dc/elements/1.1/"
   xmlns:cc="http://creativecommons.org/ns#"
   xmlns:rdf="http://www.w3.org/1999/02/22-rdf-syntax-ns#"
   xmlns:svg="http://www.w3.org/2000/svg"
   xmlns="http://www.w3.org/2000/svg"
   xmlns:sodipodi="http://sodipodi.sourceforge.net/DTD/sodipodi-0.dtd"
   xmlns:inkscape="http://www.inkscape.org/namespaces/inkscape"
   width="32"
   height="32"
   viewBox="0 0 8.4666666 8.4666666"
   version="1.1"
   id="svg8"
   inkscape:version="0.92.5 (2060ec1f9f, 2020-04-08)"
   sodipodi:docname="load-code-file-2_sl.svg">
  <defs
     id="defs2">
    <style
       id="style1399">.cls-1{fill:#e3e3e3;}</style>
    <style
       id="style1399-1">.cls-1{fill:#e3e3e3;}</style>
    <style
       id="style1399-9">.cls-1{fill:#e3e3e3;}</style>
    <style
       id="style1399-0">.cls-1{fill:#e3e3e3;}</style>
  </defs>
  <sodipodi:namedview
     id="base"
     pagecolor="#ffffff"
     bordercolor="#666666"
     borderopacity="1.0"
     inkscape:pageopacity="0.0"
     inkscape:pageshadow="2"
     inkscape:zoom="11.313708"
     inkscape:cx="6.5921111"
     inkscape:cy="11.564148"
     inkscape:document-units="mm"
     inkscape:current-layer="svg8"
     showgrid="false"
     units="px"
     inkscape:window-width="1848"
     inkscape:window-height="1136"
     inkscape:window-x="1920"
     inkscape:window-y="27"
     inkscape:window-maximized="1">
    <sodipodi:guide
       position="8.4666666,0"
       orientation="-32,0"
       id="guide854"
       inkscape:locked="false" />
    <sodipodi:guide
       position="8.4666666,8.4666666"
       orientation="0,-32"
       id="guide856"
       inkscape:locked="false" />
    <sodipodi:guide
       position="0,8.4666814"
       orientation="1,6.123234e-17"
       id="guide858"
       inkscape:locked="false" />
  </sodipodi:namedview>
  <metadata
     id="metadata5">
    <rdf:RDF>
      <cc:Work
         rdf:about="">
        <dc:format>image/svg+xml</dc:format>
        <dc:type
           rdf:resource="http://purl.org/dc/dcmitype/StillImage" />
        <dc:title></dc:title>
      </cc:Work>
    </rdf:RDF>
  </metadata>
  <path
     style="fill:#8ad891;fill-opacity:1;stroke-width:0.06281408"
     d="M 1.9453125 0 C 1.1098862 0 0.4375 0.67238558 0.4375 1.5078125 L 0.4375 30.652344 C 0.4375 31.487771 1.1098862 32.160156 1.9453125 32.160156 L 23.050781 32.160156 C 23.886208 32.160156 24.558594 31.487771 24.558594 30.652344 L 24.558594 19.849609 C 24.527715 19.770496 24.496025 19.691242 24.464844 19.613281 C 24.199657 19.774433 23.854455 19.742777 23.623047 19.974609 C 22.361044 21.238504 22.137585 23.188326 23.025391 24.669922 C 23.028003 24.671869 23.030595 24.673816 23.033203 24.675781 C 23.628447 25.67225 23.504746 27.077753 22.626953 27.955078 L 21.150391 29.423828 C 20.007366 30.566018 17.962618 30.389502 17.039062 29.039062 C 14.042743 24.652469 14.510428 18.604848 18.382812 14.732422 C 19.936555 13.17865 21.877324 12.366616 23.880859 11.914062 L 23.880859 11.861328 C 23.880864 11.176081 24.123181 10.558353 24.5 10.050781 L 16.015625 10.050781 C 15.186479 10.050781 14.507813 9.3721215 14.507812 8.5429688 L 14.507812 0 L 1.9453125 0 z M 16.517578 0 L 16.517578 8.0410156 L 24.558594 8.0410156 L 24.558594 7.65625 C 24.558594 7.2605335 24.401811 6.8784118 24.119141 6.5957031 L 17.96875 0.43945312 C 17.686087 0.15659328 17.3024 3.7007434e-17 16.900391 0 L 16.517578 0 z M 26.912109 10.994141 C 26.502861 11.041977 26.134768 11.376056 26.134766 11.861328 L 26.134766 13.697266 C 23.899058 13.747965 21.682701 14.623909 19.976562 16.330078 C 16.864932 19.441743 16.503766 24.265697 18.898438 27.771484 C 19.052087 27.996151 19.371886 28.024458 19.564453 27.832031 L 21.037109 26.359375 C 21.179072 26.217488 21.204671 25.998775 21.101562 25.826172 C 19.684024 23.460546 20.038063 20.378976 22.025391 18.388672 C 23.129497 17.282529 24.580472 16.654576 26.134766 16.603516 L 26.134766 18.746094 C 26.134812 19.522468 27.075989 19.912248 27.625 19.363281 L 31.068359 15.919922 C 31.408655 15.579621 31.406749 15.029652 31.066406 14.689453 L 27.625 11.248047 C 27.419095 11.041983 27.157658 10.965303 26.912109 10.994141 z M 8.7382812 13.623047 C 8.9427537 13.623047 9.086181 13.687882 9.1679688 13.816406 C 9.2497576 13.93909 9.2910156 14.180763 9.2910156 14.542969 C 9.2910156 14.811703 9.2733351 15.014071 9.2382812 15.148438 C 9.2032275 15.282804 9.144289 15.373187 9.0625 15.419922 C 8.9865542 15.466657 8.8784916 15.490234 8.7382812 15.490234 C 8.2008134 15.490234 7.7803491 15.54525 7.4765625 15.65625 C 7.1727764 15.76725 6.9546795 15.940147 6.8203125 16.173828 C 6.6917884 16.401668 6.6269531 16.710147 6.6269531 17.101562 C 6.6269531 17.206719 6.6308731 17.289235 6.6367188 17.347656 L 6.6796875 18.197266 L 6.6894531 18.425781 C 6.6894531 19.039196 6.530314 19.548071 6.2148438 19.951172 C 5.8993862 20.34843 5.3826341 20.649044 4.6640625 20.853516 L 4.6640625 20.941406 C 5.3826341 21.140036 5.9032971 21.440649 6.2246094 21.84375 C 6.551764 22.246851 6.7148437 22.745908 6.7148438 23.341797 C 6.7148437 23.45864 6.7128769 23.545097 6.7070312 23.603516 L 6.6269531 24.751953 C 6.6211075 24.822058 6.6191406 24.928152 6.6191406 25.068359 C 6.6191406 25.459776 6.6859453 25.772177 6.8203125 26.005859 C 6.9546797 26.23954 7.1766999 26.412438 7.4863281 26.523438 C 7.7959563 26.640277 8.2124974 26.697266 8.7382812 26.697266 C 8.8784891 26.697266 8.9865517 26.718871 9.0625 26.759766 C 9.144289 26.806501 9.20323 26.896883 9.2382812 27.03125 C 9.2733351 27.165617 9.2910156 27.366032 9.2910156 27.634766 C 9.2910156 27.996972 9.2497576 28.242569 9.1679688 28.371094 C 9.0861798 28.499618 8.9427527 28.564453 8.7382812 28.564453 C 7.2719285 28.564453 6.1854032 28.305098 5.4785156 27.785156 C 4.771616 27.271061 4.4179688 26.469432 4.4179688 25.382812 C 4.4179688 25.213395 4.4277755 25.038526 4.4453125 24.857422 L 4.5585938 23.603516 C 4.5644393 23.556781 4.5683594 23.488004 4.5683594 23.394531 C 4.5683594 22.897958 4.3934914 22.514828 4.0429688 22.246094 C 3.6982818 21.971518 3.1972776 21.833984 2.5429688 21.833984 C 2.4027596 21.833984 2.2946966 21.810407 2.21875 21.763672 C 2.1428034 21.711094 2.0858161 21.618742 2.0449219 21.484375 C 2.0098695 21.350008 1.9921875 21.153534 1.9921875 20.896484 C 1.9921875 20.639434 2.0098695 20.446884 2.0449219 20.318359 C 2.0858161 20.183992 2.1428034 20.09361 2.21875 20.046875 C 2.2946966 19.994297 2.4027596 19.966797 2.5429688 19.966797 C 3.1972776 19.966797 3.692394 19.833187 4.0253906 19.564453 C 4.3642293 19.295719 4.5332031 18.91259 4.5332031 18.416016 C 4.5332031 18.322543 4.5292832 18.249844 4.5234375 18.197266 L 4.4355469 17.242188 C 4.4180099 17.066926 4.4101562 16.897952 4.4101562 16.734375 C 4.4101562 15.676965 4.7638158 14.893024 5.4707031 14.384766 C 6.1775907 13.876508 7.2660861 13.623047 8.7382812 13.623047 z M 11.927734 17.460938 C 12.435992 17.460937 12.805363 17.50612 13.033203 17.59375 C 13.261043 17.675539 13.375 17.815043 13.375 18.013672 L 13.375 19.888672 C 13.375 20.087301 13.261043 20.230729 13.033203 20.318359 C 12.805363 20.400148 12.435992 20.441406 11.927734 20.441406 C 11.419477 20.441406 11.052058 20.400148 10.824219 20.318359 C 10.596379 20.23073 10.482422 20.087302 10.482422 19.888672 L 10.482422 18.013672 C 10.482422 17.815043 10.596379 17.675539 10.824219 17.59375 C 11.052059 17.506118 11.419477 17.460936 11.927734 17.460938 z M 11.15625 22.544922 L 13.287109 22.544922 C 13.386425 22.544922 13.461094 22.570469 13.513672 22.623047 C 13.56625 22.675625 13.59375 22.746355 13.59375 22.833984 C 13.59375 22.921614 13.572144 23.008071 13.53125 23.095703 L 11.455078 27.802734 C 11.338238 28.083152 11.027807 28.222656 10.525391 28.222656 C 10.303394 28.222656 10.128526 28.181398 10 28.099609 C 9.8773165 28.01782 9.8164062 27.903864 9.8164062 27.757812 C 9.8164062 27.705235 9.8203262 27.667899 9.8261719 27.644531 L 10.701172 22.894531 C 10.724529 22.783534 10.773651 22.699046 10.849609 22.640625 C 10.931398 22.576363 11.033567 22.544922 11.15625 22.544922 z "
     transform="scale(0.26458333)"
     id="path1112" />
</svg>
