<?xml version="1.0" encoding="UTF-8" standalone="no"?>
<!-- Created with Inkscape (http://www.inkscape.org/) -->

<svg
   xmlns:dc="http://purl.org/dc/elements/1.1/"
   xmlns:cc="http://creativecommons.org/ns#"
   xmlns:rdf="http://www.w3.org/1999/02/22-rdf-syntax-ns#"
   xmlns:svg="http://www.w3.org/2000/svg"
   xmlns="http://www.w3.org/2000/svg"
   xmlns:sodipodi="http://sodipodi.sourceforge.net/DTD/sodipodi-0.dtd"
   xmlns:inkscape="http://www.inkscape.org/namespaces/inkscape"
   width="32"
   height="32"
   viewBox="0 0 8.4666666 8.4666666"
   version="1.1"
   id="svg8"
   inkscape:version="0.92.5 (2060ec1f9f, 2020-04-08)"
   sodipodi:docname="load-list-file-preset_bl.svg">
  <defs
     id="defs2" />
  <sodipodi:namedview
     id="base"
     pagecolor="#ffffff"
     bordercolor="#666666"
     borderopacity="1.0"
     inkscape:pageopacity="0.0"
     inkscape:pageshadow="2"
     inkscape:zoom="11.313708"
     inkscape:cx="16.23703"
     inkscape:cy="-1.8435887"
     inkscape:document-units="mm"
     inkscape:current-layer="svg8"
     showgrid="false"
     units="px"
     inkscape:window-width="1920"
     inkscape:window-height="1043"
     inkscape:window-x="0"
     inkscape:window-y="120"
     inkscape:window-maximized="1"
     inkscape:snap-global="true"
     inkscape:snap-bbox="true"
     inkscape:snap-nodes="false"
     inkscape:bbox-paths="true"
     inkscape:bbox-nodes="true"
     inkscape:snap-bbox-edge-midpoints="true"
     inkscape:snap-bbox-midpoints="true">
    <sodipodi:guide
       position="8.4666666,0"
       orientation="-32,0"
       id="guide854"
       inkscape:locked="false" />
    <sodipodi:guide
       position="8.4666666,8.4666666"
       orientation="0,-32"
       id="guide856"
       inkscape:locked="false" />
    <sodipodi:guide
       position="0,8.4666814"
       orientation="32,0"
       id="guide858"
       inkscape:locked="false" />
  </sodipodi:namedview>
  <metadata
     id="metadata5">
    <rdf:RDF>
      <cc:Work
         rdf:about="">
        <dc:format>image/svg+xml</dc:format>
        <dc:type
           rdf:resource="http://purl.org/dc/dcmitype/StillImage" />
        <dc:title></dc:title>
      </cc:Work>
    </rdf:RDF>
  </metadata>
  <path
     style="fill:#e3e3e3;fill-opacity:1;stroke-width:0.06248856"
     d="M 1.5 0 C 0.66890343 0 2.9605947e-16 0.66890306 0 1.5 L 0 30.494141 C 0 31.325238 0.66890343 31.994141 1.5 31.994141 L 22.496094 31.994141 C 23.210217 31.994141 23.798411 31.498299 23.951172 30.832031 C 21.29775 30.820076 18.663473 29.727926 16.787109 27.851562 C 16.472965 27.537419 16.188794 27.19503 15.919922 26.841797 L 9.7265625 26.841797 C 9.3897726 26.841797 9.1171875 26.569212 9.1171875 26.232422 L 9.1171875 24.605469 C 9.1171875 24.268683 9.3897714 23.996094 9.7265625 23.996094 L 14.392578 23.996094 C 14.161671 23.336362 13.997251 22.655216 13.904297 21.962891 L 9.7265625 21.962891 C 9.3897726 21.962891 9.1171875 21.690306 9.1171875 21.353516 L 9.1171875 19.726562 C 9.1171875 19.389773 9.3897714 19.117188 9.7265625 19.117188 L 13.935547 19.117188 C 14.043617 18.423077 14.221987 17.741994 14.46875 17.083984 L 9.7265625 17.083984 C 9.3897726 17.083984 9.1171875 16.811399 9.1171875 16.474609 L 9.1171875 14.847656 C 9.1171875 14.51087 9.3897714 14.238281 9.7265625 14.238281 L 16.076172 14.238281 C 16.299156 13.960825 16.535273 13.695428 16.787109 13.443359 C 18.672953 11.555776 21.322019 10.454422 23.990234 10.453125 C 23.991535 10.453124 23.99284 10.453125 23.994141 10.453125 L 23.994141 9.9980469 L 15.498047 9.9980469 C 14.673199 9.9980469 13.998047 9.3229027 13.998047 8.4980469 L 13.998047 0 L 1.5 0 z M 15.996094 0 L 15.996094 8 L 23.994141 8 L 23.994141 7.6171875 C 23.994141 7.2235221 23.837847 6.8417902 23.556641 6.5605469 L 17.439453 0.4375 C 17.158254 0.15610624 16.77688 0 16.376953 0 L 15.996094 0 z M 5.8632812 13.628906 C 6.9859574 13.628906 7.8984375 14.539432 7.8984375 15.662109 C 7.8984375 16.784785 6.9859574 17.695312 5.8632812 17.695312 C 4.740604 17.695312 3.8320312 16.784785 3.8320312 15.662109 C 3.8320312 14.539432 4.740604 13.628906 5.8632812 13.628906 z M 5.8632812 18.507812 C 6.9859574 18.507812 7.8984375 19.418338 7.8984375 20.541016 C 7.8984375 21.663692 6.9859574 22.574219 5.8632812 22.574219 C 4.740604 22.574219 3.8320312 21.663692 3.8320312 20.541016 C 3.8320312 19.418338 4.740604 18.507813 5.8632812 18.507812 z M 5.8632812 23.386719 C 6.9859574 23.386719 7.8984375 24.297246 7.8984375 25.419922 C 7.8984375 26.542599 6.9859574 27.453125 5.8632812 27.453125 C 4.740604 27.453125 3.8320312 26.542599 3.8320312 25.419922 C 3.8320312 24.297246 4.740604 23.386719 5.8632812 23.386719 z "
     transform="scale(0.26458333)"
     id="path1112" />
  <path
     inkscape:connector-curvature="0"
     id="path1064"
     d="M 6.3484494,3.3442211 A 2.118217,2.118217 0 0 0 4.2302323,5.4624382 2.118217,2.118217 0 0 0 6.3484494,7.5806553 2.118217,2.118217 0 0 0 8.4666665,5.4624382 2.118217,2.118217 0 0 0 6.3484494,3.3442211 Z m 0.2883071,0.6971086 c 0.034922,-0.00408 0.072077,0.00666 0.10136,0.035941 l 0.4894758,0.4894757 c 0.048403,0.048385 0.048661,0.1266575 2.647e-4,0.1750529 L 6.7381227,5.2315339 C 6.6600435,5.3096111 6.5263595,5.2540155 6.5263528,5.1436197 V 4.8390226 C 6.3053042,4.8462775 6.0987464,4.9356295 5.9417227,5.0929396 5.659089,5.3759968 5.6087692,5.8143191 5.8103685,6.1507554 c 0.014664,0.024518 0.011139,0.055582 -0.00905,0.075761 l -0.2094429,0.209443 c -0.027387,0.02737 -0.07305,0.023182 -0.094902,-0.00879 C 5.1564083,5.9285833 5.2077766,5.2427708 5.6503065,4.8002368 5.8929501,4.5575892 6.2083888,4.4327771 6.5263466,4.4255668 V 4.1646682 c 4e-7,-0.069013 0.052207,-0.1165332 0.1104099,-0.1233385 z"
     style="fill:#8ad891;fill-opacity:1;stroke:none;stroke-width:0.78307319;stroke-miterlimit:4;stroke-dasharray:none;stroke-opacity:1" />
</svg>
