<?xml version="1.0" encoding="UTF-8" standalone="no"?>
<!-- Created with Inkscape (http://www.inkscape.org/) -->

<svg
   xmlns:dc="http://purl.org/dc/elements/1.1/"
   xmlns:cc="http://creativecommons.org/ns#"
   xmlns:rdf="http://www.w3.org/1999/02/22-rdf-syntax-ns#"
   xmlns:svg="http://www.w3.org/2000/svg"
   xmlns="http://www.w3.org/2000/svg"
   xmlns:sodipodi="http://sodipodi.sourceforge.net/DTD/sodipodi-0.dtd"
   xmlns:inkscape="http://www.inkscape.org/namespaces/inkscape"
   width="32"
   height="32"
   viewBox="0 0 8.4666666 8.4666666"
   version="1.1"
   id="svg8"
   inkscape:version="0.92.5 (2060ec1f9f, 2020-04-08)"
   sodipodi:docname="load-code-file_sl.svg">
  <defs
     id="defs2">
    <style
       id="style1399">.cls-1{fill:#e3e3e3;}</style>
  </defs>
  <sodipodi:namedview
     id="base"
     pagecolor="#ffffff"
     bordercolor="#666666"
     borderopacity="1.0"
     inkscape:pageopacity="0.0"
     inkscape:pageshadow="2"
     inkscape:zoom="11.313708"
     inkscape:cx="-0.017950177"
     inkscape:cy="19.847129"
     inkscape:document-units="mm"
     inkscape:current-layer="svg8"
     showgrid="false"
     units="px"
     inkscape:window-width="1848"
     inkscape:window-height="1136"
     inkscape:window-x="1920"
     inkscape:window-y="27"
     inkscape:window-maximized="1">
    <sodipodi:guide
       position="8.4666666,0"
       orientation="-32,0"
       id="guide854"
       inkscape:locked="false" />
    <sodipodi:guide
       position="8.4666666,8.4666666"
       orientation="0,-32"
       id="guide856"
       inkscape:locked="false" />
    <sodipodi:guide
       position="0,8.4666814"
       orientation="1,6.123234e-17"
       id="guide858"
       inkscape:locked="false" />
  </sodipodi:namedview>
  <metadata
     id="metadata5">
    <rdf:RDF>
      <cc:Work
         rdf:about="">
        <dc:format>image/svg+xml</dc:format>
        <dc:type
           rdf:resource="http://purl.org/dc/dcmitype/StillImage" />
        <dc:title></dc:title>
      </cc:Work>
    </rdf:RDF>
  </metadata>
  <path
     style="fill:#8ad891;fill-opacity:1;stroke-width:0.06281408"
     d="M 1.546875 0 C 0.71144868 0 0.0390625 0.67238573 0.0390625 1.5078125 L 0.0390625 30.652344 C 0.0390625 31.487771 0.71144868 32.160156 1.546875 32.160156 L 22.652344 32.160156 C 23.487771 32.160156 24.160156 31.487771 24.160156 30.652344 L 24.160156 19.849609 C 24.129278 19.770496 24.097587 19.691242 24.066406 19.613281 C 23.801219 19.774433 23.456017 19.742777 23.224609 19.974609 C 21.962606 21.238504 21.739147 23.188326 22.626953 24.669922 A 2.2502249 2.2502249 0 0 1 22.634766 24.675781 C 23.23002 25.672249 23.106309 27.077753 22.228516 27.955078 L 20.751953 29.423828 C 19.608928 30.566018 17.564181 30.389501 16.640625 29.039062 C 13.644305 24.652468 14.11199 18.604848 17.984375 14.732422 C 19.538118 13.17865 21.478887 12.366616 23.482422 11.914062 L 23.482422 11.861328 C 23.482427 11.176081 23.724742 10.558353 24.101562 10.050781 L 15.617188 10.050781 C 14.788042 10.050781 14.109375 9.3721215 14.109375 8.5429688 L 14.109375 0 L 1.546875 0 z M 16.119141 0 L 16.119141 8.0410156 L 24.160156 8.0410156 L 24.160156 7.65625 C 24.160156 7.2605335 24.003374 6.8784118 23.720703 6.5957031 L 17.570312 0.43945312 C 17.287649 0.15659328 16.903963 3.7007434e-17 16.501953 0 L 16.119141 0 z M 26.513672 10.994141 C 26.104424 11.041977 25.73633 11.376056 25.736328 11.861328 L 25.736328 13.697266 C 23.50062 13.747965 21.284263 14.623909 19.578125 16.330078 C 16.466494 19.441743 16.105328 24.265697 18.5 27.771484 C 18.653649 27.996151 18.973449 28.024458 19.166016 27.832031 L 20.638672 26.359375 C 20.780635 26.217488 20.806234 25.998775 20.703125 25.826172 C 19.285587 23.460546 19.639625 20.378976 21.626953 18.388672 C 22.731059 17.282529 24.182034 16.654576 25.736328 16.603516 L 25.736328 18.746094 C 25.736375 19.522468 26.677551 19.912248 27.226562 19.363281 L 30.669922 15.919922 C 31.010218 15.579621 31.008312 15.029652 30.667969 14.689453 L 27.226562 11.248047 C 27.020657 11.041983 26.759221 10.965303 26.513672 10.994141 z M 13.179688 11.390625 C 13.231461 11.384491 13.284662 11.389326 13.337891 11.404297 L 15.367188 11.992188 C 15.580103 12.05207 15.700512 12.275367 15.640625 12.488281 L 11.099609 28.130859 C 11.036397 28.343772 10.81643 28.467506 10.603516 28.404297 L 8.5742188 27.814453 C 8.3613013 27.75457 8.2409018 27.531274 8.3007812 27.318359 L 12.841797 11.675781 C 12.886709 11.516094 13.024367 11.409026 13.179688 11.390625 z M 6.5332031 15.009766 C 6.6355026 15.013092 6.7356933 15.056874 6.8105469 15.136719 L 8.2578125 16.679688 C 8.4141791 16.842702 8.4001355 17.10225 8.2304688 17.251953 L 5.2167969 19.904297 L 8.2304688 22.554688 C 8.400128 22.704394 8.4108456 22.963938 8.2578125 23.126953 L 6.8105469 24.671875 C 6.6608405 24.834882 6.4071554 24.840529 6.2441406 24.6875 L 1.4511719 20.193359 C 1.2815032 20.037 1.2815032 19.767691 1.4511719 19.611328 L 6.2441406 15.119141 C 6.3256478 15.04262 6.4309036 15.006439 6.5332031 15.009766 z "
     transform="scale(0.26458333)"
     id="path1112" />
</svg>
