<?xml version="1.0" encoding="UTF-8" standalone="no"?>
<!-- Created with Inkscape (http://www.inkscape.org/) -->

<svg
   xmlns:dc="http://purl.org/dc/elements/1.1/"
   xmlns:cc="http://creativecommons.org/ns#"
   xmlns:rdf="http://www.w3.org/1999/02/22-rdf-syntax-ns#"
   xmlns:svg="http://www.w3.org/2000/svg"
   xmlns="http://www.w3.org/2000/svg"
   xmlns:sodipodi="http://sodipodi.sourceforge.net/DTD/sodipodi-0.dtd"
   xmlns:inkscape="http://www.inkscape.org/namespaces/inkscape"
   width="32"
   height="32"
   viewBox="0 0 8.4666666 8.4666666"
   version="1.1"
   id="svg8"
   inkscape:version="0.92.5 (2060ec1f9f, 2020-04-08)"
   sodipodi:docname="load-code-file-2_bl.svg">
  <defs
     id="defs2">
    <style
       id="style1399">.cls-1{fill:#e3e3e3;}</style>
    <style
       id="style1399-1">.cls-1{fill:#e3e3e3;}</style>
  </defs>
  <sodipodi:namedview
     id="base"
     pagecolor="#ffffff"
     bordercolor="#666666"
     borderopacity="1.0"
     inkscape:pageopacity="0.0"
     inkscape:pageshadow="2"
     inkscape:zoom="7.9999995"
     inkscape:cx="-0.40850294"
     inkscape:cy="11.837676"
     inkscape:document-units="mm"
     inkscape:current-layer="svg8"
     showgrid="false"
     units="px"
     inkscape:window-width="1848"
     inkscape:window-height="1136"
     inkscape:window-x="1920"
     inkscape:window-y="27"
     inkscape:window-maximized="1">
    <sodipodi:guide
       position="8.4666666,0"
       orientation="-32,0"
       id="guide854"
       inkscape:locked="false" />
    <sodipodi:guide
       position="8.4666666,8.4666666"
       orientation="0,-32"
       id="guide856"
       inkscape:locked="false" />
    <sodipodi:guide
       position="0,8.4666814"
       orientation="1,6.123234e-17"
       id="guide858"
       inkscape:locked="false" />
  </sodipodi:namedview>
  <metadata
     id="metadata5">
    <rdf:RDF>
      <cc:Work
         rdf:about="">
        <dc:format>image/svg+xml</dc:format>
        <dc:type
           rdf:resource="http://purl.org/dc/dcmitype/StillImage" />
        <dc:title></dc:title>
      </cc:Work>
    </rdf:RDF>
  </metadata>
  <path
     style="fill:#e3e3e3;fill-opacity:1;stroke-width:0.06231719"
     d="M 1.4628906 0 C 0.63687567 0 -0.033203125 0.67007913 -0.033203125 1.4960938 L -0.033203125 30.410156 C -0.033203125 31.23617 0.63687567 31.90625 1.4628906 31.90625 L 22.402344 31.90625 C 22.973355 31.90625 23.462855 31.581768 23.714844 31.111328 C 21.277289 31.026058 18.881601 30.004648 17.15625 28.279297 C 15.353469 26.476516 14.306314 23.942095 14.306641 21.392578 C 14.306315 18.843062 15.353469 16.30864 17.15625 14.505859 C 18.924464 12.737645 21.396657 11.703028 23.896484 11.664062 L 23.896484 9.9707031 L 15.421875 9.9707031 C 14.599288 9.9707031 13.925781 9.2971963 13.925781 8.4746094 L 13.925781 0 L 1.4628906 0 z M 15.919922 0 L 15.919922 7.9765625 L 23.896484 7.9765625 L 23.896484 7.5996094 C 23.896464 7.2029491 23.739433 6.8215284 23.458984 6.5410156 L 17.355469 0.4375 C 17.074979 0.15707266 16.695479 7.4014868e-17 16.298828 0 L 15.919922 0 z M 8.3886719 13.494141 C 8.5982492 13.494141 8.7462467 13.559672 8.8300781 13.691406 C 8.913908 13.817154 8.9550781 14.066249 8.9550781 14.4375 C 8.9550781 14.712945 8.9363188 14.918918 8.9003906 15.056641 C 8.8644624 15.194362 8.804533 15.288033 8.7207031 15.335938 C 8.64286 15.383841 8.5323821 15.408203 8.3886719 15.408203 C 7.8377823 15.408203 7.4070757 15.464354 7.0957031 15.578125 C 6.7843308 15.691896 6.5595975 15.869859 6.421875 16.109375 C 6.2901408 16.342904 6.2246094 16.659356 6.2246094 17.060547 C 6.2246094 17.168329 6.2283781 17.25262 6.234375 17.3125 L 6.2792969 18.183594 L 6.2871094 18.416016 C 6.2871094 19.044748 6.1260825 19.567301 5.8027344 19.980469 C 5.479386 20.387648 4.9494062 20.694719 4.2128906 20.904297 L 4.2128906 20.994141 C 4.9494062 21.197731 5.4812107 21.506755 5.8105469 21.919922 C 6.1458711 22.333089 6.3144531 22.844309 6.3144531 23.455078 C 6.3144531 23.574836 6.3106844 23.664729 6.3046875 23.724609 L 6.2246094 24.902344 C 6.2186125 24.9742 6.2148438 25.080899 6.2148438 25.224609 C 6.2148438 25.625801 6.2841541 25.94603 6.421875 26.185547 C 6.5595985 26.425063 6.7881094 26.603025 7.1054688 26.716797 C 7.422829 26.836555 7.8497581 26.896484 8.3886719 26.896484 C 8.5323821 26.896484 8.64286 26.917069 8.7207031 26.958984 C 8.804533 27.006886 8.8644624 27.098605 8.9003906 27.236328 C 8.9363188 27.374052 8.9550781 27.581978 8.9550781 27.857422 C 8.9550781 28.228674 8.913908 28.479593 8.8300781 28.611328 C 8.7462482 28.743062 8.5982507 28.808594 8.3886719 28.808594 C 6.8857012 28.808594 5.7733678 28.542691 5.0488281 28.009766 C 4.3242894 27.48283 3.9609375 26.662583 3.9609375 25.548828 C 3.9609375 25.375179 3.970316 25.195392 3.9882812 25.009766 L 4.1054688 23.724609 C 4.1114655 23.676705 4.1132812 23.605572 4.1132812 23.509766 C 4.1132812 23.000791 3.9334944 22.607476 3.5742188 22.332031 C 3.2209241 22.050598 2.7097108 21.910156 2.0390625 21.910156 C 1.8953523 21.910156 1.7848744 21.885795 1.7070312 21.837891 C 1.6291882 21.784 1.5692591 21.688505 1.5273438 21.550781 C 1.4914161 21.413058 1.4726562 21.212687 1.4726562 20.949219 C 1.4726562 20.68575 1.4914161 20.489156 1.5273438 20.357422 C 1.5692591 20.219701 1.6291882 20.126029 1.7070312 20.078125 C 1.7848744 20.024234 1.8953523 19.998047 2.0390625 19.998047 C 2.7097108 19.998047 3.2153285 19.859429 3.5566406 19.583984 C 3.9039392 19.30854 4.078125 18.917177 4.078125 18.408203 C 4.078125 18.312397 4.0743562 18.237485 4.0683594 18.183594 L 3.9785156 17.205078 C 3.9605503 17.02544 3.953125 16.851255 3.953125 16.683594 C 3.953125 15.599778 4.314523 14.796341 5.0390625 14.275391 C 5.7636025 13.75444 6.8797114 13.494142 8.3886719 13.494141 z M 11.658203 17.429688 C 12.179153 17.429688 12.555534 17.472681 12.789062 17.5625 C 13.022592 17.64633 13.140625 17.79055 13.140625 17.994141 L 13.140625 19.916016 C 13.140625 20.119606 13.022592 20.267604 12.789062 20.357422 C 12.555534 20.441252 12.179153 20.482422 11.658203 20.482422 C 11.137253 20.482422 10.760873 20.441252 10.527344 20.357422 C 10.293814 20.267603 10.175781 20.119605 10.175781 19.916016 L 10.175781 17.994141 C 10.175781 17.79055 10.293814 17.64633 10.527344 17.5625 C 10.760873 17.472681 11.137253 17.429687 11.658203 17.429688 z M 10.867188 22.638672 L 13.050781 22.638672 C 13.152577 22.638672 13.229312 22.664859 13.283203 22.71875 C 13.337094 22.772641 13.365234 22.845728 13.365234 22.935547 C 13.365234 23.025366 13.344649 23.115259 13.302734 23.205078 L 11.173828 28.027344 C 11.054067 28.314764 10.735663 28.458984 10.220703 28.458984 C 9.9931605 28.458984 9.8133738 28.415864 9.6816406 28.332031 C 9.5558932 28.248201 9.4941406 28.132121 9.4941406 27.982422 C 9.4941406 27.928531 9.4959563 27.889187 9.5019531 27.865234 L 10.400391 22.998047 C 10.424353 22.884276 10.474901 22.796206 10.552734 22.736328 C 10.636564 22.670461 10.74144 22.638672 10.867188 22.638672 z "
     transform="scale(0.26458333)"
     id="path1026" />
  <path
     style="fill:#8ad891;fill-opacity:1;stroke:none;stroke-width:0.77786362;stroke-miterlimit:4;stroke-dasharray:none;stroke-opacity:1"
     d="M 6.3659839,3.5432127 A 2.104125,2.104125 0 0 0 4.2618587,5.6473379 2.104125,2.104125 0 0 0 6.3659839,7.7514628 2.104125,2.104125 0 0 0 8.470109,5.6473379 2.104125,2.104125 0 0 0 6.3659839,3.5432127 Z m 0.286389,0.6924708 c 0.03469,-0.00406 0.071597,0.00662 0.1006857,0.035702 L 7.239278,4.7576049 c 0.048081,0.048064 0.048338,0.1258149 2.63e-4,0.1738884 L 6.7530648,5.4179694 C 6.675505,5.4955275 6.5427104,5.4403017 6.5427037,5.3306403 V 5.0280696 c -0.219578,0.00721 -0.4247616,0.095964 -0.5807406,0.2522278 -0.2807535,0.2811741 -0.3307386,0.7165803 -0.1304804,1.0507784 0.014567,0.024355 0.011065,0.055212 -0.00899,0.075257 l -0.2080495,0.20805 c -0.027204,0.027188 -0.072564,0.023028 -0.09427,-0.00873 C 5.1818731,6.1103817 5.2328997,5.4291318 5.6724855,4.9895419 5.9135149,4.7485085 6.226855,4.6245268 6.5426975,4.6173645 V 4.3582016 c 4e-7,-0.068554 0.05186,-0.1157579 0.1096754,-0.1225181 z"
     id="path4811"
     inkscape:connector-curvature="0" />
</svg>
