<?xml version="1.0" encoding="UTF-8" standalone="no"?>
<!-- Created with Inkscape (http://www.inkscape.org/) -->

<svg
   xmlns:dc="http://purl.org/dc/elements/1.1/"
   xmlns:cc="http://creativecommons.org/ns#"
   xmlns:rdf="http://www.w3.org/1999/02/22-rdf-syntax-ns#"
   xmlns:svg="http://www.w3.org/2000/svg"
   xmlns="http://www.w3.org/2000/svg"
   xmlns:sodipodi="http://sodipodi.sourceforge.net/DTD/sodipodi-0.dtd"
   xmlns:inkscape="http://www.inkscape.org/namespaces/inkscape"
   width="32"
   height="32"
   viewBox="0 0 8.4666666 8.4666666"
   version="1.1"
   id="svg8"
   inkscape:version="0.92.5 (2060ec1f9f, 2020-04-08)"
   sodipodi:docname="load-text-file_sl.svg">
  <defs
     id="defs2" />
  <sodipodi:namedview
     id="base"
     pagecolor="#ffffff"
     bordercolor="#666666"
     borderopacity="1.0"
     inkscape:pageopacity="0.0"
     inkscape:pageshadow="2"
     inkscape:zoom="15.999999"
     inkscape:cx="6.8265156"
     inkscape:cy="12.156213"
     inkscape:document-units="mm"
     inkscape:current-layer="svg8"
     showgrid="false"
     units="px"
     inkscape:window-width="1920"
     inkscape:window-height="1043"
     inkscape:window-x="0"
     inkscape:window-y="120"
     inkscape:window-maximized="1">
    <sodipodi:guide
       position="8.4666666,0"
       orientation="-32,0"
       id="guide854"
       inkscape:locked="false" />
    <sodipodi:guide
       position="8.4666666,8.4666666"
       orientation="0,-32"
       id="guide856"
       inkscape:locked="false" />
    <sodipodi:guide
       position="0,8.4666814"
       orientation="1,6.123234e-17"
       id="guide858"
       inkscape:locked="false" />
  </sodipodi:namedview>
  <metadata
     id="metadata5">
    <rdf:RDF>
      <cc:Work
         rdf:about="">
        <dc:format>image/svg+xml</dc:format>
        <dc:type
           rdf:resource="http://purl.org/dc/dcmitype/StillImage" />
        <dc:title></dc:title>
      </cc:Work>
    </rdf:RDF>
  </metadata>
  <path
     style="fill:#8ad891;fill-opacity:1;stroke-width:0.06254257"
     d="M 1.5644531 0 C 0.73263698 0 0.0625 0.67013694 0.0625 1.5019531 L 0.0625 30.521484 C 0.0625 31.353299 0.73263698 32.021484 1.5644531 32.021484 L 22.578125 32.021484 C 23.409941 32.021484 24.078125 31.353299 24.078125 30.521484 L 24.078125 21.091797 C 23.845902 20.710884 23.681128 20.243615 23.447266 19.830078 C 23.335679 19.91725 23.174038 19.888271 23.070312 19.992188 C 21.996794 21.067313 21.814164 22.719894 22.568359 23.978516 A 2.6252628 2.6252628 0 0 1 22.568359 23.986328 C 23.285064 25.186027 23.065683 26.732335 22.103516 27.699219 L 22.103516 27.707031 L 20.677734 29.123047 A 2.6252628 2.6252628 0 0 1 20.677734 29.130859 C 19.375952 30.431693 17.056427 30.220042 16.013672 28.695312 C 15.037629 27.266392 14.432196 25.663234 14.185547 24.015625 L 6.8164062 24.015625 C 6.4036256 24.015625 6.0664062 23.678406 6.0664062 23.265625 L 6.0664062 22.765625 C 6.0664062 22.352844 6.4036268 22.015625 6.8164062 22.015625 L 14.066406 22.015625 C 14.084652 21.34359 14.164235 20.674262 14.300781 20.013672 L 6.8164062 20.013672 C 6.4036256 20.013672 6.0664062 19.676453 6.0664062 19.263672 L 6.0664062 18.763672 C 6.0664062 18.350891 6.4036268 18.011719 6.8164062 18.011719 L 14.912109 18.011719 C 15.19605 17.318304 15.546601 16.647794 15.972656 16.011719 L 6.8164062 16.011719 C 6.4036256 16.011719 6.0664062 15.672545 6.0664062 15.259766 L 6.0664062 14.759766 C 6.0664062 14.346985 6.4036268 14.009766 6.8164062 14.009766 L 17.324219 14.009766 C 17.429935 14.009766 17.529635 14.032374 17.621094 14.072266 C 19.082268 12.716823 20.851212 11.958624 22.685547 11.503906 C 22.748184 10.960612 22.938818 10.452743 23.212891 10.005859 L 15.572266 10.005859 C 14.746704 10.005859 14.072266 9.3314216 14.072266 8.5058594 L 14.072266 0 L 1.5644531 0 z M 16.074219 0 L 16.074219 8.0058594 L 24.078125 8.0058594 L 24.078125 7.6230469 C 24.078125 7.2290285 23.922068 6.8478488 23.640625 6.5664062 L 17.517578 0.4375 C 17.236136 0.15605843 16.855351 7.4014868e-17 16.455078 0 L 16.074219 0 z M 25.931641 10.994141 C 25.536074 11.040378 25.179691 11.362983 25.179688 11.832031 L 25.179688 13.605469 C 23.018724 13.654473 20.875662 14.503214 19.226562 16.152344 C 16.218959 19.15998 15.868979 23.8204 18.183594 27.208984 C 18.332104 27.426138 18.643949 27.455524 18.830078 27.269531 L 20.251953 25.845703 C 20.389169 25.708557 20.414119 25.49691 20.314453 25.330078 C 18.944306 23.043539 19.286143 20.064389 21.207031 18.140625 C 22.274225 17.071463 23.677357 16.465369 25.179688 16.416016 L 25.179688 18.486328 C 25.179733 19.236747 26.088484 19.612645 26.619141 19.082031 L 29.947266 15.753906 C 30.276182 15.424982 30.274279 14.89328 29.945312 14.564453 L 26.619141 11.238281 C 26.420119 11.039108 26.16898 10.966286 25.931641 10.994141 z "
     transform="scale(0.26458333)"
     id="path965" />
</svg>
