<svg id="Calque_1" data-name="Calque 1" xmlns="http://www.w3.org/2000/svg" viewBox="0 0 32 32"><defs><style>.cls-1{fill:#e3e3e3;}</style></defs><title>login_l</title><path class="cls-1" d="M21.51,14.92a1.17,1.17,0,0,1,.35.85,1.15,1.15,0,0,1-.35.85l-8.43,8.43a1.17,1.17,0,0,1-.85.35,1.15,1.15,0,0,1-.85-.35A1.13,1.13,0,0,1,11,24.2V19.38H4.2A1.13,1.13,0,0,1,3.35,19,1.17,1.17,0,0,1,3,18.18V13.36a1.19,1.19,0,0,1,.35-.85,1.17,1.17,0,0,1,.85-.35H11V7.35a1.2,1.2,0,0,1,1.2-1.21,1.17,1.17,0,0,1,.85.35ZM23.87,25a4.78,4.78,0,0,0,4.81-4.82V10.55a4.78,4.78,0,0,0-4.81-4.81H19.65a.62.62,0,0,0-.6.6v2a.62.62,0,0,0,.6.6h4.22a1.64,1.64,0,0,1,1.6,1.6v9.63a1.64,1.64,0,0,1-1.6,1.61H19.65a.62.62,0,0,0-.6.6v2a.62.62,0,0,0,.6.6Z"/></svg>