<svg id="Calque_1" data-name="Calque 1" xmlns="http://www.w3.org/2000/svg" viewBox="0 0 32 32"><defs><style>.cls-1{fill:#e3e3e3;}</style></defs><title>logout_l</title><path class="cls-1" d="M12.63,24.4a.62.62,0,0,1-.6.6H7.81A4.78,4.78,0,0,1,3,20.18V10.55A4.78,4.78,0,0,1,7.81,5.74H12a.62.62,0,0,1,.6.6v2A.62.62,0,0,1,12,9H7.81a1.64,1.64,0,0,0-1.6,1.6v9.63a1.64,1.64,0,0,0,1.6,1.61H12a.62.62,0,0,1,.6.6Zm15.3-8.18a1.21,1.21,0,0,0,0-1.7L19.5,6.09a1.17,1.17,0,0,0-.85-.35,1.2,1.2,0,0,0-1.2,1.2v4.82H10.62A1.2,1.2,0,0,0,9.42,13v4.82a1.2,1.2,0,0,0,1.2,1.2h6.83V23.8a1.13,1.13,0,0,0,.35.85,1.15,1.15,0,0,0,.85.35,1.17,1.17,0,0,0,.85-.35Z"/></svg>