<svg id="Calque_1" data-name="Calque 1" xmlns="http://www.w3.org/2000/svg" viewBox="0 0 32 32"><defs><style>.cls-1{fill:#e3e3e3;}</style></defs><title>loopin_l</title><path class="cls-1" d="M9.77,17.17V11.08a.29.29,0,0,1,.3-.3h8.47a.3.3,0,0,1,.3.3v7.06a1.38,1.38,0,0,1-1.39,1.38H4.64a.78.78,0,0,0-.76.83v.83a.78.78,0,0,0,.76.83H18.1c1.11,0,3.46-2.16,3.46-4.37V11.08a3,3,0,0,0-3-3H10.07a3,3,0,0,0-3,3v6.1ZM21.31,22h4.22l-1.9,1.91a.85.85,0,0,0-.24.59.87.87,0,0,0,.24.59l.49.48a.84.84,0,0,0,.58.24.83.83,0,0,0,.59-.24l4.23-4.22a.87.87,0,0,0,.24-.59.85.85,0,0,0-.24-.59L25.29,16a.83.83,0,0,0-1.17,0l-.49.49a.85.85,0,0,0-.24.59.83.83,0,0,0,.24.58l1.9,1.91h-2S22.13,22,21.31,22Z"/></svg>