<svg id="Calque_1" data-name="Calque 1" xmlns="http://www.w3.org/2000/svg" viewBox="0 0 32 32"><defs><style>.cls-1{fill:#e3e3e3;}</style></defs><title>loopout_l</title><path class="cls-1" d="M26.47,16.58V10.49a3,3,0,0,0-3-3H15a3,3,0,0,0-3,3v6.56c0,2.21,2.35,4.37,3.45,4.37H28.88a.78.78,0,0,0,.76-.83v-.83a.78.78,0,0,0-.76-.83H16.06a1.38,1.38,0,0,1-1.38-1.39v-7a.3.3,0,0,1,.3-.31h8.47a.31.31,0,0,1,.3.31v6.08Z"/><path class="cls-1" d="M6.5,25.42a.89.89,0,0,1-.64-.27l-.51-.48A.9.9,0,0,1,5.09,24a.92.92,0,0,1,.28-.62l2-1.92H1.92a.9.9,0,0,1-.64-.26A.92.92,0,0,1,1,20.55v-.71a.9.9,0,0,1,.26-.64.91.91,0,0,1,.64-.27H7.37l-2-1.9a1,1,0,0,1-.28-.64.87.87,0,0,1,.26-.66l.51-.49a.92.92,0,0,1,1.28,0l4.31,4.31a.89.89,0,0,1,0,1.28L7.14,25.15A.89.89,0,0,1,6.5,25.42Z"/></svg>