<svg id="Calque_1" data-name="Calque 1" xmlns="http://www.w3.org/2000/svg" viewBox="0 0 32 32"><defs><style>.cls-1{fill:#e3e3e3;}</style></defs><title>mapeffector_l</title><path class="cls-1" d="M18,9.46a3.2,3.2,0,1,0,4.52,0A3.21,3.21,0,0,0,18,9.46Z"/><path class="cls-1" d="M27.09,4.85a9.72,9.72,0,1,0,0,13.74A9.68,9.68,0,0,0,27.09,4.85Zm-1,12.71A8.26,8.26,0,1,1,14.38,5.88,8.26,8.26,0,0,1,26.06,17.56Z"/><rect class="cls-1" x="2.5" y="14.12" width="2.89" height="2.89"/><rect class="cls-1" x="5.5" y="17.12" width="2.89" height="2.89"/><rect class="cls-1" x="5.5" y="23.11" width="2.89" height="2.89"/><rect class="cls-1" x="11.49" y="23.11" width="2.89" height="2.89"/><rect class="cls-1" x="2.5" y="20.11" width="2.89" height="2.89"/><rect class="cls-1" x="8.5" y="20.11" width="2.89" height="2.89"/><rect class="cls-1" x="2.5" y="26.11" width="2.89" height="2.89"/><rect class="cls-1" x="8.5" y="26.11" width="2.89" height="2.89"/><rect class="cls-1" x="14.49" y="26.11" width="2.89" height="2.89"/><path class="cls-1" d="M16.39,22.79v5.1H3.61V15.11H9A11.27,11.27,0,0,1,8.73,14H2.5V29h15V23.11C17.12,23,16.75,22.91,16.39,22.79Z"/><path class="cls-1" d="M17.38,16.06a4.78,4.78,0,0,1-.83-.67,5.1,5.1,0,0,1-.91-1.27H14.49v.11a6.21,6.21,0,0,0,1.3,1.92,6.87,6.87,0,0,0,1.09.86h.5Z"/></svg>