<svg id="Calque_1" data-name="Calque 1" xmlns="http://www.w3.org/2000/svg" viewBox="0 0 32 32"><defs><style>.cls-1,.cls-2{fill:none;stroke:#e3e3e3;stroke-miterlimit:10;}.cls-1{stroke-width:3px;}.cls-2{stroke-width:2px;}</style></defs><title>measure_l</title><path class="cls-1" d="M.83,12.44H31.32a0,0,0,0,1,0,0v5.64a3.5,3.5,0,0,1-3.5,3.5H4.33a3.5,3.5,0,0,1-3.5-3.5V12.44a0,0,0,0,1,0,0Z" transform="translate(-7.32 16.35) rotate(-45)"/><line class="cls-2" x1="9.07" y1="26.17" x2="4.76" y2="21.86"/><line class="cls-2" x1="17.15" y1="18.09" x2="12.84" y2="13.78"/><line class="cls-2" x1="10.14" y1="21.86" x2="7.45" y2="19.17"/><line class="cls-2" x1="12.84" y1="19.16" x2="10.15" y2="16.47"/><line class="cls-2" x1="18.23" y1="13.78" x2="15.53" y2="11.09"/><line class="cls-2" x1="20.92" y1="11.08" x2="18.23" y2="8.39"/><line class="cls-2" x1="25.23" y1="10" x2="20.92" y2="5.69"/></svg>