<svg id="Calque_1" data-name="Calque 1" xmlns="http://www.w3.org/2000/svg" viewBox="0 0 32 32"><defs><style>.cls-1{fill:#e3e3e3;}</style></defs><title>menu_l</title><path class="cls-1" d="M3.94,8.82a.94.94,0,0,1-1-1V5.42a.93.93,0,0,1,.28-.7.94.94,0,0,1,.7-.27H29.19a.94.94,0,0,1,1,1V7.85a.94.94,0,0,1-1,1Zm0,9.71a.94.94,0,0,1-.7-.27.93.93,0,0,1-.28-.7V15.13a.94.94,0,0,1,1-1H29.19a.94.94,0,0,1,1,1v2.43a.94.94,0,0,1-1,1Zm0,9.71a.94.94,0,0,1-.7-.27.93.93,0,0,1-.28-.7V24.84a1,1,0,0,1,1-1H29.19a1,1,0,0,1,1,1v2.43a.94.94,0,0,1-1,1Z"/></svg>