<?xml version="1.0" encoding="UTF-8" standalone="no"?>
<!-- Created with Inkscape (http://www.inkscape.org/) -->

<svg
   xmlns:dc="http://purl.org/dc/elements/1.1/"
   xmlns:cc="http://creativecommons.org/ns#"
   xmlns:rdf="http://www.w3.org/1999/02/22-rdf-syntax-ns#"
   xmlns:svg="http://www.w3.org/2000/svg"
   xmlns="http://www.w3.org/2000/svg"
   xmlns:sodipodi="http://sodipodi.sourceforge.net/DTD/sodipodi-0.dtd"
   xmlns:inkscape="http://www.inkscape.org/namespaces/inkscape"
   width="32"
   height="32"
   viewBox="0 0 8.4666666 8.4666666"
   version="1.1"
   id="svg8"
   inkscape:version="0.92.5 (2060ec1f9f, 2020-04-08)"
   sodipodi:docname="microchip_sl.svg">
  <defs
     id="defs2">
    <style
       id="style1399">.cls-1{fill:#e3e3e3;}</style>
    <style
       id="style1399-4">.cls-1{fill:#e3e3e3;}</style>
    <style
       id="style1399-5">.cls-1{fill:#e3e3e3;}</style>
    <style
       id="style1399-7">.cls-1{fill:#e3e3e3;}</style>
    <style
       id="style1399-85">.cls-1{fill:#e3e3e3;}</style>
    <style
       id="style1399-4-6">.cls-1{fill:#e3e3e3;}</style>
    <style
       id="style1399-8">.cls-1{fill:#e3e3e3;}</style>
    <style
       id="style1399-4-5">.cls-1{fill:#e3e3e3;}</style>
    <style
       id="style1399-44">.cls-1{fill:#e3e3e3;}</style>
    <style
       id="style1399-59">.cls-1{fill:#e3e3e3;}</style>
    <style
       id="style1399-41">.cls-1{fill:#e3e3e3;}</style>
    <style
       id="style1399-83">.cls-1{fill:#e3e3e3;}</style>
    <style
       id="style1399-4-1">.cls-1{fill:#e3e3e3;}</style>
  </defs>
  <sodipodi:namedview
     id="base"
     pagecolor="#ffffff"
     bordercolor="#666666"
     borderopacity="1.0"
     inkscape:pageopacity="0.0"
     inkscape:pageshadow="2"
     inkscape:zoom="5.6568543"
     inkscape:cx="-16.405464"
     inkscape:cy="5.4824837"
     inkscape:document-units="mm"
     inkscape:current-layer="svg8"
     showgrid="false"
     units="px"
     inkscape:window-width="1920"
     inkscape:window-height="1043"
     inkscape:window-x="0"
     inkscape:window-y="120"
     inkscape:window-maximized="1"
     inkscape:snap-global="true"
     inkscape:snap-bbox="true"
     inkscape:bbox-paths="true"
     inkscape:bbox-nodes="true"
     inkscape:snap-bbox-edge-midpoints="true"
     inkscape:snap-bbox-midpoints="true"
     inkscape:snap-nodes="false"
     inkscape:snap-others="false">
    <sodipodi:guide
       position="8.4666666,0"
       orientation="-32,0"
       id="guide854"
       inkscape:locked="false" />
    <sodipodi:guide
       position="0,8.4666666"
       orientation="0,-32"
       id="guide856"
       inkscape:locked="false" />
    <sodipodi:guide
       position="0,8.4666666"
       orientation="32,0"
       id="guide858"
       inkscape:locked="false" />
  </sodipodi:namedview>
  <metadata
     id="metadata5">
    <rdf:RDF>
      <cc:Work
         rdf:about="">
        <dc:format>image/svg+xml</dc:format>
        <dc:type
           rdf:resource="http://purl.org/dc/dcmitype/StillImage" />
        <dc:title></dc:title>
      </cc:Work>
    </rdf:RDF>
  </metadata>
  <path
     id="path1131"
     d="M 6.8791667,0.79374998 V 7.6729167 c 0,0.4383812 -0.3553687,0.79375 -0.7937502,0.79375 H 2.3812499 C 1.9428685,8.4666667 1.5875,8.1112979 1.5875,7.6729167 V 0.79374998 C 1.5875,0.35536843 1.9428685,0 2.3812499,0 H 6.0854165 C 6.523798,0 6.8791667,0.35536843 6.8791667,0.79374998 Z m 1.5875,0.95911452 V 1.951302 A 0.09921875,0.09921875 0 0 1 8.3674477,2.050521 H 8.0697917 V 2.14974 a 0.09921875,0.09921875 0 0 1 -0.099219,0.099219 h -0.694531 v -0.79375 h 0.6945312 a 0.09921875,0.09921875 0 0 1 0.099219,0.099219 v 0.099219 h 0.2976562 a 0.09921875,0.09921875 0 0 1 0.099219,0.099219 z m 0,1.5875 V 3.538802 A 0.09921875,0.09921875 0 0 1 8.3674477,3.638021 H 8.0697917 V 3.73724 a 0.09921875,0.09921875 0 0 1 -0.099219,0.099219 h -0.694531 v -0.79375 h 0.6945312 a 0.09921875,0.09921875 0 0 1 0.099219,0.099219 v 0.099219 h 0.2976562 a 0.09921875,0.09921875 0 0 1 0.099219,0.099219 z m 0,1.5874999 v 0.1984375 a 0.09921875,0.09921875 0 0 1 -0.099219,0.099219 h -0.297656 v 0.099219 a 0.09921875,0.09921875 0 0 1 -0.099219,0.099219 h -0.694531 v -0.79375 h 0.6945312 a 0.09921875,0.09921875 0 0 1 0.099219,0.099219 v 0.099219 h 0.2976562 a 0.09921875,0.09921875 0 0 1 0.099219,0.099219 z m 0,1.5874998 v 0.1984375 a 0.09921875,0.09921875 0 0 1 -0.099219,0.099219 h -0.297656 v 0.099219 A 0.09921875,0.09921875 0 0 1 7.9705729,7.011458 H 7.2760417 V 6.2177082 h 0.6945312 a 0.09921875,0.09921875 0 0 1 0.099219,0.099219 v 0.099219 h 0.2976562 a 0.09921875,0.09921875 0 0 1 0.099219,0.099219 z M 0.49609374,6.2177082 H 1.190625 V 7.011458 H 0.49609374 A 0.09921875,0.09921875 0 0 1 0.39687499,6.9122392 V 6.8130205 H 0.09921875 A 0.09921875,0.09921875 0 0 1 0,6.7138017 V 6.5153642 a 0.09921875,0.09921875 0 0 1 0.09921875,-0.099219 h 0.29765624 v -0.099219 a 0.09921875,0.09921875 0 0 1 0.0992188,-0.099219 z m 0,-1.5875 H 1.190625 v 0.79375 H 0.49609374 A 0.09921875,0.09921875 0 0 1 0.39687499,5.3247394 V 5.2255207 H 0.09921875 A 0.09921875,0.09921875 0 0 1 0,5.1263019 V 4.9278644 a 0.09921875,0.09921875 0 0 1 0.09921875,-0.099219 h 0.29765624 v -0.099219 a 0.09921875,0.09921875 0 0 1 0.0992188,-0.099218 z m 0,-1.5875 H 1.190625 v 0.79375 H 0.49609374 A 0.09921875,0.09921875 0 0 1 0.39687499,3.7372395 V 3.6380207 H 0.09921875 A 0.09921875,0.09921875 0 0 1 0,3.538802 V 3.3403645 A 0.09921875,0.09921875 0 0 1 0.09921875,3.2411457 H 0.39687499 V 3.141927 a 0.09921875,0.09921875 0 0 1 0.0992188,-0.099219 z m 0,-1.5874999 H 1.190625 v 0.79375 H 0.49609374 A 0.09921875,0.09921875 0 0 1 0.39687499,2.1497395 V 2.0505208 H 0.09921875 A 0.09921875,0.09921875 0 0 1 0,1.951302 V 1.7528645 A 0.09921875,0.09921875 0 0 1 0.09921875,1.6536458 H 0.39687499 V 1.554427 a 0.09921875,0.09921875 0 0 1 0.0992188,-0.099219 z"
     inkscape:connector-curvature="0"
     style="stroke-width:0.01653646;fill:#e3e3e3" />
</svg>
