<svg id="Calque_1" data-name="Calque 1" xmlns="http://www.w3.org/2000/svg" viewBox="0 0 32 32"><defs><style>.cls-1{fill:#e3e3e3;}</style></defs><title>moveanchor_l</title><path class="cls-1" d="M15.84,10.15A6.16,6.16,0,1,0,22,16.31,6.16,6.16,0,0,0,15.84,10.15Zm0,11.32A5.16,5.16,0,1,1,21,16.31,5.16,5.16,0,0,1,15.84,21.47Z"/><circle class="cls-1" cx="15.84" cy="16.31" r="3.16"/><path class="cls-1" d="M11.48,9.94a.35.35,0,0,0,.24.1.37.37,0,0,0,.24-.1l3.17-3.17V9.54a5.63,5.63,0,0,1,.71,0,6.88,6.88,0,0,1,1.29.13V6.88l3.06,3.06a.34.34,0,0,0,.48,0l.52-.52a.35.35,0,0,0,.11-.24.36.36,0,0,0-.11-.25L16.32,4.06A.35.35,0,0,0,16.08,4a.36.36,0,0,0-.25.11L11,8.93a.36.36,0,0,0-.11.25.35.35,0,0,0,.11.24Z"/><path class="cls-1" d="M6.31,17.5H9.14A6.67,6.67,0,0,1,9,16.31a7.34,7.34,0,0,1,.05-.81H6.43l3.06-3.06a.35.35,0,0,0,.1-.24.39.39,0,0,0-.1-.24L9,11.44a.35.35,0,0,0-.24-.1.37.37,0,0,0-.24.1L3.6,16.32a.35.35,0,0,0-.1.24.37.37,0,0,0,.1.24l4.88,4.88a.37.37,0,0,0,.24.1.35.35,0,0,0,.24-.1l.53-.53a.33.33,0,0,0,.1-.24.39.39,0,0,0-.1-.24Z"/><path class="cls-1" d="M28.56,16.3l-4.89-4.89a.34.34,0,0,0-.24-.11.32.32,0,0,0-.24.11l-.53.52a.35.35,0,0,0,0,.49l3.09,3.08H22.6a7.34,7.34,0,0,1,0,.81,6.67,6.67,0,0,1-.11,1.19h3.29l-3.17,3.17a.34.34,0,0,0,0,.48l.53.52a.32.32,0,0,0,.24.11.34.34,0,0,0,.24-.11l4.89-4.89a.36.36,0,0,0,.11-.24A.38.38,0,0,0,28.56,16.3Z"/><path class="cls-1" d="M20.7,23.11a.34.34,0,0,0-.48,0L17.13,26.2V23a6.88,6.88,0,0,1-1.29.12c-.24,0-.47,0-.71,0v3.19L12,23.11a.39.39,0,0,0-.24-.1.37.37,0,0,0-.25.1l-.52.53a.32.32,0,0,0,0,.48L15.85,29a.34.34,0,0,0,.24.11.32.32,0,0,0,.24-.11l4.9-4.89a.34.34,0,0,0,0-.48Z"/></svg>