<?xml version="1.0" encoding="UTF-8" standalone="no"?>
<!-- Created with Inkscape (http://www.inkscape.org/) -->

<svg
   xmlns:dc="http://purl.org/dc/elements/1.1/"
   xmlns:cc="http://creativecommons.org/ns#"
   xmlns:rdf="http://www.w3.org/1999/02/22-rdf-syntax-ns#"
   xmlns:svg="http://www.w3.org/2000/svg"
   xmlns="http://www.w3.org/2000/svg"
   xmlns:sodipodi="http://sodipodi.sourceforge.net/DTD/sodipodi-0.dtd"
   xmlns:inkscape="http://www.inkscape.org/namespaces/inkscape"
   width="32"
   height="32"
   viewBox="0 0 8.4666666 8.4666666"
   version="1.1"
   id="svg8"
   inkscape:version="0.92.5 (2060ec1f9f, 2020-04-08)"
   sodipodi:docname="music_sl.svg">
  <defs
     id="defs2">
    <style
       id="style1399">.cls-1{fill:#e3e3e3;}</style>
  </defs>
  <sodipodi:namedview
     id="base"
     pagecolor="#ffffff"
     bordercolor="#666666"
     borderopacity="1.0"
     inkscape:pageopacity="0.0"
     inkscape:pageshadow="2"
     inkscape:zoom="16"
     inkscape:cx="4.2687859"
     inkscape:cy="12.658028"
     inkscape:document-units="mm"
     inkscape:current-layer="svg8"
     showgrid="false"
     units="px"
     inkscape:window-width="1920"
     inkscape:window-height="1043"
     inkscape:window-x="0"
     inkscape:window-y="120"
     inkscape:window-maximized="1">
    <sodipodi:guide
       position="8.4666666,0"
       orientation="-32,0"
       id="guide854"
       inkscape:locked="false" />
    <sodipodi:guide
       position="8.4666666,8.4666666"
       orientation="0,-32"
       id="guide856"
       inkscape:locked="false" />
    <sodipodi:guide
       position="0,8.4666814"
       orientation="32,0"
       id="guide858"
       inkscape:locked="false" />
  </sodipodi:namedview>
  <metadata
     id="metadata5">
    <rdf:RDF>
      <cc:Work
         rdf:about="">
        <dc:format>image/svg+xml</dc:format>
        <dc:type
           rdf:resource="http://purl.org/dc/dcmitype/StillImage" />
        <dc:title></dc:title>
      </cc:Work>
    </rdf:RDF>
  </metadata>
  <path
     id="path1173"
     d="M 7.7788392,0.02647926 2.4987681,1.5857317 A 0.52805659,0.52805659 0 0 0 2.1289635,2.0892003 V 6.4029282 A 2.2937458,2.2937458 0 0 0 1.6009069,6.3382408 c -0.87459374,0 -1.58416981,0.4729411 -1.58416981,1.0561133 0,0.5831724 0.70957607,1.0561135 1.58416981,1.0561135 0.8745938,0 1.5841696,-0.4729411 1.5841696,-1.0561135 V 3.5382209 L 7.4095292,2.3005881 V 5.3469796 A 2.2838449,2.2838449 0 0 0 6.8814731,5.2821279 c -0.8745939,0 -1.5841701,0.4729407 -1.5841701,1.0561129 0,0.5831721 0.7095762,1.0561133 1.5841701,1.0561133 0.8745933,0 1.5841698,-0.4727758 1.5841698,-1.0561133 V 0.52961833 A 0.52805659,0.52805659 0 0 0 7.7788392,0.02647926 Z"
     inkscape:connector-curvature="0"
     style="stroke-width:0.01650177;fill:#e3e3e3;fill-opacity:1" />
</svg>
