<?xml version="1.0" encoding="UTF-8" standalone="no"?>
<!-- Created with Inkscape (http://www.inkscape.org/) -->

<svg
   xmlns:dc="http://purl.org/dc/elements/1.1/"
   xmlns:cc="http://creativecommons.org/ns#"
   xmlns:rdf="http://www.w3.org/1999/02/22-rdf-syntax-ns#"
   xmlns:svg="http://www.w3.org/2000/svg"
   xmlns="http://www.w3.org/2000/svg"
   xmlns:sodipodi="http://sodipodi.sourceforge.net/DTD/sodipodi-0.dtd"
   xmlns:inkscape="http://www.inkscape.org/namespaces/inkscape"
   width="32"
   height="32"
   viewBox="0 0 8.4666666 8.4666666"
   version="1.1"
   id="svg8"
   inkscape:version="0.92.5 (2060ec1f9f, 2020-04-08)"
   sodipodi:docname="new_bl.svg">
  <defs
     id="defs2" />
  <sodipodi:namedview
     id="base"
     pagecolor="#ffffff"
     bordercolor="#666666"
     borderopacity="1.0"
     inkscape:pageopacity="0.0"
     inkscape:pageshadow="2"
     inkscape:zoom="2.8284271"
     inkscape:cx="-65.922916"
     inkscape:cy="1.7959909"
     inkscape:document-units="mm"
     inkscape:current-layer="layer1"
     showgrid="false"
     units="px"
     inkscape:window-width="1920"
     inkscape:window-height="1043"
     inkscape:window-x="0"
     inkscape:window-y="120"
     inkscape:window-maximized="1">
    <sodipodi:guide
       position="8.4666666,0"
       orientation="-32,0"
       id="guide854"
       inkscape:locked="false" />
    <sodipodi:guide
       position="8.4666666,8.4666666"
       orientation="0,-32"
       id="guide856"
       inkscape:locked="false" />
    <sodipodi:guide
       position="0,8.4666814"
       orientation="32,0"
       id="guide858"
       inkscape:locked="false" />
  </sodipodi:namedview>
  <metadata
     id="metadata5">
    <rdf:RDF>
      <cc:Work
         rdf:about="">
        <dc:format>image/svg+xml</dc:format>
        <dc:type
           rdf:resource="http://purl.org/dc/dcmitype/StillImage" />
        <dc:title></dc:title>
      </cc:Work>
    </rdf:RDF>
  </metadata>
  <g
     inkscape:label="Layer 1"
     inkscape:groupmode="layer"
     id="layer1"
     transform="translate(0,-288.53334)">
    <path
       style="fill:#8ad891;fill-opacity:1;stroke:none;stroke-width:5.91496086;stroke-miterlimit:4;stroke-dasharray:none;stroke-opacity:1"
       d="M 16,0 A 15.999999,15.999999 0 0 0 0,16 15.999999,15.999999 0 0 0 16,32 15.999999,15.999999 0 0 0 32,16 15.999999,15.999999 0 0 0 16,0 Z m -0.710938,6.0878906 h 1.517579 c 0.524297,0 0.946772,0.4309333 0.935547,0.9550782 l -0.134766,6.3203122 5.404297,-3.277343 c 0.448322,-0.2716351 1.032792,-0.1220039 1.294922,0.332031 l 0.757812,1.314453 c 0.262167,0.453997 0.100168,1.034637 -0.359375,1.287109 l -5.539062,3.042969 5.539062,3.042969 c 0.459542,0.252359 0.621504,0.833074 0.359375,1.287109 l -0.757812,1.314453 c -0.26213,0.454299 -0.846639,0.60378 -1.294922,0.332031 l -5.404297,-3.277343 0.134766,6.320312 c 0.01122,0.524145 -0.411289,0.955078 -0.935547,0.955078 h -1.517579 c -0.524258,0 -0.946772,-0.430933 -0.935546,-0.955078 l 0.136718,-6.320312 -5.4062496,3.277343 C 8.635701,22.310697 8.0511916,22.161066 7.7890625,21.707031 L 7.03125,20.392578 C 6.7690816,19.938581 6.9310817,19.357941 7.390625,19.105469 L 12.931641,16.0625 7.390625,13.019531 C 6.9310874,12.76721 6.7691209,12.186457 7.03125,11.732422 L 7.7890625,10.417969 C 8.0511909,9.9636695 8.635701,9.8141895 9.0839844,10.085938 l 5.4062496,3.277343 -0.136718,-6.3203122 c -0.01126,-0.5241449 0.411288,-0.9550782 0.935546,-0.9550782 z"
       transform="matrix(0.26458333,0,0,0.26458333,0,288.53334)"
       id="path896"
       inkscape:connector-curvature="0" />
  </g>
</svg>
