<svg id="Calque_1" data-name="Calque 1" xmlns="http://www.w3.org/2000/svg" viewBox="0 0 32 32"><defs><style>.cls-1{fill:#e3e3e3;}.cls-2{fill:none;stroke:#e3e3e3;stroke-linecap:round;stroke-miterlimit:10;stroke-width:2px;}</style></defs><title>opacity_l</title><path class="cls-1" d="M21.44,25.07a10.57,10.57,0,0,0,3.8-3.8Z"/><path class="cls-1" d="M7.09,10.73l3.81-3.8A10.52,10.52,0,0,0,7.09,10.73Z"/><path class="cls-1" d="M10.9,6.93l-3.81,3.8A10.77,10.77,0,0,0,6.1,13l7.08-7.07A10.09,10.09,0,0,0,10.9,6.93Z"/><path class="cls-1" d="M16.86,5.53,5.7,16.69a10.63,10.63,0,0,0,.14,1.15L18,5.67A10.94,10.94,0,0,0,16.86,5.53Z"/><path class="cls-1" d="M20.51,6.45,6.61,20.34c.14.29.28.58.44.86L21.36,6.88C21.09,6.73,20.8,6.58,20.51,6.45Z"/><path class="cls-1" d="M23.25,8.27,8.43,23.09c.21.22.43.44.65.64L23.9,8.91C23.69,8.69,23.48,8.47,23.25,8.27Z"/><path class="cls-1" d="M25.28,10.8,11,25.12c.28.15.56.3.86.43L25.72,11.66C25.59,11.37,25.44,11.08,25.28,10.8Z"/><path class="cls-1" d="M26.49,14.16,14.32,26.33a11.13,11.13,0,0,0,1.16.14L26.63,15.31A8.6,8.6,0,0,0,26.49,14.16Z"/><path class="cls-1" d="M26.23,19l-7.08,7.07a10.36,10.36,0,0,0,2.29-1l3.8-3.8A10.77,10.77,0,0,0,26.23,19Z"/><circle class="cls-2" cx="16.17" cy="16" r="10.5"/></svg>