<svg id="Calque_1" data-name="Calque 1" xmlns="http://www.w3.org/2000/svg" viewBox="0 0 32 32"><defs><style>.cls-1{fill:none;stroke:#e3e3e3;stroke-miterlimit:10;stroke-width:2px;}.cls-2{fill:#e3e3e3;}</style></defs><title>orientationconstraint_l</title><path class="cls-1" d="M9.74,18.18,6.4,19.57a2.5,2.5,0,0,0-1.35,3.27l1.54,3.67a2.49,2.49,0,0,0,3.26,1.35l3.67-1.54a2.45,2.45,0,0,0,1.26-1.17"/><path class="cls-2" d="M27.89,9.66,26.72,5.85A2.52,2.52,0,0,0,23.59,4.2l-3.8,1.18a2.43,2.43,0,0,0-1.14.75A9.75,9.75,0,0,1,25.57,13l.67-.21A2.49,2.49,0,0,0,27.89,9.66Z"/><path class="cls-2" d="M8.47,14.57a.33.33,0,0,1-.27-.11.36.36,0,0,1-.11-.26V7.9a.38.38,0,0,1,.38-.38H10a.4.4,0,0,1,.27.11.37.37,0,0,1,.11.27v2.45A7.69,7.69,0,0,1,13,8.45a7.88,7.88,0,0,1,3.22-.68,7.52,7.52,0,0,1,3.93,1.06,7.66,7.66,0,0,1,2.8,2.85,7.77,7.77,0,0,1,1,3.92,7.5,7.5,0,0,1-1.05,3.9,8,8,0,0,1-2.84,2.84,7.55,7.55,0,0,1-3.92,1.05,7.77,7.77,0,0,1-2.83-.53,8,8,0,0,1-2.4-1.48.42.42,0,0,1-.12-.29.47.47,0,0,1,.09-.28L12,19.74a.5.5,0,0,1,.27-.1.45.45,0,0,1,.27.1,5.18,5.18,0,0,0,1.67,1,5.52,5.52,0,0,0,2,.37,5.4,5.4,0,0,0,2.79-.75A5.54,5.54,0,0,0,16.15,10a5.33,5.33,0,0,0-2.52.61,5.88,5.88,0,0,0-2,1.66h3.09a.38.38,0,0,1,.37.37V14.2a.38.38,0,0,1-.37.37Z"/></svg>