<svg id="Calque_1" data-name="Calque 1" xmlns="http://www.w3.org/2000/svg" viewBox="0 0 32 32"><defs><style>.cls-1{fill:#e3e3e3;}</style></defs><title>parentcomp_l</title><path class="cls-1" d="M18.63,10.77h6A4.37,4.37,0,0,1,29,15.14v6.51H17.05V15.88a3.31,3.31,0,0,0-2.11-3.08A4.37,4.37,0,0,1,18.63,10.77Z"/><path class="cls-1" d="M21.62,2.11a3.68,3.68,0,1,1-3.68,3.67A3.68,3.68,0,0,1,21.62,2.11Z"/><path class="cls-1" d="M7.37,13.49h6.37a2.37,2.37,0,0,1,2.37,2.37v8.56H5V15.86A2.37,2.37,0,0,1,7.37,13.49Z"/><path class="cls-1" d="M10.53,4.77A3.54,3.54,0,1,1,7,8.3,3.54,3.54,0,0,1,10.53,4.77Z"/><path class="cls-1" d="M25.75,23.81H18.08l-.09.45a3.28,3.28,0,0,1-3.21,2.65h-9a3.66,3.66,0,0,1-2.36-.86,1.86,1.86,0,0,0,0,.34v.84a2.59,2.59,0,0,0,2.58,2.58H25.75a2.58,2.58,0,0,0,2.58-2.58v-.84A2.57,2.57,0,0,0,25.75,23.81Z"/></svg>