<svg id="Calque_1" data-name="Calque 1" xmlns="http://www.w3.org/2000/svg" viewBox="0 0 32 32"><defs><style>.cls-1{fill:#e3e3e3;}</style></defs><title>parent_l</title><path class="cls-1" d="M14.37,14.43h-6A4.37,4.37,0,0,0,4,18.8v6.51H16V19.54a3.31,3.31,0,0,1,2.11-3.08A4.37,4.37,0,0,0,14.37,14.43Z"/><path class="cls-1" d="M11.38,5.76a3.68,3.68,0,1,0,3.68,3.68A3.68,3.68,0,0,0,11.38,5.76Z"/><path class="cls-1" d="M25.63,17.15H19.26a2.37,2.37,0,0,0-2.37,2.37v5.79H28V19.52A2.37,2.37,0,0,0,25.63,17.15Z"/><path class="cls-1" d="M22.47,8.43A3.54,3.54,0,1,0,26,12,3.54,3.54,0,0,0,22.47,8.43Z"/></svg>