<?xml version="1.0" encoding="UTF-8" standalone="no"?>
<svg
   xmlns:dc="http://purl.org/dc/elements/1.1/"
   xmlns:cc="http://creativecommons.org/ns#"
   xmlns:rdf="http://www.w3.org/1999/02/22-rdf-syntax-ns#"
   xmlns:svg="http://www.w3.org/2000/svg"
   xmlns="http://www.w3.org/2000/svg"
   xmlns:sodipodi="http://sodipodi.sourceforge.net/DTD/sodipodi-0.dtd"
   xmlns:inkscape="http://www.inkscape.org/namespaces/inkscape"
   id="Calque_1"
   data-name="Calque 1"
   viewBox="0 0 32 32"
   version="1.1"
   sodipodi:docname="paw-digitigrade_sl.svg"
   inkscape:version="0.92.5 (2060ec1f9f, 2020-04-08)">
  <metadata
     id="metadata31">
    <rdf:RDF>
      <cc:Work
         rdf:about="">
        <dc:format>image/svg+xml</dc:format>
        <dc:type
           rdf:resource="http://purl.org/dc/dcmitype/StillImage" />
        <dc:title>body_l</dc:title>
      </cc:Work>
    </rdf:RDF>
  </metadata>
  <sodipodi:namedview
     pagecolor="#ffffff"
     bordercolor="#666666"
     borderopacity="1"
     objecttolerance="10"
     gridtolerance="10"
     guidetolerance="10"
     inkscape:pageopacity="0"
     inkscape:pageshadow="2"
     inkscape:window-width="1848"
     inkscape:window-height="1136"
     id="namedview29"
     showgrid="false"
     inkscape:snap-bbox="true"
     inkscape:bbox-paths="true"
     inkscape:bbox-nodes="true"
     inkscape:snap-bbox-edge-midpoints="true"
     inkscape:snap-bbox-midpoints="true"
     inkscape:snap-nodes="false"
     inkscape:zoom="10.429825"
     inkscape:cx="1.9642992"
     inkscape:cy="7.6408343"
     inkscape:window-x="0"
     inkscape:window-y="27"
     inkscape:window-maximized="1"
     inkscape:current-layer="g1118" />
  <defs
     id="defs4">
    <style
       id="style2">.cls-1{fill:#e3e3e3;}</style>
    <style
       id="style857">.cls-1{fill:#e3e3e3;}</style>
    <style
       id="style990">.cls-1{fill:#e3e3e3;}</style>
    <style
       id="style1091">.cls-1{fill:#e3e3e3;}</style>
  </defs>
  <title
     id="title6">body_l</title>
  <g
     id="g1118"
     transform="matrix(1.1404506,0,0,1.1404506,-2.3537809,-2.1777348)">
    <path
       id="path1097"
       d="m 7.5260253,12.085806 -0.2904531,3.536407 c 0,0 -4.0403262,5.347186 0,7 2.8494608,0.880577 5.5205768,-1.790539 4.6399998,-4.64 -0.83,-2.81 -2.6499998,-2.81 -2.6499998,-2.81 z"
       class="cls-1"
       inkscape:connector-curvature="0"
       style="fill:#e3e3e3"
       sodipodi:nodetypes="cccccc" />
    <path
       id="path1099"
       d="m 13.928872,1.9982501 -1.64,3.15 c 0,0 -4.4100004,1.63 -3.5000004,5.2999999 0.67,2.65 3.0000004,3.89 5.0000004,2.65 2.65,-1.66 3.31,-5.4699999 1,-7.4599999 z"
       class="cls-1"
       inkscape:connector-curvature="0"
       style="fill:#e3e3e3" />
    <path
       id="path1101"
       d="m 19.72,2 -0.83,3.64 c 0,0 -3.17,4.9 0.5,8 A 3.17,3.17 0 0 0 24.52,10.5 7,7 0 0 0 21.38,5.69 Z"
       class="cls-1"
       inkscape:connector-curvature="0"
       style="fill:#e3e3e3" />
    <path
       id="path1103"
       d="m 25.810921,13.193395 0.613593,2.97696 c 0,0 1.5249,2.840049 1.344217,4.345448 -0.146539,1.220923 -0.750928,2.710903 -1.893217,3.166209 -1.131259,0.450909 -2.698435,-0.08521 -3.517833,-0.986129 -0.915051,-1.006089 -1.168784,-2.729555 -0.724825,-4.015025 0.410976,-1.189971 2.821658,-2.510503 2.821658,-2.510503 z"
       class="cls-1"
       inkscape:connector-curvature="0"
       style="fill:#e3e3e3"
       sodipodi:nodetypes="ccaaaacc" />
    <path
       id="path1105"
       d="m 19.396017,23.746195 c 1.128899,1.106755 4.248636,1.441537 3.72652,2.933755 -1.575321,4.5023 -12.765766,4.424042 -14.3095465,-0.08917 -0.6177408,-1.805953 3.0242575,-2.330156 4.5045255,-3.535093 1.102118,-0.897124 1.842719,-2.879732 3.257862,-2.74987 1.476743,0.135513 1.761702,2.402213 2.820639,3.440378 z"
       class="cls-1"
       inkscape:connector-curvature="0"
       style="fill:#e3e3e3"
       sodipodi:nodetypes="aaaaaa" />
  </g>
</svg>
