<?xml version="1.0" encoding="UTF-8" standalone="no"?>
<!-- Created with Inkscape (http://www.inkscape.org/) -->

<svg
   xmlns:osb="http://www.openswatchbook.org/uri/2009/osb"
   xmlns:dc="http://purl.org/dc/elements/1.1/"
   xmlns:cc="http://creativecommons.org/ns#"
   xmlns:rdf="http://www.w3.org/1999/02/22-rdf-syntax-ns#"
   xmlns:svg="http://www.w3.org/2000/svg"
   xmlns="http://www.w3.org/2000/svg"
   xmlns:sodipodi="http://sodipodi.sourceforge.net/DTD/sodipodi-0.dtd"
   xmlns:inkscape="http://www.inkscape.org/namespaces/inkscape"
   width="32"
   height="32"
   viewBox="0 0 8.4666666 8.4666666"
   version="1.1"
   id="svg8"
   inkscape:version="0.92.5 (2060ec1f9f, 2020-04-08)"
   sodipodi:docname="phone-settings_sl.svg">
  <defs
     id="defs2">
    <linearGradient
       id="Neutral__dark_"
       osb:paint="solid">
      <stop
         style="stop-color:#232323;stop-opacity:1;"
         offset="0"
         id="stop832" />
    </linearGradient>
    <linearGradient
       id="linearGradient828"
       osb:paint="solid">
      <stop
         style="stop-color:#232323;stop-opacity:1;"
         offset="0"
         id="stop826" />
    </linearGradient>
    <linearGradient
       id="linearGradient1363"
       osb:paint="solid">
      <stop
         style="stop-color:#84b330;stop-opacity:1;"
         offset="0"
         id="stop1361" />
    </linearGradient>
    <style
       id="style1399">.cls-1{fill:#e3e3e3;}</style>
    <style
       id="style857">.cls-1{fill:#e52120;}.cls-1,.cls-2,.cls-3,.cls-4,.cls-5{stroke:#000;stroke-miterlimit:10;stroke-width:1.2px;}.cls-2{fill:#6dbc88;}.cls-3{fill:#701034;}.cls-4{fill:#51aae0;}.cls-5{fill:none;}</style>
    <style
       id="style857-2">.cls-1{fill:#e52120;}.cls-1,.cls-2,.cls-3,.cls-4,.cls-5{stroke:#000;stroke-miterlimit:10;stroke-width:1.2px;}.cls-2{fill:#6dbc88;}.cls-3{fill:#701034;}.cls-4{fill:#51aae0;}.cls-5{fill:none;}</style>
    <style
       id="style1399-7">.cls-1{fill:#e3e3e3;}</style>
    <style
       id="style1399-2">.cls-1{fill:#e3e3e3;}</style>
    <style
       id="style1399-8">.cls-1{fill:#e3e3e3;}</style>
    <style
       id="style1399-9">.cls-1{fill:#e3e3e3;}</style>
  </defs>
  <sodipodi:namedview
     id="base"
     pagecolor="#ffffff"
     bordercolor="#666666"
     borderopacity="1.0"
     inkscape:pageopacity="0.0"
     inkscape:pageshadow="2"
     inkscape:zoom="8"
     inkscape:cx="2.4776689"
     inkscape:cy="9.7272685"
     inkscape:document-units="mm"
     inkscape:current-layer="layer1"
     showgrid="false"
     units="px"
     inkscape:window-width="1196"
     inkscape:window-height="1136"
     inkscape:window-x="0"
     inkscape:window-y="27"
     inkscape:window-maximized="0"
     inkscape:snap-bbox="true"
     inkscape:bbox-paths="true"
     inkscape:bbox-nodes="true"
     inkscape:snap-page="true">
    <sodipodi:guide
       position="8.4666666,0"
       orientation="-32,0"
       id="guide854"
       inkscape:locked="false" />
    <sodipodi:guide
       position="8.4666666,8.4666666"
       orientation="0,-32"
       id="guide856"
       inkscape:locked="false" />
    <sodipodi:guide
       position="0,8.4666814"
       orientation="32,0"
       id="guide858"
       inkscape:locked="false" />
  </sodipodi:namedview>
  <metadata
     id="metadata5">
    <rdf:RDF>
      <cc:Work
         rdf:about="">
        <dc:format>image/svg+xml</dc:format>
        <dc:type
           rdf:resource="http://purl.org/dc/dcmitype/StillImage" />
        <dc:title></dc:title>
      </cc:Work>
    </rdf:RDF>
  </metadata>
  <g
     inkscape:label="Layer 1"
     inkscape:groupmode="layer"
     id="layer1"
     transform="translate(0,-288.53334)">
    <path
       id="path921"
       d="m 1.9801661,294.52253 1.0870472,-1.38145 a 0.34622782,0.34622782 0 0 0 0.00838,-0.41594 L 2.416365,291.80771 a 5.3472002,5.3472002 0 0 1 3.1306514,-1.80748 l 0.4648889,1.02963 a 0.34536226,0.34536226 0 0 0 0.3644073,0.20069 l 1.7398918,-0.25067 a 0.34853601,0.34853601 0 0 0 0.2963671,-0.3313 l 0.053885,-1.53883 a 0.34622782,0.34622782 0 0 0 -0.2564787,-0.34651 c -3.5742203,-0.9577 -7.24190481,1.16455 -8.19812288,4.7332 a 0.34622782,0.34622782 0 0 0 0.17181238,0.39552 l 1.3595962,0.72274 a 0.3504114,0.3504114 0 0 0 0.4368994,-0.0922 z"
       inkscape:connector-curvature="0"
       style="fill:#83d3f6;stroke-width:0.01442615" />
    <g
       transform="matrix(-0.53102861,0,0,0.53102861,8.4647463,139.28575)"
       id="layer1-0"
       inkscape:label="Layer 1"
       style="fill:#83d3f6">
      <path
         sodipodi:nodetypes="cccccscccscccccc"
         style="fill:#83d3f6;fill-opacity:1;stroke-width:0.01652861"
         inkscape:connector-curvature="0"
         d="m 8.3884942,290.33828 c -0.037027,-0.14925 -0.2237978,-0.19984 -0.3325558,-0.0911 l -1.2290673,1.22907 -1.1219614,-0.18694 -0.1869387,-1.12196 1.2290667,-1.22907 c 0.1094199,-0.10942 0.056694,-0.29586 -0.093552,-0.33322 -0.7831249,-0.19404 -1.6454223,0.015 -2.2574765,0.62694 -0.6551939,0.65519 -0.835521,1.60492 -0.562799,2.433 l -3.52703918,3.52704 c -0.41304988,0.41305 -0.41304988,1.08279 0,1.49585 0.41304981,0.41304 1.08278888,0.41304 1.49583868,0 l 3.5240641,-3.52408 c 0.8284137,0.2762 1.7763293,0.0939 2.4358203,-0.5656 0.6127157,-0.61272 0.8214714,-1.47634 0.6265999,-2.25995 z"
         id="path2345" />
    </g>
  </g>
  <style
     id="style815"
     type="text/css">
	.st0{fill:#00005B;}
	.st1{fill:#9999FF;}
</style>
  <style
     id="style815-2"
     type="text/css">
	.st0{fill:#00005B;}
	.st1{fill:#9999FF;}
</style>
</svg>
