<?xml version="1.0" encoding="UTF-8" standalone="no"?>
<!-- Created with Inkscape (http://www.inkscape.org/) -->

<svg
   xmlns:osb="http://www.openswatchbook.org/uri/2009/osb"
   xmlns:dc="http://purl.org/dc/elements/1.1/"
   xmlns:cc="http://creativecommons.org/ns#"
   xmlns:rdf="http://www.w3.org/1999/02/22-rdf-syntax-ns#"
   xmlns:svg="http://www.w3.org/2000/svg"
   xmlns="http://www.w3.org/2000/svg"
   xmlns:sodipodi="http://sodipodi.sourceforge.net/DTD/sodipodi-0.dtd"
   xmlns:inkscape="http://www.inkscape.org/namespaces/inkscape"
   width="32"
   height="32"
   viewBox="0 0 8.4666666 8.4666666"
   version="1.1"
   id="svg8"
   inkscape:version="0.92.5 (2060ec1f9f, 2020-04-08)"
   sodipodi:docname="phone-settings_bl.svg">
  <defs
     id="defs2">
    <linearGradient
       id="Neutral__dark_"
       osb:paint="solid">
      <stop
         style="stop-color:#232323;stop-opacity:1;"
         offset="0"
         id="stop832" />
    </linearGradient>
    <linearGradient
       id="linearGradient828"
       osb:paint="solid">
      <stop
         style="stop-color:#232323;stop-opacity:1;"
         offset="0"
         id="stop826" />
    </linearGradient>
    <linearGradient
       id="linearGradient1363"
       osb:paint="solid">
      <stop
         style="stop-color:#84b330;stop-opacity:1;"
         offset="0"
         id="stop1361" />
    </linearGradient>
    <style
       id="style1399">.cls-1{fill:#e3e3e3;}</style>
    <style
       id="style857">.cls-1{fill:#e52120;}.cls-1,.cls-2,.cls-3,.cls-4,.cls-5{stroke:#000;stroke-miterlimit:10;stroke-width:1.2px;}.cls-2{fill:#6dbc88;}.cls-3{fill:#701034;}.cls-4{fill:#51aae0;}.cls-5{fill:none;}</style>
    <style
       id="style857-2">.cls-1{fill:#e52120;}.cls-1,.cls-2,.cls-3,.cls-4,.cls-5{stroke:#000;stroke-miterlimit:10;stroke-width:1.2px;}.cls-2{fill:#6dbc88;}.cls-3{fill:#701034;}.cls-4{fill:#51aae0;}.cls-5{fill:none;}</style>
    <style
       id="style1399-7">.cls-1{fill:#e3e3e3;}</style>
    <style
       id="style1399-2">.cls-1{fill:#e3e3e3;}</style>
    <style
       id="style1399-8">.cls-1{fill:#e3e3e3;}</style>
    <style
       id="style1399-9">.cls-1{fill:#e3e3e3;}</style>
  </defs>
  <sodipodi:namedview
     id="base"
     pagecolor="#ffffff"
     bordercolor="#666666"
     borderopacity="1.0"
     inkscape:pageopacity="0.0"
     inkscape:pageshadow="2"
     inkscape:zoom="8"
     inkscape:cx="2.4776689"
     inkscape:cy="9.7272685"
     inkscape:document-units="mm"
     inkscape:current-layer="layer1"
     showgrid="false"
     units="px"
     inkscape:window-width="1196"
     inkscape:window-height="1136"
     inkscape:window-x="0"
     inkscape:window-y="27"
     inkscape:window-maximized="0"
     inkscape:snap-bbox="true"
     inkscape:bbox-paths="true"
     inkscape:bbox-nodes="true"
     inkscape:snap-page="true">
    <sodipodi:guide
       position="8.4666666,0"
       orientation="-32,0"
       id="guide854"
       inkscape:locked="false" />
    <sodipodi:guide
       position="8.4666666,8.4666666"
       orientation="0,-32"
       id="guide856"
       inkscape:locked="false" />
    <sodipodi:guide
       position="0,8.4666814"
       orientation="32,0"
       id="guide858"
       inkscape:locked="false" />
  </sodipodi:namedview>
  <metadata
     id="metadata5">
    <rdf:RDF>
      <cc:Work
         rdf:about="">
        <dc:format>image/svg+xml</dc:format>
        <dc:type
           rdf:resource="http://purl.org/dc/dcmitype/StillImage" />
        <dc:title></dc:title>
      </cc:Work>
    </rdf:RDF>
  </metadata>
  <g
     inkscape:label="Layer 1"
     inkscape:groupmode="layer"
     id="layer1"
     transform="translate(0,-288.53334)">
    <path
       id="path921"
       d="m 1.9801661,294.52253 1.0870472,-1.38145 a 0.34622782,0.34622782 0 0 0 0.00838,-0.41594 L 2.416365,291.80771 a 5.3472002,5.3472002 0 0 1 3.1306514,-1.80748 l 0.4648889,1.02963 a 0.34536226,0.34536226 0 0 0 0.3644073,0.20069 l 1.7398918,-0.25067 a 0.34853601,0.34853601 0 0 0 0.2963671,-0.3313 l 0.053885,-1.53883 a 0.34622782,0.34622782 0 0 0 -0.2564787,-0.34651 c -3.5742203,-0.9577 -7.24190481,1.16455 -8.19812288,4.7332 a 0.34622782,0.34622782 0 0 0 0.17181238,0.39552 l 1.3595962,0.72274 a 0.3504114,0.3504114 0 0 0 0.4368994,-0.0922 z"
       inkscape:connector-curvature="0"
       style="fill:#e3e3e3;stroke-width:0.01442615" />
    <g
       transform="matrix(-0.6015625,0,0,0.6015625,8.4666667,118.33594)"
       id="layer1-1"
       inkscape:label="Layer 1"
       style="fill:#83d3f6">
      <path
         inkscape:connector-curvature="0"
         id="path2396"
         transform="matrix(0.26458333,0,0,0.26458333,0,288.53334)"
         d="M 16,0 A 15.999999,15.999999 0 0 0 0,16 15.999999,15.999999 0 0 0 16,32 15.999999,15.999999 0 0 0 32,16 15.999999,15.999999 0 0 0 16,0 Z m 4.542969,6.0175781 c 0.452123,-0.00423 0.906241,0.046871 1.347656,0.15625 0.338755,0.084208 0.457639,0.50515 0.210937,0.7519531 l -2.771484,2.7714844 0.421875,2.5292964 2.529297,0.421876 2.771484,-2.7714849 c 0.24521,-0.244989 0.664565,-0.1312998 0.748047,0.2050779 0.439364,1.766778 -0.03066,3.714248 -1.412109,5.095703 -1.486909,1.486904 -3.62442,1.898068 -5.492188,1.275391 l -7.945312,7.945313 c -0.931275,0.931275 -2.4417718,0.931275 -3.373047,0 -0.9312748,-0.931314 -0.9312748,-2.441772 0,-3.373047 L 15.53125,13.074219 C 14.916363,11.207246 15.32356,9.0650812 16.800781,7.5878906 17.835749,6.5532733 19.1866,6.0302827 20.542969,6.0175781 Z"
         style="fill:#83d3f6;fill-opacity:1;stroke:none;stroke-width:5.91496086;stroke-miterlimit:4;stroke-dasharray:none;stroke-opacity:1" />
    </g>
  </g>
  <style
     id="style815"
     type="text/css">
	.st0{fill:#00005B;}
	.st1{fill:#9999FF;}
</style>
  <style
     id="style815-2"
     type="text/css">
	.st0{fill:#00005B;}
	.st1{fill:#9999FF;}
</style>
</svg>
