<svg id="Calque_1" data-name="Calque 1" xmlns="http://www.w3.org/2000/svg" viewBox="0 0 32 32"><defs><style>.cls-1{fill:#e3e3e3;}</style></defs><title>pickproperty_l</title><path class="cls-1" d="M19.7,19.87a3.16,3.16,0,0,1-2.25.93H16l-1.94,1a2,2,0,0,1-.9.21,2,2,0,0,1-1.41-.59l-.59-.59a2,2,0,0,1-.38-2.31l1-1.95V15.14a3.16,3.16,0,0,1,.93-2.24l.9-.9H5.33A3.33,3.33,0,0,0,2,15.33V26.67A3.33,3.33,0,0,0,5.33,30H16.67A3.33,3.33,0,0,0,20,26.67V19.58Z"/><path class="cls-1" d="M14.26,13.89,18.35,9.8,22.5,14,18.42,18a2.06,2.06,0,0,1-1.5.62H15.46l-1.81,1-1-1,1-1.82V15.38A2,2,0,0,1,14.26,13.89ZM28.31,4a3,3,0,0,1,.91,2.21,3,3,0,0,1-.91,2.2l-2.5,2.5.42.42a.75.75,0,0,1,.23.56.73.73,0,0,1-.23.55L24.9,13.76a.74.74,0,0,1-.55.22.75.75,0,0,1-.55-.22L18.55,8.5a.77.77,0,0,1,0-1.1l1.33-1.33a.75.75,0,0,1,.55-.23.76.76,0,0,1,.55.23l.42.42L23.9,4a3.13,3.13,0,0,1,4.41,0Z"/></svg>