<svg id="Calque_1" data-name="Calque 1" xmlns="http://www.w3.org/2000/svg" viewBox="0 0 32 32"><defs><style>.cls-1{fill:#e3e3e3;}</style></defs><title>picktexture_l</title><rect class="cls-1" x="2.5" y="13.13" width="3.08" height="3.08"/><rect class="cls-1" x="5.7" y="16.32" width="3.08" height="3.08"/><rect class="cls-1" x="8.89" y="13.13" width="3.08" height="3.08"/><rect class="cls-1" x="5.7" y="22.72" width="3.08" height="3.08"/><rect class="cls-1" x="12.09" y="22.72" width="3.08" height="3.08"/><rect class="cls-1" x="15.29" y="13.13" width="3.08" height="3.08"/><rect class="cls-1" x="2.5" y="19.52" width="3.08" height="3.08"/><rect class="cls-1" x="8.89" y="19.52" width="3.08" height="3.08"/><rect class="cls-1" x="15.29" y="21" width="3.08" height="1.61"/><rect class="cls-1" x="2.5" y="25.92" width="3.08" height="3.08"/><rect class="cls-1" x="8.89" y="25.92" width="3.08" height="3.08"/><rect class="cls-1" x="15.29" y="25.92" width="3.08" height="3.08"/><path class="cls-1" d="M14.26,13.89,18.35,9.8,22.5,14,18.42,18a2.06,2.06,0,0,1-1.5.62H15.46l-1.81,1-1-1,1-1.82V15.38A2,2,0,0,1,14.26,13.89ZM28.31,4a3,3,0,0,1,.91,2.21,3,3,0,0,1-.91,2.2l-2.5,2.5.42.42a.75.75,0,0,1,.23.56.73.73,0,0,1-.23.55L24.9,13.76a.74.74,0,0,1-.55.22.75.75,0,0,1-.55-.22L18.55,8.5a.77.77,0,0,1,0-1.1l1.33-1.33a.75.75,0,0,1,.55-.23.76.76,0,0,1,.55.23l.42.42L23.9,4a3.13,3.13,0,0,1,4.41,0Z"/><path class="cls-1" d="M17.31,20.62v7.19H3.69V14.19h8.15A4,4,0,0,1,12.41,13H2.5V29h16V20.35A4.22,4.22,0,0,1,17.31,20.62Z"/></svg>