<svg id="Calque_1" data-name="Calque 1" xmlns="http://www.w3.org/2000/svg" viewBox="0 0 32 32"><defs><style>.cls-1{fill:#e3e3e3;}</style></defs><title>pickpath_l</title><path class="cls-1" d="M12.56,11.21a5,5,0,0,1,.78,2.15,3.32,3.32,0,0,1,.38-.46L15,11.65a6.81,6.81,0,0,0-.73-1.52C10.76,4.72,4.09,6.37,1,8A1,1,0,0,0,2,9.76C2.28,9.6,9.19,6,12.56,11.21Z"/><path class="cls-1" d="M30.72,28.84c-.11,0-10.29,1.59-14.82-3.43A5.81,5.81,0,0,1,14.3,22h-.1a2,2,0,0,1-1.41-.59l-.51-.5a7.74,7.74,0,0,0,2.14,5.85c3.29,3.64,8.8,4.35,12.57,4.35a27,27,0,0,0,4-.28,1,1,0,0,0-.31-2Z"/><path class="cls-1" d="M16.38,14l3.79-3.78L24,14.09l-3.78,3.78a1.88,1.88,0,0,1-1.38.57H17.5l-1.69,1-1-1,1-1.68V15.41A1.88,1.88,0,0,1,16.38,14Zm13-9.15a2.78,2.78,0,0,1,.84,2,2.78,2.78,0,0,1-.84,2l-2.31,2.31.39.39a.72.72,0,0,1,0,1l-1.23,1.23a.72.72,0,0,1-1,0L20.35,9.05a.72.72,0,0,1,0-1L21.58,6.8a.72.72,0,0,1,1,0l.39.39L25.3,4.88a2.9,2.9,0,0,1,4.08,0Z"/></svg>