<?xml version="1.0" encoding="UTF-8" standalone="no"?>
<!-- Created with Inkscape (http://www.inkscape.org/) -->

<svg
   xmlns:dc="http://purl.org/dc/elements/1.1/"
   xmlns:cc="http://creativecommons.org/ns#"
   xmlns:rdf="http://www.w3.org/1999/02/22-rdf-syntax-ns#"
   xmlns:svg="http://www.w3.org/2000/svg"
   xmlns="http://www.w3.org/2000/svg"
   xmlns:sodipodi="http://sodipodi.sourceforge.net/DTD/sodipodi-0.dtd"
   xmlns:inkscape="http://www.inkscape.org/namespaces/inkscape"
   width="32"
   height="32"
   viewBox="0 0 8.4666666 8.4666666"
   version="1.1"
   id="svg8"
   inkscape:version="0.92.5 (2060ec1f9f, 2020-04-08)"
   sodipodi:docname="play-language-translation_bl.svg">
  <defs
     id="defs2">
    <style
       id="style1399">.cls-1{fill:#e3e3e3;}</style>
    <style
       id="style1399-9">.cls-1{fill:#e3e3e3;}</style>
    <style
       id="style1399-5">.cls-1{fill:#e3e3e3;}</style>
    <style
       id="style1399-8">.cls-1{fill:#e3e3e3;}</style>
    <style
       id="style1399-3">.cls-1{fill:#e3e3e3;}</style>
  </defs>
  <sodipodi:namedview
     id="base"
     pagecolor="#ffffff"
     bordercolor="#666666"
     borderopacity="1.0"
     inkscape:pageopacity="0.0"
     inkscape:pageshadow="2"
     inkscape:zoom="16"
     inkscape:cx="17.154375"
     inkscape:cy="12.326285"
     inkscape:document-units="mm"
     inkscape:current-layer="svg8"
     showgrid="false"
     units="px"
     inkscape:window-width="1237"
     inkscape:window-height="1136"
     inkscape:window-x="0"
     inkscape:window-y="27"
     inkscape:window-maximized="0">
    <sodipodi:guide
       position="8.4666666,0"
       orientation="-32,0"
       id="guide854"
       inkscape:locked="false" />
    <sodipodi:guide
       position="8.4666666,8.4657622"
       orientation="0,-32"
       id="guide856"
       inkscape:locked="false" />
    <sodipodi:guide
       position="0,8.4666814"
       orientation="32,0"
       id="guide858"
       inkscape:locked="false" />
  </sodipodi:namedview>
  <metadata
     id="metadata5">
    <rdf:RDF>
      <cc:Work
         rdf:about="">
        <dc:format>image/svg+xml</dc:format>
        <dc:type
           rdf:resource="http://purl.org/dc/dcmitype/StillImage" />
        <dc:title></dc:title>
      </cc:Work>
    </rdf:RDF>
  </metadata>
  <path
     style="fill:#e3e3e3;stroke-width:0.04989263"
     d="M 1.1972656 0.00390625 C 0.5336934 0.00390625 0 0.53759984 0 1.2011719 L 0 14.771484 C 0 15.435056 0.5336934 15.96875 1.1972656 15.96875 L 4.9511719 15.96875 C 5.9758894 14.318563 7.3685714 12.922946 9.0175781 11.896484 L 8.6816406 10.755859 L 5.6777344 10.755859 L 5.2246094 12.341797 C 5.1497645 12.596249 4.9148211 12.775391 4.6503906 12.775391 L 3.5078125 12.775391 C 3.0986929 12.775391 2.8097317 12.371584 2.9394531 11.982422 L 5.8066406 3.5449219 C 5.8914608 3.3004469 6.1175127 3.1425781 6.3769531 3.1425781 L 7.9980469 3.1425781 C 8.2524998 3.1425781 8.4815887 3.3054389 8.5664062 3.5449219 L 11.056641 10.871094 C 12.340538 10.367101 13.723254 10.072384 15.167969 10.023438 L 15.167969 0.00390625 L 1.1972656 0.00390625 z M 16.763672 0.00390625 L 16.763672 10.0625 C 18.540881 10.230067 20.213035 10.774784 21.701172 11.613281 C 21.647927 11.370861 21.741131 11.111622 21.966797 10.974609 C 22.4308 10.690221 22.8654 10.390495 23.269531 10.076172 C 22.875379 9.6570737 22.527002 9.2289881 22.222656 8.7949219 C 22.023084 8.5105343 22.111882 8.1160306 22.40625 7.9414062 L 22.730469 7.7460938 L 23.095703 7.53125 C 23.365124 7.3715929 23.714918 7.4467152 23.894531 7.7011719 C 24.143993 8.0504206 24.432427 8.3998812 24.761719 8.7441406 C 25.435268 8.0356655 25.948477 7.3033082 26.257812 6.5898438 L 20.556641 6.5898438 C 20.227349 6.5898438 19.957031 6.3195265 19.957031 5.9902344 L 19.957031 5.1914062 C 19.957031 4.8621149 20.227349 4.59375 20.556641 4.59375 L 23.748047 4.59375 L 23.748047 3.7949219 C 23.748047 3.4656305 24.018364 3.1972656 24.347656 3.1972656 L 25.146484 3.1972656 C 25.475776 3.1972656 25.744141 3.4656305 25.744141 3.7949219 L 25.744141 4.59375 L 28.9375 4.59375 C 29.266791 4.59375 29.537109 4.8621142 29.537109 5.1914062 L 29.537109 5.9902344 C 29.537109 6.3195257 29.266792 6.5898437 28.9375 6.5898438 L 28.369141 6.5898438 C 28.024882 7.7673095 27.286027 8.9535879 26.238281 10.076172 C 26.65738 10.395485 27.091982 10.700199 27.541016 10.974609 C 27.815424 11.144242 27.905752 11.498814 27.746094 11.783203 L 27.351562 12.476562 C 27.181927 12.770929 26.806955 12.866031 26.517578 12.691406 C 25.888931 12.302244 25.295784 11.888274 24.751953 11.449219 C 24.258026 11.843454 23.722306 12.22175 23.154297 12.580078 C 24.376758 13.512362 25.42265 14.659244 26.236328 15.96875 L 30.734375 15.96875 C 31.397947 15.96875 31.931641 15.435056 31.931641 14.771484 L 31.931641 1.2011719 C 31.931641 0.53759984 31.397947 0.00390625 30.734375 0.00390625 L 16.763672 0.00390625 z M 7.1738281 5.3417969 C 7.1738281 5.3417969 6.9597814 6.3943456 6.7851562 6.9980469 L 6.2324219 8.8691406 L 8.1328125 8.8691406 L 7.5878906 6.9980469 C 7.4132662 6.3943456 7.1992188 5.3417969 7.1992188 5.3417969 L 7.1738281 5.3417969 z "
     transform="scale(0.26458333)"
     id="path1084" />
  <path
     id="path1198"
     d="m 4.1258464,3.4564123 c -1.3838001,0 -2.5049812,1.1211811 -2.5049812,2.504981 0,1.3838 1.1211811,2.5049812 2.5049812,2.5049812 1.3838001,0 2.5049811,-1.1211812 2.5049811,-2.5049812 0,-1.3837999 -1.121181,-2.504981 -2.5049811,-2.504981 z M 5.294501,6.203811 3.5167724,7.2239847 C 3.3571809,7.3128711 3.1561761,7.1987323 3.1561761,7.0118693 V 4.9109174 c 0,-0.1858536 0.1999948,-0.3010018 0.3605963,-0.2121154 L 5.294501,5.7795802 c 0.1656519,0.092927 0.1656519,0.332314 0,0.4242308 z"
     inkscape:connector-curvature="0"
     style="fill:#d8ff8c;fill-opacity:1;stroke-width:0.01010073" />
</svg>
