<svg id="Calque_1" data-name="Calque 1" xmlns="http://www.w3.org/2000/svg" viewBox="0 0 32 32"><defs><style>.cls-1{fill:#e3e3e3;}</style></defs><title>precompose_l</title><rect class="cls-1" x="1" y="24" width="30" height="6" rx="2.58"/><path class="cls-1" d="M15.37,24.11,9.48,18.22a.69.69,0,0,1-.21-.49A.7.7,0,0,1,10,17h3.11V12.19a.7.7,0,0,1,.69-.69h4.16a.69.69,0,0,1,.69.69V17h3.12a.69.69,0,0,1,.69.69.68.68,0,0,1-.2.49l-5.89,5.89a.69.69,0,0,1-1,0Z"/><circle class="cls-1" cx="5.84" cy="6.31" r="4.16"/><circle class="cls-1" cx="15.84" cy="6.31" r="4.16"/><circle class="cls-1" cx="25.84" cy="6.31" r="4.16"/></svg>