<svg id="Calque_1" data-name="Calque 1" xmlns="http://www.w3.org/2000/svg" viewBox="0 0 32 32"><defs><style>.cls-1{fill:#e3e3e3;}</style></defs><title>propinfo_l</title><path class="cls-1" d="M20.21,2.79a7.08,7.08,0,0,1,3.23.8A7,7,0,0,1,26,5.7,5.05,5.05,0,0,1,27,8.75,4.57,4.57,0,0,1,26.48,11a5.34,5.34,0,0,1-1.28,1.47,15.52,15.52,0,0,1-1.51,1,7.52,7.52,0,0,0-1.08.7,1.09,1.09,0,0,0-.47.81v.23a.92.92,0,0,1-.92.93H18.43a.92.92,0,0,1-.93-.93v-.38a3.73,3.73,0,0,1,1-2.63,9.39,9.39,0,0,1,2.09-1.43l.07,0a7.45,7.45,0,0,0,1.4-.93,1.42,1.42,0,0,0,.5-1,1.61,1.61,0,0,0-.89-1.39,3.16,3.16,0,0,0-1.78-.54,3.11,3.11,0,0,0-1.78.5,7.71,7.71,0,0,0-1.43,1.39.92.92,0,0,1-.6.37.88.88,0,0,1-.68-.17L13.75,7.59a.88.88,0,0,1-.37-.6.86.86,0,0,1,.18-.68A8.66,8.66,0,0,1,16.3,3.72,7.88,7.88,0,0,1,20.21,2.79Zm-.39,14.43a2.56,2.56,0,0,1,1.9.8,2.72,2.72,0,0,1,0,3.79,2.55,2.55,0,0,1-1.9.79,2.51,2.51,0,0,1-1.89-.79,2.69,2.69,0,0,1,0-3.79A2.52,2.52,0,0,1,19.82,17.22Z"/><path class="cls-1" d="M16.5,23.21a4.71,4.71,0,0,1-.35-6.2,2.89,2.89,0,0,1-.65-1.84v-.38a4.71,4.71,0,0,1,.05-.54H7.65a3.33,3.33,0,0,0-3.33,3.33v8.7a3.33,3.33,0,0,0,3.33,3.33h8.7a3.33,3.33,0,0,0,3.33-3.33V24.59A4.56,4.56,0,0,1,16.5,23.21Z"/><path class="cls-1" d="M20.21,2.79a7.08,7.08,0,0,1,3.23.8A7,7,0,0,1,26,5.7,5.05,5.05,0,0,1,27,8.75,4.57,4.57,0,0,1,26.48,11a5.34,5.34,0,0,1-1.28,1.47,15.52,15.52,0,0,1-1.51,1,7.52,7.52,0,0,0-1.08.7,1.09,1.09,0,0,0-.47.81v.23a.92.92,0,0,1-.92.93H18.43a.92.92,0,0,1-.93-.93v-.38a3.73,3.73,0,0,1,1-2.63,9.39,9.39,0,0,1,2.09-1.43l.07,0a7.45,7.45,0,0,0,1.4-.93,1.42,1.42,0,0,0,.5-1,1.61,1.61,0,0,0-.89-1.39,3.16,3.16,0,0,0-1.78-.54,3.11,3.11,0,0,0-1.78.5,7.71,7.71,0,0,0-1.43,1.39.92.92,0,0,1-.6.37.88.88,0,0,1-.68-.17L13.75,7.59a.88.88,0,0,1-.37-.6.86.86,0,0,1,.18-.68A8.66,8.66,0,0,1,16.3,3.72,7.88,7.88,0,0,1,20.21,2.79Zm-.39,14.43a2.56,2.56,0,0,1,1.9.8,2.72,2.72,0,0,1,0,3.79,2.55,2.55,0,0,1-1.9.79,2.51,2.51,0,0,1-1.89-.79,2.69,2.69,0,0,1,0-3.79A2.52,2.52,0,0,1,19.82,17.22Z"/></svg>