<svg id="Calque_1" data-name="Calque 1" xmlns="http://www.w3.org/2000/svg" viewBox="0 0 32 32"><defs><style>.cls-1{fill:#e3e3e3;}</style></defs><title>publish_l</title><path class="cls-1" d="M24.41,30.57H21.59a.85.85,0,0,1-.84-.84V23.82H17.67a.7.7,0,0,1-.5-1.2l5.35-5.35a.69.69,0,0,1,1,0l5.35,5.35a.7.7,0,0,1-.5,1.2H25.25v5.91A.85.85,0,0,1,24.41,30.57Z"/><path class="cls-1" d="M15.17,24.15a2.68,2.68,0,0,1,.59-2.94l5.34-5.35a2.65,2.65,0,0,1,1.9-.78,2.58,2.58,0,0,1,1,.19V8.77A2.47,2.47,0,0,0,23.28,7L19,2.72A2.47,2.47,0,0,0,17.23,2H3.46A2.46,2.46,0,0,0,1,4.46V22.54A2.46,2.46,0,0,0,3.46,25H15.73A2.62,2.62,0,0,1,15.17,24.15ZM4.29,11.24V5.9a.61.61,0,0,1,.61-.61H16.63a.6.6,0,0,1,.44.18l.18.17a.67.67,0,0,1,.18.44v5.16a.62.62,0,0,1-.62.62H4.9A.61.61,0,0,1,4.29,11.24Zm8.19,10.45a3.29,3.29,0,1,1,3.29-3.28A3.28,3.28,0,0,1,12.48,21.69Z"/></svg>