<?xml version="1.0" encoding="UTF-8" standalone="no"?>
<!-- Created with Inkscape (http://www.inkscape.org/) -->

<svg
   xmlns:dc="http://purl.org/dc/elements/1.1/"
   xmlns:cc="http://creativecommons.org/ns#"
   xmlns:rdf="http://www.w3.org/1999/02/22-rdf-syntax-ns#"
   xmlns:svg="http://www.w3.org/2000/svg"
   xmlns="http://www.w3.org/2000/svg"
   xmlns:sodipodi="http://sodipodi.sourceforge.net/DTD/sodipodi-0.dtd"
   xmlns:inkscape="http://www.inkscape.org/namespaces/inkscape"
   width="32"
   height="32"
   viewBox="0 0 8.4666666 8.4666666"
   version="1.1"
   id="svg8"
   inkscape:version="0.92.5 (2060ec1f9f, 2020-04-08)"
   sodipodi:docname="radio-transmission_bl.svg">
  <defs
     id="defs2">
    <style
       id="style857">.cls-1{fill:#e52120;}.cls-1,.cls-2,.cls-3,.cls-4,.cls-5{stroke:#000;stroke-miterlimit:10;stroke-width:1.2px;}.cls-2{fill:#6dbc88;}.cls-3{fill:#701034;}.cls-4{fill:#51aae0;}.cls-5{fill:none;}</style>
  </defs>
  <sodipodi:namedview
     id="base"
     pagecolor="#ffffff"
     bordercolor="#666666"
     borderopacity="1.0"
     inkscape:pageopacity="0.0"
     inkscape:pageshadow="2"
     inkscape:zoom="11.313709"
     inkscape:cx="7.4925063"
     inkscape:cy="28.836512"
     inkscape:document-units="mm"
     inkscape:current-layer="svg8"
     showgrid="false"
     units="px"
     inkscape:window-width="1848"
     inkscape:window-height="1136"
     inkscape:window-x="0"
     inkscape:window-y="27"
     inkscape:window-maximized="1">
    <sodipodi:guide
       position="8.4666666,0"
       orientation="-32,0"
       id="guide854"
       inkscape:locked="false" />
    <sodipodi:guide
       position="8.4666666,8.4666666"
       orientation="0,-32"
       id="guide856"
       inkscape:locked="false" />
    <sodipodi:guide
       position="0,8.4666814"
       orientation="32,0"
       id="guide858"
       inkscape:locked="false" />
  </sodipodi:namedview>
  <metadata
     id="metadata5">
    <rdf:RDF>
      <cc:Work
         rdf:about="">
        <dc:format>image/svg+xml</dc:format>
        <dc:type
           rdf:resource="http://purl.org/dc/dcmitype/StillImage" />
        <dc:title></dc:title>
      </cc:Work>
    </rdf:RDF>
  </metadata>
  <style
     type="text/css"
     id="style815">
	.st0{fill:#00005B;}
	.st1{fill:#9999FF;}
</style>
  <path
     style="fill:#e3e3e3;fill-opacity:1;stroke-width:0.00643982"
     d="m 5.8929887,-0.00498028 c -0.026894,-3.868e-4 -0.054131,0.010258 -0.074705,0.03098901 L 5.5996995,0.24625238 c -0.039283,0.039541 -0.03989,0.10279176 -0.00221,0.14387775 0.8608749,0.93969857 0.8610677,2.39143197 0,3.33132327 -0.037674,0.041087 -0.037,0.1043371 0.00221,0.1438776 l 0.2185837,0.220797 c 0.04115,0.041408 0.108082,0.040668 0.1477513,-0.00221 1.0552932,-1.1409426 1.0549067,-2.9152002 0,-4.0556921 -0.019835,-0.02144476 -0.046151,-0.03281594 -0.073046,-0.03320338 z M 2.6712342,0 c -0.026894,3.8667955e-4 -0.053212,0.01175878 -0.073046,0.03320251 -1.0549067,1.14049199 -1.0552931,2.91474959 0,4.05569239 0.039669,0.042889 0.1066014,0.043629 0.1477515,0.00221 l 0.219137,-0.2207936 c 0.039218,-0.039541 0.039893,-0.102791 0.00221,-0.1438776 -0.8610682,-0.9398912 -0.860875,-2.3916246 0,-3.33132319 0.037674,-0.0410863 0.037063,-0.104337 -0.00221,-0.14387772 L 2.74594,0.03098915 C 2.7253643,0.01025433 2.6981287,-3.8540335e-4 2.6712342,0 Z m 2.4901916,0.71662185 c -0.02716,-6.3354e-4 -0.054458,0.009339 -0.075259,0.0304358 L 4.8670299,0.96896141 c -0.038124,0.0386392 -0.040528,0.10051449 -0.00498,0.14166419 0.4673373,0.5406226 0.4663071,1.3509976 0,1.8903323 -0.035548,0.041151 -0.033209,0.1035787 0.00498,0.1422175 l 0.2191368,0.2213504 c 0.041601,0.042244 0.1101929,0.041041 0.1494115,-0.00332 0.6564107,-0.7422532 0.6557024,-1.8694116 0,-2.61082765 -0.019641,-0.0222232 -0.046992,-0.0331244 -0.074153,-0.0337602 z m -1.7586287,0.00498 c -0.02716,6.336e-4 -0.053959,0.011539 -0.073599,0.0337559 -0.6557025,0.74141615 -0.6564105,1.86857465 0,2.61082765 0.039218,0.04437 0.1072566,0.045574 0.1488583,0.00332 L 3.6971932,3.1481596 c 0.038188,-0.038639 0.040528,-0.1010661 0.00498,-0.1422176 -0.4663074,-0.5393349 -0.4673378,-1.3497095 0,-1.8903322 0.035546,-0.04115 0.033145,-0.1030255 -0.00498,-0.14166419 L 3.4780563,0.752038 C 3.4572551,0.73094477 3.429957,0.72096698 3.4027971,0.72160185 Z M 4.2848783,1.6435266 c -0.2276476,0 -0.412265,0.1846175 -0.412265,0.4122652 0,0.103207 0.039097,0.1966906 0.1018216,0.2689406 L 3.7132411,8.2962121 c -0.00394,0.090094 0.072513,0.1626927 0.1626925,0.1626927 h 0.7819201 c 0.09018,0 0.166633,-0.072599 0.1626926,-0.1626927 L 4.5610131,2.3601484 c 0.083021,-0.07534 0.1361303,-0.1833103 0.1361303,-0.3043566 0,-0.2276477 -0.1846178,-0.4122652 -0.4122651,-0.4122652 z"
     id="path866"
     inkscape:connector-curvature="0" />
</svg>
