<?xml version="1.0" encoding="UTF-8" standalone="no"?>
<!-- Created with Inkscape (http://www.inkscape.org/) -->

<svg
   xmlns:dc="http://purl.org/dc/elements/1.1/"
   xmlns:cc="http://creativecommons.org/ns#"
   xmlns:rdf="http://www.w3.org/1999/02/22-rdf-syntax-ns#"
   xmlns:svg="http://www.w3.org/2000/svg"
   xmlns="http://www.w3.org/2000/svg"
   xmlns:xlink="http://www.w3.org/1999/xlink"
   xmlns:sodipodi="http://sodipodi.sourceforge.net/DTD/sodipodi-0.dtd"
   xmlns:inkscape="http://www.inkscape.org/namespaces/inkscape"
   width="32"
   height="32"
   viewBox="0 0 8.4666666 8.4666666"
   version="1.1"
   id="svg8"
   inkscape:version="0.92.5 (2060ec1f9f, 2020-04-08)"
   sodipodi:docname="ramses_sl.svg">
  <defs
     id="defs2"><style
   id="style1399">.cls-1{fill:#e3e3e3;}</style>
<style
   id="style1281">.cls-1{fill:#e3e3e3;}</style>
<style
   id="style1301">.cls-1{fill:#e3e3e3;}</style>
<linearGradient
   id="linearGradient1373">
  <stop
     id="stop1369"
     offset="0"
     style="stop-color:#343434;stop-opacity:1" />
  <stop
     id="stop1371"
     offset="1"
     style="stop-color:#4d4d4d;stop-opacity:1" />
</linearGradient>
<linearGradient
   id="linearGradient4663-8-4">
  <stop
     offset="0"
     style="stop-color:#5596ea;stop-opacity:1"
     id="stop4665-6-3" />
  <stop
     offset="1"
     style="stop-color:#5596ea;stop-opacity:0"
     id="stop4667-8-0" />
</linearGradient>
<linearGradient
   y2="200.87404"
   x2="1280.8954"
   y1="62.713318"
   x1="1142.5884"
   gradientTransform="rotate(-5.8887665,1223.2651,99.834013)"
   gradientUnits="userSpaceOnUse"
   id="linearGradient1403"
   xlink:href="#linearGradient1373" />
<linearGradient
   gradientTransform="matrix(0.0111212,0.99993816,0.99993816,-0.0111212,1077.8896,-1093.5223)"
   y2="89.862335"
   x2="1324.9103"
   y1="230.86234"
   x1="1327.5938"
   gradientUnits="userSpaceOnUse"
   id="linearGradient1405"
   xlink:href="#linearGradient4663-8-4" />
<style
   id="style1435">.cls-1{fill:#ec1818;}</style>

        
    
            
            
        
                
                
                
                
                
                
                
                
                
                
                
            
                    
                
                    
                
                    
                <style
   id="style2">.a{filter:url(#a);}.b{fill:#710132;}.c{fill:#e3e3e3;}</style>
<filter
   name="AI_FlouGaussien_4"
   id="a">
  <feGaussianBlur
     id="feGaussianBlur4"
     stdDeviation="4" />
</filter>
</defs>
  <sodipodi:namedview
     id="base"
     pagecolor="#ffffff"
     bordercolor="#666666"
     borderopacity="1.0"
     inkscape:pageopacity="0.0"
     inkscape:pageshadow="2"
     inkscape:zoom="11.313709"
     inkscape:cx="-8.1220116"
     inkscape:cy="24.609894"
     inkscape:document-units="mm"
     inkscape:current-layer="svg8"
     showgrid="false"
     units="px"
     inkscape:window-width="1920"
     inkscape:window-height="1043"
     inkscape:window-x="0"
     inkscape:window-y="120"
     inkscape:window-maximized="1">
    <sodipodi:guide
       position="8.4666666,0"
       orientation="-32,0"
       id="guide854"
       inkscape:locked="false" />
    <sodipodi:guide
       position="8.4666666,8.4666666"
       orientation="0,-32"
       id="guide856"
       inkscape:locked="false" />
    <sodipodi:guide
       position="0,8.4666814"
       orientation="32,0"
       id="guide858"
       inkscape:locked="false" />
  </sodipodi:namedview>
  <metadata
     id="metadata5">
    <rdf:RDF>
      <cc:Work
         rdf:about="">
        <dc:format>image/svg+xml</dc:format>
        <dc:type
           rdf:resource="http://purl.org/dc/dcmitype/StillImage" />
        <dc:title></dc:title>
      </cc:Work>
    </rdf:RDF>
  </metadata>
  <path
     sodipodi:nodetypes="ccsccccccsscscccscssscsccccc"
     inkscape:connector-curvature="0"
     id="circle15"
     d="M 3.9887754,-7.8437256e-5 C 3.6312495,-0.00206075 3.252795,0.04359851 2.8687986,0.14842888 1.4868357,0.49379078 0.46308967,1.7434983 0.46308967,3.2324581 c 0,0.591158 0.10388767,1.0161688 0.30856932,1.3201893 0.19402166,0.3189858 0.46370851,0.5905109 0.81784991,0.7567511 0.9144285,0.4298688 1.5215653,0.4386187 1.819494,0.7278226 0.2951623,0.2857987 0.3826772,1.3164588 -0.9396033,2.4293931 l 3.387708,-0.00448 C 5.5219374,6.8301206 6.4744933,6.4964637 6.7494395,6.5973338 7.0292798,6.6999066 7.532339,6.718632 7.65449,6.4573055 7.7766404,6.1959796 7.5425584,5.8786855 7.5425584,5.8508075 c 0,-0.027875 0.1491866,-0.5599168 0.1681252,-0.5877942 0.018942,-0.027875 0.1119196,-0.074454 0.1212832,-0.1678758 0.00937,-0.093422 -0.065338,-0.1089804 -0.065338,-0.1089804 -0.00515,-0.075804 -0.00198,-0.1519434 0.00939,-0.2270628 0.084915,-0.034444 0.1323206,-0.1253818 0.1119314,-0.2147184 0,0 -0.2500691,-0.4130521 -0.2136791,-0.6545872 C 7.7106638,3.6482533 8.0558345,3.6107995 8.1211662,3.4428955 7.8038721,2.4722856 7.2629432,2.2950229 7.0294944,2.1924501 6.7960458,2.0898778 6.7400447,1.7631968 6.7028036,1.6046559 6.6655626,1.4461154 6.4882915,1.3061202 6.348265,1.1848208 6.2082384,1.0635208 6.0494961,0.69024537 5.7696559,0.48488711 5.3435711,0.19915492 4.7084578,0.00387914 3.9887741,-7.8437256e-5 Z M 6.5351365,2.0404932 c 0,0 0.2187649,0.1376856 0.1862057,0.3883714 0,0 -0.1862272,0.093209 -0.5435287,0 0.077674,-0.2181261 0.357323,-0.3883714 0.357323,-0.3883714 z"
     style="display:inline;fill:#e3e3e3;stroke-width:0.02128063;fill-opacity:1" />
</svg>
