<svg id="Calque_1" data-name="Calque 1" xmlns="http://www.w3.org/2000/svg" viewBox="0 0 32 32"><defs><style>.cls-1{fill:#e3e3e3;}</style></defs><title>randomkeytime_l</title><rect class="cls-1" x="10.88" y="4.88" width="4.24" height="4.24" transform="translate(8.76 -7.14) rotate(45)"/><path class="cls-1" d="M28.42,4A2.57,2.57,0,0,1,31,6.58v.84A2.57,2.57,0,0,1,28.42,10H3.58A2.57,2.57,0,0,1,1,7.42V6.58A2.57,2.57,0,0,1,3.58,4H28.42m0-1H3.58A3.59,3.59,0,0,0,0,6.58v.84A3.59,3.59,0,0,0,3.58,11H28.42A3.59,3.59,0,0,0,32,7.42V6.58A3.59,3.59,0,0,0,28.42,3Z"/><rect class="cls-1" x="17.88" y="13.88" width="4.24" height="4.24" transform="translate(17.17 -9.46) rotate(45)"/><path class="cls-1" d="M28.42,13A2.57,2.57,0,0,1,31,15.58v.84A2.57,2.57,0,0,1,28.42,19H3.58A2.57,2.57,0,0,1,1,16.42v-.84A2.57,2.57,0,0,1,3.58,13H28.42m0-1H3.58A3.59,3.59,0,0,0,0,15.58v.84A3.59,3.59,0,0,0,3.58,20H28.42A3.59,3.59,0,0,0,32,16.42v-.84A3.59,3.59,0,0,0,28.42,12Z"/><rect class="cls-1" x="4.88" y="22.88" width="4.24" height="4.24" transform="translate(19.73 2.37) rotate(45)"/><path class="cls-1" d="M28.42,22A2.57,2.57,0,0,1,31,24.58v.84A2.57,2.57,0,0,1,28.42,28H3.58A2.57,2.57,0,0,1,1,25.42v-.84A2.57,2.57,0,0,1,3.58,22H28.42m0-1H3.58A3.59,3.59,0,0,0,0,24.58v.84A3.59,3.59,0,0,0,3.58,29H28.42A3.59,3.59,0,0,0,32,25.42v-.84A3.59,3.59,0,0,0,28.42,21Z"/></svg>