<svg id="Calque_1" data-name="Calque 1" xmlns="http://www.w3.org/2000/svg" viewBox="0 0 32 32"><defs><style>.cls-1{fill:#e3e3e3;}</style></defs><title>random_l</title><path class="cls-1" d="M28.88,10.44l-4.44,4.45a.47.47,0,0,1-.32.12.44.44,0,0,1-.44-.44V11.9H20.12c-1.84,0-2.72,1.26-3.5,2.76-.4.78-.75,1.59-1.08,2.38-1.54,3.58-3.35,7.3-7.86,7.3H4.57a.43.43,0,0,1-.44-.44V21.23a.43.43,0,0,1,.44-.44H7.68c1.85,0,2.72-1.27,3.5-2.77.4-.77.75-1.58,1.08-2.37,1.54-3.58,3.35-7.3,7.86-7.3h3.56V5.68a.44.44,0,0,1,.44-.45.5.5,0,0,1,.33.14L28.88,9.8a.45.45,0,0,1,.13.32A.44.44,0,0,1,28.88,10.44Z"/><path class="cls-1" d="M11.47,15.26c-.8-1.68-1.69-3.36-3.79-3.36H4.57a.43.43,0,0,1-.44-.44V8.79a.43.43,0,0,1,.44-.44H7.68a6.68,6.68,0,0,1,5.69,3.12A25.32,25.32,0,0,0,11.47,15.26Z"/><path class="cls-1" d="M28.88,22.88l-4.44,4.45a.47.47,0,0,1-.32.12.45.45,0,0,1-.44-.44V24.34c-4.13,0-6.67.49-9.24-3.12a24.8,24.8,0,0,0,1.89-3.79c.81,1.68,1.7,3.36,3.79,3.36h3.56V18.12a.43.43,0,0,1,.44-.44.49.49,0,0,1,.33.13l4.43,4.43a.45.45,0,0,1,.13.32A.44.44,0,0,1,28.88,22.88Z"/></svg>