<?xml version="1.0" encoding="UTF-8" standalone="no"?>
<!-- Created with Inkscape (http://www.inkscape.org/) -->

<svg
   xmlns:dc="http://purl.org/dc/elements/1.1/"
   xmlns:cc="http://creativecommons.org/ns#"
   xmlns:rdf="http://www.w3.org/1999/02/22-rdf-syntax-ns#"
   xmlns:svg="http://www.w3.org/2000/svg"
   xmlns="http://www.w3.org/2000/svg"
   xmlns:sodipodi="http://sodipodi.sourceforge.net/DTD/sodipodi-0.dtd"
   xmlns:inkscape="http://www.inkscape.org/namespaces/inkscape"
   width="32"
   height="32"
   viewBox="0 0 8.4666666 8.4666666"
   version="1.1"
   id="svg8"
   inkscape:version="0.92.5 (2060ec1f9f, 2020-04-08)"
   sodipodi:docname="render-compute-build-file_sl.svg">
  <defs
     id="defs2">
    <style
       id="style1399">.cls-1{fill:#e3e3e3;}</style>
    <style
       id="style1399-1">.cls-1{fill:#e3e3e3;}</style>
    <style
       id="style1399-5">.cls-1{fill:#e3e3e3;}</style>
    <style
       id="style1399-8">.cls-1{fill:#e3e3e3;}</style>
  </defs>
  <sodipodi:namedview
     id="base"
     pagecolor="#ffffff"
     bordercolor="#666666"
     borderopacity="1.0"
     inkscape:pageopacity="0.0"
     inkscape:pageshadow="2"
     inkscape:zoom="0.99999994"
     inkscape:cx="-268.17179"
     inkscape:cy="-20.888181"
     inkscape:document-units="mm"
     inkscape:current-layer="svg8"
     showgrid="false"
     units="px"
     inkscape:window-width="1920"
     inkscape:window-height="1043"
     inkscape:window-x="0"
     inkscape:window-y="120"
     inkscape:window-maximized="1">
    <sodipodi:guide
       position="8.4666666,0"
       orientation="-32,0"
       id="guide854"
       inkscape:locked="false" />
    <sodipodi:guide
       position="8.4666666,8.4666666"
       orientation="0,-32"
       id="guide856"
       inkscape:locked="false" />
    <sodipodi:guide
       position="0,8.4666814"
       orientation="1,6.123234e-17"
       id="guide858"
       inkscape:locked="false" />
  </sodipodi:namedview>
  <metadata
     id="metadata5">
    <rdf:RDF>
      <cc:Work
         rdf:about="">
        <dc:format>image/svg+xml</dc:format>
        <dc:type
           rdf:resource="http://purl.org/dc/dcmitype/StillImage" />
        <dc:title></dc:title>
      </cc:Work>
    </rdf:RDF>
  </metadata>
  <path
     style="fill:#3e8b45;fill-opacity:1;stroke-width:0.01651127"
     inkscape:connector-curvature="0"
     d="M 5.1326253,2.2455321 V 0 H 1.830373 C 1.6107734,0 1.4341029,0.17667124 1.4341029,0.39627094 V 8.057493 c 0,0.2195997 0.1766705,0.3962711 0.3962701,0.3962711 h 5.5477837 c 0.2195998,0 0.3962701,-0.1766714 0.3962701,-0.3962711 V 2.6418032 H 5.5288955 c -0.2179486,0 -0.3962702,-0.1783205 -0.3962702,-0.3962711 z M 7.7744268,2.0127191 V 2.1134383 H 5.6609859 V 0 H 5.7617051 C 5.867377,0 5.9680955,0.04122959 6.0423963,0.11558193 L 7.6588478,1.7336792 c 0.074302,0.074313 0.115579,0.175022 0.115579,0.2790399 z"
     id="path1112" />
  <path
     sodipodi:type="inkscape:offset"
     inkscape:radius="0.46748918"
     inkscape:original="M 1.5234375 1.3691406 A 1.5170218 1.5170218 0 0 0 0.005859375 2.8867188 A 1.5170218 1.5170218 0 0 0 1.5234375 4.4042969 A 1.5170218 1.5170218 0 0 0 3.0410156 2.8867188 A 1.5170218 1.5170218 0 0 0 1.5234375 1.3691406 z M 1.0195312 2.0664062 L 1.1015625 2.2324219 L 1.2675781 2.3164062 L 1.1015625 2.3984375 L 1.0195312 2.5644531 L 0.93554688 2.3984375 L 0.76953125 2.3164062 L 0.93554688 2.2324219 L 1.0195312 2.0664062 z M 1.4667969 2.0664062 L 1.515625 2.1660156 L 1.6152344 2.2167969 L 1.515625 2.265625 L 1.4667969 2.3652344 L 1.4160156 2.265625 L 1.3164062 2.2167969 L 1.4160156 2.1660156 L 1.4667969 2.0664062 z M 1.9980469 2.0664062 C 2.0234819 2.0664062 2.0489804 2.0762681 2.0683594 2.0957031 L 2.3300781 2.359375 C 2.3689001 2.398164 2.3689001 2.4612405 2.3300781 2.5 L 1.203125 3.6269531 C 1.183715 3.6463631 1.1582475 3.65625 1.1328125 3.65625 C 1.1074085 3.65625 1.08191 3.6463681 1.0625 3.6269531 L 0.79882812 3.3652344 C 0.76000762 3.3264434 0.76000763 3.2634309 0.79882812 3.2246094 L 1.9277344 2.0957031 C 1.9471454 2.0762611 1.9726114 2.066405 1.9980469 2.0664062 z M 1.9980469 2.2714844 L 1.7285156 2.5410156 L 1.8867188 2.6992188 L 2.15625 2.4296875 L 1.9980469 2.2714844 z M 2.1113281 2.9609375 L 2.1953125 3.1269531 L 2.359375 3.2089844 L 2.1953125 3.2929688 L 2.1113281 3.4589844 L 2.0292969 3.2929688 L 1.8632812 3.2089844 L 2.0292969 3.1269531 L 2.1113281 2.9609375 z "
     style="opacity:1;fill:#ffffff;fill-opacity:1;stroke:none;stroke-width:0.52498502;stroke-linecap:round;stroke-linejoin:round;stroke-miterlimit:4;stroke-dasharray:none;stroke-dashoffset:10.3937006;stroke-opacity:1"
     id="path1506"
     d="M 1.5234375,0.90234375 C 1.0036511,0.9021531 0.48668511,1.1148774 0.11914062,1.4824219 -0.24840386,1.8499664 -0.46112818,2.3669324 -0.4609375,2.8867188 -0.46112814,3.4065051 -0.24840386,3.9234711 0.11914062,4.2910156 0.48668511,4.6585601 1.0036511,4.8712844 1.5234375,4.8710938 2.0432238,4.8712844 2.5601899,4.6585601 2.9277344,4.2910156 3.2952789,3.9234711 3.5080031,3.4065051 3.5078125,2.8867188 3.5080032,2.3669324 3.2952789,1.8499664 2.9277344,1.4824219 2.5601899,1.1148774 2.0432239,0.90215311 1.5234375,0.90234375 Z M 1.40625,2.15625 H 1.453125 L 1.40625,2.203125 Z"
     transform="matrix(1.1208333,0,0,1.1208333,0.28846477,-0.46687491)" />
  <path
     sodipodi:type="inkscape:offset"
     inkscape:radius="0.54570311"
     inkscape:original="M 2.4667969 4.0136719 C 1.9833893 4.0136719 1.5917969 4.4052598 1.5917969 4.8886719 L 1.5917969 6.640625 C 1.5917969 7.1240371 1.9833893 7.515625 2.4667969 7.515625 L 3.2324219 7.515625 C 3.2926199 7.515625 3.3417967 7.466439 3.3417969 7.40625 L 3.3417969 7.0410156 C 3.3417969 6.9808156 3.2926203 6.9316406 3.2324219 6.9316406 L 2.4667969 6.9316406 C 2.3053569 6.9316406 2.1757812 6.8020681 2.1757812 6.640625 L 2.1757812 4.8886719 C 2.1757812 4.7272289 2.3053569 4.5976562 2.4667969 4.5976562 L 3.2324219 4.5976562 C 3.2926199 4.5976562 3.3417969 4.5465177 3.3417969 4.4863281 L 3.3417969 4.1230469 C 3.3417969 4.0628519 3.2926204 4.0136719 3.2324219 4.0136719 L 2.4667969 4.0136719 z M 4.5917969 4.0761719 C 4.4540713 3.9393601 4.21875 4.0372385 4.21875 4.2324219 L 4.21875 5.1074219 L 2.9785156 5.1074219 C 2.8572084 5.1074219 2.7597656 5.2048709 2.7597656 5.3261719 L 2.7597656 6.2011719 C 2.7597656 6.3224727 2.8572083 6.421875 2.9785156 6.421875 L 4.21875 6.421875 L 4.21875 7.296875 C 4.21875 7.4929971 4.4549834 7.5879892 4.5917969 7.4511719 L 6.125 5.9199219 C 6.209824 5.8341846 6.209824 5.695107 6.125 5.609375 L 4.5917969 4.0761719 z "
     style="fill:#ffffff;fill-opacity:1;stroke-width:0.00912089"
     id="path960"
     d="m 2.4667969,3.46875 c -0.7781082,0 -1.4199219,0.6418086 -1.4199219,1.4199219 V 6.640625 c 0,0.7781133 0.6418137,1.4199219 1.4199219,1.4199219 h 0.765625 c 0.3073828,0 0.5319231,-0.2364402 0.5996093,-0.5253907 0.082942,0.1846857 0.1417146,0.3980735 0.3144532,0.46875 0.2596802,0.106249 0.605934,0.056799 0.8300781,-0.1660156 l 1.5332031,-1.53125 a 0.54575768,0.54575768 0 0 0 0.00391,-0.00195 c 0.2923367,-0.2954843 0.2923561,-0.7845924 0,-1.0800781 a 0.54575768,0.54575768 0 0 0 -0.00195,-0.00195 L 4.9785156,3.6894531 a 0.54575768,0.54575768 0 0 0 -0.00195,0 C 4.7512904,3.4656757 4.4016282,3.4171799 4.1425781,3.5253906 3.9708705,3.5971166 3.9141199,3.8104342 3.8320312,3.9941406 3.7643382,3.7052003 3.5397718,3.46875 3.2324219,3.46875 Z"
     transform="translate(-1.3353573,-0.12862346)" />
  <path
     inkscape:connector-curvature="0"
     style="opacity:1;fill:#3e8b45;fill-opacity:1;stroke:none;stroke-width:0.58842069;stroke-linecap:round;stroke-linejoin:round;stroke-miterlimit:4;stroke-dasharray:none;stroke-dashoffset:10.3937006;stroke-opacity:1"
     d="M 1.9960075,1.0685922 A 1.7003286,1.7003286 0 0 0 0.29567886,2.7689209 1.7003286,1.7003286 0 0 0 1.9960075,4.4692495 1.7003286,1.7003286 0 0 0 3.6963361,2.7689209 1.7003286,1.7003286 0 0 0 1.9960075,1.0685922 Z M 1.4301998,1.8498467 1.522979,2.0354052 1.7085372,2.1283918 1.522979,2.221171 1.4301998,2.4067294 1.3374205,2.221171 1.1516548,2.1283918 1.3374205,2.0354052 Z m 0.5012566,0 0.055626,0.1114601 0.11146,0.055626 -0.1114601,0.055626 -0.055626,0.1114602 -0.055833,-0.1114602 -0.1112528,-0.055626 0.1112528,-0.055626 z m 0.5956963,0 c 0.028508,0 0.056944,0.010805 0.078664,0.032588 l 0.2953578,0.2953577 c 0.043513,0.043476 0.043513,0.114095 0,0.157538 l -1.2640379,1.264037 c -0.021755,0.021755 -0.050156,0.032588 -0.078665,0.032588 -0.028474,0 -0.057117,-0.010827 -0.078872,-0.032588 L 1.1842417,3.3040097 c -0.043511,-0.043478 -0.043511,-0.1140254 0,-0.1575379 L 2.4484875,1.8824336 c 0.021757,-0.021791 0.050156,-0.032588 0.078665,-0.032587 z m 0,0.229561 -0.3013768,0.3013767 0.1770486,0.177256 0.301584,-0.3013767 z m 0.1282721,0.7729521 0.092779,0.1855584 0.1857658,0.092987 -0.1857662,0.092779 -0.092779,0.1855582 -0.092779,-0.1855582 -0.1857659,-0.092779 0.1857659,-0.092987 z"
     id="path1687" />
  <path
     id="path1691"
     d="M 4.7890876,5.7906308 3.2567773,7.3229369 C 3.1199638,7.4597542 2.8828207,7.3640071 2.8828207,7.167885 V 6.2922776 H 1.642379 c -0.1213073,0 -0.2189012,-0.097597 -0.2189012,-0.2188978 V 5.197767 c 0,-0.121301 0.097594,-0.2188924 0.2189012,-0.2188924 H 2.8828207 V 4.1032618 c 0,-0.1951834 0.236231,-0.2918637 0.3739566,-0.1550519 l 1.5323103,1.5323116 c 0.084824,0.085732 0.084824,0.224372 0,0.3101093 z M 2.0072147,7.2773367 V 6.9125016 c 0,-0.0602 -0.049252,-0.1094517 -0.1094504,-0.1094517 H 1.1316091 c -0.16143997,0 -0.29186857,-0.1304316 -0.29186857,-0.2918747 V 4.7599714 c 0,-0.161443 0.1304286,-0.2918692 0.29186857,-0.2918692 H 1.897764 c 0.060198,0 0.1094505,-0.049262 0.1094505,-0.1094516 V 3.9938102 c 0,-0.060195 -0.049252,-0.1094466 -0.1094505,-0.1094466 H 1.1316091 c -0.48340757,0 -0.87560597,0.3921952 -0.87560597,0.8756073 v 1.751204 c 0,0.4834121 0.3921984,0.8756128 0.87560597,0.8756128 H 1.897764 c 0.060198,0 0.1094505,-0.049262 0.1094507,-0.109451 z"
     inkscape:connector-curvature="0"
     style="fill:#3e8b45;fill-opacity:1;stroke-width:0.00912089" />
</svg>
