<?xml version="1.0" encoding="UTF-8" standalone="no"?>
<!-- Created with Inkscape (http://www.inkscape.org/) -->

<svg
   xmlns:dc="http://purl.org/dc/elements/1.1/"
   xmlns:cc="http://creativecommons.org/ns#"
   xmlns:rdf="http://www.w3.org/1999/02/22-rdf-syntax-ns#"
   xmlns:svg="http://www.w3.org/2000/svg"
   xmlns="http://www.w3.org/2000/svg"
   xmlns:sodipodi="http://sodipodi.sourceforge.net/DTD/sodipodi-0.dtd"
   xmlns:inkscape="http://www.inkscape.org/namespaces/inkscape"
   width="32"
   height="32"
   viewBox="0 0 8.4666666 8.4666666"
   version="1.1"
   id="svg8"
   inkscape:version="0.92.5 (2060ec1f9f, 2020-04-08)"
   sodipodi:docname="resize-video_bl.svg">
  <defs
     id="defs2">
    <style
       id="style1399">.cls-1{fill:#e3e3e3;}</style>
    <style
       id="style1399-4">.cls-1{fill:#e3e3e3;}</style>
    <style
       id="style1399-5">.cls-1{fill:#e3e3e3;}</style>
    <style
       id="style1399-7">.cls-1{fill:#e3e3e3;}</style>
    <style
       id="style1399-3">.cls-1{fill:#e3e3e3;}</style>
    <style
       id="style1399-1">.cls-1{fill:#e3e3e3;}</style>
    <style
       id="style1399-5-8">.cls-1{fill:#e3e3e3;}</style>
    <style
       id="style1399-8">.cls-1{fill:#e3e3e3;}</style>
    <style
       id="style1399-7-8">.cls-1{fill:#e3e3e3;}</style>
    <style
       id="style1399-1-5">.cls-1{fill:#e3e3e3;}</style>
    <style
       id="style1399-5-6">.cls-1{fill:#e3e3e3;}</style>
    <style
       id="style1399-8-9">.cls-1{fill:#e3e3e3;}</style>
    <style
       id="style1399-2">.cls-1{fill:#e3e3e3;}</style>
    <style
       id="style1399-1-1">.cls-1{fill:#e3e3e3;}</style>
    <style
       id="style1399-5-5">.cls-1{fill:#e3e3e3;}</style>
    <style
       id="style1399-8-99">.cls-1{fill:#e3e3e3;}</style>
    <style
       id="style857">.cls-1{fill:#e52120;}.cls-1,.cls-2,.cls-3,.cls-4,.cls-5{stroke:#000;stroke-miterlimit:10;stroke-width:1.2px;}.cls-2{fill:#6dbc88;}.cls-3{fill:#701034;}.cls-4{fill:#51aae0;}.cls-5{fill:none;}</style>
    <style
       id="style1399-33">.cls-1{fill:#e3e3e3;}</style>
    <style
       id="style1399-4-8">.cls-1{fill:#e3e3e3;}</style>
    <style
       id="style1399-5-60">.cls-1{fill:#e3e3e3;}</style>
    <style
       id="style1399-7-4">.cls-1{fill:#e3e3e3;}</style>
    <style
       id="style1399-3-8">.cls-1{fill:#e3e3e3;}</style>
    <style
       id="style1399-1-8">.cls-1{fill:#e3e3e3;}</style>
    <style
       id="style1399-5-8-8">.cls-1{fill:#e3e3e3;}</style>
    <style
       id="style1399-8-97">.cls-1{fill:#e3e3e3;}</style>
    <style
       id="style1399-7-8-7">.cls-1{fill:#e3e3e3;}</style>
    <style
       id="style1399-1-5-6">.cls-1{fill:#e3e3e3;}</style>
    <style
       id="style1399-5-6-4">.cls-1{fill:#e3e3e3;}</style>
    <style
       id="style1399-8-9-3">.cls-1{fill:#e3e3e3;}</style>
    <style
       id="style1399-2-0">.cls-1{fill:#e3e3e3;}</style>
    <style
       id="style1399-1-1-3">.cls-1{fill:#e3e3e3;}</style>
    <style
       id="style1399-5-5-0">.cls-1{fill:#e3e3e3;}</style>
    <style
       id="style1399-8-99-9">.cls-1{fill:#e3e3e3;}</style>
    <style
       id="style857-2">.cls-1{fill:#e52120;}.cls-1,.cls-2,.cls-3,.cls-4,.cls-5{stroke:#000;stroke-miterlimit:10;stroke-width:1.2px;}.cls-2{fill:#6dbc88;}.cls-3{fill:#701034;}.cls-4{fill:#51aae0;}.cls-5{fill:none;}</style>
    <style
       id="style1399-22">.cls-1{fill:#e3e3e3;}</style>
    <style
       id="style1399-4-4">.cls-1{fill:#e3e3e3;}</style>
    <style
       id="style1399-5-7">.cls-1{fill:#e3e3e3;}</style>
    <style
       id="style1399-7-7">.cls-1{fill:#e3e3e3;}</style>
    <style
       id="style1399-3-5">.cls-1{fill:#e3e3e3;}</style>
    <style
       id="style1399-1-4">.cls-1{fill:#e3e3e3;}</style>
    <style
       id="style1399-5-8-81">.cls-1{fill:#e3e3e3;}</style>
    <style
       id="style1399-8-2">.cls-1{fill:#e3e3e3;}</style>
    <style
       id="style1399-7-8-8">.cls-1{fill:#e3e3e3;}</style>
    <style
       id="style1399-1-5-9">.cls-1{fill:#e3e3e3;}</style>
    <style
       id="style1399-5-6-3">.cls-1{fill:#e3e3e3;}</style>
    <style
       id="style1399-8-9-6">.cls-1{fill:#e3e3e3;}</style>
    <style
       id="style1399-2-8">.cls-1{fill:#e3e3e3;}</style>
    <style
       id="style1399-1-1-0">.cls-1{fill:#e3e3e3;}</style>
    <style
       id="style1399-5-5-2">.cls-1{fill:#e3e3e3;}</style>
    <style
       id="style1399-8-99-1">.cls-1{fill:#e3e3e3;}</style>
    <style
       id="style857-0">.cls-1{fill:#e52120;}.cls-1,.cls-2,.cls-3,.cls-4,.cls-5{stroke:#000;stroke-miterlimit:10;stroke-width:1.2px;}.cls-2{fill:#6dbc88;}.cls-3{fill:#701034;}.cls-4{fill:#51aae0;}.cls-5{fill:none;}</style>
    <style
       id="style1399-46">.cls-1{fill:#e3e3e3;}</style>
    <style
       id="style1399-72">.cls-1{fill:#e3e3e3;}</style>
    <style
       id="style1399-4-40">.cls-1{fill:#e3e3e3;}</style>
    <style
       id="style1399-5-62">.cls-1{fill:#e3e3e3;}</style>
    <style
       id="style1399-7-9">.cls-1{fill:#e3e3e3;}</style>
    <style
       id="style1399-3-9">.cls-1{fill:#e3e3e3;}</style>
    <style
       id="style1399-1-0">.cls-1{fill:#e3e3e3;}</style>
    <style
       id="style1399-5-8-813">.cls-1{fill:#e3e3e3;}</style>
    <style
       id="style1399-8-1">.cls-1{fill:#e3e3e3;}</style>
    <style
       id="style1399-7-8-1">.cls-1{fill:#e3e3e3;}</style>
    <style
       id="style1399-1-5-0">.cls-1{fill:#e3e3e3;}</style>
    <style
       id="style1399-5-6-34">.cls-1{fill:#e3e3e3;}</style>
    <style
       id="style1399-8-9-0">.cls-1{fill:#e3e3e3;}</style>
    <style
       id="style1399-2-3">.cls-1{fill:#e3e3e3;}</style>
    <style
       id="style1399-1-1-9">.cls-1{fill:#e3e3e3;}</style>
    <style
       id="style1399-5-5-1">.cls-1{fill:#e3e3e3;}</style>
    <style
       id="style1399-8-99-96">.cls-1{fill:#e3e3e3;}</style>
    <style
       id="style857-9">.cls-1{fill:#e52120;}.cls-1,.cls-2,.cls-3,.cls-4,.cls-5{stroke:#000;stroke-miterlimit:10;stroke-width:1.2px;}.cls-2{fill:#6dbc88;}.cls-3{fill:#701034;}.cls-4{fill:#51aae0;}.cls-5{fill:none;}</style>
    <style
       id="style1399-0">.cls-1{fill:#e3e3e3;}</style>
    <style
       id="style1399-6">.cls-1{fill:#e3e3e3;}</style>
    <style
       id="style1399-4-9">.cls-1{fill:#e3e3e3;}</style>
    <style
       id="style1399-5-87">.cls-1{fill:#e3e3e3;}</style>
    <style
       id="style1399-7-2">.cls-1{fill:#e3e3e3;}</style>
    <style
       id="style1399-3-82">.cls-1{fill:#e3e3e3;}</style>
    <style
       id="style1399-1-9">.cls-1{fill:#e3e3e3;}</style>
    <style
       id="style1399-5-8-9">.cls-1{fill:#e3e3e3;}</style>
    <style
       id="style1399-8-6">.cls-1{fill:#e3e3e3;}</style>
    <style
       id="style1399-7-8-0">.cls-1{fill:#e3e3e3;}</style>
    <style
       id="style1399-1-5-2">.cls-1{fill:#e3e3e3;}</style>
    <style
       id="style1399-5-6-7">.cls-1{fill:#e3e3e3;}</style>
    <style
       id="style1399-8-9-61">.cls-1{fill:#e3e3e3;}</style>
    <style
       id="style1399-2-32">.cls-1{fill:#e3e3e3;}</style>
    <style
       id="style1399-1-1-1">.cls-1{fill:#e3e3e3;}</style>
    <style
       id="style1399-5-5-5">.cls-1{fill:#e3e3e3;}</style>
    <style
       id="style1399-8-99-99">.cls-1{fill:#e3e3e3;}</style>
    <style
       id="style857-1">.cls-1{fill:#e52120;}.cls-1,.cls-2,.cls-3,.cls-4,.cls-5{stroke:#000;stroke-miterlimit:10;stroke-width:1.2px;}.cls-2{fill:#6dbc88;}.cls-3{fill:#701034;}.cls-4{fill:#51aae0;}.cls-5{fill:none;}</style>
  </defs>
  <sodipodi:namedview
     id="base"
     pagecolor="#ffffff"
     bordercolor="#666666"
     borderopacity="1.0"
     inkscape:pageopacity="0.0"
     inkscape:pageshadow="2"
     inkscape:zoom="11.313709"
     inkscape:cx="7.258202"
     inkscape:cy="14.375785"
     inkscape:document-units="mm"
     inkscape:current-layer="svg8"
     showgrid="false"
     units="px"
     inkscape:window-width="1920"
     inkscape:window-height="1043"
     inkscape:window-x="0"
     inkscape:window-y="120"
     inkscape:window-maximized="1">
    <sodipodi:guide
       position="8.4666666,0"
       orientation="-32,0"
       id="guide854"
       inkscape:locked="false" />
    <sodipodi:guide
       position="8.4666666,8.4686855"
       orientation="0,-32"
       id="guide856"
       inkscape:locked="false" />
    <sodipodi:guide
       position="0,8.4666814"
       orientation="32,0"
       id="guide858"
       inkscape:locked="false" />
  </sodipodi:namedview>
  <metadata
     id="metadata5">
    <rdf:RDF>
      <cc:Work
         rdf:about="">
        <dc:format>image/svg+xml</dc:format>
        <dc:type
           rdf:resource="http://purl.org/dc/dcmitype/StillImage" />
        <dc:title></dc:title>
      </cc:Work>
    </rdf:RDF>
  </metadata>
  <style
     type="text/css"
     id="style815">
	.st0{fill:#00005B;}
	.st1{fill:#9999FF;}
</style>
  <style
     id="style815-4"
     type="text/css">
	.st0{fill:#00005B;}
	.st1{fill:#9999FF;}
</style>
  <style
     id="style815-5"
     type="text/css">
	.st0{fill:#00005B;}
	.st1{fill:#9999FF;}
</style>
  <style
     id="style815-6"
     type="text/css">
	.st0{fill:#00005B;}
	.st1{fill:#9999FF;}
</style>
  <path
     style="fill:#e3e3e3;fill-opacity:1;stroke-width:0.06219987"
     d="M 1.4492188 -0.0078125 C 0.62196105 -0.0078125 -0.04296875 0.6571173 -0.04296875 1.484375 L -0.04296875 22.384766 C -0.04296875 23.212024 0.62196105 23.876953 1.4492188 23.876953 L 1.9472656 23.876953 L 1.9472656 22.632812 C 1.9472656 22.222294 2.2828396 21.886719 2.6933594 21.886719 L 5.1816406 21.886719 C 5.5921593 21.886719 5.9277344 22.222294 5.9277344 22.632812 L 5.9277344 23.876953 L 12.757812 23.876953 C 12.754169 23.764739 12.740234 23.653331 12.740234 23.541016 C 12.740234 22.646559 12.869797 21.756811 13.091797 20.890625 L 9.6601562 20.890625 C 9.2496372 20.890625 8.9140625 20.555051 8.9140625 20.144531 L 8.9140625 14.173828 C 8.9140625 13.763309 9.2496364 13.427734 9.6601562 13.427734 L 19.746094 13.427734 C 20.969033 12.963155 22.269954 12.705078 23.578125 12.705078 C 24.336346 12.705078 25.091385 12.794417 25.832031 12.955078 L 25.832031 10.691406 C 25.832031 10.280887 26.167605 9.9453125 26.578125 9.9453125 L 29.066406 9.9453125 C 29.476925 9.9453125 29.8125 10.280887 29.8125 10.691406 L 29.8125 13.179688 C 29.8125 13.590207 29.476925 13.925781 29.066406 13.925781 L 28.541016 13.925781 C 29.533271 14.435464 30.451395 15.090067 31.240234 15.878906 C 31.438135 16.076807 31.621453 16.28896 31.802734 16.501953 L 31.802734 1.484375 C 31.802734 0.6571173 31.137803 -0.0078125 30.310547 -0.0078125 L 29.8125 -0.0078125 L 29.8125 1.2363281 C 29.8125 1.6468472 29.476925 1.9824219 29.066406 1.9824219 L 26.578125 1.9824219 C 26.167606 1.9824219 25.832031 1.6468476 25.832031 1.2363281 L 25.832031 -0.0078125 L 5.9277344 -0.0078125 L 5.9277344 1.2363281 C 5.9277344 1.6468472 5.5921597 1.9824219 5.1816406 1.9824219 L 2.6933594 1.9824219 C 2.2828399 1.9824219 1.9472656 1.6468476 1.9472656 1.2363281 L 1.9472656 -0.0078125 L 1.4492188 -0.0078125 z M 9.6601562 2.9785156 L 22.099609 2.9785156 C 22.510129 2.9785156 22.845703 3.3140907 22.845703 3.7246094 L 22.845703 9.6953125 C 22.845703 10.105831 22.510129 10.441406 22.099609 10.441406 L 9.6601562 10.441406 C 9.2496372 10.441406 8.9140625 10.105832 8.9140625 9.6953125 L 8.9140625 3.7246094 C 8.9140625 3.3140911 9.2496364 2.9785156 9.6601562 2.9785156 z M 2.6933594 3.9726562 L 5.1816406 3.9726562 C 5.5921593 3.9726562 5.9277344 4.3082302 5.9277344 4.71875 L 5.9277344 7.2070312 C 5.9277344 7.6175511 5.5921597 7.953125 5.1816406 7.953125 L 2.6933594 7.953125 C 2.2828399 7.953125 1.9472656 7.6175511 1.9472656 7.2070312 L 1.9472656 4.71875 C 1.9472656 4.3082306 2.2828396 3.9726562 2.6933594 3.9726562 z M 26.578125 3.9726562 L 29.066406 3.9726562 C 29.476925 3.9726562 29.8125 4.3082302 29.8125 4.71875 L 29.8125 7.2070312 C 29.8125 7.6175511 29.476925 7.953125 29.066406 7.953125 L 26.578125 7.953125 C 26.167606 7.953125 25.832031 7.6175511 25.832031 7.2070312 L 25.832031 4.71875 C 25.832031 4.3082306 26.167605 3.9726562 26.578125 3.9726562 z M 2.6933594 9.9453125 L 5.1816406 9.9453125 C 5.5921593 9.9453125 5.9277344 10.280887 5.9277344 10.691406 L 5.9277344 13.179688 C 5.9277344 13.590207 5.5921597 13.925781 5.1816406 13.925781 L 2.6933594 13.925781 C 2.2828399 13.925781 1.9472656 13.590207 1.9472656 13.179688 L 1.9472656 10.691406 C 1.9472656 10.280887 2.2828396 9.9453125 2.6933594 9.9453125 z M 2.6933594 15.916016 L 5.1816406 15.916016 C 5.5921593 15.916016 5.9277344 16.251591 5.9277344 16.662109 L 5.9277344 19.150391 C 5.9277344 19.560909 5.5921597 19.896484 5.1816406 19.896484 L 2.6933594 19.896484 C 2.2828399 19.896484 1.9472656 19.560909 1.9472656 19.150391 L 1.9472656 16.662109 C 1.9472656 16.251591 2.2828396 15.916016 2.6933594 15.916016 z "
     transform="scale(0.26458333)"
     id="path1222" />
  <style
     id="style815-58"
     type="text/css">
	.st0{fill:#00005B;}
	.st1{fill:#9999FF;}
</style>
  <path
     inkscape:connector-curvature="0"
     style="opacity:1;fill:#d588f1;fill-opacity:1;stroke:none;stroke-width:0.77255857;stroke-linecap:round;stroke-linejoin:round;stroke-miterlimit:4;stroke-dasharray:none;stroke-dashoffset:10.3937006;stroke-opacity:1"
     d="M 6.2390492,3.9952643 A 2.2324219,2.2324219 0 0 0 4.0066273,6.2276864 2.2324219,2.2324219 0 0 0 6.2390492,8.4601085 2.2324219,2.2324219 0 0 0 8.4714716,6.2276864 2.2324219,2.2324219 0 0 0 6.2390492,3.9952643 Z M 5.0710609,4.9733115 H 5.860802 c 0.077319,-3e-6 0.1159867,0.093575 0.061316,0.1482468 L 5.1326488,5.9110268 c -0.054672,0.054671 -0.1482469,0.016 -0.1482468,-0.061315 V 5.0602429 c 10e-8,-0.047927 0.038732,-0.086931 0.086659,-0.086931 z m 1.547053,8.174e-4 H 7.407855 c 0.047925,10e-8 0.086659,0.039004 0.086659,0.086931 v 0.7894685 c 3.2e-6,0.077319 -0.093302,0.1159869 -0.1479742,0.061316 L 6.5567986,5.1223758 c -0.054671,-0.054672 -0.016,-0.1482468 0.061315,-0.1482469 z m -1.557681,1.5465084 c 0.024441,-0.00287 0.050079,0.00456 0.070581,0.025071 L 5.920755,7.3351771 c 0.054672,0.054672 0.016,0.1482467 -0.061316,0.1482467 H 5.069698 C 5.02177,7.4834236 4.983039,7.4444198 4.983039,7.3964928 V 6.6070239 c -1.8e-6,-0.048324 0.036659,-0.081593 0.077394,-0.086387 z m 2.3555975,2.724e-4 c 0.040732,0.0048 0.077121,0.038064 0.077121,0.086387 v 0.7894685 c -5e-7,0.047928 -0.038733,0.086932 -0.086659,0.086932 h -0.789469 c -0.077319,3.1e-6 -0.1162593,-0.093575 -0.061588,-0.1482468 L 7.345177,6.545981 C 7.365681,6.525477 7.391589,6.518036 7.4160304,6.5209097 Z"
     id="path2097" />
</svg>
