<?xml version="1.0" encoding="UTF-8" standalone="no"?>
<!-- Created with Inkscape (http://www.inkscape.org/) -->

<svg
   xmlns:dc="http://purl.org/dc/elements/1.1/"
   xmlns:cc="http://creativecommons.org/ns#"
   xmlns:rdf="http://www.w3.org/1999/02/22-rdf-syntax-ns#"
   xmlns:svg="http://www.w3.org/2000/svg"
   xmlns="http://www.w3.org/2000/svg"
   xmlns:sodipodi="http://sodipodi.sourceforge.net/DTD/sodipodi-0.dtd"
   xmlns:inkscape="http://www.inkscape.org/namespaces/inkscape"
   width="32"
   height="32"
   viewBox="0 0 8.4666666 8.4666666"
   version="1.1"
   id="svg8"
   inkscape:version="0.92.5 (2060ec1f9f, 2020-04-08)"
   sodipodi:docname="resize_bl.svg">
  <defs
     id="defs2">
    <style
       id="style1399">.cls-1{fill:#e3e3e3;}</style>
    <style
       id="style1399-4">.cls-1{fill:#e3e3e3;}</style>
    <style
       id="style1399-5">.cls-1{fill:#e3e3e3;}</style>
    <style
       id="style1399-7">.cls-1{fill:#e3e3e3;}</style>
    <style
       id="style1399-3">.cls-1{fill:#e3e3e3;}</style>
    <style
       id="style1399-1">.cls-1{fill:#e3e3e3;}</style>
    <style
       id="style1399-5-8">.cls-1{fill:#e3e3e3;}</style>
    <style
       id="style1399-8">.cls-1{fill:#e3e3e3;}</style>
    <style
       id="style1399-7-8">.cls-1{fill:#e3e3e3;}</style>
    <style
       id="style1399-1-5">.cls-1{fill:#e3e3e3;}</style>
    <style
       id="style1399-5-6">.cls-1{fill:#e3e3e3;}</style>
    <style
       id="style1399-8-9">.cls-1{fill:#e3e3e3;}</style>
    <style
       id="style1399-2">.cls-1{fill:#e3e3e3;}</style>
    <style
       id="style1399-1-1">.cls-1{fill:#e3e3e3;}</style>
    <style
       id="style1399-5-5">.cls-1{fill:#e3e3e3;}</style>
    <style
       id="style1399-8-99">.cls-1{fill:#e3e3e3;}</style>
    <style
       id="style857">.cls-1{fill:#e52120;}.cls-1,.cls-2,.cls-3,.cls-4,.cls-5{stroke:#000;stroke-miterlimit:10;stroke-width:1.2px;}.cls-2{fill:#6dbc88;}.cls-3{fill:#701034;}.cls-4{fill:#51aae0;}.cls-5{fill:none;}</style>
  </defs>
  <sodipodi:namedview
     id="base"
     pagecolor="#ffffff"
     bordercolor="#666666"
     borderopacity="1.0"
     inkscape:pageopacity="0.0"
     inkscape:pageshadow="2"
     inkscape:zoom="8"
     inkscape:cx="0.65891199"
     inkscape:cy="17.894305"
     inkscape:document-units="mm"
     inkscape:current-layer="svg8"
     showgrid="false"
     units="px"
     inkscape:window-width="1920"
     inkscape:window-height="1043"
     inkscape:window-x="0"
     inkscape:window-y="120"
     inkscape:window-maximized="1">
    <sodipodi:guide
       position="8.4666666,0"
       orientation="-32,0"
       id="guide854"
       inkscape:locked="false" />
    <sodipodi:guide
       position="8.4666666,8.4686855"
       orientation="0,-32"
       id="guide856"
       inkscape:locked="false" />
    <sodipodi:guide
       position="0,8.4666814"
       orientation="32,0"
       id="guide858"
       inkscape:locked="false" />
  </sodipodi:namedview>
  <metadata
     id="metadata5">
    <rdf:RDF>
      <cc:Work
         rdf:about="">
        <dc:format>image/svg+xml</dc:format>
        <dc:type
           rdf:resource="http://purl.org/dc/dcmitype/StillImage" />
        <dc:title></dc:title>
      </cc:Work>
    </rdf:RDF>
  </metadata>
  <style
     type="text/css"
     id="style815">
	.st0{fill:#00005B;}
	.st1{fill:#9999FF;}
</style>
  <path
     style="opacity:1;fill:#83d3f6;fill-opacity:1;stroke:none;stroke-width:5.53700733;stroke-linecap:round;stroke-linejoin:round;stroke-miterlimit:4;stroke-dasharray:none;stroke-dashoffset:10.3937006;stroke-opacity:1"
     d="M 16 -0.0078125 A 15.999999 15.999999 0 0 0 0 15.992188 A 15.999999 15.999999 0 0 0 16 31.992188 A 15.999999 15.999999 0 0 0 32 15.992188 A 15.999999 15.999999 0 0 0 16 -0.0078125 z M 7.6289062 7.0019531 L 13.289062 7.0019531 C 13.843213 7.0019312 14.120351 7.6726167 13.728516 8.0644531 L 8.0703125 13.722656 C 7.6784764 14.114492 7.0078121 13.837332 7.0078125 13.283203 L 7.0078125 7.625 C 7.0078133 7.2815022 7.2854077 7.0019531 7.6289062 7.0019531 z M 18.716797 7.0078125 L 24.376953 7.0078125 C 24.720451 7.0078133 24.998047 7.2873608 24.998047 7.6308594 L 24.998047 13.289062 C 24.998068 13.843213 24.329336 14.120352 23.9375 13.728516 L 18.277344 8.0703125 C 17.885508 7.6784756 18.162668 7.0078121 18.716797 7.0078125 z M 7.5527344 18.091797 C 7.7279045 18.071192 7.9116552 18.124546 8.0585938 18.271484 L 13.71875 23.929688 C 14.110586 24.321524 13.833427 24.992188 13.279297 24.992188 L 7.6191406 24.992188 C 7.2756428 24.992186 6.9980469 24.712639 6.9980469 24.369141 L 6.9980469 18.710938 C 6.9980333 18.364593 7.2607848 18.126153 7.5527344 18.091797 z M 24.435547 18.09375 C 24.727492 18.128097 24.988281 18.366561 24.988281 18.712891 L 24.988281 24.371094 C 24.988279 24.714592 24.710686 24.994141 24.367188 24.994141 L 18.708984 24.994141 C 18.154834 24.994163 17.875742 24.323477 18.267578 23.931641 L 23.927734 18.273438 C 24.074674 18.126486 24.260381 18.073152 24.435547 18.09375 z "
     transform="scale(0.26458333)"
     id="path1357" />
</svg>
