<?xml version="1.0" encoding="UTF-8" standalone="no"?>
<!-- Created with Inkscape (http://www.inkscape.org/) -->

<svg
   xmlns:dc="http://purl.org/dc/elements/1.1/"
   xmlns:cc="http://creativecommons.org/ns#"
   xmlns:rdf="http://www.w3.org/1999/02/22-rdf-syntax-ns#"
   xmlns:svg="http://www.w3.org/2000/svg"
   xmlns="http://www.w3.org/2000/svg"
   xmlns:sodipodi="http://sodipodi.sourceforge.net/DTD/sodipodi-0.dtd"
   xmlns:inkscape="http://www.inkscape.org/namespaces/inkscape"
   width="32"
   height="32"
   viewBox="0 0 8.4666666 8.4666666"
   version="1.1"
   id="svg8"
   inkscape:version="0.92.5 (2060ec1f9f, 2020-04-08)"
   sodipodi:docname="savefileas_bl.svg">
  <defs
     id="defs2" />
  <sodipodi:namedview
     id="base"
     pagecolor="#ffffff"
     bordercolor="#666666"
     borderopacity="1.0"
     inkscape:pageopacity="0.0"
     inkscape:pageshadow="2"
     inkscape:zoom="11.313708"
     inkscape:cx="-21.59269"
     inkscape:cy="14.68859"
     inkscape:document-units="mm"
     inkscape:current-layer="svg8"
     showgrid="false"
     units="px"
     inkscape:window-width="1920"
     inkscape:window-height="1043"
     inkscape:window-x="0"
     inkscape:window-y="120"
     inkscape:window-maximized="1">
    <sodipodi:guide
       position="8.4666666,0"
       orientation="-32,0"
       id="guide854"
       inkscape:locked="false" />
    <sodipodi:guide
       position="8.4666666,8.4666666"
       orientation="0,-32"
       id="guide856"
       inkscape:locked="false" />
    <sodipodi:guide
       position="0,8.4666814"
       orientation="32,0"
       id="guide858"
       inkscape:locked="false" />
  </sodipodi:namedview>
  <metadata
     id="metadata5">
    <rdf:RDF>
      <cc:Work
         rdf:about="">
        <dc:format>image/svg+xml</dc:format>
        <dc:type
           rdf:resource="http://purl.org/dc/dcmitype/StillImage" />
        <dc:title></dc:title>
      </cc:Work>
    </rdf:RDF>
  </metadata>
  <path
     style="fill:#e3e3e3;fill-opacity:1;stroke-width:0.06233934"
     d="M 9.5585938 0.083984375 C 8.7294814 0.083984375 8.0625 0.75096551 8.0625 1.5800781 L 8.0625 10.576172 C 10.490709 10.633532 12.915698 11.587563 14.763672 13.435547 C 18.574052 17.245952 18.574063 23.480645 14.763672 27.291016 C 12.915803 29.138898 10.497759 30.081126 8.0625 30.136719 L 8.0625 30.505859 C 8.0625 31.334972 8.7294814 32.001953 9.5585938 32.001953 L 30.503906 32.001953 C 31.333019 32.001953 32 31.334972 32 30.505859 L 32 10.058594 L 23.521484 10.058594 C 22.698606 10.058594 22.025391 9.3853859 22.025391 8.5625 L 22.025391 0.083984375 L 9.5585938 0.083984375 z M 24.021484 0.083984375 L 24.021484 8.0644531 L 32 8.0644531 L 32 7.6835938 C 32 7.290868 31.844989 6.9114326 31.564453 6.6308594 L 25.460938 0.52148438 C 25.18041 0.24076238 24.799362 0.083984375 24.400391 0.083984375 L 24.021484 0.083984375 z "
     transform="scale(0.26458333)"
     id="path823" />
  <path
     style="fill:#8ad891;fill-opacity:1;stroke-width:0.06233934"
     d="M 7.8320312 12.550781 C 5.8325714 12.550819 3.8341268 13.312361 2.3085938 14.837891 C -0.74244614 17.888915 -0.74244917 22.835657 2.3085938 25.886719 C 5.3596375 28.937742 10.306382 28.93778 13.357422 25.886719 C 16.408462 22.835695 16.408465 17.888953 13.357422 14.837891 C 11.8319 13.312361 9.8314652 12.550781 7.8320312 12.550781 z M 7.8457031 15.660156 C 9.039956 15.663956 10.233358 16.123987 11.144531 17.035156 C 12.032718 17.923345 12.489229 19.078321 12.515625 20.242188 L 13.470703 20.242188 C 13.874838 20.242224 14.07671 20.731883 13.791016 21.017578 L 11.998047 22.808594 C 11.820859 22.985854 11.534595 22.985891 11.357422 22.808594 L 9.5644531 21.017578 C 9.278649 20.731846 9.4825021 20.242188 9.8867188 20.242188 L 11.001953 20.242188 C 10.975343 19.433028 10.648103 18.676316 10.072266 18.101562 C 9.0361357 17.066957 7.4327071 16.883142 6.2011719 17.621094 C 6.1115929 17.674764 5.9957799 17.661571 5.921875 17.587891 L 5.15625 16.822266 C 5.0560283 16.722108 5.070614 16.554357 5.1875 16.474609 C 5.9859505 15.929223 6.9168351 15.658709 7.8457031 15.662109 L 7.8457031 15.660156 z M 4.9082031 18.791016 C 5.0268916 18.809916 5.1286056 18.894811 5.1582031 19.019531 L 5.6464844 21.011719 L 7.0664062 19.529297 C 7.1840856 19.406462 7.3796837 19.404056 7.5 19.525391 L 7.8476562 19.875 C 7.9679888 19.995189 7.9665771 20.190977 7.84375 20.308594 L 6.3632812 21.728516 L 8.3554688 22.216797 C 8.520634 22.257237 8.6202374 22.425434 8.5761719 22.589844 L 8.4492188 23.066406 C 8.4051568 23.230816 8.2336278 23.32497 8.0703125 23.277344 L 6.0996094 22.705078 L 6.6738281 24.675781 C 6.7213071 24.839435 6.6254561 25.008518 6.4609375 25.052734 L 5.984375 25.181641 C 5.8199844 25.225861 5.6519429 25.12415 5.6113281 24.958984 L 5.1230469 22.966797 L 3.703125 24.449219 C 3.5854381 24.572053 3.3898476 24.574469 3.2695312 24.453125 L 2.921875 24.103516 C 2.80155 23.983327 2.8029543 23.787576 2.9257812 23.669922 L 4.4082031 22.251953 L 2.4160156 21.761719 C 2.2506008 21.721289 2.1492976 21.553081 2.1933594 21.388672 L 2.3222656 20.912109 C 2.3663276 20.7477 2.5358789 20.651597 2.6992188 20.699219 L 4.6699219 21.273438 L 4.0957031 19.302734 C 4.0482251 19.139081 4.1443661 18.969628 4.3085938 18.925781 L 4.7851562 18.796875 C 4.8269272 18.785535 4.8687262 18.787316 4.9082031 18.791016 z "
     transform="scale(0.26458333)"
     id="path819" />
</svg>
