<?xml version="1.0" encoding="UTF-8" standalone="no"?>
<!-- Created with Inkscape (http://www.inkscape.org/) -->

<svg
   xmlns:dc="http://purl.org/dc/elements/1.1/"
   xmlns:cc="http://creativecommons.org/ns#"
   xmlns:rdf="http://www.w3.org/1999/02/22-rdf-syntax-ns#"
   xmlns:svg="http://www.w3.org/2000/svg"
   xmlns="http://www.w3.org/2000/svg"
   xmlns:sodipodi="http://sodipodi.sourceforge.net/DTD/sodipodi-0.dtd"
   xmlns:inkscape="http://www.inkscape.org/namespaces/inkscape"
   width="32"
   height="32"
   viewBox="0 0 8.4666666 8.4666666"
   version="1.1"
   id="svg8"
   inkscape:version="0.92.5 (2060ec1f9f, 2020-04-08)"
   sodipodi:docname="save-list-file-preset_sl.svg">
  <defs
     id="defs2" />
  <sodipodi:namedview
     id="base"
     pagecolor="#ffffff"
     bordercolor="#666666"
     borderopacity="1.0"
     inkscape:pageopacity="0.0"
     inkscape:pageshadow="2"
     inkscape:zoom="5.656854"
     inkscape:cx="28.05631"
     inkscape:cy="-14.991644"
     inkscape:document-units="mm"
     inkscape:current-layer="svg8"
     showgrid="false"
     units="px"
     inkscape:window-width="1920"
     inkscape:window-height="1043"
     inkscape:window-x="0"
     inkscape:window-y="120"
     inkscape:window-maximized="1">
    <sodipodi:guide
       position="8.4666666,0"
       orientation="-32,0"
       id="guide854"
       inkscape:locked="false" />
    <sodipodi:guide
       position="8.4666666,8.4666666"
       orientation="0,-32"
       id="guide856"
       inkscape:locked="false" />
    <sodipodi:guide
       position="0,8.4666814"
       orientation="32,0"
       id="guide858"
       inkscape:locked="false" />
  </sodipodi:namedview>
  <metadata
     id="metadata5">
    <rdf:RDF>
      <cc:Work
         rdf:about="">
        <dc:format>image/svg+xml</dc:format>
        <dc:type
           rdf:resource="http://purl.org/dc/dcmitype/StillImage" />
        <dc:title></dc:title>
      </cc:Work>
    </rdf:RDF>
  </metadata>
  <path
     style="fill:#d588f1;fill-opacity:1;stroke-width:0.06248856"
     d="M 9.5058594 0 C 8.6747628 0 8.0058594 0.66890294 8.0058594 1.5 L 8.0058594 8.5917969 C 9.810976 9.0866089 11.519002 10.042441 12.925781 11.449219 C 14.438523 12.961938 15.231642 14.849906 15.685547 16.800781 C 17.135895 16.817598 18.32895 17.852659 18.689453 19.117188 L 27.896484 19.117188 C 28.233274 19.117188 28.505859 19.389773 28.505859 19.726562 L 28.505859 21.353516 C 28.505859 21.690306 28.233271 21.962891 27.896484 21.962891 L 18.041016 21.962891 C 17.987068 22.027083 17.946379 22.100547 17.886719 22.160156 L 14.527344 25.519531 C 13.316995 26.730349 11.286377 26.72964 10.076172 25.519531 L 8.0058594 23.449219 L 8.0058594 30.494141 C 8.0058594 31.325238 8.6747628 31.994141 9.5058594 31.994141 L 30.501953 31.994141 C 31.33305 31.994141 32 31.325238 32 30.494141 L 32 9.9980469 L 23.503906 9.9980469 C 22.679058 9.9980469 22.003906 9.3229027 22.003906 8.4980469 L 22.003906 0 L 9.5058594 0 z M 24.001953 0 L 24.001953 8 L 32 8 L 32 7.6171875 C 32 7.2235221 31.843706 6.8417902 31.5625 6.5605469 L 25.445312 0.4375 C 25.164114 0.15610612 24.782739 -3.7007434e-17 24.382812 0 L 24.001953 0 z M 17.732422 14.238281 L 27.896484 14.238281 C 28.233274 14.238281 28.505859 14.510867 28.505859 14.847656 L 28.505859 16.474609 C 28.505859 16.811396 28.233271 17.083984 27.896484 17.083984 L 17.732422 17.083984 C 17.395632 17.083984 17.123047 16.811399 17.123047 16.474609 L 17.123047 14.847656 C 17.123047 14.51087 17.395631 14.238281 17.732422 14.238281 z M 17.732422 23.996094 L 27.896484 23.996094 C 28.233274 23.996094 28.505859 24.268679 28.505859 24.605469 L 28.505859 26.232422 C 28.505859 26.569212 28.233271 26.841797 27.896484 26.841797 L 17.732422 26.841797 C 17.395632 26.841797 17.123047 26.569212 17.123047 26.232422 L 17.123047 24.605469 C 17.123047 24.268683 17.395631 23.996094 17.732422 23.996094 z "
     transform="scale(0.26458333)"
     id="path1112" />
  <path
     sodipodi:nodetypes="sccccccccccccccs"
     inkscape:connector-curvature="0"
     id="path932"
     d="m 4.3673078,5.2491059 c 0.00743,0.063391 -0.012049,0.13085 -0.065251,0.1840066 L 3.4134427,6.3217264 c -0.087837,0.087871 -0.2299369,0.088342 -0.3177995,4.864e-4 L 2.2065573,5.4331228 C 2.0648215,5.2913807 2.1657433,5.0486758 2.3661672,5.0486654 H 2.9191387 C 2.9059616,4.6473706 2.7437621,4.2723721 2.4581728,3.9873096 1.9442975,3.4742013 1.1485452,3.3828474 0.53776775,3.7488374 0.4932109,3.7754338 0.43686114,3.7690175 0.40022605,3.7324346 L 0.01999572,3.3522047 C -0.02968849,3.3024788 -0.02209999,3.219585 0.03594183,3.1799181 0.94109694,2.5616403 2.1861453,2.6548932 2.9895374,3.4582849 3.4300503,3.8987913 3.6566441,4.4714516 3.6697291,5.048681 h 0.4736511 c 0.1252872,0 0.2115604,0.094779 0.2239122,0.2004508 z"
     style="fill:#d588f1;fill-opacity:1;stroke:none;stroke-width:1.42162335;stroke-miterlimit:4;stroke-dasharray:none;stroke-opacity:1" />
</svg>
