<?xml version="1.0" encoding="UTF-8" standalone="no"?>
<!-- Created with Inkscape (http://www.inkscape.org/) -->

<svg
   xmlns:dc="http://purl.org/dc/elements/1.1/"
   xmlns:cc="http://creativecommons.org/ns#"
   xmlns:rdf="http://www.w3.org/1999/02/22-rdf-syntax-ns#"
   xmlns:svg="http://www.w3.org/2000/svg"
   xmlns="http://www.w3.org/2000/svg"
   xmlns:sodipodi="http://sodipodi.sourceforge.net/DTD/sodipodi-0.dtd"
   xmlns:inkscape="http://www.inkscape.org/namespaces/inkscape"
   width="32"
   height="32"
   viewBox="0 0 8.4666666 8.4666666"
   version="1.1"
   id="svg8"
   inkscape:version="0.92.5 (2060ec1f9f, 2020-04-08)"
   sodipodi:docname="save-list-file-preset_bl.svg">
  <defs
     id="defs2" />
  <sodipodi:namedview
     id="base"
     pagecolor="#ffffff"
     bordercolor="#666666"
     borderopacity="1.0"
     inkscape:pageopacity="0.0"
     inkscape:pageshadow="2"
     inkscape:zoom="11.313708"
     inkscape:cx="31.97037"
     inkscape:cy="13.073214"
     inkscape:document-units="mm"
     inkscape:current-layer="svg8"
     showgrid="false"
     units="px"
     inkscape:window-width="1920"
     inkscape:window-height="1043"
     inkscape:window-x="0"
     inkscape:window-y="120"
     inkscape:window-maximized="1"
     inkscape:snap-global="true"
     inkscape:snap-bbox="true"
     inkscape:snap-nodes="false"
     inkscape:bbox-paths="true"
     inkscape:bbox-nodes="true"
     inkscape:snap-bbox-edge-midpoints="true"
     inkscape:snap-bbox-midpoints="true">
    <sodipodi:guide
       position="8.4666666,0"
       orientation="-32,0"
       id="guide854"
       inkscape:locked="false" />
    <sodipodi:guide
       position="8.4666666,8.4666666"
       orientation="0,-32"
       id="guide856"
       inkscape:locked="false" />
    <sodipodi:guide
       position="0,8.4666814"
       orientation="32,0"
       id="guide858"
       inkscape:locked="false" />
  </sodipodi:namedview>
  <metadata
     id="metadata5">
    <rdf:RDF>
      <cc:Work
         rdf:about="">
        <dc:format>image/svg+xml</dc:format>
        <dc:type
           rdf:resource="http://purl.org/dc/dcmitype/StillImage" />
        <dc:title></dc:title>
      </cc:Work>
    </rdf:RDF>
  </metadata>
  <path
     style="fill:#e3e3e3;fill-opacity:1;stroke-width:0.06248856"
     d="M 9.5058594 0 C 8.6747628 0 8.0058594 0.66890294 8.0058594 1.5 L 8.0058594 10.5 C 8.0071597 10.5 8.0084653 10.499999 8.0097656 10.5 C 10.641896 10.501279 13.256849 11.583258 15.117188 13.445312 C 15.9576 14.286501 16.629139 15.28661 17.123047 16.367188 L 17.123047 14.847656 C 17.123047 14.51087 17.395631 14.238281 17.732422 14.238281 L 27.896484 14.238281 C 28.233274 14.238281 28.505859 14.510867 28.505859 14.847656 L 28.505859 16.474609 C 28.505859 16.811396 28.233271 17.083984 27.896484 17.083984 L 17.732422 17.083984 C 17.594872 17.083984 17.475126 17.030008 17.373047 16.953125 C 17.641055 17.650887 17.828264 18.377979 17.9375 19.117188 L 27.896484 19.117188 C 28.233274 19.117188 28.505859 19.389773 28.505859 19.726562 L 28.505859 21.353516 C 28.505859 21.690306 28.233271 21.962891 27.896484 21.962891 L 17.941406 21.962891 C 17.834404 22.700211 17.647446 23.424212 17.382812 24.121094 C 17.483127 24.048684 17.599335 23.996094 17.732422 23.996094 L 27.896484 23.996094 C 28.233274 23.996094 28.505859 24.268679 28.505859 24.605469 L 28.505859 26.232422 C 28.505859 26.569212 28.233271 26.841797 27.896484 26.841797 L 17.732422 26.841797 C 17.395632 26.841797 17.123047 26.569212 17.123047 26.232422 L 17.123047 24.740234 C 16.629338 25.822228 15.958193 26.823057 15.117188 27.664062 C 13.258923 29.522326 10.645535 30.59816 8.0175781 30.601562 C 8.0733628 31.381063 8.711648 31.994141 9.5058594 31.994141 L 30.501953 31.994141 C 31.333052 31.994141 32 31.325238 32 30.494141 L 32 9.9980469 L 23.503906 9.9980469 C 22.679058 9.9980469 22.003906 9.3229027 22.003906 8.4980469 L 22.003906 0 L 9.5058594 0 z M 24.001953 0 L 24.001953 8 L 32 8 L 32 7.6171875 C 32 7.2235221 31.843697 6.8417902 31.5625 6.5605469 L 25.445312 0.4375 C 25.164114 0.15610612 24.782739 -3.7007434e-17 24.382812 0 L 24.001953 0 z "
     transform="scale(0.26458333)"
     id="path1112" />
  <path
     inkscape:connector-curvature="0"
     id="path1128"
     d="M 4.236434,5.4376051 A 2.1182168,2.1182168 0 0 0 2.118217,3.3193898 2.1182168,2.1182168 0 0 0 0,5.4376051 2.1182168,2.1182168 0 0 0 2.118217,7.5558254 2.1182168,2.1182168 0 0 0 4.236434,5.4376051 Z m -0.6971086,0.288311 c 0.00408,0.034926 -0.00666,0.072073 -0.035941,0.1013592 L 3.0139085,6.3167486 C 2.9655231,6.365134 2.887251,6.3654342 2.8388556,6.3170138 L 2.3491214,5.8272803 C 2.2710442,5.7492032 2.32664,5.6155153 2.4370356,5.6155103 H 2.7416327 C 2.7343779,5.3944635 2.6450258,5.1879024 2.4877157,5.0308824 2.2046585,4.7482456 1.7663363,4.6979287 1.4299,4.8995263 1.405382,4.9141873 1.374318,4.9106843 1.354139,4.8904663 L 1.1446957,4.6810264 c -0.02737,-0.02737 -0.023182,-0.073049 0.00879,-0.0949 0.4985863,-0.3405638 1.1843988,-0.2891962 1.6269327,0.1533327 0.2426476,0.2426426 0.3674597,0.5580835 0.37467,0.8760412 h 0.2608985 c 0.069013,0 0.1165332,0.052208 0.1233386,0.1104108 z"
     style="fill:#d588f1;fill-opacity:1;stroke:none;stroke-width:0.78307319;stroke-miterlimit:4;stroke-dasharray:none;stroke-opacity:1" />
</svg>
