<?xml version="1.0" encoding="UTF-8" standalone="no"?>
<!-- Created with Inkscape (http://www.inkscape.org/) -->

<svg
   xmlns:dc="http://purl.org/dc/elements/1.1/"
   xmlns:cc="http://creativecommons.org/ns#"
   xmlns:rdf="http://www.w3.org/1999/02/22-rdf-syntax-ns#"
   xmlns:svg="http://www.w3.org/2000/svg"
   xmlns="http://www.w3.org/2000/svg"
   xmlns:sodipodi="http://sodipodi.sourceforge.net/DTD/sodipodi-0.dtd"
   xmlns:inkscape="http://www.inkscape.org/namespaces/inkscape"
   width="32"
   height="32"
   viewBox="0 0 8.4666666 8.4666666"
   version="1.1"
   id="svg8"
   inkscape:version="0.92.5 (2060ec1f9f, 2020-04-08)"
   sodipodi:docname="saveas-list-file-preset_bl.svg">
  <defs
     id="defs2" />
  <sodipodi:namedview
     id="base"
     pagecolor="#ffffff"
     bordercolor="#666666"
     borderopacity="1.0"
     inkscape:pageopacity="0.0"
     inkscape:pageshadow="2"
     inkscape:zoom="11.313708"
     inkscape:cx="31.97037"
     inkscape:cy="13.073214"
     inkscape:document-units="mm"
     inkscape:current-layer="svg8"
     showgrid="false"
     units="px"
     inkscape:window-width="1920"
     inkscape:window-height="1043"
     inkscape:window-x="0"
     inkscape:window-y="120"
     inkscape:window-maximized="1"
     inkscape:snap-global="true"
     inkscape:snap-bbox="true"
     inkscape:snap-nodes="false"
     inkscape:bbox-paths="true"
     inkscape:bbox-nodes="true"
     inkscape:snap-bbox-edge-midpoints="true"
     inkscape:snap-bbox-midpoints="true">
    <sodipodi:guide
       position="8.4666666,0"
       orientation="-32,0"
       id="guide854"
       inkscape:locked="false" />
    <sodipodi:guide
       position="8.4666666,8.4666666"
       orientation="0,-32"
       id="guide856"
       inkscape:locked="false" />
    <sodipodi:guide
       position="0,8.4666814"
       orientation="32,0"
       id="guide858"
       inkscape:locked="false" />
  </sodipodi:namedview>
  <metadata
     id="metadata5">
    <rdf:RDF>
      <cc:Work
         rdf:about="">
        <dc:format>image/svg+xml</dc:format>
        <dc:type
           rdf:resource="http://purl.org/dc/dcmitype/StillImage" />
        <dc:title></dc:title>
      </cc:Work>
    </rdf:RDF>
  </metadata>
  <path
     style="fill:#e3e3e3;fill-opacity:1;stroke-width:0.06248856"
     d="M 9.5058594 0 C 8.6747628 0 8.0058594 0.66890294 8.0058594 1.5 L 8.0058594 10.5 C 8.0071597 10.5 8.0084653 10.499999 8.0097656 10.5 C 10.641896 10.501279 13.256849 11.583258 15.117188 13.445312 C 15.9576 14.286501 16.629139 15.28661 17.123047 16.367188 L 17.123047 14.847656 C 17.123047 14.51087 17.395631 14.238281 17.732422 14.238281 L 27.896484 14.238281 C 28.233274 14.238281 28.505859 14.510867 28.505859 14.847656 L 28.505859 16.474609 C 28.505859 16.811396 28.233271 17.083984 27.896484 17.083984 L 17.732422 17.083984 C 17.594872 17.083984 17.475126 17.030008 17.373047 16.953125 C 17.641055 17.650887 17.828264 18.377979 17.9375 19.117188 L 27.896484 19.117188 C 28.233274 19.117188 28.505859 19.389773 28.505859 19.726562 L 28.505859 21.353516 C 28.505859 21.690306 28.233271 21.962891 27.896484 21.962891 L 17.941406 21.962891 C 17.834404 22.700211 17.647446 23.424212 17.382812 24.121094 C 17.483127 24.048684 17.599335 23.996094 17.732422 23.996094 L 27.896484 23.996094 C 28.233274 23.996094 28.505859 24.268679 28.505859 24.605469 L 28.505859 26.232422 C 28.505859 26.569212 28.233271 26.841797 27.896484 26.841797 L 17.732422 26.841797 C 17.395632 26.841797 17.123047 26.569212 17.123047 26.232422 L 17.123047 24.740234 C 16.629338 25.822228 15.958193 26.823057 15.117188 27.664062 C 13.258923 29.522326 10.645535 30.59816 8.0175781 30.601562 C 8.0733628 31.381063 8.711648 31.994141 9.5058594 31.994141 L 30.501953 31.994141 C 31.333052 31.994141 32 31.325238 32 30.494141 L 32 9.9980469 L 23.503906 9.9980469 C 22.679058 9.9980469 22.003906 9.3229027 22.003906 8.4980469 L 22.003906 0 L 9.5058594 0 z M 24.001953 0 L 24.001953 8 L 32 8 L 32 7.6171875 C 32 7.2235221 31.843697 6.8417902 31.5625 6.5605469 L 25.445312 0.4375 C 25.164114 0.15610612 24.782739 -3.7007434e-17 24.382812 0 L 24.001953 0 z "
     transform="scale(0.26458333)"
     id="path1112" />
  <path
     inkscape:connector-curvature="0"
     id="path1058"
     d="m 2.1196716,3.3224002 c -0.5417018,0 -1.0832438,0.2065537 -1.49654829,0.6198583 -0.82660913,0.826609 -0.8266092,2.1670043 0,2.9936133 0.82660899,0.8266091 2.16674589,0.8266091 2.99335489,0 0.8266092,-0.826609 0.8266092,-2.1670043 0,-2.9936133 C 3.2031737,3.5289539 2.6613734,3.3224002 2.1196716,3.3224002 Z m 0.00362,0.8428419 c 0.3235525,0.00118 0.646882,0.1252088 0.8937432,0.3720701 0.2406336,0.2406336 0.3644002,0.5536145 0.3715533,0.8689384 h 0.2586403 c 0.109503,7e-7 0.1642586,0.1326223 0.086816,0.2100646 L 3.2485418,6.1018149 c -0.048002,0.048002 -0.1256313,0.048001 -0.1736327,0 L 2.5891511,5.6163152 C 2.5117187,5.5388828 2.5669741,5.4062574 2.6764841,5.4062506 H 2.9785326 C 2.9713267,5.1870332 2.8826159,4.9824227 2.7266103,4.8267 2.4458929,4.5464073 2.0114907,4.4965459 1.6778379,4.6964755 c -0.024277,0.014543 -0.055425,0.010721 -0.075448,-0.0093 L 1.3949096,4.4796934 C 1.3677564,4.4525401 1.3717202,4.4073127 1.4034358,4.3856423 1.6197604,4.2378792 1.871636,4.1643263 2.123288,4.1652425 Z M 1.327472,5.0129933 c 0.032134,0.00466 0.059723,0.028172 0.067954,0.061753 L 1.5277181,5.6145065 1.9124488,5.2132394 c 0.03189,-0.033291 0.084965,-0.033891 0.1175636,-0.0013 l 0.09431,0.094309 c 0.032602,0.032601 0.032002,0.085663 -0.0013,0.1175638 L 1.7217582,5.8085469 2.261518,5.9408384 c 0.044781,0.010974 0.071859,0.056514 0.059945,0.1010274 L 2.28684,6.1707984 C 2.274911,6.2153314 2.228793,6.2412944 2.1845207,6.2284174 L 1.6507032,6.07313 1.8059907,6.6069471 c 0.012884,0.044265 -0.01307,0.09037 -0.057619,0.1023192 L 1.619439,6.7438895 C 1.574926,6.7558035 1.529387,6.7287195 1.5184116,6.6839445 L 1.3858617,6.144185 1.0013893,6.5454522 c -0.0318928,0.033288 -0.0849648,0.033891 -0.11756376,0.0013 L 0.78952129,6.4524391 C 0.75692224,6.4198401 0.7575191,6.3667765 0.79081319,6.3348753 L 1.1920804,5.950403 0.65232047,5.8178531 C 0.60754226,5.8068816 0.58046182,5.7613388 0.59237585,5.7168257 L 0.62699904,5.5878932 C 0.6389283,5.54336 0.68504567,5.5173968 0.72931828,5.530274 L 1.2631354,5.6855615 1.1078479,5.1517444 C 1.0949637,5.1074789 1.120954,5.0613392 1.165467,5.0494252 L 1.2943996,5.014802 c 0.011128,-0.00298 0.022361,-0.00336 0.033073,-0.00181 z"
     style="fill:#8ad891;fill-opacity:1;stroke:none;stroke-width:0.78249937;stroke-miterlimit:4;stroke-dasharray:none;stroke-opacity:1" />
</svg>
