<svg id="Calque_1" data-name="Calque 1" xmlns="http://www.w3.org/2000/svg" viewBox="0 0 32 32"><defs><style>.cls-1{fill:#e3e3e3;}</style></defs><title>savecopy_l</title><path class="cls-1" d="M22.55,25.13a1,1,0,0,1-.29.7,1,1,0,0,1-.7.29H10.32a1,1,0,0,1-.7-.29,1,1,0,0,1-.29-.7V9.93a1,1,0,0,1,.29-.7.93.93,0,0,1,.7-.29h3V21.16a2.32,2.32,0,0,0,2.31,2.32h6.94ZM22.55,5H15.61a1,1,0,0,0-1,1v15.2a1,1,0,0,0,.29.71,1,1,0,0,0,.7.29H26.85a1,1,0,0,0,.7-.29,1,1,0,0,0,.29-.71V10.26h-4.3a1,1,0,0,1-1-1Zm2.27.29a1,1,0,0,0-.7-.29h-.25v4h4V8.69a1,1,0,0,0-.29-.7Z"/><path class="cls-1" d="M5.31,10.25a.61.61,0,0,1,.43-.17.59.59,0,0,1,.42.17L11,15.09a.58.58,0,0,1,.18.43.58.58,0,0,1-.18.42L6.16,20.78a.56.56,0,0,1-.42.18.58.58,0,0,1-.43-.18l-.54-.55a.48.48,0,0,1-.19-.42.63.63,0,0,1,.19-.43l3-2.87H.6a.57.57,0,0,1-.43-.17A.61.61,0,0,1,0,15.92v-.8a.61.61,0,0,1,.17-.43.61.61,0,0,1,.43-.17H7.76l-3-2.87a.63.63,0,0,1-.19-.42.5.5,0,0,1,.19-.43Z"/></svg>