<svg id="Calque_1" data-name="Calque 1" xmlns="http://www.w3.org/2000/svg" viewBox="0 0 32 32"><defs><style>.cls-1{fill:#e3e3e3;}</style></defs><title>searchreplace_l</title><path class="cls-1" d="M19.17,15.53c0-2.44-1.11-4.48-4.58-4.48l-.63,0A5.06,5.06,0,0,0,11.21,14,5.73,5.73,0,0,1,14,13.26c1.6,0,1.89.79,1.89,1.34v.15a7.42,7.42,0,0,0-5,1.38,5.08,5.08,0,0,0,5,4.68h0l.18-.17h.06l0,.14a5.06,5.06,0,0,0,2.93-1.14V15.53ZM16,17.9a2.44,2.44,0,0,1-.06.55,1.78,1.78,0,0,1-1.69,1.19A1.16,1.16,0,0,1,13,18.41c0-1.26,1.32-1.66,3-1.64Z"/><path class="cls-1" d="M5.6,22.66a1.18,1.18,0,0,1,.87-.35h.81A10.29,10.29,0,0,1,5,15.79a10.3,10.3,0,0,1,1.43-5.32,10.71,10.71,0,0,1,3.84-3.84A10.27,10.27,0,0,1,15.63,5.2,10.3,10.3,0,0,1,21,6.63a10.71,10.71,0,0,1,3.84,3.84,10.3,10.3,0,0,1,1.43,5.32,10.3,10.3,0,0,1-1.43,5.32A10.71,10.71,0,0,1,21,25a10.3,10.3,0,0,1-5.32,1.43,10.29,10.29,0,0,1-6.52-2.24V25a1.22,1.22,0,0,1-.35.87L3.67,30.91a1.19,1.19,0,0,1-.87.36,1.15,1.15,0,0,1-.86-.36L.51,29.48a1.15,1.15,0,0,1-.36-.86,1.19,1.19,0,0,1,.36-.87Zm13.31-1.22a6.45,6.45,0,0,0,3.23-5.65,6.47,6.47,0,0,0-6.51-6.52,6.41,6.41,0,0,0-3.28.87A6.34,6.34,0,0,0,10,12.51a6.62,6.62,0,0,0,0,6.56,6.34,6.34,0,0,0,2.37,2.37,6.62,6.62,0,0,0,6.56,0Z"/><path class="cls-1" d="M32.44,5.36a.82.82,0,0,1-.1.4.26.26,0,0,1-.23.16,2,2,0,0,0-2.24,2.23v5.2h1a.26.26,0,0,1,.23.16.8.8,0,0,1,.09.39v1.86a.8.8,0,0,1-.09.39.26.26,0,0,1-.23.16h-1v5.2a2.08,2.08,0,0,0,.85,1.9,2.24,2.24,0,0,0,1.39.33.26.26,0,0,1,.23.16.82.82,0,0,1,.1.4v1.85a.82.82,0,0,1-.1.4.28.28,0,0,1-.23.16,4.15,4.15,0,0,1-1.52-.23A3.39,3.39,0,0,1,29,25a3.34,3.34,0,0,1-1.6,1.53,4.15,4.15,0,0,1-1.5.23.28.28,0,0,1-.23-.16.82.82,0,0,1-.09-.4V24.3a.82.82,0,0,1,.09-.4.26.26,0,0,1,.23-.16,2,2,0,0,0,2.25-2.23v-5.2h-1a.25.25,0,0,1-.22-.16.71.71,0,0,1-.1-.39V13.9a.71.71,0,0,1,.1-.39.25.25,0,0,1,.22-.16h1V8.15a2.09,2.09,0,0,0-.86-1.9,2.22,2.22,0,0,0-1.39-.33.26.26,0,0,1-.23-.16.82.82,0,0,1-.09-.4V3.51a.82.82,0,0,1,.09-.4A.28.28,0,0,1,25.91,3a4.15,4.15,0,0,1,1.52.23A3.35,3.35,0,0,1,29,4.71a3.36,3.36,0,0,1,1.61-1.53A4.05,4.05,0,0,1,32.11,3a.28.28,0,0,1,.23.16.82.82,0,0,1,.1.4Z"/></svg>