<svg id="Calque_1" data-name="Calque 1" xmlns="http://www.w3.org/2000/svg" viewBox="0 0 32 32"><defs><style>.cls-1{fill:#e3e3e3;}</style></defs><title>selectlayer_l</title><path class="cls-1" d="M13.59,16.87a2.57,2.57,0,0,1-.29-1.21,2.63,2.63,0,0,1,.81-1.91,2.63,2.63,0,0,1,3.12-.48l3.91,2a9.26,9.26,0,0,0,.39-2.64,9.44,9.44,0,1,0-5.75,8.67Z"/><path class="cls-1" d="M30.22,22a.67.67,0,0,1,.38.61,1,1,0,0,1,0,.17.7.7,0,0,1-.68.53H23.65v6.26a.7.7,0,0,1-1.32.31L15.38,16a.61.61,0,0,1-.08-.32.67.67,0,0,1,.21-.49.68.68,0,0,1,.8-.13Z"/></svg>