<svg id="Calque_1" data-name="Calque 1" xmlns="http://www.w3.org/2000/svg" viewBox="0 0 32 32"><defs><style>.cls-1{fill:#e3e3e3;}</style></defs><title>selectkey_l</title><path class="cls-1" d="M9.84,15.68A2.32,2.32,0,0,1,10.29,13,2.32,2.32,0,0,1,13,12.55l3.69,1.84-3.24-3.24V9.85L20,3.31V2H3V3.31L9.54,9.85v1.3L3,17.69V19h8.51Z"/><path class="cls-1" d="M12,16.5a1.17,1.17,0,0,1,0-1,1.52,1.52,0,0,1,.75-.75,1.2,1.2,0,0,1,1,0l11.87,5.45a1.3,1.3,0,0,1,.78,1,1.43,1.43,0,0,1-.24,1.17,1.25,1.25,0,0,1-1.08.53h-5v5a1.24,1.24,0,0,1-.53,1.08,1.47,1.47,0,0,1-1.17.25,1.33,1.33,0,0,1-1-.79Z"/></svg>