<svg id="Calque_1" data-name="Calque 1" xmlns="http://www.w3.org/2000/svg" viewBox="0 0 32 32"><defs><style>.cls-1{fill:#e3e3e3;}</style></defs><title>selectedprops_l</title><rect class="cls-1" x="12" y="4.11" width="10.52" height="10.52" rx="3.33"/><path class="cls-1" d="M19.19,19.11a2.33,2.33,0,0,1,2.33,2.33v3.85a2.34,2.34,0,0,1-2.33,2.34H15.33A2.34,2.34,0,0,1,13,25.29V21.44a2.33,2.33,0,0,1,2.33-2.33h3.86m0-1H15.33A3.33,3.33,0,0,0,12,21.44v3.85a3.34,3.34,0,0,0,3.33,3.34h3.86a3.34,3.34,0,0,0,3.33-3.34V21.44a3.33,3.33,0,0,0-3.33-3.33Z"/></svg>