<svg id="Calque_1" data-name="Calque 1" xmlns="http://www.w3.org/2000/svg" viewBox="0 0 32 32"><defs><style>.cls-1{fill:#e3e3e3;}</style></defs><title>selectedchain_l</title><path class="cls-1" d="M2.58,22.31a3,3,0,0,1,2.71-2A5,5,0,0,1,8.91,22L7.48,12c0-.35,0-.36-.38-.25a5.53,5.53,0,0,1-5.93-1.71c-.08-.09-.12-.21-.25-.24s0,.18,0,.26Z"/><path class="cls-1" d="M22.33,9.79A3,3,0,0,1,20.47,7a5,5,0,0,1,2-3.51l-10.09.86c-.35,0-.36,0-.27.37a5.55,5.55,0,0,1-2,5.82c-.09.07-.22.11-.26.24s.18,0,.26,0Z"/><path class="cls-1" d="M5.83,24.35A2.25,2.25,0,1,1,3.58,26.6a2.24,2.24,0,0,1,2.25-2.25m0-2a4.25,4.25,0,1,0,4.24,4.25,4.25,4.25,0,0,0-4.24-4.25Z"/><path class="cls-1" d="M22.37,23a3,3,0,0,0-1.65-2.95,5,5,0,0,0-4,.12l5.39-8.58c.18-.3.19-.3.45-.06a5.56,5.56,0,0,0,6.11.86c.11-.05.2-.14.33-.12s0,.17-.09.25Z"/><path class="cls-1" d="M17.66,23.36a2.26,2.26,0,0,1,2.05,3.17,2.26,2.26,0,0,1-2.06,1.33,2.26,2.26,0,0,1-2-3.16,2.27,2.27,0,0,1,2.06-1.34m0-2a4.26,4.26,0,1,0,1.73.38,4.1,4.1,0,0,0-1.73-.38Z"/><circle class="cls-1" cx="6" cy="6.17" r="4.25"/><path class="cls-1" d="M26.63,4.88a2.25,2.25,0,1,1-2.25,2.25,2.25,2.25,0,0,1,2.25-2.25m0-2a4.25,4.25,0,1,0,4.25,4.25,4.25,4.25,0,0,0-4.25-4.25Z"/></svg>