<?xml version="1.0" encoding="UTF-8" standalone="no"?>
<!-- Created with Inkscape (http://www.inkscape.org/) -->

<svg
   xmlns:dc="http://purl.org/dc/elements/1.1/"
   xmlns:cc="http://creativecommons.org/ns#"
   xmlns:rdf="http://www.w3.org/1999/02/22-rdf-syntax-ns#"
   xmlns:svg="http://www.w3.org/2000/svg"
   xmlns="http://www.w3.org/2000/svg"
   xmlns:sodipodi="http://sodipodi.sourceforge.net/DTD/sodipodi-0.dtd"
   xmlns:inkscape="http://www.inkscape.org/namespaces/inkscape"
   width="32"
   height="32"
   viewBox="0 0 8.4666666 8.4666666"
   version="1.1"
   id="svg8"
   inkscape:version="0.92.5 (2060ec1f9f, 2020-04-08)"
   sodipodi:docname="set-codec-settings_sl.svg">
  <defs
     id="defs2">
    <style
       id="style1399">.cls-1{fill:#e3e3e3;}</style>
    <style
       id="style1399-4">.cls-1{fill:#e3e3e3;}</style>
    <style
       id="style1399-8">.cls-1{fill:#e3e3e3;}</style>
    <style
       id="style1399-4-5">.cls-1{fill:#e3e3e3;}</style>
    <style
       id="style1399-9">.cls-1{fill:#e3e3e3;}</style>
    <style
       id="style1399-4-6">.cls-1{fill:#e3e3e3;}</style>
    <style
       id="style1399-8-4">.cls-1{fill:#e3e3e3;}</style>
    <style
       id="style1399-4-5-3">.cls-1{fill:#e3e3e3;}</style>
    <style
       id="style1399-88">.cls-1{fill:#e3e3e3;}</style>
    <style
       id="style1399-3">.cls-1{fill:#e3e3e3;}</style>
    <style
       id="style1399-94">.cls-1{fill:#e3e3e3;}</style>
    <style
       id="style1399-5">.cls-1{fill:#e3e3e3;}</style>
  </defs>
  <sodipodi:namedview
     id="base"
     pagecolor="#ffffff"
     bordercolor="#666666"
     borderopacity="1.0"
     inkscape:pageopacity="0.0"
     inkscape:pageshadow="2"
     inkscape:zoom="16"
     inkscape:cx="3.7507398"
     inkscape:cy="20.534235"
     inkscape:document-units="mm"
     inkscape:current-layer="svg8"
     showgrid="false"
     units="px"
     inkscape:window-width="1920"
     inkscape:window-height="1043"
     inkscape:window-x="0"
     inkscape:window-y="120"
     inkscape:window-maximized="1">
    <sodipodi:guide
       position="8.4666666,0"
       orientation="-32,0"
       id="guide854"
       inkscape:locked="false" />
    <sodipodi:guide
       position="8.5622298,8.4657622"
       orientation="0,-32"
       id="guide856"
       inkscape:locked="false" />
    <sodipodi:guide
       position="0,8.4666814"
       orientation="32,0"
       id="guide858"
       inkscape:locked="false" />
  </sodipodi:namedview>
  <metadata
     id="metadata5">
    <rdf:RDF>
      <cc:Work
         rdf:about="">
        <dc:format>image/svg+xml</dc:format>
        <dc:type
           rdf:resource="http://purl.org/dc/dcmitype/StillImage" />
        <dc:title></dc:title>
      </cc:Work>
    </rdf:RDF>
  </metadata>
  <path
     style="opacity:1;fill:#83d3f6;fill-opacity:1;stroke:none;stroke-width:6.77669334;stroke-linecap:round;stroke-linejoin:round;stroke-miterlimit:4;stroke-dasharray:none;stroke-dashoffset:10.3937006;stroke-opacity:1"
     d="m 20.738281,0.18554688 c -0.966271,0 -1.788453,0.17604549 -2.464843,0.52539062 -0.668958,0.3493455 -1.216953,0.8498148 -1.640626,1.5039063 -0.120752,0.189753 -0.228224,0.3958893 -0.330078,0.609375 0.179862,0.3159195 0.284977,0.6805883 0.269532,1.0742187 -0.0308,0.7946052 -0.197309,1.5579182 -0.382813,2.3164063 0.01179,0.00506 0.02351,0.010264 0.03516,0.015625 l 2.171875,1.25 c 0.0024,-0.8019334 0.03514,-1.5103602 0.09961,-2.1191407 0.0669,-0.6317937 0.182178,-1.1622642 0.345703,-1.5859375 0.170952,-0.4236703 0.397235,-0.7371917 0.679687,-0.9453125 0.289879,-0.215554 0.65326,-0.3242168 1.091797,-0.3242187 0.252718,0 0.485239,0.034654 0.69336,0.1015625 0.208119,0.066898 0.393116,0.1802249 0.55664,0.34375 0.163522,0.1560907 0.300616,0.3691388 0.41211,0.6367187 0.118926,0.267583 0.216691,0.5920072 0.291015,0.9785156 0.08176,0.386507 0.138614,0.8453134 0.175782,1.3730469 0.03715,0.5203004 0.05859,1.1228175 0.05859,1.8066407 -1e-6,0.5648991 -0.01518,1.0805575 -0.04492,1.5488281 -0.0223,0.4682695 -0.07215,0.8881231 -0.146484,1.2597661 -0.06689,0.37164 -0.156086,0.69997 -0.267578,0.982421 -0.111496,0.282448 -0.252874,0.51535 -0.423828,0.701172 -0.163525,0.185821 -0.355141,0.329156 -0.578125,0.425781 -0.160318,0.06413 -0.344046,0.09524 -0.539063,0.113282 -0.319267,0.445834 -0.797449,0.778361 -1.378906,0.849609 l -2.066406,0.251953 c -0.111613,0.01281 -0.224325,0.01281 -0.335938,0 0.285232,0.295724 0.611358,0.549787 0.986328,0.748047 0.646659,0.334477 1.462601,0.498048 2.451172,0.498047 0.973704,0 1.795886,-0.174091 2.464844,-0.523438 0.676387,-0.349344 1.224386,-0.849813 1.640625,-1.503906 0.423673,-0.654091 0.726287,-1.445892 0.912109,-2.375 0.185822,-0.929107 0.279297,-1.9690001 0.279297,-3.1210935 -2e-6,-1.1595266 -0.07595,-2.1970861 -0.224609,-3.1113281 C 25.38064,3.5685595 25.117357,2.7919493 24.738281,2.1601562 24.359206,1.52093 23.843545,1.0336975 23.189453,0.69921875 22.542794,0.35730719 21.726852,0.18554687 20.738281,0.18554688 Z m 8.125,0.24414062 c -0.404529,0 -0.732422,0.32398448 -0.732422,0.7285156 V 14.167969 c 0,0.404529 0.327893,0.730469 0.732422,0.730469 h 1.367188 c 0.404529,0 0.730469,-0.325942 0.730469,-0.730469 V 1.1582031 c 0,-0.40453075 -0.32594,-0.7285156 -0.730469,-0.7285156 z M 26.970703,17.0625 c -0.966272,0 -1.786501,0.174091 -2.462891,0.523438 -0.668958,0.349345 -1.214998,0.851768 -1.638671,1.505859 -0.416241,0.654092 -0.72081,1.448225 -0.914063,2.384765 -0.18582,0.929107 -0.277344,1.968622 -0.277344,3.113282 0,1.159527 0.07205,2.197466 0.220704,3.11914 0.15609,0.914244 0.425609,1.690852 0.804687,2.330078 0.379074,0.631794 0.892404,1.119026 1.539063,1.460938 0.646659,0.334477 1.462601,0.501953 2.451171,0.501953 0.973705,0 1.793933,-0.17409 2.462891,-0.523437 0.676391,-0.349346 1.224385,-0.851768 1.640625,-1.50586 0.423673,-0.654091 0.728242,-1.44394 0.914063,-2.373047 0.185822,-0.929108 0.277343,-1.970954 0.277343,-3.123047 -1e-6,-1.159526 -0.07205,-2.195133 -0.220703,-3.109374 C 31.618921,20.445513 31.353685,19.668902 30.974609,19.037109 30.595533,18.397883 30.077919,17.91065 29.423828,17.576172 28.777169,17.23426 27.959274,17.0625 26.970703,17.0625 Z m -16.103515,0.236328 c -0.40453,0 -0.730469,0.323985 -0.730469,0.728516 v 13.009765 c 0,0.40453 0.325943,0.730469 0.730469,0.730469 h 1.36914 c 0.40453,0 0.730469,-0.325938 0.730469,-0.730469 V 18.027344 c 0,-0.40453 -0.325937,-0.728516 -0.730469,-0.728516 z m 6.273437,0 c -0.404529,0 -0.732422,0.323985 -0.732422,0.728516 v 13.009765 c 0,0.40453 0.327897,0.730469 0.732422,0.730469 h 1.369141 c 0.404529,0 0.728515,-0.325938 0.728515,-0.730469 V 18.027344 c 0,-0.40453 -0.323984,-0.728516 -0.728515,-0.728516 z m 9.708984,2.082031 c 0.252718,0 0.483287,0.0327 0.691407,0.09961 0.208119,0.06689 0.393116,0.184131 0.55664,0.347656 0.163525,0.156091 0.302575,0.367181 0.414063,0.634766 0.118926,0.267579 0.214734,0.59396 0.289062,0.980468 0.08176,0.386508 0.142524,0.845313 0.179688,1.373047 0.03715,0.5203 0.05469,1.122817 0.05469,1.806641 0,0.564898 -0.01713,1.080557 -0.04687,1.548828 -0.0223,0.468271 -0.06825,0.888122 -0.142578,1.259766 -0.0669,0.371641 -0.156086,0.698019 -0.267578,0.980468 -0.111496,0.282448 -0.252878,0.517303 -0.423828,0.703125 -0.163525,0.185821 -0.357092,0.325246 -0.580078,0.421875 -0.222985,0.08919 -0.479649,0.134766 -0.769531,0.134766 -0.386513,0 -0.717174,-0.07829 -0.992188,-0.234375 -0.275008,-0.163532 -0.501298,-0.440042 -0.679688,-0.833984 -0.170953,-0.401374 -0.297144,-0.938464 -0.378906,-1.607422 -0.08176,-0.67639 -0.123047,-1.527 -0.123047,-2.552735 0,-0.839913 0.03465,-1.577191 0.101563,-2.208984 0.0669,-0.631792 0.180225,-1.158359 0.34375,-1.582031 0.170952,-0.423675 0.399189,-0.739144 0.68164,-0.947266 0.289879,-0.215554 0.653258,-0.324218 1.091797,-0.324219 z"
     transform="scale(0.26458333)"
     id="rect819"
     inkscape:connector-curvature="0"
     sodipodi:nodetypes="sccccccccccccccccccccccccccccccsccccssssssssssscccscccsccsscccsssssssssssssssssssccccccscccccsccsscccc" />
  <path
     style="fill:#83d3f6;fill-opacity:1;stroke-width:0.00941205"
     inkscape:connector-curvature="0"
     d="M 4.0972323,1.9859121 C 3.9892846,2.2697241 3.8443051,2.53715 3.6568387,2.7750327 L 4.5443681,3.2851084 5.0924129,3.2179315 C 5.1920695,3.2057202 5.2520575,3.1012909 5.2124713,3.0090268 L 4.9945587,2.5016217 Z M 3.9966437,1.0153855 C 3.9999947,0.92998832 3.9270812,0.85998992 3.8416545,0.86166262 l -0.3020621,0.005785 C 3.4590954,0.86898172 3.3974651,0.93399902 3.3935106,1.0144123 3.3588053,1.7257849 2.9661546,2.376233 2.3453485,2.7363003 2.1505175,2.8493021 1.9407457,2.9247262 1.7257853,2.9701931 l -0.00256,-1.2680622 c 0.00579,-0.00315 0.011897,-0.00462 0.017597,-0.00793 0.0057,-0.00331 0.010096,-0.00794 0.01562,-0.011337 l 0.833875,0.4792858 C 2.8022729,1.9417253 2.9536425,1.6712469 3.0318962,1.3737567 L 2.1866088,0.88792542 C 2.182901,0.74177282 2.1477126,0.59462172 2.0691827,0.45922519 1.818812,0.02755127 1.265921,-0.11941978 0.83424696,0.13095092 c -0.4316733,0.2503703 -0.5786443,0.8032609 -0.3282736,1.23493478 0.07853,0.1353966 0.1887853,0.2390094 0.3137234,0.3148479 l 0.0026,1.2857715 C 0.66529756,2.9312441 0.51110706,2.8794438 0.36392296,2.8080214 0.29139716,2.7728347 0.20475528,2.795668 0.16468348,2.8655866 L 0.0146365,3.1274646 C -0.02783685,3.201498 -0.00154937,3.2989729 0.07482468,3.3370422 0.31322386,3.455988 0.56602896,3.5331745 0.82346846,3.5776433 l 0.00266,1.341774 0.33222264,0.4411052 c 0.060431,0.080175 0.1808615,0.079961 0.2409456,-4.774e-4 L 1.7297428,4.9176983 1.7270942,3.5849488 C 2.0469757,3.5325962 2.3595169,3.4244396 2.6475706,3.2573686 3.4540072,2.7896358 3.9607821,1.9406882 3.9966437,1.0153855 Z M 1.1364689,0.65201972 C 1.2803336,0.56857827 1.4646728,0.61758002 1.5481142,0.76144462 1.6315553,0.90530872 1.5825537,1.0896483 1.4386892,1.1730896 1.2948255,1.2565305 1.1104858,1.2075289 1.0270446,1.0636647 0.94360336,0.91980042 0.99260486,0.73546082 1.1364689,0.65201972 Z"
     id="path5470" />
</svg>
