<svg id="Calque_1" data-name="Calque 1" xmlns="http://www.w3.org/2000/svg" viewBox="0 0 32 32"><defs><style>.cls-1{fill:#e3e3e3;}</style></defs><title>settingsfile_l</title><path class="cls-1" d="M30.67,20.07l-2.09-.32a7.63,7.63,0,0,0-.47-1.12c.39-.54.81-1,1.2-1.57a.41.41,0,0,0,.09-.26.38.38,0,0,0-.08-.25,14.5,14.5,0,0,0-1.89-2,.49.49,0,0,0-.28-.11.39.39,0,0,0-.28.1l-1.62,1.23a8.32,8.32,0,0,0-1-.43l-.32-2.1a.42.42,0,0,0-.42-.35H22.05v5.88l.16,0a2.93,2.93,0,0,1,0,5.86H22A1.36,1.36,0,0,1,20.69,26H15.44c-.11.13-.22.27-.32.41a.46.46,0,0,0,0,.53A14.82,14.82,0,0,0,17,28.85a.43.43,0,0,0,.29.13.51.51,0,0,0,.29-.1l1.61-1.23a6.55,6.55,0,0,0,1,.42l.32,2.11a.41.41,0,0,0,.41.34h2.54a.42.42,0,0,0,.42-.32,15.22,15.22,0,0,0,.33-2.13,6.7,6.7,0,0,0,1-.43l1.58,1.24a.63.63,0,0,0,.3.1c.38,0,1.93-1.68,2.2-2.05a.38.38,0,0,0,.11-.26.45.45,0,0,0-.12-.29c-.42-.51-.83-1-1.22-1.58a6,6,0,0,0,.44-1l2.12-.32A.45.45,0,0,0,31,23V20.49A.43.43,0,0,0,30.67,20.07Z"/><path class="cls-1" d="M19.28,21.73A2.93,2.93,0,0,0,22,24.65V18.82A2.93,2.93,0,0,0,19.28,21.73Z"/><path class="cls-1" d="M21.08,7.33,15.3,1.55a3.12,3.12,0,0,0-.51-.4V7.84h6.69A3.12,3.12,0,0,0,21.08,7.33Z"/><path class="cls-1" d="M15.85,23.7l-2.09-.31a.41.41,0,0,1-.34-.41V20.44a.44.44,0,0,1,.31-.41l2.13-.32a6.51,6.51,0,0,1,.45-1.05c-.39-.55-.8-1.07-1.23-1.58A.43.43,0,0,1,15,16.8a.42.42,0,0,1,.1-.26c.28-.38,1.82-2,2.21-2a.58.58,0,0,1,.3.11l1.58,1.23a7.37,7.37,0,0,1,1-.44,15.31,15.31,0,0,1,.33-2.12.43.43,0,0,1,.41-.33h1.11V9.66H14.33A1.36,1.36,0,0,1,13,8.29V.58H1.63A1.36,1.36,0,0,0,.27,1.94V24.62A1.36,1.36,0,0,0,1.63,26H15.44c.29-.38.59-.76.88-1.15A6.23,6.23,0,0,1,15.85,23.7Z"/></svg>