<svg id="Calque_1" data-name="Calque 1" xmlns="http://www.w3.org/2000/svg" viewBox="0 0 32 32"><defs><style>.cls-1{fill:#e3e3e3;}</style></defs><title>simpleplus_l</title><path class="cls-1" d="M24.8,15.37a1.38,1.38,0,0,1,1.36,1.36v1.36a1.38,1.38,0,0,1-1.36,1.36H18.68v6.12a1.3,1.3,0,0,1-.4.95,1.32,1.32,0,0,1-1,.41H16a1.29,1.29,0,0,1-1-.41,1.31,1.31,0,0,1-.41-.95V19.45H8.49a1.35,1.35,0,0,1-1-.4,1.31,1.31,0,0,1-.4-1V16.73a1.31,1.31,0,0,1,.4-1,1.35,1.35,0,0,1,1-.4H14.6V9.25A1.31,1.31,0,0,1,15,8.3a1.29,1.29,0,0,1,1-.41h1.36a1.32,1.32,0,0,1,1,.41,1.3,1.3,0,0,1,.4.95v6.12Z"/></svg>