<svg id="Calque_1" data-name="Calque 1" xmlns="http://www.w3.org/2000/svg" viewBox="0 0 32 32"><defs><style>.cls-1{fill:#e3e3e3;}</style></defs><title>singlelayer_l</title><path class="cls-1" d="M16.16,21.52l9.09-7.08,2-1.57L16.16,4.22,5,12.87l2,1.57Z"/><path class="cls-1" d="M24.65,16.77,23.07,18l.62.79,1.54-1.2h0l-.62-.79ZM21.5,19.23l-1.58,1.23.61.79.91-.71h0l.67-.52-.61-.79Zm-3.16,2.45-1.58,1.23.61.79,1-.78h0l0,0h0l.51-.4-.61-.79Zm-3.51.68-.61.79,1.57,1.23.62-.79-1.58-1.23Zm-3.16-2.45-.61.79,1.58,1.22.61-.79-1.58-1.22ZM8.51,17.45l-.61.79,1.58,1.23.61-.79L8.51,17.45Zm-2.8-.1-1.28,1-1,.79,1,.79.3.24.61-.79-.29-.24h0l1.23-.95-.61-.79Zm1.21,3.24-.61.79,1.58,1.23.61-.79L6.92,20.59Zm3.16,2.46-.61.79,1.58,1.23.61-.79-1-.79h0l-.56-.43Zm3.16,2.46-.62.78,1.58,1.23.62-.79-1.58-1.22Zm4.73.86L16.4,27.6l.61.79,1.58-1.23L18,26.37Zm3.16-2.46-1.58,1.23.62.79,1.58-1.23-.62-.79Zm3.16-2.45-1.45,1.13h0l-.08.06h0l.61.79,1.58-1.23-.61-.79Zm3.44-3.25-.62.79.17.13h0l-1.38,1.08.61.79,1.41-1.1,1-.79-1-.79-.17-.13Zm-1.85-1.44-.61.79h0l.27.21.61-.79-.27-.21Z"/></svg>