<svg id="Calque_1" data-name="Calque 1" xmlns="http://www.w3.org/2000/svg" viewBox="0 0 32 32"><defs><style>.cls-1{fill:#e3e3e3;}</style></defs><title>skin_l</title><path class="cls-1" d="M26,21.48a.78.78,0,0,0-.76-.59c-1.77,0-3.21-2-3.21-4.54s1.43-4.53,3.2-4.54a.79.79,0,0,0,.53-.2.77.77,0,0,0,.14-1l-2.1-3.44a.81.81,0,0,0-.58-.36.77.77,0,0,0-.64.22A1.89,1.89,0,0,1,19.9,7a1.87,1.87,0,0,1-.55-1.34.78.78,0,0,0-.78-.77H13.26a.78.78,0,0,0-.79.77A1.83,1.83,0,0,1,11.92,7,1.89,1.89,0,0,1,9.26,7a.76.76,0,0,0-.64-.22.77.77,0,0,0-.57.36L5.94,10.62a.78.78,0,0,0,.14,1,.82.82,0,0,0,.54.2c1.76,0,3.19,2,3.19,4.54s-1.43,4.54-3.2,4.54A.77.77,0,0,0,5.9,22l1.33,2.88a.78.78,0,0,0,.82.44s5.56-.79,7.12,2.33a.77.77,0,0,0,.69.42h0a.77.77,0,0,0,.69-.42c1.69-3.18,7.19-2.55,7.25-2.55a.79.79,0,0,0,.79-.42L25.91,22A.87.87,0,0,0,26,21.48Zm-15.6,2.11a1.12,1.12,0,1,1,1.12-1.12A1.12,1.12,0,0,1,10.38,23.59Zm0-12.69A1.12,1.12,0,1,1,11.5,9.78,1.12,1.12,0,0,1,10.38,10.9Zm11.2-2.24a1.12,1.12,0,1,1-1.12,1.12A1.12,1.12,0,0,1,21.58,8.66Zm0,14.93a1.12,1.12,0,1,1,1.11-1.12A1.12,1.12,0,0,1,21.58,23.59Z"/></svg>