<svg id="Calque_1" data-name="Calque 1" xmlns="http://www.w3.org/2000/svg" viewBox="0 0 32 32"><defs><style>.cls-1{fill:#e3e3e3;}</style></defs><title>smallcalc_l</title><path class="cls-1" d="M26.84,26.36A1.69,1.69,0,0,1,25.16,28H6.68A1.69,1.69,0,0,1,5,26.36V6.21A1.69,1.69,0,0,1,6.68,4.53H25.16a1.69,1.69,0,0,1,1.68,1.68ZM25.16,7.05a.85.85,0,0,0-.84-.84H7.52a.85.85,0,0,0-.84.84v3.36a.85.85,0,0,0,.84.84h16.8a.85.85,0,0,0,.84-.84ZM10.35,14A2.68,2.68,0,1,0,13,16.67,2.66,2.66,0,0,0,10.35,14Zm0,6A2.67,2.67,0,1,0,13,22.69,2.66,2.66,0,0,0,10.35,20Zm6-6A2.68,2.68,0,1,0,19,16.67,2.66,2.66,0,0,0,16.37,14Zm0,6A2.67,2.67,0,1,0,19,22.69,2.66,2.66,0,0,0,16.37,20Zm8.79-5.37a1.68,1.68,0,0,0-3.36,0v10a1.68,1.68,0,0,0,3.36,0Z"/></svg>