<svg id="Calque_1" data-name="Calque 1" xmlns="http://www.w3.org/2000/svg" viewBox="0 0 32 32"><defs><style>.cls-1{fill:#e3e3e3;}</style></defs><title>spine_l</title><path class="cls-1" d="M24.75,14.91l-.12-.53a10.33,10.33,0,0,1-2.62.81,9.51,9.51,0,0,1-1.7.15H20.1a9.42,9.42,0,0,1-3.38-.7l.35,1.07,0,.11a.34.34,0,0,0,.22.23l1.48.5a.4.4,0,0,1,.28.43.4.4,0,0,1-.39.35l-.13,0-1.49-.51a1.15,1.15,0,0,1-.73-.73L15,12a1,1,0,0,0-.36-.46,1.09,1.09,0,0,0-.6-.19l-.24,0a1,1,0,0,0-.78,1.2l1.37,4.12a3.3,3.3,0,0,0,3.1,2.21l5.63,0h0a1.42,1.42,0,0,0,1.08-.47,1.4,1.4,0,0,0,.1-1.77h0a.53.53,0,0,1,.11-.72A1,1,0,0,0,24.75,14.91Z"/><path class="cls-1" d="M13.42,10.27a2.28,2.28,0,0,1,.45,0,2.36,2.36,0,0,1,1.34.44,2.06,2.06,0,0,1,.62.69h0a2.17,2.17,0,0,1,.15.35l.51,1.54a8.13,8.13,0,0,0,3.82,1,8.56,8.56,0,0,0,4.1-1.08l-.07-.29a1.06,1.06,0,0,0-.88-.8l-.19,0a.25.25,0,0,1-.22-.2c0-.08.47-1.82.74-2.76a.92.92,0,0,0-.3-1L23.39,8l-.26-.24a2.09,2.09,0,0,0,0-.25c0-4.63-2.7-6.52-7.31-6.52-.28,0-.57,0-.87,0-4.66.22-7.71,4.09-7.71,9.4,0,2.91,1.92,3.48,5.15,3.59L12,12.65a2,2,0,0,1,.24-1.49A1.92,1.92,0,0,1,13.42,10.27Zm6.2-3.08a2.31,2.31,0,0,1,2.25,2.58,2.31,2.31,0,0,1-2.25,2.58,2.58,2.58,0,1,1,0-5.16Z"/><path class="cls-1" d="M16.39,14h-.48v-.56a.38.38,0,0,0-.18-.32.4.4,0,0,0-.37,0,4.62,4.62,0,0,1-1.86.3,4.62,4.62,0,0,1-1.86-.3.41.41,0,0,0-.37,0,.38.38,0,0,0-.18.32V14h-.48a.61.61,0,0,0-.61.61V15a.61.61,0,0,0,.61.61h.48V16a.37.37,0,0,0,.19.33,5.27,5.27,0,0,0,2.22.42,5,5,0,0,0,2.23-.42.39.39,0,0,0,.18-.33v-.39h.48A.61.61,0,0,0,17,15v-.42A.61.61,0,0,0,16.39,14Zm0,1s0,0,0,0h-.78a.29.29,0,0,0-.29.29v.57a5.31,5.31,0,0,1-1.82.27,5.27,5.27,0,0,1-1.82-.27v-.57a.29.29,0,0,0-.29-.29h-.78s0,0,0,0v-.42l0,0h.78a.29.29,0,0,0,.29-.3v-.54A6.17,6.17,0,0,0,13.5,14a6.17,6.17,0,0,0,1.82-.24v.54a.29.29,0,0,0,.29.3h.78l0,0V15Z"/><path class="cls-1" d="M16.31,17.65h-.4v-.56a.37.37,0,0,0-.18-.32.38.38,0,0,0-.37,0,4.81,4.81,0,0,1-1.86.3,4.81,4.81,0,0,1-1.86-.3.38.38,0,0,0-.37,0,.37.37,0,0,0-.18.32v.56h-.4a.69.69,0,0,0-.69.69v.26a.69.69,0,0,0,.69.69h.4v.39a.37.37,0,0,0,.19.33,5.27,5.27,0,0,0,2.22.42A5,5,0,0,0,15.73,20a.4.4,0,0,0,.18-.33v-.39h.4A.69.69,0,0,0,17,18.6v-.26A.69.69,0,0,0,16.31,17.65Zm.1.94a.1.1,0,0,1-.1.11h-.7a.29.29,0,0,0-.29.29v.57a5.21,5.21,0,0,1-1.81.28,12.83,12.83,0,0,1-1.83-.28V19a.29.29,0,0,0-.29-.3h-.7a.09.09,0,0,1-.1-.1v-.26a.1.1,0,0,1,.1-.11h.7a.29.29,0,0,0,.29-.29V17.4a6.17,6.17,0,0,0,1.82.24,6.17,6.17,0,0,0,1.82-.24v.5a.3.3,0,0,0,.29.3h.7a.09.09,0,0,1,.1.1v.29Z"/><path class="cls-1" d="M12,14.43v1.11a.29.29,0,1,0,.58,0V14.42a.29.29,0,1,0-.58,0Z"/><path class="cls-1" d="M12,18.08v1.07a.29.29,0,1,0,.58,0V18.07a.29.29,0,1,0-.58,0Z"/><path class="cls-1" d="M16.31,21.28h-.4v-.55a.39.39,0,0,0,0-.14.37.37,0,0,0-.52-.2,4.81,4.81,0,0,1-1.86.3,4.81,4.81,0,0,1-1.86-.3.4.4,0,0,0-.37,0,.38.38,0,0,0-.18.32v.56h-.4A.69.69,0,0,0,10,22v.27a.69.69,0,0,0,.69.69h.4v.28a.6.6,0,0,0,.34.52,5.84,5.84,0,0,0,2.07.33,5.56,5.56,0,0,0,2.07-.33.6.6,0,0,0,.34-.52v-.28h.4a.69.69,0,0,0,.69-.69V22A.69.69,0,0,0,16.31,21.28Zm.1.94a.11.11,0,0,1-.1.12h-.7a.28.28,0,0,0-.29.29v.56a5,5,0,0,1-1.81.28,12.83,12.83,0,0,1-1.83-.28v-.56a.29.29,0,0,0-.29-.29h-.7a.1.1,0,0,1-.1-.1V22a.1.1,0,0,1,.1-.1h.7a.29.29,0,0,0,.29-.29V21a6.21,6.21,0,0,0,1.82.23A6.21,6.21,0,0,0,15.32,21v.5a.29.29,0,0,0,.29.29h.7a.1.1,0,0,1,.1.1v.29Z"/><path class="cls-1" d="M12,21.72v1.06a.29.29,0,1,0,.58,0V21.71a.3.3,0,0,0-.33-.3A.3.3,0,0,0,12,21.72Z"/><path class="cls-1" d="M16.39,21h-.48v-.56a.38.38,0,0,0-.18-.32.4.4,0,0,0-.37,0,4.62,4.62,0,0,1-1.86.3,4.62,4.62,0,0,1-1.86-.3.41.41,0,0,0-.37,0,.38.38,0,0,0-.18.32V21h-.48a.61.61,0,0,0-.61.61V22a.61.61,0,0,0,.61.61h.48V23a.37.37,0,0,0,.19.33,5.27,5.27,0,0,0,2.22.42,5,5,0,0,0,2.23-.42.39.39,0,0,0,.18-.33v-.39h.48A.61.61,0,0,0,17,22v-.42A.61.61,0,0,0,16.39,21Zm0,1s0,0,0,0h-.78a.29.29,0,0,0-.29.29v.57a5.31,5.31,0,0,1-1.82.27,5.27,5.27,0,0,1-1.82-.27v-.57a.29.29,0,0,0-.29-.29h-.78s0,0,0,0v-.42a0,0,0,0,1,0,0h.78a.29.29,0,0,0,.29-.3v-.54A6.17,6.17,0,0,0,13.5,21a6.17,6.17,0,0,0,1.82-.24v.54a.29.29,0,0,0,.29.3h.78a0,0,0,0,1,0,0V22Z"/><path class="cls-1" d="M16.31,24.65h-.4v-.56a.37.37,0,0,0-.18-.32.38.38,0,0,0-.37,0,4.81,4.81,0,0,1-1.86.3,4.81,4.81,0,0,1-1.86-.3.38.38,0,0,0-.37,0,.37.37,0,0,0-.18.32v.56h-.4a.69.69,0,0,0-.69.69v.26a.69.69,0,0,0,.69.69h.4v.39a.37.37,0,0,0,.19.33,5.27,5.27,0,0,0,2.22.42A5,5,0,0,0,15.73,27a.4.4,0,0,0,.18-.33v-.39h.4A.69.69,0,0,0,17,25.6v-.26A.69.69,0,0,0,16.31,24.65Zm.1.94a.1.1,0,0,1-.1.11h-.7a.29.29,0,0,0-.29.29v.57a5.21,5.21,0,0,1-1.81.28,12.83,12.83,0,0,1-1.83-.28V26a.29.29,0,0,0-.29-.3h-.7a.09.09,0,0,1-.1-.1v-.26a.1.1,0,0,1,.1-.11h.7a.29.29,0,0,0,.29-.29V24.4a6.17,6.17,0,0,0,1.82.24,6.17,6.17,0,0,0,1.82-.24v.5a.3.3,0,0,0,.29.3h.7a.09.09,0,0,1,.1.1v.29Z"/><path class="cls-1" d="M12,21.43v1.11a.29.29,0,1,0,.58,0V21.42a.29.29,0,1,0-.58,0Z"/><path class="cls-1" d="M12,25.08v1.07a.29.29,0,1,0,.58,0V25.07a.29.29,0,1,0-.58,0Z"/><path class="cls-1" d="M16.31,28.28h-.4v-.55a.39.39,0,0,0,0-.14.37.37,0,0,0-.52-.2,4.81,4.81,0,0,1-1.86.3,4.81,4.81,0,0,1-1.86-.3.4.4,0,0,0-.37,0,.38.38,0,0,0-.18.32v.56h-.4A.69.69,0,0,0,10,29v.27a.69.69,0,0,0,.69.69h.4v.28a.6.6,0,0,0,.34.52,5.84,5.84,0,0,0,2.07.33,5.56,5.56,0,0,0,2.07-.33.6.6,0,0,0,.34-.52v-.28h.4a.69.69,0,0,0,.69-.69V29A.69.69,0,0,0,16.31,28.28Zm.1.94a.11.11,0,0,1-.1.12h-.7a.28.28,0,0,0-.29.29v.56a5,5,0,0,1-1.81.28,12.83,12.83,0,0,1-1.83-.28v-.56a.29.29,0,0,0-.29-.29h-.7a.1.1,0,0,1-.1-.1V29a.1.1,0,0,1,.1-.1h.7a.29.29,0,0,0,.29-.29V28a6.21,6.21,0,0,0,1.82.23A6.21,6.21,0,0,0,15.32,28v.5a.29.29,0,0,0,.29.29h.7a.1.1,0,0,1,.1.1v.29Z"/><path class="cls-1" d="M12,28.72v1.06a.29.29,0,1,0,.58,0V28.71a.3.3,0,0,0-.33-.3A.3.3,0,0,0,12,28.72Z"/><path class="cls-1" d="M11,14a2,2,0,0,1,2-2c2,0,0,0,1,4l2,3V30H14l-3-1,1-12Z"/></svg>