<svg id="Calque_1" data-name="Calque 1" xmlns="http://www.w3.org/2000/svg" viewBox="0 0 32 32"><defs><style>.cls-1{fill:#e3e3e3;}</style></defs><title>spring_l</title><rect class="cls-1" x="6" y="3" width="19.12" height="3.44"/><rect class="cls-1" x="6" y="25.56" width="19.12" height="3.44"/><path class="cls-1" d="M17.76,27.86c-4.12,0-9.09-.35-10.78-1.93a2.29,2.29,0,0,1-.79-1.71c0-1.81,1.93-3.08,6.18-4-4.08-.69-5.8-1.68-5.8-3.25s1.59-2.51,5.33-3.2C8.16,13,6.57,12,6.57,10.46s1.75-2.57,5.89-3.21a36.86,36.86,0,0,1-5-1.67,1.16,1.16,0,0,1-.59-1.52,1.15,1.15,0,0,1,1.52-.58h0a41.81,41.81,0,0,0,15.21,3,1.15,1.15,0,0,1,0,2.3c-6.7.08-13,.85-14.53,1.74,1.43.94,7.52,1.95,14,2.27A1.15,1.15,0,0,1,23,15c-6.44.17-12.51,1-14,1.91,1.5.91,7.73,1.76,14.36,1.92a1.15,1.15,0,0,1,0,2.29s-3.78.19-7.57.75C9.55,22.85,8.6,24,8.5,24.21c.14.17,1.23,1.16,7.49,1.32,3.7.09,7.29-.16,7.33-.16a1.14,1.14,0,0,1,1.22,1.06,1.15,1.15,0,0,1-1.06,1.23C22.6,27.72,20.35,27.86,17.76,27.86Z"/></svg>