<svg id="Calque_1" data-name="Calque 1" xmlns="http://www.w3.org/2000/svg" viewBox="0 0 32 32"><defs><style>.cls-1{fill:#e3e3e3;}</style></defs><title>stack_l</title><path class="cls-1" d="M7.5,12.23l-.63.66A.62.62,0,0,1,6.5,13a.65.65,0,0,1-.38-.13l-1.95-2A.39.39,0,0,1,4,10.56a.56.56,0,0,1,.13-.37l.66-.63a.52.52,0,0,1,.38-.16.39.39,0,0,1,.33.16l1,.92L9.12,7.81a.45.45,0,0,1,.33-.12.66.66,0,0,1,.38.12l.7.71a.55.55,0,0,1,.13.36.51.51,0,0,1-.17.35h0Zm0,6.65-.63.63a.5.5,0,0,1-.37.16.52.52,0,0,1-.38-.16l-1.95-2A.51.51,0,0,1,4,17.2a.57.57,0,0,1,.13-.36l.66-.66a.65.65,0,0,1,.38-.13.47.47,0,0,1,.33.13l1,.91,2.66-2.62a.38.38,0,0,1,.33-.16.54.54,0,0,1,.38.16l.7.71a.42.42,0,0,1,.13.33.53.53,0,0,1-.17.38h0ZM5.23,22.25a1.91,1.91,0,0,0-.61,1.42,1.89,1.89,0,0,0,.61,1.41,2,2,0,0,0,1.43.59,1.93,1.93,0,0,0,1.42-.59,1.9,1.9,0,0,0,.58-1.41,1.92,1.92,0,0,0-.58-1.42,2,2,0,0,0-1.42-.58A2,2,0,0,0,5.23,22.25Zm19.41-10.4a.65.65,0,0,0,.48-.19.64.64,0,0,0,.18-.47V9.52A.68.68,0,0,0,25.12,9a.69.69,0,0,0-.48-.19h-12a.66.66,0,0,0-.48.19.65.65,0,0,0-.19.48v1.67a.61.61,0,0,0,.19.47.62.62,0,0,0,.48.19Zm0,6.66a.63.63,0,0,0,.66-.67V16.18a.66.66,0,0,0-.18-.48.69.69,0,0,0-.48-.19h-12a.66.66,0,0,0-.48.19.63.63,0,0,0-.19.48v1.66a.65.65,0,0,0,.67.67Zm0,6.66a.69.69,0,0,0,.48-.19.66.66,0,0,0,.18-.48V22.84a.63.63,0,0,0-.66-.67h-12a.65.65,0,0,0-.67.67V24.5a.63.63,0,0,0,.19.48.66.66,0,0,0,.48.19Z"/></svg>