<?xml version="1.0" encoding="UTF-8" standalone="no"?>
<!-- Created with Inkscape (http://www.inkscape.org/) -->

<svg
   xmlns:dc="http://purl.org/dc/elements/1.1/"
   xmlns:cc="http://creativecommons.org/ns#"
   xmlns:rdf="http://www.w3.org/1999/02/22-rdf-syntax-ns#"
   xmlns:svg="http://www.w3.org/2000/svg"
   xmlns="http://www.w3.org/2000/svg"
   xmlns:sodipodi="http://sodipodi.sourceforge.net/DTD/sodipodi-0.dtd"
   xmlns:inkscape="http://www.inkscape.org/namespaces/inkscape"
   width="32"
   height="32"
   viewBox="0 0 8.4666666 8.4666666"
   version="1.1"
   id="svg8"
   inkscape:version="0.92.5 (2060ec1f9f, 2020-04-08)"
   sodipodi:docname="stop-motion_sl.svg">
  <defs
     id="defs2" />
  <sodipodi:namedview
     id="base"
     pagecolor="#ffffff"
     bordercolor="#666666"
     borderopacity="1.0"
     inkscape:pageopacity="0.0"
     inkscape:pageshadow="2"
     inkscape:zoom="8.0000004"
     inkscape:cx="15.480197"
     inkscape:cy="23.026797"
     inkscape:document-units="mm"
     inkscape:current-layer="svg8"
     showgrid="false"
     units="px"
     inkscape:window-width="1920"
     inkscape:window-height="1043"
     inkscape:window-x="0"
     inkscape:window-y="120"
     inkscape:window-maximized="1">
    <sodipodi:guide
       position="8.4666666,0"
       orientation="-32,0"
       id="guide854"
       inkscape:locked="false" />
    <sodipodi:guide
       position="8.4666666,8.4666666"
       orientation="0,-32"
       id="guide856"
       inkscape:locked="false" />
    <sodipodi:guide
       position="0,8.4666814"
       orientation="32,0"
       id="guide858"
       inkscape:locked="false" />
  </sodipodi:namedview>
  <metadata
     id="metadata5">
    <rdf:RDF>
      <cc:Work
         rdf:about="">
        <dc:format>image/svg+xml</dc:format>
        <dc:type
           rdf:resource="http://purl.org/dc/dcmitype/StillImage" />
        <dc:title></dc:title>
      </cc:Work>
    </rdf:RDF>
  </metadata>
  <path
     style="stroke-width:0.05648768;fill:#e3e3e3;fill-opacity:1"
     d="m 21.117188,1.5664062 c -2.246231,0 -4.066407,1.8221264 -4.066407,4.0683594 0,2.2461744 1.820176,4.0664063 4.066407,4.0664063 2.246232,0 4.068359,-1.8202319 4.068359,-4.0664063 0,-2.246233 -1.822127,-4.0683594 -4.068359,-4.0683594 z M 1.8710938,5.1816406 c -0.462606,0 -0.92440959,0.1763327 -1.2773438,0.5292969 -0.70592875,0.7059266 -0.70592875,1.8507141 0,2.5566406 l 5.3457031,5.3457029 v 15.06836 c 0,0.998307 0.8083332,1.80664 1.8066407,1.80664 H 8.6503906 C 8.959711,30.488281 9.2454218,30.402566 9.5,30.265625 9.2665366,29.781301 9.1230469,29.245314 9.1230469,28.677734 V 14.402344 L 4.3398438,9.6191406 C 3.36445,8.6437494 3.068444,7.2343349 3.4179688,5.9785156 L 3.1503906,5.7109375 C 2.7974555,5.3579733 2.3336994,5.1816406 1.8710938,5.1816406 Z m 5.1015624,0 c -0.4626057,0 -0.9263625,0.1763327 -1.2792968,0.5292969 -0.7059285,0.7059266 -0.7059285,1.8507141 0,2.5566406 l 5.3457026,5.3457029 v 15.06836 c 0,0.998307 0.810287,1.80664 1.808594,1.80664 H 13.75 c 0.315245,0 0.607081,-0.08873 0.865234,-0.230469 -0.232824,-0.48286 -0.375,-1.015122 -0.375,-1.580078 V 14.402344 L 9.4570312,9.6113281 C 8.4883934,8.6426925 8.1905509,7.2434682 8.5332031,5.9941406 L 8.25,5.7109375 C 7.8970649,5.3579733 7.4352622,5.1816406 6.9726562,5.1816406 Z m 5.1074218,0 c -0.462606,0 -0.924409,0.1763327 -1.277344,0.5292969 -0.705928,0.7059266 -0.705928,1.8507141 0,2.5566406 l 5.34375,5.3457029 v 15.06836 c 0,0.998307 0.810287,1.80664 1.808594,1.80664 h 0.904297 c 0.998307,0 1.806641,-0.808333 1.806641,-1.80664 v -6.328125 h 0.904296 v 6.328125 c 0,0.998307 0.808334,1.80664 1.806641,1.80664 h 0.904297 c 0.998307,0 1.808594,-0.808333 1.808594,-1.80664 v -15.06836 l 5.34375,-5.3457029 c 0.705927,-0.7059265 0.705927,-1.8507159 0,-2.5566406 -0.705868,-0.7059288 -1.85077,-0.7059288 -2.556641,0 L 23.984375,10.605469 H 18.251953 L 13.357422,5.7109375 C 13.004487,5.3579733 12.542684,5.1816406 12.080078,5.1816406 Z"
     transform="scale(0.26458333)"
     id="path850"
     inkscape:connector-curvature="0"
     sodipodi:nodetypes="sssssscccssscsccccsscccssscsccccsscccssssccsssscccccccs" />
</svg>
