<?xml version="1.0" encoding="UTF-8" standalone="no"?>
<!-- Created with Inkscape (http://www.inkscape.org/) -->

<svg
   xmlns:dc="http://purl.org/dc/elements/1.1/"
   xmlns:cc="http://creativecommons.org/ns#"
   xmlns:rdf="http://www.w3.org/1999/02/22-rdf-syntax-ns#"
   xmlns:svg="http://www.w3.org/2000/svg"
   xmlns="http://www.w3.org/2000/svg"
   xmlns:sodipodi="http://sodipodi.sourceforge.net/DTD/sodipodi-0.dtd"
   xmlns:inkscape="http://www.inkscape.org/namespaces/inkscape"
   width="32"
   height="32"
   viewBox="0 0 8.4666666 8.4666666"
   version="1.1"
   id="svg8"
   inkscape:version="0.92.5 (2060ec1f9f, 2020-04-08)"
   sodipodi:docname="string_sl.svg">
  <defs
     id="defs2">
    <style
       id="style1399">.cls-1{fill:#e3e3e3;}</style>
  </defs>
  <sodipodi:namedview
     id="base"
     pagecolor="#ffffff"
     bordercolor="#666666"
     borderopacity="1.0"
     inkscape:pageopacity="0.0"
     inkscape:pageshadow="2"
     inkscape:zoom="11.313709"
     inkscape:cx="0.58682729"
     inkscape:cy="18.302789"
     inkscape:document-units="mm"
     inkscape:current-layer="svg8"
     showgrid="false"
     units="px"
     inkscape:window-width="1920"
     inkscape:window-height="1043"
     inkscape:window-x="0"
     inkscape:window-y="120"
     inkscape:window-maximized="1">
    <sodipodi:guide
       position="8.4666666,0"
       orientation="-32,0"
       id="guide854"
       inkscape:locked="false" />
    <sodipodi:guide
       position="8.4666666,8.4666666"
       orientation="0,-32"
       id="guide856"
       inkscape:locked="false" />
    <sodipodi:guide
       position="0,8.4666814"
       orientation="32,0"
       id="guide858"
       inkscape:locked="false" />
  </sodipodi:namedview>
  <metadata
     id="metadata5">
    <rdf:RDF>
      <cc:Work
         rdf:about="">
        <dc:format>image/svg+xml</dc:format>
        <dc:type
           rdf:resource="http://purl.org/dc/dcmitype/StillImage" />
        <dc:title></dc:title>
      </cc:Work>
    </rdf:RDF>
  </metadata>
  <path
     style="font-style:normal;font-variant:normal;font-weight:bold;font-stretch:normal;font-size:5.7326417px;line-height:1.25;font-family:'Courier Prime Sans';-inkscape-font-specification:'Courier Prime Sans, Bold';font-variant-ligatures:normal;font-variant-caps:normal;font-variant-numeric:normal;font-feature-settings:normal;text-align:start;letter-spacing:0px;word-spacing:0px;writing-mode:lr-tb;text-anchor:start;fill:#e3e3e3;fill-opacity:1;stroke:none;stroke-width:0.58357179"
     d="M 0.48242188 9.9707031 C 0.1252789 9.9707031 -0.029967844 10.159123 0.015625 10.539062 L 0.640625 16.011719 C 0.67102024 16.26248 0.77856736 16.45502 0.9609375 16.591797 C 1.1433083 16.720976 1.4288682 16.787109 1.8164062 16.787109 C 2.2039452 16.787109 2.4875521 16.720976 2.6699219 16.591797 C 2.8522916 16.455021 2.9598382 16.26248 2.9902344 16.011719 L 3.6171875 10.539062 L 3.6269531 10.414062 C 3.6269531 10.117709 3.4675866 9.9707031 3.1484375 9.9707031 L 0.48242188 9.9707031 z M 6.6367188 9.9707031 C 6.2795756 9.9707031 6.1243289 10.159123 6.1699219 10.539062 L 6.796875 16.011719 C 6.8272712 16.26248 6.9328742 16.45502 7.1152344 16.591797 C 7.2976051 16.720976 7.5831652 16.787109 7.9707031 16.787109 C 8.3582423 16.787109 8.6438021 16.720976 8.8261719 16.591797 C 9.0085416 16.455021 9.1141338 16.26248 9.1445312 16.011719 L 9.7714844 10.539062 L 9.7832031 10.414062 C 9.7832031 10.117709 9.6238364 9.9707031 9.3046875 9.9707031 L 6.6367188 9.9707031 z M 22.699219 9.9707031 C 22.342076 9.9707031 22.186829 10.159123 22.232422 10.539062 L 22.859375 16.011719 C 22.889771 16.26248 22.995372 16.45502 23.177734 16.591797 C 23.360105 16.720976 23.645665 16.787109 24.033203 16.787109 C 24.420742 16.787109 24.704349 16.720976 24.886719 16.591797 C 25.069086 16.455021 25.176634 16.26248 25.207031 16.011719 L 25.833984 10.539062 L 25.845703 10.414062 C 25.845703 10.117709 25.686336 9.9707031 25.367188 9.9707031 L 22.699219 9.9707031 z M 28.853516 9.9707031 C 28.496373 9.9707031 28.341126 10.159123 28.386719 10.539062 L 29.013672 16.011719 C 29.044068 16.26248 29.149663 16.45502 29.332031 16.591797 C 29.514402 16.720976 29.799962 16.787109 30.1875 16.787109 C 30.575039 16.787109 30.860599 16.720976 31.042969 16.591797 C 31.225339 16.455021 31.330931 16.26248 31.361328 16.011719 L 31.988281 10.539062 L 32 10.414062 C 32 10.117709 31.840633 9.9707031 31.521484 9.9707031 L 28.853516 9.9707031 z M 14.990234 13.652344 C 14.093578 13.652344 13.307151 13.788944 12.630859 14.0625 C 11.962167 14.336056 11.442653 14.73133 11.070312 15.248047 C 10.705571 15.764764 10.523438 16.375344 10.523438 17.082031 C 10.523438 18.297836 11.036664 19.17121 12.0625 19.703125 C 12.518427 19.938687 13.023414 20.110414 13.578125 20.216797 C 14.132836 20.315581 14.80543 20.398408 15.595703 20.466797 C 16.203606 20.519988 16.640293 20.573762 16.90625 20.626953 C 17.232998 20.687743 17.479309 20.772523 17.646484 20.878906 C 17.821255 20.977692 17.908203 21.114292 17.908203 21.289062 C 17.908203 21.608211 17.742549 21.850405 17.408203 22.017578 C 17.081455 22.184752 16.533102 22.269531 15.765625 22.269531 C 14.489029 22.269531 13.160323 22.021265 11.777344 21.527344 C 11.663361 21.489349 11.568174 21.470703 11.492188 21.470703 C 11.104648 21.470703 10.819089 21.789436 10.636719 22.427734 C 10.568329 22.663298 10.535156 22.868198 10.535156 23.042969 C 10.535156 23.453303 10.727696 23.728456 11.115234 23.865234 C 11.897909 24.131192 12.711223 24.331973 13.554688 24.46875 C 14.405751 24.613128 15.227304 24.685547 16.017578 24.685547 C 17.081408 24.685547 17.973428 24.532467 18.695312 24.228516 C 19.417197 23.924564 19.95731 23.504355 20.314453 22.964844 C 20.679195 22.417731 20.861328 21.778311 20.861328 21.048828 C 20.861328 20.326944 20.687435 19.749537 20.337891 19.316406 C 19.995945 18.883275 19.520012 18.556302 18.912109 18.335938 C 18.486578 18.176363 18.031244 18.06253 17.544922 17.994141 C 17.0586 17.918152 16.460593 17.853972 15.753906 17.800781 C 15.100411 17.762787 14.607784 17.709014 14.273438 17.640625 C 14.007478 17.587434 13.806698 17.515016 13.669922 17.423828 C 13.533143 17.325043 13.462891 17.196684 13.462891 17.037109 C 13.462891 16.71796 13.60361 16.477934 13.884766 16.318359 C 14.173519 16.151186 14.626686 16.068359 15.242188 16.068359 C 16.518783 16.068359 17.84749 16.314673 19.230469 16.808594 C 19.344452 16.846588 19.439639 16.865234 19.515625 16.865234 C 19.903164 16.865234 20.188724 16.546501 20.371094 15.908203 C 20.439483 15.665042 20.474609 15.460142 20.474609 15.292969 C 20.474609 14.882635 20.280116 14.609435 19.892578 14.472656 C 19.109903 14.206699 18.29247 14.005919 17.441406 13.869141 C 16.597941 13.724763 15.780508 13.652344 14.990234 13.652344 z "
     transform="scale(0.26458333)"
     id="path823" />
</svg>
