<svg id="Calque_1" data-name="Calque 1" xmlns="http://www.w3.org/2000/svg" viewBox="0 0 32 32"><defs><style>.cls-1{fill:#e3e3e3;}.cls-2{fill:none;stroke:#e3e3e3;stroke-miterlimit:10;stroke-width:2px;}</style></defs><title>structureshow_l</title><path class="cls-1" d="M26.29,2.72A2.25,2.25,0,1,1,24.05,5a2.25,2.25,0,0,1,2.24-2.24m0-2A4.25,4.25,0,1,0,30.54,5,4.24,4.24,0,0,0,26.29.72Z"/><path class="cls-1" d="M22.54,8.79a3.21,3.21,0,0,1-2.36-2.7,5.29,5.29,0,0,1,1.55-4L11.25,4.46c-.36.07-.37.08-.22.43a5.9,5.9,0,0,1-1.32,6.4c-.09.09-.21.15-.24.29s.19,0,.28,0Z"/><path class="cls-1" d="M.35,7.44a4.65,4.65,0,1,1,4.59,4.65A4.64,4.64,0,0,1,.35,7.44ZM2,7.46A3,3,0,0,0,8,7.44a3,3,0,0,0-3-3A3,3,0,0,0,2,7.46Z"/><path class="cls-2" d="M10.85,23.56a4.44,4.44,0,0,0-1,2.76,4.48,4.48,0,0,0,7.29,3.51"/><path class="cls-1" d="M9.82,21.67a3.23,3.23,0,0,1-.1-.76,3.34,3.34,0,0,1,.54-1.82,15,15,0,0,1,2.09-2.55L9.4,11.87c-.19-.33-.2-.33-.48-.07a5.87,5.87,0,0,1-6.47.91c-.11-.05-.21-.15-.35-.12s0,.18.09.26L9.12,24A3.41,3.41,0,0,1,9.82,21.67Z"/><path class="cls-1" d="M31,19.87a1.5,1.5,0,0,1,0,1.63,11,11,0,0,1-9.53,5.43A11,11,0,0,1,12,21.5a1.5,1.5,0,0,1,0-1.63,11.06,11.06,0,0,1,9.53-5.42A11.06,11.06,0,0,1,31,19.87ZM21.49,25.3a4.41,4.41,0,0,0,2.31-.63A4.72,4.72,0,0,0,25.48,23a4.61,4.61,0,0,0,0-4.62A4.83,4.83,0,0,0,23.8,16.7a4.59,4.59,0,0,0-4.61,0,4.66,4.66,0,0,0-1.68,1.68,4.55,4.55,0,0,0,0,4.62,4.56,4.56,0,0,0,1.68,1.67A4.4,4.4,0,0,0,21.49,25.3ZM25,20.69a3.55,3.55,0,0,0-3.53-3.53,3.55,3.55,0,0,0-1.66.41,1.46,1.46,0,1,1,0,2.91,1.43,1.43,0,0,1-1-.42,1.41,1.41,0,0,1-.42-1A3.55,3.55,0,0,0,18,20.69a3.52,3.52,0,0,0,6,2.49A3.4,3.4,0,0,0,25,20.69Z"/></svg>