<svg id="Calque_1" data-name="Calque 1" xmlns="http://www.w3.org/2000/svg" viewBox="0 0 32 32"><defs><style>.cls-1{fill:#e3e3e3;}</style></defs><title>switch_l</title><path class="cls-1" d="M10.1,22.57a.93.93,0,0,1-1.31,0L1.27,15.06a.94.94,0,0,1,0-1.32L8.79,6.22a.93.93,0,0,1,1.31,0l.9.86a.84.84,0,0,1,.25.66,1,1,0,0,1-.29.65L6.31,12.85H17.43a.89.89,0,0,1,.65.27.87.87,0,0,1,.28.66V15a.87.87,0,0,1-.28.66.89.89,0,0,1-.65.27H6.31L11,20.4a1,1,0,0,1,.29.66.84.84,0,0,1-.25.66Z"/><path class="cls-1" d="M21,21.72a.84.84,0,0,1-.25-.66A1,1,0,0,1,21,20.4L25.69,16H14.57a.89.89,0,0,1-.65-.27.87.87,0,0,1-.28-.66V13.78a.87.87,0,0,1,.28-.66.89.89,0,0,1,.65-.27H25.69L21,8.39a1,1,0,0,1-.29-.65A.84.84,0,0,1,21,7.08l.9-.86a.93.93,0,0,1,1.31,0l7.52,7.52a.94.94,0,0,1,0,1.32l-7.52,7.51a.93.93,0,0,1-1.31,0Z"/></svg>