<svg id="Calque_1" data-name="Calque 1" xmlns="http://www.w3.org/2000/svg" viewBox="0 0 32 32"><defs><style>.cls-1{fill:#e3e3e3;}</style></defs><title>texture_l</title><rect class="cls-1" x="2.5" y="2.21" width="5.2" height="5.2"/><rect class="cls-1" x="7.9" y="7.61" width="5.2" height="5.2"/><rect class="cls-1" x="13.29" y="2.21" width="5.2" height="5.2"/><rect class="cls-1" x="18.69" y="7.61" width="5.2" height="5.2"/><rect class="cls-1" x="7.9" y="18.4" width="5.2" height="5.2"/><rect class="cls-1" x="18.69" y="18.4" width="5.2" height="5.2"/><rect class="cls-1" x="24.08" y="2.21" width="5.2" height="5.2"/><rect class="cls-1" x="2.5" y="13.01" width="5.2" height="5.2"/><rect class="cls-1" x="13.29" y="13.01" width="5.2" height="5.2"/><rect class="cls-1" x="24.08" y="13.01" width="5.2" height="5.2"/><rect class="cls-1" x="2.5" y="23.8" width="5.2" height="5.2"/><rect class="cls-1" x="13.29" y="23.8" width="5.2" height="5.2"/><rect class="cls-1" x="24.08" y="23.8" width="5.2" height="5.2"/><path class="cls-1" d="M27.5,4V27H4.5V4h23m2-2H2.5V29h27V2Z"/></svg>