<svg id="Calque_1" data-name="Calque 1" xmlns="http://www.w3.org/2000/svg" viewBox="0 0 32 32"><defs><style>.cls-1{fill:#e3e3e3;}</style></defs><title>tools_l</title><path class="cls-1" d="M26.11,19.89l-3.17-3.17s1.58-1.59.31-2.85-2.85.31-2.85.31l-1.59,1.59L15.64,12.6l3.17-3.17S19.45,5,14.06,2.76l.63-1.26a17.49,17.49,0,0,1,7.93,4.12l2.85,2.85s-1.58,1.59-.31,2.86S28,11,28,11L31.5,14.5Z"/><path class="cls-1" d="M10,2C9,7,5,14,11,20s14,4,14,4l3,5-3,2-5-3s-9.29-.82-13-7C4,16,5,10,10,2Z"/><path class="cls-1" d="M5.66,22.58,1.37,26.87,4.54,30l4.21-4.21A13.7,13.7,0,0,1,5.66,22.58Z"/><path class="cls-1" d="M12.41,18.59a12.52,12.52,0,0,0,2,1.6l3.79-3.79L15,13.23,11.23,17A7.29,7.29,0,0,0,12.41,18.59Z"/></svg>