<svg id="Calque_1" data-name="Calque 1" xmlns="http://www.w3.org/2000/svg" viewBox="0 0 32 32"><defs><style>.cls-1{fill:#e3e3e3;}</style></defs><title>trash_l</title><path class="cls-1" d="M6,6.34a1.15,1.15,0,0,1,.35-.85,1.13,1.13,0,0,1,.85-.35h5.62l.45-1a1.07,1.07,0,0,1,.45-.47,1.26,1.26,0,0,1,.66-.18h5.71a1.28,1.28,0,0,1,.66.18,1.07,1.07,0,0,1,.45.47l.45,1h5.62a1.2,1.2,0,0,1,1.2,1.2v1.4a.58.58,0,0,1-.18.43.54.54,0,0,1-.42.18H6.6a.54.54,0,0,1-.42-.18A.58.58,0,0,1,6,7.74ZM26.87,26.8a2.33,2.33,0,0,1-.71,1.71,2.3,2.3,0,0,1-1.7.7H10a2.39,2.39,0,0,1-2.4-2.41V10.55a.54.54,0,0,1,.17-.42A.58.58,0,0,1,8.21,10H26.26a.58.58,0,0,1,.43.18.54.54,0,0,1,.18.42ZM13,13.39a.85.85,0,0,0-1.16,0,.77.77,0,0,0-.22.57V25.2a.77.77,0,0,0,.22.57.85.85,0,0,0,1.16,0,.77.77,0,0,0,.22-.57V14A.77.77,0,0,0,13,13.39Zm4.81,0a.81.81,0,0,0-1.38.57V25.2a.81.81,0,1,0,1.61,0V14A.78.78,0,0,0,17.81,13.39Zm4.82,0a.85.85,0,0,0-1.16,0,.77.77,0,0,0-.22.57V25.2a.77.77,0,0,0,.22.57.85.85,0,0,0,1.16,0,.77.77,0,0,0,.22-.57V14A.77.77,0,0,0,22.63,13.39Z"/></svg>