<svg id="Calque_1" data-name="Calque 1" xmlns="http://www.w3.org/2000/svg" viewBox="0 0 32 32"><defs><style>.cls-1{fill:#e3e3e3;}</style></defs><title>tvpcam_l</title><path class="cls-1" d="M30.23,16.65a.74.74,0,0,0-.25,0,.62.62,0,0,0-.44.18l-4,3.95V19.11A2.82,2.82,0,0,0,24,16.56c-.12,2.32-1.83,4.73-3.24,6.15l-.51.51-.65-.33-3.62-1.81c.43,1.4.57,2.84-.22,3.63a2.89,2.89,0,0,1-2.08.67c-.2,0-.41,0-.63,0V26a2.83,2.83,0,0,0,2.83,2.83h6.92A2.83,2.83,0,0,0,25.58,26V24.4l4,4a.59.59,0,0,0,.44.19.74.74,0,0,0,.25-.05.65.65,0,0,0,.38-.58V17.23A.63.63,0,0,0,30.23,16.65Z"/><path class="cls-1" d="M0,11c1-1,7-1,12,5a3.49,3.49,0,0,0,2-1S15,4,19,3c2-1,4,7,3,10,3,3-2,8-2,8l-4-2-2-1s2,4,1,5-6,0-7-3C6,14,0,13,0,11Z"/></svg>