<svg id="Calque_1" data-name="Calque 1" xmlns="http://www.w3.org/2000/svg" viewBox="0 0 32 32"><defs><style>.cls-1{fill:#e3e3e3;}</style></defs><title>unchained_l</title><path class="cls-1" d="M13.94,15.81a5,5,0,0,1-7.14.07l-3.6-3.6a5,5,0,0,1,0-7.06L5.76,2.69a5,5,0,0,1,7.06,0l3.57,3.59a5,5,0,0,1,1.44,3.52,5.07,5.07,0,0,1-1.53,3.62Zm3.89.17A5,5,0,0,1,25,15.91l3.6,3.61A4.91,4.91,0,0,1,30,23.05a5,5,0,0,1-1.47,3.52L26,29.1a5,5,0,0,1-7.06,0l-3.57-3.59A5,5,0,0,1,13.94,22a5.07,5.07,0,0,1,1.53-3.62ZM13.94,11.1a1.67,1.67,0,0,0,.58-1.27A1.7,1.7,0,0,0,14,8.65L10.46,5.06a1.69,1.69,0,0,0-1.18-.48,1.74,1.74,0,0,0-1.18.47L5.55,7.58a1.67,1.67,0,0,0,0,2.34l3.61,3.6a1.72,1.72,0,0,0,2.43-.07Zm3.89,9.59A1.67,1.67,0,0,0,17.25,22a1.7,1.7,0,0,0,.49,1.18l3.57,3.59a1.67,1.67,0,0,0,1.18.46,1.71,1.71,0,0,0,1.18-.45l2.55-2.53a1.63,1.63,0,0,0,.48-1.16,1.67,1.67,0,0,0-.48-1.18l-3.61-3.6a1.68,1.68,0,0,0-1.18-.49,1.64,1.64,0,0,0-1.25.56Z"/></svg>