<svg id="Calque_1" data-name="Calque 1" xmlns="http://www.w3.org/2000/svg" viewBox="0 0 32 32"><defs><style>.cls-1{fill:#e3e3e3;}</style></defs><title>ungulate_l</title><path class="cls-1" d="M26.86,10.14A11.55,11.55,0,0,0,16,3.63c-4.95,0-8.9,2.24-10.82,6.15C2.73,14.74,4.11,21.2,9,27.51a2.62,2.62,0,0,0,2.1,1A2.59,2.59,0,0,0,12.67,28a2.65,2.65,0,0,0,.49-3.71C9.64,19.7,8.43,15.16,9.92,12.12c1-2,3.22-3.2,6.08-3.2a6.32,6.32,0,0,1,6.07,3.46c1.51,3.22.32,7.64-3.16,11.82A2.64,2.64,0,1,0,23,27.59C27.81,21.79,29.27,15.26,26.86,10.14ZM5.67,11.78a.5.5,0,0,1,.49-.42h.08l2,.3a.46.46,0,0,1,.32.2.48.48,0,0,1,.09.37l-.3,2a.46.46,0,0,1-.2.32.45.45,0,0,1-.29.1H7.76l-2-.3a.49.49,0,0,1-.41-.57ZM8.3,19.25l-2,.43H6.23a.49.49,0,0,1-.48-.39l-.43-2a.49.49,0,0,1,.38-.59l2-.43h.11a.49.49,0,0,1,.48.39l.43,2A.49.49,0,0,1,8.3,19.25ZM10.8,9.16,9.54,10.72a.49.49,0,0,1-.7.08L7.28,9.54a.5.5,0,0,1-.08-.7L8.46,7.28a.49.49,0,0,1,.7-.08l1.56,1.26A.5.5,0,0,1,10.8,9.16Zm15.25,2.2a.47.47,0,0,1,.3.1.46.46,0,0,1,.2.32l.3,2a.5.5,0,0,1-.42.57l-2,.3h-.08a.47.47,0,0,1-.3-.1.48.48,0,0,1-.19-.32l-.31-2a.51.51,0,0,1,.42-.57l2-.3Zm-3-.45h0a.52.52,0,0,1-.34-.18L21.42,9.16a.5.5,0,0,1,.08-.7L23.06,7.2a.47.47,0,0,1,.31-.11h.05a.52.52,0,0,1,.34.18L25,8.84a.49.49,0,0,1-.07.7L23.38,10.8A.52.52,0,0,1,23.06,10.91Zm3.41,8.39a.5.5,0,0,1-.49.39h-.11l-1.95-.43a.49.49,0,0,1-.38-.59l.42-2a.5.5,0,0,1,.49-.39h.11l2,.43a.47.47,0,0,1,.32.21.57.57,0,0,1,.07.38Z"/></svg>