<?xml version="1.0" encoding="UTF-8" standalone="no"?>
<!-- Created with Inkscape (http://www.inkscape.org/) -->

<svg
   xmlns:dc="http://purl.org/dc/elements/1.1/"
   xmlns:cc="http://creativecommons.org/ns#"
   xmlns:rdf="http://www.w3.org/1999/02/22-rdf-syntax-ns#"
   xmlns:svg="http://www.w3.org/2000/svg"
   xmlns="http://www.w3.org/2000/svg"
   xmlns:sodipodi="http://sodipodi.sourceforge.net/DTD/sodipodi-0.dtd"
   xmlns:inkscape="http://www.inkscape.org/namespaces/inkscape"
   width="32"
   height="32"
   viewBox="0 0 8.4666666 8.4666666"
   version="1.1"
   id="svg8"
   inkscape:version="0.92.5 (2060ec1f9f, 2020-04-08)"
   sodipodi:docname="unmaximize_bl.svg">
  <defs
     id="defs2">
    <style
       id="style1399">.cls-1{fill:#e3e3e3;}</style>
    <style
       id="style1399-1">.cls-1{fill:#e3e3e3;}</style>
    <style
       id="style1399-5">.cls-1{fill:#e3e3e3;}</style>
    <style
       id="style1399-8">.cls-1{fill:#e3e3e3;}</style>
    <style
       id="style1399-7">.cls-1{fill:#e3e3e3;}</style>
    <style
       id="style1399-1-5">.cls-1{fill:#e3e3e3;}</style>
    <style
       id="style1399-5-6">.cls-1{fill:#e3e3e3;}</style>
    <style
       id="style1399-8-9">.cls-1{fill:#e3e3e3;}</style>
    <style
       id="style1399-2">.cls-1{fill:#e3e3e3;}</style>
    <style
       id="style1399-1-1">.cls-1{fill:#e3e3e3;}</style>
    <style
       id="style1399-5-5">.cls-1{fill:#e3e3e3;}</style>
    <style
       id="style1399-8-99">.cls-1{fill:#e3e3e3;}</style>
    <style
       id="style857">.cls-1{fill:#e52120;}.cls-1,.cls-2,.cls-3,.cls-4,.cls-5{stroke:#000;stroke-miterlimit:10;stroke-width:1.2px;}.cls-2{fill:#6dbc88;}.cls-3{fill:#701034;}.cls-4{fill:#51aae0;}.cls-5{fill:none;}</style>
    <style
       id="style1399-3">.cls-1{fill:#e3e3e3;}</style>
    <style
       id="style1399-1-8">.cls-1{fill:#e3e3e3;}</style>
    <style
       id="style1399-5-56">.cls-1{fill:#e3e3e3;}</style>
    <style
       id="style1399-8-1">.cls-1{fill:#e3e3e3;}</style>
    <style
       id="style1399-7-1">.cls-1{fill:#e3e3e3;}</style>
    <style
       id="style1399-1-5-5">.cls-1{fill:#e3e3e3;}</style>
    <style
       id="style1399-5-6-9">.cls-1{fill:#e3e3e3;}</style>
    <style
       id="style1399-8-9-8">.cls-1{fill:#e3e3e3;}</style>
    <style
       id="style1399-2-4">.cls-1{fill:#e3e3e3;}</style>
    <style
       id="style1399-1-1-8">.cls-1{fill:#e3e3e3;}</style>
    <style
       id="style1399-5-5-1">.cls-1{fill:#e3e3e3;}</style>
    <style
       id="style1399-8-99-0">.cls-1{fill:#e3e3e3;}</style>
    <style
       id="style857-3">.cls-1{fill:#e52120;}.cls-1,.cls-2,.cls-3,.cls-4,.cls-5{stroke:#000;stroke-miterlimit:10;stroke-width:1.2px;}.cls-2{fill:#6dbc88;}.cls-3{fill:#701034;}.cls-4{fill:#51aae0;}.cls-5{fill:none;}</style>
  </defs>
  <sodipodi:namedview
     id="base"
     pagecolor="#ffffff"
     bordercolor="#666666"
     borderopacity="1.0"
     inkscape:pageopacity="0.0"
     inkscape:pageshadow="2"
     inkscape:zoom="11.313708"
     inkscape:cx="-5.8177722"
     inkscape:cy="14.967121"
     inkscape:document-units="mm"
     inkscape:current-layer="svg8"
     showgrid="false"
     units="px"
     inkscape:window-width="1920"
     inkscape:window-height="1043"
     inkscape:window-x="0"
     inkscape:window-y="120"
     inkscape:window-maximized="1">
    <sodipodi:guide
       position="8.4666666,0"
       orientation="-32,0"
       id="guide854"
       inkscape:locked="false" />
    <sodipodi:guide
       position="8.4666666,8.4666666"
       orientation="0,-32"
       id="guide856"
       inkscape:locked="false" />
    <sodipodi:guide
       position="0,8.4666814"
       orientation="1,6.123234e-17"
       id="guide858"
       inkscape:locked="false" />
  </sodipodi:namedview>
  <metadata
     id="metadata5">
    <rdf:RDF>
      <cc:Work
         rdf:about="">
        <dc:format>image/svg+xml</dc:format>
        <dc:type
           rdf:resource="http://purl.org/dc/dcmitype/StillImage" />
        <dc:title></dc:title>
      </cc:Work>
    </rdf:RDF>
  </metadata>
  <path
     style="opacity:1;fill:#83d3f6;fill-opacity:1;stroke:none;stroke-width:0.49907812;stroke-linecap:round;stroke-linejoin:round;stroke-miterlimit:10;stroke-dasharray:none;stroke-opacity:1"
     d="m 4.3124029,8.4645191 c 0.05873,0 0.1174589,-0.022374 0.162264,-0.067179 L 5.9510625,6.9209442 C 6.0956235,6.7763838 5.9932425,6.5292368 5.7887986,6.5292368 H 2.8360073 c -0.204443,0 -0.3068359,0.247147 -0.1622642,0.3917074 L 4.150139,8.3973398 c 0.044806,0.044805 0.1035341,0.067179 0.1622639,0.067179 z"
     id="path855"
     inkscape:connector-curvature="0" />
  <path
     style="opacity:1;fill:#e3e3ef;fill-opacity:0.94117647;stroke:none;stroke-width:0.49907812;stroke-linecap:round;stroke-linejoin:round;stroke-miterlimit:10;stroke-dasharray:none;stroke-opacity:1"
     d="M 1.8143595,0 C 1.5147597,0 1.2733073,0.24145383 1.2733073,0.54105211 V 5.4787353 c 0,0.2995999 0.2414524,0.5405356 0.5410522,0.5405356 h 4.9371663 c 0.2995998,0 0.5410522,-0.2409357 0.5410522,-0.5405356 V 0.54105211 C 7.292578,0.24145383 7.0511256,0 6.7515258,0 Z m 0.2821533,0.49402666 h 4.3847453 c 0.1888781,0 0.3410643,0.15218648 0.3410643,0.34106458 v 0.15244524 c 0,0.18887832 -0.1521862,0.34106462 -0.3410643,0.34106462 H 2.0965128 c -0.1888783,0 -0.3410644,-0.1521863 -0.3410644,-0.34106462 V 0.83509124 c 0,-0.1888781 0.1521861,-0.34106458 0.3410644,-0.34106458 z M 2.9285033,1.8774048 H 4.0090576 V 2.1569742 H 3.8958861 C 3.6887504,2.1575033 3.5172054,2.3270878 3.5150308,2.5342123 v 0.00103 0.1948201 c 5.556e-4,0.2086184 0.1727544,0.3803097 0.381372,0.3808553 H 4.0090576 V 3.2954061 H 3.806486 C 3.6699655,3.2961734 3.5566082,3.4100334 3.5558552,3.5465536 v 0.1297078 c 2.1e-6,0.063238 -0.047868,0.1116412 -0.1111043,0.1121378 h -0.192753 c -0.06339,3e-7 -0.1117875,-0.048234 -0.111621,-0.1116211 V 3.6762614 3.5465536 C 3.1396096,3.4092156 3.0254635,3.295001 2.8881959,3.2954061 H 2.5869222 V 2.2195026 c 0,-0.1893837 0.1521968,-0.3420978 0.3415811,-0.3420978 z m 1.3503052,0 h 1.3554729 c 0.1893842,0 0.3415813,0.1527149 0.3415813,0.3420978 V 3.5646403 H 5.6854409 V 3.4540527 C 5.6859966,3.2446598 5.5134626,3.0716464 5.3040689,3.0716472 H 5.1097656 5.1082154 C 4.8999735,3.0732876 4.7299377,3.2458076 4.7299438,3.4540527 V 3.5646403 H 4.2788085 V 3.0943847 3.093868 C 4.2792054,2.9557851 4.1641942,2.841279 4.0261108,2.841687 H 3.8974365 3.8964028 C 3.8335775,2.8411843 3.7852781,2.7928867 3.784782,2.7300659 V 2.536796 C 3.7854424,2.4743921 3.8335831,2.4272225 3.8958861,2.4267253 H 4.0240436 C 4.1631409,2.4282599 4.2795859,2.3126164 4.2788085,2.1735106 Z M 5.110799,3.3413981 h 0.1932699 c 0.06339,-3e-7 0.1117876,0.048232 0.1116211,0.1116211 v 0.00103 0.1297077 C 5.4164309,3.7213093 5.5313524,3.83515 5.6689045,3.8343877 H 5.9758627 V 4.924764 c 0,0.1893842 -0.1521971,0.342098 -0.3415813,0.342098 H 4.5464925 V 4.9733399 h 0.113688 C 4.8673162,4.9728107 5.0388596,4.8027098 5.0410358,4.595585 V 4.4002482 C 5.0404802,4.1916303 4.8682819,4.0194241 4.6596638,4.0188762 H 4.5464925 v -0.184485 h 0.2020549 5.167e-4 C 4.8855875,3.8336504 4.9994589,3.7202809 5.0002117,3.5837604 V 3.4540527 C 5.0002095,3.3908146 5.0475586,3.3418961 5.110799,3.3413981 Z M 2.5869222,3.5646403 H 2.8701089 V 3.6762614 C 2.8695533,3.8856542 3.042604,4.0581506 3.2519979,4.0581501 H 3.4463013 C 3.6545403,4.0565097 3.8256127,3.8845065 3.8256061,3.6762614 V 3.5646403 h 0.4516522 v 0.4718058 c -3.968e-4,0.138086 0.114095,0.252589 0.252181,0.252181 h 0.1302245 c 0.063042,5.027e-4 0.1109393,0.049511 0.1111044,0.1126545 V 4.5930014 C 4.7701067,4.6556266 4.7222933,4.7034278 4.6596638,4.7035887 H 4.532023 C 4.3929236,4.7020541 4.2764813,4.8176974 4.2772583,4.9568034 V 5.266862 h -1.348755 c -0.1893843,0 -0.3415811,-0.1527138 -0.3415811,-0.342098 z"
     id="path853"
     inkscape:connector-curvature="0" />
  <style
     id="style815"
     type="text/css">
	.st0{fill:#00005B;}
	.st1{fill:#9999FF;}
</style>
  <style
     type="text/css"
     id="style815-7">
	.st0{fill:#00005B;}
	.st1{fill:#9999FF;}
</style>
</svg>
