<svg id="Calque_1" data-name="Calque 1" xmlns="http://www.w3.org/2000/svg" viewBox="0 0 32 32"><defs><style>.cls-1{fill:#e3e3e3;}</style></defs><title>up_l</title><path class="cls-1" d="M13.9,1.41A1.61,1.61,0,0,1,15.08.93a1.63,1.63,0,0,1,1.18.48l9.41,9.42a1.65,1.65,0,0,1,0,2.35l-1.59,1.53a1.68,1.68,0,0,1-2.35,0L15.08,8.06,8.43,14.71a1.68,1.68,0,0,1-2.35,0l-1.6-1.53a1.68,1.68,0,0,1,0-2.35Zm2.36,13.3a1.67,1.67,0,0,0-2.36,0L4.48,24.12a1.69,1.69,0,0,0,0,2.36L6.08,28a1.68,1.68,0,0,0,2.35,0l6.65-6.65L21.8,28a1.37,1.37,0,0,0,1.1.48A1.6,1.6,0,0,0,24.08,28l1.59-1.52a1.67,1.67,0,0,0,0-2.36Z"/></svg>