<svg id="Calque_1" data-name="Calque 1" xmlns="http://www.w3.org/2000/svg" viewBox="0 0 32 32"><defs><style>.cls-1{fill:#e3e3e3;}</style></defs><title>updatecode_l</title><path class="cls-1" d="M29.75,12a7.44,7.44,0,0,1-12.42,3.8L16.06,17a.59.59,0,0,1-.43.19.63.63,0,0,1-.63-.63V12.21a.63.63,0,0,1,.63-.63H20a.62.62,0,0,1,.44,1.07L19.1,14a5,5,0,0,0,7.66-1,6.82,6.82,0,0,0,.52-1.14.31.31,0,0,1,.3-.23h1.87a.31.31,0,0,1,.31.31A.17.17,0,0,1,29.75,12ZM30,8.45a.63.63,0,0,1-.63.63H25A.62.62,0,0,1,24.57,8l1.34-1.34a5,5,0,0,0-7.67,1,7.33,7.33,0,0,0-.51,1.15.31.31,0,0,1-.3.22H15.49a.31.31,0,0,1-.31-.31V8.7A7.45,7.45,0,0,1,22.5,2.83,7.56,7.56,0,0,1,27.67,4.9l1.27-1.26A.62.62,0,0,1,30,4.08Z"/><path class="cls-1" d="M10.53,12.57l-.71-.71a.46.46,0,0,0-.65,0L2.56,18.47a.46.46,0,0,0,0,.65l6.61,6.6a.44.44,0,0,0,.65,0l.71-.7a.47.47,0,0,0,0-.66L5,18.79l5.57-5.57A.46.46,0,0,0,10.53,12.57Z"/><path class="cls-1" d="M15.63,19.21a2.59,2.59,0,0,1-1.21-.31l-2.54,8.79a.46.46,0,0,0,.31.57l.88.24a.45.45,0,0,0,.55-.31l2.62-9.06A2.49,2.49,0,0,1,15.63,19.21Z"/><path class="cls-1" d="M27.89,18.13a9.19,9.19,0,0,1-2.71,1.31l-4.93,4.92a.47.47,0,0,0,0,.66l.71.7a.44.44,0,0,0,.65,0l6.61-6.6a.46.46,0,0,0,0-.65Z"/></svg>