<?xml version="1.0" encoding="UTF-8" standalone="no"?>
<svg
   xmlns:dc="http://purl.org/dc/elements/1.1/"
   xmlns:cc="http://creativecommons.org/ns#"
   xmlns:rdf="http://www.w3.org/1999/02/22-rdf-syntax-ns#"
   xmlns:svg="http://www.w3.org/2000/svg"
   xmlns="http://www.w3.org/2000/svg"
   xmlns:sodipodi="http://sodipodi.sourceforge.net/DTD/sodipodi-0.dtd"
   xmlns:inkscape="http://www.inkscape.org/namespaces/inkscape"
   id="Calque_1"
   data-name="Calque 1"
   viewBox="0 0 32 32"
   version="1.1"
   sodipodi:docname="update_l.svg"
   inkscape:version="0.92.4 (5da689c313, 2019-01-14)">
  <metadata
     id="metadata13">
    <rdf:RDF>
      <cc:Work
         rdf:about="">
        <dc:format>image/svg+xml</dc:format>
        <dc:type
           rdf:resource="http://purl.org/dc/dcmitype/StillImage" />
      </cc:Work>
    </rdf:RDF>
  </metadata>
  <sodipodi:namedview
     pagecolor="#ffffff"
     bordercolor="#666666"
     borderopacity="1"
     objecttolerance="10"
     gridtolerance="10"
     guidetolerance="10"
     inkscape:pageopacity="0"
     inkscape:pageshadow="2"
     inkscape:window-width="1920"
     inkscape:window-height="1121"
     id="namedview11"
     showgrid="false"
     inkscape:zoom="7.375"
     inkscape:cx="16"
     inkscape:cy="16"
     inkscape:window-x="-9"
     inkscape:window-y="-9"
     inkscape:window-maximized="1"
     inkscape:current-layer="Calque_1" />
  <defs
     id="defs4">
    <style
       id="style2">.cls-1{fill:#e3e3e3;}</style>
  </defs>
  <title
     id="title6">update_l</title>
  <path
     class="cls-1"
     d="m 15.941696,26.425203 a 10.565657,10.565657 0 0 0 10.301515,-8.128353 0.64834714,0.64834714 0 0 1 0.264141,-0.396212 0.79242428,0.79242428 0 0 1 0.432231,-0.120064 h 2.953582 a 0.67235999,0.67235999 0 0 1 0.564303,0.264141 0.69637286,0.69637286 0 0 1 0.156083,0.576308 14.707875,14.707875 0 0 1 -2.773484,6.195317 15.272177,15.272177 0 0 1 -5.210791,4.370341 14.407715,14.407715 0 0 1 -6.711594,1.596854 14.815933,14.815933 0 0 1 -11.3820941,-5.234801 l 0.2401285,4.934641 A 0.62433429,0.62433429 0 0 1 4.6316392,31.047677 0.78041785,0.78041785 0 0 1 4.0553308,31.263792 H 1.2458265 A 0.74439856,0.74439856 0 0 1 0.52544072,30.543407 V 18.536979 A 0.69637286,0.69637286 0 0 1 0.74155649,18.020702 0.64834714,0.64834714 0 0 1 1.2458265,17.780574 H 13.252255 a 0.69637286,0.69637286 0 0 1 0.720385,0.720385 v 2.821511 a 0.68436642,0.68436642 0 0 1 -0.204109,0.516276 0.69637286,0.69637286 0 0 1 -0.516276,0.216117 L 7.1169701,21.754701 a 10.409573,10.409573 0 0 0 3.7580119,3.421834 10.241483,10.241483 0 0 0 5.066714,1.248668 z M 27.083662,1.2117024 a 0.76841143,0.76841143 0 0 1 0.204109,-0.56430218 0.69637286,0.69637286 0 0 1 0.516276,-0.21611563 h 2.833517 A 0.74439856,0.74439856 0 0 1 31.357949,1.1516703 V 13.158099 a 0.69637286,0.69637286 0 0 1 -0.216115,0.516276 0.64834714,0.64834714 0 0 1 -0.50427,0.204109 H 18.631136 A 0.69637286,0.69637286 0 0 1 17.91075,13.158099 v -2.809504 a 0.68436642,0.68436642 0 0 1 0.204109,-0.5162769 0.78041785,0.78041785 0 0 1 0.576309,-0.216115 l 6.075253,0.312167 A 10.541644,10.541644 0 0 0 15.977714,5.2218496 10.565657,10.565657 0 0 0 5.6761987,13.350202 0.64834714,0.64834714 0 0 1 5.4120572,13.746414 0.81643713,0.81643713 0 0 1 4.9558129,13.890491 H 1.9662122 A 0.66035357,0.66035357 0 0 1 1.40191,13.626349 0.69637286,0.69637286 0 0 1 1.2458265,13.050041 14.707875,14.707875 0 0 1 4.0193114,6.8547238 15.272177,15.272177 0 0 1 9.2301016,2.4843838 14.515772,14.515772 0 0 1 15.941696,0.88752882 14.815933,14.815933 0 0 1 27.32379,6.1223316 Z"
     id="path8"
     inkscape:connector-curvature="0"
     style="fill:#e3e3e3;stroke-width:1.20064282" />
</svg>
