<svg id="Calque_1" data-name="Calque 1" xmlns="http://www.w3.org/2000/svg" viewBox="0 0 32 32"><defs><style>.cls-1{fill:#e3e3e3;}</style></defs><title>user_l</title><path class="cls-1" d="M21.75,17a6.72,6.72,0,0,1,6.72,6.72v2.1a2.39,2.39,0,0,1-2.41,2.41H8.41A2.39,2.39,0,0,1,6,25.8V23.7a6.72,6.72,0,0,1,3.36-5.82,6.61,6.61,0,0,1,3.36-.9h.85a8.8,8.8,0,0,0,7.33,0Zm-4.52-1.61A6.38,6.38,0,0,1,10.81,9a6.32,6.32,0,0,1,.86-3.23A6.23,6.23,0,0,1,14,3.38a6.58,6.58,0,0,1,6.47,0A6.23,6.23,0,0,1,22.8,5.72,6.31,6.31,0,0,1,23.65,9a6.38,6.38,0,0,1-.85,3.24,6.28,6.28,0,0,1-2.33,2.33A6.35,6.35,0,0,1,17.23,15.37Z"/></svg>