<?xml version="1.0" encoding="UTF-8" standalone="no"?>
<!-- Created with Inkscape (http://www.inkscape.org/) -->

<svg
   xmlns:dc="http://purl.org/dc/elements/1.1/"
   xmlns:cc="http://creativecommons.org/ns#"
   xmlns:rdf="http://www.w3.org/1999/02/22-rdf-syntax-ns#"
   xmlns:svg="http://www.w3.org/2000/svg"
   xmlns="http://www.w3.org/2000/svg"
   xmlns:sodipodi="http://sodipodi.sourceforge.net/DTD/sodipodi-0.dtd"
   xmlns:inkscape="http://www.inkscape.org/namespaces/inkscape"
   width="32"
   height="32"
   viewBox="0 0 8.4666666 8.4666666"
   version="1.1"
   id="svg8"
   inkscape:version="0.92.5 (2060ec1f9f, 2020-04-08)"
   sodipodi:docname="versionning-git-fetch-reload_bl.svg">
  <defs
     id="defs2">
    <style
       id="style1399">.cls-1{fill:#e3e3e3;}</style>
    <style
       id="style857">.cls-1{fill:#e52120;}.cls-1,.cls-2,.cls-3,.cls-4,.cls-5{stroke:#000;stroke-miterlimit:10;stroke-width:1.2px;}.cls-2{fill:#6dbc88;}.cls-3{fill:#701034;}.cls-4{fill:#51aae0;}.cls-5{fill:none;}</style>
    <style
       id="style1399-59">.cls-1{fill:#e3e3e3;}</style>
    <style
       id="style1399-4">.cls-1{fill:#e3e3e3;}</style>
    <style
       id="style1399-5">.cls-1{fill:#e3e3e3;}</style>
    <style
       id="style1399-7">.cls-1{fill:#e3e3e3;}</style>
    <style
       id="style1399-85">.cls-1{fill:#e3e3e3;}</style>
    <style
       id="style1399-4-6">.cls-1{fill:#e3e3e3;}</style>
    <style
       id="style1399-8">.cls-1{fill:#e3e3e3;}</style>
    <style
       id="style1399-4-5">.cls-1{fill:#e3e3e3;}</style>
    <style
       id="style1399-9">.cls-1{fill:#e3e3e3;}</style>
    <style
       id="style857-6">.cls-1{fill:#e52120;}.cls-1,.cls-2,.cls-3,.cls-4,.cls-5{stroke:#000;stroke-miterlimit:10;stroke-width:1.2px;}.cls-2{fill:#6dbc88;}.cls-3{fill:#701034;}.cls-4{fill:#51aae0;}.cls-5{fill:none;}</style>
    <style
       id="style1399-59-3">.cls-1{fill:#e3e3e3;}</style>
    <style
       id="style1399-4-8">.cls-1{fill:#e3e3e3;}</style>
    <style
       id="style1399-5-5">.cls-1{fill:#e3e3e3;}</style>
    <style
       id="style1399-7-6">.cls-1{fill:#e3e3e3;}</style>
    <style
       id="style1399-85-1">.cls-1{fill:#e3e3e3;}</style>
    <style
       id="style1399-4-6-1">.cls-1{fill:#e3e3e3;}</style>
    <style
       id="style1399-8-5">.cls-1{fill:#e3e3e3;}</style>
    <style
       id="style1399-4-5-9">.cls-1{fill:#e3e3e3;}</style>
  </defs>
  <sodipodi:namedview
     id="base"
     pagecolor="#ffffff"
     bordercolor="#666666"
     borderopacity="1.0"
     inkscape:pageopacity="0.0"
     inkscape:pageshadow="2"
     inkscape:zoom="8.0000004"
     inkscape:cx="2.0363906"
     inkscape:cy="6.1440001"
     inkscape:document-units="mm"
     inkscape:current-layer="svg8"
     showgrid="false"
     units="px"
     inkscape:window-width="1237"
     inkscape:window-height="1136"
     inkscape:window-x="0"
     inkscape:window-y="27"
     inkscape:window-maximized="0"
     inkscape:snap-bbox="true"
     inkscape:snap-nodes="false"
     inkscape:bbox-paths="true"
     inkscape:bbox-nodes="true"
     inkscape:snap-bbox-midpoints="true"
     inkscape:snap-bbox-edge-midpoints="true">
    <sodipodi:guide
       position="8.4666666,0"
       orientation="-32,0"
       id="guide854"
       inkscape:locked="false" />
    <sodipodi:guide
       position="8.4666666,8.4666666"
       orientation="0,-32"
       id="guide856"
       inkscape:locked="false" />
    <sodipodi:guide
       position="0,8.4666814"
       orientation="32,0"
       id="guide858"
       inkscape:locked="false" />
  </sodipodi:namedview>
  <metadata
     id="metadata5">
    <rdf:RDF>
      <cc:Work
         rdf:about="">
        <dc:format>image/svg+xml</dc:format>
        <dc:type
           rdf:resource="http://purl.org/dc/dcmitype/StillImage" />
        <dc:title></dc:title>
      </cc:Work>
    </rdf:RDF>
  </metadata>
  <style
     id="style815"
     type="text/css">
	.st0{fill:#00005B;}
	.st1{fill:#9999FF;}
</style>
  <style
     type="text/css"
     id="style815-3">
	.st0{fill:#00005B;}
	.st1{fill:#9999FF;}
</style>
  <path
     style="fill:#e3e3e3;fill-opacity:1;stroke-width:0.04743152"
     d="M 2.3320312 0 C 1.0750964 0 0.056640625 1.0184559 0.056640625 2.2753906 L 0.056640625 17.957031 C 0.175256 17.824406 0.28817592 17.686433 0.4140625 17.560547 C 1.1583205 16.816289 2.0269847 16.205735 2.9667969 15.732422 L 2.9667969 2.2773438 C 2.9667969 1.4560184 3.1849776 0.67974425 3.5644531 0 L 2.3320312 0 z M 7.6992188 0 C 6.4422836 0 5.4238293 1.0184559 5.4238281 2.2753906 L 5.4238281 14.863281 C 6.0892568 14.722061 6.7684907 14.64645 7.4492188 14.646484 C 7.7311186 14.64647 8.0123844 14.664694 8.2929688 14.689453 L 8.2929688 2.2773438 C 8.2929688 1.4560184 8.5111495 0.67974425 8.890625 0 L 7.6992188 0 z M 13.025391 0 C 11.768456 0 10.750001 1.0184559 10.75 2.2753906 L 10.75 15.232422 C 12.14493 15.726975 13.435634 16.513759 14.482422 17.560547 C 15.517985 18.59611 16.301177 19.872316 16.796875 21.25 L 29.722656 21.25 C 30.979591 21.25 32 20.229591 32 18.972656 L 32 2.2753906 C 32 1.0184559 30.979591 2.9605947e-16 29.722656 0 L 13.025391 0 z M 22.369141 3.6464844 C 22.411698 3.641571 22.454295 3.6459197 22.498047 3.6582031 L 24.167969 4.140625 C 24.34298 4.1898344 24.43985 4.3757891 24.390625 4.5507812 L 20.658203 17.40625 C 20.606246 17.58128 20.425014 17.684743 20.25 17.632812 L 18.582031 17.148438 C 18.40702 17.099228 18.31015 16.915242 18.359375 16.740234 L 22.091797 3.8828125 C 22.128723 3.7515495 22.241472 3.6616025 22.369141 3.6464844 z M 25.847656 6.6210938 C 25.931743 6.6187013 26.014447 6.6475671 26.080078 6.7089844 L 30.021484 10.408203 C 30.160949 10.536745 30.160949 10.758188 30.021484 10.886719 L 26.080078 14.580078 C 25.946083 14.703102 25.740241 14.698324 25.617188 14.564453 L 24.427734 13.294922 C 24.299219 13.160938 24.309784 12.947284 24.449219 12.824219 L 26.927734 10.644531 L 24.449219 8.4628906 C 24.309747 8.3398292 24.301918 8.1261718 24.427734 7.9921875 L 25.617188 6.7246094 C 25.680083 6.6589968 25.763569 6.6234749 25.847656 6.6210938 z M 16.90625 6.6230469 C 16.990337 6.6257795 17.073239 6.6609121 17.134766 6.7265625 L 18.324219 7.9941406 C 18.452734 8.1281249 18.442169 8.3417786 18.302734 8.4648438 L 15.824219 10.644531 L 18.302734 12.824219 C 18.442207 12.94728 18.450035 13.160934 18.324219 13.294922 L 17.134766 14.564453 C 17.011712 14.698437 16.803913 14.701955 16.669922 14.576172 L 12.728516 10.882812 C 12.589055 10.754271 12.589055 10.532827 12.728516 10.404297 L 16.669922 6.7128906 C 16.736918 6.6499993 16.822163 6.6203256 16.90625 6.6230469 z "
     transform="scale(0.26458333)"
     id="path1002-0" />
  <path
     sodipodi:type="inkscape:offset"
     inkscape:radius="0"
     inkscape:original="M 1.9707031 4.5605469 A 1.9471677 1.9471677 0 0 0 0.0234375 6.5078125 A 1.9471677 1.9471677 0 0 0 1.9707031 8.4550781 A 1.9471677 1.9471677 0 0 0 3.9179688 6.5078125 A 1.9471677 1.9471677 0 0 0 1.9707031 4.5605469 z M 1.9667969 5.3378906 C 2.2798533 5.3378906 2.5656246 5.4596961 2.7753906 5.6601562 L 2.9433594 5.4921875 C 3.0145894 5.4209575 3.1367188 5.4715156 3.1367188 5.5722656 L 3.1367188 6.203125 C 3.1367188 6.265574 3.0858859 6.3164063 3.0234375 6.3164062 L 2.390625 6.3164062 C 2.289888 6.3164062 2.2393165 6.1942857 2.3105469 6.1230469 L 2.5078125 5.9277344 C 2.3605278 5.7898242 2.1695712 5.7146597 1.9667969 5.7148438 C 1.6018692 5.71512 1.2862036 5.9634605 1.1992188 6.3105469 C 1.1928888 6.3357989 1.1705802 6.3554687 1.1445312 6.3554688 L 0.875 6.3554688 C 0.8396745 6.3554688 0.81182488 6.3218364 0.81835938 6.2871094 C 0.92029775 5.7457767 1.3958489 5.3378906 1.9667969 5.3378906 z M 2.7890625 6.65625 L 3.0605469 6.65625 C 3.0958719 6.65625 3.1217694 6.6879293 3.1152344 6.7226562 C 3.0132914 7.2639749 2.537745 7.6738281 1.9667969 7.6738281 C 1.6537407 7.6738281 1.369922 7.5500696 1.1601562 7.3496094 L 0.9921875 7.5175781 C 0.9209573 7.5888121 0.79882812 7.538245 0.79882812 7.4375 L 0.79882812 6.8066406 C 0.79882812 6.7441916 0.84966118 6.6933594 0.91210938 6.6933594 L 1.5429688 6.6933594 C 1.6437058 6.6933594 1.6942773 6.8154845 1.6230469 6.8867188 L 1.4277344 7.0839844 C 1.575019 7.2219037 1.765971 7.297059 1.96875 7.296875 C 2.3334893 7.2965951 2.6473478 7.0464662 2.734375 6.6992188 C 2.740705 6.6739667 2.7630135 6.65625 2.7890625 6.65625 z "
     style="fill:#8cffef;fill-opacity:1;stroke:none;stroke-width:0.71983886;stroke-miterlimit:4;stroke-dasharray:none;stroke-opacity:1"
     id="path869"
     d="M 1.9707031,4.5605469 A 1.9471677,1.9471677 0 0 0 0.0234375,6.5078125 1.9471677,1.9471677 0 0 0 1.9707031,8.4550781 1.9471677,1.9471677 0 0 0 3.9179688,6.5078125 1.9471677,1.9471677 0 0 0 1.9707031,4.5605469 Z m -0.00391,0.7773437 c 0.3130564,0 0.5988277,0.1218055 0.8085937,0.3222656 L 2.9433594,5.4921875 c 0.07123,-0.07123 0.1933594,-0.020672 0.1933594,0.080078 V 6.203125 c 0,0.062449 -0.050833,0.1132813 -0.1132813,0.1132812 H 2.390625 c -0.100737,0 -0.1513085,-0.1221205 -0.080078,-0.1933593 L 2.5078125,5.9277344 C 2.3605278,5.7898242 2.1695712,5.7146597 1.9667969,5.7148438 1.6018692,5.71512 1.2862036,5.9634605 1.1992188,6.3105469 c -0.00633,0.025252 -0.028639,0.044922 -0.054688,0.044922 H 0.875 c -0.0353255,0 -0.0631751,-0.033632 -0.0566406,-0.068359 C 0.92029775,5.7457767 1.3958489,5.3378906 1.9667969,5.3378906 Z M 2.7890625,6.65625 h 0.2714844 c 0.035325,0 0.061222,0.031679 0.054687,0.066406 -0.101943,0.5413187 -0.5774894,0.9511719 -1.1484375,0.9511719 -0.3130562,0 -0.5968749,-0.1237585 -0.8066407,-0.3242187 L 0.9921875,7.5175781 C 0.9209573,7.5888121 0.79882812,7.538245 0.79882812,7.4375 V 6.8066406 c 0,-0.062449 0.0508331,-0.1132812 0.11328126,-0.1132812 H 1.5429688 c 0.100737,0 0.1513085,0.1221251 0.080078,0.1933594 L 1.4277344,7.0839844 C 1.575019,7.2219037 1.765971,7.297059 1.96875,7.296875 2.3334893,7.2965951 2.6473478,7.0464662 2.734375,6.6992188 2.740705,6.6739667 2.7630135,6.65625 2.7890625,6.65625 Z" />
</svg>
