<?xml version="1.0" encoding="UTF-8" standalone="no"?>
<!-- Created with Inkscape (http://www.inkscape.org/) -->

<svg
   xmlns:dc="http://purl.org/dc/elements/1.1/"
   xmlns:cc="http://creativecommons.org/ns#"
   xmlns:rdf="http://www.w3.org/1999/02/22-rdf-syntax-ns#"
   xmlns:svg="http://www.w3.org/2000/svg"
   xmlns="http://www.w3.org/2000/svg"
   xmlns:sodipodi="http://sodipodi.sourceforge.net/DTD/sodipodi-0.dtd"
   xmlns:inkscape="http://www.inkscape.org/namespaces/inkscape"
   width="32"
   height="32"
   viewBox="0 0 8.4666666 8.4666666"
   version="1.1"
   id="svg8"
   inkscape:version="0.92.5 (2060ec1f9f, 2020-04-08)"
   sodipodi:docname="video-codec_sl.svg">
  <defs
     id="defs2">
    <style
       id="style1399">.cls-1{fill:#e3e3e3;}</style>
    <style
       id="style1399-4">.cls-1{fill:#e3e3e3;}</style>
  </defs>
  <sodipodi:namedview
     id="base"
     pagecolor="#ffffff"
     bordercolor="#666666"
     borderopacity="1.0"
     inkscape:pageopacity="0.0"
     inkscape:pageshadow="2"
     inkscape:zoom="0.70710678"
     inkscape:cx="-575.75865"
     inkscape:cy="-65.764057"
     inkscape:document-units="mm"
     inkscape:current-layer="svg8"
     showgrid="false"
     units="px"
     inkscape:window-width="1920"
     inkscape:window-height="1043"
     inkscape:window-x="0"
     inkscape:window-y="120"
     inkscape:window-maximized="1">
    <sodipodi:guide
       position="8.4666666,0"
       orientation="-32,0"
       id="guide854"
       inkscape:locked="false" />
    <sodipodi:guide
       position="9.9390855,8.4423761"
       orientation="0,-32"
       id="guide856"
       inkscape:locked="false" />
    <sodipodi:guide
       position="0,8.4666814"
       orientation="32,0"
       id="guide858"
       inkscape:locked="false" />
  </sodipodi:namedview>
  <metadata
     id="metadata5">
    <rdf:RDF>
      <cc:Work
         rdf:about="">
        <dc:format>image/svg+xml</dc:format>
        <dc:type
           rdf:resource="http://purl.org/dc/dcmitype/StillImage" />
        <dc:title></dc:title>
      </cc:Work>
    </rdf:RDF>
  </metadata>
  <path
     style="opacity:1;fill:#e3e3e3;fill-opacity:1;stroke:none;stroke-width:3.25398445;stroke-linecap:round;stroke-linejoin:round;stroke-miterlimit:4;stroke-dasharray:none;stroke-dashoffset:10.3937006;stroke-opacity:1"
     d="m 1.578125,4.0585938 c -0.82725769,0 -1.4921875,0.6649283 -1.4921875,1.4921874 V 26.449219 c 0,0.827259 0.66492981,1.492187 1.4921875,1.492187 h 0.4980469 v -1.242187 c 0,-0.410521 0.3355739,-0.748047 0.7460937,-0.748047 h 2.4882813 c 0.4105187,0 0.7460937,0.337533 0.7460937,0.748047 v 1.242187 H 25.960938 v -1.242187 c 0,-0.410521 0.33558,-0.748047 0.746093,-0.748047 h 2.488281 c 0.410518,0 0.746094,0.337533 0.746094,0.748047 v 1.242187 h 0.498047 c 0.827256,0 1.492188,-0.664928 1.492188,-1.492187 V 5.5507812 c 0,-0.8272591 -0.664932,-1.4921876 -1.492188,-1.4921874 h -0.498047 v 1.2421874 c 0,0.410521 -0.335584,0.7480469 -0.746094,0.7480469 h -2.488281 c -0.410521,0 -0.746094,-0.3375335 -0.746093,-0.7480469 V 4.0585938 H 6.0566406 v 1.2421874 c 0,0.410521 -0.3355747,0.7480469 -0.7460937,0.7480469 H 2.8222656 c -0.4105194,0 -0.7460937,-0.3375335 -0.7460937,-0.7480469 V 4.0585938 Z m 8.2109375,2.984375 H 22.228516 c 0.410519,0 0.746093,0.3355803 0.746093,0.7460937 V 24.210938 c 0,0.410519 -0.335574,0.746093 -0.746093,0.746093 H 9.7890625 c -0.4105191,0 -0.7460937,-0.335581 -0.7460937,-0.746093 V 7.7890625 c 0,-0.4105209 0.3355739,-0.7460937 0.7460937,-0.7460937 z M 2.8222656,8.0390625 h 2.4882813 c 0.4105187,0 0.7460937,0.3355805 0.7460937,0.7460937 v 2.4882818 c 0,0.410519 -0.3355747,0.746093 -0.7460937,0.746093 H 2.8222656 c -0.4105194,0 -0.7460937,-0.335581 -0.7460937,-0.746093 V 8.7851562 c 0,-0.4105208 0.3355739,-0.7460937 0.7460937,-0.7460937 z m 23.8847654,0 h 2.488281 c 0.410518,0 0.746094,0.3355805 0.746094,0.7460937 v 2.4882818 c 0,0.410519 -0.335584,0.746093 -0.746094,0.746093 h -2.488281 c -0.410521,0 -0.746094,-0.335581 -0.746093,-0.746093 V 8.7851562 c 0,-0.4105208 0.33558,-0.7460937 0.746093,-0.7460937 z m -8.767198,1.7538651 c -0.798866,0 -1.478684,0.1449846 -2.03789,0.4338084 -0.553062,0.288823 -1.004957,0.703484 -1.355231,1.244256 -0.344131,0.540769 -0.593506,1.196345 -0.753281,1.970634 -0.153633,0.768142 -0.232035,1.629595 -0.232035,2.575946 0,0.958642 0.06205,1.817313 0.184957,2.579311 0.129048,0.755852 0.349083,1.398434 0.662481,1.926916 0.313403,0.522339 0.73653,0.92459 1.27116,1.207265 0.534626,0.27653 1.210496,0.41363 2.027803,0.41363 0.805011,0 1.484828,-0.14499 2.037891,-0.433808 0.559209,-0.288821 1.011102,-0.70012 1.35523,-1.240893 0.350277,-0.540772 0.603012,-1.199126 0.756642,-1.96727 0.153635,-0.768142 0.232038,-1.626814 0.232038,-2.579311 -4e-6,-0.958641 -0.06545,-1.81673 -0.18832,-2.572584 -0.1229,-0.762001 -0.338993,-1.404579 -0.652394,-1.926915 C 20.935482,10.895431 20.508405,10.493178 19.967636,10.216647 19.433008,9.9339705 18.757138,9.792929 17.939833,9.7929276 Z m -0.104248,1.9201904 h 0.0033 c 0.208918,0 0.399614,0.02543 0.571685,0.08071 0.172041,0.05531 0.325517,0.150649 0.460711,0.285843 0.135178,0.129051 0.247456,0.303382 0.33965,0.524606 0.09833,0.221223 0.180694,0.4909 0.242125,0.810449 0.06761,0.319545 0.113908,0.700339 0.144602,1.136644 0.03058,0.43016 0.04708,0.927754 0.04708,1.493108 -4e-6,0.46703 -0.01227,0.894103 -0.037,1.281247 -0.01842,0.387147 -0.05959,0.731866 -0.12106,1.039123 -0.05532,0.307252 -0.129771,0.580295 -0.221948,0.813812 -0.09218,0.233516 -0.208387,0.424787 -0.349737,0.578412 -0.135211,0.153632 -0.293182,0.273212 -0.477526,0.353099 -0.184358,0.07372 -0.395919,0.110971 -0.63558,0.110971 -0.319551,0 -0.593171,-0.066 -0.820536,-0.195046 -0.22739,-0.135194 -0.414119,-0.367052 -0.561597,-0.692749 -0.141323,-0.33184 -0.24516,-0.775267 -0.312746,-1.328329 -0.06761,-0.559207 -0.104253,-1.26048 -0.104253,-2.10851 0,-0.694401 0.02887,-1.303694 0.08407,-1.826031 0.05532,-0.522337 0.150639,-0.957878 0.285842,-1.308149 0.141324,-0.35027 0.328083,-0.611481 0.561597,-0.783546 0.239714,-0.178209 0.541743,-0.312275 0.901294,-0.265666 z M 2.8222656,14.009766 h 2.4882813 c 0.4105187,0 0.7460937,0.335584 0.7460937,0.746093 v 2.488282 c 0,0.410521 -0.3355747,0.746093 -0.7460937,0.746093 H 2.8222656 c -0.4105194,0 -0.7460937,-0.33558 -0.7460937,-0.746093 v -2.488282 c 0,-0.410517 0.3355739,-0.746093 0.7460937,-0.746093 z m 23.8847654,0 h 2.488281 c 0.410518,0 0.746094,0.335584 0.746094,0.746093 v 2.488282 c 0,0.410521 -0.335584,0.746093 -0.746094,0.746093 h -2.488281 c -0.410521,0 -0.746094,-0.33558 -0.746093,-0.746093 v -2.488282 c 0,-0.410517 0.33558,-0.746093 0.746093,-0.746093 z M 10.762076,9.9265775 c -0.334448,0 -0.605314,0.2708675 -0.605314,0.6053145 v 10.75441 c 0,0.334448 0.270859,0.601953 0.605314,0.601953 h 1.133281 c 0.334448,0 0.601952,-0.267505 0.601952,-0.601953 v -10.75441 c 0,-0.334447 -0.267504,-0.6053145 -0.601952,-0.6053145 z M 2.8222656,19.980469 h 2.4882813 c 0.4105187,0 0.7460937,0.335581 0.7460937,0.746093 v 2.488282 c 0,0.410517 -0.3355747,0.746094 -0.7460937,0.746094 H 2.8222656 c -0.4105194,0 -0.7460937,-0.335585 -0.7460937,-0.746094 v -2.488282 c 0,-0.410519 0.3355739,-0.746093 0.7460937,-0.746093 z m 23.8847654,0 h 2.488281 c 0.410518,0 0.746094,0.335581 0.746094,0.746093 v 2.488282 c 0,0.410517 -0.335584,0.746094 -0.746094,0.746094 h -2.488281 c -0.410521,0 -0.746094,-0.335585 -0.746093,-0.746094 v -2.488282 c 0,-0.410519 0.33558,-0.746093 0.746093,-0.746093 z"
     transform="scale(0.26458333)"
     id="rect819"
     inkscape:connector-curvature="0"
     sodipodi:nodetypes="sssscssssccsssscsssscssscccsssscssssssssssssssssssssssssscssccccscccsccccccccsscccccccccccscccccccsssssssssssssssscsssssssssssssssssssssssssscsss" />
</svg>
