<?xml version="1.0" encoding="UTF-8" standalone="no"?>
<!-- Created with Inkscape (http://www.inkscape.org/) -->

<svg
   xmlns:osb="http://www.openswatchbook.org/uri/2009/osb"
   xmlns:dc="http://purl.org/dc/elements/1.1/"
   xmlns:cc="http://creativecommons.org/ns#"
   xmlns:rdf="http://www.w3.org/1999/02/22-rdf-syntax-ns#"
   xmlns:svg="http://www.w3.org/2000/svg"
   xmlns="http://www.w3.org/2000/svg"
   xmlns:sodipodi="http://sodipodi.sourceforge.net/DTD/sodipodi-0.dtd"
   xmlns:inkscape="http://www.inkscape.org/namespaces/inkscape"
   width="32"
   height="32"
   viewBox="0 0 8.4666666 8.4666666"
   version="1.1"
   id="svg8"
   inkscape:version="0.92.5 (2060ec1f9f, 2020-04-08)"
   sodipodi:docname="virus_sl.svg">
  <defs
     id="defs2">
    <linearGradient
       id="Neutral__dark_"
       osb:paint="solid">
      <stop
         style="stop-color:#232323;stop-opacity:1;"
         offset="0"
         id="stop832" />
    </linearGradient>
    <linearGradient
       id="linearGradient828"
       osb:paint="solid">
      <stop
         style="stop-color:#232323;stop-opacity:1;"
         offset="0"
         id="stop826" />
    </linearGradient>
    <linearGradient
       id="linearGradient1363"
       osb:paint="solid">
      <stop
         style="stop-color:#84b330;stop-opacity:1;"
         offset="0"
         id="stop1361" />
    </linearGradient>
    <style
       id="style1399">.cls-1{fill:#e3e3e3;}</style>
    <style
       id="style857">.cls-1{fill:#e52120;}.cls-1,.cls-2,.cls-3,.cls-4,.cls-5{stroke:#000;stroke-miterlimit:10;stroke-width:1.2px;}.cls-2{fill:#6dbc88;}.cls-3{fill:#701034;}.cls-4{fill:#51aae0;}.cls-5{fill:none;}</style>
    <style
       id="style857-2">.cls-1{fill:#e52120;}.cls-1,.cls-2,.cls-3,.cls-4,.cls-5{stroke:#000;stroke-miterlimit:10;stroke-width:1.2px;}.cls-2{fill:#6dbc88;}.cls-3{fill:#701034;}.cls-4{fill:#51aae0;}.cls-5{fill:none;}</style>
    <style
       id="style1399-7">.cls-1{fill:#e3e3e3;}</style>
    <style
       id="style1399-2">.cls-1{fill:#e3e3e3;}</style>
    <style
       id="style1399-8">.cls-1{fill:#e3e3e3;}</style>
    <style
       id="style1399-9">.cls-1{fill:#e3e3e3;}</style>
    <style
       id="style1399-5">.cls-1{fill:#e3e3e3;}</style>
    <style
       id="style857-6">.cls-1{fill:#e52120;}.cls-1,.cls-2,.cls-3,.cls-4,.cls-5{stroke:#000;stroke-miterlimit:10;stroke-width:1.2px;}.cls-2{fill:#6dbc88;}.cls-3{fill:#701034;}.cls-4{fill:#51aae0;}.cls-5{fill:none;}</style>
    <style
       id="style857-2-1">.cls-1{fill:#e52120;}.cls-1,.cls-2,.cls-3,.cls-4,.cls-5{stroke:#000;stroke-miterlimit:10;stroke-width:1.2px;}.cls-2{fill:#6dbc88;}.cls-3{fill:#701034;}.cls-4{fill:#51aae0;}.cls-5{fill:none;}</style>
    <style
       id="style1399-7-1">.cls-1{fill:#e3e3e3;}</style>
    <style
       id="style1399-2-5">.cls-1{fill:#e3e3e3;}</style>
    <style
       id="style1399-8-9">.cls-1{fill:#e3e3e3;}</style>
    <style
       id="style1399-9-8">.cls-1{fill:#e3e3e3;}</style>
  </defs>
  <sodipodi:namedview
     id="base"
     pagecolor="#ffffff"
     bordercolor="#666666"
     borderopacity="1.0"
     inkscape:pageopacity="0.0"
     inkscape:pageshadow="2"
     inkscape:zoom="16"
     inkscape:cx="15.120645"
     inkscape:cy="13.449475"
     inkscape:document-units="mm"
     inkscape:current-layer="layer1"
     showgrid="false"
     units="px"
     inkscape:window-width="1848"
     inkscape:window-height="1136"
     inkscape:window-x="0"
     inkscape:window-y="27"
     inkscape:window-maximized="1"
     inkscape:snap-bbox="true"
     inkscape:bbox-paths="true"
     inkscape:bbox-nodes="true"
     inkscape:snap-page="true">
    <sodipodi:guide
       position="8.4666666,0"
       orientation="-32,0"
       id="guide854"
       inkscape:locked="false" />
    <sodipodi:guide
       position="8.4666666,8.4666666"
       orientation="0,-32"
       id="guide856"
       inkscape:locked="false" />
    <sodipodi:guide
       position="0,8.4666814"
       orientation="32,0"
       id="guide858"
       inkscape:locked="false" />
  </sodipodi:namedview>
  <metadata
     id="metadata5">
    <rdf:RDF>
      <cc:Work
         rdf:about="">
        <dc:format>image/svg+xml</dc:format>
        <dc:type
           rdf:resource="http://purl.org/dc/dcmitype/StillImage" />
        <dc:title></dc:title>
      </cc:Work>
    </rdf:RDF>
  </metadata>
  <g
     inkscape:label="Layer 1"
     inkscape:groupmode="layer"
     id="layer1"
     transform="translate(0,-288.53334)">
    <path
       id="path1063"
       d="M 7.9888347,292.30464 H 7.6331954 c -0.8363709,0 -1.2553817,-1.01114 -0.6639151,-1.6026 l 0.2513408,-0.25167 a 0.46934483,0.46934483 0 0 0 -0.6634199,-0.66326 l -0.2515055,0.25118 c -0.5914671,0.5913 -1.6026049,0.17245 -1.6026049,-0.66392 v -0.35564 a 0.46950988,0.46950988 0 0 0 -0.9390197,0 v 0.35581 c 0,0.83637 -1.0111377,1.25521 -1.6026047,0.66391 L 1.909961,289.78711 a 0.46934483,0.46934483 0 0 0 -0.6634199,0.66326 l 0.2516705,0.25167 c 0.5914668,0.59146 0.1724561,1.6026 -0.66391511,1.6026 H 0.47832721 a 0.46950986,0.46950986 0 1 0 0,0.93886 h 0.35563933 c 0.83637106,0 1.25538186,1.0113 0.66391496,1.60277 l -0.2513404,0.2515 a 0.46950986,0.46950986 0 0 0 0.6634199,0.66342 l 0.2515054,-0.25167 c 0.591467,-0.59147 1.6026047,-0.17246 1.6026047,0.66391 v 0.35548 a 0.46950988,0.46950988 0 0 0 0.9390197,0 v -0.35515 c 0,-0.83637 1.0111378,-1.25538 1.6026049,-0.66391 l 0.2515055,0.25134 a 0.46950986,0.46950986 0 0 0 0.6634199,-0.66342 l -0.2516708,-0.2515 C 6.3774832,294.2548 6.7964939,293.2435 7.6328655,293.2435 h 0.3554739 a 0.46950986,0.46950986 0 1 0 0,-0.93886 z m -4.2833492,0.73356 a 0.79214318,0.79214318 0 1 1 0.7921432,-0.79215 0.79214318,0.79214318 0 0 1 -0.7921432,0.79215 z m 1.3202386,0.92416 a 0.39607159,0.39607159 0 1 1 0.3960716,-0.39607 0.39607159,0.39607159 0 0 1 -0.3960716,0.39607 z"
       inkscape:connector-curvature="0"
       style="stroke-width:0.01650298;fill:#e3e3e3" />
  </g>
  <style
     id="style815"
     type="text/css">
	.st0{fill:#00005B;}
	.st1{fill:#9999FF;}
</style>
  <style
     id="style815-2"
     type="text/css">
	.st0{fill:#00005B;}
	.st1{fill:#9999FF;}
</style>
  <style
     type="text/css"
     id="style815-4">
	.st0{fill:#00005B;}
	.st1{fill:#9999FF;}
</style>
  <style
     type="text/css"
     id="style815-2-4">
	.st0{fill:#00005B;}
	.st1{fill:#9999FF;}
</style>
</svg>
