<svg id="Calque_1" data-name="Calque 1" xmlns="http://www.w3.org/2000/svg" viewBox="0 0 32 32"><defs><style>.cls-1{fill:#e3e3e3;}.cls-2{fill:none;stroke:#e3e3e3;stroke-miterlimit:10;}</style></defs><title>vsym_l</title><rect class="cls-1" x="15" y="3" width="2" height="26" transform="translate(32) rotate(90)"/><path class="cls-1" d="M16.8,28.42a1,1,0,0,1-1.8,0l-4.54-7.7a1,1,0,0,1-.13-.7,1.05,1.05,0,0,1,.35-.62,1,1,0,0,1,.68-.25h9.09a1,1,0,0,1,.71.26,1.06,1.06,0,0,1,.32.64.93.93,0,0,1-.14.67Z"/><path class="cls-2" d="M15,3.37a1,1,0,0,1,.57-.49,1,1,0,0,1,.74,0,1,1,0,0,1,.57.49l4.77,8.07a1.1,1.1,0,0,1-.94,1.65H11.18a1,1,0,0,1-.74-.28,1.13,1.13,0,0,1-.35-.66,1,1,0,0,1,.15-.71Z"/></svg>