<svg id="Calque_1" data-name="Calque 1" xmlns="http://www.w3.org/2000/svg" viewBox="0 0 32 32"><defs><style>.cls-1{fill:#e3e3e3;}</style></defs><title>vulcanhand_l</title><path class="cls-1" d="M5.94,17.78a1.93,1.93,0,0,1,1.43.53l3.07,2.87v-4l-2-8.6A1.84,1.84,0,0,1,8.73,7,2,2,0,0,1,10,6.13a1.85,1.85,0,0,1,1.51.26,2,2,0,0,1,.9,1.25l1.76,7.7h.51L12.25,4.93a1.87,1.87,0,0,1,.25-1.51,2,2,0,0,1,1.26-.91,1.87,1.87,0,0,1,1.51.25A2,2,0,0,1,16.17,4l2.62,11.32h.75L22,5.58a1.87,1.87,0,0,1,.93-1.23,2,2,0,0,1,3,2.24l-2.21,8.75h.55l1.56-6.49a2.08,2.08,0,0,1,.91-1.26,1.87,1.87,0,0,1,1.51-.25,2.08,2.08,0,0,1,1.26.91,1.87,1.87,0,0,1,.25,1.51L27.9,17.45a4.24,4.24,0,0,0-.15,1.11v2.11A4.4,4.4,0,0,1,27.54,22l-1.3,4.48a2.53,2.53,0,0,1-.88,1.23,2.31,2.31,0,0,1-1.44.48H13a2.4,2.4,0,0,1-1.66-.65L4.65,21.23A1.86,1.86,0,0,1,4,19.84a2,2,0,0,1,1.91-2.06Z"/></svg>